<?xml version="1.0" standalone="no"?>
<!DOCTYPE svg PUBLIC "-//W3C//DTD SVG 20010904//EN"
 "http://www.w3.org/TR/2001/REC-SVG-20010904/DTD/svg10.dtd">
<svg version="1.0" xmlns="http://www.w3.org/2000/svg"
 width="700.000000pt" height="700.000000pt" viewBox="0 0 700.000000 700.000000"
 preserveAspectRatio="xMidYMid meet">
<metadata>
Created by potrace 1.14, written by Peter Selinger 2001-2017
</metadata>
<g transform="translate(0.000000,700.000000) scale(0.100000,-0.100000)"
fill="#000000" stroke="none">
<path d="M3280 6994 c-19 -2 -84 -9 -145 -14 -677 -66 -1344 -348 -1878 -795
-633 -530 -1051 -1249 -1201 -2065 -40 -218 -51 -357 -51 -625 0 -327 25 -537
99 -840 219 -892 800 -1676 1600 -2158 428 -258 902 -416 1431 -479 145 -17
576 -17 730 0 822 91 1556 447 2131 1034 203 206 348 390 487 618 274 449 432
913 499 1465 16 135 16 591 0 730 -101 848 -447 1557 -1043 2141 -555 542
-1249 874 -2029 970 -117 15 -553 27 -630 18z m615 -158 c329 -43 599 -113
877 -227 607 -249 1131 -673 1500 -1214 316 -463 501 -963 569 -1540 17 -142
17 -557 0 -705 -121 -1069 -704 -1981 -1620 -2534 -400 -242 -862 -397 -1366
-457 -144 -18 -566 -18 -710 0 -579 69 -1078 254 -1540 569 -749 511 -1266
1316 -1415 2202 -37 222 -44 315 -44 570 0 255 7 348 44 570 219 1304 1216
2375 2504 2691 181 44 364 73 596 93 91 8 498 -4 605 -18z"/>
<path d="M3483 4865 c-6 -17 -81 -230 -168 -475 -86 -245 -160 -449 -165 -453
-4 -5 -146 81 -316 191 -170 109 -379 244 -466 300 l-156 100 -739 -475 c-406
-261 -744 -480 -752 -486 -11 -9 284 -13 1213 -17 l1228 -5 165 -402 c92 -222
169 -403 172 -403 3 0 66 148 140 328 74 180 150 364 169 409 l34 83 1225 2
1224 3 -751 483 -751 484 -471 -304 c-259 -166 -474 -303 -477 -303 -4 0 -254
699 -344 960 -2 5 -8 -4 -14 -20z m345 -950 c-3 -3 -78 -52 -167 -110 l-163
-104 -36 23 c-21 13 -97 62 -171 110 l-134 86 338 0 c186 0 336 -2 333 -5z"/>
<path d="M3362 2453 c-73 -148 -133 -271 -132 -275 0 -9 540 -11 540 -3 0 7
-269 545 -273 545 -1 0 -62 -120 -135 -267z"/>
</g>
</svg>
