<svg width="515" height="398" viewBox="0 0 515 398" fill="none" xmlns="http://www.w3.org/2000/svg">
<g clip-path="url(#clip0_21779_892)">
<path fill-rule="evenodd" clip-rule="evenodd" d="M215.868 15.8733C359.779 -3.23879 442.726 -4.66845 596.133 15.8734L597 15.9895V16.8646V83.2497V84.2497H596H587.927V114.695V115.695H586.927H571.735C571.665 116.067 571.575 116.56 571.477 117.152C571.244 118.559 570.965 120.518 570.778 122.724C570.402 127.181 570.423 132.48 571.853 136.308C573.376 140.388 577.228 144.747 580.817 148.15C582.594 149.835 584.272 151.255 585.507 152.254C586.124 152.753 586.629 153.146 586.979 153.414C587.153 153.547 587.289 153.65 587.381 153.718L587.421 153.748L587.484 153.795L587.51 153.814L587.516 153.818L587.517 153.819L587.513 153.824L587.517 153.819L587.927 154.118V154.626V180.081H596H597V181.081V340.305V341.305H596H587.927V377.241V378.054L587.132 378.22C461.233 404.574 380.765 404.615 226.506 378.227L225.674 378.085V377.241V341.305H216H215V340.305V181.081V180.081H216H225.674V154.626V154.043L226.182 153.756C227.051 153.264 227.943 152.782 228.843 152.296C231.642 150.782 234.513 149.23 237.004 147.224C240.243 144.617 242.716 141.327 243.294 136.538L243.295 136.527L243.297 136.516C244.225 130.008 244.36 125.557 243.382 115.695H226.674H225.674V114.695V84.2497H216H215V83.2497V16.8646V15.9886L215.868 15.8733ZM227.674 341.417C374.407 357.008 453.271 357.024 585.927 341.43V376.429C461.002 402.508 380.87 402.554 227.674 376.398V341.417ZM245.392 115.695H569.701C569.642 116.017 569.575 116.396 569.504 116.825C569.265 118.271 568.977 120.284 568.785 122.556C568.537 125.495 568.442 128.939 568.851 132.163H245.824C246.226 127.568 246.123 123.126 245.392 115.695ZM245.62 134.163H569.178C569.382 135.157 569.645 136.113 569.979 137.007C571.675 141.55 575.829 146.176 579.441 149.601C581.265 151.331 582.985 152.786 584.249 153.809C584.882 154.321 585.401 154.725 585.763 155.002C585.822 155.047 585.877 155.089 585.927 155.127V180.705C446.559 187.461 367.512 186.945 227.674 180.624V155.212C228.314 154.856 228.98 154.497 229.662 154.128L229.666 154.126L229.667 154.125L229.675 154.121L229.678 154.12L229.678 154.119C232.509 152.59 235.61 150.915 238.259 148.782C241.773 145.953 244.618 142.233 245.278 136.788C245.407 135.881 245.521 135.012 245.62 134.163ZM570.916 113.695H585.927V84.2495H227.674V113.695L244.286 113.695L570.916 113.695ZM226.674 82.2497L226.674 82.2495H586.927L586.927 82.2497H595V17.7397C442.641 -2.61474 359.94 -1.20394 217 17.7407V82.2497H226.674ZM226.629 182.579L226.651 182.081H217V339.305H226.674H226.727L226.78 339.311C374.503 355.049 453.308 355.058 586.81 339.312L586.868 339.305H586.927H595V182.081H588.553L588.577 182.578C447.229 189.483 367.97 188.982 226.629 182.579Z" fill="#344F10"/>
<circle cx="194.5" cy="51.5" r="2.5" transform="rotate(-180 194.5 51.5)" fill="#333333"/>
<circle cx="194.5" cy="124.5" r="2.5" transform="rotate(-180 194.5 124.5)" fill="#333333"/>
<circle cx="194.5" cy="200.5" r="2.5" fill="#333333"/>
<rect x="193" y="52" width="76" height="1" transform="rotate(-180 193 52)" fill="#333333"/>
<rect x="193" y="125" width="76" height="1" transform="rotate(-180 193 125)" fill="#333333"/>
<rect x="193" y="201" width="76" height="1" transform="rotate(-180 193 201)" fill="#333333"/>
<circle cx="194.5" cy="200.5" r="2.5" fill="#333333"/>
<circle cx="194.5" cy="273.5" r="2.5" fill="#333333"/>
<rect x="193" y="274" width="76" height="1" transform="rotate(-180 193 274)" fill="#333333"/>
<circle cx="194.5" cy="273.5" r="2.5" fill="#333333"/>
<circle cx="194.5" cy="273.5" r="2.5" fill="#333333"/>
<circle cx="194.5" cy="273.5" r="2.5" fill="#333333"/>
<circle cx="194.5" cy="345.5" r="2.5" fill="#333333"/>
<rect x="193" y="346" width="76" height="1" transform="rotate(-180 193 346)" fill="#333333"/>
<circle cx="194.5" cy="345.5" r="2.5" fill="#333333"/>
<circle cx="194.5" cy="345.5" r="2.5" fill="#333333"/>
<circle cx="194.5" cy="345.5" r="2.5" fill="#333333"/>
</g>
<path d="M55.5456 56.9983L50.9536 51.9103V56.9983H49.4976V45.8463H50.9536V51.0143L55.5616 45.8463H57.4016L52.3456 51.4303L57.4496 56.9983H55.5456ZM58.5318 52.5823C58.5318 51.6863 58.7131 50.9023 59.0758 50.2303C59.4384 49.5476 59.9344 49.0196 60.5638 48.6463C61.2038 48.273 61.9131 48.0863 62.6918 48.0863C63.4598 48.0863 64.1264 48.2516 64.6918 48.5823C65.2571 48.913 65.6784 49.329 65.9558 49.8303V48.2303H67.4278V56.9983H65.9558V55.3663C65.6678 55.8783 65.2358 56.305 64.6598 56.6463C64.0944 56.977 63.4331 57.1423 62.6758 57.1423C61.8971 57.1423 61.1931 56.9503 60.5638 56.5663C59.9344 56.1823 59.4384 55.6436 59.0758 54.9503C58.7131 54.257 58.5318 53.4676 58.5318 52.5823ZM65.9558 52.5983C65.9558 51.937 65.8224 51.361 65.5558 50.8703C65.2891 50.3796 64.9264 50.0063 64.4678 49.7503C64.0198 49.4836 63.5238 49.3503 62.9798 49.3503C62.4358 49.3503 61.9398 49.4783 61.4918 49.7343C61.0438 49.9903 60.6864 50.3636 60.4198 50.8543C60.1531 51.345 60.0198 51.921 60.0198 52.5823C60.0198 53.2543 60.1531 53.841 60.4198 54.3423C60.6864 54.833 61.0438 55.2116 61.4918 55.4783C61.9398 55.7343 62.4358 55.8623 62.9798 55.8623C63.5238 55.8623 64.0198 55.7343 64.4678 55.4783C64.9264 55.2116 65.2891 54.833 65.5558 54.3423C65.8224 53.841 65.9558 53.2596 65.9558 52.5983ZM73.7123 57.1423C72.8909 57.1423 72.1443 56.9556 71.4723 56.5823C70.8109 56.209 70.2883 55.681 69.9043 54.9983C69.5309 54.305 69.3443 53.505 69.3443 52.5983C69.3443 51.7023 69.5363 50.913 69.9203 50.2303C70.3149 49.537 70.8483 49.009 71.5203 48.6463C72.1923 48.273 72.9443 48.0863 73.7763 48.0863C74.6083 48.0863 75.3603 48.273 76.0323 48.6463C76.7043 49.009 77.2323 49.5316 77.6163 50.2143C78.0109 50.897 78.2083 51.6916 78.2083 52.5983C78.2083 53.505 78.0056 54.305 77.6003 54.9983C77.2056 55.681 76.6669 56.209 75.9843 56.5823C75.3016 56.9556 74.5443 57.1423 73.7123 57.1423ZM73.7123 55.8623C74.2349 55.8623 74.7256 55.7396 75.1843 55.4943C75.6429 55.249 76.0109 54.881 76.2883 54.3903C76.5763 53.8996 76.7203 53.3023 76.7203 52.5983C76.7203 51.8943 76.5816 51.297 76.3043 50.8063C76.0269 50.3156 75.6643 49.953 75.2163 49.7183C74.7683 49.473 74.2829 49.3503 73.7603 49.3503C73.2269 49.3503 72.7363 49.473 72.2883 49.7183C71.8509 49.953 71.4989 50.3156 71.2323 50.8063C70.9656 51.297 70.8323 51.8943 70.8323 52.5983C70.8323 53.313 70.9603 53.9156 71.2163 54.4063C71.4829 54.897 71.8349 55.265 72.2723 55.5103C72.7096 55.745 73.1896 55.8623 73.7123 55.8623ZM81.5786 45.1583V56.9983H80.1226V45.1583H81.5786ZM84.8121 46.8063C84.5348 46.8063 84.3001 46.7103 84.1081 46.5183C83.9161 46.3263 83.8201 46.0916 83.8201 45.8143C83.8201 45.537 83.9161 45.3023 84.1081 45.1103C84.3001 44.9183 84.5348 44.8223 84.8121 44.8223C85.0788 44.8223 85.3028 44.9183 85.4841 45.1103C85.6761 45.3023 85.7721 45.537 85.7721 45.8143C85.7721 46.0916 85.6761 46.3263 85.4841 46.5183C85.3028 46.7103 85.0788 46.8063 84.8121 46.8063ZM85.5161 48.2303V56.9983H84.0601V48.2303H85.5161ZM92.2696 48.0703C93.3363 48.0703 94.2003 48.3956 94.8616 49.0463C95.523 49.6863 95.8536 50.6143 95.8536 51.8303V56.9983H94.4136V52.0383C94.4136 51.1636 94.195 50.497 93.7576 50.0383C93.3203 49.569 92.723 49.3343 91.9656 49.3343C91.1976 49.3343 90.5843 49.5743 90.1256 50.0543C89.6776 50.5343 89.4536 51.233 89.4536 52.1503V56.9983H87.9976V48.2303H89.4536V49.4783C89.7416 49.0303 90.131 48.6836 90.6216 48.4383C91.123 48.193 91.6723 48.0703 92.2696 48.0703Z" fill="#333333"/>
<path d="M60.4243 133.11C59.6883 133.11 59.0269 132.982 58.4403 132.726C57.8643 132.46 57.4109 132.097 57.0803 131.638C56.7496 131.169 56.5789 130.63 56.5683 130.022H58.1203C58.1736 130.545 58.3869 130.988 58.7603 131.35C59.1443 131.702 59.6989 131.878 60.4243 131.878C61.1176 131.878 61.6616 131.708 62.0563 131.366C62.4616 131.014 62.6643 130.566 62.6643 130.022C62.6643 129.596 62.5469 129.249 62.3123 128.982C62.0776 128.716 61.7843 128.513 61.4323 128.374C61.0803 128.236 60.6056 128.086 60.0083 127.926C59.2723 127.734 58.6803 127.542 58.2323 127.35C57.7949 127.158 57.4163 126.86 57.0963 126.454C56.7869 126.038 56.6323 125.484 56.6323 124.79C56.6323 124.182 56.7869 123.644 57.0963 123.174C57.4056 122.705 57.8376 122.342 58.3923 122.086C58.9576 121.83 59.6029 121.702 60.3283 121.702C61.3736 121.702 62.2269 121.964 62.8883 122.486C63.5603 123.009 63.9389 123.702 64.0243 124.566H62.4243C62.3709 124.14 62.1469 123.766 61.7523 123.446C61.3576 123.116 60.8349 122.95 60.1843 122.95C59.5763 122.95 59.0803 123.11 58.6963 123.43C58.3123 123.74 58.1203 124.177 58.1203 124.742C58.1203 125.148 58.2323 125.478 58.4563 125.734C58.6909 125.99 58.9736 126.188 59.3043 126.326C59.6456 126.454 60.1203 126.604 60.7283 126.774C61.4643 126.977 62.0563 127.18 62.5043 127.382C62.9523 127.574 63.3363 127.878 63.6562 128.294C63.9763 128.7 64.1363 129.254 64.1363 129.958C64.1363 130.502 63.9923 131.014 63.7043 131.494C63.4163 131.974 62.9896 132.364 62.4243 132.662C61.8589 132.961 61.1923 133.11 60.4243 133.11ZM67.0309 122.806C66.7535 122.806 66.5189 122.71 66.3269 122.518C66.1349 122.326 66.0389 122.092 66.0389 121.814C66.0389 121.537 66.1349 121.302 66.3269 121.11C66.5189 120.918 66.7535 120.822 67.0309 120.822C67.2975 120.822 67.5215 120.918 67.7029 121.11C67.8949 121.302 67.9909 121.537 67.9909 121.814C67.9909 122.092 67.8949 122.326 67.7029 122.518C67.5215 122.71 67.2975 122.806 67.0309 122.806ZM67.7349 124.23V132.998H66.2789V124.23H67.7349ZM73.4804 131.654L76.2004 124.23H77.7524L74.3124 132.998H72.6164L69.1764 124.23H70.7444L73.4804 131.654ZM78.6411 128.582C78.6411 127.686 78.8225 126.902 79.1851 126.23C79.5478 125.548 80.0438 125.02 80.6731 124.646C81.3131 124.273 82.0225 124.086 82.8011 124.086C83.5691 124.086 84.2358 124.252 84.8011 124.582C85.3665 124.913 85.7878 125.329 86.0651 125.83V124.23H87.5371V132.998H86.0651V131.366C85.7771 131.878 85.3451 132.305 84.7691 132.646C84.2038 132.977 83.5425 133.142 82.7851 133.142C82.0065 133.142 81.3025 132.95 80.6731 132.566C80.0438 132.182 79.5478 131.644 79.1851 130.95C78.8225 130.257 78.6411 129.468 78.6411 128.582ZM86.0651 128.598C86.0651 127.937 85.9318 127.361 85.6651 126.87C85.3985 126.38 85.0358 126.006 84.5771 125.75C84.1291 125.484 83.6331 125.35 83.0891 125.35C82.5451 125.35 82.0491 125.478 81.6011 125.734C81.1531 125.99 80.7958 126.364 80.5291 126.854C80.2625 127.345 80.1291 127.921 80.1291 128.582C80.1291 129.254 80.2625 129.841 80.5291 130.342C80.7958 130.833 81.1531 131.212 81.6011 131.478C82.0491 131.734 82.5451 131.862 83.0891 131.862C83.6331 131.862 84.1291 131.734 84.5771 131.478C85.0358 131.212 85.3985 130.833 85.6651 130.342C85.9318 129.841 86.0651 129.26 86.0651 128.598ZM94.8936 132.998L91.4536 129.126V132.998H89.9976V121.158H91.4536V128.118L94.8296 124.23H96.8616L92.7336 128.598L96.8776 132.998H94.8936Z" fill="#333333"/>
<path d="M30.2036 200.414C30.2036 199.326 30.449 198.35 30.9396 197.486C31.4303 196.612 32.097 195.929 32.9396 195.438C33.793 194.948 34.737 194.702 35.7716 194.702C36.9876 194.702 38.049 194.996 38.9556 195.582C39.8623 196.169 40.5236 197.001 40.9396 198.078H39.1956C38.8863 197.406 38.4383 196.889 37.8516 196.526C37.2756 196.164 36.5823 195.982 35.7716 195.982C34.993 195.982 34.2943 196.164 33.6756 196.526C33.057 196.889 32.5716 197.406 32.2196 198.078C31.8676 198.74 31.6916 199.518 31.6916 200.414C31.6916 201.3 31.8676 202.078 32.2196 202.75C32.5716 203.412 33.057 203.924 33.6756 204.286C34.2943 204.649 34.993 204.83 35.7716 204.83C36.5823 204.83 37.2756 204.654 37.8516 204.302C38.4383 203.94 38.8863 203.422 39.1956 202.75H40.9396C40.5236 203.817 39.8623 204.644 38.9556 205.23C38.049 205.806 36.9876 206.094 35.7716 206.094C34.737 206.094 33.793 205.854 32.9396 205.374C32.097 204.884 31.4303 204.206 30.9396 203.342C30.449 202.478 30.2036 201.502 30.2036 200.414ZM42.563 201.582C42.563 200.686 42.7443 199.902 43.107 199.23C43.4697 198.548 43.9657 198.02 44.595 197.646C45.235 197.273 45.9443 197.086 46.723 197.086C47.491 197.086 48.1577 197.252 48.723 197.582C49.2883 197.913 49.7097 198.329 49.987 198.83V197.23H51.459V205.998H49.987V204.366C49.699 204.878 49.267 205.305 48.691 205.646C48.1257 205.977 47.4643 206.142 46.707 206.142C45.9283 206.142 45.2243 205.95 44.595 205.566C43.9657 205.182 43.4697 204.644 43.107 203.95C42.7443 203.257 42.563 202.468 42.563 201.582ZM49.987 201.598C49.987 200.937 49.8537 200.361 49.587 199.87C49.3203 199.38 48.9577 199.006 48.499 198.75C48.051 198.484 47.555 198.35 47.011 198.35C46.467 198.35 45.971 198.478 45.523 198.734C45.075 198.99 44.7177 199.364 44.451 199.854C44.1843 200.345 44.051 200.921 44.051 201.582C44.051 202.254 44.1843 202.841 44.451 203.342C44.7177 203.833 45.075 204.212 45.523 204.478C45.971 204.734 46.467 204.862 47.011 204.862C47.555 204.862 48.051 204.734 48.499 204.478C48.9577 204.212 49.3203 203.833 49.587 203.342C49.8537 202.841 49.987 202.26 49.987 201.598ZM55.3755 194.158V205.998H53.9195V194.158H55.3755ZM57.313 201.598C57.313 200.692 57.4943 199.902 57.857 199.23C58.2197 198.548 58.721 198.02 59.361 197.646C60.0117 197.273 60.753 197.086 61.585 197.086C62.6623 197.086 63.5477 197.348 64.241 197.87C64.945 198.393 65.409 199.118 65.633 200.046H64.065C63.9157 199.513 63.6223 199.092 63.185 198.782C62.7583 198.473 62.225 198.318 61.585 198.318C60.753 198.318 60.081 198.606 59.569 199.182C59.057 199.748 58.801 200.553 58.801 201.598C58.801 202.654 59.057 203.47 59.569 204.046C60.081 204.622 60.753 204.91 61.585 204.91C62.225 204.91 62.7583 204.761 63.185 204.462C63.6117 204.164 63.905 203.737 64.065 203.182H65.633C65.3983 204.078 64.929 204.798 64.225 205.342C63.521 205.876 62.641 206.142 61.585 206.142C60.753 206.142 60.0117 205.956 59.361 205.582C58.721 205.209 58.2197 204.681 57.857 203.998C57.4943 203.316 57.313 202.516 57.313 201.598ZM68.3278 195.806C68.0504 195.806 67.8158 195.71 67.6238 195.518C67.4318 195.326 67.3358 195.092 67.3358 194.814C67.3358 194.537 67.4318 194.302 67.6238 194.11C67.8158 193.918 68.0504 193.822 68.3278 193.822C68.5944 193.822 68.8184 193.918 68.9998 194.11C69.1918 194.302 69.2878 194.537 69.2878 194.814C69.2878 195.092 69.1918 195.326 68.9998 195.518C68.8184 195.71 68.5944 195.806 68.3278 195.806ZM69.0318 197.23V205.998H67.5758V197.23H69.0318ZM79.2893 197.23V205.998H77.8333V204.702C77.5559 205.15 77.1666 205.502 76.6653 205.758C76.1746 206.004 75.6306 206.126 75.0333 206.126C74.3506 206.126 73.7373 205.988 73.1933 205.71C72.6493 205.422 72.2173 204.996 71.8973 204.43C71.5879 203.865 71.4333 203.177 71.4333 202.366V197.23H72.8733V202.174C72.8733 203.038 73.0919 203.705 73.5293 204.174C73.9666 204.633 74.5639 204.862 75.3213 204.862C76.0999 204.862 76.7133 204.622 77.1613 204.142C77.6093 203.662 77.8333 202.964 77.8333 202.046V197.23H79.2893ZM92.2916 197.07C92.9743 197.07 93.5823 197.214 94.1156 197.502C94.649 197.78 95.0703 198.201 95.3796 198.766C95.689 199.332 95.8436 200.02 95.8436 200.83V205.998H94.4036V201.038C94.4036 200.164 94.185 199.497 93.7476 199.038C93.321 198.569 92.7396 198.334 92.0036 198.334C91.2463 198.334 90.6436 198.58 90.1956 199.07C89.7476 199.55 89.5236 200.249 89.5236 201.166V205.998H88.0836V201.038C88.0836 200.164 87.865 199.497 87.4276 199.038C87.001 198.569 86.4196 198.334 85.6836 198.334C84.9263 198.334 84.3236 198.58 83.8756 199.07C83.4276 199.55 83.2036 200.249 83.2036 201.166V205.998H81.7476V197.23H83.2036V198.494C83.4916 198.036 83.8756 197.684 84.3556 197.438C84.8463 197.193 85.385 197.07 85.9716 197.07C86.7076 197.07 87.3583 197.236 87.9236 197.566C88.489 197.897 88.9103 198.382 89.1876 199.022C89.433 198.404 89.8383 197.924 90.4036 197.582C90.969 197.241 91.5983 197.07 92.2916 197.07Z" fill="#333333"/>
<path d="M2.813 280.814H6.717V281.998H1.357V270.846H2.813V280.814ZM9.01525 271.806C8.73792 271.806 8.50325 271.71 8.31125 271.518C8.11925 271.326 8.02325 271.092 8.02325 270.814C8.02325 270.537 8.11925 270.302 8.31125 270.11C8.50325 269.918 8.73792 269.822 9.01525 269.822C9.28192 269.822 9.50592 269.918 9.68725 270.11C9.87925 270.302 9.97525 270.537 9.97525 270.814C9.97525 271.092 9.87925 271.326 9.68725 271.518C9.50592 271.71 9.28192 271.806 9.01525 271.806ZM9.71925 273.23V281.998H8.26325V273.23H9.71925ZM11.6568 277.598C11.6568 276.692 11.8381 275.902 12.2008 275.23C12.5634 274.548 13.0648 274.02 13.7048 273.646C14.3554 273.273 15.0968 273.086 15.9288 273.086C17.0061 273.086 17.8914 273.348 18.5848 273.87C19.2888 274.393 19.7528 275.118 19.9768 276.046H18.4088C18.2594 275.513 17.9661 275.092 17.5288 274.782C17.1021 274.473 16.5688 274.318 15.9288 274.318C15.0968 274.318 14.4248 274.606 13.9128 275.182C13.4008 275.748 13.1448 276.553 13.1448 277.598C13.1448 278.654 13.4008 279.47 13.9128 280.046C14.4248 280.622 15.0968 280.91 15.9288 280.91C16.5688 280.91 17.1021 280.761 17.5288 280.462C17.9554 280.164 18.2488 279.737 18.4088 279.182H19.9768C19.7421 280.078 19.2728 280.798 18.5688 281.342C17.8648 281.876 16.9848 282.142 15.9288 282.142C15.0968 282.142 14.3554 281.956 13.7048 281.582C13.0648 281.209 12.5634 280.681 12.2008 279.998C11.8381 279.316 11.6568 278.516 11.6568 277.598ZM25.7435 282.142C24.9222 282.142 24.1755 281.956 23.5035 281.582C22.8422 281.209 22.3195 280.681 21.9355 279.998C21.5622 279.305 21.3755 278.505 21.3755 277.598C21.3755 276.702 21.5675 275.913 21.9515 275.23C22.3462 274.537 22.8795 274.009 23.5515 273.646C24.2235 273.273 24.9755 273.086 25.8075 273.086C26.6395 273.086 27.3915 273.273 28.0635 273.646C28.7355 274.009 29.2635 274.532 29.6475 275.214C30.0422 275.897 30.2395 276.692 30.2395 277.598C30.2395 278.505 30.0368 279.305 29.6315 279.998C29.2368 280.681 28.6982 281.209 28.0155 281.582C27.3328 281.956 26.5755 282.142 25.7435 282.142ZM25.7435 280.862C26.2662 280.862 26.7568 280.74 27.2155 280.494C27.6742 280.249 28.0422 279.881 28.3195 279.39C28.6075 278.9 28.7515 278.302 28.7515 277.598C28.7515 276.894 28.6128 276.297 28.3355 275.806C28.0582 275.316 27.6955 274.953 27.2475 274.718C26.7995 274.473 26.3142 274.35 25.7915 274.35C25.2582 274.35 24.7675 274.473 24.3195 274.718C23.8822 274.953 23.5302 275.316 23.2635 275.806C22.9968 276.297 22.8635 276.894 22.8635 277.598C22.8635 278.313 22.9915 278.916 23.2475 279.406C23.5142 279.897 23.8662 280.265 24.3035 280.51C24.7408 280.745 25.2208 280.862 25.7435 280.862ZM33.6099 274.654C33.8659 274.153 34.2285 273.764 34.6979 273.486C35.1779 273.209 35.7592 273.07 36.4419 273.07V274.574H36.0579C34.4259 274.574 33.6099 275.46 33.6099 277.23V281.998H32.1539V273.23H33.6099V274.654ZM38.8746 271.806C38.5973 271.806 38.3626 271.71 38.1706 271.518C37.9786 271.326 37.8826 271.092 37.8826 270.814C37.8826 270.537 37.9786 270.302 38.1706 270.11C38.3626 269.918 38.5973 269.822 38.8746 269.822C39.1413 269.822 39.3653 269.918 39.5466 270.11C39.7386 270.302 39.8346 270.537 39.8346 270.814C39.8346 271.092 39.7386 271.326 39.5466 271.518C39.3653 271.71 39.1413 271.806 38.8746 271.806ZM39.5786 273.23V281.998H38.1226V273.23H39.5786ZM41.5161 277.598C41.5161 276.692 41.6975 275.902 42.0601 275.23C42.4228 274.548 42.9241 274.02 43.5641 273.646C44.2148 273.273 44.9561 273.086 45.7881 273.086C46.8655 273.086 47.7508 273.348 48.4441 273.87C49.1481 274.393 49.6121 275.118 49.8361 276.046H48.2681C48.1188 275.513 47.8255 275.092 47.3881 274.782C46.9615 274.473 46.4281 274.318 45.7881 274.318C44.9561 274.318 44.2841 274.606 43.7721 275.182C43.2601 275.748 43.0041 276.553 43.0041 277.598C43.0041 278.654 43.2601 279.47 43.7721 280.046C44.2841 280.622 44.9561 280.91 45.7881 280.91C46.4281 280.91 46.9615 280.761 47.3881 280.462C47.8148 280.164 48.1081 279.737 48.2681 279.182H49.8361C49.6015 280.078 49.1321 280.798 48.4281 281.342C47.7241 281.876 46.8441 282.142 45.7881 282.142C44.9561 282.142 44.2148 281.956 43.5641 281.582C42.9241 281.209 42.4228 280.681 42.0601 279.998C41.6975 279.316 41.5161 278.516 41.5161 277.598ZM59.7789 277.278C59.7789 277.556 59.7629 277.849 59.7309 278.158H52.7229C52.7762 279.022 53.0695 279.7 53.6029 280.19C54.1469 280.67 54.8029 280.91 55.5709 280.91C56.2002 280.91 56.7229 280.766 57.1389 280.478C57.5655 280.18 57.8642 279.785 58.0349 279.294H59.6029C59.3682 280.137 58.8989 280.825 58.1949 281.358C57.4909 281.881 56.6162 282.142 55.5709 282.142C54.7389 282.142 53.9922 281.956 53.3309 281.582C52.6802 281.209 52.1682 280.681 51.7949 279.998C51.4215 279.305 51.2349 278.505 51.2349 277.598C51.2349 276.692 51.4162 275.897 51.7789 275.214C52.1415 274.532 52.6482 274.009 53.2989 273.646C53.9602 273.273 54.7175 273.086 55.5709 273.086C56.4029 273.086 57.1389 273.268 57.7789 273.63C58.4189 273.993 58.9095 274.494 59.2509 275.134C59.6029 275.764 59.7789 276.478 59.7789 277.278ZM58.2749 276.974C58.2749 276.42 58.1522 275.945 57.9069 275.55C57.6615 275.145 57.3255 274.841 56.8989 274.638C56.4829 274.425 56.0189 274.318 55.5069 274.318C54.7709 274.318 54.1415 274.553 53.6189 275.022C53.1069 275.492 52.8135 276.142 52.7389 276.974H58.2749ZM67.4224 274.654C67.6784 274.153 68.041 273.764 68.5104 273.486C68.9904 273.209 69.5717 273.07 70.2544 273.07V274.574H69.8704C68.2384 274.574 67.4224 275.46 67.4224 277.23V281.998H65.9664V273.23H67.4224V274.654ZM75.7591 282.142C74.9378 282.142 74.1911 281.956 73.5191 281.582C72.8578 281.209 72.3351 280.681 71.9511 279.998C71.5778 279.305 71.3911 278.505 71.3911 277.598C71.3911 276.702 71.5831 275.913 71.9671 275.23C72.3618 274.537 72.8951 274.009 73.5671 273.646C74.2391 273.273 74.9911 273.086 75.8231 273.086C76.6551 273.086 77.4071 273.273 78.0791 273.646C78.7511 274.009 79.2791 274.532 79.6631 275.214C80.0578 275.897 80.2551 276.692 80.2551 277.598C80.2551 278.505 80.0525 279.305 79.6471 279.998C79.2525 280.681 78.7138 281.209 78.0311 281.582C77.3485 281.956 76.5911 282.142 75.7591 282.142ZM75.7591 280.862C76.2818 280.862 76.7725 280.74 77.2311 280.494C77.6898 280.249 78.0578 279.881 78.3351 279.39C78.6231 278.9 78.7671 278.302 78.7671 277.598C78.7671 276.894 78.6285 276.297 78.3511 275.806C78.0738 275.316 77.7111 274.953 77.2631 274.718C76.8151 274.473 76.3298 274.35 75.8071 274.35C75.2738 274.35 74.7831 274.473 74.3351 274.718C73.8978 274.953 73.5458 275.316 73.2791 275.806C73.0125 276.297 72.8791 276.894 72.8791 277.598C72.8791 278.313 73.0071 278.916 73.2631 279.406C73.5298 279.897 73.8818 280.265 74.3191 280.51C74.7565 280.745 75.2365 280.862 75.7591 280.862ZM85.9935 282.142C85.1722 282.142 84.4255 281.956 83.7535 281.582C83.0922 281.209 82.5695 280.681 82.1855 279.998C81.8122 279.305 81.6255 278.505 81.6255 277.598C81.6255 276.702 81.8175 275.913 82.2015 275.23C82.5962 274.537 83.1295 274.009 83.8015 273.646C84.4735 273.273 85.2255 273.086 86.0575 273.086C86.8895 273.086 87.6415 273.273 88.3135 273.646C88.9855 274.009 89.5135 274.532 89.8975 275.214C90.2922 275.897 90.4895 276.692 90.4895 277.598C90.4895 278.505 90.2868 279.305 89.8815 279.998C89.4868 280.681 88.9482 281.209 88.2655 281.582C87.5828 281.956 86.8255 282.142 85.9935 282.142ZM85.9935 280.862C86.5162 280.862 87.0068 280.74 87.4655 280.494C87.9242 280.249 88.2922 279.881 88.5695 279.39C88.8575 278.9 89.0015 278.302 89.0015 277.598C89.0015 276.894 88.8628 276.297 88.5855 275.806C88.3082 275.316 87.9455 274.953 87.4975 274.718C87.0495 274.473 86.5642 274.35 86.0415 274.35C85.5082 274.35 85.0175 274.473 84.5695 274.718C84.1322 274.953 83.7802 275.316 83.5135 275.806C83.2468 276.297 83.1135 276.894 83.1135 277.598C83.1135 278.313 83.2415 278.916 83.4975 279.406C83.7642 279.897 84.1162 280.265 84.5535 280.51C84.9908 280.745 85.4708 280.862 85.9935 280.862ZM94.1799 274.43V279.598C94.1799 280.025 94.2705 280.329 94.4519 280.51C94.6332 280.681 94.9479 280.766 95.3959 280.766H96.4679V281.998H95.1559C94.3452 281.998 93.7372 281.812 93.3319 281.438C92.9265 281.065 92.7239 280.452 92.7239 279.598V274.43H91.5879V273.23H92.7239V271.022H94.1799V273.23H96.4679V274.43H94.1799Z" fill="#333333"/>
<path d="M34.2054 343.846V345.03H31.1654V354.998H29.7094V345.03H26.6534V343.846H34.2054ZM43.7736 346.23V354.998H42.3176V353.702C42.0403 354.15 41.651 354.502 41.1496 354.758C40.659 355.004 40.115 355.126 39.5176 355.126C38.835 355.126 38.2216 354.988 37.6776 354.71C37.1336 354.422 36.7016 353.996 36.3816 353.43C36.0723 352.865 35.9176 352.177 35.9176 351.366V346.23H37.3576V351.174C37.3576 352.038 37.5763 352.705 38.0136 353.174C38.451 353.633 39.0483 353.862 39.8056 353.862C40.5843 353.862 41.1976 353.622 41.6456 353.142C42.0936 352.662 42.3176 351.964 42.3176 351.046V346.23H43.7736ZM47.688 347.654C47.944 347.153 48.3067 346.764 48.776 346.486C49.256 346.209 49.8373 346.07 50.52 346.07V347.574H50.136C48.504 347.574 47.688 348.46 47.688 350.23V354.998H46.232V346.23H47.688V347.654ZM62.7448 346.07C63.4274 346.07 64.0354 346.214 64.5688 346.502C65.1021 346.78 65.5234 347.201 65.8328 347.766C66.1421 348.332 66.2968 349.02 66.2968 349.83V354.998H64.8568V350.038C64.8568 349.164 64.6381 348.497 64.2008 348.038C63.7741 347.569 63.1928 347.334 62.4568 347.334C61.6994 347.334 61.0968 347.58 60.6488 348.07C60.2008 348.55 59.9768 349.249 59.9768 350.166V354.998H58.5368V350.038C58.5368 349.164 58.3181 348.497 57.8808 348.038C57.4541 347.569 56.8728 347.334 56.1368 347.334C55.3794 347.334 54.7768 347.58 54.3288 348.07C53.8808 348.55 53.6568 349.249 53.6568 350.166V354.998H52.2008V346.23H53.6568V347.494C53.9448 347.036 54.3288 346.684 54.8088 346.438C55.2994 346.193 55.8381 346.07 56.4248 346.07C57.1608 346.07 57.8114 346.236 58.3768 346.566C58.9421 346.897 59.3634 347.382 59.6408 348.022C59.8861 347.404 60.2914 346.924 60.8568 346.582C61.4221 346.241 62.0514 346.07 62.7448 346.07ZM76.6851 350.278C76.6851 350.556 76.6691 350.849 76.6371 351.158H69.6291C69.6825 352.022 69.9758 352.7 70.5091 353.19C71.0531 353.67 71.7091 353.91 72.4771 353.91C73.1065 353.91 73.6291 353.766 74.0451 353.478C74.4718 353.18 74.7705 352.785 74.9411 352.294H76.5091C76.2745 353.137 75.8051 353.825 75.1011 354.358C74.3971 354.881 73.5225 355.142 72.4771 355.142C71.6451 355.142 70.8985 354.956 70.2371 354.582C69.5865 354.209 69.0745 353.681 68.7011 352.998C68.3278 352.305 68.1411 351.505 68.1411 350.598C68.1411 349.692 68.3225 348.897 68.6851 348.214C69.0478 347.532 69.5545 347.009 70.2051 346.646C70.8665 346.273 71.6238 346.086 72.4771 346.086C73.3091 346.086 74.0451 346.268 74.6851 346.63C75.3251 346.993 75.8158 347.494 76.1571 348.134C76.5091 348.764 76.6851 349.478 76.6851 350.278ZM75.1811 349.974C75.1811 349.42 75.0585 348.945 74.8131 348.55C74.5678 348.145 74.2318 347.841 73.8051 347.638C73.3891 347.425 72.9251 347.318 72.4131 347.318C71.6771 347.318 71.0478 347.553 70.5251 348.022C70.0131 348.492 69.7198 349.142 69.6451 349.974H75.1811ZM80.063 347.654C80.319 347.153 80.6817 346.764 81.151 346.486C81.631 346.209 82.2123 346.07 82.895 346.07V347.574H82.511C80.879 347.574 80.063 348.46 80.063 350.23V354.998H78.607V346.23H80.063V347.654ZM85.3278 344.806C85.0504 344.806 84.8158 344.71 84.6238 344.518C84.4318 344.326 84.3358 344.092 84.3358 343.814C84.3358 343.537 84.4318 343.302 84.6238 343.11C84.8158 342.918 85.0504 342.822 85.3278 342.822C85.5944 342.822 85.8184 342.918 85.9998 343.11C86.1918 343.302 86.2878 343.537 86.2878 343.814C86.2878 344.092 86.1918 344.326 85.9998 344.518C85.8184 344.71 85.5944 344.806 85.3278 344.806ZM86.0318 346.23V354.998H84.5758V346.23H86.0318ZM87.9693 350.598C87.9693 349.692 88.1506 348.902 88.5133 348.23C88.8759 347.548 89.3773 347.02 90.0173 346.646C90.6679 346.273 91.4093 346.086 92.2413 346.086C93.3186 346.086 94.2039 346.348 94.8973 346.87C95.6013 347.393 96.0653 348.118 96.2893 349.046H94.7213C94.5719 348.513 94.2786 348.092 93.8413 347.782C93.4146 347.473 92.8813 347.318 92.2413 347.318C91.4093 347.318 90.7373 347.606 90.2253 348.182C89.7133 348.748 89.4573 349.553 89.4573 350.598C89.4573 351.654 89.7133 352.47 90.2253 353.046C90.7373 353.622 91.4093 353.91 92.2413 353.91C92.8813 353.91 93.4146 353.761 93.8413 353.462C94.2679 353.164 94.5613 352.737 94.7213 352.182H96.2893C96.0546 353.078 95.5853 353.798 94.8813 354.342C94.1773 354.876 93.2973 355.142 92.2413 355.142C91.4093 355.142 90.6679 354.956 90.0173 354.582C89.3773 354.209 88.8759 353.681 88.5133 352.998C88.1506 352.316 87.9693 351.516 87.9693 350.598Z" fill="#333333"/>
<defs>
<clipPath id="clip0_21779_892">
<rect width="398" height="397" fill="white" transform="translate(117 0.998291)"/>
</clipPath>
</defs>
</svg>
