<svg width="99" height="85" viewBox="0 0 99 85" fill="none" xmlns="http://www.w3.org/2000/svg">
<path d="M75.1178 14.4104L69.9778 18.1179C56.1091 -0.456073 48.5977 -10.3675 24.6523 22.7522L41.4742 32.9477C43.8651 24.9759 45.8775 20.9144 50.8196 14.4104L56.4269 25.5328L50.8196 29.7037C57.6025 30.3523 61.2351 30.4371 67.1742 29.7037C71.2 24.8725 73.0577 21.6649 75.1178 14.4104Z" stroke="#344F10"/>
<path d="M63.2896 76.327L62.5124 69.9942C85.2809 66.5214 97.4835 64.5698 80.0731 27.5176L63.1879 37.6056C68.9852 43.5276 71.5605 47.2503 74.8653 54.7396L62.5162 54.4226L61.5584 47.4539C57.7627 53.171 55.9582 56.3579 53.7671 61.9839C56.0529 67.8621 57.9588 71.0407 63.2896 76.327Z" stroke="#344F10"/>
<path d="M11.187 34.7997L17.0451 37.1833C9.01151 58.989 4.78422 70.7193 45.2955 73.2977L44.7509 53.4841C36.8143 55.7362 32.3436 56.2071 24.2591 55.4965L30.5209 44.7367L37.0169 47.269C33.909 41.1426 32.0255 38.0027 28.2185 33.3385C22.0224 32.5085 18.3471 32.6517 11.187 34.7997Z" stroke="#344F10"/>
</svg>
