            <svg width="1100" height="399" viewBox="0 0 1180 399" fill="none" xmlns="http://www.w3.org/2000/svg">
              <path fill-rule="evenodd" clip-rule="evenodd" d="M798.868 14.875C942.779 -4.23708 1025.73 -5.66674 1179.13 14.8751L1180 14.9912V15.8663V82.2515V83.2515H1179H1170.93V113.697V114.697H1169.93H1154.74C1154.66 115.069 1154.58 115.562 1154.48 116.153C1154.24 117.56 1153.96 119.519 1153.78 121.726C1153.4 126.182 1153.42 131.482 1154.85 135.309C1156.38 139.39 1160.23 143.748 1163.82 147.152C1165.59 148.837 1167.27 150.257 1168.51 151.256C1169.12 151.755 1169.63 152.148 1169.98 152.415C1170.15 152.549 1170.29 152.651 1170.38 152.72L1170.42 152.75L1170.48 152.797L1170.51 152.815L1170.52 152.82L1170.52 152.82L1170.51 152.826L1170.52 152.821L1170.93 153.12V153.628V179.082H1179H1180V180.082V339.307V340.307H1179H1170.93V376.243V377.055L1170.13 377.222C1044.23 403.576 963.765 403.617 809.506 377.229L808.674 377.087V376.243V340.307H799H798V339.307V180.082V179.082H799H808.674V153.628V153.045L809.182 152.758C810.051 152.266 810.943 151.783 811.843 151.297C814.642 149.784 817.513 148.232 820.004 146.226C823.243 143.619 825.716 140.329 826.294 135.539L826.295 135.529L826.297 135.518C827.225 129.01 827.36 124.558 826.382 114.697H809.674H808.674V113.697V83.2515H799H798V82.2515V15.8663V14.9903L798.868 14.875ZM810.674 340.419C957.407 356.01 1036.27 356.026 1168.93 340.432V375.43C1044 401.51 963.87 401.556 810.674 375.399V340.419ZM828.392 114.697H1152.7C1152.64 115.019 1152.57 115.398 1152.5 115.827C1152.26 117.272 1151.98 119.286 1151.79 121.558C1151.54 124.497 1151.44 127.94 1151.85 131.165H828.824C829.226 126.57 829.123 122.128 828.392 114.697ZM828.62 133.165H1152.18C1152.38 134.159 1152.65 135.115 1152.98 136.009C1154.68 140.552 1158.83 145.178 1162.44 148.603C1164.26 150.333 1165.98 151.788 1167.25 152.811C1167.88 153.322 1168.4 153.727 1168.76 154.004C1168.82 154.049 1168.88 154.09 1168.93 154.128V179.707C1029.56 186.462 950.512 185.947 810.674 179.626V154.214C811.314 153.858 811.98 153.498 812.662 153.13L812.666 153.128L812.667 153.127L812.675 153.123L812.678 153.121L812.678 153.121C815.509 151.591 818.61 149.916 821.259 147.784C824.773 144.955 827.618 141.235 828.278 135.79C828.407 134.883 828.521 134.014 828.62 133.165ZM1153.92 112.697H1168.93V83.2512H810.674V112.697L827.286 112.697L1153.92 112.697ZM809.674 81.2515L809.674 81.2512H1169.93L1169.93 81.2515H1178V16.7414C1025.64 -3.61303 942.94 -2.20223 800 16.7424V81.2515H809.674ZM809.629 181.58L809.651 181.082H800V338.307H809.674H809.727L809.78 338.313C957.503 354.051 1036.31 354.06 1169.81 338.314L1169.87 338.307H1169.93H1178V181.082H1171.55L1171.58 181.58C1030.23 188.485 950.97 187.984 809.629 181.58Z" fill="#344F10"/>
              <path d="M638.546 53.0017L633.954 47.9137V53.0017H632.498V41.8497H633.954V47.0177L638.562 41.8497H640.402L635.346 47.4337L640.45 53.0017H638.546ZM641.532 48.5857C641.532 47.6897 641.713 46.9057 642.076 46.2337C642.438 45.551 642.934 45.023 643.564 44.6497C644.204 44.2764 644.913 44.0897 645.692 44.0897C646.46 44.0897 647.126 44.255 647.692 44.5857C648.257 44.9164 648.678 45.3324 648.956 45.8337V44.2337H650.428V53.0017H648.956V51.3697C648.668 51.8817 648.236 52.3084 647.66 52.6497C647.094 52.9804 646.433 53.1457 645.676 53.1457C644.897 53.1457 644.193 52.9537 643.564 52.5697C642.934 52.1857 642.438 51.647 642.076 50.9537C641.713 50.2604 641.532 49.471 641.532 48.5857ZM648.956 48.6017C648.956 47.9404 648.822 47.3644 648.556 46.8737C648.289 46.383 647.926 46.0097 647.468 45.7537C647.02 45.487 646.524 45.3537 645.98 45.3537C645.436 45.3537 644.94 45.4817 644.492 45.7377C644.044 45.9937 643.686 46.367 643.42 46.8577C643.153 47.3484 643.02 47.9244 643.02 48.5857C643.02 49.2577 643.153 49.8444 643.42 50.3457C643.686 50.8364 644.044 51.215 644.492 51.4817C644.94 51.7377 645.436 51.8657 645.98 51.8657C646.524 51.8657 647.02 51.7377 647.468 51.4817C647.926 51.215 648.289 50.8364 648.556 50.3457C648.822 49.8444 648.956 49.263 648.956 48.6017ZM656.712 53.1457C655.891 53.1457 655.144 52.959 654.472 52.5857C653.811 52.2124 653.288 51.6844 652.904 51.0017C652.531 50.3084 652.344 49.5084 652.344 48.6017C652.344 47.7057 652.536 46.9164 652.92 46.2337C653.315 45.5404 653.848 45.0124 654.52 44.6497C655.192 44.2764 655.944 44.0897 656.776 44.0897C657.608 44.0897 658.36 44.2764 659.032 44.6497C659.704 45.0124 660.232 45.535 660.616 46.2177C661.011 46.9004 661.208 47.695 661.208 48.6017C661.208 49.5084 661.006 50.3084 660.6 51.0017C660.206 51.6844 659.667 52.2124 658.984 52.5857C658.302 52.959 657.544 53.1457 656.712 53.1457ZM656.712 51.8657C657.235 51.8657 657.726 51.743 658.184 51.4977C658.643 51.2524 659.011 50.8844 659.288 50.3937C659.576 49.903 659.72 49.3057 659.72 48.6017C659.72 47.8977 659.582 47.3004 659.304 46.8097C659.027 46.319 658.664 45.9564 658.216 45.7217C657.768 45.4764 657.283 45.3537 656.76 45.3537C656.227 45.3537 655.736 45.4764 655.288 45.7217C654.851 45.9564 654.499 46.319 654.232 46.8097C653.966 47.3004 653.832 47.8977 653.832 48.6017C653.832 49.3164 653.96 49.919 654.216 50.4097C654.483 50.9004 654.835 51.2684 655.272 51.5137C655.71 51.7484 656.19 51.8657 656.712 51.8657ZM664.579 41.1617V53.0017H663.123V41.1617H664.579ZM667.812 42.8097C667.535 42.8097 667.3 42.7137 667.108 42.5217C666.916 42.3297 666.82 42.095 666.82 41.8177C666.82 41.5404 666.916 41.3057 667.108 41.1137C667.3 40.9217 667.535 40.8257 667.812 40.8257C668.079 40.8257 668.303 40.9217 668.484 41.1137C668.676 41.3057 668.772 41.5404 668.772 41.8177C668.772 42.095 668.676 42.3297 668.484 42.5217C668.303 42.7137 668.079 42.8097 667.812 42.8097ZM668.516 44.2337V53.0017H667.06V44.2337H668.516ZM675.27 44.0737C676.336 44.0737 677.2 44.399 677.862 45.0497C678.523 45.6897 678.854 46.6177 678.854 47.8337V53.0017H677.414V48.0417C677.414 47.167 677.195 46.5004 676.758 46.0417C676.32 45.5724 675.723 45.3377 674.966 45.3377C674.198 45.3377 673.584 45.5777 673.126 46.0577C672.678 46.5377 672.454 47.2364 672.454 48.1537V53.0017H670.998V44.2337H672.454V45.4817C672.742 45.0337 673.131 44.687 673.622 44.4417C674.123 44.1964 674.672 44.0737 675.27 44.0737Z" fill="#333333"/>
              <path d="M491.956 129.114C491.22 129.114 490.558 128.986 489.972 128.73C489.396 128.463 488.942 128.1 488.612 127.642C488.281 127.172 488.11 126.634 488.1 126.026H489.652C489.705 126.548 489.918 126.991 490.292 127.354C490.676 127.706 491.23 127.882 491.956 127.882C492.649 127.882 493.193 127.711 493.588 127.37C493.993 127.018 494.196 126.57 494.196 126.026C494.196 125.599 494.078 125.252 493.844 124.986C493.609 124.719 493.316 124.516 492.964 124.378C492.612 124.239 492.137 124.09 491.54 123.93C490.804 123.738 490.212 123.546 489.764 123.354C489.326 123.162 488.948 122.863 488.628 122.458C488.318 122.042 488.164 121.487 488.164 120.794C488.164 120.186 488.318 119.647 488.628 119.178C488.937 118.708 489.369 118.346 489.924 118.09C490.489 117.834 491.134 117.706 491.86 117.706C492.905 117.706 493.758 117.967 494.42 118.49C495.092 119.012 495.47 119.706 495.556 120.57H493.956C493.902 120.143 493.678 119.77 493.284 119.45C492.889 119.119 492.366 118.954 491.716 118.954C491.108 118.954 490.612 119.114 490.228 119.434C489.844 119.743 489.652 120.18 489.652 120.746C489.652 121.151 489.764 121.482 489.988 121.738C490.222 121.994 490.505 122.191 490.836 122.33C491.177 122.458 491.652 122.607 492.26 122.778C492.996 122.98 493.588 123.183 494.036 123.386C494.484 123.578 494.868 123.882 495.188 124.298C495.508 124.703 495.668 125.258 495.668 125.962C495.668 126.506 495.524 127.018 495.236 127.498C494.948 127.978 494.521 128.367 493.956 128.666C493.39 128.964 492.724 129.114 491.956 129.114ZM498.562 118.81C498.285 118.81 498.05 118.714 497.858 118.522C497.666 118.33 497.57 118.095 497.57 117.818C497.57 117.54 497.666 117.306 497.858 117.114C498.05 116.922 498.285 116.826 498.562 116.826C498.829 116.826 499.053 116.922 499.234 117.114C499.426 117.306 499.522 117.54 499.522 117.818C499.522 118.095 499.426 118.33 499.234 118.522C499.053 118.714 498.829 118.81 498.562 118.81ZM499.266 120.234V129.002H497.81V120.234H499.266ZM505.012 127.658L507.732 120.234H509.284L505.844 129.002H504.148L500.708 120.234H502.276L505.012 127.658ZM510.172 124.586C510.172 123.69 510.354 122.906 510.716 122.234C511.079 121.551 511.575 121.023 512.204 120.65C512.844 120.276 513.554 120.09 514.332 120.09C515.1 120.09 515.767 120.255 516.332 120.586C516.898 120.916 517.319 121.332 517.596 121.834V120.234H519.068V129.002H517.596V127.37C517.308 127.882 516.876 128.308 516.3 128.65C515.735 128.98 515.074 129.146 514.316 129.146C513.538 129.146 512.834 128.954 512.204 128.57C511.575 128.186 511.079 127.647 510.716 126.954C510.354 126.26 510.172 125.471 510.172 124.586ZM517.596 124.602C517.596 123.94 517.463 123.364 517.196 122.874C516.93 122.383 516.567 122.01 516.108 121.754C515.66 121.487 515.164 121.354 514.62 121.354C514.076 121.354 513.58 121.482 513.132 121.738C512.684 121.994 512.327 122.367 512.06 122.858C511.794 123.348 511.66 123.924 511.66 124.586C511.66 125.258 511.794 125.844 512.06 126.346C512.327 126.836 512.684 127.215 513.132 127.482C513.58 127.738 514.076 127.866 514.62 127.866C515.164 127.866 515.66 127.738 516.108 127.482C516.567 127.215 516.93 126.836 517.196 126.346C517.463 125.844 517.596 125.263 517.596 124.602ZM526.425 129.002L522.985 125.13V129.002H521.529V117.162H522.985V124.122L526.361 120.234H528.393L524.265 124.602L528.409 129.002H526.425ZM537.773 131.978C536.749 130.975 535.949 129.7 535.373 128.154C534.808 126.607 534.525 124.938 534.525 123.146C534.525 121.311 534.824 119.599 535.421 118.01C536.029 116.41 536.893 115.092 538.013 114.058H539.533V114.202C538.338 115.322 537.437 116.671 536.829 118.25C536.232 119.818 535.933 121.45 535.933 123.146C535.933 124.799 536.216 126.378 536.781 127.882C537.357 129.386 538.194 130.703 539.293 131.834V131.978H537.773ZM548.751 121.114C548.751 122.042 548.431 122.815 547.791 123.434C547.161 124.042 546.196 124.346 544.895 124.346H542.751V129.002H541.295V117.85H544.895C546.153 117.85 547.108 118.154 547.759 118.762C548.42 119.37 548.751 120.154 548.751 121.114ZM544.895 123.146C545.705 123.146 546.303 122.97 546.687 122.618C547.071 122.266 547.263 121.764 547.263 121.114C547.263 119.738 546.473 119.05 544.895 119.05H542.751V123.146H544.895ZM558.56 124.282C558.56 124.559 558.544 124.852 558.512 125.162H551.504C551.557 126.026 551.851 126.703 552.384 127.194C552.928 127.674 553.584 127.914 554.352 127.914C554.981 127.914 555.504 127.77 555.92 127.482C556.347 127.183 556.645 126.788 556.816 126.298H558.384C558.149 127.14 557.68 127.828 556.976 128.362C556.272 128.884 555.397 129.146 554.352 129.146C553.52 129.146 552.773 128.959 552.112 128.586C551.461 128.212 550.949 127.684 550.576 127.002C550.203 126.308 550.016 125.508 550.016 124.602C550.016 123.695 550.197 122.9 550.56 122.218C550.923 121.535 551.429 121.012 552.08 120.65C552.741 120.276 553.499 120.09 554.352 120.09C555.184 120.09 555.92 120.271 556.56 120.634C557.2 120.996 557.691 121.498 558.032 122.138C558.384 122.767 558.56 123.482 558.56 124.282ZM557.056 123.978C557.056 123.423 556.933 122.948 556.688 122.554C556.443 122.148 556.107 121.844 555.68 121.642C555.264 121.428 554.8 121.322 554.288 121.322C553.552 121.322 552.923 121.556 552.4 122.026C551.888 122.495 551.595 123.146 551.52 123.978H557.056ZM561.938 121.658C562.194 121.156 562.557 120.767 563.026 120.49C563.506 120.212 564.087 120.074 564.77 120.074V121.578H564.386C562.754 121.578 561.938 122.463 561.938 124.234V129.002H560.482V120.234H561.938V121.658ZM569.555 129.146C568.883 129.146 568.28 129.034 567.747 128.81C567.213 128.575 566.792 128.255 566.483 127.85C566.173 127.434 566.003 126.959 565.971 126.426H567.475C567.517 126.863 567.72 127.22 568.083 127.498C568.456 127.775 568.941 127.914 569.539 127.914C570.093 127.914 570.531 127.791 570.851 127.546C571.171 127.3 571.331 126.991 571.331 126.618C571.331 126.234 571.16 125.951 570.819 125.77C570.477 125.578 569.949 125.391 569.235 125.21C568.584 125.039 568.051 124.868 567.635 124.698C567.229 124.516 566.877 124.255 566.579 123.914C566.291 123.562 566.147 123.103 566.147 122.538C566.147 122.09 566.28 121.679 566.547 121.306C566.813 120.932 567.192 120.639 567.683 120.426C568.173 120.202 568.733 120.09 569.363 120.09C570.333 120.09 571.117 120.335 571.715 120.826C572.312 121.316 572.632 121.988 572.675 122.842H571.219C571.187 122.383 571 122.015 570.659 121.738C570.328 121.46 569.88 121.322 569.315 121.322C568.792 121.322 568.376 121.434 568.067 121.658C567.757 121.882 567.603 122.175 567.603 122.538C567.603 122.826 567.693 123.066 567.875 123.258C568.067 123.439 568.301 123.588 568.579 123.706C568.867 123.812 569.261 123.935 569.763 124.074C570.392 124.244 570.904 124.415 571.299 124.586C571.693 124.746 572.029 124.991 572.307 125.322C572.595 125.652 572.744 126.084 572.755 126.618C572.755 127.098 572.621 127.53 572.355 127.914C572.088 128.298 571.709 128.602 571.219 128.826C570.739 129.039 570.184 129.146 569.555 129.146ZM575.562 118.81C575.285 118.81 575.05 118.714 574.858 118.522C574.666 118.33 574.57 118.095 574.57 117.818C574.57 117.54 574.666 117.306 574.858 117.114C575.05 116.922 575.285 116.826 575.562 116.826C575.829 116.826 576.053 116.922 576.234 117.114C576.426 117.306 576.522 117.54 576.522 117.818C576.522 118.095 576.426 118.33 576.234 118.522C576.053 118.714 575.829 118.81 575.562 118.81ZM576.266 120.234V129.002H574.81V120.234H576.266ZM578.204 124.586C578.204 123.69 578.385 122.906 578.748 122.234C579.11 121.551 579.606 121.023 580.236 120.65C580.876 120.276 581.585 120.09 582.364 120.09C583.132 120.09 583.798 120.255 584.364 120.586C584.929 120.916 585.35 121.332 585.628 121.834V120.234H587.1V129.002H585.628V127.37C585.34 127.882 584.908 128.308 584.332 128.65C583.766 128.98 583.105 129.146 582.348 129.146C581.569 129.146 580.865 128.954 580.236 128.57C579.606 128.186 579.11 127.647 578.748 126.954C578.385 126.26 578.204 125.471 578.204 124.586ZM585.628 124.602C585.628 123.94 585.494 123.364 585.228 122.874C584.961 122.383 584.598 122.01 584.14 121.754C583.692 121.487 583.196 121.354 582.652 121.354C582.108 121.354 581.612 121.482 581.164 121.738C580.716 121.994 580.358 122.367 580.092 122.858C579.825 123.348 579.692 123.924 579.692 124.586C579.692 125.258 579.825 125.844 580.092 126.346C580.358 126.836 580.716 127.215 581.164 127.482C581.612 127.738 582.108 127.866 582.652 127.866C583.196 127.866 583.692 127.738 584.14 127.482C584.598 127.215 584.961 126.836 585.228 126.346C585.494 125.844 585.628 125.263 585.628 124.602ZM593.832 120.074C594.899 120.074 595.763 120.399 596.424 121.05C597.085 121.69 597.416 122.618 597.416 123.834V129.002H595.976V124.042C595.976 123.167 595.757 122.5 595.32 122.042C594.883 121.572 594.285 121.338 593.528 121.338C592.76 121.338 592.147 121.578 591.688 122.058C591.24 122.538 591.016 123.236 591.016 124.154V129.002H589.56V120.234H591.016V121.482C591.304 121.034 591.693 120.687 592.184 120.442C592.685 120.196 593.235 120.074 593.832 120.074ZM607.164 129.146C606.492 129.146 605.889 129.034 605.356 128.81C604.823 128.575 604.401 128.255 604.092 127.85C603.783 127.434 603.612 126.959 603.58 126.426H605.084C605.127 126.863 605.329 127.22 605.692 127.498C606.065 127.775 606.551 127.914 607.148 127.914C607.703 127.914 608.14 127.791 608.46 127.546C608.78 127.3 608.94 126.991 608.94 126.618C608.94 126.234 608.769 125.951 608.428 125.77C608.087 125.578 607.559 125.391 606.844 125.21C606.193 125.039 605.66 124.868 605.244 124.698C604.839 124.516 604.487 124.255 604.188 123.914C603.9 123.562 603.756 123.103 603.756 122.538C603.756 122.09 603.889 121.679 604.156 121.306C604.423 120.932 604.801 120.639 605.292 120.426C605.783 120.202 606.343 120.09 606.972 120.09C607.943 120.09 608.727 120.335 609.324 120.826C609.921 121.316 610.241 121.988 610.284 122.842H608.828C608.796 122.383 608.609 122.015 608.268 121.738C607.937 121.46 607.489 121.322 606.924 121.322C606.401 121.322 605.985 121.434 605.676 121.658C605.367 121.882 605.212 122.175 605.212 122.538C605.212 122.826 605.303 123.066 605.484 123.258C605.676 123.439 605.911 123.588 606.188 123.706C606.476 123.812 606.871 123.935 607.372 124.074C608.001 124.244 608.513 124.415 608.908 124.586C609.303 124.746 609.639 124.991 609.916 125.322C610.204 125.652 610.353 126.084 610.364 126.618C610.364 127.098 610.231 127.53 609.964 127.914C609.697 128.298 609.319 128.602 608.828 128.826C608.348 129.039 607.793 129.146 607.164 129.146ZM611.876 124.586C611.876 123.69 612.057 122.906 612.42 122.234C612.782 121.551 613.278 121.023 613.908 120.65C614.548 120.276 615.257 120.09 616.036 120.09C616.804 120.09 617.47 120.255 618.036 120.586C618.601 120.916 619.022 121.332 619.3 121.834V120.234H620.772V129.002H619.3V127.37C619.012 127.882 618.58 128.308 618.004 128.65C617.438 128.98 616.777 129.146 616.02 129.146C615.241 129.146 614.537 128.954 613.908 128.57C613.278 128.186 612.782 127.647 612.42 126.954C612.057 126.26 611.876 125.471 611.876 124.586ZM619.3 124.602C619.3 123.94 619.166 123.364 618.9 122.874C618.633 122.383 618.27 122.01 617.812 121.754C617.364 121.487 616.868 121.354 616.324 121.354C615.78 121.354 615.284 121.482 614.836 121.738C614.388 121.994 614.03 122.367 613.764 122.858C613.497 123.348 613.364 123.924 613.364 124.586C613.364 125.258 613.497 125.844 613.764 126.346C614.03 126.836 614.388 127.215 614.836 127.482C615.284 127.738 615.78 127.866 616.324 127.866C616.868 127.866 617.364 127.738 617.812 127.482C618.27 127.215 618.633 126.836 618.9 126.346C619.166 125.844 619.3 125.263 619.3 124.602ZM624.688 117.162V129.002H623.232V117.162H624.688ZM630.434 127.658L633.154 120.234H634.706L631.266 129.002H629.57L626.13 120.234H627.698L630.434 127.658ZM635.594 124.586C635.594 123.69 635.776 122.906 636.138 122.234C636.501 121.551 636.997 121.023 637.626 120.65C638.266 120.276 638.976 120.09 639.754 120.09C640.522 120.09 641.189 120.255 641.754 120.586C642.32 120.916 642.741 121.332 643.018 121.834V120.234H644.49V129.002H643.018V127.37C642.73 127.882 642.298 128.308 641.722 128.65C641.157 128.98 640.496 129.146 639.738 129.146C638.96 129.146 638.256 128.954 637.626 128.57C636.997 128.186 636.501 127.647 636.138 126.954C635.776 126.26 635.594 125.471 635.594 124.586ZM643.018 124.602C643.018 123.94 642.885 123.364 642.618 122.874C642.352 122.383 641.989 122.01 641.53 121.754C641.082 121.487 640.586 121.354 640.042 121.354C639.498 121.354 639.002 121.482 638.554 121.738C638.106 121.994 637.749 122.367 637.482 122.858C637.216 123.348 637.082 123.924 637.082 124.586C637.082 125.258 637.216 125.844 637.482 126.346C637.749 126.836 638.106 127.215 638.554 127.482C639.002 127.738 639.498 127.866 640.042 127.866C640.586 127.866 641.082 127.738 641.53 127.482C641.989 127.215 642.352 126.836 642.618 126.346C642.885 125.844 643.018 125.263 643.018 124.602ZM646.407 124.586C646.407 123.69 646.588 122.906 646.951 122.234C647.313 121.551 647.809 121.023 648.439 120.65C649.079 120.276 649.793 120.09 650.583 120.09C651.265 120.09 651.9 120.25 652.487 120.57C653.073 120.879 653.521 121.29 653.831 121.802V117.162H655.303V129.002H653.831V127.354C653.543 127.876 653.116 128.308 652.551 128.65C651.985 128.98 651.324 129.146 650.567 129.146C649.788 129.146 649.079 128.954 648.439 128.57C647.809 128.186 647.313 127.647 646.951 126.954C646.588 126.26 646.407 125.471 646.407 124.586ZM653.831 124.602C653.831 123.94 653.697 123.364 653.431 122.874C653.164 122.383 652.801 122.01 652.343 121.754C651.895 121.487 651.399 121.354 650.855 121.354C650.311 121.354 649.815 121.482 649.367 121.738C648.919 121.994 648.561 122.367 648.295 122.858C648.028 123.348 647.895 123.924 647.895 124.586C647.895 125.258 648.028 125.844 648.295 126.346C648.561 126.836 648.919 127.215 649.367 127.482C649.815 127.738 650.311 127.866 650.855 127.866C651.399 127.866 651.895 127.738 652.343 127.482C652.801 127.215 653.164 126.836 653.431 126.346C653.697 125.844 653.831 125.263 653.831 124.602ZM661.587 129.146C660.766 129.146 660.019 128.959 659.347 128.586C658.686 128.212 658.163 127.684 657.779 127.002C657.406 126.308 657.219 125.508 657.219 124.602C657.219 123.706 657.411 122.916 657.795 122.234C658.19 121.54 658.723 121.012 659.395 120.65C660.067 120.276 660.819 120.09 661.651 120.09C662.483 120.09 663.235 120.276 663.907 120.65C664.579 121.012 665.107 121.535 665.491 122.218C665.886 122.9 666.083 123.695 666.083 124.602C666.083 125.508 665.881 126.308 665.475 127.002C665.081 127.684 664.542 128.212 663.859 128.586C663.177 128.959 662.419 129.146 661.587 129.146ZM661.587 127.866C662.11 127.866 662.601 127.743 663.059 127.498C663.518 127.252 663.886 126.884 664.163 126.394C664.451 125.903 664.595 125.306 664.595 124.602C664.595 123.898 664.457 123.3 664.179 122.81C663.902 122.319 663.539 121.956 663.091 121.722C662.643 121.476 662.158 121.354 661.635 121.354C661.102 121.354 660.611 121.476 660.163 121.722C659.726 121.956 659.374 122.319 659.107 122.81C658.841 123.3 658.707 123.898 658.707 124.602C658.707 125.316 658.835 125.919 659.091 126.41C659.358 126.9 659.71 127.268 660.147 127.514C660.585 127.748 661.065 127.866 661.587 127.866ZM669.454 121.658C669.71 121.156 670.072 120.767 670.542 120.49C671.022 120.212 671.603 120.074 672.286 120.074V121.578H671.902C670.27 121.578 669.454 122.463 669.454 124.234V129.002H667.998V120.234H669.454V121.658ZM673.502 131.978V131.834C674.601 130.703 675.433 129.386 675.998 127.882C676.574 126.378 676.862 124.799 676.862 123.146C676.862 121.45 676.558 119.818 675.95 118.25C675.353 116.671 674.457 115.322 673.262 114.202V114.058H674.782C675.902 115.092 676.761 116.41 677.358 118.01C677.966 119.599 678.27 121.311 678.27 123.146C678.27 124.938 677.982 126.607 677.406 128.154C676.841 129.7 676.046 130.975 675.022 131.978H673.502Z" fill="#333333"/>
              <path d="M524.594 196.418C524.594 195.33 524.84 194.354 525.33 193.49C525.821 192.615 526.488 191.932 527.33 191.442C528.184 190.951 529.128 190.706 530.162 190.706C531.378 190.706 532.44 190.999 533.346 191.586C534.253 192.172 534.914 193.004 535.33 194.082H533.586C533.277 193.41 532.829 192.892 532.242 192.53C531.666 192.167 530.973 191.986 530.162 191.986C529.384 191.986 528.685 192.167 528.066 192.53C527.448 192.892 526.962 193.41 526.61 194.082C526.258 194.743 526.082 195.522 526.082 196.418C526.082 197.303 526.258 198.082 526.61 198.754C526.962 199.415 527.448 199.927 528.066 200.29C528.685 200.652 529.384 200.834 530.162 200.834C530.973 200.834 531.666 200.658 532.242 200.306C532.829 199.943 533.277 199.426 533.586 198.754H535.33C534.914 199.82 534.253 200.647 533.346 201.234C532.44 201.81 531.378 202.098 530.162 202.098C529.128 202.098 528.184 201.858 527.33 201.378C526.488 200.887 525.821 200.21 525.33 199.346C524.84 198.482 524.594 197.506 524.594 196.418ZM536.954 197.586C536.954 196.69 537.135 195.906 537.498 195.234C537.86 194.551 538.356 194.023 538.986 193.65C539.626 193.276 540.335 193.09 541.114 193.09C541.882 193.09 542.548 193.255 543.114 193.586C543.679 193.916 544.1 194.332 544.378 194.834V193.234H545.85V202.002H544.378V200.37C544.09 200.882 543.658 201.308 543.082 201.65C542.516 201.98 541.855 202.146 541.098 202.146C540.319 202.146 539.615 201.954 538.986 201.57C538.356 201.186 537.86 200.647 537.498 199.954C537.135 199.26 536.954 198.471 536.954 197.586ZM544.378 197.602C544.378 196.94 544.244 196.364 543.978 195.874C543.711 195.383 543.348 195.01 542.89 194.754C542.442 194.487 541.946 194.354 541.402 194.354C540.858 194.354 540.362 194.482 539.914 194.738C539.466 194.994 539.108 195.367 538.842 195.858C538.575 196.348 538.442 196.924 538.442 197.586C538.442 198.258 538.575 198.844 538.842 199.346C539.108 199.836 539.466 200.215 539.914 200.482C540.362 200.738 540.858 200.866 541.402 200.866C541.946 200.866 542.442 200.738 542.89 200.482C543.348 200.215 543.711 199.836 543.978 199.346C544.244 198.844 544.378 198.263 544.378 197.602ZM549.766 190.162V202.002H548.31V190.162H549.766ZM551.704 197.602C551.704 196.695 551.885 195.906 552.248 195.234C552.61 194.551 553.112 194.023 553.752 193.65C554.402 193.276 555.144 193.09 555.976 193.09C557.053 193.09 557.938 193.351 558.632 193.874C559.336 194.396 559.8 195.122 560.024 196.05H558.456C558.306 195.516 558.013 195.095 557.576 194.786C557.149 194.476 556.616 194.322 555.976 194.322C555.144 194.322 554.472 194.61 553.96 195.186C553.448 195.751 553.192 196.556 553.192 197.602C553.192 198.658 553.448 199.474 553.96 200.05C554.472 200.626 555.144 200.914 555.976 200.914C556.616 200.914 557.149 200.764 557.576 200.466C558.002 200.167 558.296 199.74 558.456 199.186H560.024C559.789 200.082 559.32 200.802 558.616 201.346C557.912 201.879 557.032 202.146 555.976 202.146C555.144 202.146 554.402 201.959 553.752 201.586C553.112 201.212 552.61 200.684 552.248 200.002C551.885 199.319 551.704 198.519 551.704 197.602ZM562.718 191.81C562.441 191.81 562.206 191.714 562.014 191.522C561.822 191.33 561.726 191.095 561.726 190.818C561.726 190.54 561.822 190.306 562.014 190.114C562.206 189.922 562.441 189.826 562.718 189.826C562.985 189.826 563.209 189.922 563.39 190.114C563.582 190.306 563.678 190.54 563.678 190.818C563.678 191.095 563.582 191.33 563.39 191.522C563.209 191.714 562.985 191.81 562.718 191.81ZM563.422 193.234V202.002H561.966V193.234H563.422ZM573.68 193.234V202.002H572.224V200.706C571.947 201.154 571.557 201.506 571.056 201.762C570.565 202.007 570.021 202.13 569.424 202.13C568.741 202.13 568.128 201.991 567.584 201.714C567.04 201.426 566.608 200.999 566.288 200.434C565.979 199.868 565.824 199.18 565.824 198.37V193.234H567.264V198.178C567.264 199.042 567.483 199.708 567.92 200.178C568.357 200.636 568.955 200.866 569.712 200.866C570.491 200.866 571.104 200.626 571.552 200.146C572 199.666 572.224 198.967 572.224 198.05V193.234H573.68ZM586.682 193.074C587.365 193.074 587.973 193.218 588.506 193.506C589.04 193.783 589.461 194.204 589.77 194.77C590.08 195.335 590.234 196.023 590.234 196.834V202.002H588.794V197.042C588.794 196.167 588.576 195.5 588.138 195.042C587.712 194.572 587.13 194.338 586.394 194.338C585.637 194.338 585.034 194.583 584.586 195.074C584.138 195.554 583.914 196.252 583.914 197.17V202.002H582.474V197.042C582.474 196.167 582.256 195.5 581.818 195.042C581.392 194.572 580.81 194.338 580.074 194.338C579.317 194.338 578.714 194.583 578.266 195.074C577.818 195.554 577.594 196.252 577.594 197.17V202.002H576.138V193.234H577.594V194.498C577.882 194.039 578.266 193.687 578.746 193.442C579.237 193.196 579.776 193.074 580.362 193.074C581.098 193.074 581.749 193.239 582.314 193.57C582.88 193.9 583.301 194.386 583.578 195.026C583.824 194.407 584.229 193.927 584.794 193.586C585.36 193.244 585.989 193.074 586.682 193.074ZM596.344 197.602C596.344 196.695 596.526 195.906 596.888 195.234C597.251 194.551 597.752 194.023 598.392 193.65C599.043 193.276 599.784 193.09 600.616 193.09C601.694 193.09 602.579 193.351 603.272 193.874C603.976 194.396 604.44 195.122 604.664 196.05H603.096C602.947 195.516 602.654 195.095 602.216 194.786C601.79 194.476 601.256 194.322 600.616 194.322C599.784 194.322 599.112 194.61 598.6 195.186C598.088 195.751 597.832 196.556 597.832 197.602C597.832 198.658 598.088 199.474 598.6 200.05C599.112 200.626 599.784 200.914 600.616 200.914C601.256 200.914 601.79 200.764 602.216 200.466C602.643 200.167 602.936 199.74 603.096 199.186H604.664C604.43 200.082 603.96 200.802 603.256 201.346C602.552 201.879 601.672 202.146 600.616 202.146C599.784 202.146 599.043 201.959 598.392 201.586C597.752 201.212 597.251 200.684 596.888 200.002C596.526 199.319 596.344 198.519 596.344 197.602ZM606.063 197.586C606.063 196.69 606.244 195.906 606.607 195.234C606.97 194.551 607.466 194.023 608.095 193.65C608.735 193.276 609.444 193.09 610.223 193.09C610.991 193.09 611.658 193.255 612.223 193.586C612.788 193.916 613.21 194.332 613.487 194.834V193.234H614.959V202.002H613.487V200.37C613.199 200.882 612.767 201.308 612.191 201.65C611.626 201.98 610.964 202.146 610.207 202.146C609.428 202.146 608.724 201.954 608.095 201.57C607.466 201.186 606.97 200.647 606.607 199.954C606.244 199.26 606.063 198.471 606.063 197.586ZM613.487 197.602C613.487 196.94 613.354 196.364 613.087 195.874C612.82 195.383 612.458 195.01 611.999 194.754C611.551 194.487 611.055 194.354 610.511 194.354C609.967 194.354 609.471 194.482 609.023 194.738C608.575 194.994 608.218 195.367 607.951 195.858C607.684 196.348 607.551 196.924 607.551 197.586C607.551 198.258 607.684 198.844 607.951 199.346C608.218 199.836 608.575 200.215 609.023 200.482C609.471 200.738 609.967 200.866 610.511 200.866C611.055 200.866 611.551 200.738 611.999 200.482C612.458 200.215 612.82 199.836 613.087 199.346C613.354 198.844 613.487 198.263 613.487 197.602ZM618.876 194.658C619.132 194.156 619.494 193.767 619.964 193.49C620.444 193.212 621.025 193.074 621.708 193.074V194.578H621.324C619.692 194.578 618.876 195.463 618.876 197.234V202.002H617.42V193.234H618.876V194.658ZM624.844 194.866C625.143 194.343 625.58 193.916 626.156 193.586C626.732 193.255 627.388 193.09 628.124 193.09C628.914 193.09 629.623 193.276 630.252 193.65C630.882 194.023 631.378 194.551 631.74 195.234C632.103 195.906 632.284 196.69 632.284 197.586C632.284 198.471 632.103 199.26 631.74 199.954C631.378 200.647 630.876 201.186 630.236 201.57C629.607 201.954 628.903 202.146 628.124 202.146C627.367 202.146 626.7 201.98 626.124 201.65C625.559 201.319 625.132 200.898 624.844 200.386V202.002H623.388V190.162H624.844V194.866ZM630.796 197.586C630.796 196.924 630.663 196.348 630.396 195.858C630.13 195.367 629.767 194.994 629.308 194.738C628.86 194.482 628.364 194.354 627.82 194.354C627.287 194.354 626.791 194.487 626.332 194.754C625.884 195.01 625.522 195.388 625.244 195.89C624.978 196.38 624.844 196.951 624.844 197.602C624.844 198.263 624.978 198.844 625.244 199.346C625.522 199.836 625.884 200.215 626.332 200.482C626.791 200.738 627.287 200.866 627.82 200.866C628.364 200.866 628.86 200.738 629.308 200.482C629.767 200.215 630.13 199.836 630.396 199.346C630.663 198.844 630.796 198.258 630.796 197.586ZM638.025 202.146C637.203 202.146 636.457 201.959 635.785 201.586C635.123 201.212 634.601 200.684 634.217 200.002C633.843 199.308 633.657 198.508 633.657 197.602C633.657 196.706 633.849 195.916 634.233 195.234C634.627 194.54 635.161 194.012 635.833 193.65C636.505 193.276 637.257 193.09 638.089 193.09C638.921 193.09 639.673 193.276 640.345 193.65C641.017 194.012 641.545 194.535 641.929 195.218C642.323 195.9 642.521 196.695 642.521 197.602C642.521 198.508 642.318 199.308 641.913 200.002C641.518 200.684 640.979 201.212 640.297 201.586C639.614 201.959 638.857 202.146 638.025 202.146ZM638.025 200.866C638.547 200.866 639.038 200.743 639.497 200.498C639.955 200.252 640.323 199.884 640.601 199.394C640.889 198.903 641.033 198.306 641.033 197.602C641.033 196.898 640.894 196.3 640.617 195.81C640.339 195.319 639.977 194.956 639.529 194.722C639.081 194.476 638.595 194.354 638.073 194.354C637.539 194.354 637.049 194.476 636.601 194.722C636.163 194.956 635.811 195.319 635.545 195.81C635.278 196.3 635.145 196.898 635.145 197.602C635.145 198.316 635.273 198.919 635.529 199.41C635.795 199.9 636.147 200.268 636.585 200.514C637.022 200.748 637.502 200.866 638.025 200.866ZM648.707 193.074C649.774 193.074 650.638 193.399 651.299 194.05C651.96 194.69 652.291 195.618 652.291 196.834V202.002H650.851V197.042C650.851 196.167 650.632 195.5 650.195 195.042C649.758 194.572 649.16 194.338 648.403 194.338C647.635 194.338 647.022 194.578 646.563 195.058C646.115 195.538 645.891 196.236 645.891 197.154V202.002H644.435V193.234H645.891V194.482C646.179 194.034 646.568 193.687 647.059 193.442C647.56 193.196 648.11 193.074 648.707 193.074ZM654.126 197.586C654.126 196.69 654.307 195.906 654.67 195.234C655.032 194.551 655.528 194.023 656.158 193.65C656.798 193.276 657.507 193.09 658.286 193.09C659.054 193.09 659.72 193.255 660.286 193.586C660.851 193.916 661.272 194.332 661.55 194.834V193.234H663.022V202.002H661.55V200.37C661.262 200.882 660.83 201.308 660.254 201.65C659.688 201.98 659.027 202.146 658.27 202.146C657.491 202.146 656.787 201.954 656.158 201.57C655.528 201.186 655.032 200.647 654.67 199.954C654.307 199.26 654.126 198.471 654.126 197.586ZM661.55 197.602C661.55 196.94 661.416 196.364 661.15 195.874C660.883 195.383 660.52 195.01 660.062 194.754C659.614 194.487 659.118 194.354 658.574 194.354C658.03 194.354 657.534 194.482 657.086 194.738C656.638 194.994 656.28 195.367 656.014 195.858C655.747 196.348 655.614 196.924 655.614 197.586C655.614 198.258 655.747 198.844 656.014 199.346C656.28 199.836 656.638 200.215 657.086 200.482C657.534 200.738 658.03 200.866 658.574 200.866C659.118 200.866 659.614 200.738 660.062 200.482C660.52 200.215 660.883 199.836 661.15 199.346C661.416 198.844 661.55 198.263 661.55 197.602ZM667.258 194.434V199.602C667.258 200.028 667.349 200.332 667.53 200.514C667.711 200.684 668.026 200.77 668.474 200.77H669.546V202.002H668.234C667.423 202.002 666.815 201.815 666.41 201.442C666.005 201.068 665.802 200.455 665.802 199.602V194.434H664.666V193.234H665.802V191.026H667.258V193.234H669.546V194.434H667.258ZM679.31 197.282C679.31 197.559 679.294 197.852 679.262 198.162H672.254C672.307 199.026 672.601 199.703 673.134 200.194C673.678 200.674 674.334 200.914 675.102 200.914C675.731 200.914 676.254 200.77 676.67 200.482C677.097 200.183 677.395 199.788 677.566 199.298H679.134C678.899 200.14 678.43 200.828 677.726 201.362C677.022 201.884 676.147 202.146 675.102 202.146C674.27 202.146 673.523 201.959 672.862 201.586C672.211 201.212 671.699 200.684 671.326 200.002C670.953 199.308 670.766 198.508 670.766 197.602C670.766 196.695 670.947 195.9 671.31 195.218C671.673 194.535 672.179 194.012 672.83 193.65C673.491 193.276 674.249 193.09 675.102 193.09C675.934 193.09 676.67 193.271 677.31 193.634C677.95 193.996 678.441 194.498 678.782 195.138C679.134 195.767 679.31 196.482 679.31 197.282ZM677.806 196.978C677.806 196.423 677.683 195.948 677.438 195.554C677.193 195.148 676.857 194.844 676.43 194.642C676.014 194.428 675.55 194.322 675.038 194.322C674.302 194.322 673.673 194.556 673.15 195.026C672.638 195.495 672.345 196.146 672.27 196.978H677.806Z" fill="#333333"/>
              <circle cx="777.5" cy="50.5017" r="2.5" transform="rotate(-180 777.5 50.5017)" fill="#333333"/>
              <circle cx="777.5" cy="123.502" r="2.5" transform="rotate(-180 777.5 123.502)" fill="#333333"/>
              <rect x="776" y="51.0017" width="76" height="1" transform="rotate(-180 776 51.0017)" fill="#333333"/>
              <rect x="776" y="124.002" width="76" height="1" transform="rotate(-180 776 124.002)" fill="#333333"/>
              <rect x="776" y="200.002" width="76" height="1" transform="rotate(-180 776 200.002)" fill="#333333"/>
              <circle cx="777.5" cy="199.502" r="2.5" fill="#333333"/>
              <rect x="776" y="273.002" width="76" height="1" transform="rotate(-180 776 273.002)" fill="#333333"/>
              <circle cx="777.5" cy="272.502" r="2.5" fill="#333333"/>
              <circle cx="777.5" cy="344.502" r="2.5" fill="#333333"/>
              <rect x="776" y="345.002" width="76" height="1" transform="rotate(-180 776 345.002)" fill="#333333"/>
              <path d="M585.813 276.818H589.717V278.002H584.357V266.85H585.813V276.818ZM592.015 267.81C591.738 267.81 591.503 267.714 591.311 267.522C591.119 267.33 591.023 267.095 591.023 266.818C591.023 266.54 591.119 266.306 591.311 266.114C591.503 265.922 591.738 265.826 592.015 265.826C592.282 265.826 592.506 265.922 592.687 266.114C592.879 266.306 592.975 266.54 592.975 266.818C592.975 267.095 592.879 267.33 592.687 267.522C592.506 267.714 592.282 267.81 592.015 267.81ZM592.719 269.234V278.002H591.263V269.234H592.719ZM594.657 273.602C594.657 272.695 594.838 271.906 595.201 271.234C595.563 270.551 596.065 270.023 596.705 269.65C597.355 269.276 598.097 269.09 598.929 269.09C600.006 269.09 600.891 269.351 601.585 269.874C602.289 270.396 602.753 271.122 602.977 272.05H601.409C601.259 271.516 600.966 271.095 600.529 270.786C600.102 270.476 599.569 270.322 598.929 270.322C598.097 270.322 597.425 270.61 596.913 271.186C596.401 271.751 596.145 272.556 596.145 273.602C596.145 274.658 596.401 275.474 596.913 276.05C597.425 276.626 598.097 276.914 598.929 276.914C599.569 276.914 600.102 276.764 600.529 276.466C600.955 276.167 601.249 275.74 601.409 275.186H602.977C602.742 276.082 602.273 276.802 601.569 277.346C600.865 277.879 599.985 278.146 598.929 278.146C598.097 278.146 597.355 277.959 596.705 277.586C596.065 277.212 595.563 276.684 595.201 276.002C594.838 275.319 594.657 274.519 594.657 273.602ZM608.744 278.146C607.922 278.146 607.176 277.959 606.504 277.586C605.842 277.212 605.32 276.684 604.936 276.002C604.562 275.308 604.376 274.508 604.376 273.602C604.376 272.706 604.568 271.916 604.952 271.234C605.346 270.54 605.88 270.012 606.552 269.65C607.224 269.276 607.976 269.09 608.808 269.09C609.64 269.09 610.392 269.276 611.064 269.65C611.736 270.012 612.264 270.535 612.648 271.218C613.042 271.9 613.24 272.695 613.24 273.602C613.24 274.508 613.037 275.308 612.632 276.002C612.237 276.684 611.698 277.212 611.016 277.586C610.333 277.959 609.576 278.146 608.744 278.146ZM608.744 276.866C609.266 276.866 609.757 276.743 610.216 276.498C610.674 276.252 611.042 275.884 611.32 275.394C611.608 274.903 611.752 274.306 611.752 273.602C611.752 272.898 611.613 272.3 611.336 271.81C611.058 271.319 610.696 270.956 610.248 270.722C609.8 270.476 609.314 270.354 608.792 270.354C608.258 270.354 607.768 270.476 607.32 270.722C606.882 270.956 606.53 271.319 606.264 271.81C605.997 272.3 605.864 272.898 605.864 273.602C605.864 274.316 605.992 274.919 606.248 275.41C606.514 275.9 606.866 276.268 607.304 276.514C607.741 276.748 608.221 276.866 608.744 276.866ZM616.61 270.658C616.866 270.156 617.229 269.767 617.698 269.49C618.178 269.212 618.759 269.074 619.442 269.074V270.578H619.058C617.426 270.578 616.61 271.463 616.61 273.234V278.002H615.154V269.234H616.61V270.658ZM621.875 267.81C621.597 267.81 621.363 267.714 621.171 267.522C620.979 267.33 620.883 267.095 620.883 266.818C620.883 266.54 620.979 266.306 621.171 266.114C621.363 265.922 621.597 265.826 621.875 265.826C622.141 265.826 622.365 265.922 622.547 266.114C622.739 266.306 622.835 266.54 622.835 266.818C622.835 267.095 622.739 267.33 622.547 267.522C622.365 267.714 622.141 267.81 621.875 267.81ZM622.579 269.234V278.002H621.123V269.234H622.579ZM624.516 273.602C624.516 272.695 624.697 271.906 625.06 271.234C625.423 270.551 625.924 270.023 626.564 269.65C627.215 269.276 627.956 269.09 628.788 269.09C629.865 269.09 630.751 269.351 631.444 269.874C632.148 270.396 632.612 271.122 632.836 272.05H631.268C631.119 271.516 630.825 271.095 630.388 270.786C629.961 270.476 629.428 270.322 628.788 270.322C627.956 270.322 627.284 270.61 626.772 271.186C626.26 271.751 626.004 272.556 626.004 273.602C626.004 274.658 626.26 275.474 626.772 276.05C627.284 276.626 627.956 276.914 628.788 276.914C629.428 276.914 629.961 276.764 630.388 276.466C630.815 276.167 631.108 275.74 631.268 275.186H632.836C632.601 276.082 632.132 276.802 631.428 277.346C630.724 277.879 629.844 278.146 628.788 278.146C627.956 278.146 627.215 277.959 626.564 277.586C625.924 277.212 625.423 276.684 625.06 276.002C624.697 275.319 624.516 274.519 624.516 273.602ZM642.779 273.282C642.779 273.559 642.763 273.852 642.731 274.162H635.723C635.776 275.026 636.07 275.703 636.603 276.194C637.147 276.674 637.803 276.914 638.571 276.914C639.2 276.914 639.723 276.77 640.139 276.482C640.566 276.183 640.864 275.788 641.035 275.298H642.603C642.368 276.14 641.899 276.828 641.195 277.362C640.491 277.884 639.616 278.146 638.571 278.146C637.739 278.146 636.992 277.959 636.331 277.586C635.68 277.212 635.168 276.684 634.795 276.002C634.422 275.308 634.235 274.508 634.235 273.602C634.235 272.695 634.416 271.9 634.779 271.218C635.142 270.535 635.648 270.012 636.299 269.65C636.96 269.276 637.718 269.09 638.571 269.09C639.403 269.09 640.139 269.271 640.779 269.634C641.419 269.996 641.91 270.498 642.251 271.138C642.603 271.767 642.779 272.482 642.779 273.282ZM641.275 272.978C641.275 272.423 641.152 271.948 640.907 271.554C640.662 271.148 640.326 270.844 639.899 270.642C639.483 270.428 639.019 270.322 638.507 270.322C637.771 270.322 637.142 270.556 636.619 271.026C636.107 271.495 635.814 272.146 635.739 272.978H641.275ZM650.422 270.658C650.678 270.156 651.041 269.767 651.51 269.49C651.99 269.212 652.572 269.074 653.254 269.074V270.578H652.87C651.238 270.578 650.422 271.463 650.422 273.234V278.002H648.966V269.234H650.422V270.658ZM658.759 278.146C657.938 278.146 657.191 277.959 656.519 277.586C655.858 277.212 655.335 276.684 654.951 276.002C654.578 275.308 654.391 274.508 654.391 273.602C654.391 272.706 654.583 271.916 654.967 271.234C655.362 270.54 655.895 270.012 656.567 269.65C657.239 269.276 657.991 269.09 658.823 269.09C659.655 269.09 660.407 269.276 661.079 269.65C661.751 270.012 662.279 270.535 662.663 271.218C663.058 271.9 663.255 272.695 663.255 273.602C663.255 274.508 663.052 275.308 662.647 276.002C662.252 276.684 661.714 277.212 661.031 277.586C660.348 277.959 659.591 278.146 658.759 278.146ZM658.759 276.866C659.282 276.866 659.772 276.743 660.231 276.498C660.69 276.252 661.058 275.884 661.335 275.394C661.623 274.903 661.767 274.306 661.767 273.602C661.767 272.898 661.628 272.3 661.351 271.81C661.074 271.319 660.711 270.956 660.263 270.722C659.815 270.476 659.33 270.354 658.807 270.354C658.274 270.354 657.783 270.476 657.335 270.722C656.898 270.956 656.546 271.319 656.279 271.81C656.012 272.3 655.879 272.898 655.879 273.602C655.879 274.316 656.007 274.919 656.263 275.41C656.53 275.9 656.882 276.268 657.319 276.514C657.756 276.748 658.236 276.866 658.759 276.866ZM668.994 278.146C668.172 278.146 667.426 277.959 666.754 277.586C666.092 277.212 665.57 276.684 665.186 276.002C664.812 275.308 664.626 274.508 664.626 273.602C664.626 272.706 664.818 271.916 665.202 271.234C665.596 270.54 666.13 270.012 666.802 269.65C667.474 269.276 668.226 269.09 669.058 269.09C669.89 269.09 670.642 269.276 671.314 269.65C671.986 270.012 672.514 270.535 672.898 271.218C673.292 271.9 673.49 272.695 673.49 273.602C673.49 274.508 673.287 275.308 672.882 276.002C672.487 276.684 671.948 277.212 671.266 277.586C670.583 277.959 669.826 278.146 668.994 278.146ZM668.994 276.866C669.516 276.866 670.007 276.743 670.466 276.498C670.924 276.252 671.292 275.884 671.57 275.394C671.858 274.903 672.002 274.306 672.002 273.602C672.002 272.898 671.863 272.3 671.586 271.81C671.308 271.319 670.946 270.956 670.498 270.722C670.05 270.476 669.564 270.354 669.042 270.354C668.508 270.354 668.018 270.476 667.57 270.722C667.132 270.956 666.78 271.319 666.514 271.81C666.247 272.3 666.114 272.898 666.114 273.602C666.114 274.316 666.242 274.919 666.498 275.41C666.764 275.9 667.116 276.268 667.554 276.514C667.991 276.748 668.471 276.866 668.994 276.866ZM677.18 270.434V275.602C677.18 276.028 677.271 276.332 677.452 276.514C677.633 276.684 677.948 276.77 678.396 276.77H679.468V278.002H678.156C677.345 278.002 676.737 277.815 676.332 277.442C675.927 277.068 675.724 276.455 675.724 275.602V270.434H674.588V269.234H675.724V267.026H677.18V269.234H679.468V270.434H677.18Z" fill="#333333"/>
              <path d="M617.205 339.85V341.034H614.165V351.002H612.709V341.034H609.653V339.85H617.205ZM626.774 342.234V351.002H625.318V349.706C625.04 350.154 624.651 350.506 624.15 350.762C623.659 351.007 623.115 351.13 622.518 351.13C621.835 351.13 621.222 350.991 620.678 350.714C620.134 350.426 619.702 349.999 619.382 349.434C619.072 348.868 618.918 348.18 618.918 347.37V342.234H620.358V347.178C620.358 348.042 620.576 348.708 621.014 349.178C621.451 349.636 622.048 349.866 622.806 349.866C623.584 349.866 624.198 349.626 624.646 349.146C625.094 348.666 625.318 347.967 625.318 347.05V342.234H626.774ZM630.688 343.658C630.944 343.156 631.307 342.767 631.776 342.49C632.256 342.212 632.837 342.074 633.52 342.074V343.578H633.136C631.504 343.578 630.688 344.463 630.688 346.234V351.002H629.232V342.234H630.688V343.658ZM645.745 342.074C646.427 342.074 647.035 342.218 647.569 342.506C648.102 342.783 648.523 343.204 648.833 343.77C649.142 344.335 649.297 345.023 649.297 345.834V351.002H647.857V346.042C647.857 345.167 647.638 344.5 647.201 344.042C646.774 343.572 646.193 343.338 645.457 343.338C644.699 343.338 644.097 343.583 643.649 344.074C643.201 344.554 642.977 345.252 642.977 346.17V351.002H641.537V346.042C641.537 345.167 641.318 344.5 640.881 344.042C640.454 343.572 639.873 343.338 639.137 343.338C638.379 343.338 637.777 343.583 637.329 344.074C636.881 344.554 636.657 345.252 636.657 346.17V351.002H635.201V342.234H636.657V343.498C636.945 343.039 637.329 342.687 637.809 342.442C638.299 342.196 638.838 342.074 639.425 342.074C640.161 342.074 640.811 342.239 641.377 342.57C641.942 342.9 642.363 343.386 642.641 344.026C642.886 343.407 643.291 342.927 643.857 342.586C644.422 342.244 645.051 342.074 645.745 342.074ZM659.685 346.282C659.685 346.559 659.669 346.852 659.637 347.162H652.629C652.682 348.026 652.976 348.703 653.509 349.194C654.053 349.674 654.709 349.914 655.477 349.914C656.106 349.914 656.629 349.77 657.045 349.482C657.472 349.183 657.77 348.788 657.941 348.298H659.509C659.274 349.14 658.805 349.828 658.101 350.362C657.397 350.884 656.522 351.146 655.477 351.146C654.645 351.146 653.898 350.959 653.237 350.586C652.586 350.212 652.074 349.684 651.701 349.002C651.328 348.308 651.141 347.508 651.141 346.602C651.141 345.695 651.322 344.9 651.685 344.218C652.048 343.535 652.554 343.012 653.205 342.65C653.866 342.276 654.624 342.09 655.477 342.09C656.309 342.09 657.045 342.271 657.685 342.634C658.325 342.996 658.816 343.498 659.157 344.138C659.509 344.767 659.685 345.482 659.685 346.282ZM658.181 345.978C658.181 345.423 658.058 344.948 657.813 344.554C657.568 344.148 657.232 343.844 656.805 343.642C656.389 343.428 655.925 343.322 655.413 343.322C654.677 343.322 654.048 343.556 653.525 344.026C653.013 344.495 652.72 345.146 652.645 345.978H658.181ZM663.063 343.658C663.319 343.156 663.682 342.767 664.151 342.49C664.631 342.212 665.212 342.074 665.895 342.074V343.578H665.511C663.879 343.578 663.063 344.463 663.063 346.234V351.002H661.607V342.234H663.063V343.658ZM668.328 340.81C668.05 340.81 667.816 340.714 667.624 340.522C667.432 340.33 667.336 340.095 667.336 339.818C667.336 339.54 667.432 339.306 667.624 339.114C667.816 338.922 668.05 338.826 668.328 338.826C668.594 338.826 668.818 338.922 669 339.114C669.192 339.306 669.288 339.54 669.288 339.818C669.288 340.095 669.192 340.33 669 340.522C668.818 340.714 668.594 340.81 668.328 340.81ZM669.032 342.234V351.002H667.576V342.234H669.032ZM670.969 346.602C670.969 345.695 671.151 344.906 671.513 344.234C671.876 343.551 672.377 343.023 673.017 342.65C673.668 342.276 674.409 342.09 675.241 342.09C676.319 342.09 677.204 342.351 677.897 342.874C678.601 343.396 679.065 344.122 679.289 345.05H677.721C677.572 344.516 677.279 344.095 676.841 343.786C676.415 343.476 675.881 343.322 675.241 343.322C674.409 343.322 673.737 343.61 673.225 344.186C672.713 344.751 672.457 345.556 672.457 346.602C672.457 347.658 672.713 348.474 673.225 349.05C673.737 349.626 674.409 349.914 675.241 349.914C675.881 349.914 676.415 349.764 676.841 349.466C677.268 349.167 677.561 348.74 677.721 348.186H679.289C679.055 349.082 678.585 349.802 677.881 350.346C677.177 350.879 676.297 351.146 675.241 351.146C674.409 351.146 673.668 350.959 673.017 350.586C672.377 350.212 671.876 349.684 671.513 349.002C671.151 348.319 670.969 347.519 670.969 346.602Z" fill="#333333"/>
            </svg>