<svg width="15" height="16" viewBox="0 0 15 16" fill="none" xmlns="http://www.w3.org/2000/svg">
<path d="M6.98367 1.51971C6.25273 1.55918 5.59562 1.72939 4.91391 2.05499C4.51111 2.24822 4.14769 2.48009 3.81299 2.75883C3.67435 2.87394 3.35523 3.19708 3.23382 3.34344C2.59394 4.11882 2.16407 5.10797 2.03774 6.09795C2.00574 6.34544 2 6.4474 2 6.76396C2 7.14795 2.01723 7.35515 2.07875 7.69474C2.22314 8.49971 2.59148 9.33757 3.09189 10.0003C3.69486 10.7979 4.55705 11.4014 5.58086 11.7426C5.95658 11.8676 6.30769 11.9424 6.73346 11.9868C6.90819 12.0049 7.46029 12.0074 7.62765 11.9909C8.35038 11.9202 8.92873 11.7541 9.56369 11.4368C10.3808 11.0273 11.0198 10.4657 11.4997 9.73636C11.9739 9.01525 12.2807 8.17904 12.3726 7.35597C12.4792 6.40711 12.3316 5.47222 11.9345 4.58502C11.5153 3.64767 10.9189 2.9315 10.1215 2.40773C9.63178 2.08706 9.00421 1.81079 8.44636 1.67101C7.96563 1.55096 7.42994 1.49505 6.98367 1.51971ZM7.47588 2.39376C7.92954 2.42582 8.38155 2.53025 8.8065 2.7021C9.76796 3.09184 10.4571 3.68467 10.9402 4.53569C11.4382 5.41467 11.6285 6.35366 11.5071 7.3272C11.389 8.27442 10.8992 9.2685 10.2364 9.90821C9.90496 10.2272 9.56697 10.4624 9.1289 10.6778C8.59321 10.9418 8.07556 11.084 7.50131 11.1268C7.32986 11.1391 6.90655 11.1325 6.75479 11.1144C6.24781 11.0544 5.81302 10.9311 5.36182 10.7198C4.69897 10.4098 4.16574 9.98139 3.75146 9.42802C3.2896 8.81052 2.98197 8.04666 2.89009 7.29102C2.79082 6.47124 2.9229 5.66134 3.28058 4.89254C3.73423 3.91819 4.42744 3.22751 5.39217 2.79008C5.9172 2.55245 6.39875 2.42993 6.96726 2.39129C7.05914 2.38471 7.36841 2.38636 7.47588 2.39376Z" fill="#E4DFD3"/>
<path d="M7.00865 3.59095C6.59437 3.62878 6.2613 3.72334 5.92168 3.90176C5.08737 4.33837 4.48605 5.18117 4.30639 6.16786C4.26537 6.39397 4.25635 6.5058 4.25635 6.79276C4.25635 6.99914 4.26045 7.08712 4.27111 7.17921C4.3671 7.95623 4.68293 8.62306 5.20386 9.14436C5.65588 9.59824 6.19321 9.87369 6.80766 9.9666C6.95615 9.98963 7.27363 9.99785 7.42457 9.98387C8.04722 9.92385 8.5944 9.67882 9.08088 9.24221C9.29909 9.04734 9.51813 8.77436 9.6781 8.50055C9.76752 8.34761 9.87908 8.10916 9.92995 7.9628L9.94389 7.92005L9.89795 7.90443C9.87252 7.89538 9.66661 7.82302 9.44101 7.74409C9.21541 7.66515 9.02427 7.59855 9.01607 7.59691C9.00458 7.59526 8.99392 7.61418 8.96192 7.69311C8.84707 7.97761 8.69285 8.21359 8.48201 8.42573C8.00621 8.9018 7.37863 9.08927 6.76993 8.93469C6.20716 8.79162 5.72069 8.36488 5.46227 7.78767C5.31789 7.46699 5.25308 7.15537 5.25308 6.78865C5.25308 6.38739 5.33266 6.04534 5.50821 5.69918C5.67557 5.36782 5.92332 5.08497 6.217 4.89092C6.74203 4.54475 7.38684 4.49789 7.94796 4.76511C8.14321 4.85803 8.30892 4.97807 8.47791 5.14746C8.60015 5.27079 8.71253 5.41139 8.78473 5.53309L8.82492 5.59969L8.85035 5.58489C8.86348 5.57666 9.05216 5.46648 9.26874 5.3415C9.48531 5.2157 9.66907 5.10881 9.67646 5.10305C9.68876 5.09483 9.68384 5.08332 9.62641 4.99123C9.1826 4.27506 8.49104 3.785 7.71252 3.63618C7.55173 3.60493 7.42621 3.59342 7.23425 3.59013C7.13088 3.58931 7.02916 3.58931 7.00865 3.59095Z" fill="#E4DFD3"/>
</svg>
