<svg width="15" height="15" viewBox="0 0 15 15" fill="none" xmlns="http://www.w3.org/2000/svg">
<path d="M6.98367 1.51776C6.25273 1.55723 5.59562 1.72743 4.91391 2.05304C4.51111 2.24627 4.14769 2.47814 3.81299 2.75688C3.67435 2.87199 3.35523 3.19513 3.23382 3.34149C2.59394 4.11686 2.16407 5.10602 2.03774 6.09599C2.00574 6.34349 2 6.44545 2 6.76201C2 7.14599 2.01723 7.3532 2.07875 7.69278C2.22314 8.49776 2.59148 9.33562 3.09189 9.99835C3.69486 10.7959 4.55705 11.3994 5.58086 11.7407C5.95658 11.8657 6.30769 11.9405 6.73346 11.9849C6.90819 12.003 7.46029 12.0054 7.62765 11.989C8.35038 11.9183 8.92873 11.7522 9.56369 11.4348C10.3808 11.0253 11.0198 10.4637 11.4997 9.73441C11.9739 9.0133 12.2807 8.17708 12.3726 7.35402C12.4792 6.40516 12.3316 5.47027 11.9345 4.58307C11.5153 3.64572 10.9189 2.92955 10.1215 2.40578C9.63178 2.08511 9.00421 1.80883 8.44636 1.66905C7.96563 1.54901 7.42994 1.49309 6.98367 1.51776ZM7.47588 2.3918C7.92954 2.42387 8.38155 2.52829 8.8065 2.70014C9.76796 3.08988 10.4571 3.68272 10.9402 4.53374C11.4382 5.41271 11.6285 6.35171 11.5071 7.32524C11.389 8.27246 10.8992 9.26655 10.2364 9.90625C9.90496 10.2253 9.56697 10.4604 9.1289 10.6759C8.59321 10.9398 8.07556 11.0821 7.50131 11.1248C7.32986 11.1371 6.90655 11.1306 6.75479 11.1125C6.24781 11.0525 5.81302 10.9291 5.36182 10.7178C4.69897 10.4078 4.16574 9.97943 3.75146 9.42607C3.2896 8.80856 2.98197 8.0447 2.89009 7.28906C2.79082 6.46929 2.9229 5.65938 3.28058 4.89059C3.73423 3.91624 4.42744 3.22555 5.39217 2.78812C5.9172 2.5505 6.39875 2.42798 6.96726 2.38934C7.05914 2.38276 7.36841 2.3844 7.47588 2.3918Z" fill="#E4DFD3"/>
<path d="M7.00841 3.589C6.59413 3.62682 6.26106 3.72138 5.92143 3.89981C5.08713 4.33642 4.4858 5.17921 4.30615 6.1659C4.26513 6.39202 4.2561 6.50384 4.2561 6.7908C4.2561 6.99719 4.26021 7.08517 4.27087 7.17726C4.36685 7.95427 4.68269 8.62111 5.20362 9.14241C5.65563 9.59629 6.19297 9.87174 6.80742 9.96465C6.9559 9.98767 7.27338 9.9959 7.42433 9.98192C8.04698 9.92189 8.59416 9.67687 9.08063 9.24026C9.29885 9.04539 9.51788 8.7724 9.67785 8.4986C9.76727 8.34566 9.87884 8.10721 9.9297 7.96085L9.94365 7.9181L9.89771 7.90247C9.87228 7.89343 9.66637 7.82107 9.44077 7.74214C9.21517 7.6632 9.02403 7.5966 9.01582 7.59496C9.00434 7.59331 8.99367 7.61222 8.96168 7.69116C8.84683 7.97565 8.6926 8.21163 8.48177 8.42377C8.00596 8.89985 7.37839 9.08732 6.76968 8.93274C6.20692 8.78967 5.72044 8.36293 5.46203 7.78571C5.31765 7.46504 5.25284 7.15341 5.25284 6.78669C5.25284 6.38544 5.33241 6.04339 5.50797 5.69723C5.67532 5.36586 5.92307 5.08301 6.21676 4.88896C6.74179 4.5428 7.38659 4.49593 7.94772 4.76316C8.14296 4.85607 8.30867 4.97612 8.47767 5.1455C8.5999 5.26884 8.71229 5.40944 8.78448 5.53113L8.82468 5.59773L8.85011 5.58293C8.86324 5.57471 9.05192 5.46453 9.26849 5.33955C9.48507 5.21375 9.66883 5.10686 9.67621 5.1011C9.68852 5.09288 9.68359 5.08137 9.62617 4.98928C9.18236 4.27311 8.49079 3.78305 7.71227 3.63422C7.55148 3.60298 7.42597 3.59147 7.234 3.58818C7.13064 3.58736 7.02891 3.58736 7.00841 3.589Z" fill="#E4DFD3"/>
</svg>
