<svg width="82" height="62" viewBox="0 0 82 62" fill="none" xmlns="http://www.w3.org/2000/svg">
<path d="M12.926 54.3898H1V52.3559C1.65999 16.5776 50.9445 20.2084 57.0005 36.5932C61.4742 36.3626 62.9252 35.7229 64.2599 32.5254C67.5312 31.2458 69.5367 31.2033 71.5192 32.5254C73.4014 28.2279 74.3397 26.2299 75.6674 23.8813H79.2971L75.6674 34.5593C86.5141 49.2548 78.5886 53.7123 71.5192 54.3898C66.6453 54.5469 62.2674 54.5378 57.0005 54.3898M12.926 54.3898C11.2776 56.9702 11.1872 58.4207 12.926 61H40.4078C47.6096 59.7307 51.2758 58.3476 57.0005 54.3898M12.926 54.3898H57.0005" stroke="#344F10"/>
<path d="M12.4075 29.983L15.0001 23.3729M15.0001 23.3729L9.81491 12.1864M15.0001 23.3729L22.2595 25.4067L26.9262 19.8135M9.81491 12.1864L12.4075 5.06776M9.81491 12.1864L17.5928 9.64404M26.9262 19.8135V9.64404M26.9262 19.8135L33.667 24.8983M26.9262 9.64404L32.1114 2.52539M26.9262 9.64404H34.704" stroke="#344F10"/>
<path d="M69.4451 39.6442L71.7785 42.4408M74.1118 45.2374L71.7785 42.4408M71.7785 42.4408L74.1118 39.6442M71.7785 42.4408L68.408 45.2374M43.0004 38.1188H33.1485V43.712H43.0004V48.2883H19.1483V32.0171L44.0374 33.034L43.0004 38.1188Z" stroke="#344F10"/>
<path d="M64.2599 32.5252L65.9883 24.3896H69.4451V31.7013" stroke="#344F10"/>
<path d="M67.371 16.7627C68.5184 15.0663 67.9315 14.1826 65.2969 12.6949C64.4645 11.1102 65.1696 10.2203 67.371 8.62712C68.1792 7.1773 67.6423 6.27111 65.2969 4.55932C64.7323 2.77976 65.1749 2.01632 67.371 1" stroke="#344F10"/>
<path d="M77.2229 17.2712C78.1676 15.4856 77.8938 14.4838 75.1488 12.6949C74.5764 11.5079 74.8226 10.6748 77.2229 8.62712C77.318 7.03999 77.1017 6.15235 75.1488 4.55932C75.069 2.7163 75.4164 1.87971 77.2229 1" stroke="#344F10"/>
<path d="M36.2596 38.627V43.7117" stroke="#344F10"/>
<path d="M13.9631 39.644L9.81491 46.2542" stroke="#344F10"/>
<path d="M50.2783 39.6441C50.2783 40.2012 49.8149 40.6695 49.2227 40.6695C48.6304 40.6695 48.1671 40.2012 48.1671 39.6441C48.1671 39.0869 48.6304 38.6187 49.2227 38.6187C49.8149 38.6187 50.2783 39.0869 50.2783 39.6441Z" stroke="#344F10"/>
</svg>
