<svg width="398" height="398" viewBox="0 0 398 398" fill="none" xmlns="http://www.w3.org/2000/svg">
<g clip-path="url(#clip0_21779_893)">
<path fill-rule="evenodd" clip-rule="evenodd" d="M98.8684 15.8733C242.779 -3.23879 325.726 -4.66845 479.133 15.8734L480 15.9895V16.8646V83.2497V84.2497H479H470.927V114.695V115.695H469.927H454.735C454.665 116.067 454.575 116.56 454.477 117.152C454.244 118.559 453.965 120.518 453.778 122.724C453.402 127.181 453.423 132.48 454.853 136.308C456.376 140.388 460.228 144.747 463.817 148.15C465.594 149.835 467.272 151.255 468.507 152.254C469.124 152.753 469.629 153.146 469.979 153.414C470.153 153.547 470.289 153.65 470.381 153.718L470.421 153.748L470.484 153.795L470.51 153.814L470.516 153.818L470.517 153.819L470.513 153.824L470.517 153.819L470.927 154.118V154.626V180.081H479H480V181.081V340.305V341.305H479H470.927V377.241V378.054L470.132 378.22C344.233 404.574 263.765 404.615 109.506 378.227L108.674 378.085V377.241V341.305H99H98V340.305V181.081V180.081H99H108.674V154.626V154.043L109.182 153.756C110.051 153.264 110.943 152.782 111.843 152.296C114.642 150.782 117.513 149.23 120.004 147.224C123.243 144.617 125.716 141.327 126.294 136.538L126.295 136.527L126.297 136.516C127.225 130.008 127.36 125.557 126.382 115.695H109.674H108.674V114.695V84.2497H99H98V83.2497V16.8646V15.9886L98.8684 15.8733ZM110.674 341.417C257.407 357.008 336.271 357.024 468.927 341.43V376.429C344.002 402.508 263.87 402.554 110.674 376.398V341.417ZM128.392 115.695H452.701C452.642 116.017 452.575 116.396 452.504 116.825C452.265 118.271 451.977 120.284 451.785 122.556C451.537 125.495 451.442 128.939 451.851 132.163H128.824C129.226 127.568 129.123 123.126 128.392 115.695ZM128.62 134.163H452.178C452.382 135.157 452.645 136.113 452.979 137.007C454.675 141.55 458.829 146.176 462.441 149.601C464.265 151.331 465.985 152.786 467.249 153.809C467.882 154.321 468.401 154.725 468.763 155.002C468.822 155.047 468.877 155.089 468.927 155.127V180.705C329.559 187.461 250.512 186.945 110.674 180.624V155.212C111.314 154.856 111.98 154.497 112.662 154.128L112.666 154.126L112.667 154.125L112.675 154.121L112.678 154.12L112.678 154.119C115.509 152.59 118.61 150.915 121.259 148.782C124.773 145.953 127.618 142.233 128.278 136.788C128.407 135.881 128.521 135.012 128.62 134.163ZM453.916 113.695H468.927V84.2495H110.674V113.695L127.286 113.695L453.916 113.695ZM109.674 82.2497L109.674 82.2495H469.927L469.927 82.2497H478V17.7397C325.641 -2.61474 242.94 -1.20394 100 17.7407V82.2497H109.674ZM109.629 182.579L109.651 182.081H100V339.305H109.674H109.727L109.78 339.311C257.503 355.049 336.308 355.058 469.81 339.312L469.868 339.305H469.927H478V182.081H471.553L471.577 182.578C330.229 189.483 250.97 188.982 109.629 182.579Z" fill="#344F10"/>
<circle cx="77.5" cy="51.5" r="2.5" transform="rotate(-180 77.5 51.5)" fill="#333333"/>
<circle cx="77.5" cy="124.5" r="2.5" transform="rotate(-180 77.5 124.5)" fill="#333333"/>
<circle cx="77.5" cy="200.5" r="2.5" fill="#333333"/>
<rect x="76" y="52" width="76" height="1" transform="rotate(-180 76 52)" fill="#333333"/>
<rect x="76" y="125" width="76" height="1" transform="rotate(-180 76 125)" fill="#333333"/>
<rect x="76" y="201" width="76" height="1" transform="rotate(-180 76 201)" fill="#333333"/>
<circle cx="77.5" cy="200.5" r="2.5" fill="#333333"/>
<circle cx="77.5" cy="273.5" r="2.5" fill="#333333"/>
<rect x="76" y="274" width="76" height="1" transform="rotate(-180 76 274)" fill="#333333"/>
<circle cx="77.5" cy="273.5" r="2.5" fill="#333333"/>
<circle cx="77.5" cy="273.5" r="2.5" fill="#333333"/>
<circle cx="77.5" cy="273.5" r="2.5" fill="#333333"/>
<circle cx="77.5" cy="345.5" r="2.5" fill="#333333"/>
<rect x="76" y="346" width="76" height="1" transform="rotate(-180 76 346)" fill="#333333"/>
<circle cx="77.5" cy="345.5" r="2.5" fill="#333333"/>
<circle cx="77.5" cy="345.5" r="2.5" fill="#333333"/>
<circle cx="77.5" cy="345.5" r="2.5" fill="#333333"/>
</g>
<defs>
<clipPath id="clip0_21779_893">
<rect width="398" height="397" fill="white" transform="translate(0 0.998291)"/>
</clipPath>
</defs>
</svg>
