<svg width="20" height="20" viewBox="0 0 20 20" fill="none" xmlns="http://www.w3.org/2000/svg">
<path d="M2.69531 0.5H17.3047C18.517 0.5 19.5 1.48299 19.5 2.69531V17.3047C19.5 18.5169 18.5169 19.5 17.3047 19.5H13.5186L13.5293 13.3535H15.498C15.9734 13.3535 16.3737 12.9974 16.4297 12.5254L16.7031 10.2217C16.7693 9.66376 16.3332 9.17298 15.7715 9.17285H13.5176V7.74609C13.5176 7.33085 13.5813 7.12058 13.6777 7.00586C13.758 6.91049 13.9537 6.77637 14.5137 6.77637H15.6738C16.1916 6.77605 16.6113 6.35587 16.6113 5.83789V3.89551C16.6113 3.37742 16.1918 2.95715 15.6738 2.95703H13.7822C12.5287 2.95712 11.4214 3.34174 10.626 4.12793C9.82894 4.91574 9.40039 6.05229 9.40039 7.44727V9.17285H8.04688C7.52752 9.173 7.10739 9.59579 7.10938 10.1152L7.11816 12.4189C7.12038 12.9353 7.53924 13.3524 8.05566 13.3525H9.41211L9.40137 19.5H2.69531C1.48301 19.5 0.5 18.517 0.5 17.3047V2.69531C0.5 1.48301 1.48305 0.5 2.69531 0.5Z" stroke="#E4DFD3"/>
</svg>
