<svg width="90" height="90" viewBox="0 0 90 90" fill="none" xmlns="http://www.w3.org/2000/svg">
<g clip-path="url(#clip0)">
<path d="M69.9301 13.4104L64.7901 17.1179C50.9214 -1.45605 43.41 -11.3675 19.4647 21.7522L36.2865 31.9477C38.6775 23.9759 40.6898 19.9144 45.6319 13.4104L51.2392 24.5328L45.6319 28.7037C52.4148 29.3523 56.0474 29.4371 61.9865 28.7037C66.0123 23.8725 67.87 20.6649 69.9301 13.4104Z" stroke="#344F10"/>
<path d="M58.1024 75.327L57.3252 68.9942C80.0937 65.5214 92.2963 63.5698 74.8859 26.5176L58.0007 36.6056C63.798 42.5276 66.3733 46.2503 69.6781 53.7396L57.329 53.4226L56.3712 46.4539C52.5755 52.171 50.771 55.3579 48.5799 60.9839C50.8657 66.8621 52.7716 70.0407 58.1024 75.327Z" stroke="#344F10"/>
<path d="M6 33.7997L11.8581 36.1833C3.8245 57.989 -0.40279 69.7193 40.1085 72.2977L39.5639 52.4841C31.6273 54.7362 27.1566 55.2071 19.072 54.4965L25.3339 43.7367L31.8299 46.269C28.722 40.1426 26.8385 37.0027 23.0315 32.3385C16.8354 31.5085 13.1601 31.6517 6 33.7997Z" stroke="#344F10"/>
</g>
<defs>
<clipPath id="clip0">
<rect width="90" height="90" fill="white"/>
</clipPath>
</defs>
</svg>
