<svg width="12" height="131" viewBox="0 0 12 131" fill="none" xmlns="http://www.w3.org/2000/svg">
<path d="M7.108 130.482C6.33333 130.482 5.64733 130.323 5.05 130.006C4.45267 129.679 3.99067 129.241 3.664 128.69C3.328 128.13 3.16 127.514 3.16 126.842C3.16 126.235 3.28133 125.708 3.524 125.26C3.75733 124.803 4.05133 124.439 4.406 124.168H3.286V122.558H11V124.168H9.852C10.216 124.439 10.5193 124.807 10.762 125.274C11.0047 125.741 11.126 126.273 11.126 126.87C11.126 127.533 10.958 128.139 10.622 128.69C10.2767 129.241 9.80067 129.679 9.194 130.006C8.578 130.323 7.88267 130.482 7.108 130.482ZM7.136 124.168C6.604 124.168 6.142 124.28 5.75 124.504C5.358 124.719 5.05933 125.003 4.854 125.358C4.64867 125.713 4.546 126.095 4.546 126.506C4.546 126.917 4.64867 127.299 4.854 127.654C5.05 128.009 5.344 128.298 5.736 128.522C6.11867 128.737 6.576 128.844 7.108 128.844C7.64 128.844 8.10667 128.737 8.508 128.522C8.90933 128.298 9.21733 128.009 9.432 127.654C9.63733 127.29 9.74 126.907 9.74 126.506C9.74 126.095 9.63733 125.713 9.432 125.358C9.22667 125.003 8.928 124.719 8.536 124.504C8.13467 124.28 7.668 124.168 7.136 124.168ZM4.434 118.866C4.06067 118.595 3.75733 118.226 3.524 117.76C3.28133 117.284 3.16 116.756 3.16 116.178C3.16 115.496 3.32333 114.88 3.65 114.33C3.97667 113.779 4.44333 113.345 5.05 113.028C5.64733 112.71 6.33333 112.552 7.108 112.552C7.88267 112.552 8.578 112.71 9.194 113.028C9.80067 113.345 10.2767 113.784 10.622 114.344C10.958 114.894 11.126 115.506 11.126 116.178C11.126 116.775 11.0093 117.307 10.776 117.774C10.5427 118.231 10.244 118.595 9.88 118.866H11V120.462H0.64V118.866H4.434ZM7.108 114.176C6.576 114.176 6.11867 114.288 5.736 114.512C5.344 114.726 5.05 115.016 4.854 115.38C4.64867 115.734 4.546 116.117 4.546 116.528C4.546 116.929 4.64867 117.312 4.854 117.676C5.05933 118.03 5.358 118.32 5.75 118.544C6.142 118.758 6.604 118.866 7.136 118.866C7.668 118.866 8.13467 118.758 8.536 118.544C8.928 118.32 9.22667 118.03 9.432 117.676C9.63733 117.312 9.74 116.929 9.74 116.528C9.74 116.117 9.63733 115.734 9.432 115.38C9.21733 115.016 8.90933 114.726 8.508 114.512C8.10667 114.288 7.64 114.176 7.108 114.176ZM11.126 107.627C11.126 108.355 10.9627 109.013 10.636 109.601C10.3 110.189 9.83333 110.651 9.236 110.987C8.62933 111.323 7.92933 111.491 7.136 111.491C6.352 111.491 5.65667 111.319 5.05 110.973C4.44333 110.628 3.97667 110.157 3.65 109.559C3.32333 108.962 3.16 108.295 3.16 107.557C3.16 106.82 3.32333 106.153 3.65 105.555C3.97667 104.958 4.44333 104.487 5.05 104.141C5.65667 103.796 6.352 103.623 7.136 103.623C7.92 103.623 8.61533 103.801 9.222 104.155C9.82867 104.51 10.3 104.995 10.636 105.611C10.9627 106.218 11.126 106.89 11.126 107.627ZM9.74 107.627C9.74 107.217 9.642 106.834 9.446 106.479C9.25 106.115 8.956 105.821 8.564 105.597C8.172 105.373 7.696 105.261 7.136 105.261C6.576 105.261 6.10467 105.369 5.722 105.583C5.33 105.798 5.036 106.083 4.84 106.437C4.644 106.792 4.546 107.175 4.546 107.585C4.546 107.996 4.644 108.379 4.84 108.733C5.036 109.079 5.33 109.354 5.722 109.559C6.10467 109.765 6.576 109.867 7.136 109.867C7.96667 109.867 8.61067 109.657 9.068 109.237C9.516 108.808 9.74 108.271 9.74 107.627ZM3.286 95.0597H11V96.6557H10.09C10.4073 96.9077 10.6593 97.239 10.846 97.6497C11.0233 98.051 11.112 98.4804 11.112 98.9377C11.112 99.5444 10.986 100.09 10.734 100.576C10.482 101.052 10.1087 101.43 9.614 101.71C9.11933 101.98 8.522 102.116 7.822 102.116H3.286V100.534H7.584C8.27467 100.534 8.80667 100.361 9.18 100.016C9.544 99.6704 9.726 99.199 9.726 98.6017C9.726 98.0044 9.544 97.533 9.18 97.1877C8.80667 96.833 8.27467 96.6557 7.584 96.6557H3.286V95.0597ZM4.588 91.0919H8.858C9.14733 91.0919 9.35733 91.0266 9.488 90.8959C9.60933 90.7559 9.67 90.5226 9.67 90.1959V89.2159H11V90.4759C11 91.1946 10.832 91.7452 10.496 92.1279C10.16 92.5106 9.614 92.7019 8.858 92.7019H4.588V93.6119H3.286V92.7019H1.368V91.0919H3.286V89.2159H4.588V91.0919ZM4.588 82.2462H8.858C9.14733 82.2462 9.35733 82.1809 9.488 82.0502C9.60933 81.9102 9.67 81.6769 9.67 81.3502V80.3702H11V81.6302C11 82.3489 10.832 82.8995 10.496 83.2822C10.16 83.6649 9.614 83.8562 8.858 83.8562H4.588V84.7662H3.286V83.8562H1.368V82.2462H3.286V80.3702H4.588V82.2462ZM3.16 74.9092C3.16 74.3212 3.286 73.7986 3.538 73.3412C3.79 72.8746 4.16333 72.5106 4.658 72.2492C5.15267 71.9786 5.75 71.8432 6.45 71.8432H11V73.4252H6.688C5.99733 73.4252 5.47 73.5979 5.106 73.9432C4.73267 74.2886 4.546 74.7599 4.546 75.3572C4.546 75.9546 4.73267 76.4306 5.106 76.7852C5.47 77.1306 5.99733 77.3032 6.688 77.3032H11V78.8992H0.64V77.3032H4.182C3.85533 77.0326 3.60333 76.6919 3.426 76.2812C3.24867 75.8612 3.16 75.4039 3.16 74.9092ZM6.954 62.7374C7.24333 62.7374 7.50467 62.7561 7.738 62.7934L7.738 68.6874C8.354 68.6408 8.84867 68.4121 9.222 68.0014C9.59533 67.5908 9.782 67.0868 9.782 66.4894C9.782 65.6308 9.42267 65.0241 8.704 64.6694V62.9474C9.41333 63.1808 9.99667 63.6054 10.454 64.2214C10.902 64.8281 11.126 65.5841 11.126 66.4894C11.126 67.2268 10.9627 67.8894 10.636 68.4774C10.3 69.0561 9.83333 69.5134 9.236 69.8494C8.62933 70.1761 7.92933 70.3394 7.136 70.3394C6.34267 70.3394 5.64733 70.1808 5.05 69.8634C4.44333 69.5368 3.97667 69.0841 3.65 68.5054C3.32333 67.9174 3.16 67.2454 3.16 66.4894C3.16 65.7614 3.31867 65.1128 3.636 64.5434C3.95333 63.9741 4.40133 63.5308 4.98 63.2134C5.54933 62.8961 6.20733 62.7374 6.954 62.7374ZM6.45 64.4034C5.862 64.4128 5.39067 64.6228 5.036 65.0334C4.68133 65.4441 4.504 65.9528 4.504 66.5594C4.504 67.1101 4.68133 67.5814 5.036 67.9734C5.38133 68.3654 5.85267 68.5988 6.45 68.6734L6.45 64.4034ZM7.136 58.0621C6.34267 58.0621 5.64733 57.9034 5.05 57.5861C4.44333 57.2594 3.97667 56.8114 3.65 56.2421C3.32333 55.6727 3.16 55.0194 3.16 54.2821C3.16 53.3487 3.384 52.5787 3.832 51.9721C4.27067 51.3561 4.90067 50.9407 5.722 50.7261V52.4481C5.33933 52.5881 5.04067 52.8121 4.826 53.1201C4.61133 53.4281 4.504 53.8154 4.504 54.2821C4.504 54.9354 4.73733 55.4581 5.204 55.8501C5.66133 56.2327 6.30533 56.4241 7.136 56.4241C7.96667 56.4241 8.61533 56.2327 9.082 55.8501C9.54867 55.4581 9.782 54.9354 9.782 54.2821C9.782 53.3581 9.376 52.7467 8.564 52.4481V50.7261C9.348 50.9501 9.97333 51.3701 10.44 51.9861C10.8973 52.6021 11.126 53.3674 11.126 54.2821C11.126 55.0194 10.9627 55.6727 10.636 56.2421C10.3 56.8114 9.83333 57.2594 9.236 57.5861C8.62933 57.9034 7.92933 58.0621 7.136 58.0621ZM4.406 47.5395C4.014 47.3062 3.71067 46.9982 3.496 46.6155C3.272 46.2235 3.16 45.7615 3.16 45.2295H4.812V45.6355C4.812 46.2609 4.97067 46.7369 5.288 47.0635C5.60533 47.3809 6.156 47.5395 6.94 47.5395H11V49.1355H3.286L3.286 47.5395H4.406ZM6.954 36.6925C7.24333 36.6925 7.50467 36.7112 7.738 36.7485L7.738 42.6425C8.354 42.5958 8.84867 42.3672 9.222 41.9565C9.59533 41.5458 9.782 41.0418 9.782 40.4445C9.782 39.5858 9.42267 38.9792 8.704 38.6245V36.9025C9.41333 37.1358 9.99667 37.5605 10.454 38.1765C10.902 38.7832 11.126 39.5392 11.126 40.4445C11.126 41.1818 10.9627 41.8445 10.636 42.4325C10.3 43.0112 9.83333 43.4685 9.236 43.8045C8.62933 44.1312 7.92933 44.2945 7.136 44.2945C6.34267 44.2945 5.64733 44.1358 5.05 43.8185C4.44333 43.4918 3.97667 43.0392 3.65 42.4605C3.32333 41.8725 3.16 41.2005 3.16 40.4445C3.16 39.7165 3.31867 39.0678 3.636 38.4985C3.95333 37.9292 4.40133 37.4858 4.98 37.1685C5.54933 36.8512 6.20733 36.6925 6.954 36.6925ZM6.45 38.3585C5.862 38.3678 5.39067 38.5778 5.036 38.9885C4.68133 39.3992 4.504 39.9078 4.504 40.5145C4.504 41.0652 4.68133 41.5365 5.036 41.9285C5.38133 42.3205 5.85267 42.5538 6.45 42.6285L6.45 38.3585ZM7.108 35.6539C6.33333 35.6539 5.64733 35.4952 5.05 35.1779C4.45267 34.8512 3.99067 34.4125 3.664 33.8619C3.328 33.3019 3.16 32.6859 3.16 32.0139C3.16 31.4072 3.28133 30.8799 3.524 30.4319C3.75733 29.9745 4.05133 29.6105 4.406 29.3399H3.286V27.7299H11V29.3399H9.852C10.216 29.6105 10.5193 29.9792 10.762 30.4459C11.0047 30.9125 11.126 31.4445 11.126 32.0419C11.126 32.7045 10.958 33.3112 10.622 33.8619C10.2767 34.4125 9.80067 34.8512 9.194 35.1779C8.578 35.4952 7.88267 35.6539 7.108 35.6539ZM7.136 29.3399C6.604 29.3399 6.142 29.4519 5.75 29.6759C5.358 29.8905 5.05933 30.1752 4.854 30.5299C4.64867 30.8845 4.546 31.2672 4.546 31.6779C4.546 32.0885 4.64867 32.4712 4.854 32.8259C5.05 33.1805 5.344 33.4699 5.736 33.6939C6.11867 33.9085 6.576 34.0159 7.108 34.0159C7.64 34.0159 8.10667 33.9085 8.508 33.6939C8.90933 33.4699 9.21733 33.1805 9.432 32.8259C9.63733 32.4619 9.74 32.0792 9.74 31.6779C9.74 31.2672 9.63733 30.8845 9.432 30.5299C9.22667 30.1752 8.928 29.8905 8.536 29.6759C8.13467 29.4519 7.668 29.3399 7.136 29.3399ZM4.588 23.7716H8.858C9.14733 23.7716 9.35733 23.7063 9.488 23.5756C9.60933 23.4356 9.67 23.2023 9.67 22.8756V21.8956H11V23.1556C11 23.8743 10.832 24.4249 10.496 24.8076C10.16 25.1903 9.614 25.3816 8.858 25.3816H4.588V26.2916H3.286V25.3816H1.368V23.7716H3.286L3.286 21.8956H4.588L4.588 23.7716ZM11.126 17.0786C11.126 17.8066 10.9627 18.4646 10.636 19.0526C10.3 19.6406 9.83333 20.1026 9.236 20.4386C8.62933 20.7746 7.92933 20.9426 7.136 20.9426C6.352 20.9426 5.65667 20.7699 5.05 20.4246C4.44333 20.0793 3.97667 19.6079 3.65 19.0106C3.32333 18.4133 3.16 17.7459 3.16 17.0086C3.16 16.2713 3.32333 15.6039 3.65 15.0066C3.97667 14.4093 4.44333 13.9379 5.05 13.5926C5.65667 13.2473 6.352 13.0746 7.136 13.0746C7.92 13.0746 8.61533 13.2519 9.222 13.6066C9.82867 13.9613 10.3 14.4466 10.636 15.0626C10.9627 15.6693 11.126 16.3413 11.126 17.0786ZM9.74 17.0786C9.74 16.6679 9.642 16.2853 9.446 15.9306C9.25 15.5666 8.956 15.2726 8.564 15.0486C8.172 14.8246 7.696 14.7126 7.136 14.7126C6.576 14.7126 6.10467 14.8199 5.722 15.0346C5.33 15.2493 5.036 15.5339 4.84 15.8886C4.644 16.2433 4.546 16.6259 4.546 17.0366C4.546 17.4473 4.644 17.8299 4.84 18.1846C5.036 18.5299 5.33 18.8053 5.722 19.0106C6.10467 19.2159 6.576 19.3186 7.136 19.3186C7.96667 19.3186 8.61067 19.1086 9.068 18.6886C9.516 18.2593 9.74 17.7226 9.74 17.0786ZM4.406 9.90087C4.014 9.66754 3.71067 9.35954 3.496 8.97687C3.272 8.58487 3.16 8.12287 3.16 7.59087H4.812V7.99687C4.812 8.62221 4.97067 9.09821 5.288 9.42487C5.60533 9.74221 6.156 9.90087 6.94 9.90087H11V11.4969H3.286V9.90087H4.406ZM11.126 3.32383C11.126 3.93049 11.0187 4.47649 10.804 4.96183C10.58 5.43783 10.2813 5.81583 9.908 6.09583C9.52533 6.37583 9.10067 6.52516 8.634 6.54383V4.89183C8.96067 4.86383 9.236 4.70983 9.46 4.42983C9.67467 4.14049 9.782 3.78116 9.782 3.35183C9.782 2.90383 9.698 2.55849 9.53 2.31583C9.35267 2.06383 9.12867 1.93783 8.858 1.93783C8.56867 1.93783 8.354 2.07783 8.214 2.35783C8.074 2.62849 7.92 3.06249 7.752 3.65983C7.59333 4.23849 7.43933 4.70983 7.29 5.07383C7.14067 5.43783 6.912 5.75516 6.604 6.02583C6.296 6.28716 5.89 6.41783 5.386 6.41783C4.97533 6.41783 4.602 6.29649 4.266 6.05383C3.92067 5.81116 3.65 5.46583 3.454 5.01783C3.258 4.56049 3.16 4.03783 3.16 3.44983C3.16 2.57249 3.384 1.86783 3.832 1.33583C4.27067 0.794494 4.87267 0.505161 5.638 0.467828V2.06383C5.29267 2.09183 5.01733 2.23183 4.812 2.48383C4.60667 2.73583 4.504 3.07649 4.504 3.50583C4.504 3.92583 4.58333 4.24783 4.742 4.47183C4.90067 4.69583 5.11067 4.80783 5.372 4.80783C5.57733 4.80783 5.75 4.73316 5.89 4.58383C6.03 4.43449 6.142 4.25249 6.226 4.03783C6.30067 3.82316 6.39867 3.50583 6.52 3.08583C6.66933 2.52583 6.82333 2.06849 6.982 1.71383C7.13133 1.34983 7.35533 1.03716 7.654 0.775828C7.95267 0.514495 8.34933 0.379161 8.844 0.369828C9.28267 0.369828 9.67467 0.491161 10.02 0.733828C10.3653 0.976495 10.636 1.32183 10.832 1.76983C11.028 2.20849 11.126 2.72649 11.126 3.32383Z" fill="#344F10" fill-opacity="0.5"/>
</svg>
