<svg width="12" height="20" viewBox="0 0 12 20" fill="black" xmlns="http://www.w3.org/2000/svg">
<path fill-rule="evenodd" clip-rule="evenodd" d="M9.17729 9.97953L0.965913 1.64363C0.615229 1.28763 0.615212 0.716059 0.965877 0.360037C1.30978 0.0108776 1.87162 0.00661659 2.22078 0.350521C2.22396 0.353651 2.22711 0.356804 2.23024 0.359982L10.4419 8.69572L10.4454 8.69222L11.7142 9.97984L11.7106 9.98355L11.7142 9.98726L10.4499 11.2715L10.4459 11.2674L2.19928 19.6392C1.85413 19.9896 1.29029 19.9938 0.939898 19.6487C0.936753 19.6456 0.933633 19.6425 0.930535 19.6393C0.57863 19.2822 0.578575 18.7087 0.930409 18.3516L9.17729 9.97953Z" fill="black"/>
</svg>
