<svg width="12" height="20" viewBox="0 0 12 20" fill="black" xmlns="http://www.w3.org/2000/svg">
<path fill-rule="evenodd" clip-rule="evenodd" d="M2.82271 10.0205L11.0341 18.3564C11.3848 18.7124 11.3848 19.2839 11.0341 19.64C10.6902 19.9891 10.1284 19.9934 9.77922 19.6495C9.77604 19.6463 9.77289 19.6432 9.76976 19.64L1.55809 11.3043L1.55464 11.3078L0.285767 10.0202L0.289421 10.0164L0.285767 10.0127L1.55008 8.72854L1.55408 8.7326L9.80072 0.360809C10.1459 0.010421 10.7097 0.00617485 11.0601 0.351325C11.0632 0.354422 11.0664 0.357542 11.0695 0.360686C11.4214 0.717791 11.4214 1.29126 11.0696 1.64843L2.82271 10.0205Z" fill="black"/>
</svg>
