<?xml version="1.0" encoding="utf-8"?>
<!-- Generator: Adobe Illustrator 24.1.1, SVG Export Plug-In . SVG Version: 6.00 Build 0)  -->
<svg version="1.1" id="Layer_1" xmlns="http://www.w3.org/2000/svg" xmlns:xlink="http://www.w3.org/1999/xlink" x="0px" y="0px"
	 viewBox="0 0 512 512" style="enable-background:new 0 0 520 512;" xml:space="preserve">
<g>
	<path d="M75,75C123.3,26.6,187.6,0,256,0s132.7,26.6,181,75c48.4,48.3,75,112.6,75,181s-26.6,132.7-75,181
		c-48.3,48.4-112.6,75-181,75s-132.7-26.6-181-75C26.6,388.7,0,324.4,0,256S26.6,123.3,75,75z M256,485.1
		c126.3,0,229.1-102.8,229.1-229.1S382.3,27,256,27S26.9,129.7,26.9,256S129.7,485.1,256,485.1z" fill="#344f10"/>
	<path d="M98.3,246.5l107.8-107.8c5.3-5.3,13.8-5.3,19.1,0s5.3,13.8,0,19.1l-84.8,84.8h277.4c7.4,0,13.5,6,13.5,13.5
		s-6,13.5-13.5,13.5H140.3l84.8,84.8c5.3,5.3,5.3,13.8,0,19.1c-2.6,2.6-6.1,3.9-9.5,3.9s-6.9-1.3-9.5-4L98.3,265.5
		C93,260.3,93,251.7,98.3,246.5L98.3,246.5z" fill="#344f10"/>
</g>
</svg>
