<svg width="100" height="85" viewBox="0 0 100 85" fill="none" xmlns="http://www.w3.org/2000/svg">
<path d="M75.876 14.4104L70.6841 18.1179C56.6753 -0.456073 49.088 -10.3675 24.9008 22.7522L41.8925 32.9477C44.3076 24.9759 46.3403 20.9144 51.3324 14.4104L56.9963 25.5328L51.3324 29.7037C58.1837 30.3523 61.853 30.4371 67.8521 29.7037C71.9186 24.8725 73.7951 21.6649 75.876 14.4104Z" stroke="#344F10"/>
<path d="M63.9289 76.3275L63.1438 69.9947C86.1423 66.5219 98.4681 64.5703 80.8819 27.5181L63.8262 37.6061C69.6821 43.5281 72.2833 47.2508 75.6215 54.7401L63.1477 54.4231L62.1802 47.4544C58.3461 53.1715 56.5235 56.3584 54.3102 61.9844C56.6191 67.8626 58.5443 71.0412 63.9289 76.3275Z" stroke="#344F10"/>
<path d="M11.3001 34.7997L17.2173 37.1833C9.10259 58.989 4.8326 70.7193 45.7531 73.2977L45.203 53.4841C37.1863 55.7362 32.6703 56.2071 24.5042 55.4965L30.8292 44.7367L37.3909 47.269C34.2515 41.1426 32.349 38.0027 28.5036 33.3385C22.2449 32.5085 18.5325 32.6517 11.3001 34.7997Z" stroke="#344F10"/>
</svg>
