<svg width="64" height="62" viewBox="0 0 64 62" fill="none" xmlns="http://www.w3.org/2000/svg">
<path d="M10.2427 54.3893H1V52.3554C1.51149 16.5771 39.707 20.2079 44.4004 36.5927C47.8675 36.3621 48.992 35.7224 50.0264 32.5249C52.5617 31.2453 54.116 31.2028 55.6524 32.5249C57.1111 28.2274 57.8383 26.2294 58.8672 23.8809H61.6802L58.8672 34.5588C67.2734 49.2543 61.1312 53.7119 55.6524 54.3893C51.8751 54.5464 48.4822 54.5373 44.4004 54.3893M10.2427 54.3893C8.96517 56.9697 8.89509 58.4202 10.2427 60.9995H31.541C37.1224 59.7302 39.9638 58.3471 44.4004 54.3893M10.2427 54.3893H44.4004" stroke="#344F10"/>
<path d="M9.84082 29.983L11.8501 23.3729M11.8501 23.3729L7.83154 12.1864M11.8501 23.3729L17.4761 25.4067L21.0928 19.8135M7.83154 12.1864L9.84082 5.06776M7.83154 12.1864L13.8594 9.64404M21.0928 19.8135V9.64404M21.0928 19.8135L26.3169 24.8983M21.0928 9.64404L25.1113 2.52539M21.0928 9.64404H27.1206" stroke="#344F10"/>
<path d="M54.045 39.6437L55.8533 42.4403M57.6617 45.2369L55.8533 42.4403M55.8533 42.4403L57.6617 39.6437M55.8533 42.4403L53.2412 45.2369M33.5503 38.1183H25.915V43.7115H33.5503V48.2878H15.0649V32.0166L34.354 33.0336L33.5503 38.1183Z" stroke="#344F10"/>
<path d="M50.0262 32.5252L51.3658 24.3896H54.0448V31.7013" stroke="#344F10"/>
<path d="M52.4374 16.7627C53.3266 15.0663 52.8718 14.1826 50.83 12.6949C50.1848 11.1102 50.7313 10.2203 52.4374 8.62712C53.0637 7.1773 52.6477 6.27111 50.83 4.55932C50.3924 2.77976 50.7354 2.01632 52.4374 1" stroke="#344F10"/>
<path d="M60.0731 17.2712C60.8052 15.4856 60.593 14.4838 58.4656 12.6949C58.022 11.5079 58.2128 10.6748 60.0731 8.62712C60.1468 7.03999 59.9791 6.15235 58.4656 4.55932C58.4038 2.7163 58.673 1.87971 60.0731 1" stroke="#344F10"/>
<path d="M28.3263 38.627V43.7117" stroke="#344F10"/>
<path d="M11.0464 39.6445L7.83154 46.2547" stroke="#344F10"/>
<path d="M39.0782 39.6446C39.0782 40.327 38.6591 40.67 38.3727 40.67C38.0863 40.67 37.6671 40.327 37.6671 39.6446C37.6671 38.9622 38.0863 38.6191 38.3727 38.6191C38.6591 38.6191 39.0782 38.9622 39.0782 39.6446Z" stroke="#344F10"/>
</svg>
