<svg width="90" height="90" viewBox="0 0 90 90" fill="none" xmlns="http://www.w3.org/2000/svg">
<g clip-path="url(#clip0)">
<path d="M14.1186 58.8767H62.6006M14.1186 58.8767H1V56.6849C1.72599 18.1294 55.939 22.042 62.6006 39.6986C67.5216 39.4501 69.1177 38.7608 70.5859 35.3151C74.1843 33.9362 76.3904 33.8904 78.5711 35.3151C80.6416 30.684 81.6737 28.5309 83.1342 26H87.1268L83.1342 37.5069C95.0655 53.3431 86.3475 58.1466 78.5711 58.8767C73.2099 59.046 68.3942 59.0362 62.6006 58.8767H14.1186ZM14.1186 58.8767C12.3054 61.6574 12.2059 63.2205 14.1186 66H44.3486C52.2706 64.6322 56.3034 63.1417 62.6006 58.8767H14.1186Z" stroke="#344F10"/>
<path d="M29.5625 9.77779H38M13.8125 32L16.625 24.7778L13.8125 32ZM16.625 24.7778L11 12.5556L16.625 24.7778ZM16.625 24.7778L24.5001 27L29.5625 20.8889L16.625 24.7778ZM11 12.5556L13.8125 4.77778L11 12.5556ZM11 12.5556L19.4376 9.77779L11 12.5556ZM29.5625 20.8889V9.77779V20.8889ZM29.5625 20.8889L36.8751 26.4445L29.5625 20.8889ZM29.5625 9.77779L35.1875 2L29.5625 9.77779Z" stroke="#344F10"/>
<path d="M76.8208 42.4375L79.4104 45.5312L76.8208 42.4375ZM82 48.6249L79.4104 45.5312L82 48.6249ZM79.4104 45.5312L82 42.4375L79.4104 45.5312ZM79.4104 45.5312L75.6698 48.6249L79.4104 45.5312ZM47.4717 40.75H36.5378V46.9375H47.4717V52H21V34L48.6226 35.1249L47.4717 40.75Z" stroke="#344F10"/>
<path d="M71 34L72.6667 26H76V33.1898" stroke="#344F10"/>
<path d="M74.2482 18C75.7928 16.0628 75.0027 15.0537 71.4561 13.3548C70.3356 11.5452 71.2847 10.529 74.2482 8.70969C75.3362 7.05408 74.6134 6.01927 71.4561 4.06452C70.6961 2.03237 71.2919 1.16057 74.2482 0" stroke="#344F10"/>
<path d="M85.4774 18C86.4805 16.0247 86.1898 14.9164 83.275 12.9375C82.6672 11.6244 82.9287 10.7027 85.4774 8.43749C85.5784 6.68173 85.3487 5.69978 83.275 3.93749C83.1903 1.89866 83.5592 0.973178 85.4774 0" stroke="#344F10"/>
<path d="M39 41V47" stroke="#344F10"/>
<path d="M15 42L11 50" stroke="#344F10"/>
<path d="M55 42C55 42.5433 54.561 43 54 43C53.4389 43 53 42.5433 53 42C53 41.4566 53.4389 41 54 41C54.561 41 55 41.4566 55 42Z" stroke="#344F10"/>
</g>
<defs>
<clipPath id="clip0">
<rect width="90" height="90" fill="white"/>
</clipPath>
</defs>
</svg>
