<svg width="180" height="67" viewBox="0 0 180 67" fill="none" xmlns="http://www.w3.org/2000/svg">
<path d="M45.4849 55.416C45.4849 54.328 45.7302 53.352 46.2209 52.488C46.7115 51.6133 47.3782 50.9307 48.2209 50.44C49.0742 49.9493 50.0182 49.704 51.0529 49.704C52.2689 49.704 53.3302 49.9973 54.2369 50.584C55.1435 51.1707 55.8049 52.0027 56.2209 53.08H54.4769C54.1675 52.408 53.7195 51.8907 53.1329 51.528C52.5569 51.1653 51.8635 50.984 51.0529 50.984C50.2742 50.984 49.5755 51.1653 48.9569 51.528C48.3382 51.8907 47.8529 52.408 47.5009 53.08C47.1489 53.7413 46.9729 54.52 46.9729 55.416C46.9729 56.3013 47.1489 57.08 47.5009 57.752C47.8529 58.4133 48.3382 58.9253 48.9569 59.288C49.5755 59.6507 50.2742 59.832 51.0529 59.832C51.8635 59.832 52.5569 59.656 53.1329 59.304C53.7195 58.9413 54.1675 58.424 54.4769 57.752H56.2209C55.8049 58.8187 55.1435 59.6453 54.2369 60.232C53.3302 60.808 52.2689 61.096 51.0529 61.096C50.0182 61.096 49.0742 60.856 48.2209 60.376C47.3782 59.8853 46.7115 59.208 46.2209 58.344C45.7302 57.48 45.4849 56.504 45.4849 55.416ZM59.8443 53.656C60.1003 53.1547 60.4629 52.7653 60.9323 52.488C61.4123 52.2107 61.9936 52.072 62.6763 52.072V53.576H62.2923C60.6603 53.576 59.8443 54.4613 59.8443 56.232V61H58.3883V52.232H59.8443V53.656ZM72.357 56.28C72.357 56.5573 72.341 56.8507 72.309 57.16H65.301C65.3543 58.024 65.6477 58.7013 66.181 59.192C66.725 59.672 67.381 59.912 68.149 59.912C68.7783 59.912 69.301 59.768 69.717 59.48C70.1437 59.1813 70.4423 58.7867 70.613 58.296H72.181C71.9463 59.1387 71.477 59.8267 70.773 60.36C70.069 60.8827 69.1943 61.144 68.149 61.144C67.317 61.144 66.5703 60.9573 65.909 60.584C65.2583 60.2107 64.7463 59.6827 64.373 59C63.9997 58.3067 63.813 57.5067 63.813 56.6C63.813 55.6933 63.9943 54.8987 64.357 54.216C64.7197 53.5333 65.2263 53.0107 65.877 52.648C66.5383 52.2747 67.2957 52.088 68.149 52.088C68.981 52.088 69.717 52.2693 70.357 52.632C70.997 52.9947 71.4877 53.496 71.829 54.136C72.181 54.7653 72.357 55.48 72.357 56.28ZM70.853 55.976C70.853 55.4213 70.7303 54.9467 70.485 54.552C70.2397 54.1467 69.9037 53.8427 69.477 53.64C69.061 53.4267 68.597 53.32 68.085 53.32C67.349 53.32 66.7197 53.5547 66.197 54.024C65.685 54.4933 65.3917 55.144 65.317 55.976H70.853ZM73.7349 56.584C73.7349 55.688 73.9162 54.904 74.2789 54.232C74.6415 53.5493 75.1375 53.0213 75.7669 52.648C76.4069 52.2747 77.1215 52.088 77.9109 52.088C78.5935 52.088 79.2282 52.248 79.8149 52.568C80.4015 52.8773 80.8495 53.288 81.1589 53.8V49.16H82.6309V61H81.1589V59.352C80.8709 59.8747 80.4442 60.3067 79.8789 60.648C79.3135 60.9787 78.6522 61.144 77.8949 61.144C77.1162 61.144 76.4069 60.952 75.7669 60.568C75.1375 60.184 74.6415 59.6453 74.2789 58.952C73.9162 58.2587 73.7349 57.4693 73.7349 56.584ZM81.1589 56.6C81.1589 55.9387 81.0255 55.3627 80.7589 54.872C80.4922 54.3813 80.1295 54.008 79.6709 53.752C79.2229 53.4853 78.7269 53.352 78.1829 53.352C77.6389 53.352 77.1429 53.48 76.6949 53.736C76.2469 53.992 75.8895 54.3653 75.6229 54.856C75.3562 55.3467 75.2229 55.9227 75.2229 56.584C75.2229 57.256 75.3562 57.8427 75.6229 58.344C75.8895 58.8347 76.2469 59.2133 76.6949 59.48C77.1429 59.736 77.6389 59.864 78.1829 59.864C78.7269 59.864 79.2229 59.736 79.6709 59.48C80.1295 59.2133 80.4922 58.8347 80.7589 58.344C81.0255 57.8427 81.1589 57.2613 81.1589 56.6ZM85.8434 50.808C85.566 50.808 85.3314 50.712 85.1394 50.52C84.9474 50.328 84.8514 50.0933 84.8514 49.816C84.8514 49.5387 84.9474 49.304 85.1394 49.112C85.3314 48.92 85.566 48.824 85.8434 48.824C86.11 48.824 86.334 48.92 86.5154 49.112C86.7074 49.304 86.8034 49.5387 86.8034 49.816C86.8034 50.0933 86.7074 50.328 86.5154 50.52C86.334 50.712 86.11 50.808 85.8434 50.808ZM86.5474 52.232V61H85.0914V52.232H86.5474ZM90.8049 53.432V58.6C90.8049 59.0267 90.8955 59.3307 91.0769 59.512C91.2582 59.6827 91.5729 59.768 92.0209 59.768H93.0929V61H91.7809C90.9702 61 90.3622 60.8133 89.9569 60.44C89.5515 60.0667 89.3489 59.4533 89.3489 58.6V53.432H88.2129V52.232H89.3489V50.024H90.8049V52.232H93.0929V53.432H90.8049ZM98.5786 56.6C98.5786 55.6933 98.76 54.904 99.1226 54.232C99.4853 53.5493 99.9866 53.0213 100.627 52.648C101.277 52.2747 102.019 52.088 102.851 52.088C103.928 52.088 104.813 52.3493 105.507 52.872C106.211 53.3947 106.675 54.12 106.899 55.048H105.331C105.181 54.5147 104.888 54.0933 104.451 53.784C104.024 53.4747 103.491 53.32 102.851 53.32C102.019 53.32 101.347 53.608 100.835 54.184C100.323 54.7493 100.067 55.5547 100.067 56.6C100.067 57.656 100.323 58.472 100.835 59.048C101.347 59.624 102.019 59.912 102.851 59.912C103.491 59.912 104.024 59.7627 104.451 59.464C104.877 59.1653 105.171 58.7387 105.331 58.184H106.899C106.664 59.08 106.195 59.8 105.491 60.344C104.787 60.8773 103.907 61.144 102.851 61.144C102.019 61.144 101.277 60.9573 100.627 60.584C99.9866 60.2107 99.4853 59.6827 99.1226 59C98.76 58.3173 98.5786 57.5173 98.5786 56.6ZM108.297 56.584C108.297 55.688 108.479 54.904 108.841 54.232C109.204 53.5493 109.7 53.0213 110.329 52.648C110.969 52.2747 111.679 52.088 112.457 52.088C113.225 52.088 113.892 52.2533 114.457 52.584C115.023 52.9147 115.444 53.3307 115.721 53.832V52.232H117.193V61H115.721V59.368C115.433 59.88 115.001 60.3067 114.425 60.648C113.86 60.9787 113.199 61.144 112.441 61.144C111.663 61.144 110.959 60.952 110.329 60.568C109.7 60.184 109.204 59.6453 108.841 58.952C108.479 58.2587 108.297 57.4693 108.297 56.584ZM115.721 56.6C115.721 55.9387 115.588 55.3627 115.321 54.872C115.055 54.3813 114.692 54.008 114.233 53.752C113.785 53.4853 113.289 53.352 112.745 53.352C112.201 53.352 111.705 53.48 111.257 53.736C110.809 53.992 110.452 54.3653 110.185 54.856C109.919 55.3467 109.785 55.9227 109.785 56.584C109.785 57.256 109.919 57.8427 110.185 58.344C110.452 58.8347 110.809 59.2133 111.257 59.48C111.705 59.736 112.201 59.864 112.745 59.864C113.289 59.864 113.785 59.736 114.233 59.48C114.692 59.2133 115.055 58.8347 115.321 58.344C115.588 57.8427 115.721 57.2613 115.721 56.6ZM121.11 53.656C121.366 53.1547 121.729 52.7653 122.198 52.488C122.678 52.2107 123.259 52.072 123.942 52.072V53.576H123.558C121.926 53.576 121.11 54.4613 121.11 56.232V61H119.654V52.232H121.11V53.656ZM125.079 56.584C125.079 55.688 125.26 54.904 125.623 54.232C125.985 53.5493 126.481 53.0213 127.111 52.648C127.751 52.2747 128.465 52.088 129.255 52.088C129.937 52.088 130.572 52.248 131.159 52.568C131.745 52.8773 132.193 53.288 132.503 53.8V49.16H133.975V61H132.503V59.352C132.215 59.8747 131.788 60.3067 131.223 60.648C130.657 60.9787 129.996 61.144 129.239 61.144C128.46 61.144 127.751 60.952 127.111 60.568C126.481 60.184 125.985 59.6453 125.623 58.952C125.26 58.2587 125.079 57.4693 125.079 56.584ZM132.503 56.6C132.503 55.9387 132.369 55.3627 132.103 54.872C131.836 54.3813 131.473 54.008 131.015 53.752C130.567 53.4853 130.071 53.352 129.527 53.352C128.983 53.352 128.487 53.48 128.039 53.736C127.591 53.992 127.233 54.3653 126.967 54.856C126.7 55.3467 126.567 55.9227 126.567 56.584C126.567 57.256 126.7 57.8427 126.967 58.344C127.233 58.8347 127.591 59.2133 128.039 59.48C128.487 59.736 128.983 59.864 129.527 59.864C130.071 59.864 130.567 59.736 131.015 59.48C131.473 59.2133 131.836 58.8347 132.103 58.344C132.369 57.8427 132.503 57.2613 132.503 56.6Z" fill="#333333"/>
<path fill-rule="evenodd" clip-rule="evenodd" d="M114 1H65C63.8954 1 63 1.89543 63 3V28C63 29.1046 63.8954 30 65 30H114C115.105 30 116 29.1046 116 28V3C116 1.89543 115.105 1 114 1ZM65 0C63.3431 0 62 1.34315 62 3V28C62 29.6569 63.3431 31 65 31H114C115.657 31 117 29.6569 117 28V3C117 1.34315 115.657 0 114 0H65ZM75 6H70C68.8954 6 68 6.89543 68 8V10C68 11.1046 68.8954 12 70 12H75C76.1046 12 77 11.1046 77 10V8C77 6.89543 76.1046 6 75 6ZM70 5C68.3431 5 67 6.34315 67 8V10C67 11.6569 68.3431 13 70 13H75C76.6569 13 78 11.6569 78 10V8C78 6.34315 76.6569 5 75 5H70ZM68 17H110V19H68L68 17ZM67 17C67 16.4477 67.4477 16 68 16H110C110.552 16 111 16.4477 111 17V19C111 19.5523 110.552 20 110 20H68C67.4477 20 67 19.5523 67 19V17ZM110 22H105V24H110V22ZM105 21C104.448 21 104 21.4477 104 22V24C104 24.5523 104.448 25 105 25H110C110.552 25 111 24.5523 111 24V22C111 21.4477 110.552 21 110 21H105ZM68 24H81V26H68V24ZM67 24C67 23.4477 67.4477 23 68 23H81C81.5523 23 82 23.4477 82 24V26C82 26.5523 81.5523 27 81 27H68C67.4477 27 67 26.5523 67 26V24Z" fill="#333333"/>
</svg>
