<svg width="18" height="132" viewBox="0 0 18 132" fill="none" xmlns="http://www.w3.org/2000/svg">
<path d="M10.318 28.868V32.942H14V34.02H5.656V32.942H9.296V28.868H5.656L5.656 27.79H14V28.868H10.318ZM5.656 25.1305V20.1045H6.664V24.0525H9.31L9.31 20.1045H10.318L10.318 24.0525H12.978L12.978 20.1045H14L14 25.1305H5.656ZM5.656 17.6356V16.5576H12.964V13.0156H14V17.6356H5.656ZM5.656 10.6739V7.98591C5.656 7.53791 5.73067 7.13191 5.88 6.76791C6.02933 6.39457 6.23467 6.07724 6.496 5.81591C6.75733 5.54524 7.06533 5.33524 7.42 5.18591C7.77467 5.03657 8.15267 4.96191 8.554 4.96191C8.96467 4.96191 9.34733 5.03657 9.702 5.18591C10.0567 5.33524 10.3647 5.54524 10.626 5.81591C10.8873 6.07724 11.0927 6.39457 11.242 6.76791C11.3913 7.14124 11.466 7.55191 11.466 7.99991V9.59591H14V10.6739H5.656ZM6.664 9.59591H10.444V8.06991C10.444 7.76191 10.3973 7.48657 10.304 7.24391C10.2013 6.99191 10.066 6.78191 9.898 6.61391C9.73 6.43657 9.534 6.30124 9.31 6.20791C9.07667 6.11457 8.82467 6.06791 8.554 6.06791C8.29267 6.06791 8.04533 6.11457 7.812 6.20791C7.57867 6.30124 7.378 6.43657 7.21 6.61391C7.042 6.78191 6.91133 6.99191 6.818 7.24391C6.71533 7.48657 6.664 7.76191 6.664 8.06991V9.59591Z" fill="#344F10" fill-opacity="0.5"/>
<rect x="8" y="43.9229" width="1" height="88.0769" fill="#344F10" fill-opacity="0.5"/>
</svg>
