<svg width="90" height="19" viewBox="0 0 90 19" fill="none" xmlns="http://www.w3.org/2000/svg">
<path d="M0.666 7.718C0.666 6.494 0.948 5.396 1.512 4.424C2.088 3.452 2.862 2.696 3.834 2.156C4.818 1.604 5.892 1.328 7.056 1.328C8.388 1.328 9.57 1.658 10.602 2.318C11.646 2.966 12.402 3.89 12.87 5.09H10.404C10.08 4.43 9.63 3.938 9.054 3.614C8.478 3.29 7.812 3.128 7.056 3.128C6.228 3.128 5.49 3.314 4.842 3.686C4.194 4.058 3.684 4.592 3.312 5.288C2.952 5.984 2.772 6.794 2.772 7.718C2.772 8.642 2.952 9.452 3.312 10.148C3.684 10.844 4.194 11.384 4.842 11.768C5.49 12.14 6.228 12.326 7.056 12.326C7.812 12.326 8.478 12.164 9.054 11.84C9.63 11.516 10.08 11.024 10.404 10.364H12.87C12.402 11.564 11.646 12.488 10.602 13.136C9.57 13.784 8.388 14.108 7.056 14.108C5.88 14.108 4.806 13.838 3.834 13.298C2.862 12.746 2.088 11.984 1.512 11.012C0.948 10.04 0.666 8.942 0.666 7.718ZM19.5739 14.162C18.6379 14.162 17.7919 13.952 17.0359 13.532C16.2799 13.1 15.6859 12.5 15.2539 11.732C14.8219 10.952 14.6059 10.052 14.6059 9.032C14.6059 8.024 14.8279 7.13 15.2719 6.35C15.7159 5.57 16.3219 4.97 17.0899 4.55C17.8579 4.13 18.7159 3.92 19.6639 3.92C20.6119 3.92 21.4699 4.13 22.2379 4.55C23.0059 4.97 23.6119 5.57 24.0559 6.35C24.4999 7.13 24.7219 8.024 24.7219 9.032C24.7219 10.04 24.4939 10.934 24.0379 11.714C23.5819 12.494 22.9579 13.1 22.1659 13.532C21.3859 13.952 20.5219 14.162 19.5739 14.162ZM19.5739 12.38C20.1019 12.38 20.5939 12.254 21.0499 12.002C21.5179 11.75 21.8959 11.372 22.1839 10.868C22.4719 10.364 22.6159 9.752 22.6159 9.032C22.6159 8.312 22.4779 7.706 22.2019 7.214C21.9259 6.71 21.5599 6.332 21.1039 6.08C20.6479 5.828 20.1559 5.702 19.6279 5.702C19.0999 5.702 18.6079 5.828 18.1519 6.08C17.7079 6.332 17.3539 6.71 17.0899 7.214C16.8259 7.706 16.6939 8.312 16.6939 9.032C16.6939 10.1 16.9639 10.928 17.5039 11.516C18.0559 12.092 18.7459 12.38 19.5739 12.38ZM28.8024 5.54C29.1504 5.084 29.6244 4.7 30.2244 4.388C30.8244 4.076 31.5024 3.92 32.2584 3.92C33.1224 3.92 33.9084 4.136 34.6164 4.568C35.3364 4.988 35.9004 5.582 36.3084 6.35C36.7164 7.118 36.9204 8 36.9204 8.996C36.9204 9.992 36.7164 10.886 36.3084 11.678C35.9004 12.458 35.3364 13.07 34.6164 13.514C33.9084 13.946 33.1224 14.162 32.2584 14.162C31.5024 14.162 30.8304 14.012 30.2424 13.712C29.6544 13.4 29.1744 13.016 28.8024 12.56V18.716H26.7504V4.082H28.8024V5.54ZM34.8324 8.996C34.8324 8.312 34.6884 7.724 34.4004 7.232C34.1244 6.728 33.7524 6.35 33.2844 6.098C32.8284 5.834 32.3364 5.702 31.8084 5.702C31.2924 5.702 30.8004 5.834 30.3324 6.098C29.8764 6.362 29.5044 6.746 29.2164 7.25C28.9404 7.754 28.8024 8.348 28.8024 9.032C28.8024 9.716 28.9404 10.316 29.2164 10.832C29.5044 11.336 29.8764 11.72 30.3324 11.984C30.8004 12.248 31.2924 12.38 31.8084 12.38C32.3364 12.38 32.8284 12.248 33.2844 11.984C33.7524 11.708 34.1244 11.312 34.4004 10.796C34.6884 10.28 34.8324 9.68 34.8324 8.996ZM47.8776 4.082L41.7936 18.662H39.6696L41.6856 13.838L37.7796 4.082H40.0656L42.8556 11.642L45.7536 4.082H47.8776ZM51.4782 5.522C51.7782 5.018 52.1742 4.628 52.6662 4.352C53.1702 4.064 53.7642 3.92 54.4482 3.92V6.044H53.9262C53.1222 6.044 52.5102 6.248 52.0902 6.656C51.6822 7.064 51.4782 7.772 51.4782 8.78V14H49.4262V4.082H51.4782V5.522ZM57.3784 2.768C57.0064 2.768 56.6944 2.642 56.4424 2.39C56.1904 2.138 56.0644 1.826 56.0644 1.454C56.0644 1.082 56.1904 0.769999 56.4424 0.518C56.6944 0.265999 57.0064 0.139999 57.3784 0.139999C57.7384 0.139999 58.0444 0.265999 58.2964 0.518C58.5484 0.769999 58.6744 1.082 58.6744 1.454C58.6744 1.826 58.5484 2.138 58.2964 2.39C58.0444 2.642 57.7384 2.768 57.3784 2.768ZM58.3864 4.082V14H56.3344V4.082H58.3864ZM65.0765 3.92C65.8445 3.92 66.5225 4.076 67.1105 4.388C67.7105 4.688 68.1785 5.066 68.5145 5.522V4.082H70.5845V14.162C70.5845 15.074 70.3925 15.884 70.0085 16.592C69.6245 17.312 69.0665 17.876 68.3345 18.284C67.6145 18.692 66.7505 18.896 65.7425 18.896C64.3985 18.896 63.2825 18.578 62.3945 17.942C61.5065 17.318 61.0025 16.466 60.8825 15.386H62.9165C63.0725 15.902 63.4025 16.316 63.9065 16.628C64.4225 16.952 65.0345 17.114 65.7425 17.114C66.5705 17.114 67.2365 16.862 67.7405 16.358C68.2565 15.854 68.5145 15.122 68.5145 14.162V12.506C68.1665 12.974 67.6925 13.37 67.0925 13.694C66.5045 14.006 65.8325 14.162 65.0765 14.162C64.2125 14.162 63.4205 13.946 62.7005 13.514C61.9925 13.07 61.4285 12.458 61.0085 11.678C60.6005 10.886 60.3965 9.992 60.3965 8.996C60.3965 8 60.6005 7.118 61.0085 6.35C61.4285 5.582 61.9925 4.988 62.7005 4.568C63.4205 4.136 64.2125 3.92 65.0765 3.92ZM68.5145 9.032C68.5145 8.348 68.3705 7.754 68.0825 7.25C67.8065 6.746 67.4405 6.362 66.9845 6.098C66.5285 5.834 66.0365 5.702 65.5085 5.702C64.9805 5.702 64.4885 5.834 64.0325 6.098C63.5765 6.35 63.2045 6.728 62.9165 7.232C62.6405 7.724 62.5025 8.312 62.5025 8.996C62.5025 9.68 62.6405 10.28 62.9165 10.796C63.2045 11.312 63.5765 11.708 64.0325 11.984C64.5005 12.248 64.9925 12.38 65.5085 12.38C66.0365 12.38 66.5285 12.248 66.9845 11.984C67.4405 11.72 67.8065 11.336 68.0825 10.832C68.3705 10.316 68.5145 9.716 68.5145 9.032ZM78.4097 3.92C79.1657 3.92 79.8377 4.082 80.4257 4.406C81.0257 4.73 81.4937 5.21 81.8297 5.846C82.1777 6.482 82.3517 7.25 82.3517 8.15V14H80.3177V8.456C80.3177 7.568 80.0957 6.89 79.6517 6.422C79.2077 5.942 78.6017 5.702 77.8337 5.702C77.0657 5.702 76.4537 5.942 75.9977 6.422C75.5537 6.89 75.3317 7.568 75.3317 8.456V14H73.2797V0.68H75.3317V5.234C75.6797 4.814 76.1177 4.49 76.6457 4.262C77.1857 4.034 77.7737 3.92 78.4097 3.92ZM87.3631 5.756V11.246C87.3631 11.618 87.4471 11.888 87.6151 12.056C87.7951 12.212 88.0951 12.29 88.5151 12.29H89.7751V14H88.1551C87.2311 14 86.5231 13.784 86.0311 13.352C85.5391 12.92 85.2931 12.218 85.2931 11.246V5.756H84.1231V4.082H85.2931V1.616H87.3631V4.082H89.7751V5.756H87.3631Z" fill="#E4DFD3"/>
</svg>
