<svg width="376" height="23" viewBox="0 0 376 23" fill="none" xmlns="http://www.w3.org/2000/svg">
<path d="M7.65 18.18C6.714 18.18 5.838 18.006 5.022 17.658C4.206 17.298 3.492 16.812 2.88 16.2C2.268 15.588 1.782 14.874 1.422 14.058C1.074 13.242 0.9 12.366 0.9 11.43C0.9 10.494 1.074 9.618 1.422 8.802C1.782 7.986 2.268 7.272 2.88 6.66C3.492 6.048 4.206 5.568 5.022 5.22C5.838 4.86 6.714 4.68 7.65 4.68C8.406 4.68 9.126 4.8 9.81 5.04C10.494 5.268 11.118 5.592 11.682 6.012C12.258 6.432 12.75 6.936 13.158 7.524C13.578 8.1 13.89 8.736 14.094 9.432H12.582C12.39 8.928 12.132 8.472 11.808 8.064C11.484 7.644 11.112 7.284 10.692 6.984C10.272 6.672 9.804 6.432 9.288 6.264C8.772 6.096 8.226 6.012 7.65 6.012C6.894 6.012 6.192 6.156 5.544 6.444C4.896 6.732 4.332 7.122 3.852 7.614C3.384 8.106 3.012 8.682 2.736 9.342C2.472 9.99 2.34 10.686 2.34 11.43C2.34 12.174 2.472 12.876 2.736 13.536C3.012 14.184 3.384 14.754 3.852 15.246C4.332 15.738 4.896 16.128 5.544 16.416C6.192 16.704 6.894 16.848 7.65 16.848C8.226 16.848 8.766 16.77 9.27 16.614C9.774 16.446 10.236 16.212 10.656 15.912C11.076 15.612 11.442 15.264 11.754 14.868C12.078 14.46 12.342 14.01 12.546 13.518H14.076C13.86 14.202 13.542 14.832 13.122 15.408C12.702 15.972 12.21 16.464 11.646 16.884C11.094 17.292 10.476 17.61 9.792 17.838C9.108 18.066 8.394 18.18 7.65 18.18ZM20.6436 18.18C19.9956 18.18 19.3896 18.06 18.8256 17.82C18.2616 17.58 17.7636 17.25 17.3316 16.83C16.9116 16.41 16.5816 15.918 16.3416 15.354C16.1016 14.778 15.9816 14.16 15.9816 13.5C15.9816 12.84 16.1016 12.228 16.3416 11.664C16.5816 11.088 16.9116 10.59 17.3316 10.17C17.7636 9.75 18.2616 9.42 18.8256 9.18C19.3896 8.94 19.9956 8.82 20.6436 8.82C21.2916 8.82 21.8976 8.94 22.4616 9.18C23.0376 9.42 23.5356 9.75 23.9556 10.17C24.3756 10.59 24.7056 11.088 24.9456 11.664C25.1976 12.228 25.3236 12.84 25.3236 13.5C25.3236 14.16 25.1976 14.778 24.9456 15.354C24.7056 15.918 24.3756 16.41 23.9556 16.83C23.5356 17.25 23.0376 17.58 22.4616 17.82C21.8976 18.06 21.2916 18.18 20.6436 18.18ZM20.6436 16.92C21.0996 16.92 21.5256 16.83 21.9216 16.65C22.3296 16.47 22.6776 16.23 22.9656 15.93C23.2656 15.618 23.4996 15.252 23.6676 14.832C23.8356 14.412 23.9196 13.968 23.9196 13.5C23.9196 13.032 23.8356 12.588 23.6676 12.168C23.4996 11.748 23.2656 11.388 22.9656 11.088C22.6776 10.776 22.3296 10.53 21.9216 10.35C21.5256 10.17 21.0996 10.08 20.6436 10.08C20.1876 10.08 19.7616 10.17 19.3656 10.35C18.9696 10.53 18.6216 10.776 18.3216 11.088C18.0336 11.388 17.8056 11.748 17.6376 12.168C17.4696 12.588 17.3856 13.032 17.3856 13.5C17.3856 13.968 17.4696 14.412 17.6376 14.832C17.8056 15.252 18.0336 15.618 18.3216 15.93C18.6216 16.23 18.9696 16.47 19.3656 16.65C19.7616 16.83 20.1876 16.92 20.6436 16.92ZM32.059 18.18C31.423 18.18 30.805 18.054 30.205 17.802C29.617 17.55 29.137 17.16 28.765 16.632V22.14H27.415V9H28.747V10.476C28.939 10.212 29.161 9.978 29.413 9.774C29.677 9.57 29.953 9.396 30.241 9.252C30.541 9.108 30.847 9 31.159 8.928C31.471 8.856 31.771 8.82 32.059 8.82C32.731 8.82 33.349 8.946 33.913 9.198C34.477 9.438 34.963 9.774 35.371 10.206C35.779 10.626 36.097 11.118 36.325 11.682C36.553 12.246 36.667 12.852 36.667 13.5C36.667 14.148 36.547 14.754 36.307 15.318C36.079 15.882 35.761 16.38 35.353 16.812C34.945 17.232 34.459 17.568 33.895 17.82C33.331 18.06 32.719 18.18 32.059 18.18ZM31.987 16.92C32.443 16.92 32.869 16.83 33.265 16.65C33.673 16.47 34.021 16.23 34.309 15.93C34.609 15.618 34.843 15.252 35.011 14.832C35.179 14.412 35.263 13.968 35.263 13.5C35.263 13.032 35.179 12.588 35.011 12.168C34.843 11.748 34.609 11.388 34.309 11.088C34.021 10.776 33.673 10.53 33.265 10.35C32.869 10.17 32.443 10.08 31.987 10.08C31.507 10.08 31.057 10.17 30.637 10.35C30.229 10.53 29.875 10.776 29.575 11.088C29.275 11.4 29.041 11.766 28.873 12.186C28.705 12.594 28.621 13.032 28.621 13.5C28.621 13.968 28.705 14.412 28.873 14.832C29.041 15.252 29.275 15.618 29.575 15.93C29.875 16.23 30.229 16.47 30.637 16.65C31.057 16.83 31.507 16.92 31.987 16.92ZM41.4124 17.478L37.5244 9H39.0544L42.1504 15.876L45.0124 9H46.5244L40.8544 22.158H39.3784L41.4124 17.478ZM48.2626 9H49.6486V10.296C49.8886 9.876 50.2186 9.558 50.6386 9.342C51.0706 9.114 51.5746 9 52.1506 9H53.2666V10.296H52.1506C51.2386 10.296 50.5966 10.542 50.2246 11.034C49.8526 11.514 49.6666 12.282 49.6666 13.338V18H48.2626V9ZM55.2587 9H56.6627V18H55.2587V9ZM54.8627 6.03C54.8627 5.718 54.9647 5.46 55.1687 5.256C55.3847 5.04 55.6487 4.932 55.9607 4.932C56.2847 4.932 56.5487 5.04 56.7527 5.256C56.9687 5.46 57.0767 5.718 57.0767 6.03C57.0767 6.342 56.9687 6.606 56.7527 6.822C56.5487 7.038 56.2847 7.146 55.9607 7.146C55.6367 7.146 55.3727 7.038 55.1687 6.822C54.9647 6.606 54.8627 6.342 54.8627 6.03ZM63.3392 18.18C62.6792 18.18 62.0672 18.06 61.5032 17.82C60.9392 17.568 60.4532 17.232 60.0452 16.812C59.6372 16.38 59.3132 15.882 59.0732 15.318C58.8452 14.754 58.7312 14.148 58.7312 13.5C58.7312 12.852 58.8452 12.246 59.0732 11.682C59.3012 11.118 59.6192 10.626 60.0272 10.206C60.4352 9.774 60.9212 9.438 61.4852 9.198C62.0492 8.946 62.6672 8.82 63.3392 8.82C63.6272 8.82 63.9212 8.856 64.2212 8.928C64.5332 9 64.8332 9.108 65.1212 9.252C65.4212 9.396 65.7032 9.57 65.9672 9.774C66.2312 9.978 66.4592 10.212 66.6512 10.476V9H68.0372V17.838C68.0372 18.522 67.9292 19.14 67.7132 19.692C67.4972 20.256 67.1972 20.736 66.8132 21.132C66.4292 21.54 65.9612 21.852 65.4092 22.068C64.8692 22.284 64.2692 22.392 63.6092 22.392C62.9732 22.392 62.4092 22.308 61.9172 22.14C61.4252 21.972 60.9992 21.738 60.6392 21.438C60.2792 21.138 59.9792 20.778 59.7392 20.358C59.4992 19.938 59.3192 19.482 59.1992 18.99H60.7112C60.8072 19.302 60.9332 19.59 61.0892 19.854C61.2452 20.118 61.4372 20.346 61.6652 20.538C61.9052 20.73 62.1812 20.88 62.4932 20.988C62.8172 21.096 63.1952 21.15 63.6272 21.15C64.0952 21.15 64.5152 21.066 64.8872 20.898C65.2592 20.73 65.5772 20.502 65.8412 20.214C66.1052 19.926 66.3092 19.578 66.4532 19.17C66.5972 18.774 66.6692 18.342 66.6692 17.874V16.506C66.4772 16.782 66.2492 17.022 65.9852 17.226C65.7332 17.43 65.4572 17.604 65.1572 17.748C64.8572 17.892 64.5512 18 64.2392 18.072C63.9272 18.144 63.6272 18.18 63.3392 18.18ZM63.4112 16.92C63.8912 16.92 64.3352 16.83 64.7432 16.65C65.1632 16.47 65.5232 16.23 65.8232 15.93C66.1232 15.618 66.3572 15.252 66.5252 14.832C66.6932 14.412 66.7772 13.968 66.7772 13.5C66.7772 13.032 66.6932 12.594 66.5252 12.186C66.3572 11.766 66.1232 11.4 65.8232 11.088C65.5232 10.776 65.1632 10.53 64.7432 10.35C64.3352 10.17 63.8912 10.08 63.4112 10.08C62.9552 10.08 62.5232 10.17 62.1152 10.35C61.7192 10.53 61.3712 10.776 61.0712 11.088C60.7832 11.388 60.5552 11.748 60.3872 12.168C60.2192 12.588 60.1352 13.032 60.1352 13.5C60.1352 13.968 60.2192 14.412 60.3872 14.832C60.5552 15.252 60.7832 15.618 61.0712 15.93C61.3712 16.23 61.7192 16.47 62.1152 16.65C62.5232 16.83 62.9552 16.92 63.4112 16.92ZM70.4818 4.86H71.8498V10.314C72.1618 9.858 72.5758 9.498 73.0918 9.234C73.6198 8.958 74.2258 8.82 74.9098 8.82C76.1218 8.82 77.0758 9.192 77.7718 9.936C78.4678 10.668 78.8158 11.688 78.8158 12.996V18H77.4118V12.996C77.4118 12.12 77.1838 11.418 76.7278 10.89C76.2838 10.35 75.6118 10.08 74.7118 10.08C74.3038 10.08 73.9258 10.158 73.5778 10.314C73.2298 10.458 72.9298 10.662 72.6778 10.926C72.4258 11.19 72.2278 11.502 72.0838 11.862C71.9398 12.222 71.8678 12.606 71.8678 13.014V18H70.4818V4.86ZM80.153 9H81.701V6.876L83.105 6.102V9H85.229V10.26H83.105V14.544C83.105 15 83.129 15.372 83.177 15.66C83.237 15.936 83.345 16.152 83.501 16.308C83.657 16.464 83.873 16.566 84.149 16.614C84.425 16.662 84.785 16.686 85.229 16.686V18H85.031C84.371 18 83.825 17.946 83.393 17.838C82.973 17.73 82.637 17.55 82.385 17.298C82.133 17.034 81.953 16.68 81.845 16.236C81.749 15.792 81.701 15.234 81.701 14.562V10.26H80.153V9Z" fill="#E4DFD3"/>
<path d="M95.4837 8.01776C94.7527 8.05723 94.0956 8.22743 93.4139 8.55304C93.0111 8.74627 92.6477 8.97814 92.313 9.25688C92.1743 9.37199 91.8552 9.69513 91.7338 9.84149C91.0939 10.6169 90.6641 11.606 90.5377 12.596C90.5057 12.8435 90.5 12.9454 90.5 13.262C90.5 13.646 90.5172 13.8532 90.5788 14.1928C90.7231 14.9978 91.0915 15.8356 91.5919 16.4983C92.1949 17.2959 93.0571 17.8994 94.0809 18.2407C94.4566 18.3657 94.8077 18.4405 95.2335 18.4849C95.4082 18.503 95.9603 18.5054 96.1276 18.489C96.8504 18.4183 97.4287 18.2522 98.0637 17.9348C98.8808 17.5253 99.5198 16.9637 99.9997 16.2344C100.474 15.5133 100.781 14.6771 100.873 13.854C100.979 12.9052 100.832 11.9703 100.435 11.0831C100.015 10.1457 99.4189 9.42955 98.6215 8.90578C98.1318 8.58511 97.5042 8.30883 96.9464 8.16905C96.4656 8.04901 95.9299 7.99309 95.4837 8.01776ZM95.9759 8.8918C96.4295 8.92387 96.8816 9.02829 97.3065 9.20014C98.268 9.58988 98.9571 10.1827 99.4402 11.0337C99.9382 11.9127 100.129 12.8517 100.007 13.8252C99.889 14.7725 99.3992 15.7666 98.7364 16.4063C98.405 16.7253 98.067 16.9604 97.6289 17.1759C97.0932 17.4398 96.5756 17.5821 96.0013 17.6248C95.8299 17.6371 95.4066 17.6306 95.2548 17.6125C94.7478 17.5525 94.313 17.4291 93.8618 17.2178C93.199 16.9078 92.6657 16.4794 92.2515 15.9261C91.7896 15.3086 91.482 14.5447 91.3901 13.7891C91.2908 12.9693 91.4229 12.1594 91.7806 11.3906C92.2342 10.4162 92.9274 9.72555 93.8922 9.28812C94.4172 9.0505 94.8988 8.92798 95.4673 8.88934C95.5591 8.88276 95.8684 8.8844 95.9759 8.8918Z" fill="#E4DFD3"/>
<path d="M95.5083 10.089C95.094 10.1268 94.7609 10.2214 94.4213 10.3998C93.587 10.8364 92.9857 11.6792 92.806 12.6659C92.765 12.892 92.756 13.0038 92.756 13.2908C92.756 13.4972 92.7601 13.5852 92.7707 13.6773C92.8667 14.4543 93.1826 15.1211 93.7035 15.6424C94.1555 16.0963 94.6928 16.3717 95.3073 16.4647C95.4558 16.4877 95.7733 16.4959 95.9242 16.4819C96.5469 16.4219 97.094 16.1769 97.5805 15.7403C97.7987 15.5454 98.0178 15.2724 98.1777 14.9986C98.2671 14.8457 98.3787 14.6072 98.4296 14.4609L98.4435 14.4181L98.3976 14.4025C98.3722 14.3934 98.1662 14.3211 97.9406 14.2421C97.715 14.1632 97.5239 14.0966 97.5157 14.095C97.5042 14.0933 97.4936 14.1122 97.4616 14.1912C97.3467 14.4757 97.1925 14.7116 96.9816 14.9238C96.5058 15.3998 95.8783 15.5873 95.2696 15.4327C94.7068 15.2897 94.2203 14.8629 93.9619 14.2857C93.8175 13.965 93.7527 13.6534 93.7527 13.2867C93.7527 12.8854 93.8323 12.5434 94.0078 12.1972C94.1752 11.8659 94.4229 11.583 94.7166 11.389C95.2417 11.0428 95.8865 10.9959 96.4476 11.2632C96.6428 11.3561 96.8086 11.4761 96.9775 11.6455C97.0998 11.7688 97.2122 11.9094 97.2844 12.0311L97.3246 12.0977L97.35 12.0829C97.3631 12.0747 97.5518 11.9645 97.7684 11.8396C97.9849 11.7137 98.1687 11.6069 98.1761 11.6011C98.1884 11.5929 98.1835 11.5814 98.126 11.4893C97.6822 10.7731 96.9907 10.2831 96.2122 10.1342C96.0514 10.103 95.9258 10.0915 95.7339 10.0882C95.6305 10.0874 95.5288 10.0874 95.5083 10.089Z" fill="#E4DFD3"/>
<path d="M110.08 16.614C110.08 16.098 110.188 15.624 110.404 15.192C110.632 14.748 110.92 14.334 111.268 13.95C111.616 13.554 112.012 13.188 112.456 12.852C112.9 12.504 113.35 12.174 113.806 11.862C114.214 11.574 114.604 11.298 114.976 11.034C115.36 10.758 115.696 10.482 115.984 10.206C116.272 9.918 116.5 9.624 116.668 9.324C116.836 9.012 116.92 8.676 116.92 8.316C116.92 7.968 116.854 7.65 116.722 7.362C116.59 7.074 116.404 6.828 116.164 6.624C115.924 6.408 115.636 6.24 115.3 6.12C114.976 6 114.616 5.94 114.22 5.94C113.812 5.94 113.428 5.994 113.068 6.102C112.72 6.21 112.414 6.378 112.15 6.606C111.898 6.834 111.7 7.122 111.556 7.47C111.412 7.806 111.34 8.208 111.34 8.676V8.784H109.99C109.978 8.124 110.068 7.536 110.26 7.02C110.464 6.504 110.752 6.078 111.124 5.742C111.496 5.394 111.946 5.13 112.474 4.95C113.002 4.77 113.59 4.68 114.238 4.68C114.826 4.68 115.372 4.77 115.876 4.95C116.38 5.13 116.818 5.382 117.19 5.706C117.562 6.018 117.85 6.402 118.054 6.858C118.258 7.302 118.36 7.794 118.36 8.334C118.36 8.85 118.258 9.318 118.054 9.738C117.85 10.158 117.574 10.548 117.226 10.908C116.89 11.268 116.506 11.61 116.074 11.934C115.642 12.246 115.204 12.558 114.76 12.87C114.352 13.146 113.956 13.428 113.572 13.716C113.188 14.004 112.846 14.304 112.546 14.616C112.246 14.916 112.006 15.234 111.826 15.57C111.646 15.906 111.556 16.26 111.556 16.632V16.65H118.612V18H110.08V16.614ZM124.856 16.902C125.792 16.902 126.488 16.644 126.944 16.128C127.412 15.6 127.646 14.898 127.646 14.022V8.964C127.646 8.004 127.412 7.266 126.944 6.75C126.476 6.222 125.792 5.958 124.892 5.958C123.956 5.958 123.254 6.234 122.786 6.786C122.33 7.338 122.102 8.064 122.102 8.964V14.004C122.102 14.904 122.324 15.612 122.768 16.128C123.224 16.644 123.92 16.902 124.856 16.902ZM124.874 18.18C123.506 18.18 122.468 17.802 121.76 17.046C121.052 16.29 120.698 15.282 120.698 14.022V8.964C120.698 8.352 120.794 7.782 120.986 7.254C121.19 6.726 121.472 6.276 121.832 5.904C122.204 5.52 122.648 5.22 123.164 5.004C123.68 4.788 124.25 4.68 124.874 4.68C125.522 4.68 126.104 4.794 126.62 5.022C127.136 5.238 127.574 5.538 127.934 5.922C128.294 6.306 128.57 6.762 128.762 7.29C128.954 7.806 129.05 8.364 129.05 8.964V14.022C129.05 15.318 128.69 16.338 127.97 17.082C127.25 17.814 126.218 18.18 124.874 18.18ZM130.92 16.65H134.664V7.632C134.472 7.908 134.166 8.118 133.746 8.262C133.338 8.406 132.93 8.478 132.522 8.478H132.306V7.02H132.396C132.828 7.02 133.188 6.954 133.476 6.822C133.776 6.678 134.016 6.504 134.196 6.3C134.388 6.084 134.52 5.85 134.592 5.598C134.676 5.346 134.718 5.1 134.718 4.86H136.068V16.65H139.992V18H130.92V16.65ZM143.95 18L147.046 13.266C146.854 13.326 146.656 13.368 146.452 13.392C146.248 13.404 146.044 13.41 145.84 13.41C145.24 13.41 144.682 13.302 144.166 13.086C143.65 12.858 143.2 12.552 142.816 12.168C142.432 11.772 142.132 11.31 141.916 10.782C141.7 10.242 141.592 9.66 141.592 9.036C141.592 8.424 141.706 7.854 141.934 7.326C142.162 6.786 142.474 6.324 142.87 5.94C143.278 5.544 143.752 5.238 144.292 5.022C144.832 4.794 145.414 4.68 146.038 4.68C146.686 4.68 147.28 4.794 147.82 5.022C148.36 5.25 148.828 5.562 149.224 5.958C149.62 6.354 149.926 6.816 150.142 7.344C150.37 7.872 150.484 8.436 150.484 9.036C150.484 9.588 150.394 10.128 150.214 10.656C150.046 11.172 149.818 11.634 149.53 12.042L145.642 18H143.95ZM146.056 12.132C146.476 12.132 146.872 12.054 147.244 11.898C147.616 11.73 147.94 11.508 148.216 11.232C148.492 10.956 148.708 10.632 148.864 10.26C149.032 9.888 149.116 9.486 149.116 9.054C149.116 8.634 149.032 8.238 148.864 7.866C148.708 7.482 148.492 7.152 148.216 6.876C147.94 6.588 147.616 6.366 147.244 6.21C146.872 6.042 146.476 5.958 146.056 5.958C145.636 5.958 145.234 6.042 144.85 6.21C144.478 6.366 144.148 6.588 143.86 6.876C143.584 7.152 143.362 7.476 143.194 7.848C143.038 8.22 142.96 8.616 142.96 9.036C142.96 9.468 143.038 9.876 143.194 10.26C143.362 10.632 143.584 10.956 143.86 11.232C144.148 11.508 144.478 11.73 144.85 11.898C145.234 12.054 145.636 12.132 146.056 12.132ZM156.966 7.272H158.442L160.8 15.822L163.536 7.272H164.868L167.604 15.93L170.196 7.272H171.618L168.324 18H166.902L164.202 9.468L161.466 18H160.026L156.966 7.272ZM173.508 7.272H174.93V18H173.508V7.272ZM180.177 8.604H177.045V7.272H184.695V8.604H181.581V18H180.177V8.604ZM191.082 18.144C190.29 18.144 189.552 18 188.868 17.712C188.196 17.424 187.608 17.034 187.104 16.542C186.612 16.05 186.222 15.468 185.934 14.796C185.658 14.124 185.52 13.41 185.52 12.654C185.52 11.898 185.664 11.184 185.952 10.512C186.252 9.84 186.654 9.252 187.158 8.748C187.662 8.244 188.25 7.848 188.922 7.56C189.606 7.272 190.326 7.128 191.082 7.128C191.682 7.128 192.258 7.224 192.81 7.416C193.362 7.608 193.866 7.878 194.322 8.226C194.79 8.562 195.192 8.97 195.528 9.45C195.864 9.93 196.116 10.452 196.284 11.016H194.808C194.46 10.236 193.956 9.612 193.296 9.144C192.636 8.664 191.886 8.424 191.046 8.424C190.434 8.424 189.876 8.538 189.372 8.766C188.868 8.994 188.436 9.306 188.076 9.702C187.716 10.086 187.434 10.536 187.23 11.052C187.038 11.556 186.942 12.09 186.942 12.654C186.942 13.206 187.038 13.734 187.23 14.238C187.434 14.742 187.716 15.192 188.076 15.588C188.436 15.972 188.868 16.278 189.372 16.506C189.876 16.734 190.428 16.848 191.028 16.848C191.868 16.848 192.606 16.632 193.242 16.2C193.878 15.768 194.376 15.156 194.736 14.364H196.23C196.05 14.928 195.792 15.444 195.456 15.912C195.132 16.368 194.748 16.764 194.304 17.1C193.86 17.424 193.362 17.682 192.81 17.874C192.27 18.054 191.694 18.144 191.082 18.144ZM204.986 13.266H199.748V18H198.362V7.272H199.748V11.952H204.986V7.272H206.372V18H204.986V13.266ZM219.083 18.144C218.327 18.144 217.613 18 216.941 17.712C216.269 17.424 215.687 17.034 215.195 16.542C214.703 16.038 214.313 15.45 214.025 14.778C213.737 14.106 213.593 13.392 213.593 12.636C213.593 11.88 213.737 11.166 214.025 10.494C214.313 9.822 214.703 9.24 215.195 8.748C215.687 8.244 216.269 7.848 216.941 7.56C217.613 7.272 218.327 7.128 219.083 7.128C219.839 7.128 220.553 7.272 221.225 7.56C221.897 7.848 222.479 8.244 222.971 8.748C223.475 9.24 223.871 9.822 224.159 10.494C224.447 11.166 224.591 11.88 224.591 12.636C224.591 13.392 224.447 14.106 224.159 14.778C223.871 15.45 223.475 16.038 222.971 16.542C222.479 17.034 221.897 17.424 221.225 17.712C220.553 18 219.839 18.144 219.083 18.144ZM219.083 16.848C219.659 16.848 220.193 16.74 220.685 16.524C221.189 16.296 221.621 15.996 221.981 15.624C222.341 15.24 222.623 14.79 222.827 14.274C223.043 13.758 223.151 13.212 223.151 12.636C223.151 12.06 223.043 11.52 222.827 11.016C222.623 10.5 222.341 10.05 221.981 9.666C221.621 9.282 221.189 8.982 220.685 8.766C220.193 8.538 219.659 8.424 219.083 8.424C218.507 8.424 217.967 8.538 217.463 8.766C216.971 8.982 216.545 9.282 216.185 9.666C215.825 10.05 215.537 10.5 215.321 11.016C215.117 11.52 215.015 12.06 215.015 12.636C215.015 13.212 215.117 13.758 215.321 14.274C215.537 14.79 215.825 15.24 216.185 15.624C216.545 15.996 216.971 16.296 217.463 16.524C217.967 16.74 218.507 16.848 219.083 16.848ZM226.715 7.272H232.781V8.568H228.101V11.97H232.781V13.266H228.101V18H226.715V7.272ZM240.022 7.272H241.39L245.296 12.69L249.202 7.272H250.534V18H249.148V9.666L245.296 14.994L241.408 9.612V18H240.022V7.272ZM258.141 18.144C257.385 18.144 256.671 18 255.999 17.712C255.327 17.424 254.745 17.034 254.253 16.542C253.761 16.038 253.371 15.45 253.083 14.778C252.795 14.106 252.651 13.392 252.651 12.636C252.651 11.88 252.795 11.166 253.083 10.494C253.371 9.822 253.761 9.24 254.253 8.748C254.745 8.244 255.327 7.848 255.999 7.56C256.671 7.272 257.385 7.128 258.141 7.128C258.897 7.128 259.611 7.272 260.283 7.56C260.955 7.848 261.537 8.244 262.029 8.748C262.533 9.24 262.929 9.822 263.217 10.494C263.505 11.166 263.649 11.88 263.649 12.636C263.649 13.392 263.505 14.106 263.217 14.778C262.929 15.45 262.533 16.038 262.029 16.542C261.537 17.034 260.955 17.424 260.283 17.712C259.611 18 258.897 18.144 258.141 18.144ZM258.141 16.848C258.717 16.848 259.251 16.74 259.743 16.524C260.247 16.296 260.679 15.996 261.039 15.624C261.399 15.24 261.681 14.79 261.885 14.274C262.101 13.758 262.209 13.212 262.209 12.636C262.209 12.06 262.101 11.52 261.885 11.016C261.681 10.5 261.399 10.05 261.039 9.666C260.679 9.282 260.247 8.982 259.743 8.766C259.251 8.538 258.717 8.424 258.141 8.424C257.565 8.424 257.025 8.538 256.521 8.766C256.029 8.982 255.603 9.282 255.243 9.666C254.883 10.05 254.595 10.5 254.379 11.016C254.175 11.52 254.073 12.06 254.073 12.636C254.073 13.212 254.175 13.758 254.379 14.274C254.595 14.79 254.883 15.24 255.243 15.624C255.603 15.996 256.029 16.296 256.521 16.524C257.025 16.74 257.565 16.848 258.141 16.848ZM269.426 18.144C268.898 18.144 268.406 18.06 267.95 17.892C267.506 17.724 267.122 17.484 266.798 17.172C266.474 16.86 266.222 16.482 266.042 16.038C265.862 15.582 265.772 15.072 265.772 14.508V7.272H267.158V14.58C267.158 15.276 267.368 15.828 267.788 16.236C268.208 16.644 268.76 16.848 269.444 16.848C270.116 16.848 270.662 16.644 271.082 16.236C271.502 15.828 271.712 15.276 271.712 14.58V7.272H273.098V14.508C273.098 15.072 273.002 15.582 272.81 16.038C272.63 16.482 272.378 16.86 272.054 17.172C271.73 17.484 271.34 17.724 270.884 17.892C270.44 18.06 269.954 18.144 269.426 18.144ZM275.53 7.272H277.078L282.946 15.75V7.272H284.332V18H282.856L276.916 9.432V18H275.53V7.272ZM289.496 8.604H286.364V7.272H294.014V8.604H290.9V18H289.496V8.604ZM298.581 7.272H300.021L304.017 18H302.577L301.659 15.534H296.925L296.025 18H294.567L298.581 7.272ZM297.411 14.202H301.173L299.283 9.108L297.411 14.202ZM305.871 7.272H307.293V18H305.871V7.272ZM309.895 7.272H311.443L317.311 15.75V7.272H318.697V18H317.221L311.281 9.432V18H309.895V7.272ZM325.593 7.272H327.069L329.427 15.822L332.163 7.272H333.495L336.231 15.93L338.823 7.272H340.245L336.951 18H335.529L332.829 9.468L330.093 18H328.653L325.593 7.272ZM342.135 7.272H343.557V18H342.135V7.272ZM346.158 7.272H347.706L353.574 15.75V7.272H354.96V18H353.484L347.544 9.432V18H346.158V7.272ZM357.479 7.272H360.467C361.319 7.272 362.087 7.41 362.771 7.686C363.467 7.962 364.055 8.34 364.535 8.82C365.027 9.3 365.405 9.87 365.669 10.53C365.933 11.178 366.065 11.88 366.065 12.636C366.065 13.404 365.927 14.118 365.651 14.778C365.375 15.426 364.985 15.99 364.481 16.47C363.989 16.95 363.401 17.328 362.717 17.604C362.045 17.868 361.313 18 360.521 18H357.479V7.272ZM358.865 8.568V16.686H360.395C361.019 16.686 361.589 16.584 362.105 16.38C362.633 16.176 363.083 15.894 363.455 15.534C363.827 15.162 364.115 14.73 364.319 14.238C364.523 13.746 364.625 13.212 364.625 12.636C364.625 12.048 364.529 11.508 364.337 11.016C364.145 10.512 363.863 10.08 363.491 9.72C363.131 9.36 362.687 9.078 362.159 8.874C361.631 8.67 361.025 8.568 360.341 8.568H358.865ZM371.354 18.144C370.826 18.144 370.328 18.078 369.86 17.946C369.404 17.802 369.008 17.592 368.672 17.316C368.336 17.04 368.072 16.704 367.88 16.308C367.688 15.912 367.592 15.45 367.592 14.922H369.122V15.012C369.122 15.588 369.32 16.038 369.716 16.362C370.112 16.686 370.634 16.848 371.282 16.848C371.558 16.848 371.816 16.806 372.056 16.722C372.308 16.626 372.524 16.5 372.704 16.344C372.884 16.176 373.028 15.984 373.136 15.768C373.256 15.552 373.316 15.312 373.316 15.048C373.316 14.772 373.262 14.538 373.154 14.346C373.046 14.142 372.89 13.968 372.686 13.824C372.482 13.668 372.236 13.536 371.948 13.428C371.672 13.308 371.372 13.194 371.048 13.086C370.64 12.942 370.244 12.798 369.86 12.654C369.488 12.498 369.158 12.306 368.87 12.078C368.582 11.838 368.348 11.55 368.168 11.214C368 10.866 367.916 10.428 367.916 9.9C367.916 9.492 368 9.12 368.168 8.784C368.348 8.448 368.588 8.16 368.888 7.92C369.2 7.668 369.566 7.476 369.986 7.344C370.406 7.2 370.862 7.128 371.354 7.128C371.858 7.128 372.314 7.2 372.722 7.344C373.142 7.476 373.502 7.668 373.802 7.92C374.114 8.172 374.348 8.484 374.504 8.856C374.672 9.216 374.756 9.63 374.756 10.098H373.298V9.99C373.298 9.51 373.112 9.12 372.74 8.82C372.368 8.508 371.9 8.352 371.336 8.352C370.76 8.352 370.286 8.496 369.914 8.784C369.542 9.072 369.356 9.444 369.356 9.9C369.356 10.2 369.416 10.452 369.536 10.656C369.656 10.86 369.824 11.034 370.04 11.178C370.256 11.322 370.514 11.454 370.814 11.574C371.114 11.694 371.438 11.814 371.786 11.934C372.23 12.078 372.632 12.24 372.992 12.42C373.364 12.588 373.682 12.792 373.946 13.032C374.21 13.272 374.408 13.56 374.54 13.896C374.684 14.232 374.756 14.634 374.756 15.102C374.756 15.498 374.666 15.882 374.486 16.254C374.318 16.626 374.078 16.95 373.766 17.226C373.466 17.502 373.106 17.724 372.686 17.892C372.278 18.06 371.834 18.144 371.354 18.144Z" fill="#E4DFD3"/>
</svg>
