<svg width="54" height="31" viewBox="0 0 54 31" fill="none" xmlns="http://www.w3.org/2000/svg">
<mask id="path-1-inside-1_194_19" fill="white">
<path fill-rule="evenodd" clip-rule="evenodd" d="M5.23237 1.98544C5.81485 0.771937 7.04164 0 8.3877 0H20C21.933 0 23.5 1.567 23.5 3.5V10C23.5 11.3807 24.6193 12.5 26 12.5H50C51.933 12.5 53.5 14.067 53.5 16V22.5C53.5 24.433 51.933 26 50 26H43.9776C43.725 28.8032 41.369 31 38.5 31C35.631 31 33.275 28.8032 33.0224 26H18.9776C18.725 28.8032 16.369 31 13.5 31C10.631 31 8.27504 28.8032 8.02242 26H3.5C1.567 26 0 24.433 0 22.5V13.6827C0 13.1584 0.11779 12.6408 0.344669 12.1682L5.23237 1.98544ZM43.9776 25C43.725 22.1968 41.369 20 38.5 20C35.631 20 33.275 22.1968 33.0224 25H18.9776C18.725 22.1968 16.369 20 13.5 20C10.631 20 8.27504 22.1968 8.02242 25H3.5C2.11929 25 1 23.8807 1 22.5V13.6827C1 13.3082 1.08414 12.9385 1.24619 12.6009L6.13389 2.41817C6.54995 1.55138 7.42623 1 8.3877 1H20C21.3807 1 22.5 2.11929 22.5 3.5V10C22.5 11.933 24.067 13.5 26 13.5H50C51.3807 13.5 52.5 14.6193 52.5 16V22.5C52.5 23.8807 51.3807 25 50 25H43.9776ZM12.598 12V5.51082L9.90051 12H12.598ZM13.598 5.51082C13.598 4.41729 12.0944 4.11721 11.6746 5.12697L8.97711 11.6162C8.70334 12.2747 9.18728 13 9.90051 13H12.598C13.1503 13 13.598 12.5523 13.598 12V5.51082ZM28 1H50C51.1046 1 52 1.89543 52 3V8C52 9.10457 51.1046 10 50 10H28C26.8954 10 26 9.10457 26 8V3C26 1.89543 26.8954 1 28 1ZM25 3C25 1.34315 26.3431 0 28 0H50C51.6569 0 53 1.34315 53 3V8C53 9.65685 51.6569 11 50 11H28C26.3431 11 25 9.65685 25 8V3Z"/>
</mask>
<path fill-rule="evenodd" clip-rule="evenodd" d="M5.23237 1.98544C5.81485 0.771937 7.04164 0 8.3877 0H20C21.933 0 23.5 1.567 23.5 3.5V10C23.5 11.3807 24.6193 12.5 26 12.5H50C51.933 12.5 53.5 14.067 53.5 16V22.5C53.5 24.433 51.933 26 50 26H43.9776C43.725 28.8032 41.369 31 38.5 31C35.631 31 33.275 28.8032 33.0224 26H18.9776C18.725 28.8032 16.369 31 13.5 31C10.631 31 8.27504 28.8032 8.02242 26H3.5C1.567 26 0 24.433 0 22.5V13.6827C0 13.1584 0.11779 12.6408 0.344669 12.1682L5.23237 1.98544ZM43.9776 25C43.725 22.1968 41.369 20 38.5 20C35.631 20 33.275 22.1968 33.0224 25H18.9776C18.725 22.1968 16.369 20 13.5 20C10.631 20 8.27504 22.1968 8.02242 25H3.5C2.11929 25 1 23.8807 1 22.5V13.6827C1 13.3082 1.08414 12.9385 1.24619 12.6009L6.13389 2.41817C6.54995 1.55138 7.42623 1 8.3877 1H20C21.3807 1 22.5 2.11929 22.5 3.5V10C22.5 11.933 24.067 13.5 26 13.5H50C51.3807 13.5 52.5 14.6193 52.5 16V22.5C52.5 23.8807 51.3807 25 50 25H43.9776ZM12.598 12V5.51082L9.90051 12H12.598ZM13.598 5.51082C13.598 4.41729 12.0944 4.11721 11.6746 5.12697L8.97711 11.6162C8.70334 12.2747 9.18728 13 9.90051 13H12.598C13.1503 13 13.598 12.5523 13.598 12V5.51082ZM28 1H50C51.1046 1 52 1.89543 52 3V8C52 9.10457 51.1046 10 50 10H28C26.8954 10 26 9.10457 26 8V3C26 1.89543 26.8954 1 28 1ZM25 3C25 1.34315 26.3431 0 28 0H50C51.6569 0 53 1.34315 53 3V8C53 9.65685 51.6569 11 50 11H28C26.3431 11 25 9.65685 25 8V3Z" fill="#E4DFD3"/>
<path d="M5.23237 1.98544L6.13389 2.41817L5.23237 1.98544ZM43.9776 26V25H43.0636L42.9816 25.9102L43.9776 26ZM33.0224 26L34.0184 25.9102L33.9364 25H33.0224V26ZM18.9776 26V25H18.0636L17.9816 25.9102L18.9776 26ZM8.02242 26L9.01839 25.9102L8.93636 25H8.02242V26ZM0.344669 12.1682L-0.556854 11.7354H-0.556854L0.344669 12.1682ZM43.9776 25L42.9816 25.0898L43.0636 26H43.9776V25ZM33.0224 25V26H33.9364L34.0184 25.0898L33.0224 25ZM18.9776 25L17.9816 25.0898L18.0636 26H18.9776V25ZM8.02242 25V26H8.93636L9.01839 25.0898L8.02242 25ZM1.24619 12.6009L0.34467 12.1682H0.344669L1.24619 12.6009ZM6.13389 2.41817L7.03542 2.8509V2.8509L6.13389 2.41817ZM12.598 5.51082H13.598L11.6746 5.12697L12.598 5.51082ZM12.598 12V13H13.598V12H12.598ZM9.90051 12L8.97711 11.6162L8.40185 13H9.90051V12ZM11.6746 5.12697L10.7512 4.74312L11.6746 5.12697ZM8.97711 11.6162L8.05371 11.2323V11.2323L8.97711 11.6162ZM8.3877 -1C6.65705 -1 5.07975 -0.00750888 4.33085 1.55271L6.13389 2.41817C6.54995 1.55138 7.42623 1 8.3877 1V-1ZM20 -1H8.3877V1H20V-1ZM24.5 3.5C24.5 1.01472 22.4853 -1 20 -1V1C21.3807 1 22.5 2.11929 22.5 3.5H24.5ZM24.5 10V3.5H22.5V10H24.5ZM26 11.5C25.1716 11.5 24.5 10.8284 24.5 10H22.5C22.5 11.933 24.067 13.5 26 13.5V11.5ZM50 11.5H26V13.5H50V11.5ZM54.5 16C54.5 13.5147 52.4853 11.5 50 11.5V13.5C51.3807 13.5 52.5 14.6193 52.5 16H54.5ZM54.5 22.5V16H52.5V22.5H54.5ZM50 27C52.4853 27 54.5 24.9853 54.5 22.5H52.5C52.5 23.8807 51.3807 25 50 25V27ZM43.9776 27H50V25H43.9776V27ZM42.9816 25.9102C42.775 28.2028 40.8468 30 38.5 30V32C41.8912 32 44.6749 29.4037 44.9735 26.0898L42.9816 25.9102ZM38.5 30C36.1532 30 34.225 28.2028 34.0184 25.9102L32.0265 26.0898C32.3251 29.4037 35.1088 32 38.5 32V30ZM18.9776 27H33.0224V25H18.9776V27ZM13.5 32C16.8912 32 19.6749 29.4037 19.9735 26.0898L17.9816 25.9102C17.775 28.2028 15.8468 30 13.5 30V32ZM7.02646 26.0898C7.3251 29.4037 10.1088 32 13.5 32V30C11.1532 30 9.22497 28.2028 9.01839 25.9102L7.02646 26.0898ZM3.5 27H8.02242V25H3.5V27ZM-1 22.5C-1 24.9853 1.01472 27 3.5 27V25C2.11929 25 1 23.8807 1 22.5H-1ZM-1 13.6827V22.5H1V13.6827H-1ZM-0.556854 11.7354C-0.848555 12.3431 -1 13.0086 -1 13.6827H1C1 13.3082 1.08414 12.9385 1.24619 12.6009L-0.556854 11.7354ZM4.33085 1.55271L-0.556854 11.7354L1.24619 12.6009L6.13389 2.41817L4.33085 1.55271ZM38.5 21C40.8468 21 42.775 22.7972 42.9816 25.0898L44.9735 24.9102C44.6749 21.5963 41.8912 19 38.5 19V21ZM34.0184 25.0898C34.225 22.7972 36.1532 21 38.5 21V19C35.1088 19 32.3251 21.5963 32.0265 24.9102L34.0184 25.0898ZM18.9776 26H33.0224V24H18.9776V26ZM13.5 21C15.8468 21 17.775 22.7972 17.9816 25.0898L19.9735 24.9102C19.6749 21.5963 16.8912 19 13.5 19V21ZM9.01839 25.0898C9.22497 22.7972 11.1532 21 13.5 21V19C10.1088 19 7.3251 21.5963 7.02646 24.9102L9.01839 25.0898ZM3.5 26H8.02242V24H3.5V26ZM0 22.5C0 24.433 1.567 26 3.5 26V24C2.67157 24 2 23.3284 2 22.5H0ZM0 13.6827V22.5H2V13.6827H0ZM0.344669 12.1682C0.11779 12.6408 0 13.1584 0 13.6827H2C2 13.458 2.05048 13.2362 2.14772 13.0336L0.344669 12.1682ZM5.23237 1.98544L0.34467 12.1682L2.14772 13.0336L7.03542 2.8509L5.23237 1.98544ZM8.3877 0C7.04164 0 5.81485 0.771937 5.23237 1.98544L7.03542 2.8509C7.28505 2.33083 7.81082 2 8.3877 2V0ZM20 0H8.3877V2H20V0ZM23.5 3.5C23.5 1.567 21.933 0 20 0V2C20.8284 2 21.5 2.67157 21.5 3.5H23.5ZM23.5 10V3.5H21.5V10H23.5ZM26 12.5C24.6193 12.5 23.5 11.3807 23.5 10H21.5C21.5 12.4853 23.5147 14.5 26 14.5V12.5ZM50 12.5H26V14.5H50V12.5ZM53.5 16C53.5 14.067 51.933 12.5 50 12.5V14.5C50.8284 14.5 51.5 15.1716 51.5 16H53.5ZM53.5 22.5V16H51.5V22.5H53.5ZM50 26C51.933 26 53.5 24.433 53.5 22.5H51.5C51.5 23.3284 50.8284 24 50 24V26ZM43.9776 26H50V24H43.9776V26ZM11.598 5.51082V12H13.598V5.51082H11.598ZM10.8239 12.3838L13.5214 5.89467L11.6746 5.12697L8.97711 11.6162L10.8239 12.3838ZM12.598 11H9.90051V13H12.598V11ZM12.598 5.51082C12.6022 5.50078 12.6054 5.49544 12.6066 5.49359C12.6078 5.49176 12.6076 5.49234 12.6057 5.49436C12.6038 5.49637 12.6011 5.49888 12.5976 5.50141C12.5942 5.50391 12.5908 5.50588 12.5878 5.50732C12.5818 5.51021 12.5794 5.51008 12.582 5.50979C12.5849 5.50946 12.5906 5.50935 12.598 5.51082C12.6054 5.51229 12.6107 5.5146 12.6132 5.51601C12.6154 5.51727 12.6132 5.51646 12.6088 5.5115C12.6066 5.50902 12.6042 5.50591 12.602 5.50229C12.5998 5.49862 12.5982 5.49525 12.5972 5.49267C12.5962 5.49007 12.5963 5.48948 12.5967 5.49162C12.5971 5.49378 12.598 5.49994 12.598 5.51082H14.598C14.598 3.32375 11.5907 2.72359 10.7512 4.74312L12.598 5.51082ZM9.90051 12L12.598 5.51082L10.7512 4.74312L8.05371 11.2323L9.90051 12ZM9.90051 12V12L8.05371 11.2323C7.50618 12.5495 8.47406 14 9.90051 14V12ZM12.598 12H9.90051V14H12.598V12ZM12.598 12V14C13.7026 14 14.598 13.1046 14.598 12H12.598ZM12.598 5.51082V12H14.598V5.51082H12.598ZM50 0H28V2H50V0ZM53 3C53 1.34315 51.6569 0 50 0V2C50.5523 2 51 2.44772 51 3H53ZM53 8V3H51V8H53ZM50 11C51.6569 11 53 9.65685 53 8H51C51 8.55228 50.5523 9 50 9V11ZM28 11H50V9H28V11ZM25 8C25 9.65685 26.3431 11 28 11V9C27.4477 9 27 8.55228 27 8H25ZM25 3V8H27V3H25ZM28 0C26.3431 0 25 1.34315 25 3H27C27 2.44772 27.4477 2 28 2V0ZM28 -1C25.7909 -1 24 0.790861 24 3H26C26 1.89543 26.8954 1 28 1V-1ZM50 -1H28V1H50V-1ZM54 3C54 0.790861 52.2091 -1 50 -1V1C51.1046 1 52 1.89543 52 3H54ZM54 8V3H52V8H54ZM50 12C52.2091 12 54 10.2091 54 8H52C52 9.10457 51.1046 10 50 10V12ZM28 12H50V10H28V12ZM24 8C24 10.2091 25.7909 12 28 12V10C26.8954 10 26 9.10457 26 8H24ZM24 3V8H26V3H24Z" fill="#333333" mask="url(#path-1-inside-1_194_19)"/>
</svg>
