<svg width="81" height="76" viewBox="0 0 81 76" fill="none" xmlns="http://www.w3.org/2000/svg">
<path d="M44.6168 75.0007L41.6898 69.5598M15.6395 21.136L22.957 34.7382M22.957 34.7382L26.3154 23.3123M22.957 34.7382L11.5726 31.4737M22.957 34.7382L29.3964 46.7081M29.3964 46.7081L33.941 29.2973M29.3964 46.7081L14.1144 42.3554M29.3964 46.7081L37.0066 60.8544M37.0066 60.8544L43.0917 38.0027M37.0066 60.8544L15.6395 54.8694M37.0066 60.8544L41.6898 69.5598M41.6898 69.5598C63.7887 40.3051 67.4414 24.5616 5.98047 1.54883" stroke="#344F10"/>
<path d="M5.96631 1C-7.88296 67.0958 8.26651 70.6453 41.5665 69.5591M55.2924 47.7956L57.3258 44.6148M68.51 27.1203L61.9012 37.4579M61.9012 37.4579H70.5435M61.9012 37.4579L59.3593 29.2966M61.9012 37.4579L57.3258 44.6148M57.3258 44.6148H68.51M57.3258 44.6148L51.7337 54.8688L64.9514 55.9569" stroke="#344F10"/>
<path d="M44.1074 66.2939C74.9682 65.8638 86.6683 59.2998 76.3164 13.0586" stroke="#344F10"/>
<path d="M76.6441 13.5176C65.4846 16.1012 59.686 18.3173 52.2422 27.1198" stroke="#344F10"/>
</svg>
