<svg width="99" height="85" viewBox="0 0 99 85" fill="none" xmlns="http://www.w3.org/2000/svg">
<path d="M75.1178 14.4104L69.9778 18.1179C56.1091 -0.456073 48.5977 -10.3675 24.6523 22.7522L41.4742 32.9477C43.8651 24.9759 45.8775 20.9144 50.8196 14.4104L56.4269 25.5328L50.8196 29.7037C57.6025 30.3523 61.2351 30.4371 67.1742 29.7037C71.2 24.8725 73.0577 21.6649 75.1178 14.4104Z" stroke="#344F10"/>
<path d="M63.2896 76.3275L62.5124 69.9947C85.2809 66.5219 97.4835 64.5703 80.0731 27.5181L63.1879 37.6061C68.9852 43.5281 71.5605 47.2508 74.8653 54.7401L62.5162 54.4231L61.5584 47.4544C57.7627 53.1715 55.9582 56.3584 53.7671 61.9844C56.0529 67.8626 57.9588 71.0412 63.2896 76.3275Z" stroke="#344F10"/>
<path d="M11.1861 34.7997L17.0441 37.1833C9.01053 58.989 4.78324 70.7193 45.2945 73.2977L44.7499 53.4841C36.8134 55.7362 32.3426 56.2071 24.2581 55.4965L30.5199 44.7367L37.016 47.269C33.908 41.1426 32.0245 38.0027 28.2175 33.3385C22.0214 32.5085 18.3461 32.6517 11.1861 34.7997Z" stroke="#344F10"/>
</svg>
