<svg width="11" height="11" viewBox="0 0 11 11" fill="none" xmlns="http://www.w3.org/2000/svg">
<path d="M5.48367 0.0177611C4.75273 0.0572287 4.09562 0.227432 3.41391 0.553039C3.01111 0.746266 2.64769 0.978138 2.31299 1.25688C2.17435 1.37199 1.85523 1.69513 1.73382 1.84149C1.09394 2.61686 0.664071 3.60602 0.537736 4.59599C0.505742 4.84349 0.5 4.94545 0.5 5.26201C0.5 5.64599 0.517227 5.8532 0.578754 6.19278C0.723137 6.99776 1.09148 7.83562 1.59189 8.49835C2.19486 9.29592 3.05705 9.89944 4.08086 10.2407C4.45658 10.3657 4.80769 10.4405 5.23346 10.4849C5.40819 10.503 5.96029 10.5054 6.12765 10.489C6.85038 10.4183 7.42873 10.2522 8.06369 9.9348C8.88076 9.52532 9.51982 8.96373 9.99973 8.23441C10.4739 7.5133 10.7807 6.67708 10.8726 5.85402C10.9792 4.90516 10.8316 3.97027 10.4345 3.08307C10.0153 2.14572 9.41892 1.42955 8.62153 0.905781C8.13178 0.585107 7.50421 0.308834 6.94636 0.169053C6.46563 0.0490065 5.92994 -0.00690628 5.48367 0.0177611ZM5.97588 0.891802C6.42954 0.92387 6.88155 1.02829 7.3065 1.20014C8.26796 1.58988 8.95706 2.18272 9.44025 3.03374C9.9382 3.91271 10.1285 4.85171 10.0071 5.82524C9.88898 6.77246 9.39923 7.76655 8.73638 8.40625C8.40496 8.72528 8.06697 8.96044 7.6289 9.17587C7.09321 9.43981 6.57556 9.58206 6.00131 9.62481C5.82986 9.63715 5.40655 9.63057 5.25479 9.61248C4.74781 9.55246 4.31302 9.42912 3.86182 9.21781C3.19897 8.90782 2.66574 8.47943 2.25146 7.92607C1.7896 7.30856 1.48197 6.5447 1.39009 5.78906C1.29082 4.96929 1.4229 4.15938 1.78058 3.39059C2.23423 2.41624 2.92744 1.72555 3.89217 1.28812C4.4172 1.0505 4.89875 0.927981 5.46726 0.889335C5.55914 0.882757 5.86841 0.884402 5.97588 0.891802Z" fill="#E4DFD3"/>
<path d="M5.50841 2.089C5.09413 2.12682 4.76106 2.22138 4.42143 2.39981C3.58713 2.83642 2.9858 3.67921 2.80615 4.6659C2.76513 4.89202 2.7561 5.00384 2.7561 5.2908C2.7561 5.49719 2.76021 5.58517 2.77087 5.67726C2.86685 6.45427 3.18269 7.12111 3.70362 7.64241C4.15563 8.09629 4.69297 8.37174 5.30742 8.46465C5.4559 8.48767 5.77338 8.4959 5.92433 8.48192C6.54698 8.42189 7.09416 8.17687 7.58063 7.74026C7.79885 7.54539 8.01788 7.2724 8.17785 6.9986C8.26727 6.84566 8.37884 6.60721 8.4297 6.46085L8.44365 6.4181L8.39771 6.40247C8.37228 6.39343 8.16637 6.32107 7.94077 6.24214C7.71517 6.1632 7.52403 6.0966 7.51582 6.09496C7.50434 6.09331 7.49367 6.11222 7.46168 6.19116C7.34683 6.47565 7.1926 6.71163 6.98177 6.92377C6.50596 7.39985 5.87839 7.58732 5.26968 7.43274C4.70692 7.28967 4.22044 6.86293 3.96203 6.28571C3.81765 5.96504 3.75284 5.65341 3.75284 5.28669C3.75284 4.88544 3.83241 4.54339 4.00797 4.19723C4.17532 3.86586 4.42307 3.58301 4.71676 3.38896C5.24179 3.0428 5.88659 2.99593 6.44772 3.26316C6.64296 3.35607 6.80867 3.47612 6.97767 3.6455C7.0999 3.76884 7.21229 3.90944 7.28448 4.03113L7.32468 4.09773L7.35011 4.08293C7.36324 4.07471 7.55192 3.96453 7.76849 3.83955C7.98507 3.71375 8.16883 3.60686 8.17621 3.6011C8.18852 3.59288 8.18359 3.58137 8.12617 3.48928C7.68236 2.77311 6.99079 2.28305 6.21227 2.13422C6.05148 2.10298 5.92597 2.09147 5.734 2.08818C5.63064 2.08736 5.52891 2.08736 5.50841 2.089Z" fill="#E4DFD3"/>
</svg>
