<svg width="290" height="398" viewBox="0 0 290 398" fill="none" xmlns="http://www.w3.org/2000/svg">
<g clip-path="url(#clip0)">
<path fill-rule="evenodd" clip-rule="evenodd" d="M140.868 14.9007C284.779 -4.24441 367.726 -5.67655 521.133 14.9009L522 15.0172V15.892V82.392V83.392H521H512.927V113.892V114.892H511.927H496.736C496.665 115.265 496.575 115.759 496.477 116.352C496.244 117.762 495.965 119.724 495.778 121.934C495.402 126.399 495.423 131.708 496.853 135.543C498.377 139.631 502.229 143.997 505.818 147.406C507.594 149.094 509.273 150.517 510.508 151.517C511.125 152.017 511.63 152.411 511.979 152.679C512.154 152.813 512.29 152.916 512.382 152.984C512.427 153.018 512.462 153.044 512.485 153.061L512.51 153.08L512.516 153.084L512.517 153.085H512.518L512.927 153.385V153.892V179.392H521H522V180.392V339.892V340.892H521H512.927V376.892V377.704L512.132 377.871C386.233 404.27 305.765 404.311 151.505 377.878L150.674 377.735V376.892V340.892H141H140V339.892V180.392V179.392H141H150.674V153.892V153.309L151.181 153.022C152.051 152.529 152.943 152.046 153.842 151.559C156.641 150.043 159.512 148.489 162.004 146.479C165.242 143.867 167.716 140.572 168.294 135.772L168.295 135.762L168.296 135.751C169.225 129.231 169.36 124.772 168.382 114.892H151.674H150.674V113.892V83.392H141H140V82.392V15.892V15.0162L140.868 14.9007ZM152.674 341.004C299.407 356.622 378.271 356.638 510.927 341.017V376.08C386.002 402.205 305.87 402.25 152.674 376.049V341.004ZM170.392 114.892H494.701C494.642 115.215 494.575 115.595 494.504 116.026C494.265 117.474 493.977 119.491 493.785 121.766C493.537 124.711 493.442 128.161 493.851 131.392H170.824C171.226 126.788 171.123 122.337 170.392 114.892ZM170.62 133.392H494.178C494.382 134.388 494.645 135.346 494.979 136.241C496.675 140.791 500.828 145.426 504.44 148.856C506.264 150.589 507.984 152.047 509.248 153.071C509.881 153.584 510.4 153.989 510.763 154.267C510.822 154.312 510.877 154.354 510.927 154.392V180.017C371.559 186.785 292.512 186.269 152.674 179.936V154.477C153.318 154.119 153.989 153.756 154.675 153.384L154.677 153.383L154.678 153.382C157.51 151.85 160.611 150.172 163.259 148.036C166.773 145.202 169.618 141.476 170.278 136.022C170.407 135.113 170.522 134.243 170.62 133.392ZM169.287 112.892H495.916H510.927V83.3918H152.674V112.892H169.287ZM151.674 81.392V81.3918L511.927 81.392H520V16.7669C367.641 -3.62275 284.94 -2.2095 142 16.7679V81.392H151.674ZM151.629 181.891L151.651 181.392H142V338.892H151.674H151.727L151.78 338.898C299.503 354.663 378.308 354.672 511.81 338.899L511.868 338.892H511.927H520V181.392H513.553L513.577 181.891C372.229 188.808 292.97 188.305 151.629 181.891Z" fill="#344F10"/>
<path d="M49.9393 7.67201H51.2833V12.568H51.4753L56.6273 7.67201H58.5633L52.9633 12.84L58.8353 19H56.8673L51.4753 13.24H51.2833V19H49.9393V7.67201ZM59.6974 12.472C60.0814 12.0773 60.5347 11.7893 61.0574 11.608C61.5907 11.416 62.1294 11.32 62.6734 11.32C63.7827 11.32 64.5827 11.5813 65.0734 12.104C65.564 12.6267 65.8094 13.4213 65.8094 14.488V17.704C65.8094 17.9173 65.82 18.1413 65.8414 18.376C65.8627 18.6 65.8894 18.808 65.9214 19H64.7214C64.6787 18.8293 64.652 18.6427 64.6414 18.44C64.6414 18.2267 64.6414 18.04 64.6414 17.88H64.6094C64.364 18.264 64.0334 18.5787 63.6174 18.824C63.212 19.0693 62.7214 19.192 62.1454 19.192C61.7614 19.192 61.3987 19.144 61.0574 19.048C60.7267 18.952 60.4334 18.8133 60.1774 18.632C59.932 18.44 59.7347 18.2053 59.5854 17.928C59.436 17.6507 59.3614 17.3307 59.3614 16.968C59.3614 16.3493 59.5214 15.864 59.8414 15.512C60.1614 15.16 60.556 14.8987 61.0254 14.728C61.5054 14.5573 62.0174 14.4507 62.5614 14.408C63.116 14.3653 63.6227 14.344 64.0814 14.344H64.5614V14.12C64.5614 13.576 64.396 13.1653 64.0654 12.888C63.7454 12.6107 63.292 12.472 62.7054 12.472C62.3 12.472 61.9 12.5413 61.5054 12.68C61.1214 12.808 60.78 13.0107 60.4814 13.288L59.6974 12.472ZM63.3134 15.4C62.5134 15.4 61.8787 15.512 61.4094 15.736C60.94 15.96 60.7054 16.328 60.7054 16.84C60.7054 17.3093 60.86 17.6453 61.1694 17.848C61.4894 18.04 61.884 18.136 62.3534 18.136C62.716 18.136 63.0307 18.0773 63.2974 17.96C63.5747 17.832 63.804 17.6667 63.9854 17.464C64.1667 17.2613 64.3054 17.0267 64.4014 16.76C64.4974 16.4827 64.5507 16.1893 64.5614 15.88V15.4H63.3134ZM67.6583 15.256C67.6583 14.6693 67.7596 14.136 67.9622 13.656C68.1649 13.176 68.4423 12.7653 68.7943 12.424C69.1463 12.072 69.5676 11.8 70.0583 11.608C70.5489 11.416 71.0823 11.32 71.6583 11.32C72.2343 11.32 72.7676 11.416 73.2583 11.608C73.7489 11.8 74.1703 12.072 74.5223 12.424C74.8743 12.7653 75.1516 13.176 75.3542 13.656C75.5569 14.136 75.6583 14.6693 75.6583 15.256C75.6583 15.8427 75.5569 16.376 75.3542 16.856C75.1516 17.336 74.8743 17.752 74.5223 18.104C74.1703 18.4453 73.7489 18.712 73.2583 18.904C72.7676 19.096 72.2343 19.192 71.6583 19.192C71.0823 19.192 70.5489 19.096 70.0583 18.904C69.5676 18.712 69.1463 18.4453 68.7943 18.104C68.4423 17.752 68.1649 17.336 67.9622 16.856C67.7596 16.376 67.6583 15.8427 67.6583 15.256ZM69.0023 15.256C69.0023 15.6507 69.0609 16.0187 69.1783 16.36C69.3063 16.6907 69.4876 16.984 69.7223 17.24C69.9569 17.4853 70.2343 17.6827 70.5543 17.832C70.8849 17.9707 71.2529 18.04 71.6583 18.04C72.0636 18.04 72.4263 17.9707 72.7463 17.832C73.0769 17.6827 73.3596 17.4853 73.5943 17.24C73.8289 16.984 74.0049 16.6907 74.1223 16.36C74.2503 16.0187 74.3143 15.6507 74.3143 15.256C74.3143 14.8613 74.2503 14.4987 74.1223 14.168C74.0049 13.8267 73.8289 13.5333 73.5943 13.288C73.3596 13.032 73.0769 12.8347 72.7463 12.696C72.4263 12.5467 72.0636 12.472 71.6583 12.472C71.2529 12.472 70.8849 12.5467 70.5543 12.696C70.2343 12.8347 69.9569 13.032 69.7223 13.288C69.4876 13.5333 69.3063 13.8267 69.1783 14.168C69.0609 14.4987 69.0023 14.8613 69.0023 15.256ZM77.7023 6.90401H78.9503V19H77.7023V6.90401ZM81.5616 11.512H82.8096V19H81.5616V11.512ZM81.2736 8.58401C81.2736 8.33868 81.359 8.12534 81.5296 7.94401C81.711 7.76268 81.9296 7.67201 82.1856 7.67201C82.4416 7.67201 82.655 7.76268 82.8256 7.94401C83.007 8.12534 83.0976 8.33868 83.0976 8.58401C83.0976 8.85068 83.0123 9.06934 82.8416 9.24001C82.671 9.41068 82.4523 9.49601 82.1856 9.49601C81.919 9.49601 81.7003 9.41068 81.5296 9.24001C81.359 9.06934 81.2736 8.85068 81.2736 8.58401ZM85.2934 13.288C85.2934 12.9467 85.2827 12.6267 85.2614 12.328C85.24 12.0293 85.2294 11.7573 85.2294 11.512H86.4134C86.4134 11.7147 86.4187 11.9173 86.4294 12.12C86.44 12.3227 86.4454 12.5307 86.4454 12.744H86.4774C86.5627 12.5627 86.68 12.3867 86.8294 12.216C86.9894 12.0453 87.176 11.896 87.3894 11.768C87.6027 11.6293 87.8427 11.5227 88.1094 11.448C88.376 11.3627 88.664 11.32 88.9734 11.32C89.464 11.32 89.8854 11.3947 90.2374 11.544C90.6 11.6933 90.8987 11.9013 91.1334 12.168C91.368 12.4347 91.5387 12.76 91.6454 13.144C91.7627 13.5173 91.8214 13.928 91.8214 14.376V19H90.5734V14.504C90.5734 13.8747 90.4347 13.3787 90.1574 13.016C89.88 12.6533 89.448 12.472 88.8614 12.472C88.456 12.472 88.104 12.5413 87.8054 12.68C87.5174 12.8187 87.2774 13.016 87.0854 13.272C86.904 13.528 86.7654 13.832 86.6694 14.184C86.584 14.536 86.5414 14.9253 86.5414 15.352V19H85.2934V13.288Z" fill="#333333"/>
<path d="M63.034 85.672C62.81 85.3093 62.5113 85.048 62.138 84.888C61.7647 84.7173 61.3753 84.632 60.97 84.632C60.6713 84.632 60.378 84.6693 60.09 84.744C59.802 84.8187 59.5407 84.9307 59.306 85.08C59.082 85.2293 58.9007 85.4267 58.762 85.672C58.6233 85.9173 58.554 86.2053 58.554 86.536C58.554 86.792 58.5913 87.0213 58.666 87.224C58.7513 87.416 58.8847 87.592 59.066 87.752C59.2473 87.912 59.4927 88.0613 59.802 88.2C60.1113 88.3387 60.49 88.4773 60.938 88.616C61.3753 88.7547 61.7967 88.904 62.202 89.064C62.618 89.224 62.9807 89.4267 63.29 89.672C63.61 89.9173 63.8607 90.2267 64.042 90.6C64.234 90.9627 64.33 91.4213 64.33 91.976C64.33 92.5413 64.218 93.032 63.994 93.448C63.77 93.864 63.4713 94.2107 63.098 94.488C62.7353 94.7547 62.314 94.952 61.834 95.08C61.354 95.2187 60.858 95.288 60.346 95.288C60.0153 95.288 59.6847 95.256 59.354 95.192C59.0233 95.1387 58.7033 95.0533 58.394 94.936C58.0953 94.808 57.8127 94.648 57.546 94.456C57.2793 94.2533 57.05 94.008 56.858 93.72L58.01 92.776C58.2553 93.192 58.5967 93.5067 59.034 93.72C59.4713 93.9333 59.9353 94.04 60.426 94.04C60.714 94.04 61.002 93.9973 61.29 93.912C61.5887 93.8267 61.8553 93.704 62.09 93.544C62.3247 93.3733 62.5167 93.1653 62.666 92.92C62.8153 92.6747 62.89 92.392 62.89 92.072C62.89 91.72 62.8313 91.4373 62.714 91.224C62.5967 91 62.4153 90.808 62.17 90.648C61.9247 90.488 61.6153 90.344 61.242 90.216C60.8687 90.088 60.4313 89.9387 59.93 89.768C59.5247 89.64 59.1513 89.496 58.81 89.336C58.4687 89.1653 58.17 88.9627 57.914 88.728C57.6687 88.4827 57.4713 88.1947 57.322 87.864C57.1833 87.5227 57.114 87.1173 57.114 86.648C57.114 86.104 57.2207 85.6293 57.434 85.224C57.6473 84.8187 57.9353 84.4827 58.298 84.216C58.6607 83.9387 59.0713 83.7307 59.53 83.592C59.9887 83.4533 60.4687 83.384 60.97 83.384C61.61 83.384 62.1913 83.4853 62.714 83.688C63.2473 83.88 63.722 84.2213 64.138 84.712L63.034 85.672ZM66.4366 87.512H67.6846V95H66.4366V87.512ZM66.1486 84.584C66.1486 84.3387 66.234 84.1253 66.4046 83.944C66.586 83.7627 66.8046 83.672 67.0606 83.672C67.3166 83.672 67.53 83.7627 67.7006 83.944C67.882 84.1253 67.9726 84.3387 67.9726 84.584C67.9726 84.8507 67.8873 85.0693 67.7166 85.24C67.546 85.4107 67.3273 85.496 67.0606 85.496C66.794 85.496 66.5753 85.4107 66.4046 85.24C66.234 85.0693 66.1486 84.8507 66.1486 84.584ZM73.5764 95H72.2004L69.1444 87.512H70.6004L72.9364 93.384H72.9684L75.1924 87.512H76.5364L73.5764 95ZM77.7911 88.472C78.1751 88.0773 78.6285 87.7893 79.1511 87.608C79.6845 87.416 80.2231 87.32 80.7671 87.32C81.8765 87.32 82.6765 87.5813 83.1671 88.104C83.6578 88.6267 83.9031 89.4213 83.9031 90.488V93.704C83.9031 93.9173 83.9138 94.1413 83.9351 94.376C83.9565 94.6 83.9831 94.808 84.0151 95H82.8151C82.7725 94.8293 82.7458 94.6427 82.7351 94.44C82.7351 94.2267 82.7351 94.04 82.7351 93.88H82.7031C82.4578 94.264 82.1271 94.5787 81.7111 94.824C81.3058 95.0693 80.8151 95.192 80.2391 95.192C79.8551 95.192 79.4925 95.144 79.1511 95.048C78.8205 94.952 78.5271 94.8133 78.2711 94.632C78.0258 94.44 77.8285 94.2053 77.6791 93.928C77.5298 93.6507 77.4551 93.3307 77.4551 92.968C77.4551 92.3493 77.6151 91.864 77.9351 91.512C78.2551 91.16 78.6498 90.8987 79.1191 90.728C79.5991 90.5573 80.1111 90.4507 80.6551 90.408C81.2098 90.3653 81.7165 90.344 82.1751 90.344H82.6551V90.12C82.6551 89.576 82.4898 89.1653 82.1591 88.888C81.8391 88.6107 81.3858 88.472 80.7991 88.472C80.3938 88.472 79.9938 88.5413 79.5991 88.68C79.2151 88.808 78.8738 89.0107 78.5751 89.288L77.7911 88.472ZM81.4071 91.4C80.6071 91.4 79.9725 91.512 79.5031 91.736C79.0338 91.96 78.7991 92.328 78.7991 92.84C78.7991 93.3093 78.9538 93.6453 79.2631 93.848C79.5831 94.04 79.9778 94.136 80.4471 94.136C80.8098 94.136 81.1245 94.0773 81.3911 93.96C81.6685 93.832 81.8978 93.6667 82.0791 93.464C82.2605 93.2613 82.3991 93.0267 82.4951 92.76C82.5911 92.4827 82.6445 92.1893 82.6551 91.88V91.4H81.4071ZM86.184 82.904H87.432V90.808L90.84 87.512H92.616L89 90.92L92.984 95H91.144L87.432 91.064V95H86.184V82.904Z" fill="#333333"/>
<path d="M44.8596 151.008C44.5183 150.549 44.097 150.208 43.5956 149.984C43.0943 149.749 42.5716 149.632 42.0276 149.632C41.3983 149.632 40.817 149.76 40.2836 150.016C39.761 150.272 39.3076 150.619 38.9236 151.056C38.5396 151.483 38.241 151.984 38.0276 152.56C37.8143 153.125 37.7076 153.717 37.7076 154.336C37.7076 154.997 37.8143 155.616 38.0276 156.192C38.241 156.757 38.5343 157.253 38.9076 157.68C39.2916 158.096 39.745 158.427 40.2676 158.672C40.801 158.917 41.3876 159.04 42.0276 159.04C42.721 159.04 43.3396 158.907 43.8836 158.64C44.4276 158.363 44.9023 157.968 45.3076 157.456L46.3156 158.304C45.8036 158.987 45.185 159.488 44.4596 159.808C43.745 160.128 42.9343 160.288 42.0276 160.288C41.217 160.288 40.4596 160.139 39.7556 159.84C39.0516 159.541 38.4383 159.131 37.9156 158.608C37.4036 158.075 36.9983 157.445 36.6996 156.72C36.4116 155.995 36.2676 155.2 36.2676 154.336C36.2676 153.504 36.4063 152.725 36.6836 152C36.9716 151.275 37.3716 150.645 37.8836 150.112C38.3956 149.579 39.0036 149.157 39.7076 148.848C40.4116 148.539 41.185 148.384 42.0276 148.384C42.7956 148.384 43.5316 148.523 44.2356 148.8C44.9503 149.077 45.5476 149.531 46.0276 150.16L44.8596 151.008ZM47.8693 153.472C48.2533 153.077 48.7066 152.789 49.2293 152.608C49.7626 152.416 50.3013 152.32 50.8453 152.32C51.9546 152.32 52.7546 152.581 53.2453 153.104C53.7359 153.627 53.9813 154.421 53.9813 155.488V158.704C53.9813 158.917 53.9919 159.141 54.0133 159.376C54.0346 159.6 54.0613 159.808 54.0933 160H52.8933C52.8506 159.829 52.8239 159.643 52.8133 159.44C52.8133 159.227 52.8133 159.04 52.8133 158.88H52.7813C52.5359 159.264 52.2053 159.579 51.7893 159.824C51.3839 160.069 50.8933 160.192 50.3173 160.192C49.9333 160.192 49.5706 160.144 49.2293 160.048C48.8986 159.952 48.6053 159.813 48.3493 159.632C48.1039 159.44 47.9066 159.205 47.7573 158.928C47.6079 158.651 47.5333 158.331 47.5333 157.968C47.5333 157.349 47.6933 156.864 48.0133 156.512C48.3333 156.16 48.7279 155.899 49.1973 155.728C49.6773 155.557 50.1893 155.451 50.7333 155.408C51.2879 155.365 51.7946 155.344 52.2533 155.344H52.7333V155.12C52.7333 154.576 52.5679 154.165 52.2373 153.888C51.9173 153.611 51.4639 153.472 50.8773 153.472C50.4719 153.472 50.0719 153.541 49.6773 153.68C49.2933 153.808 48.9519 154.011 48.6533 154.288L47.8693 153.472ZM51.4852 156.4C50.6853 156.4 50.0506 156.512 49.5813 156.736C49.1119 156.96 48.8773 157.328 48.8773 157.84C48.8773 158.309 49.0319 158.645 49.3413 158.848C49.6613 159.04 50.0559 159.136 50.5253 159.136C50.8879 159.136 51.2026 159.077 51.4693 158.96C51.7466 158.832 51.9759 158.667 52.1573 158.464C52.3386 158.261 52.4773 158.027 52.5733 157.76C52.6693 157.483 52.7226 157.189 52.7333 156.88V156.4H51.4852ZM56.3741 147.904H57.6221V160H56.3741V147.904ZM65.4339 154.384C65.1672 154.064 64.8792 153.835 64.5699 153.696C64.2605 153.547 63.9192 153.472 63.5459 153.472C63.1299 153.472 62.7619 153.547 62.4419 153.696C62.1219 153.835 61.8552 154.032 61.6419 154.288C61.4392 154.544 61.2845 154.843 61.1779 155.184C61.0712 155.515 61.0179 155.872 61.0179 156.256C61.0179 156.64 61.0765 157.003 61.1939 157.344C61.3219 157.675 61.4925 157.968 61.7059 158.224C61.9299 158.48 62.1965 158.683 62.5059 158.832C62.8152 158.971 63.1619 159.04 63.5459 159.04C64.3672 159.04 65.0019 158.731 65.4499 158.112L66.3779 158.992C66.0152 159.408 65.5885 159.712 65.0979 159.904C64.6072 160.096 64.0899 160.192 63.5459 160.192C62.9699 160.192 62.4419 160.096 61.9619 159.904C61.4819 159.712 61.0712 159.44 60.7299 159.088C60.3992 158.736 60.1379 158.32 59.9459 157.84C59.7645 157.36 59.6739 156.832 59.6739 156.256C59.6739 155.691 59.7645 155.168 59.9459 154.688C60.1379 154.208 60.4045 153.792 60.7459 153.44C61.0872 153.088 61.4925 152.816 61.9619 152.624C62.4419 152.421 62.9699 152.32 63.5459 152.32C64.1005 152.32 64.6232 152.416 65.1139 152.608C65.6152 152.8 66.0525 153.099 66.4259 153.504L65.4339 154.384ZM67.9366 152.512H69.1846V160H67.9366V152.512ZM67.6486 149.584C67.6486 149.339 67.734 149.125 67.9046 148.944C68.086 148.763 68.3046 148.672 68.5606 148.672C68.8166 148.672 69.03 148.763 69.2006 148.944C69.382 149.125 69.4726 149.339 69.4726 149.584C69.4726 149.851 69.3873 150.069 69.2166 150.24C69.046 150.411 68.8273 150.496 68.5606 150.496C68.294 150.496 68.0753 150.411 67.9046 150.24C67.734 150.069 67.6486 149.851 67.6486 149.584ZM78.1964 158.224C78.1964 158.565 78.207 158.885 78.2284 159.184C78.2497 159.483 78.2604 159.755 78.2604 160H77.0764C77.0764 159.797 77.071 159.595 77.0604 159.392C77.0497 159.189 77.0444 158.981 77.0444 158.768H77.0124C76.927 158.949 76.8044 159.125 76.6444 159.296C76.495 159.467 76.3137 159.621 76.1004 159.76C75.887 159.888 75.647 159.989 75.3804 160.064C75.1137 160.149 74.8257 160.192 74.5164 160.192C74.0257 160.192 73.599 160.117 73.2364 159.968C72.8844 159.819 72.591 159.611 72.3564 159.344C72.1217 159.077 71.9457 158.757 71.8284 158.384C71.7217 158 71.6684 157.584 71.6684 157.136V152.512H72.9164V157.008C72.9164 157.637 73.055 158.133 73.3324 158.496C73.6097 158.859 74.0417 159.04 74.6284 159.04C75.0337 159.04 75.3804 158.971 75.6684 158.832C75.967 158.693 76.207 158.496 76.3884 158.24C76.5804 157.984 76.719 157.68 76.8044 157.328C76.9004 156.976 76.9484 156.587 76.9484 156.16V152.512H78.1964V158.224ZM80.559 154.288C80.559 153.947 80.5483 153.627 80.527 153.328C80.5057 153.029 80.495 152.757 80.495 152.512H81.679C81.679 152.715 81.6843 152.917 81.695 153.12C81.7057 153.323 81.711 153.531 81.711 153.744H81.743C81.8283 153.563 81.9457 153.387 82.095 153.216C82.255 153.045 82.4417 152.896 82.655 152.768C82.8683 152.629 83.1083 152.523 83.375 152.448C83.6417 152.363 83.9297 152.32 84.239 152.32C84.6443 152.32 84.9803 152.373 85.247 152.48C85.5243 152.576 85.7537 152.699 85.935 152.848C86.1163 152.987 86.255 153.141 86.351 153.312C86.4577 153.472 86.543 153.616 86.607 153.744C86.8843 153.296 87.2043 152.949 87.567 152.704C87.9297 152.448 88.399 152.32 88.975 152.32C89.5083 152.32 89.9563 152.395 90.319 152.544C90.6817 152.683 90.975 152.891 91.199 153.168C91.423 153.435 91.583 153.765 91.679 154.16C91.775 154.544 91.823 154.976 91.823 155.456V160H90.575V155.52C90.575 155.264 90.5483 155.013 90.495 154.768C90.4417 154.523 90.3457 154.304 90.207 154.112C90.0683 153.92 89.8817 153.765 89.647 153.648C89.4123 153.531 89.1137 153.472 88.751 153.472C88.4843 153.472 88.2337 153.525 87.999 153.632C87.7643 153.739 87.5563 153.888 87.375 154.08C87.2043 154.272 87.0657 154.507 86.959 154.784C86.863 155.051 86.815 155.349 86.815 155.68V160H85.567V155.76C85.567 154.928 85.455 154.341 85.231 154C85.007 153.648 84.639 153.472 84.127 153.472C83.7217 153.472 83.3697 153.541 83.071 153.68C82.783 153.819 82.543 154.016 82.351 154.272C82.1697 154.528 82.031 154.832 81.935 155.184C81.8497 155.536 81.807 155.925 81.807 156.352V160H80.559V154.288ZM26.1721 175.008C25.8308 174.549 25.4095 174.208 24.9081 173.984C24.4068 173.749 23.8841 173.632 23.3401 173.632C22.7108 173.632 22.1295 173.76 21.5961 174.016C21.0735 174.272 20.6201 174.619 20.2361 175.056C19.8521 175.483 19.5535 175.984 19.3401 176.56C19.1268 177.125 19.0201 177.717 19.0201 178.336C19.0201 178.997 19.1268 179.616 19.3401 180.192C19.5535 180.757 19.8468 181.253 20.2201 181.68C20.6041 182.096 21.0575 182.427 21.5801 182.672C22.1135 182.917 22.7001 183.04 23.3401 183.04C24.0335 183.04 24.6521 182.907 25.1961 182.64C25.7401 182.363 26.2148 181.968 26.6201 181.456L27.6281 182.304C27.1161 182.987 26.4975 183.488 25.7721 183.808C25.0575 184.128 24.2468 184.288 23.3401 184.288C22.5295 184.288 21.7721 184.139 21.0681 183.84C20.3641 183.541 19.7508 183.131 19.2281 182.608C18.7161 182.075 18.3108 181.445 18.0121 180.72C17.7241 179.995 17.5801 179.2 17.5801 178.336C17.5801 177.504 17.7188 176.725 17.9961 176C18.2841 175.275 18.6841 174.645 19.1961 174.112C19.7081 173.579 20.3161 173.157 21.0201 172.848C21.7241 172.539 22.4975 172.384 23.3401 172.384C24.1081 172.384 24.8441 172.523 25.5481 172.8C26.2628 173.077 26.8601 173.531 27.3401 174.16L26.1721 175.008ZM29.1818 177.472C29.5658 177.077 30.0191 176.789 30.5418 176.608C31.0751 176.416 31.6138 176.32 32.1578 176.32C33.2671 176.32 34.0671 176.581 34.5578 177.104C35.0484 177.627 35.2938 178.421 35.2938 179.488V182.704C35.2938 182.917 35.3044 183.141 35.3258 183.376C35.3471 183.6 35.3738 183.808 35.4058 184H34.2058C34.1631 183.829 34.1364 183.643 34.1258 183.44C34.1258 183.227 34.1258 183.04 34.1258 182.88H34.0938C33.8484 183.264 33.5178 183.579 33.1018 183.824C32.6964 184.069 32.2058 184.192 31.6298 184.192C31.2458 184.192 30.8831 184.144 30.5418 184.048C30.2111 183.952 29.9178 183.813 29.6618 183.632C29.4164 183.44 29.2191 183.205 29.0698 182.928C28.9204 182.651 28.8458 182.331 28.8458 181.968C28.8458 181.349 29.0058 180.864 29.3258 180.512C29.6458 180.16 30.0404 179.899 30.5098 179.728C30.9898 179.557 31.5018 179.451 32.0458 179.408C32.6004 179.365 33.1071 179.344 33.5658 179.344H34.0458V179.12C34.0458 178.576 33.8804 178.165 33.5498 177.888C33.2298 177.611 32.7764 177.472 32.1898 177.472C31.7844 177.472 31.3844 177.541 30.9898 177.68C30.6058 177.808 30.2644 178.011 29.9658 178.288L29.1818 177.472ZM32.7977 180.4C31.9978 180.4 31.3631 180.512 30.8938 180.736C30.4244 180.96 30.1898 181.328 30.1898 181.84C30.1898 182.309 30.3444 182.645 30.6538 182.848C30.9738 183.04 31.3684 183.136 31.8378 183.136C32.2004 183.136 32.5151 183.077 32.7818 182.96C33.0591 182.832 33.2884 182.667 33.4698 182.464C33.6511 182.261 33.7898 182.027 33.8858 181.76C33.9818 181.483 34.0351 181.189 34.0458 180.88V180.4H32.7977ZM37.5746 178.288C37.5746 177.947 37.564 177.627 37.5426 177.328C37.5213 177.029 37.5106 176.757 37.5106 176.512H38.6946C38.6946 176.715 38.7 176.917 38.7106 177.12C38.7213 177.323 38.7266 177.531 38.7266 177.744H38.7586C38.844 177.563 38.9613 177.387 39.1106 177.216C39.2706 177.045 39.4573 176.896 39.6706 176.768C39.884 176.629 40.124 176.523 40.3906 176.448C40.6573 176.363 40.9453 176.32 41.2546 176.32C41.34 176.32 41.4253 176.325 41.5106 176.336C41.596 176.347 41.6813 176.368 41.7666 176.4L41.6866 177.664C41.4733 177.6 41.2493 177.568 41.0146 177.568C40.2466 177.568 39.6866 177.819 39.3346 178.32C38.9933 178.811 38.8226 179.488 38.8226 180.352V184H37.5746V178.288ZM43.1356 171.904H44.3836V177.6H44.4156C44.757 177.195 45.1516 176.88 45.5996 176.656C46.0583 176.432 46.5596 176.32 47.1036 176.32C47.6903 176.32 48.2236 176.421 48.7036 176.624C49.1943 176.816 49.6103 177.088 49.9516 177.44C50.293 177.792 50.5596 178.208 50.7516 178.688C50.9436 179.168 51.0396 179.691 51.0396 180.256C51.0396 180.821 50.9436 181.344 50.7516 181.824C50.5596 182.304 50.293 182.72 49.9516 183.072C49.621 183.424 49.2263 183.701 48.7676 183.904C48.309 184.096 47.8183 184.192 47.2956 184.192C46.6236 184.192 46.0316 184.048 45.5196 183.76C45.0183 183.461 44.6503 183.099 44.4156 182.672H44.3836V184H43.1356V171.904ZM44.3836 180.256C44.3836 180.651 44.4423 181.019 44.5596 181.36C44.6876 181.691 44.869 181.984 45.1036 182.24C45.3383 182.485 45.6156 182.683 45.9356 182.832C46.2663 182.971 46.6343 183.04 47.0396 183.04C47.445 183.04 47.8076 182.971 48.1276 182.832C48.4583 182.683 48.741 182.485 48.9756 182.24C49.2103 181.984 49.3863 181.691 49.5036 181.36C49.6316 181.019 49.6956 180.651 49.6956 180.256C49.6956 179.861 49.6316 179.499 49.5036 179.168C49.3863 178.827 49.2103 178.533 48.9756 178.288C48.741 178.032 48.4583 177.835 48.1276 177.696C47.8076 177.547 47.445 177.472 47.0396 177.472C46.6343 177.472 46.2663 177.547 45.9356 177.696C45.6156 177.835 45.3383 178.032 45.1036 178.288C44.869 178.533 44.6876 178.827 44.5596 179.168C44.4423 179.499 44.3836 179.861 44.3836 180.256ZM52.5489 180.256C52.5489 179.669 52.6502 179.136 52.8529 178.656C53.0555 178.176 53.3329 177.765 53.6849 177.424C54.0369 177.072 54.4582 176.8 54.9489 176.608C55.4395 176.416 55.9729 176.32 56.5489 176.32C57.1249 176.32 57.6582 176.416 58.1489 176.608C58.6395 176.8 59.0609 177.072 59.4129 177.424C59.7649 177.765 60.0422 178.176 60.2449 178.656C60.4475 179.136 60.5489 179.669 60.5489 180.256C60.5489 180.843 60.4475 181.376 60.2449 181.856C60.0422 182.336 59.7649 182.752 59.4129 183.104C59.0609 183.445 58.6395 183.712 58.1489 183.904C57.6582 184.096 57.1249 184.192 56.5489 184.192C55.9729 184.192 55.4395 184.096 54.9489 183.904C54.4582 183.712 54.0369 183.445 53.6849 183.104C53.3329 182.752 53.0555 182.336 52.8529 181.856C52.6502 181.376 52.5489 180.843 52.5489 180.256ZM53.8929 180.256C53.8929 180.651 53.9515 181.019 54.0689 181.36C54.1969 181.691 54.3782 181.984 54.6129 182.24C54.8475 182.485 55.1249 182.683 55.4449 182.832C55.7755 182.971 56.1435 183.04 56.5489 183.04C56.9542 183.04 57.3169 182.971 57.6369 182.832C57.9675 182.683 58.2502 182.485 58.4849 182.24C58.7195 181.984 58.8955 181.691 59.0129 181.36C59.1409 181.019 59.2049 180.651 59.2049 180.256C59.2049 179.861 59.1409 179.499 59.0129 179.168C58.8955 178.827 58.7195 178.533 58.4849 178.288C58.2502 178.032 57.9675 177.835 57.6369 177.696C57.3169 177.547 56.9542 177.472 56.5489 177.472C56.1435 177.472 55.7755 177.547 55.4449 177.696C55.1249 177.835 54.8475 178.032 54.6129 178.288C54.3782 178.533 54.1969 178.827 54.0689 179.168C53.9515 179.499 53.8929 179.861 53.8929 180.256ZM62.4809 178.288C62.4809 177.947 62.4702 177.627 62.4489 177.328C62.4275 177.029 62.4169 176.757 62.4169 176.512H63.6009C63.6009 176.715 63.6062 176.917 63.6169 177.12C63.6275 177.323 63.6329 177.531 63.6329 177.744H63.6649C63.7502 177.563 63.8675 177.387 64.0169 177.216C64.1769 177.045 64.3635 176.896 64.5769 176.768C64.7902 176.629 65.0302 176.523 65.2969 176.448C65.5635 176.363 65.8515 176.32 66.1609 176.32C66.6515 176.32 67.0729 176.395 67.4249 176.544C67.7875 176.693 68.0862 176.901 68.3209 177.168C68.5555 177.435 68.7262 177.76 68.8329 178.144C68.9502 178.517 69.0089 178.928 69.0089 179.376V184H67.7609V179.504C67.7609 178.875 67.6222 178.379 67.3449 178.016C67.0675 177.653 66.6355 177.472 66.0489 177.472C65.6435 177.472 65.2915 177.541 64.9929 177.68C64.7049 177.819 64.4649 178.016 64.2729 178.272C64.0915 178.528 63.9529 178.832 63.8569 179.184C63.7715 179.536 63.7289 179.925 63.7289 180.352V184H62.4809V178.288ZM71.2755 177.472C71.6595 177.077 72.1128 176.789 72.6355 176.608C73.1688 176.416 73.7075 176.32 74.2515 176.32C75.3608 176.32 76.1608 176.581 76.6515 177.104C77.1422 177.627 77.3875 178.421 77.3875 179.488V182.704C77.3875 182.917 77.3982 183.141 77.4195 183.376C77.4408 183.6 77.4675 183.808 77.4995 184H76.2995C76.2568 183.829 76.2302 183.643 76.2195 183.44C76.2195 183.227 76.2195 183.04 76.2195 182.88H76.1875C75.9422 183.264 75.6115 183.579 75.1955 183.824C74.7902 184.069 74.2995 184.192 73.7235 184.192C73.3395 184.192 72.9768 184.144 72.6355 184.048C72.3048 183.952 72.0115 183.813 71.7555 183.632C71.5102 183.44 71.3128 183.205 71.1635 182.928C71.0142 182.651 70.9395 182.331 70.9395 181.968C70.9395 181.349 71.0995 180.864 71.4195 180.512C71.7395 180.16 72.1342 179.899 72.6035 179.728C73.0835 179.557 73.5955 179.451 74.1395 179.408C74.6942 179.365 75.2008 179.344 75.6595 179.344H76.1395V179.12C76.1395 178.576 75.9742 178.165 75.6435 177.888C75.3235 177.611 74.8702 177.472 74.2835 177.472C73.8782 177.472 73.4782 177.541 73.0835 177.68C72.6995 177.808 72.3582 178.011 72.0595 178.288L71.2755 177.472ZM74.8915 180.4C74.0915 180.4 73.4568 180.512 72.9875 180.736C72.5182 180.96 72.2835 181.328 72.2835 181.84C72.2835 182.309 72.4382 182.645 72.7475 182.848C73.0675 183.04 73.4622 183.136 73.9315 183.136C74.2942 183.136 74.6088 183.077 74.8755 182.96C75.1528 182.832 75.3822 182.667 75.5635 182.464C75.7448 182.261 75.8835 182.027 75.9795 181.76C76.0755 181.483 76.1288 181.189 76.1395 180.88V180.4H74.8915ZM83.7644 177.568H81.5564V181.312C81.5564 181.557 81.5617 181.787 81.5724 182C81.583 182.203 81.6257 182.384 81.7004 182.544C81.775 182.693 81.887 182.816 82.0364 182.912C82.1857 182.997 82.399 183.04 82.6764 183.04C82.8577 183.04 83.0444 183.019 83.2364 182.976C83.4284 182.933 83.6097 182.869 83.7804 182.784L83.8284 183.92C83.615 184.016 83.375 184.085 83.1084 184.128C82.8524 184.171 82.607 184.192 82.3724 184.192C81.9244 184.192 81.567 184.133 81.3004 184.016C81.0337 183.899 80.8257 183.733 80.6764 183.52C80.527 183.307 80.4257 183.045 80.3724 182.736C80.3297 182.416 80.3084 182.064 80.3084 181.68V177.568H78.6764V176.512H80.3084V174.384H81.5564V176.512H83.7644V177.568ZM91.9814 182.64C91.5334 183.216 91.0427 183.621 90.5094 183.856C89.976 184.08 89.3574 184.192 88.6534 184.192C88.0667 184.192 87.5387 184.091 87.0694 183.888C86.6 183.675 86.2 183.392 85.8694 183.04C85.5494 182.688 85.2987 182.272 85.1174 181.792C84.9467 181.312 84.8614 180.8 84.8614 180.256C84.8614 179.68 84.9574 179.152 85.1494 178.672C85.3414 178.181 85.608 177.765 85.9494 177.424C86.2907 177.072 86.696 176.8 87.1654 176.608C87.6347 176.416 88.1467 176.32 88.7014 176.32C89.224 176.32 89.704 176.411 90.1414 176.592C90.5787 176.763 90.952 177.019 91.2614 177.36C91.5814 177.691 91.8267 178.101 91.9974 178.592C92.168 179.072 92.2534 179.621 92.2534 180.24V180.64H86.2054C86.2267 180.96 86.3014 181.269 86.4294 181.568C86.568 181.856 86.744 182.112 86.9574 182.336C87.1707 182.549 87.4214 182.72 87.7094 182.848C87.9974 182.976 88.312 183.04 88.6534 183.04C89.1974 183.04 89.656 182.944 90.0294 182.752C90.4027 182.56 90.7387 182.277 91.0374 181.904L91.9814 182.64ZM90.9094 179.584C90.888 178.944 90.68 178.432 90.2854 178.048C89.8907 177.664 89.3467 177.472 88.6534 177.472C87.96 177.472 87.4 177.664 86.9734 178.048C86.5467 178.432 86.2907 178.944 86.2054 179.584H90.9094Z" fill="#333333"/>
<path d="M113 18L189 18V17L113 17V18Z" fill="#333333"/>
<path d="M113 91L189 91V90L113 90V91Z" fill="#333333"/>
<path d="M113 167H189V166H113V167Z" fill="#333333"/>
<path d="M113 240H189V239H113V240Z" fill="#333333"/>
<path d="M113 312H189V311H113V312Z" fill="#333333"/>
<path d="M0.408005 232.672H1.752V242.752H6.936V244H0.408005V232.672ZM8.296 236.512H9.544V244H8.296V236.512ZM8.00801 233.584C8.00801 233.339 8.09333 233.125 8.264 232.944C8.44533 232.763 8.664 232.672 8.92 232.672C9.176 232.672 9.38934 232.763 9.56001 232.944C9.74134 233.125 9.832 233.339 9.832 233.584C9.832 233.851 9.74667 234.069 9.576 234.24C9.40533 234.411 9.18667 234.496 8.92 234.496C8.65333 234.496 8.43467 234.411 8.264 234.24C8.09333 234.069 8.00801 233.851 8.00801 233.584ZM17.3558 238.384C17.0891 238.064 16.8011 237.835 16.4918 237.696C16.1824 237.547 15.8411 237.472 15.4678 237.472C15.0518 237.472 14.6838 237.547 14.3638 237.696C14.0438 237.835 13.7771 238.032 13.5638 238.288C13.3611 238.544 13.2064 238.843 13.0998 239.184C12.9931 239.515 12.9398 239.872 12.9398 240.256C12.9398 240.64 12.9984 241.003 13.1158 241.344C13.2438 241.675 13.4144 241.968 13.6278 242.224C13.8518 242.48 14.1184 242.683 14.4278 242.832C14.7371 242.971 15.0838 243.04 15.4678 243.04C16.2891 243.04 16.9238 242.731 17.3718 242.112L18.2998 242.992C17.9371 243.408 17.5104 243.712 17.0198 243.904C16.5291 244.096 16.0118 244.192 15.4678 244.192C14.8918 244.192 14.3638 244.096 13.8838 243.904C13.4038 243.712 12.9931 243.44 12.6518 243.088C12.3211 242.736 12.0598 242.32 11.8678 241.84C11.6864 241.36 11.5958 240.832 11.5958 240.256C11.5958 239.691 11.6864 239.168 11.8678 238.688C12.0598 238.208 12.3264 237.792 12.6678 237.44C13.0091 237.088 13.4144 236.816 13.8838 236.624C14.3638 236.421 14.8918 236.32 15.4678 236.32C16.0224 236.32 16.5451 236.416 17.0358 236.608C17.5371 236.8 17.9744 237.099 18.3478 237.504L17.3558 238.384ZM19.3145 240.256C19.3145 239.669 19.4158 239.136 19.6185 238.656C19.8212 238.176 20.0985 237.765 20.4505 237.424C20.8025 237.072 21.2238 236.8 21.7145 236.608C22.2052 236.416 22.7385 236.32 23.3145 236.32C23.8905 236.32 24.4238 236.416 24.9145 236.608C25.4052 236.8 25.8265 237.072 26.1785 237.424C26.5305 237.765 26.8078 238.176 27.0105 238.656C27.2132 239.136 27.3145 239.669 27.3145 240.256C27.3145 240.843 27.2132 241.376 27.0105 241.856C26.8078 242.336 26.5305 242.752 26.1785 243.104C25.8265 243.445 25.4052 243.712 24.9145 243.904C24.4238 244.096 23.8905 244.192 23.3145 244.192C22.7385 244.192 22.2052 244.096 21.7145 243.904C21.2238 243.712 20.8025 243.445 20.4505 243.104C20.0985 242.752 19.8212 242.336 19.6185 241.856C19.4158 241.376 19.3145 240.843 19.3145 240.256ZM20.6585 240.256C20.6585 240.651 20.7172 241.019 20.8345 241.36C20.9625 241.691 21.1438 241.984 21.3785 242.24C21.6132 242.485 21.8905 242.683 22.2105 242.832C22.5412 242.971 22.9092 243.04 23.3145 243.04C23.7198 243.04 24.0825 242.971 24.4025 242.832C24.7332 242.683 25.0158 242.485 25.2505 242.24C25.4852 241.984 25.6612 241.691 25.7785 241.36C25.9065 241.019 25.9705 240.651 25.9705 240.256C25.9705 239.861 25.9065 239.499 25.7785 239.168C25.6612 238.827 25.4852 238.533 25.2505 238.288C25.0158 238.032 24.7332 237.835 24.4025 237.696C24.0825 237.547 23.7198 237.472 23.3145 237.472C22.9092 237.472 22.5412 237.547 22.2105 237.696C21.8905 237.835 21.6132 238.032 21.3785 238.288C21.1438 238.533 20.9625 238.827 20.8345 239.168C20.7172 239.499 20.6585 239.861 20.6585 240.256ZM29.2465 238.288C29.2465 237.947 29.2358 237.627 29.2145 237.328C29.1932 237.029 29.1825 236.757 29.1825 236.512H30.3665C30.3665 236.715 30.3718 236.917 30.3825 237.12C30.3932 237.323 30.3985 237.531 30.3985 237.744H30.4305C30.5158 237.563 30.6332 237.387 30.7825 237.216C30.9425 237.045 31.1292 236.896 31.3425 236.768C31.5558 236.629 31.7958 236.523 32.0625 236.448C32.3292 236.363 32.6172 236.32 32.9265 236.32C33.0118 236.32 33.0972 236.325 33.1825 236.336C33.2678 236.347 33.3532 236.368 33.4385 236.4L33.3585 237.664C33.1452 237.6 32.9212 237.568 32.6865 237.568C31.9185 237.568 31.3585 237.819 31.0065 238.32C30.6652 238.811 30.4945 239.488 30.4945 240.352V244H29.2465V238.288ZM34.9835 236.512H36.2315V244H34.9835V236.512ZM34.6955 233.584C34.6955 233.339 34.7808 233.125 34.9515 232.944C35.1328 232.763 35.3515 232.672 35.6075 232.672C35.8635 232.672 36.0768 232.763 36.2475 232.944C36.4288 233.125 36.5195 233.339 36.5195 233.584C36.5195 233.851 36.4342 234.069 36.2635 234.24C36.0928 234.411 35.8742 234.496 35.6075 234.496C35.3408 234.496 35.1222 234.411 34.9515 234.24C34.7808 234.069 34.6955 233.851 34.6955 233.584ZM44.0433 238.384C43.7766 238.064 43.4886 237.835 43.1793 237.696C42.8699 237.547 42.5286 237.472 42.1553 237.472C41.7393 237.472 41.3713 237.547 41.0513 237.696C40.7313 237.835 40.4646 238.032 40.2513 238.288C40.0486 238.544 39.8939 238.843 39.7873 239.184C39.6806 239.515 39.6273 239.872 39.6273 240.256C39.6273 240.64 39.6859 241.003 39.8033 241.344C39.9313 241.675 40.1019 241.968 40.3153 242.224C40.5393 242.48 40.8059 242.683 41.1153 242.832C41.4246 242.971 41.7713 243.04 42.1553 243.04C42.9766 243.04 43.6113 242.731 44.0593 242.112L44.9873 242.992C44.6246 243.408 44.1979 243.712 43.7073 243.904C43.2166 244.096 42.6993 244.192 42.1553 244.192C41.5793 244.192 41.0513 244.096 40.5713 243.904C40.0913 243.712 39.6806 243.44 39.3393 243.088C39.0086 242.736 38.7473 242.32 38.5553 241.84C38.3739 241.36 38.2833 240.832 38.2833 240.256C38.2833 239.691 38.3739 239.168 38.5553 238.688C38.7473 238.208 39.0139 237.792 39.3553 237.44C39.6966 237.088 40.1019 236.816 40.5713 236.624C41.0513 236.421 41.5793 236.32 42.1553 236.32C42.7099 236.32 43.2326 236.416 43.7233 236.608C44.2246 236.8 44.6619 237.099 45.0353 237.504L44.0433 238.384ZM53.122 242.64C52.674 243.216 52.1833 243.621 51.65 243.856C51.1167 244.08 50.498 244.192 49.794 244.192C49.2073 244.192 48.6793 244.091 48.21 243.888C47.7407 243.675 47.3407 243.392 47.01 243.04C46.69 242.688 46.4393 242.272 46.258 241.792C46.0873 241.312 46.002 240.8 46.002 240.256C46.002 239.68 46.098 239.152 46.29 238.672C46.482 238.181 46.7487 237.765 47.09 237.424C47.4313 237.072 47.8367 236.8 48.306 236.608C48.7753 236.416 49.2873 236.32 49.842 236.32C50.3647 236.32 50.8447 236.411 51.282 236.592C51.7193 236.763 52.0927 237.019 52.402 237.36C52.722 237.691 52.9673 238.101 53.138 238.592C53.3087 239.072 53.394 239.621 53.394 240.24V240.64H47.346C47.3673 240.96 47.442 241.269 47.57 241.568C47.7087 241.856 47.8847 242.112 48.098 242.336C48.3113 242.549 48.562 242.72 48.85 242.848C49.138 242.976 49.4527 243.04 49.794 243.04C50.338 243.04 50.7967 242.944 51.17 242.752C51.5433 242.56 51.8793 242.277 52.178 241.904L53.122 242.64ZM52.05 239.584C52.0287 238.944 51.8207 238.432 51.426 238.048C51.0313 237.664 50.4873 237.472 49.794 237.472C49.1007 237.472 48.5407 237.664 48.114 238.048C47.6873 238.432 47.4313 238.944 47.346 239.584H52.05ZM60.0018 232.672H62.8978C63.4418 232.672 63.9804 232.704 64.5138 232.768C65.0578 232.832 65.5431 232.971 65.9698 233.184C66.3964 233.397 66.7431 233.712 67.0098 234.128C67.2764 234.533 67.4097 235.088 67.4097 235.792C67.4097 236.624 67.1591 237.296 66.6578 237.808C66.1564 238.32 65.4631 238.645 64.5778 238.784L67.7938 244H66.1458L63.0738 238.912H61.3458V244H60.0018V232.672ZM61.3458 237.664H62.5458C62.9191 237.664 63.3031 237.653 63.6978 237.632C64.1031 237.611 64.4711 237.541 64.8018 237.424C65.1431 237.307 65.4204 237.125 65.6338 236.88C65.8578 236.624 65.9698 236.261 65.9698 235.792C65.9698 235.387 65.8898 235.061 65.7298 234.816C65.5698 234.571 65.3564 234.384 65.0898 234.256C64.8338 234.117 64.5404 234.027 64.2098 233.984C63.8898 233.941 63.5644 233.92 63.2338 233.92H61.3458V237.664ZM69.127 240.256C69.127 239.669 69.2283 239.136 69.431 238.656C69.6337 238.176 69.911 237.765 70.263 237.424C70.615 237.072 71.0363 236.8 71.527 236.608C72.0177 236.416 72.551 236.32 73.127 236.32C73.703 236.32 74.2363 236.416 74.727 236.608C75.2177 236.8 75.639 237.072 75.991 237.424C76.343 237.765 76.6203 238.176 76.823 238.656C77.0257 239.136 77.127 239.669 77.127 240.256C77.127 240.843 77.0257 241.376 76.823 241.856C76.6203 242.336 76.343 242.752 75.991 243.104C75.639 243.445 75.2177 243.712 74.727 243.904C74.2363 244.096 73.703 244.192 73.127 244.192C72.551 244.192 72.0177 244.096 71.527 243.904C71.0363 243.712 70.615 243.445 70.263 243.104C69.911 242.752 69.6337 242.336 69.431 241.856C69.2283 241.376 69.127 240.843 69.127 240.256ZM70.471 240.256C70.471 240.651 70.5297 241.019 70.647 241.36C70.775 241.691 70.9563 241.984 71.191 242.24C71.4257 242.485 71.703 242.683 72.023 242.832C72.3537 242.971 72.7217 243.04 73.127 243.04C73.5323 243.04 73.895 242.971 74.215 242.832C74.5457 242.683 74.8283 242.485 75.063 242.24C75.2977 241.984 75.4737 241.691 75.591 241.36C75.719 241.019 75.783 240.651 75.783 240.256C75.783 239.861 75.719 239.499 75.591 239.168C75.4737 238.827 75.2977 238.533 75.063 238.288C74.8283 238.032 74.5457 237.835 74.215 237.696C73.895 237.547 73.5323 237.472 73.127 237.472C72.7217 237.472 72.3537 237.547 72.023 237.696C71.703 237.835 71.4257 238.032 71.191 238.288C70.9563 238.533 70.775 238.827 70.647 239.168C70.5297 239.499 70.471 239.861 70.471 240.256ZM78.627 240.256C78.627 239.669 78.7283 239.136 78.931 238.656C79.1337 238.176 79.411 237.765 79.763 237.424C80.115 237.072 80.5363 236.8 81.027 236.608C81.5177 236.416 82.051 236.32 82.627 236.32C83.203 236.32 83.7363 236.416 84.227 236.608C84.7177 236.8 85.139 237.072 85.491 237.424C85.843 237.765 86.1203 238.176 86.323 238.656C86.5257 239.136 86.627 239.669 86.627 240.256C86.627 240.843 86.5257 241.376 86.323 241.856C86.1203 242.336 85.843 242.752 85.491 243.104C85.139 243.445 84.7177 243.712 84.227 243.904C83.7363 244.096 83.203 244.192 82.627 244.192C82.051 244.192 81.5177 244.096 81.027 243.904C80.5363 243.712 80.115 243.445 79.763 243.104C79.411 242.752 79.1337 242.336 78.931 241.856C78.7283 241.376 78.627 240.843 78.627 240.256ZM79.971 240.256C79.971 240.651 80.0297 241.019 80.147 241.36C80.275 241.691 80.4563 241.984 80.691 242.24C80.9257 242.485 81.203 242.683 81.523 242.832C81.8537 242.971 82.2217 243.04 82.627 243.04C83.0323 243.04 83.395 242.971 83.715 242.832C84.0457 242.683 84.3283 242.485 84.563 242.24C84.7977 241.984 84.9737 241.691 85.091 241.36C85.219 241.019 85.283 240.651 85.283 240.256C85.283 239.861 85.219 239.499 85.091 239.168C84.9737 238.827 84.7977 238.533 84.563 238.288C84.3283 238.032 84.0457 237.835 83.715 237.696C83.395 237.547 83.0323 237.472 82.627 237.472C82.2217 237.472 81.8537 237.547 81.523 237.696C81.203 237.835 80.9257 238.032 80.691 238.288C80.4563 238.533 80.275 238.827 80.147 239.168C80.0297 239.499 79.971 239.861 79.971 240.256ZM92.655 237.568H90.447V241.312C90.447 241.557 90.4523 241.787 90.463 242C90.4737 242.203 90.5163 242.384 90.591 242.544C90.6657 242.693 90.7777 242.816 90.927 242.912C91.0763 242.997 91.2897 243.04 91.567 243.04C91.7483 243.04 91.935 243.019 92.127 242.976C92.319 242.933 92.5003 242.869 92.671 242.784L92.719 243.92C92.5057 244.016 92.2657 244.085 91.999 244.128C91.743 244.171 91.4977 244.192 91.263 244.192C90.815 244.192 90.4577 244.133 90.191 244.016C89.9243 243.899 89.7163 243.733 89.567 243.52C89.4177 243.307 89.3163 243.045 89.263 242.736C89.2203 242.416 89.199 242.064 89.199 241.68V237.568H87.567V236.512H89.199V234.384H90.447V236.512H92.655V237.568Z" fill="#333333"/>
<path d="M40.0705 306.92H36.3265V317H34.9825V306.92H31.2385V305.672H40.0705V306.92ZM46.4933 315.224C46.4933 315.565 46.5039 315.885 46.5253 316.184C46.5466 316.483 46.5573 316.755 46.5573 317H45.3733C45.3733 316.797 45.3679 316.595 45.3573 316.392C45.3466 316.189 45.3413 315.981 45.3413 315.768H45.3093C45.2239 315.949 45.1013 316.125 44.9413 316.296C44.7919 316.467 44.6106 316.621 44.3973 316.76C44.1839 316.888 43.9439 316.989 43.6773 317.064C43.4106 317.149 43.1226 317.192 42.8133 317.192C42.3226 317.192 41.8959 317.117 41.5333 316.968C41.1813 316.819 40.8879 316.611 40.6533 316.344C40.4186 316.077 40.2426 315.757 40.1253 315.384C40.0186 315 39.9653 314.584 39.9653 314.136V309.512H41.2133V314.008C41.2133 314.637 41.3519 315.133 41.6293 315.496C41.9066 315.859 42.3386 316.04 42.9253 316.04C43.3306 316.04 43.6773 315.971 43.9653 315.832C44.2639 315.693 44.5039 315.496 44.6853 315.24C44.8773 314.984 45.0159 314.68 45.1013 314.328C45.1973 313.976 45.2453 313.587 45.2453 313.16V309.512H46.4933V315.224ZM48.8559 311.288C48.8559 310.947 48.8452 310.627 48.8239 310.328C48.8025 310.029 48.7919 309.757 48.7919 309.512H49.9759C49.9759 309.715 49.9812 309.917 49.9919 310.12C50.0025 310.323 50.0079 310.531 50.0079 310.744H50.0399C50.1252 310.563 50.2425 310.387 50.3919 310.216C50.5519 310.045 50.7385 309.896 50.9519 309.768C51.1652 309.629 51.4052 309.523 51.6719 309.448C51.9385 309.363 52.2265 309.32 52.5359 309.32C52.6212 309.32 52.7065 309.325 52.7919 309.336C52.8772 309.347 52.9625 309.368 53.0479 309.4L52.9679 310.664C52.7545 310.6 52.5305 310.568 52.2959 310.568C51.5279 310.568 50.9679 310.819 50.6159 311.32C50.2745 311.811 50.1039 312.488 50.1039 313.352V317H48.8559V311.288ZM54.4809 311.288C54.4809 310.947 54.4702 310.627 54.4489 310.328C54.4275 310.029 54.4169 309.757 54.4169 309.512H55.6009C55.6009 309.715 55.6062 309.917 55.6169 310.12C55.6275 310.323 55.6329 310.531 55.6329 310.744H55.6649C55.7502 310.563 55.8675 310.387 56.0169 310.216C56.1769 310.045 56.3635 309.896 56.5769 309.768C56.7902 309.629 57.0302 309.523 57.2969 309.448C57.5635 309.363 57.8515 309.32 58.1609 309.32C58.5662 309.32 58.9022 309.373 59.1689 309.48C59.4462 309.576 59.6755 309.699 59.8569 309.848C60.0382 309.987 60.1769 310.141 60.2729 310.312C60.3795 310.472 60.4649 310.616 60.5289 310.744C60.8062 310.296 61.1262 309.949 61.4889 309.704C61.8515 309.448 62.3209 309.32 62.8969 309.32C63.4302 309.32 63.8782 309.395 64.2409 309.544C64.6035 309.683 64.8969 309.891 65.1209 310.168C65.3449 310.435 65.5049 310.765 65.6009 311.16C65.6969 311.544 65.7449 311.976 65.7449 312.456V317H64.4969V312.52C64.4969 312.264 64.4702 312.013 64.4169 311.768C64.3635 311.523 64.2675 311.304 64.1289 311.112C63.9902 310.92 63.8035 310.765 63.5689 310.648C63.3342 310.531 63.0355 310.472 62.6729 310.472C62.4062 310.472 62.1555 310.525 61.9209 310.632C61.6862 310.739 61.4782 310.888 61.2969 311.08C61.1262 311.272 60.9875 311.507 60.8809 311.784C60.7849 312.051 60.7369 312.349 60.7369 312.68V317H59.4889V312.76C59.4889 311.928 59.3769 311.341 59.1529 311C58.9289 310.648 58.5609 310.472 58.0489 310.472C57.6435 310.472 57.2915 310.541 56.9929 310.68C56.7049 310.819 56.4649 311.016 56.2729 311.272C56.0915 311.528 55.9529 311.832 55.8569 312.184C55.7715 312.536 55.7289 312.925 55.7289 313.352V317H54.4809V311.288ZM74.7939 315.64C74.3459 316.216 73.8552 316.621 73.3219 316.856C72.7885 317.08 72.1699 317.192 71.4659 317.192C70.8792 317.192 70.3512 317.091 69.8819 316.888C69.4125 316.675 69.0125 316.392 68.6819 316.04C68.3619 315.688 68.1112 315.272 67.9299 314.792C67.7592 314.312 67.6739 313.8 67.6739 313.256C67.6739 312.68 67.7699 312.152 67.9619 311.672C68.1539 311.181 68.4205 310.765 68.7619 310.424C69.1032 310.072 69.5085 309.8 69.9779 309.608C70.4472 309.416 70.9592 309.32 71.5139 309.32C72.0365 309.32 72.5165 309.411 72.9539 309.592C73.3912 309.763 73.7645 310.019 74.0739 310.36C74.3939 310.691 74.6392 311.101 74.8099 311.592C74.9805 312.072 75.0659 312.621 75.0659 313.24V313.64H69.0179C69.0392 313.96 69.1139 314.269 69.2419 314.568C69.3805 314.856 69.5565 315.112 69.7699 315.336C69.9832 315.549 70.2339 315.72 70.5219 315.848C70.8099 315.976 71.1245 316.04 71.4659 316.04C72.0099 316.04 72.4685 315.944 72.8419 315.752C73.2152 315.56 73.5512 315.277 73.8499 314.904L74.7939 315.64ZM73.7219 312.584C73.7005 311.944 73.4925 311.432 73.0979 311.048C72.7032 310.664 72.1592 310.472 71.4659 310.472C70.7725 310.472 70.2125 310.664 69.7859 311.048C69.3592 311.432 69.1032 311.944 69.0179 312.584H73.7219ZM76.9965 311.288C76.9965 310.947 76.9858 310.627 76.9645 310.328C76.9432 310.029 76.9325 309.757 76.9325 309.512H78.1165C78.1165 309.715 78.1218 309.917 78.1325 310.12C78.1432 310.323 78.1485 310.531 78.1485 310.744H78.1805C78.2658 310.563 78.3832 310.387 78.5325 310.216C78.6925 310.045 78.8792 309.896 79.0925 309.768C79.3058 309.629 79.5458 309.523 79.8125 309.448C80.0792 309.363 80.3672 309.32 80.6765 309.32C80.7618 309.32 80.8472 309.325 80.9325 309.336C81.0178 309.347 81.1032 309.368 81.1885 309.4L81.1085 310.664C80.8952 310.6 80.6712 310.568 80.4365 310.568C79.6685 310.568 79.1085 310.819 78.7565 311.32C78.4152 311.811 78.2445 312.488 78.2445 313.352V317H76.9965V311.288ZM82.7335 309.512H83.9815V317H82.7335V309.512ZM82.4455 306.584C82.4455 306.339 82.5308 306.125 82.7015 305.944C82.8828 305.763 83.1015 305.672 83.3575 305.672C83.6135 305.672 83.8268 305.763 83.9975 305.944C84.1788 306.125 84.2695 306.339 84.2695 306.584C84.2695 306.851 84.1842 307.069 84.0135 307.24C83.8428 307.411 83.6242 307.496 83.3575 307.496C83.0908 307.496 82.8722 307.411 82.7015 307.24C82.5308 307.069 82.4455 306.851 82.4455 306.584ZM91.7933 311.384C91.5266 311.064 91.2386 310.835 90.9293 310.696C90.6199 310.547 90.2786 310.472 89.9053 310.472C89.4893 310.472 89.1213 310.547 88.8013 310.696C88.4813 310.835 88.2146 311.032 88.0013 311.288C87.7986 311.544 87.6439 311.843 87.5373 312.184C87.4306 312.515 87.3773 312.872 87.3773 313.256C87.3773 313.64 87.4359 314.003 87.5533 314.344C87.6813 314.675 87.8519 314.968 88.0653 315.224C88.2893 315.48 88.5559 315.683 88.8653 315.832C89.1746 315.971 89.5213 316.04 89.9053 316.04C90.7266 316.04 91.3613 315.731 91.8093 315.112L92.7373 315.992C92.3746 316.408 91.9479 316.712 91.4573 316.904C90.9666 317.096 90.4493 317.192 89.9053 317.192C89.3293 317.192 88.8013 317.096 88.3213 316.904C87.8413 316.712 87.4306 316.44 87.0893 316.088C86.7586 315.736 86.4973 315.32 86.3053 314.84C86.1239 314.36 86.0333 313.832 86.0333 313.256C86.0333 312.691 86.1239 312.168 86.3053 311.688C86.4973 311.208 86.7639 310.792 87.1053 310.44C87.4466 310.088 87.8519 309.816 88.3213 309.624C88.8013 309.421 89.3293 309.32 89.9053 309.32C90.4599 309.32 90.9826 309.416 91.4733 309.608C91.9746 309.8 92.4119 310.099 92.7853 310.504L91.7933 311.384Z" fill="#333333"/>
</g>
<defs>
<clipPath id="clip0">
<rect width="290" height="398" fill="white"/>
</clipPath>
</defs>
</svg>
