<svg width="80" height="69" viewBox="0 0 80 69" fill="none" xmlns="http://www.w3.org/2000/svg">
<path d="M60.7011 11.8384L56.5475 14.8343C45.3405 -0.174916 39.2707 -8.18417 19.9209 18.5792L33.5143 26.818C35.4464 20.3761 37.0725 17.0941 41.0662 11.8384L45.5973 20.8262L41.0662 24.1966C46.5473 24.7207 49.4827 24.7893 54.282 24.1966C57.5351 20.2926 59.0364 17.7006 60.7011 11.8384Z" stroke="#344F10"/>
<path d="M51.1431 61.8719L50.5151 56.7545C68.9139 53.9482 78.7745 52.3712 64.7055 22.43L51.0609 30.5819C55.7457 35.3674 57.8267 38.3756 60.4972 44.4276L50.5182 44.1714L49.7442 38.5401C46.6769 43.16 45.2188 45.7353 43.4481 50.2815C45.2953 55.0316 46.8354 57.6002 51.1431 61.8719Z" stroke="#344F10"/>
<path d="M9.04007 28.3147L13.7739 30.2409C7.28207 47.8616 3.86608 57.3406 36.6024 59.4242L36.1624 43.4132C29.749 45.2331 26.1363 45.6137 19.6033 45.0394L24.6634 36.3446L29.9127 38.3909C27.4012 33.4403 25.8792 30.903 22.8028 27.1339C17.7959 26.4632 14.826 26.579 9.04007 28.3147Z" stroke="#344F10"/>
</svg>
