<svg width="180" height="73" viewBox="0 0 180 73" fill="none" xmlns="http://www.w3.org/2000/svg">
<path d="M44.6863 65.2C43.6063 65.2 42.6063 65.0067 41.6862 64.62C40.7663 64.22 39.9663 63.68 39.2863 63C38.6063 62.32 38.0729 61.5267 37.6863 60.62C37.2996 59.7133 37.1063 58.74 37.1063 57.7C37.1063 56.66 37.2996 55.6867 37.6863 54.78C38.0729 53.86 38.6063 53.0667 39.2863 52.4C39.9663 51.72 40.7663 51.1867 41.6862 50.8C42.6196 50.4 43.6196 50.2 44.6863 50.2C45.5129 50.2 46.3063 50.3333 47.0663 50.6C47.8396 50.8667 48.5396 51.24 49.1663 51.72C49.7929 52.1867 50.3329 52.7533 50.7863 53.42C51.2396 54.0733 51.5729 54.7933 51.7863 55.58H49.4463C49.0463 54.5933 48.4329 53.8 47.6063 53.2C46.7929 52.6 45.7929 52.3 44.6063 52.3C43.8596 52.3 43.1596 52.4467 42.5063 52.74C41.8663 53.02 41.3063 53.4067 40.8263 53.9C40.3596 54.38 39.9863 54.9533 39.7063 55.62C39.4396 56.2733 39.3063 56.9667 39.3063 57.7C39.3063 58.4467 39.4396 59.1467 39.7063 59.8C39.9863 60.44 40.3596 61.0067 40.8263 61.5C41.3063 61.9933 41.8663 62.38 42.5063 62.66C43.1596 62.94 43.8596 63.08 44.6063 63.08C45.7663 63.08 46.7463 62.7933 47.5463 62.22C48.3463 61.6467 48.9596 60.88 49.3863 59.92H51.7663C51.5263 60.6933 51.1796 61.4067 50.7263 62.06C50.2729 62.7 49.7329 63.2533 49.1063 63.72C48.4929 64.1867 47.8063 64.5533 47.0463 64.82C46.2996 65.0733 45.5129 65.2 44.6863 65.2ZM53.3052 55H55.4452V56.54C55.7118 56.0467 56.0718 55.6667 56.5252 55.4C56.9785 55.1333 57.5385 55 58.2052 55H59.3852V57.04H57.8852C57.0052 57.04 56.3785 57.28 56.0052 57.76C55.6452 58.24 55.4652 59 55.4652 60.04V65H53.3052V55ZM65.2541 65.2C64.4674 65.2 63.7541 65.0667 63.1141 64.8C62.4741 64.52 61.9274 64.1467 61.4741 63.68C61.0341 63.2133 60.6941 62.6667 60.4541 62.04C60.2141 61.4133 60.0941 60.7467 60.0941 60.04C60.0941 59.3067 60.2274 58.62 60.4941 57.98C60.7607 57.34 61.1207 56.7867 61.5741 56.32C62.0407 55.8533 62.5874 55.4867 63.2141 55.22C63.8541 54.94 64.5407 54.8 65.2741 54.8C66.0074 54.8 66.6874 54.9267 67.3141 55.18C67.9541 55.4333 68.5007 55.7933 68.9541 56.26C69.4207 56.7133 69.7807 57.2533 70.0341 57.88C70.3007 58.5067 70.4341 59.1933 70.4341 59.94V60.68H62.1341C62.2541 61.4533 62.5874 62.0933 63.1341 62.6C63.6807 63.0933 64.3941 63.34 65.2741 63.34C65.9674 63.34 66.5407 63.1867 66.9941 62.88C67.4607 62.5733 67.7874 62.16 67.9741 61.64H70.2741C69.8874 62.7467 69.2741 63.62 68.4341 64.26C67.6074 64.8867 66.5474 65.2 65.2541 65.2ZM65.2941 56.7C64.5607 56.7 63.9274 56.9067 63.3941 57.32C62.8607 57.72 62.4874 58.24 62.2741 58.88H68.2541C68.0674 58.1733 67.7141 57.6333 67.1941 57.26C66.6874 56.8867 66.0541 56.7 65.2941 56.7ZM76.8514 65.2C76.2114 65.2 75.5914 65.08 74.9914 64.84C74.4047 64.5867 73.8781 64.24 73.4114 63.8C72.9447 63.3467 72.5714 62.8 72.2914 62.16C72.0114 61.52 71.8714 60.8 71.8714 60C71.8714 59.2 72.0047 58.48 72.2714 57.84C72.5514 57.2 72.9181 56.6533 73.3714 56.2C73.8381 55.7467 74.3714 55.4 74.9714 55.16C75.5847 54.92 76.2181 54.8 76.8714 54.8C77.5381 54.8 78.1647 54.9333 78.7514 55.2C79.3381 55.4667 79.8181 55.8333 80.1914 56.3V50.4H82.3114V65H80.1914V63.62C79.8047 64.1133 79.3181 64.5 78.7314 64.78C78.1447 65.06 77.5181 65.2 76.8514 65.2ZM77.1514 63.24C77.6047 63.24 78.0247 63.1533 78.4114 62.98C78.7981 62.8067 79.1314 62.5733 79.4114 62.28C79.6914 61.9867 79.9114 61.6467 80.0714 61.26C80.2314 60.86 80.3114 60.4333 80.3114 59.98C80.3114 59.54 80.2314 59.1267 80.0714 58.74C79.9114 58.34 79.6914 57.9933 79.4114 57.7C79.1314 57.4067 78.7981 57.1733 78.4114 57C78.0247 56.8267 77.6047 56.74 77.1514 56.74C76.7114 56.74 76.2981 56.8267 75.9114 57C75.5247 57.16 75.1847 57.3867 74.8914 57.68C74.6114 57.9733 74.3914 58.32 74.2314 58.72C74.0714 59.1067 73.9914 59.5267 73.9914 59.98C73.9914 60.4333 74.0714 60.86 74.2314 61.26C74.3914 61.66 74.6114 62.0067 74.8914 62.3C75.1847 62.5933 75.5247 62.8267 75.9114 63C76.2981 63.16 76.7114 63.24 77.1514 63.24ZM84.4575 55H86.6175V65H84.4575V55ZM84.0975 52.02C84.0975 51.5933 84.2308 51.2467 84.4975 50.98C84.7642 50.7133 85.1108 50.58 85.5375 50.58C85.9642 50.58 86.3108 50.7133 86.5775 50.98C86.8442 51.2467 86.9775 51.5933 86.9775 52.02C86.9775 52.4467 86.8442 52.7933 86.5775 53.06C86.3108 53.3267 85.9642 53.46 85.5375 53.46C85.1108 53.46 84.7642 53.3267 84.4975 53.06C84.2308 52.7933 84.0975 52.4467 84.0975 52.02ZM88.1781 55H89.8781V52.64L92.0381 51.46V55H94.1581V56.92H92.0381V60.9C92.0381 61.3533 92.0581 61.72 92.0981 62C92.1515 62.2667 92.2515 62.4733 92.3981 62.62C92.5581 62.7667 92.7715 62.8667 93.0381 62.92C93.3181 62.96 93.6915 62.98 94.1581 62.98V65H93.8381C93.0781 65 92.4448 64.9333 91.9381 64.8C91.4315 64.6667 91.0248 64.4467 90.7181 64.14C90.4115 63.82 90.1915 63.4 90.0581 62.88C89.9381 62.36 89.8781 61.7067 89.8781 60.92V56.92H88.1781V55ZM106.114 65.2C105.381 65.2 104.701 65.0733 104.074 64.82C103.447 64.5533 102.901 64.1933 102.434 63.74C101.967 63.2733 101.601 62.72 101.334 62.08C101.067 61.44 100.934 60.7467 100.934 60C100.934 59.2667 101.067 58.5867 101.334 57.96C101.601 57.32 101.967 56.7667 102.434 56.3C102.914 55.8333 103.467 55.4667 104.094 55.2C104.721 54.9333 105.394 54.8 106.114 54.8C106.807 54.8 107.454 54.9133 108.054 55.14C108.654 55.3533 109.174 55.6533 109.614 56.04C110.067 56.4267 110.434 56.8933 110.714 57.44C111.007 57.9867 111.194 58.5867 111.274 59.24H109.114C108.981 58.4933 108.647 57.9 108.114 57.46C107.581 57.02 106.914 56.8 106.114 56.8C105.674 56.8 105.267 56.8867 104.894 57.06C104.521 57.22 104.194 57.4467 103.914 57.74C103.647 58.02 103.434 58.36 103.274 58.76C103.114 59.1467 103.034 59.56 103.034 60C103.034 60.4533 103.107 60.88 103.254 61.28C103.414 61.6667 103.627 62.0067 103.894 62.3C104.174 62.58 104.501 62.8 104.874 62.96C105.261 63.12 105.681 63.2 106.134 63.2C106.907 63.2 107.561 62.9733 108.094 62.52C108.627 62.0533 108.967 61.4533 109.114 60.72H111.274C111.194 61.3867 111.007 61.9933 110.714 62.54C110.421 63.0867 110.041 63.56 109.574 63.96C109.121 64.3467 108.594 64.6533 107.994 64.88C107.407 65.0933 106.781 65.2 106.114 65.2ZM117.691 65.2C117.051 65.2 116.431 65.08 115.831 64.84C115.245 64.5867 114.718 64.24 114.251 63.8C113.785 63.3467 113.411 62.8 113.131 62.16C112.851 61.52 112.711 60.8 112.711 60C112.711 59.2 112.845 58.48 113.111 57.84C113.391 57.2 113.758 56.6533 114.211 56.2C114.678 55.7467 115.211 55.4 115.811 55.16C116.425 54.92 117.058 54.8 117.711 54.8C118.378 54.8 119.005 54.9333 119.591 55.2C120.178 55.4667 120.658 55.8333 121.031 56.3V55H123.171V65H121.031V63.62C120.645 64.1133 120.158 64.5 119.571 64.78C118.985 65.06 118.358 65.2 117.691 65.2ZM117.991 63.24C118.445 63.24 118.865 63.1533 119.251 62.98C119.638 62.8067 119.971 62.5733 120.251 62.28C120.531 61.9867 120.751 61.6467 120.911 61.26C121.071 60.86 121.151 60.4333 121.151 59.98C121.151 59.54 121.071 59.1267 120.911 58.74C120.751 58.34 120.531 57.9933 120.251 57.7C119.971 57.4067 119.638 57.1733 119.251 57C118.865 56.8267 118.445 56.74 117.991 56.74C117.551 56.74 117.138 56.8267 116.751 57C116.365 57.16 116.025 57.3867 115.731 57.68C115.451 57.9733 115.231 58.32 115.071 58.72C114.911 59.1067 114.831 59.5267 114.831 59.98C114.831 60.4333 114.911 60.86 115.071 61.26C115.231 61.66 115.451 62.0067 115.731 62.3C116.025 62.5933 116.365 62.8267 116.751 63C117.138 63.16 117.551 63.24 117.991 63.24ZM125.336 55H127.476V56.54C127.743 56.0467 128.103 55.6667 128.556 55.4C129.01 55.1333 129.57 55 130.236 55H131.416V57.04H129.916C129.036 57.04 128.41 57.28 128.036 57.76C127.676 58.24 127.496 59 127.496 60.04V65H125.336V55ZM137.105 65.2C136.465 65.2 135.845 65.08 135.245 64.84C134.659 64.5867 134.132 64.24 133.665 63.8C133.199 63.3467 132.825 62.8 132.545 62.16C132.265 61.52 132.125 60.8 132.125 60C132.125 59.2 132.259 58.48 132.525 57.84C132.805 57.2 133.172 56.6533 133.625 56.2C134.092 55.7467 134.625 55.4 135.225 55.16C135.839 54.92 136.472 54.8 137.125 54.8C137.792 54.8 138.419 54.9333 139.005 55.2C139.592 55.4667 140.072 55.8333 140.445 56.3V50.4H142.565V65H140.445V63.62C140.059 64.1133 139.572 64.5 138.985 64.78C138.399 65.06 137.772 65.2 137.105 65.2ZM137.405 63.24C137.859 63.24 138.279 63.1533 138.665 62.98C139.052 62.8067 139.385 62.5733 139.665 62.28C139.945 61.9867 140.165 61.6467 140.325 61.26C140.485 60.86 140.565 60.4333 140.565 59.98C140.565 59.54 140.485 59.1267 140.325 58.74C140.165 58.34 139.945 57.9933 139.665 57.7C139.385 57.4067 139.052 57.1733 138.665 57C138.279 56.8267 137.859 56.74 137.405 56.74C136.965 56.74 136.552 56.8267 136.165 57C135.779 57.16 135.439 57.3867 135.145 57.68C134.865 57.9733 134.645 58.32 134.485 58.72C134.325 59.1067 134.245 59.5267 134.245 59.98C134.245 60.4333 134.325 60.86 134.485 61.26C134.645 61.66 134.865 62.0067 135.145 62.3C135.439 62.5933 135.779 62.8267 136.165 63C136.552 63.16 136.965 63.24 137.405 63.24Z" fill="#333333"/>
<path fill-rule="evenodd" clip-rule="evenodd" d="M114 1H65C63.8954 1 63 1.89543 63 3V28C63 29.1046 63.8954 30 65 30H114C115.105 30 116 29.1046 116 28V3C116 1.89543 115.105 1 114 1ZM65 0C63.3431 0 62 1.34315 62 3V28C62 29.6569 63.3431 31 65 31H114C115.657 31 117 29.6569 117 28V3C117 1.34315 115.657 0 114 0H65ZM75 6H70C68.8954 6 68 6.89543 68 8V10C68 11.1046 68.8954 12 70 12H75C76.1046 12 77 11.1046 77 10V8C77 6.89543 76.1046 6 75 6ZM70 5C68.3431 5 67 6.34315 67 8V10C67 11.6569 68.3431 13 70 13H75C76.6569 13 78 11.6569 78 10V8C78 6.34315 76.6569 5 75 5H70ZM68 17H110V19H68L68 17ZM67 17C67 16.4477 67.4477 16 68 16H110C110.552 16 111 16.4477 111 17V19C111 19.5523 110.552 20 110 20H68C67.4477 20 67 19.5523 67 19V17ZM110 22H105V24H110V22ZM105 21C104.448 21 104 21.4477 104 22V24C104 24.5523 104.448 25 105 25H110C110.552 25 111 24.5523 111 24V22C111 21.4477 110.552 21 110 21H105ZM68 24H81V26H68V24ZM67 24C67 23.4477 67.4477 23 68 23H81C81.5523 23 82 23.4477 82 24V26C82 26.5523 81.5523 27 81 27H68C67.4477 27 67 26.5523 67 26V24Z" fill="#333333"/>
</svg>
