<svg width="18" height="20" viewBox="0 0 18 20" fill="none" xmlns="http://www.w3.org/2000/svg">
<path d="M8.99989 0.25C6.94039 0.25 5.24989 1.9405 5.24989 4V4.75H1.54639L1.49989 5.4535L0.749887 18.9535L0.702637 19.75H17.2964L17.2499 18.9528L16.4999 5.45275L16.4526 4.75H12.7499V4C12.7499 1.9405 11.0594 0.25 8.99989 0.25ZM8.99989 1.75C9.59662 1.75 10.1689 1.98705 10.5909 2.40901C11.0128 2.83097 11.2499 3.40326 11.2499 4V4.75H6.74989V4C6.74989 3.40326 6.98694 2.83097 7.4089 2.40901C7.83085 1.98705 8.40315 1.75 8.99989 1.75ZM2.95264 6.25H5.24989V8.5H6.74989V6.25H11.2499V8.5H12.7499V6.25H15.0471L15.7034 18.25H2.29714L2.95264 6.25Z" fill="#344F10"/>
</svg>
