<svg width="18" height="132" viewBox="0 0 18 132" fill="none" xmlns="http://www.w3.org/2000/svg">
<path d="M6.16 29.96C6.16 29.372 6.286 28.8493 6.538 28.392C6.79 27.9253 7.16333 27.5613 7.658 27.3C8.15267 27.0293 8.75 26.894 9.45 26.894H14V28.476H9.688C8.99733 28.476 8.47 28.6487 8.106 28.994C7.73267 29.3393 7.546 29.8107 7.546 30.408C7.546 31.0053 7.73267 31.4813 8.106 31.836C8.47 32.1813 8.99733 32.354 9.688 32.354H14V33.95H3.64V32.354H7.182C6.85533 32.0833 6.60333 31.7427 6.426 31.332C6.24867 30.912 6.16 30.4547 6.16 29.96ZM9.954 17.7882C10.2433 17.7882 10.5047 17.8069 10.738 17.8442L10.738 23.7382C11.354 23.6915 11.8487 23.4629 12.222 23.0522C12.5953 22.6415 12.782 22.1375 12.782 21.5402C12.782 20.6815 12.4227 20.0749 11.704 19.7202V17.9982C12.4133 18.2315 12.9967 18.6562 13.454 19.2722C13.902 19.8789 14.126 20.6349 14.126 21.5402C14.126 22.2775 13.9627 22.9402 13.636 23.5282C13.3 24.1069 12.8333 24.5642 12.236 24.9002C11.6293 25.2269 10.9293 25.3902 10.136 25.3902C9.34267 25.3902 8.64733 25.2315 8.05 24.9142C7.44333 24.5875 6.97667 24.1349 6.65 23.5562C6.32333 22.9682 6.16 22.2962 6.16 21.5402C6.16 20.8122 6.31867 20.1635 6.636 19.5942C6.95333 19.0249 7.40133 18.5815 7.98 18.2642C8.54933 17.9469 9.20733 17.7882 9.954 17.7882ZM9.45 19.4542C8.862 19.4635 8.39067 19.6735 8.036 20.0842C7.68133 20.4949 7.504 21.0035 7.504 21.6102C7.504 22.1609 7.68133 22.6322 8.036 23.0242C8.38133 23.4162 8.85267 23.6495 9.45 23.7242L9.45 19.4542ZM3.64 14.6216H14V16.2176H3.64V14.6216ZM7.42 10.9302C7.06533 10.6595 6.76667 10.2908 6.524 9.82417C6.28133 9.35751 6.16 8.83017 6.16 8.24217C6.16 7.57017 6.328 6.95884 6.664 6.40817C6.99067 5.84817 7.45267 5.4095 8.05 5.09217C8.64733 4.77484 9.33333 4.61617 10.108 4.61617C10.8827 4.61617 11.578 4.77484 12.194 5.09217C12.8007 5.4095 13.2767 5.84817 13.622 6.40817C13.958 6.95884 14.126 7.57017 14.126 8.24217C14.126 8.83017 14.0093 9.35284 13.776 9.81017C13.5333 10.2675 13.2347 10.6408 12.88 10.9302H17.668V12.5262H6.286V10.9302H7.42ZM10.108 6.24017C9.576 6.24017 9.11867 6.35217 8.736 6.57617C8.344 6.79084 8.05 7.08017 7.854 7.44417C7.64867 7.79884 7.546 8.18151 7.546 8.59217C7.546 8.9935 7.64867 9.37617 7.854 9.74017C8.05933 10.0948 8.358 10.3842 8.75 10.6082C9.142 10.8228 9.604 10.9302 10.136 10.9302C10.668 10.9302 11.1347 10.8228 11.536 10.6082C11.928 10.3842 12.2267 10.0948 12.432 9.74017C12.6373 9.37617 12.74 8.9935 12.74 8.59217C12.74 8.18151 12.6373 7.79884 12.432 7.44417C12.2173 7.08017 11.9093 6.79084 11.508 6.57617C11.1067 6.35217 10.64 6.24017 10.108 6.24017Z" fill="#344F10" fill-opacity="0.5"/>
<rect x="8" y="43.9229" width="1" height="88.0769" fill="#344F10" fill-opacity="0.5"/>
</svg>
