<svg width="15" height="30" viewBox="0 0 15 30" fill="none" xmlns="http://www.w3.org/2000/svg">
<path d="M3.16 25.962C3.16 25.374 3.286 24.8513 3.538 24.394C3.79 23.9273 4.16333 23.5633 4.658 23.302C5.15267 23.0313 5.75 22.896 6.45 22.896H11V24.478H6.688C5.99733 24.478 5.47 24.6506 5.106 24.996C4.73267 25.3413 4.546 25.8126 4.546 26.41C4.546 27.0073 4.73267 27.4833 5.106 27.838C5.47 28.1833 5.99733 28.356 6.688 28.356H11V29.952H0.64V28.356H4.182C3.85533 28.0853 3.60333 27.7446 3.426 27.334C3.24867 26.914 3.16 26.4566 3.16 25.962ZM6.954 13.7902C7.24333 13.7902 7.50467 13.8088 7.738 13.8462L7.738 19.7402C8.354 19.6935 8.84867 19.4648 9.222 19.0542C9.59533 18.6435 9.782 18.1395 9.782 17.5422C9.782 16.6835 9.42267 16.0768 8.704 15.7222V14.0002C9.41333 14.2335 9.99667 14.6582 10.454 15.2742C10.902 15.8808 11.126 16.6368 11.126 17.5422C11.126 18.2795 10.9627 18.9422 10.636 19.5302C10.3 20.1088 9.83333 20.5662 9.236 20.9022C8.62933 21.2288 7.92933 21.3922 7.136 21.3922C6.34267 21.3922 5.64733 21.2335 5.05 20.9162C4.44333 20.5895 3.97667 20.1368 3.65 19.5582C3.32333 18.9702 3.16 18.2982 3.16 17.5422C3.16 16.8142 3.31867 16.1655 3.636 15.5962C3.95333 15.0268 4.40133 14.5835 4.98 14.2662C5.54933 13.9488 6.20733 13.7902 6.954 13.7902ZM6.45 15.4562C5.862 15.4655 5.39067 15.6755 5.036 16.0862C4.68133 16.4968 4.504 17.0055 4.504 17.6122C4.504 18.1628 4.68133 18.6342 5.036 19.0262C5.38133 19.4182 5.85267 19.6515 6.45 19.7262L6.45 15.4562ZM0.64 10.6235H11V12.2195H0.64V10.6235ZM4.42 6.93212C4.06533 6.66146 3.76667 6.29279 3.524 5.82612C3.28133 5.35946 3.16 4.83212 3.16 4.24412C3.16 3.57212 3.328 2.96079 3.664 2.41012C3.99067 1.85012 4.45267 1.41146 5.05 1.09412C5.64733 0.776791 6.33333 0.618124 7.108 0.618124C7.88267 0.618124 8.578 0.776791 9.194 1.09412C9.80067 1.41146 10.2767 1.85012 10.622 2.41012C10.958 2.96079 11.126 3.57212 11.126 4.24412C11.126 4.83212 11.0093 5.35479 10.776 5.81212C10.5333 6.26946 10.2347 6.64279 9.88 6.93212H14.668V8.52812H3.286V6.93212H4.42ZM7.108 2.24212C6.576 2.24212 6.11867 2.35412 5.736 2.57812C5.344 2.79279 5.05 3.08212 4.854 3.44612C4.64867 3.80079 4.546 4.18346 4.546 4.59412C4.546 4.99546 4.64867 5.37812 4.854 5.74212C5.05933 6.09679 5.358 6.38612 5.75 6.61012C6.142 6.82479 6.604 6.93212 7.136 6.93212C7.668 6.93212 8.13467 6.82479 8.536 6.61012C8.928 6.38612 9.22667 6.09679 9.432 5.74212C9.63733 5.37812 9.74 4.99546 9.74 4.59412C9.74 4.18346 9.63733 3.80079 9.432 3.44612C9.21733 3.08212 8.90933 2.79279 8.508 2.57812C8.10667 2.35412 7.64 2.24212 7.108 2.24212Z" fill="#344F10" fill-opacity="0.5"/>
</svg>
