<svg width="702" height="146" viewBox="0 0 702 146" fill="none" xmlns="http://www.w3.org/2000/svg">
<rect width="702" height="146" rx="24" fill="white"/>
<path d="M68.3889 68.0977L69.4661 84.5H50.5306L51.5052 68.0977H68.3889Z" stroke="#344F10"/>
<rect x="55.459" y="61.5" width="9.02725" height="11.4303" rx="4.51362" stroke="#344F10"/>
<path d="M53.5713 70H65.8874V74.6853H53.5713V70Z" fill="#E4DFD3"/>
<rect x="106" y="67" width="20" height="1" fill="#344F10"/>
<rect x="106" y="73" width="20" height="1" fill="#344F10"/>
<rect x="106" y="79" width="20" height="1" fill="#344F10"/>
<circle cx="172" cy="73" r="11.5" stroke="#344F10"/>
<path fill-rule="evenodd" clip-rule="evenodd" d="M171.978 68.2251L173.156 71.5601H170.818L171.991 72.3154L176.42 69.4651L181.601 72.8001H173.165L171.995 75.6401L170.83 72.812H162.4L167.582 69.4771L170.804 71.5511L171.978 68.2251ZM172.938 77.5601L171.996 75.6544L171.054 77.5601H172.938Z" fill="#344F10"/>
<path d="M172 72.52L173.2 71.56H170.8L172 72.52Z" fill="#344F10"/>
<g clip-path="url(#clip0_21779_1104)">
<path d="M236.766 84.5H232.122L232.135 76.9237H234.598C235.118 76.9237 235.555 76.5349 235.616 76.0187L235.944 73.2543C236.016 72.6442 235.54 72.1078 234.926 72.1078H232.121V70.2952C232.121 69.7922 232.197 69.5086 232.337 69.3423C232.461 69.1953 232.731 69.0319 233.416 69.0319H233.416L234.809 69.0312H234.809C235.375 69.0309 235.834 68.5718 235.834 68.0055V65.6744C235.834 65.1079 235.375 64.6487 234.808 64.6487H232.539C231.055 64.6487 229.753 65.1033 228.821 66.0245C227.888 66.9472 227.381 68.2832 227.381 69.9365V72.1077H225.657C225.089 72.1077 224.629 72.5693 224.631 73.1374V73.1374L224.642 75.9019C224.644 76.4668 225.102 76.9236 225.667 76.9236H227.394L227.381 84.4999H219.234C217.724 84.4999 216.5 83.2758 216.5 81.7658V64.234C216.5 62.7241 217.724 61.5 219.234 61.5H236.766C238.276 61.5 239.5 62.7241 239.5 64.234V81.766C239.5 83.2759 238.276 84.5 236.766 84.5Z" stroke="#344F10"/>
</g>
<rect x="272.5" y="61.5" width="23" height="23" rx="4.5" stroke="#344F10"/>
<circle cx="283.999" cy="73" r="4.3" stroke="#344F10"/>
<circle cx="290.601" cy="66.4001" r="1.3" stroke="#344F10"/>
<path fill-rule="evenodd" clip-rule="evenodd" d="M340.452 72.7259L333.726 66L333.019 66.7071L339.745 73.433L333 80.1778L333.707 80.8849L340.452 74.1401L347.161 80.8492L347.868 80.1421L341.159 73.433L347.849 66.7428L347.142 66.0357L340.452 72.7259Z" fill="#344F10"/>
<path d="M459.342 67.242L456.514 77H455.086L452.818 69.146L450.466 77L449.052 77.014L446.322 67.242H447.68L449.808 75.516L452.16 67.242H453.588L455.828 75.488L457.97 67.242H459.342ZM462.71 67.242V77H461.436V67.242H462.71ZM471.588 67.242V68.278H468.928V77H467.654V68.278H464.98V67.242H471.588ZM473.38 72.114C473.38 71.162 473.594 70.308 474.024 69.552C474.453 68.7867 475.036 68.1893 475.774 67.76C476.52 67.3307 477.346 67.116 478.252 67.116C479.316 67.116 480.244 67.3727 481.038 67.886C481.831 68.3993 482.41 69.1273 482.774 70.07H481.248C480.977 69.482 480.585 69.0293 480.072 68.712C479.568 68.3947 478.961 68.236 478.252 68.236C477.57 68.236 476.959 68.3947 476.418 68.712C475.876 69.0293 475.452 69.482 475.144 70.07C474.836 70.6487 474.682 71.33 474.682 72.114C474.682 72.8887 474.836 73.57 475.144 74.158C475.452 74.7367 475.876 75.1847 476.418 75.502C476.959 75.8193 477.57 75.978 478.252 75.978C478.961 75.978 479.568 75.824 480.072 75.516C480.585 75.1987 480.977 74.746 481.248 74.158H482.774C482.41 75.0913 481.831 75.8147 481.038 76.328C480.244 76.832 479.316 77.084 478.252 77.084C477.346 77.084 476.52 76.874 475.774 76.454C475.036 76.0247 474.453 75.432 474.024 74.676C473.594 73.92 473.38 73.066 473.38 72.114ZM492.888 67.242V77H491.614V72.576H486.644V77H485.37V67.242H486.644V71.526H491.614V67.242H492.888ZM504.62 77.098C503.715 77.098 502.889 76.888 502.142 76.468C501.395 76.0387 500.803 75.446 500.364 74.69C499.935 73.9247 499.72 73.066 499.72 72.114C499.72 71.162 499.935 70.308 500.364 69.552C500.803 68.7867 501.395 68.194 502.142 67.774C502.889 67.3447 503.715 67.13 504.62 67.13C505.535 67.13 506.365 67.3447 507.112 67.774C507.859 68.194 508.447 68.782 508.876 69.538C509.305 70.294 509.52 71.1527 509.52 72.114C509.52 73.0753 509.305 73.934 508.876 74.69C508.447 75.446 507.859 76.0387 507.112 76.468C506.365 76.888 505.535 77.098 504.62 77.098ZM504.62 75.992C505.301 75.992 505.913 75.8333 506.454 75.516C507.005 75.1987 507.434 74.746 507.742 74.158C508.059 73.57 508.218 72.8887 508.218 72.114C508.218 71.33 508.059 70.6487 507.742 70.07C507.434 69.482 507.009 69.0293 506.468 68.712C505.927 68.3947 505.311 68.236 504.62 68.236C503.929 68.236 503.313 68.3947 502.772 68.712C502.231 69.0293 501.801 69.482 501.484 70.07C501.176 70.6487 501.022 71.33 501.022 72.114C501.022 72.8887 501.176 73.57 501.484 74.158C501.801 74.746 502.231 75.1987 502.772 75.516C503.323 75.8333 503.939 75.992 504.62 75.992ZM517.418 67.242V68.278H513.176V71.568H516.62V72.604H513.176V77H511.902V67.242H517.418ZM533.987 67.312V77H532.713V69.776L529.493 77H528.597L525.363 69.762V77H524.089V67.312H525.461L529.045 75.32L532.629 67.312H533.987ZM541.272 77.098C540.366 77.098 539.54 76.888 538.794 76.468C538.047 76.0387 537.454 75.446 537.016 74.69C536.586 73.9247 536.372 73.066 536.372 72.114C536.372 71.162 536.586 70.308 537.016 69.552C537.454 68.7867 538.047 68.194 538.794 67.774C539.54 67.3447 540.366 67.13 541.272 67.13C542.186 67.13 543.017 67.3447 543.764 67.774C544.51 68.194 545.098 68.782 545.528 69.538C545.957 70.294 546.172 71.1527 546.172 72.114C546.172 73.0753 545.957 73.934 545.528 74.69C545.098 75.446 544.51 76.0387 543.764 76.468C543.017 76.888 542.186 77.098 541.272 77.098ZM541.272 75.992C541.953 75.992 542.564 75.8333 543.106 75.516C543.656 75.1987 544.086 74.746 544.394 74.158C544.711 73.57 544.87 72.8887 544.87 72.114C544.87 71.33 544.711 70.6487 544.394 70.07C544.086 69.482 543.661 69.0293 543.12 68.712C542.578 68.3947 541.962 68.236 541.272 68.236C540.581 68.236 539.965 68.3947 539.424 68.712C538.882 69.0293 538.453 69.482 538.136 70.07C537.828 70.6487 537.674 71.33 537.674 72.114C537.674 72.8887 537.828 73.57 538.136 74.158C538.453 74.746 538.882 75.1987 539.424 75.516C539.974 75.8333 540.59 75.992 541.272 75.992ZM549.799 67.242V73.416C549.799 74.284 550.009 74.928 550.429 75.348C550.859 75.768 551.451 75.978 552.207 75.978C552.954 75.978 553.537 75.768 553.957 75.348C554.387 74.928 554.601 74.284 554.601 73.416V67.242H555.875V73.402C555.875 74.214 555.712 74.9 555.385 75.46C555.059 76.0107 554.615 76.4213 554.055 76.692C553.505 76.9627 552.884 77.098 552.193 77.098C551.503 77.098 550.877 76.9627 550.317 76.692C549.767 76.4213 549.328 76.0107 549.001 75.46C548.684 74.9 548.525 74.214 548.525 73.402V67.242H549.799ZM566.373 77H565.099L559.975 69.23V77H558.701V67.228H559.975L565.099 74.984V67.228H566.373V77ZM575.25 67.242V68.278H572.59V77H571.316V68.278H568.642V67.242H575.25ZM583.287 74.83H579.031L578.247 77H576.903L580.431 67.298H581.901L585.415 77H584.071L583.287 74.83ZM582.923 73.794L581.159 68.866L579.395 73.794H582.923ZM588.926 67.242V77H587.652V67.242H588.926ZM599.47 77H598.196L593.072 69.23V77H591.798V67.228H593.072L598.196 74.984V67.228H599.47V77ZM619.038 67.242L616.21 77H614.782L612.514 69.146L610.162 77L608.748 77.014L606.018 67.242H607.376L609.504 75.516L611.856 67.242H613.284L615.524 75.488L617.666 67.242H619.038ZM622.406 67.242V77H621.132V67.242H622.406ZM632.949 77H631.675L626.551 69.23V77H625.277V67.228H626.551L631.675 74.984V67.228H632.949V77ZM638.859 67.242C639.923 67.242 640.842 67.4427 641.617 67.844C642.401 68.236 642.998 68.8007 643.409 69.538C643.829 70.2753 644.039 71.1433 644.039 72.142C644.039 73.1407 643.829 74.0087 643.409 74.746C642.998 75.474 642.401 76.034 641.617 76.426C640.842 76.8087 639.923 77 638.859 77H635.821V67.242H638.859ZM638.859 75.95C640.119 75.95 641.08 75.6187 641.743 74.956C642.406 74.284 642.737 73.346 642.737 72.142C642.737 70.9287 642.401 69.9813 641.729 69.3C641.066 68.6187 640.11 68.278 638.859 68.278H637.095V75.95H638.859ZM649.513 77.098C648.869 77.098 648.291 76.986 647.777 76.762C647.273 76.5287 646.877 76.2113 646.587 75.81C646.298 75.3993 646.149 74.928 646.139 74.396H647.497C647.544 74.8533 647.731 75.2407 648.057 75.558C648.393 75.866 648.879 76.02 649.513 76.02C650.12 76.02 650.596 75.8707 650.941 75.572C651.296 75.264 651.473 74.872 651.473 74.396C651.473 74.0227 651.371 73.7193 651.165 73.486C650.96 73.2527 650.703 73.0753 650.395 72.954C650.087 72.8327 649.672 72.702 649.149 72.562C648.505 72.394 647.987 72.226 647.595 72.058C647.213 71.89 646.881 71.6287 646.601 71.274C646.331 70.91 646.195 70.4247 646.195 69.818C646.195 69.286 646.331 68.8147 646.601 68.404C646.872 67.9933 647.25 67.676 647.735 67.452C648.23 67.228 648.795 67.116 649.429 67.116C650.344 67.116 651.091 67.3447 651.669 67.802C652.257 68.2593 652.589 68.866 652.663 69.622H651.263C651.217 69.2487 651.021 68.922 650.675 68.642C650.33 68.3527 649.873 68.208 649.303 68.208C648.771 68.208 648.337 68.348 648.001 68.628C647.665 68.8987 647.497 69.2813 647.497 69.776C647.497 70.1307 647.595 70.42 647.791 70.644C647.997 70.868 648.244 71.0407 648.533 71.162C648.832 71.274 649.247 71.4047 649.779 71.554C650.423 71.7313 650.941 71.9087 651.333 72.086C651.725 72.254 652.061 72.52 652.341 72.884C652.621 73.2387 652.761 73.724 652.761 74.34C652.761 74.816 652.635 75.264 652.383 75.684C652.131 76.104 651.758 76.4447 651.263 76.706C650.769 76.9673 650.185 77.098 649.513 77.098Z" fill="#344F10"/>
<circle cx="409" cy="73" r="24.5" fill="#E4DFD3" stroke="#344F10"/>
<path fill-rule="evenodd" clip-rule="evenodd" d="M408.953 63.052L411.407 69.9999H406.536L408.981 71.5731L418.206 65.6353L429 72.5832H411.426L408.989 78.4999L406.562 72.6082H389L399.794 65.6603L406.507 69.9808L408.953 63.052ZM410.952 82.4999L408.989 78.5297L407.026 82.4999H410.952Z" fill="#344F10"/>
<path d="M409 72L411.5 70H406.5L409 72Z" fill="#344F10"/>
<defs>
<clipPath id="clip0_21779_1104">
<rect width="24" height="24" fill="white" transform="translate(216 61)"/>
</clipPath>
</defs>
</svg>
