<svg width="98" height="322" viewBox="0 0 98 322" fill="none" xmlns="http://www.w3.org/2000/svg">
<path d="M56.5456 18L51.9536 12.912V18H50.4976V6.848H51.9536V12.016L56.5616 6.848H58.4016L53.3456 12.432L58.4496 18H56.5456ZM59.5318 13.584C59.5318 12.688 59.7131 11.904 60.0758 11.232C60.4384 10.5493 60.9344 10.0213 61.5638 9.648C62.2038 9.27467 62.9131 9.088 63.6918 9.088C64.4598 9.088 65.1264 9.25333 65.6918 9.584C66.2571 9.91467 66.6784 10.3307 66.9558 10.832V9.232H68.4278V18H66.9558V16.368C66.6678 16.88 66.2358 17.3067 65.6598 17.648C65.0944 17.9787 64.4331 18.144 63.6758 18.144C62.8971 18.144 62.1931 17.952 61.5638 17.568C60.9344 17.184 60.4384 16.6453 60.0758 15.952C59.7131 15.2587 59.5318 14.4693 59.5318 13.584ZM66.9558 13.6C66.9558 12.9387 66.8224 12.3627 66.5558 11.872C66.2891 11.3813 65.9264 11.008 65.4678 10.752C65.0198 10.4853 64.5238 10.352 63.9798 10.352C63.4358 10.352 62.9398 10.48 62.4918 10.736C62.0438 10.992 61.6864 11.3653 61.4198 11.856C61.1531 12.3467 61.0198 12.9227 61.0198 13.584C61.0198 14.256 61.1531 14.8427 61.4198 15.344C61.6864 15.8347 62.0438 16.2133 62.4918 16.48C62.9398 16.736 63.4358 16.864 63.9798 16.864C64.5238 16.864 65.0198 16.736 65.4678 16.48C65.9264 16.2133 66.2891 15.8347 66.5558 15.344C66.8224 14.8427 66.9558 14.2613 66.9558 13.6ZM74.7123 18.144C73.8909 18.144 73.1443 17.9573 72.4723 17.584C71.8109 17.2107 71.2883 16.6827 70.9043 16C70.5309 15.3067 70.3443 14.5067 70.3443 13.6C70.3443 12.704 70.5363 11.9147 70.9203 11.232C71.3149 10.5387 71.8483 10.0107 72.5203 9.648C73.1923 9.27467 73.9443 9.088 74.7763 9.088C75.6083 9.088 76.3603 9.27467 77.0323 9.648C77.7043 10.0107 78.2323 10.5333 78.6163 11.216C79.0109 11.8987 79.2083 12.6933 79.2083 13.6C79.2083 14.5067 79.0056 15.3067 78.6003 16C78.2056 16.6827 77.6669 17.2107 76.9843 17.584C76.3016 17.9573 75.5443 18.144 74.7123 18.144ZM74.7123 16.864C75.2349 16.864 75.7256 16.7413 76.1843 16.496C76.6429 16.2507 77.0109 15.8827 77.2883 15.392C77.5763 14.9013 77.7203 14.304 77.7203 13.6C77.7203 12.896 77.5816 12.2987 77.3043 11.808C77.0269 11.3173 76.6643 10.9547 76.2163 10.72C75.7683 10.4747 75.2829 10.352 74.7603 10.352C74.2269 10.352 73.7363 10.4747 73.2883 10.72C72.8509 10.9547 72.4989 11.3173 72.2323 11.808C71.9656 12.2987 71.8323 12.896 71.8323 13.6C71.8323 14.3147 71.9603 14.9173 72.2163 15.408C72.4829 15.8987 72.8349 16.2667 73.2723 16.512C73.7096 16.7467 74.1896 16.864 74.7123 16.864ZM82.5786 6.16V18H81.1226V6.16H82.5786ZM85.8121 7.808C85.5348 7.808 85.3001 7.712 85.1081 7.52C84.9161 7.328 84.8201 7.09333 84.8201 6.816C84.8201 6.53867 84.9161 6.304 85.1081 6.112C85.3001 5.92 85.5348 5.824 85.8121 5.824C86.0788 5.824 86.3028 5.92 86.4841 6.112C86.6761 6.304 86.7721 6.53867 86.7721 6.816C86.7721 7.09333 86.6761 7.328 86.4841 7.52C86.3028 7.712 86.0788 7.808 85.8121 7.808ZM86.5161 9.232V18H85.0601V9.232H86.5161ZM93.2696 9.072C94.3363 9.072 95.2003 9.39733 95.8616 10.048C96.523 10.688 96.8536 11.616 96.8536 12.832V18H95.4136V13.04C95.4136 12.1653 95.195 11.4987 94.7576 11.04C94.3203 10.5707 93.723 10.336 92.9656 10.336C92.1976 10.336 91.5843 10.576 91.1256 11.056C90.6776 11.536 90.4536 12.2347 90.4536 13.152V18H88.9976V9.232H90.4536V10.48C90.7416 10.032 91.131 9.68533 91.6216 9.44C92.123 9.19467 92.6723 9.072 93.2696 9.072Z" fill="#333333"/>
<path d="M61.4243 94.112C60.6883 94.112 60.0269 93.984 59.4403 93.728C58.8643 93.4613 58.4109 93.0987 58.0803 92.64C57.7496 92.1707 57.5789 91.632 57.5683 91.024H59.1203C59.1736 91.5467 59.3869 91.9893 59.7603 92.352C60.1443 92.704 60.6989 92.88 61.4243 92.88C62.1176 92.88 62.6616 92.7093 63.0563 92.368C63.4616 92.016 63.6643 91.568 63.6643 91.024C63.6643 90.5973 63.5469 90.2507 63.3123 89.984C63.0776 89.7173 62.7843 89.5147 62.4323 89.376C62.0803 89.2373 61.6056 89.088 61.0083 88.928C60.2723 88.736 59.6803 88.544 59.2323 88.352C58.7949 88.16 58.4163 87.8613 58.0963 87.456C57.7869 87.04 57.6323 86.4853 57.6323 85.792C57.6323 85.184 57.7869 84.6453 58.0963 84.176C58.4056 83.7067 58.8376 83.344 59.3923 83.088C59.9576 82.832 60.6029 82.704 61.3283 82.704C62.3736 82.704 63.2269 82.9653 63.8883 83.488C64.5603 84.0107 64.9389 84.704 65.0243 85.568H63.4243C63.3709 85.1413 63.1469 84.768 62.7523 84.448C62.3576 84.1173 61.8349 83.952 61.1843 83.952C60.5763 83.952 60.0803 84.112 59.6963 84.432C59.3123 84.7413 59.1203 85.1787 59.1203 85.744C59.1203 86.1493 59.2323 86.48 59.4563 86.736C59.6909 86.992 59.9736 87.1893 60.3043 87.328C60.6456 87.456 61.1203 87.6053 61.7283 87.776C62.4643 87.9787 63.0563 88.1813 63.5043 88.384C63.9523 88.576 64.3363 88.88 64.6562 89.296C64.9763 89.7013 65.1363 90.256 65.1363 90.96C65.1363 91.504 64.9923 92.016 64.7043 92.496C64.4163 92.976 63.9896 93.3653 63.4243 93.664C62.8589 93.9627 62.1923 94.112 61.4243 94.112ZM68.0309 83.808C67.7535 83.808 67.5189 83.712 67.3269 83.52C67.1349 83.328 67.0389 83.0933 67.0389 82.816C67.0389 82.5387 67.1349 82.304 67.3269 82.112C67.5189 81.92 67.7535 81.824 68.0309 81.824C68.2975 81.824 68.5215 81.92 68.7029 82.112C68.8949 82.304 68.9909 82.5387 68.9909 82.816C68.9909 83.0933 68.8949 83.328 68.7029 83.52C68.5215 83.712 68.2975 83.808 68.0309 83.808ZM68.7349 85.232V94H67.2789V85.232H68.7349ZM74.4804 92.656L77.2004 85.232H78.7524L75.3124 94H73.6164L70.1764 85.232H71.7444L74.4804 92.656ZM79.6411 89.584C79.6411 88.688 79.8225 87.904 80.1851 87.232C80.5478 86.5493 81.0438 86.0213 81.6731 85.648C82.3131 85.2747 83.0225 85.088 83.8011 85.088C84.5691 85.088 85.2358 85.2533 85.8011 85.584C86.3665 85.9147 86.7878 86.3307 87.0651 86.832V85.232H88.5371V94H87.0651V92.368C86.7771 92.88 86.3451 93.3067 85.7691 93.648C85.2038 93.9787 84.5425 94.144 83.7851 94.144C83.0065 94.144 82.3025 93.952 81.6731 93.568C81.0438 93.184 80.5478 92.6453 80.1851 91.952C79.8225 91.2587 79.6411 90.4693 79.6411 89.584ZM87.0651 89.6C87.0651 88.9387 86.9318 88.3627 86.6651 87.872C86.3985 87.3813 86.0358 87.008 85.5771 86.752C85.1291 86.4853 84.6331 86.352 84.0891 86.352C83.5451 86.352 83.0491 86.48 82.6011 86.736C82.1531 86.992 81.7958 87.3653 81.5291 87.856C81.2625 88.3467 81.1291 88.9227 81.1291 89.584C81.1291 90.256 81.2625 90.8427 81.5291 91.344C81.7958 91.8347 82.1531 92.2133 82.6011 92.48C83.0491 92.736 83.5451 92.864 84.0891 92.864C84.6331 92.864 85.1291 92.736 85.5771 92.48C86.0358 92.2133 86.3985 91.8347 86.6651 91.344C86.9318 90.8427 87.0651 90.2613 87.0651 89.6ZM95.8936 94L92.4536 90.128V94H90.9976V82.16H92.4536V89.12L95.8296 85.232H97.8616L93.7336 89.6L97.8776 94H95.8936Z" fill="#333333"/>
<path d="M31.2036 161.416C31.2036 160.328 31.449 159.352 31.9396 158.488C32.4303 157.613 33.097 156.931 33.9396 156.44C34.793 155.949 35.737 155.704 36.7716 155.704C37.9876 155.704 39.049 155.997 39.9556 156.584C40.8623 157.171 41.5236 158.003 41.9396 159.08H40.1956C39.8863 158.408 39.4383 157.891 38.8516 157.528C38.2756 157.165 37.5823 156.984 36.7716 156.984C35.993 156.984 35.2943 157.165 34.6756 157.528C34.057 157.891 33.5716 158.408 33.2196 159.08C32.8676 159.741 32.6916 160.52 32.6916 161.416C32.6916 162.301 32.8676 163.08 33.2196 163.752C33.5716 164.413 34.057 164.925 34.6756 165.288C35.2943 165.651 35.993 165.832 36.7716 165.832C37.5823 165.832 38.2756 165.656 38.8516 165.304C39.4383 164.941 39.8863 164.424 40.1956 163.752H41.9396C41.5236 164.819 40.8623 165.645 39.9556 166.232C39.049 166.808 37.9876 167.096 36.7716 167.096C35.737 167.096 34.793 166.856 33.9396 166.376C33.097 165.885 32.4303 165.208 31.9396 164.344C31.449 163.48 31.2036 162.504 31.2036 161.416ZM43.563 162.584C43.563 161.688 43.7443 160.904 44.107 160.232C44.4697 159.549 44.9657 159.021 45.595 158.648C46.235 158.275 46.9443 158.088 47.723 158.088C48.491 158.088 49.1577 158.253 49.723 158.584C50.2883 158.915 50.7097 159.331 50.987 159.832V158.232H52.459V167H50.987V165.368C50.699 165.88 50.267 166.307 49.691 166.648C49.1257 166.979 48.4643 167.144 47.707 167.144C46.9283 167.144 46.2243 166.952 45.595 166.568C44.9657 166.184 44.4697 165.645 44.107 164.952C43.7443 164.259 43.563 163.469 43.563 162.584ZM50.987 162.6C50.987 161.939 50.8537 161.363 50.587 160.872C50.3203 160.381 49.9577 160.008 49.499 159.752C49.051 159.485 48.555 159.352 48.011 159.352C47.467 159.352 46.971 159.48 46.523 159.736C46.075 159.992 45.7177 160.365 45.451 160.856C45.1843 161.347 45.051 161.923 45.051 162.584C45.051 163.256 45.1843 163.843 45.451 164.344C45.7177 164.835 46.075 165.213 46.523 165.48C46.971 165.736 47.467 165.864 48.011 165.864C48.555 165.864 49.051 165.736 49.499 165.48C49.9577 165.213 50.3203 164.835 50.587 164.344C50.8537 163.843 50.987 163.261 50.987 162.6ZM56.3755 155.16V167H54.9195V155.16H56.3755ZM58.313 162.6C58.313 161.693 58.4943 160.904 58.857 160.232C59.2197 159.549 59.721 159.021 60.361 158.648C61.0117 158.275 61.753 158.088 62.585 158.088C63.6623 158.088 64.5477 158.349 65.241 158.872C65.945 159.395 66.409 160.12 66.633 161.048H65.065C64.9157 160.515 64.6223 160.093 64.185 159.784C63.7583 159.475 63.225 159.32 62.585 159.32C61.753 159.32 61.081 159.608 60.569 160.184C60.057 160.749 59.801 161.555 59.801 162.6C59.801 163.656 60.057 164.472 60.569 165.048C61.081 165.624 61.753 165.912 62.585 165.912C63.225 165.912 63.7583 165.763 64.185 165.464C64.6117 165.165 64.905 164.739 65.065 164.184H66.633C66.3983 165.08 65.929 165.8 65.225 166.344C64.521 166.877 63.641 167.144 62.585 167.144C61.753 167.144 61.0117 166.957 60.361 166.584C59.721 166.211 59.2197 165.683 58.857 165C58.4943 164.317 58.313 163.517 58.313 162.6ZM69.3278 156.808C69.0504 156.808 68.8158 156.712 68.6238 156.52C68.4318 156.328 68.3358 156.093 68.3358 155.816C68.3358 155.539 68.4318 155.304 68.6238 155.112C68.8158 154.92 69.0504 154.824 69.3278 154.824C69.5944 154.824 69.8184 154.92 69.9998 155.112C70.1918 155.304 70.2878 155.539 70.2878 155.816C70.2878 156.093 70.1918 156.328 69.9998 156.52C69.8184 156.712 69.5944 156.808 69.3278 156.808ZM70.0318 158.232V167H68.5758V158.232H70.0318ZM80.2893 158.232V167H78.8333V165.704C78.5559 166.152 78.1666 166.504 77.6653 166.76C77.1746 167.005 76.6306 167.128 76.0333 167.128C75.3506 167.128 74.7373 166.989 74.1933 166.712C73.6493 166.424 73.2173 165.997 72.8973 165.432C72.5879 164.867 72.4333 164.179 72.4333 163.368V158.232H73.8733V163.176C73.8733 164.04 74.0919 164.707 74.5293 165.176C74.9666 165.635 75.5639 165.864 76.3213 165.864C77.0999 165.864 77.7133 165.624 78.1613 165.144C78.6093 164.664 78.8333 163.965 78.8333 163.048V158.232H80.2893ZM93.2916 158.072C93.9743 158.072 94.5823 158.216 95.1156 158.504C95.649 158.781 96.0703 159.203 96.3796 159.768C96.689 160.333 96.8436 161.021 96.8436 161.832V167H95.4036V162.04C95.4036 161.165 95.185 160.499 94.7476 160.04C94.321 159.571 93.7396 159.336 93.0036 159.336C92.2463 159.336 91.6436 159.581 91.1956 160.072C90.7476 160.552 90.5236 161.251 90.5236 162.168V167H89.0836V162.04C89.0836 161.165 88.865 160.499 88.4276 160.04C88.001 159.571 87.4196 159.336 86.6836 159.336C85.9263 159.336 85.3236 159.581 84.8756 160.072C84.4276 160.552 84.2036 161.251 84.2036 162.168V167H82.7476V158.232H84.2036V159.496C84.4916 159.037 84.8756 158.685 85.3556 158.44C85.8463 158.195 86.385 158.072 86.9716 158.072C87.7076 158.072 88.3583 158.237 88.9236 158.568C89.489 158.899 89.9103 159.384 90.1876 160.024C90.433 159.405 90.8383 158.925 91.4036 158.584C91.969 158.243 92.5983 158.072 93.2916 158.072Z" fill="#333333"/>
<path d="M3.813 241.816H7.717V243H2.357V231.848H3.813V241.816ZM10.0153 232.808C9.73792 232.808 9.50325 232.712 9.31125 232.52C9.11925 232.328 9.02325 232.093 9.02325 231.816C9.02325 231.539 9.11925 231.304 9.31125 231.112C9.50325 230.92 9.73792 230.824 10.0153 230.824C10.2819 230.824 10.5059 230.92 10.6873 231.112C10.8793 231.304 10.9753 231.539 10.9753 231.816C10.9753 232.093 10.8793 232.328 10.6873 232.52C10.5059 232.712 10.2819 232.808 10.0153 232.808ZM10.7193 234.232V243H9.26325V234.232H10.7193ZM12.6568 238.6C12.6568 237.693 12.8381 236.904 13.2008 236.232C13.5634 235.549 14.0648 235.021 14.7048 234.648C15.3554 234.275 16.0968 234.088 16.9288 234.088C18.0061 234.088 18.8914 234.349 19.5848 234.872C20.2888 235.395 20.7528 236.12 20.9768 237.048H19.4088C19.2594 236.515 18.9661 236.093 18.5288 235.784C18.1021 235.475 17.5688 235.32 16.9288 235.32C16.0968 235.32 15.4248 235.608 14.9128 236.184C14.4008 236.749 14.1448 237.555 14.1448 238.6C14.1448 239.656 14.4008 240.472 14.9128 241.048C15.4248 241.624 16.0968 241.912 16.9288 241.912C17.5688 241.912 18.1021 241.763 18.5288 241.464C18.9554 241.165 19.2488 240.739 19.4088 240.184H20.9768C20.7421 241.08 20.2728 241.8 19.5688 242.344C18.8648 242.877 17.9848 243.144 16.9288 243.144C16.0968 243.144 15.3554 242.957 14.7048 242.584C14.0648 242.211 13.5634 241.683 13.2008 241C12.8381 240.317 12.6568 239.517 12.6568 238.6ZM26.7435 243.144C25.9222 243.144 25.1755 242.957 24.5035 242.584C23.8422 242.211 23.3195 241.683 22.9355 241C22.5622 240.307 22.3755 239.507 22.3755 238.6C22.3755 237.704 22.5675 236.915 22.9515 236.232C23.3462 235.539 23.8795 235.011 24.5515 234.648C25.2235 234.275 25.9755 234.088 26.8075 234.088C27.6395 234.088 28.3915 234.275 29.0635 234.648C29.7355 235.011 30.2635 235.533 30.6475 236.216C31.0422 236.899 31.2395 237.693 31.2395 238.6C31.2395 239.507 31.0368 240.307 30.6315 241C30.2368 241.683 29.6982 242.211 29.0155 242.584C28.3328 242.957 27.5755 243.144 26.7435 243.144ZM26.7435 241.864C27.2662 241.864 27.7568 241.741 28.2155 241.496C28.6742 241.251 29.0422 240.883 29.3195 240.392C29.6075 239.901 29.7515 239.304 29.7515 238.6C29.7515 237.896 29.6128 237.299 29.3355 236.808C29.0582 236.317 28.6955 235.955 28.2475 235.72C27.7995 235.475 27.3142 235.352 26.7915 235.352C26.2582 235.352 25.7675 235.475 25.3195 235.72C24.8822 235.955 24.5302 236.317 24.2635 236.808C23.9968 237.299 23.8635 237.896 23.8635 238.6C23.8635 239.315 23.9915 239.917 24.2475 240.408C24.5142 240.899 24.8662 241.267 25.3035 241.512C25.7408 241.747 26.2208 241.864 26.7435 241.864ZM34.6099 235.656C34.8659 235.155 35.2285 234.765 35.6979 234.488C36.1779 234.211 36.7592 234.072 37.4419 234.072V235.576H37.0579C35.4259 235.576 34.6099 236.461 34.6099 238.232V243H33.1539V234.232H34.6099V235.656ZM39.8746 232.808C39.5973 232.808 39.3626 232.712 39.1706 232.52C38.9786 232.328 38.8826 232.093 38.8826 231.816C38.8826 231.539 38.9786 231.304 39.1706 231.112C39.3626 230.92 39.5973 230.824 39.8746 230.824C40.1413 230.824 40.3653 230.92 40.5466 231.112C40.7386 231.304 40.8346 231.539 40.8346 231.816C40.8346 232.093 40.7386 232.328 40.5466 232.52C40.3653 232.712 40.1413 232.808 39.8746 232.808ZM40.5786 234.232V243H39.1226V234.232H40.5786ZM42.5161 238.6C42.5161 237.693 42.6975 236.904 43.0601 236.232C43.4228 235.549 43.9241 235.021 44.5641 234.648C45.2148 234.275 45.9561 234.088 46.7881 234.088C47.8655 234.088 48.7508 234.349 49.4441 234.872C50.1481 235.395 50.6121 236.12 50.8361 237.048H49.2681C49.1188 236.515 48.8255 236.093 48.3881 235.784C47.9615 235.475 47.4281 235.32 46.7881 235.32C45.9561 235.32 45.2841 235.608 44.7721 236.184C44.2601 236.749 44.0041 237.555 44.0041 238.6C44.0041 239.656 44.2601 240.472 44.7721 241.048C45.2841 241.624 45.9561 241.912 46.7881 241.912C47.4281 241.912 47.9615 241.763 48.3881 241.464C48.8148 241.165 49.1081 240.739 49.2681 240.184H50.8361C50.6015 241.08 50.1321 241.8 49.4281 242.344C48.7241 242.877 47.8441 243.144 46.7881 243.144C45.9561 243.144 45.2148 242.957 44.5641 242.584C43.9241 242.211 43.4228 241.683 43.0601 241C42.6975 240.317 42.5161 239.517 42.5161 238.6ZM60.7789 238.28C60.7789 238.557 60.7629 238.851 60.7309 239.16H53.7229C53.7762 240.024 54.0695 240.701 54.6029 241.192C55.1469 241.672 55.8029 241.912 56.5709 241.912C57.2002 241.912 57.7229 241.768 58.1389 241.48C58.5655 241.181 58.8642 240.787 59.0349 240.296H60.6029C60.3682 241.139 59.8989 241.827 59.1949 242.36C58.4909 242.883 57.6162 243.144 56.5709 243.144C55.7389 243.144 54.9922 242.957 54.3309 242.584C53.6802 242.211 53.1682 241.683 52.7949 241C52.4215 240.307 52.2349 239.507 52.2349 238.6C52.2349 237.693 52.4162 236.899 52.7789 236.216C53.1415 235.533 53.6482 235.011 54.2989 234.648C54.9602 234.275 55.7175 234.088 56.5709 234.088C57.4029 234.088 58.1389 234.269 58.7789 234.632C59.4189 234.995 59.9095 235.496 60.2509 236.136C60.6029 236.765 60.7789 237.48 60.7789 238.28ZM59.2749 237.976C59.2749 237.421 59.1522 236.947 58.9069 236.552C58.6615 236.147 58.3255 235.843 57.8989 235.64C57.4829 235.427 57.0189 235.32 56.5069 235.32C55.7709 235.32 55.1415 235.555 54.6189 236.024C54.1069 236.493 53.8135 237.144 53.7389 237.976H59.2749ZM68.4224 235.656C68.6784 235.155 69.041 234.765 69.5104 234.488C69.9904 234.211 70.5717 234.072 71.2544 234.072V235.576H70.8704C69.2384 235.576 68.4224 236.461 68.4224 238.232V243H66.9664V234.232H68.4224V235.656ZM76.7591 243.144C75.9378 243.144 75.1911 242.957 74.5191 242.584C73.8578 242.211 73.3351 241.683 72.9511 241C72.5778 240.307 72.3911 239.507 72.3911 238.6C72.3911 237.704 72.5831 236.915 72.9671 236.232C73.3618 235.539 73.8951 235.011 74.5671 234.648C75.2391 234.275 75.9911 234.088 76.8231 234.088C77.6551 234.088 78.4071 234.275 79.0791 234.648C79.7511 235.011 80.2791 235.533 80.6631 236.216C81.0578 236.899 81.2551 237.693 81.2551 238.6C81.2551 239.507 81.0525 240.307 80.6471 241C80.2525 241.683 79.7138 242.211 79.0311 242.584C78.3485 242.957 77.5911 243.144 76.7591 243.144ZM76.7591 241.864C77.2818 241.864 77.7725 241.741 78.2311 241.496C78.6898 241.251 79.0578 240.883 79.3351 240.392C79.6231 239.901 79.7671 239.304 79.7671 238.6C79.7671 237.896 79.6285 237.299 79.3511 236.808C79.0738 236.317 78.7111 235.955 78.2631 235.72C77.8151 235.475 77.3298 235.352 76.8071 235.352C76.2738 235.352 75.7831 235.475 75.3351 235.72C74.8978 235.955 74.5458 236.317 74.2791 236.808C74.0125 237.299 73.8791 237.896 73.8791 238.6C73.8791 239.315 74.0071 239.917 74.2631 240.408C74.5298 240.899 74.8818 241.267 75.3191 241.512C75.7565 241.747 76.2365 241.864 76.7591 241.864ZM86.9935 243.144C86.1722 243.144 85.4255 242.957 84.7535 242.584C84.0922 242.211 83.5695 241.683 83.1855 241C82.8122 240.307 82.6255 239.507 82.6255 238.6C82.6255 237.704 82.8175 236.915 83.2015 236.232C83.5962 235.539 84.1295 235.011 84.8015 234.648C85.4735 234.275 86.2255 234.088 87.0575 234.088C87.8895 234.088 88.6415 234.275 89.3135 234.648C89.9855 235.011 90.5135 235.533 90.8975 236.216C91.2922 236.899 91.4895 237.693 91.4895 238.6C91.4895 239.507 91.2868 240.307 90.8815 241C90.4868 241.683 89.9482 242.211 89.2655 242.584C88.5828 242.957 87.8255 243.144 86.9935 243.144ZM86.9935 241.864C87.5162 241.864 88.0068 241.741 88.4655 241.496C88.9242 241.251 89.2922 240.883 89.5695 240.392C89.8575 239.901 90.0015 239.304 90.0015 238.6C90.0015 237.896 89.8628 237.299 89.5855 236.808C89.3082 236.317 88.9455 235.955 88.4975 235.72C88.0495 235.475 87.5642 235.352 87.0415 235.352C86.5082 235.352 86.0175 235.475 85.5695 235.72C85.1322 235.955 84.7802 236.317 84.5135 236.808C84.2468 237.299 84.1135 237.896 84.1135 238.6C84.1135 239.315 84.2415 239.917 84.4975 240.408C84.7642 240.899 85.1162 241.267 85.5535 241.512C85.9908 241.747 86.4708 241.864 86.9935 241.864ZM95.1799 235.432V240.6C95.1799 241.027 95.2705 241.331 95.4519 241.512C95.6332 241.683 95.9479 241.768 96.3959 241.768H97.4679V243H96.1559C95.3452 243 94.7372 242.813 94.3319 242.44C93.9265 242.067 93.7239 241.453 93.7239 240.6V235.432H92.5879V234.232H93.7239V232.024H95.1799V234.232H97.4679V235.432H95.1799Z" fill="#333333"/>
<path d="M35.2054 304.848V306.032H32.1654V316H30.7094V306.032H27.6534V304.848H35.2054ZM44.7736 307.232V316H43.3176V314.704C43.0403 315.152 42.651 315.504 42.1496 315.76C41.659 316.005 41.115 316.128 40.5176 316.128C39.835 316.128 39.2216 315.989 38.6776 315.712C38.1336 315.424 37.7016 314.997 37.3816 314.432C37.0723 313.867 36.9176 313.179 36.9176 312.368V307.232H38.3576V312.176C38.3576 313.04 38.5763 313.707 39.0136 314.176C39.451 314.635 40.0483 314.864 40.8056 314.864C41.5843 314.864 42.1976 314.624 42.6456 314.144C43.0936 313.664 43.3176 312.965 43.3176 312.048V307.232H44.7736ZM48.688 308.656C48.944 308.155 49.3067 307.765 49.776 307.488C50.256 307.211 50.8373 307.072 51.52 307.072V308.576H51.136C49.504 308.576 48.688 309.461 48.688 311.232V316H47.232V307.232H48.688V308.656ZM63.7448 307.072C64.4274 307.072 65.0354 307.216 65.5688 307.504C66.1021 307.781 66.5234 308.203 66.8328 308.768C67.1421 309.333 67.2968 310.021 67.2968 310.832V316H65.8568V311.04C65.8568 310.165 65.6381 309.499 65.2008 309.04C64.7741 308.571 64.1928 308.336 63.4568 308.336C62.6994 308.336 62.0968 308.581 61.6488 309.072C61.2008 309.552 60.9768 310.251 60.9768 311.168V316H59.5368V311.04C59.5368 310.165 59.3181 309.499 58.8808 309.04C58.4541 308.571 57.8728 308.336 57.1368 308.336C56.3794 308.336 55.7768 308.581 55.3288 309.072C54.8808 309.552 54.6568 310.251 54.6568 311.168V316H53.2008V307.232H54.6568V308.496C54.9448 308.037 55.3288 307.685 55.8088 307.44C56.2994 307.195 56.8381 307.072 57.4248 307.072C58.1608 307.072 58.8114 307.237 59.3768 307.568C59.9421 307.899 60.3634 308.384 60.6408 309.024C60.8861 308.405 61.2914 307.925 61.8568 307.584C62.4221 307.243 63.0514 307.072 63.7448 307.072ZM77.6851 311.28C77.6851 311.557 77.6691 311.851 77.6371 312.16H70.6291C70.6825 313.024 70.9758 313.701 71.5091 314.192C72.0531 314.672 72.7091 314.912 73.4771 314.912C74.1065 314.912 74.6291 314.768 75.0451 314.48C75.4718 314.181 75.7705 313.787 75.9411 313.296H77.5091C77.2745 314.139 76.8051 314.827 76.1011 315.36C75.3971 315.883 74.5225 316.144 73.4771 316.144C72.6451 316.144 71.8985 315.957 71.2371 315.584C70.5865 315.211 70.0745 314.683 69.7011 314C69.3278 313.307 69.1411 312.507 69.1411 311.6C69.1411 310.693 69.3225 309.899 69.6851 309.216C70.0478 308.533 70.5545 308.011 71.2051 307.648C71.8665 307.275 72.6238 307.088 73.4771 307.088C74.3091 307.088 75.0451 307.269 75.6851 307.632C76.3251 307.995 76.8158 308.496 77.1571 309.136C77.5091 309.765 77.6851 310.48 77.6851 311.28ZM76.1811 310.976C76.1811 310.421 76.0585 309.947 75.8131 309.552C75.5678 309.147 75.2318 308.843 74.8051 308.64C74.3891 308.427 73.9251 308.32 73.4131 308.32C72.6771 308.32 72.0478 308.555 71.5251 309.024C71.0131 309.493 70.7198 310.144 70.6451 310.976H76.1811ZM81.063 308.656C81.319 308.155 81.6817 307.765 82.151 307.488C82.631 307.211 83.2123 307.072 83.895 307.072V308.576H83.511C81.879 308.576 81.063 309.461 81.063 311.232V316H79.607V307.232H81.063V308.656ZM86.3278 305.808C86.0504 305.808 85.8158 305.712 85.6238 305.52C85.4318 305.328 85.3358 305.093 85.3358 304.816C85.3358 304.539 85.4318 304.304 85.6238 304.112C85.8158 303.92 86.0504 303.824 86.3278 303.824C86.5944 303.824 86.8184 303.92 86.9998 304.112C87.1918 304.304 87.2878 304.539 87.2878 304.816C87.2878 305.093 87.1918 305.328 86.9998 305.52C86.8184 305.712 86.5944 305.808 86.3278 305.808ZM87.0318 307.232V316H85.5758V307.232H87.0318ZM88.9693 311.6C88.9693 310.693 89.1506 309.904 89.5133 309.232C89.8759 308.549 90.3773 308.021 91.0173 307.648C91.6679 307.275 92.4093 307.088 93.2413 307.088C94.3186 307.088 95.2039 307.349 95.8973 307.872C96.6013 308.395 97.0653 309.12 97.2893 310.048H95.7213C95.5719 309.515 95.2786 309.093 94.8413 308.784C94.4146 308.475 93.8813 308.32 93.2413 308.32C92.4093 308.32 91.7373 308.608 91.2253 309.184C90.7133 309.749 90.4573 310.555 90.4573 311.6C90.4573 312.656 90.7133 313.472 91.2253 314.048C91.7373 314.624 92.4093 314.912 93.2413 314.912C93.8813 314.912 94.4146 314.763 94.8413 314.464C95.2679 314.165 95.5613 313.739 95.7213 313.184H97.2893C97.0546 314.08 96.5853 314.8 95.8813 315.344C95.1773 315.877 94.2973 316.144 93.2413 316.144C92.4093 316.144 91.6679 315.957 91.0173 315.584C90.3773 315.211 89.8759 314.683 89.5133 314C89.1506 313.317 88.9693 312.517 88.9693 311.6Z" fill="#333333"/>
</svg>
