<svg width="15" height="79" viewBox="0 0 15 79" fill="none" xmlns="http://www.w3.org/2000/svg">
<path d="M1.27 77.3557H11V78.9517H1.27V77.3557ZM3.16 71.3683C3.16 70.7616 3.286 70.2203 3.538 69.7443C3.79 69.259 4.16333 68.881 4.658 68.6103C5.15267 68.3396 5.75 68.2043 6.45 68.2043H11V69.7863H6.688C5.99733 69.7863 5.47 69.959 5.106 70.3043C4.73267 70.6496 4.546 71.121 4.546 71.7183C4.546 72.3156 4.73267 72.7916 5.106 73.1463C5.47 73.4916 5.99733 73.6643 6.688 73.6643H11V75.2603H3.286V73.6643H4.168C3.85067 73.403 3.60333 73.0716 3.426 72.6703C3.24867 72.2596 3.16 71.8256 3.16 71.3683ZM3.16 63.0605C3.16 62.4632 3.28133 61.9358 3.524 61.4785C3.75733 61.0118 4.05133 60.6478 4.406 60.3865H3.286V58.7765H11.126C11.8353 58.7765 12.4653 58.9258 13.016 59.2245C13.576 59.5232 14.0147 59.9572 14.332 60.5265C14.6493 61.0865 14.808 61.7585 14.808 62.5425C14.808 63.5878 14.5607 64.4558 14.066 65.1465C13.5807 65.8372 12.918 66.2292 12.078 66.3225V64.7405C12.4793 64.6192 12.8013 64.3625 13.044 63.9705C13.296 63.5692 13.422 63.0932 13.422 62.5425C13.422 61.8985 13.226 61.3805 12.834 60.9885C12.442 60.5872 11.8727 60.3865 11.126 60.3865H9.838C10.202 60.6572 10.51 61.0258 10.762 61.4925C11.0047 61.9498 11.126 62.4725 11.126 63.0605C11.126 63.7325 10.958 64.3485 10.622 64.9085C10.2767 65.4592 9.80067 65.8978 9.194 66.2245C8.578 66.5418 7.88267 66.7005 7.108 66.7005C6.33333 66.7005 5.64733 66.5418 5.05 66.2245C4.45267 65.8978 3.99067 65.4592 3.664 64.9085C3.328 64.3485 3.16 63.7325 3.16 63.0605ZM7.136 60.3865C6.604 60.3865 6.142 60.4985 5.75 60.7225C5.358 60.9372 5.05933 61.2218 4.854 61.5765C4.64867 61.9312 4.546 62.3138 4.546 62.7245C4.546 63.1352 4.64867 63.5178 4.854 63.8725C5.05 64.2272 5.344 64.5165 5.736 64.7405C6.11867 64.9552 6.576 65.0625 7.108 65.0625C7.64 65.0625 8.10667 64.9552 8.508 64.7405C8.90933 64.5165 9.21733 64.2272 9.432 63.8725C9.63733 63.5085 9.74 63.1258 9.74 62.7245C9.74 62.3138 9.63733 61.9312 9.432 61.5765C9.22667 61.2218 8.928 60.9372 8.536 60.7225C8.13467 60.4985 7.668 60.3865 7.136 60.3865ZM4.406 55.0842C4.014 54.8509 3.71067 54.5429 3.496 54.1602C3.272 53.7682 3.16 53.3062 3.16 52.7742H4.812V53.1802C4.812 53.8056 4.97067 54.2816 5.288 54.6082C5.60533 54.9256 6.156 55.0842 6.94 55.0842H11V56.6802H3.286V55.0842H4.406ZM6.954 44.2372C7.24333 44.2372 7.50467 44.2558 7.738 44.2932V50.1872C8.354 50.1405 8.84867 49.9118 9.222 49.5012C9.59533 49.0905 9.782 48.5865 9.782 47.9892C9.782 47.1305 9.42267 46.5238 8.704 46.1692V44.4472C9.41333 44.6805 9.99667 45.1052 10.454 45.7212C10.902 46.3278 11.126 47.0838 11.126 47.9892C11.126 48.7265 10.9627 49.3892 10.636 49.9772C10.3 50.5558 9.83333 51.0132 9.236 51.3492C8.62933 51.6758 7.92933 51.8392 7.136 51.8392C6.34267 51.8392 5.64733 51.6805 5.05 51.3632C4.44333 51.0365 3.97667 50.5838 3.65 50.0052C3.32333 49.4172 3.16 48.7452 3.16 47.9892C3.16 47.2612 3.31867 46.6125 3.636 46.0432C3.95333 45.4738 4.40133 45.0305 4.98 44.7132C5.54933 44.3958 6.20733 44.2372 6.954 44.2372ZM6.45 45.9032C5.862 45.9125 5.39067 46.1225 5.036 46.5332C4.68133 46.9438 4.504 47.4525 4.504 48.0592C4.504 48.6098 4.68133 49.0812 5.036 49.4732C5.38133 49.8652 5.85267 50.0985 6.45 50.1732V45.9032ZM7.108 43.1986C6.33333 43.1986 5.64733 43.0399 5.05 42.7226C4.45267 42.3959 3.99067 41.9572 3.664 41.4066C3.328 40.8466 3.16 40.2259 3.16 39.5446C3.16 39.0406 3.272 38.5459 3.496 38.0606C3.71067 37.5659 4 37.1739 4.364 36.8846H0.64V35.2746H11V36.8846H9.838C10.2113 37.1459 10.5193 37.5099 10.762 37.9766C11.0047 38.4339 11.126 38.9612 11.126 39.5586C11.126 40.2306 10.958 40.8466 10.622 41.4066C10.2767 41.9572 9.80067 42.3959 9.194 42.7226C8.578 43.0399 7.88267 43.1986 7.108 43.1986ZM7.136 36.8846C6.604 36.8846 6.142 36.9966 5.75 37.2206C5.358 37.4352 5.05933 37.7199 4.854 38.0746C4.64867 38.4292 4.546 38.8119 4.546 39.2226C4.546 39.6332 4.64867 40.0159 4.854 40.3706C5.05 40.7252 5.344 41.0146 5.736 41.2386C6.11867 41.4532 6.576 41.5606 7.108 41.5606C7.64 41.5606 8.10667 41.4532 8.508 41.2386C8.90933 41.0146 9.21733 40.7252 9.432 40.3706C9.63733 40.0066 9.74 39.6239 9.74 39.2226C9.74 38.8119 9.63733 38.4292 9.432 38.0746C9.22667 37.7199 8.928 37.4352 8.536 37.2206C8.13467 36.9966 7.668 36.8846 7.136 36.8846ZM2.264 32.3663C2.264 32.6556 2.166 32.8983 1.97 33.0943C1.774 33.2903 1.53133 33.3883 1.242 33.3883C0.952666 33.3883 0.71 33.2903 0.514 33.0943C0.318 32.8983 0.219999 32.6556 0.219999 32.3663C0.219999 32.0863 0.318 31.8483 0.514 31.6523C0.71 31.4563 0.952666 31.3583 1.242 31.3583C1.53133 31.3583 1.774 31.4563 1.97 31.6523C2.166 31.8483 2.264 32.0863 2.264 32.3663ZM3.286 31.5823H11V33.1783H3.286V31.5823ZM6.954 22.4169C7.24333 22.4169 7.50467 22.4355 7.738 22.4729V28.3669C8.354 28.3202 8.84867 28.0915 9.222 27.6809C9.59533 27.2702 9.782 26.7662 9.782 26.1689C9.782 25.3102 9.42267 24.7035 8.704 24.3489V22.6269C9.41333 22.8602 9.99667 23.2849 10.454 23.9009C10.902 24.5075 11.126 25.2635 11.126 26.1689C11.126 26.9062 10.9627 27.5689 10.636 28.1569C10.3 28.7355 9.83333 29.1929 9.236 29.5289C8.62933 29.8555 7.92933 30.0189 7.136 30.0189C6.34267 30.0189 5.64733 29.8602 5.05 29.5429C4.44333 29.2162 3.97667 28.7635 3.65 28.1849C3.32333 27.5969 3.16 26.9249 3.16 26.1689C3.16 25.4409 3.31867 24.7922 3.636 24.2229C3.95333 23.6535 4.40133 23.2102 4.98 22.8929C5.54933 22.5755 6.20733 22.4169 6.954 22.4169ZM6.45 24.0829C5.862 24.0922 5.39067 24.3022 5.036 24.7129C4.68133 25.1235 4.504 25.6322 4.504 26.2389C4.504 26.7895 4.68133 27.2609 5.036 27.6529C5.38133 28.0449 5.85267 28.2782 6.45 28.3529V24.0829ZM3.16 16.9542C3.16 16.3476 3.286 15.8062 3.538 15.3302C3.79 14.8449 4.16333 14.4669 4.658 14.1962C5.15267 13.9256 5.75 13.7902 6.45 13.7902H11V15.3722H6.688C5.99733 15.3722 5.47 15.5449 5.106 15.8902C4.73267 16.2356 4.546 16.7069 4.546 17.3042C4.546 17.9016 4.73267 18.3776 5.106 18.7322C5.47 19.0776 5.99733 19.2502 6.688 19.2502H11V20.8462H3.286V19.2502H4.168C3.85067 18.9889 3.60333 18.6576 3.426 18.2562C3.24867 17.8456 3.16 17.4116 3.16 16.9542ZM4.588 9.89244H8.858C9.14733 9.89244 9.35733 9.82711 9.488 9.69644C9.60933 9.55644 9.67 9.32311 9.67 8.99644V8.01644H11V9.27644C11 9.99511 10.832 10.5458 10.496 10.9284C10.16 11.3111 9.614 11.5024 8.858 11.5024H4.588V12.4124H3.286V11.5024H1.368V9.89244H3.286L3.286 8.01644H4.588L4.588 9.89244ZM11.126 3.74546C11.126 4.35213 11.0187 4.89813 10.804 5.38346C10.58 5.85946 10.2813 6.23746 9.908 6.51746C9.52533 6.79746 9.10067 6.94679 8.634 6.96546V5.31346C8.96067 5.28546 9.236 5.13146 9.46 4.85146C9.67467 4.56213 9.782 4.20279 9.782 3.77346C9.782 3.32546 9.698 2.98013 9.53 2.73746C9.35267 2.48546 9.12867 2.35946 8.858 2.35946C8.56867 2.35946 8.354 2.49946 8.214 2.77946C8.074 3.05013 7.92 3.48413 7.752 4.08146C7.59333 4.66013 7.43933 5.13146 7.29 5.49546C7.14067 5.85946 6.912 6.17679 6.604 6.44746C6.296 6.70879 5.89 6.83946 5.386 6.83946C4.97533 6.83946 4.602 6.71813 4.266 6.47546C3.92067 6.23279 3.65 5.88746 3.454 5.43946C3.258 4.98213 3.16 4.45946 3.16 3.87146C3.16 2.99413 3.384 2.28946 3.832 1.75746C4.27067 1.21613 4.87267 0.926792 5.638 0.889459V2.48546C5.29267 2.51346 5.01733 2.65346 4.812 2.90546C4.60667 3.15746 4.504 3.49813 4.504 3.92746C4.504 4.34746 4.58333 4.66946 4.742 4.89346C4.90067 5.11746 5.11067 5.22946 5.372 5.22946C5.57733 5.22946 5.75 5.15479 5.89 5.00546C6.03 4.85613 6.142 4.67413 6.226 4.45946C6.30067 4.24479 6.39867 3.92746 6.52 3.50746C6.66933 2.94746 6.82333 2.49013 6.982 2.13546C7.13133 1.77146 7.35533 1.45879 7.654 1.19746C7.95267 0.936125 8.34933 0.800792 8.844 0.791459C9.28267 0.791459 9.67467 0.912792 10.02 1.15546C10.3653 1.39813 10.636 1.74346 10.832 2.19146C11.028 2.63013 11.126 3.14813 11.126 3.74546Z" fill="#344F10" fill-opacity="0.5"/>
</svg>
