<svg width="20" height="20" viewBox="0 0 20 20" fill="none" xmlns="http://www.w3.org/2000/svg">
<path d="M15 0.5H5C2.51472 0.5 0.5 2.51472 0.5 5V15C0.5 17.4853 2.51472 19.5 5 19.5H15C17.4853 19.5 19.5 17.4853 19.5 15V5C19.5 2.51472 17.4853 0.5 15 0.5Z" stroke="#344F10"/>
<path d="M10 13.5C11.933 13.5 13.5 11.933 13.5 10C13.5 8.067 11.933 6.5 10 6.5C8.067 6.5 6.5 8.067 6.5 10C6.5 11.933 8.067 13.5 10 13.5Z" stroke="#344F10"/>
<path d="M15.5 5.5C16.0523 5.5 16.5 5.05228 16.5 4.5C16.5 3.94772 16.0523 3.5 15.5 3.5C14.9477 3.5 14.5 3.94772 14.5 4.5C14.5 5.05228 14.9477 5.5 15.5 5.5Z" stroke="#344F10"/>
</svg>
