<svg width="300" height="399" viewBox="0 0 300 399" fill="none" xmlns="http://www.w3.org/2000/svg">
<path fill-rule="evenodd" clip-rule="evenodd" d="M150.868 15.8733C294.779 -3.23879 377.726 -4.66845 531.133 15.8734L532 15.9895V16.8646V83.2497V84.2497H531H522.927V114.695V115.695H521.927H506.735C506.665 116.067 506.575 116.56 506.477 117.152C506.244 118.559 505.965 120.518 505.778 122.724C505.402 127.181 505.423 132.48 506.853 136.308C508.376 140.388 512.228 144.747 515.817 148.15C517.594 149.835 519.272 151.255 520.507 152.254C521.124 152.753 521.629 153.146 521.979 153.414C522.153 153.547 522.289 153.65 522.381 153.718L522.421 153.748L522.484 153.795L522.51 153.814L522.516 153.818L522.517 153.819L522.513 153.824L522.517 153.819L522.927 154.118V154.626V180.081H531H532V181.081V340.305V341.305H531H522.927V377.241V378.054L522.132 378.22C396.233 404.574 315.765 404.615 161.506 378.227L160.674 378.085V377.241V341.305H151H150V340.305V181.081V180.081H151H160.674V154.626V154.043L161.182 153.756C162.051 153.264 162.943 152.782 163.843 152.296C166.642 150.782 169.513 149.23 172.004 147.224C175.243 144.617 177.716 141.327 178.294 136.538L178.295 136.527L178.297 136.516C179.225 130.008 179.36 125.557 178.382 115.695H161.674H160.674V114.695V84.2497H151H150V83.2497V16.8646V15.9886L150.868 15.8733ZM162.674 341.417C309.407 357.008 388.271 357.024 520.927 341.43V376.429C396.002 402.508 315.87 402.554 162.674 376.398V341.417ZM180.392 115.695H504.701C504.642 116.017 504.575 116.396 504.504 116.825C504.265 118.271 503.977 120.284 503.785 122.556C503.537 125.495 503.442 128.939 503.851 132.163H180.824C181.226 127.568 181.123 123.126 180.392 115.695ZM180.62 134.163H504.178C504.382 135.157 504.645 136.113 504.979 137.007C506.675 141.55 510.829 146.176 514.441 149.601C516.265 151.331 517.985 152.786 519.249 153.809C519.882 154.321 520.401 154.725 520.763 155.002C520.822 155.047 520.877 155.089 520.927 155.127V180.705C381.559 187.461 302.512 186.945 162.674 180.624V155.212C163.314 154.856 163.98 154.497 164.662 154.128L164.666 154.126L164.667 154.125L164.675 154.121L164.678 154.12L164.678 154.119C167.509 152.59 170.61 150.915 173.259 148.782C176.773 145.953 179.618 142.233 180.278 136.788C180.407 135.881 180.521 135.012 180.62 134.163ZM179.287 113.695L505.916 113.695H520.927V84.2495H162.674V113.695H179.287L179.287 113.695ZM161.674 82.2497H152V17.7407C294.94 -1.20394 377.641 -2.61474 530 17.7397V82.2497H521.927L521.927 82.2495H161.674V82.2497ZM161.629 182.579L161.651 182.081H152V339.305H161.674H161.727L161.78 339.311C309.503 355.049 388.308 355.058 521.81 339.312L521.868 339.305H521.927H530V182.081H523.552L523.577 182.578C382.229 189.483 302.97 188.982 161.629 182.579Z" fill="#344F10"/>
<path d="M61.5456 20.9993L56.9536 15.9113V20.9993H55.4976V9.84727H56.9536V15.0153L61.5616 9.84727H63.4016L58.3456 15.4313L63.4496 20.9993H61.5456ZM64.5318 16.5833C64.5318 15.6873 64.7131 14.9033 65.0758 14.2313C65.4384 13.5486 65.9344 13.0206 66.5638 12.6473C67.2038 12.2739 67.9131 12.0873 68.6918 12.0873C69.4598 12.0873 70.1264 12.2526 70.6918 12.5833C71.2571 12.9139 71.6784 13.3299 71.9558 13.8313V12.2313H73.4278V20.9993H71.9558V19.3673C71.6678 19.8793 71.2358 20.3059 70.6598 20.6473C70.0944 20.9779 69.4331 21.1433 68.6758 21.1433C67.8971 21.1433 67.1931 20.9513 66.5638 20.5673C65.9344 20.1833 65.4384 19.6446 65.0758 18.9513C64.7131 18.2579 64.5318 17.4686 64.5318 16.5833ZM71.9558 16.5993C71.9558 15.9379 71.8224 15.3619 71.5558 14.8713C71.2891 14.3806 70.9264 14.0073 70.4678 13.7513C70.0198 13.4846 69.5238 13.3513 68.9798 13.3513C68.4358 13.3513 67.9398 13.4793 67.4918 13.7353C67.0438 13.9913 66.6864 14.3646 66.4198 14.8553C66.1531 15.3459 66.0198 15.9219 66.0198 16.5833C66.0198 17.2553 66.1531 17.8419 66.4198 18.3433C66.6864 18.8339 67.0438 19.2126 67.4918 19.4793C67.9398 19.7353 68.4358 19.8633 68.9798 19.8633C69.5238 19.8633 70.0198 19.7353 70.4678 19.4793C70.9264 19.2126 71.2891 18.8339 71.5558 18.3433C71.8224 17.8419 71.9558 17.2606 71.9558 16.5993ZM79.7123 21.1433C78.8909 21.1433 78.1443 20.9566 77.4723 20.5833C76.8109 20.2099 76.2883 19.6819 75.9043 18.9993C75.5309 18.3059 75.3443 17.5059 75.3443 16.5993C75.3443 15.7033 75.5363 14.9139 75.9203 14.2313C76.3149 13.5379 76.8483 13.0099 77.5203 12.6473C78.1923 12.2739 78.9443 12.0873 79.7763 12.0873C80.6083 12.0873 81.3603 12.2739 82.0323 12.6473C82.7043 13.0099 83.2323 13.5326 83.6163 14.2153C84.0109 14.8979 84.2083 15.6926 84.2083 16.5993C84.2083 17.5059 84.0056 18.3059 83.6003 18.9993C83.2056 19.6819 82.6669 20.2099 81.9843 20.5833C81.3016 20.9566 80.5443 21.1433 79.7123 21.1433ZM79.7123 19.8633C80.2349 19.8633 80.7256 19.7406 81.1843 19.4953C81.6429 19.2499 82.0109 18.8819 82.2883 18.3913C82.5763 17.9006 82.7203 17.3033 82.7203 16.5993C82.7203 15.8953 82.5816 15.2979 82.3043 14.8073C82.0269 14.3166 81.6643 13.9539 81.2163 13.7193C80.7683 13.4739 80.2829 13.3513 79.7603 13.3513C79.2269 13.3513 78.7363 13.4739 78.2883 13.7193C77.8509 13.9539 77.4989 14.3166 77.2323 14.8073C76.9656 15.2979 76.8323 15.8953 76.8323 16.5993C76.8323 17.3139 76.9603 17.9166 77.2163 18.4073C77.4829 18.8979 77.8349 19.2659 78.2723 19.5113C78.7096 19.7459 79.1896 19.8633 79.7123 19.8633ZM87.5786 9.15927V20.9993H86.1226V9.15927H87.5786ZM90.8121 10.8073C90.5348 10.8073 90.3001 10.7113 90.1081 10.5193C89.9161 10.3273 89.8201 10.0926 89.8201 9.81527C89.8201 9.53793 89.9161 9.30327 90.1081 9.11127C90.3001 8.91927 90.5348 8.82327 90.8121 8.82327C91.0788 8.82327 91.3028 8.91927 91.4841 9.11127C91.6761 9.30327 91.7721 9.53793 91.7721 9.81527C91.7721 10.0926 91.6761 10.3273 91.4841 10.5193C91.3028 10.7113 91.0788 10.8073 90.8121 10.8073ZM91.5161 12.2313V20.9993H90.0601V12.2313H91.5161ZM98.2696 12.0713C99.3363 12.0713 100.2 12.3966 100.862 13.0473C101.523 13.6873 101.854 14.6153 101.854 15.8313V20.9993H100.414V16.0393C100.414 15.1646 100.195 14.4979 99.7576 14.0393C99.3203 13.5699 98.723 13.3353 97.9656 13.3353C97.1976 13.3353 96.5843 13.5753 96.1256 14.0553C95.6776 14.5353 95.4536 15.2339 95.4536 16.1513V20.9993H93.9976V12.2313H95.4536V13.4793C95.7416 13.0313 96.131 12.6846 96.6216 12.4393C97.123 12.1939 97.6723 12.0713 98.2696 12.0713Z" fill="#333333"/>
<path d="M66.4243 97.1113C65.6883 97.1113 65.0269 96.9833 64.4403 96.7273C63.8643 96.4606 63.4109 96.0979 63.0803 95.6393C62.7496 95.1699 62.5789 94.6313 62.5683 94.0233H64.1203C64.1736 94.5459 64.3869 94.9886 64.7603 95.3513C65.1443 95.7033 65.6989 95.8793 66.4243 95.8793C67.1176 95.8793 67.6616 95.7086 68.0563 95.3673C68.4616 95.0153 68.6643 94.5673 68.6643 94.0233C68.6643 93.5966 68.5469 93.2499 68.3123 92.9833C68.0776 92.7166 67.7843 92.5139 67.4323 92.3753C67.0803 92.2366 66.6056 92.0873 66.0083 91.9273C65.2723 91.7353 64.6803 91.5433 64.2323 91.3513C63.7949 91.1593 63.4163 90.8606 63.0963 90.4553C62.7869 90.0393 62.6323 89.4846 62.6323 88.7913C62.6323 88.1833 62.7869 87.6446 63.0963 87.1753C63.4056 86.7059 63.8376 86.3433 64.3923 86.0873C64.9576 85.8313 65.6029 85.7033 66.3283 85.7033C67.3736 85.7033 68.2269 85.9646 68.8883 86.4873C69.5603 87.0099 69.9389 87.7033 70.0243 88.5673H68.4243C68.3709 88.1406 68.1469 87.7673 67.7523 87.4473C67.3576 87.1166 66.8349 86.9513 66.1843 86.9513C65.5763 86.9513 65.0803 87.1113 64.6963 87.4313C64.3123 87.7406 64.1203 88.1779 64.1203 88.7433C64.1203 89.1486 64.2323 89.4793 64.4563 89.7353C64.6909 89.9913 64.9736 90.1886 65.3043 90.3273C65.6456 90.4553 66.1203 90.6046 66.7283 90.7753C67.4643 90.9779 68.0563 91.1806 68.5043 91.3833C68.9523 91.5753 69.3363 91.8793 69.6562 92.2953C69.9763 92.7006 70.1363 93.2553 70.1363 93.9593C70.1363 94.5033 69.9923 95.0153 69.7043 95.4953C69.4163 95.9753 68.9896 96.3646 68.4243 96.6633C67.8589 96.9619 67.1923 97.1113 66.4243 97.1113ZM73.0309 86.8073C72.7535 86.8073 72.5189 86.7113 72.3269 86.5193C72.1349 86.3273 72.0389 86.0926 72.0389 85.8153C72.0389 85.5379 72.1349 85.3033 72.3269 85.1113C72.5189 84.9193 72.7535 84.8233 73.0309 84.8233C73.2975 84.8233 73.5215 84.9193 73.7029 85.1113C73.8949 85.3033 73.9909 85.5379 73.9909 85.8153C73.9909 86.0926 73.8949 86.3273 73.7029 86.5193C73.5215 86.7113 73.2975 86.8073 73.0309 86.8073ZM73.7349 88.2313V96.9993H72.2789V88.2313H73.7349ZM79.4804 95.6553L82.2004 88.2313H83.7524L80.3124 96.9993H78.6164L75.1764 88.2313H76.7444L79.4804 95.6553ZM84.6411 92.5833C84.6411 91.6873 84.8225 90.9033 85.1851 90.2313C85.5478 89.5486 86.0438 89.0206 86.6731 88.6473C87.3131 88.2739 88.0225 88.0873 88.8011 88.0873C89.5691 88.0873 90.2358 88.2526 90.8011 88.5833C91.3665 88.9139 91.7878 89.3299 92.0651 89.8313V88.2313H93.5371V96.9993H92.0651V95.3673C91.7771 95.8793 91.3451 96.3059 90.7691 96.6473C90.2038 96.9779 89.5425 97.1433 88.7851 97.1433C88.0065 97.1433 87.3025 96.9513 86.6731 96.5673C86.0438 96.1833 85.5478 95.6446 85.1851 94.9513C84.8225 94.2579 84.6411 93.4686 84.6411 92.5833ZM92.0651 92.5993C92.0651 91.9379 91.9318 91.3619 91.6651 90.8713C91.3985 90.3806 91.0358 90.0073 90.5771 89.7513C90.1291 89.4846 89.6331 89.3513 89.0891 89.3513C88.5451 89.3513 88.0491 89.4793 87.6011 89.7353C87.1531 89.9913 86.7958 90.3646 86.5291 90.8553C86.2625 91.3459 86.1291 91.9219 86.1291 92.5833C86.1291 93.2553 86.2625 93.8419 86.5291 94.3433C86.7958 94.8339 87.1531 95.2126 87.6011 95.4793C88.0491 95.7353 88.5451 95.8633 89.0891 95.8633C89.6331 95.8633 90.1291 95.7353 90.5771 95.4793C91.0358 95.2126 91.3985 94.8339 91.6651 94.3433C91.9318 93.8419 92.0651 93.2606 92.0651 92.5993ZM100.894 96.9993L97.4536 93.1273V96.9993H95.9976V85.1593H97.4536V92.1193L100.83 88.2313H102.862L98.7336 92.5993L102.878 96.9993H100.894Z" fill="#333333"/>
<path d="M36.2036 156.415C36.2036 155.327 36.449 154.351 36.9396 153.487C37.4303 152.613 38.097 151.93 38.9396 151.439C39.793 150.949 40.737 150.703 41.7716 150.703C42.9876 150.703 44.049 150.997 44.9556 151.583C45.8623 152.17 46.5236 153.002 46.9396 154.079H45.1956C44.8863 153.407 44.4383 152.89 43.8516 152.527C43.2756 152.165 42.5823 151.983 41.7716 151.983C40.993 151.983 40.2943 152.165 39.6756 152.527C39.057 152.89 38.5716 153.407 38.2196 154.079C37.8676 154.741 37.6916 155.519 37.6916 156.415C37.6916 157.301 37.8676 158.079 38.2196 158.751C38.5716 159.413 39.057 159.925 39.6756 160.287C40.2943 160.65 40.993 160.831 41.7716 160.831C42.5823 160.831 43.2756 160.655 43.8516 160.303C44.4383 159.941 44.8863 159.423 45.1956 158.751H46.9396C46.5236 159.818 45.8623 160.645 44.9556 161.231C44.049 161.807 42.9876 162.095 41.7716 162.095C40.737 162.095 39.793 161.855 38.9396 161.375C38.097 160.885 37.4303 160.207 36.9396 159.343C36.449 158.479 36.2036 157.503 36.2036 156.415ZM48.563 157.583C48.563 156.687 48.7443 155.903 49.107 155.231C49.4697 154.549 49.9657 154.021 50.595 153.647C51.235 153.274 51.9443 153.087 52.723 153.087C53.491 153.087 54.1577 153.253 54.723 153.583C55.2883 153.914 55.7097 154.33 55.987 154.831V153.231H57.459V161.999H55.987V160.367C55.699 160.879 55.267 161.306 54.691 161.647C54.1257 161.978 53.4643 162.143 52.707 162.143C51.9283 162.143 51.2243 161.951 50.595 161.567C49.9657 161.183 49.4697 160.645 49.107 159.951C48.7443 159.258 48.563 158.469 48.563 157.583ZM55.987 157.599C55.987 156.938 55.8537 156.362 55.587 155.871C55.3203 155.381 54.9577 155.007 54.499 154.751C54.051 154.485 53.555 154.351 53.011 154.351C52.467 154.351 51.971 154.479 51.523 154.735C51.075 154.991 50.7177 155.365 50.451 155.855C50.1843 156.346 50.051 156.922 50.051 157.583C50.051 158.255 50.1843 158.842 50.451 159.343C50.7177 159.834 51.075 160.213 51.523 160.479C51.971 160.735 52.467 160.863 53.011 160.863C53.555 160.863 54.051 160.735 54.499 160.479C54.9577 160.213 55.3203 159.834 55.587 159.343C55.8537 158.842 55.987 158.261 55.987 157.599ZM61.3755 150.159V161.999H59.9195V150.159H61.3755ZM63.313 157.599C63.313 156.693 63.4943 155.903 63.857 155.231C64.2197 154.549 64.721 154.021 65.361 153.647C66.0117 153.274 66.753 153.087 67.585 153.087C68.6623 153.087 69.5477 153.349 70.241 153.871C70.945 154.394 71.409 155.119 71.633 156.047H70.065C69.9157 155.514 69.6223 155.093 69.185 154.783C68.7583 154.474 68.225 154.319 67.585 154.319C66.753 154.319 66.081 154.607 65.569 155.183C65.057 155.749 64.801 156.554 64.801 157.599C64.801 158.655 65.057 159.471 65.569 160.047C66.081 160.623 66.753 160.911 67.585 160.911C68.225 160.911 68.7583 160.762 69.185 160.463C69.6117 160.165 69.905 159.738 70.065 159.183H71.633C71.3983 160.079 70.929 160.799 70.225 161.343C69.521 161.877 68.641 162.143 67.585 162.143C66.753 162.143 66.0117 161.957 65.361 161.583C64.721 161.21 64.2197 160.682 63.857 159.999C63.4943 159.317 63.313 158.517 63.313 157.599ZM74.3278 151.807C74.0504 151.807 73.8158 151.711 73.6238 151.519C73.4318 151.327 73.3358 151.093 73.3358 150.815C73.3358 150.538 73.4318 150.303 73.6238 150.111C73.8158 149.919 74.0504 149.823 74.3278 149.823C74.5944 149.823 74.8184 149.919 74.9998 150.111C75.1918 150.303 75.2878 150.538 75.2878 150.815C75.2878 151.093 75.1918 151.327 74.9998 151.519C74.8184 151.711 74.5944 151.807 74.3278 151.807ZM75.0318 153.231V161.999H73.5758V153.231H75.0318ZM85.2893 153.231V161.999H83.8333V160.703C83.5559 161.151 83.1666 161.503 82.6653 161.759C82.1746 162.005 81.6306 162.127 81.0333 162.127C80.3506 162.127 79.7373 161.989 79.1933 161.711C78.6493 161.423 78.2173 160.997 77.8973 160.431C77.5879 159.866 77.4333 159.178 77.4333 158.367V153.231H78.8733V158.175C78.8733 159.039 79.0919 159.706 79.5293 160.175C79.9666 160.634 80.5639 160.863 81.3213 160.863C82.0999 160.863 82.7133 160.623 83.1613 160.143C83.6093 159.663 83.8333 158.965 83.8333 158.047V153.231H85.2893ZM98.2916 153.071C98.9743 153.071 99.5823 153.215 100.116 153.503C100.649 153.781 101.07 154.202 101.38 154.767C101.689 155.333 101.844 156.021 101.844 156.831V161.999H100.404V157.039C100.404 156.165 100.185 155.498 99.7476 155.039C99.321 154.57 98.7396 154.335 98.0036 154.335C97.2463 154.335 96.6436 154.581 96.1956 155.071C95.7476 155.551 95.5236 156.25 95.5236 157.167V161.999H94.0836V157.039C94.0836 156.165 93.865 155.498 93.4276 155.039C93.001 154.57 92.4196 154.335 91.6836 154.335C90.9263 154.335 90.3236 154.581 89.8756 155.071C89.4276 155.551 89.2036 156.25 89.2036 157.167V161.999H87.7476V153.231H89.2036V154.495C89.4916 154.037 89.8756 153.685 90.3556 153.439C90.8463 153.194 91.385 153.071 91.9716 153.071C92.7076 153.071 93.3583 153.237 93.9236 153.567C94.489 153.898 94.9103 154.383 95.1876 155.023C95.433 154.405 95.8383 153.925 96.4036 153.583C96.969 153.242 97.5983 153.071 98.2916 153.071ZM19.3443 181.599C19.3443 180.693 19.5256 179.903 19.8883 179.231C20.2509 178.549 20.7523 178.021 21.3923 177.647C22.0429 177.274 22.7843 177.087 23.6163 177.087C24.6936 177.087 25.5789 177.349 26.2723 177.871C26.9763 178.394 27.4403 179.119 27.6643 180.047H26.0963C25.9469 179.514 25.6536 179.093 25.2163 178.783C24.7896 178.474 24.2563 178.319 23.6163 178.319C22.7843 178.319 22.1123 178.607 21.6003 179.183C21.0883 179.749 20.8323 180.554 20.8323 181.599C20.8323 182.655 21.0883 183.471 21.6003 184.047C22.1123 184.623 22.7843 184.911 23.6163 184.911C24.2563 184.911 24.7896 184.762 25.2163 184.463C25.6429 184.165 25.9363 183.738 26.0963 183.183H27.6643C27.4296 184.079 26.9603 184.799 26.2563 185.343C25.5523 185.877 24.6723 186.143 23.6163 186.143C22.7843 186.143 22.0429 185.957 21.3923 185.583C20.7523 185.21 20.2509 184.682 19.8883 183.999C19.5256 183.317 19.3443 182.517 19.3443 181.599ZM29.063 181.583C29.063 180.687 29.2443 179.903 29.607 179.231C29.9697 178.549 30.4657 178.021 31.095 177.647C31.735 177.274 32.4443 177.087 33.223 177.087C33.991 177.087 34.6577 177.253 35.223 177.583C35.7883 177.914 36.2097 178.33 36.487 178.831V177.231H37.959V185.999H36.487V184.367C36.199 184.879 35.767 185.306 35.191 185.647C34.6257 185.978 33.9643 186.143 33.207 186.143C32.4283 186.143 31.7243 185.951 31.095 185.567C30.4657 185.183 29.9697 184.645 29.607 183.951C29.2443 183.258 29.063 182.469 29.063 181.583ZM36.487 181.599C36.487 180.938 36.3537 180.362 36.087 179.871C35.8203 179.381 35.4577 179.007 34.999 178.751C34.551 178.485 34.055 178.351 33.511 178.351C32.967 178.351 32.471 178.479 32.023 178.735C31.575 178.991 31.2177 179.365 30.951 179.855C30.6843 180.346 30.551 180.922 30.551 181.583C30.551 182.255 30.6843 182.842 30.951 183.343C31.2177 183.834 31.575 184.213 32.023 184.479C32.471 184.735 32.967 184.863 33.511 184.863C34.055 184.863 34.551 184.735 34.999 184.479C35.4577 184.213 35.8203 183.834 36.087 183.343C36.3537 182.842 36.487 182.261 36.487 181.599ZM41.8755 178.655C42.1315 178.154 42.4942 177.765 42.9635 177.487C43.4435 177.21 44.0248 177.071 44.7075 177.071V178.575H44.3235C42.6915 178.575 41.8755 179.461 41.8755 181.231V185.999H40.4195V177.231H41.8755V178.655ZM47.8443 178.863C48.1429 178.341 48.5803 177.914 49.1562 177.583C49.7323 177.253 50.3883 177.087 51.1243 177.087C51.9136 177.087 52.6229 177.274 53.2523 177.647C53.8816 178.021 54.3776 178.549 54.7403 179.231C55.1029 179.903 55.2843 180.687 55.2843 181.583C55.2843 182.469 55.1029 183.258 54.7403 183.951C54.3776 184.645 53.8762 185.183 53.2362 185.567C52.6069 185.951 51.9029 186.143 51.1243 186.143C50.3669 186.143 49.7003 185.978 49.1243 185.647C48.5589 185.317 48.1323 184.895 47.8443 184.383V185.999H46.3883V174.159H47.8443V178.863ZM53.7963 181.583C53.7963 180.922 53.6629 180.346 53.3963 179.855C53.1296 179.365 52.7669 178.991 52.3083 178.735C51.8603 178.479 51.3643 178.351 50.8203 178.351C50.2869 178.351 49.7909 178.485 49.3323 178.751C48.8843 179.007 48.5216 179.386 48.2443 179.887C47.9776 180.378 47.8443 180.949 47.8443 181.599C47.8443 182.261 47.9776 182.842 48.2443 183.343C48.5216 183.834 48.8843 184.213 49.3323 184.479C49.7909 184.735 50.2869 184.863 50.8203 184.863C51.3643 184.863 51.8603 184.735 52.3083 184.479C52.7669 184.213 53.1296 183.834 53.3963 183.343C53.6629 182.842 53.7963 182.255 53.7963 181.583ZM61.0248 186.143C60.2034 186.143 59.4568 185.957 58.7848 185.583C58.1234 185.21 57.6008 184.682 57.2168 183.999C56.8434 183.306 56.6568 182.506 56.6568 181.599C56.6568 180.703 56.8488 179.914 57.2328 179.231C57.6274 178.538 58.1608 178.01 58.8328 177.647C59.5048 177.274 60.2568 177.087 61.0888 177.087C61.9208 177.087 62.6728 177.274 63.3448 177.647C64.0168 178.01 64.5448 178.533 64.9288 179.215C65.3234 179.898 65.5208 180.693 65.5208 181.599C65.5208 182.506 65.3181 183.306 64.9128 183.999C64.5181 184.682 63.9794 185.21 63.2968 185.583C62.6141 185.957 61.8568 186.143 61.0248 186.143ZM61.0248 184.863C61.5474 184.863 62.0381 184.741 62.4968 184.495C62.9554 184.25 63.3234 183.882 63.6008 183.391C63.8888 182.901 64.0328 182.303 64.0328 181.599C64.0328 180.895 63.8941 180.298 63.6168 179.807C63.3394 179.317 62.9768 178.954 62.5288 178.719C62.0808 178.474 61.5954 178.351 61.0728 178.351C60.5394 178.351 60.0488 178.474 59.6008 178.719C59.1634 178.954 58.8114 179.317 58.5448 179.807C58.2781 180.298 58.1448 180.895 58.1448 181.599C58.1448 182.314 58.2728 182.917 58.5288 183.407C58.7954 183.898 59.1474 184.266 59.5848 184.511C60.0221 184.746 60.5021 184.863 61.0248 184.863ZM71.7071 177.071C72.7738 177.071 73.6378 177.397 74.2991 178.047C74.9605 178.687 75.2911 179.615 75.2911 180.831V185.999H73.8511V181.039C73.8511 180.165 73.6325 179.498 73.1951 179.039C72.7578 178.57 72.1605 178.335 71.4031 178.335C70.6351 178.335 70.0218 178.575 69.5631 179.055C69.1151 179.535 68.8911 180.234 68.8911 181.151V185.999H67.4351V177.231H68.8911V178.479C69.1791 178.031 69.5685 177.685 70.0591 177.439C70.5605 177.194 71.1098 177.071 71.7071 177.071ZM77.1255 181.583C77.1255 180.687 77.3068 179.903 77.6695 179.231C78.0322 178.549 78.5282 178.021 79.1575 177.647C79.7975 177.274 80.5068 177.087 81.2855 177.087C82.0535 177.087 82.7202 177.253 83.2855 177.583C83.8508 177.914 84.2722 178.33 84.5495 178.831V177.231H86.0215V185.999H84.5495V184.367C84.2615 184.879 83.8295 185.306 83.2535 185.647C82.6882 185.978 82.0268 186.143 81.2695 186.143C80.4908 186.143 79.7868 185.951 79.1575 185.567C78.5282 185.183 78.0322 184.645 77.6695 183.951C77.3068 183.258 77.1255 182.469 77.1255 181.583ZM84.5495 181.599C84.5495 180.938 84.4162 180.362 84.1495 179.871C83.8828 179.381 83.5202 179.007 83.0615 178.751C82.6135 178.485 82.1175 178.351 81.5735 178.351C81.0295 178.351 80.5335 178.479 80.0855 178.735C79.6375 178.991 79.2802 179.365 79.0135 179.855C78.7468 180.346 78.6135 180.922 78.6135 181.583C78.6135 182.255 78.7468 182.842 79.0135 183.343C79.2802 183.834 79.6375 184.213 80.0855 184.479C80.5335 184.735 81.0295 184.863 81.5735 184.863C82.1175 184.863 82.6135 184.735 83.0615 184.479C83.5202 184.213 83.8828 183.834 84.1495 183.343C84.4162 182.842 84.5495 182.261 84.5495 181.599ZM90.258 178.431V183.599C90.258 184.026 90.3487 184.33 90.53 184.511C90.7113 184.682 91.026 184.767 91.474 184.767H92.546V185.999H91.234C90.4233 185.999 89.8153 185.813 89.41 185.439C89.0047 185.066 88.802 184.453 88.802 183.599V178.431H87.666V177.231H88.802V175.023H90.258V177.231H92.546V178.431H90.258ZM102.31 181.279C102.31 181.557 102.294 181.85 102.262 182.159H95.2541C95.3075 183.023 95.6008 183.701 96.1341 184.191C96.6781 184.671 97.3341 184.911 98.1021 184.911C98.7315 184.911 99.2541 184.767 99.6701 184.479C100.097 184.181 100.395 183.786 100.566 183.295H102.134C101.899 184.138 101.43 184.826 100.726 185.359C100.022 185.882 99.1475 186.143 98.1021 186.143C97.2701 186.143 96.5235 185.957 95.8621 185.583C95.2115 185.21 94.6995 184.682 94.3261 183.999C93.9528 183.306 93.7661 182.506 93.7661 181.599C93.7661 180.693 93.9475 179.898 94.3101 179.215C94.6728 178.533 95.1795 178.01 95.8301 177.647C96.4915 177.274 97.2488 177.087 98.1021 177.087C98.9341 177.087 99.6701 177.269 100.31 177.631C100.95 177.994 101.441 178.495 101.782 179.135C102.134 179.765 102.31 180.479 102.31 181.279ZM100.806 180.975C100.806 180.421 100.683 179.946 100.438 179.551C100.193 179.146 99.8568 178.842 99.4301 178.639C99.0141 178.426 98.5501 178.319 98.0381 178.319C97.3021 178.319 96.6728 178.554 96.1501 179.023C95.6381 179.493 95.3448 180.143 95.2701 180.975H100.806Z" fill="#333333"/>
<rect x="199" y="18.9993" width="76" height="1" transform="rotate(-180 199 18.9993)" fill="#333333"/>
<rect x="199" y="91.9993" width="76" height="1" transform="rotate(-180 199 91.9993)" fill="#333333"/>
<rect x="199" y="167.999" width="76" height="1" transform="rotate(-180 199 167.999)" fill="#333333"/>
<rect x="199" y="240.999" width="76" height="1" transform="rotate(-180 199 240.999)" fill="#333333"/>
<rect x="199" y="312.999" width="76" height="1" transform="rotate(-180 199 312.999)" fill="#333333"/>
<path d="M8.813 244.815H12.717V245.999H7.357V234.847H8.813V244.815ZM15.0153 235.807C14.7379 235.807 14.5033 235.711 14.3113 235.519C14.1193 235.327 14.0233 235.093 14.0233 234.815C14.0233 234.538 14.1193 234.303 14.3113 234.111C14.5033 233.919 14.7379 233.823 15.0153 233.823C15.2819 233.823 15.5059 233.919 15.6873 234.111C15.8793 234.303 15.9753 234.538 15.9753 234.815C15.9753 235.093 15.8793 235.327 15.6873 235.519C15.5059 235.711 15.2819 235.807 15.0153 235.807ZM15.7193 237.231V245.999H14.2633V237.231H15.7193ZM17.6568 241.599C17.6568 240.693 17.8381 239.903 18.2008 239.231C18.5634 238.549 19.0648 238.021 19.7048 237.647C20.3554 237.274 21.0968 237.087 21.9288 237.087C23.0061 237.087 23.8914 237.349 24.5848 237.871C25.2888 238.394 25.7528 239.119 25.9768 240.047H24.4088C24.2594 239.514 23.9661 239.093 23.5288 238.783C23.1021 238.474 22.5688 238.319 21.9288 238.319C21.0968 238.319 20.4248 238.607 19.9128 239.183C19.4008 239.749 19.1448 240.554 19.1448 241.599C19.1448 242.655 19.4008 243.471 19.9128 244.047C20.4248 244.623 21.0968 244.911 21.9288 244.911C22.5688 244.911 23.1021 244.762 23.5288 244.463C23.9554 244.165 24.2488 243.738 24.4088 243.183H25.9768C25.7421 244.079 25.2728 244.799 24.5688 245.343C23.8648 245.877 22.9848 246.143 21.9288 246.143C21.0968 246.143 20.3554 245.957 19.7048 245.583C19.0648 245.21 18.5634 244.682 18.2008 243.999C17.8381 243.317 17.6568 242.517 17.6568 241.599ZM31.7435 246.143C30.9222 246.143 30.1755 245.957 29.5035 245.583C28.8422 245.21 28.3195 244.682 27.9355 243.999C27.5622 243.306 27.3755 242.506 27.3755 241.599C27.3755 240.703 27.5675 239.914 27.9515 239.231C28.3462 238.538 28.8795 238.01 29.5515 237.647C30.2235 237.274 30.9755 237.087 31.8075 237.087C32.6395 237.087 33.3915 237.274 34.0635 237.647C34.7355 238.01 35.2635 238.533 35.6475 239.215C36.0422 239.898 36.2395 240.693 36.2395 241.599C36.2395 242.506 36.0368 243.306 35.6315 243.999C35.2368 244.682 34.6982 245.21 34.0155 245.583C33.3328 245.957 32.5755 246.143 31.7435 246.143ZM31.7435 244.863C32.2662 244.863 32.7568 244.741 33.2155 244.495C33.6742 244.25 34.0422 243.882 34.3195 243.391C34.6075 242.901 34.7515 242.303 34.7515 241.599C34.7515 240.895 34.6128 240.298 34.3355 239.807C34.0582 239.317 33.6955 238.954 33.2475 238.719C32.7995 238.474 32.3142 238.351 31.7915 238.351C31.2582 238.351 30.7675 238.474 30.3195 238.719C29.8822 238.954 29.5302 239.317 29.2635 239.807C28.9968 240.298 28.8635 240.895 28.8635 241.599C28.8635 242.314 28.9915 242.917 29.2475 243.407C29.5142 243.898 29.8662 244.266 30.3035 244.511C30.7408 244.746 31.2208 244.863 31.7435 244.863ZM39.6099 238.655C39.8659 238.154 40.2285 237.765 40.6979 237.487C41.1779 237.21 41.7592 237.071 42.4419 237.071V238.575H42.0579C40.4259 238.575 39.6099 239.461 39.6099 241.231V245.999H38.1539V237.231H39.6099V238.655ZM44.8746 235.807C44.5973 235.807 44.3626 235.711 44.1706 235.519C43.9786 235.327 43.8826 235.093 43.8826 234.815C43.8826 234.538 43.9786 234.303 44.1706 234.111C44.3626 233.919 44.5973 233.823 44.8746 233.823C45.1413 233.823 45.3653 233.919 45.5466 234.111C45.7386 234.303 45.8346 234.538 45.8346 234.815C45.8346 235.093 45.7386 235.327 45.5466 235.519C45.3653 235.711 45.1413 235.807 44.8746 235.807ZM45.5786 237.231V245.999H44.1226V237.231H45.5786ZM47.5161 241.599C47.5161 240.693 47.6975 239.903 48.0601 239.231C48.4228 238.549 48.9241 238.021 49.5641 237.647C50.2148 237.274 50.9561 237.087 51.7881 237.087C52.8655 237.087 53.7508 237.349 54.4441 237.871C55.1481 238.394 55.6121 239.119 55.8361 240.047H54.2681C54.1188 239.514 53.8255 239.093 53.3881 238.783C52.9615 238.474 52.4281 238.319 51.7881 238.319C50.9561 238.319 50.2841 238.607 49.7721 239.183C49.2601 239.749 49.0041 240.554 49.0041 241.599C49.0041 242.655 49.2601 243.471 49.7721 244.047C50.2841 244.623 50.9561 244.911 51.7881 244.911C52.4281 244.911 52.9615 244.762 53.3881 244.463C53.8148 244.165 54.1081 243.738 54.2681 243.183H55.8361C55.6015 244.079 55.1321 244.799 54.4281 245.343C53.7241 245.877 52.8441 246.143 51.7881 246.143C50.9561 246.143 50.2148 245.957 49.5641 245.583C48.9241 245.21 48.4228 244.682 48.0601 243.999C47.6975 243.317 47.5161 242.517 47.5161 241.599ZM65.7789 241.279C65.7789 241.557 65.7629 241.85 65.7309 242.159H58.7229C58.7762 243.023 59.0695 243.701 59.6029 244.191C60.1469 244.671 60.8029 244.911 61.5709 244.911C62.2002 244.911 62.7229 244.767 63.1389 244.479C63.5655 244.181 63.8642 243.786 64.0349 243.295H65.6029C65.3682 244.138 64.8989 244.826 64.1949 245.359C63.4909 245.882 62.6162 246.143 61.5709 246.143C60.7389 246.143 59.9922 245.957 59.3309 245.583C58.6802 245.21 58.1682 244.682 57.7949 243.999C57.4215 243.306 57.2349 242.506 57.2349 241.599C57.2349 240.693 57.4162 239.898 57.7789 239.215C58.1415 238.533 58.6482 238.01 59.2989 237.647C59.9602 237.274 60.7175 237.087 61.5709 237.087C62.4029 237.087 63.1389 237.269 63.7789 237.631C64.4189 237.994 64.9095 238.495 65.2509 239.135C65.6029 239.765 65.7789 240.479 65.7789 241.279ZM64.2749 240.975C64.2749 240.421 64.1522 239.946 63.9069 239.551C63.6615 239.146 63.3255 238.842 62.8989 238.639C62.4829 238.426 62.0189 238.319 61.5069 238.319C60.7709 238.319 60.1415 238.554 59.6189 239.023C59.1069 239.493 58.8135 240.143 58.7389 240.975H64.2749ZM73.4224 238.655C73.6784 238.154 74.041 237.765 74.5104 237.487C74.9904 237.21 75.5717 237.071 76.2544 237.071V238.575H75.8704C74.2384 238.575 73.4224 239.461 73.4224 241.231V245.999H71.9664V237.231H73.4224V238.655ZM81.7591 246.143C80.9378 246.143 80.1911 245.957 79.5191 245.583C78.8578 245.21 78.3351 244.682 77.9511 243.999C77.5778 243.306 77.3911 242.506 77.3911 241.599C77.3911 240.703 77.5831 239.914 77.9671 239.231C78.3618 238.538 78.8951 238.01 79.5671 237.647C80.2391 237.274 80.9911 237.087 81.8231 237.087C82.6551 237.087 83.4071 237.274 84.0791 237.647C84.7511 238.01 85.2791 238.533 85.6631 239.215C86.0578 239.898 86.2551 240.693 86.2551 241.599C86.2551 242.506 86.0525 243.306 85.6471 243.999C85.2525 244.682 84.7138 245.21 84.0311 245.583C83.3485 245.957 82.5911 246.143 81.7591 246.143ZM81.7591 244.863C82.2818 244.863 82.7725 244.741 83.2311 244.495C83.6898 244.25 84.0578 243.882 84.3351 243.391C84.6231 242.901 84.7671 242.303 84.7671 241.599C84.7671 240.895 84.6285 240.298 84.3511 239.807C84.0738 239.317 83.7111 238.954 83.2631 238.719C82.8151 238.474 82.3298 238.351 81.8071 238.351C81.2738 238.351 80.7831 238.474 80.3351 238.719C79.8978 238.954 79.5458 239.317 79.2791 239.807C79.0125 240.298 78.8791 240.895 78.8791 241.599C78.8791 242.314 79.0071 242.917 79.2631 243.407C79.5298 243.898 79.8818 244.266 80.3191 244.511C80.7565 244.746 81.2365 244.863 81.7591 244.863ZM91.9935 246.143C91.1722 246.143 90.4255 245.957 89.7535 245.583C89.0922 245.21 88.5695 244.682 88.1855 243.999C87.8122 243.306 87.6255 242.506 87.6255 241.599C87.6255 240.703 87.8175 239.914 88.2015 239.231C88.5962 238.538 89.1295 238.01 89.8015 237.647C90.4735 237.274 91.2255 237.087 92.0575 237.087C92.8895 237.087 93.6415 237.274 94.3135 237.647C94.9855 238.01 95.5135 238.533 95.8975 239.215C96.2922 239.898 96.4895 240.693 96.4895 241.599C96.4895 242.506 96.2868 243.306 95.8815 243.999C95.4868 244.682 94.9482 245.21 94.2655 245.583C93.5828 245.957 92.8255 246.143 91.9935 246.143ZM91.9935 244.863C92.5162 244.863 93.0068 244.741 93.4655 244.495C93.9242 244.25 94.2922 243.882 94.5695 243.391C94.8575 242.901 95.0015 242.303 95.0015 241.599C95.0015 240.895 94.8628 240.298 94.5855 239.807C94.3082 239.317 93.9455 238.954 93.4975 238.719C93.0495 238.474 92.5642 238.351 92.0415 238.351C91.5082 238.351 91.0175 238.474 90.5695 238.719C90.1322 238.954 89.7802 239.317 89.5135 239.807C89.2468 240.298 89.1135 240.895 89.1135 241.599C89.1135 242.314 89.2415 242.917 89.4975 243.407C89.7642 243.898 90.1162 244.266 90.5535 244.511C90.9908 244.746 91.4708 244.863 91.9935 244.863ZM100.18 238.431V243.599C100.18 244.026 100.271 244.33 100.452 244.511C100.633 244.682 100.948 244.767 101.396 244.767H102.468V245.999H101.156C100.345 245.999 99.7372 245.813 99.3319 245.439C98.9265 245.066 98.7239 244.453 98.7239 243.599V238.431H97.5879V237.231H98.7239V235.023H100.18V237.231H102.468V238.431H100.18Z" fill="#333333"/>
<path d="M40.2054 307.847V309.031H37.1654V318.999H35.7094V309.031H32.6534V307.847H40.2054ZM49.7736 310.231V318.999H48.3176V317.703C48.0403 318.151 47.651 318.503 47.1496 318.759C46.659 319.005 46.115 319.127 45.5176 319.127C44.835 319.127 44.2216 318.989 43.6776 318.711C43.1336 318.423 42.7016 317.997 42.3816 317.431C42.0723 316.866 41.9176 316.178 41.9176 315.367V310.231H43.3576V315.175C43.3576 316.039 43.5763 316.706 44.0136 317.175C44.451 317.634 45.0483 317.863 45.8056 317.863C46.5843 317.863 47.1976 317.623 47.6456 317.143C48.0936 316.663 48.3176 315.965 48.3176 315.047V310.231H49.7736ZM53.688 311.655C53.944 311.154 54.3067 310.765 54.776 310.487C55.256 310.21 55.8373 310.071 56.52 310.071V311.575H56.136C54.504 311.575 53.688 312.461 53.688 314.231V318.999H52.232V310.231H53.688V311.655ZM68.7448 310.071C69.4274 310.071 70.0354 310.215 70.5688 310.503C71.1021 310.781 71.5234 311.202 71.8328 311.767C72.1421 312.333 72.2968 313.021 72.2968 313.831V318.999H70.8568V314.039C70.8568 313.165 70.6381 312.498 70.2008 312.039C69.7741 311.57 69.1928 311.335 68.4568 311.335C67.6994 311.335 67.0968 311.581 66.6488 312.071C66.2008 312.551 65.9768 313.25 65.9768 314.167V318.999H64.5368V314.039C64.5368 313.165 64.3181 312.498 63.8808 312.039C63.4541 311.57 62.8728 311.335 62.1368 311.335C61.3794 311.335 60.7768 311.581 60.3288 312.071C59.8808 312.551 59.6568 313.25 59.6568 314.167V318.999H58.2008V310.231H59.6568V311.495C59.9448 311.037 60.3288 310.685 60.8088 310.439C61.2994 310.194 61.8381 310.071 62.4248 310.071C63.1608 310.071 63.8114 310.237 64.3768 310.567C64.9421 310.898 65.3634 311.383 65.6408 312.023C65.8861 311.405 66.2914 310.925 66.8568 310.583C67.4221 310.242 68.0514 310.071 68.7448 310.071ZM82.6851 314.279C82.6851 314.557 82.6691 314.85 82.6371 315.159H75.6291C75.6825 316.023 75.9758 316.701 76.5091 317.191C77.0531 317.671 77.7091 317.911 78.4771 317.911C79.1065 317.911 79.6291 317.767 80.0451 317.479C80.4718 317.181 80.7705 316.786 80.9411 316.295H82.5091C82.2745 317.138 81.8051 317.826 81.1011 318.359C80.3971 318.882 79.5225 319.143 78.4771 319.143C77.6451 319.143 76.8985 318.957 76.2371 318.583C75.5865 318.21 75.0745 317.682 74.7011 316.999C74.3278 316.306 74.1411 315.506 74.1411 314.599C74.1411 313.693 74.3225 312.898 74.6851 312.215C75.0478 311.533 75.5545 311.01 76.2051 310.647C76.8665 310.274 77.6238 310.087 78.4771 310.087C79.3091 310.087 80.0451 310.269 80.6851 310.631C81.3251 310.994 81.8158 311.495 82.1571 312.135C82.5091 312.765 82.6851 313.479 82.6851 314.279ZM81.1811 313.975C81.1811 313.421 81.0585 312.946 80.8131 312.551C80.5678 312.146 80.2318 311.842 79.8051 311.639C79.3891 311.426 78.9251 311.319 78.4131 311.319C77.6771 311.319 77.0478 311.554 76.5251 312.023C76.0131 312.493 75.7198 313.143 75.6451 313.975H81.1811ZM86.063 311.655C86.319 311.154 86.6817 310.765 87.151 310.487C87.631 310.21 88.2123 310.071 88.895 310.071V311.575H88.511C86.879 311.575 86.063 312.461 86.063 314.231V318.999H84.607V310.231H86.063V311.655ZM91.3278 308.807C91.0504 308.807 90.8158 308.711 90.6238 308.519C90.4318 308.327 90.3358 308.093 90.3358 307.815C90.3358 307.538 90.4318 307.303 90.6238 307.111C90.8158 306.919 91.0504 306.823 91.3278 306.823C91.5944 306.823 91.8184 306.919 91.9998 307.111C92.1918 307.303 92.2878 307.538 92.2878 307.815C92.2878 308.093 92.1918 308.327 91.9998 308.519C91.8184 308.711 91.5944 308.807 91.3278 308.807ZM92.0318 310.231V318.999H90.5758V310.231H92.0318ZM93.9693 314.599C93.9693 313.693 94.1506 312.903 94.5133 312.231C94.8759 311.549 95.3773 311.021 96.0173 310.647C96.6679 310.274 97.4093 310.087 98.2413 310.087C99.3186 310.087 100.204 310.349 100.897 310.871C101.601 311.394 102.065 312.119 102.289 313.047H100.721C100.572 312.514 100.279 312.093 99.8413 311.783C99.4146 311.474 98.8813 311.319 98.2413 311.319C97.4093 311.319 96.7373 311.607 96.2253 312.183C95.7133 312.749 95.4573 313.554 95.4573 314.599C95.4573 315.655 95.7133 316.471 96.2253 317.047C96.7373 317.623 97.4093 317.911 98.2413 317.911C98.8813 317.911 99.4146 317.762 99.8413 317.463C100.268 317.165 100.561 316.738 100.721 316.183H102.289C102.055 317.079 101.585 317.799 100.881 318.343C100.177 318.877 99.2973 319.143 98.2413 319.143C97.4093 319.143 96.6679 318.957 96.0173 318.583C95.3773 318.21 94.8759 317.682 94.5133 316.999C94.1506 316.317 93.9693 315.517 93.9693 314.599Z" fill="#333333"/>
</svg>
