<svg width="56" height="78" viewBox="0 0 56 78" fill="none" xmlns="http://www.w3.org/2000/svg">
<path fill-rule="evenodd" clip-rule="evenodd" d="M15.2673 65.037C25.1447 66.2462 33.0996 65.6504 39.2494 63.3594C45.4839 61.0367 49.8421 56.9785 52.447 51.3547C55.0444 45.7472 55.8836 38.6177 55.1633 30.1586C54.4427 21.6963 52.1585 11.8696 48.4742 0.841553L47.8516 1.04955L47.8435 1.02501C34.8539 5.29667 24.7545 9.39537 17.2954 13.6451C9.84071 17.8922 4.97263 22.3184 2.51716 27.2698C0.0510999 32.2426 0.0551318 37.6691 2.18206 43.8218C4.27999 49.8907 8.45253 56.6968 14.4007 64.5381L7.06685 77.2501L7.93303 77.7498L15.2673 65.037ZM54.1669 30.2435C53.4753 22.1214 51.3208 12.6882 47.8318 2.08171C35.0226 6.30692 25.1022 10.3481 17.7904 14.5139C10.4126 18.7173 5.74127 23.0193 3.41305 27.7141C1.09544 32.3876 1.06349 37.5253 3.12718 43.4951C5.14259 49.3253 9.14762 55.9187 14.9315 63.5823L19.909 54.4709L13.5384 39.1924L14.4614 38.8076L20.5235 53.3461L25.3867 44.4441L21.5213 31.6445L22.4786 31.3554L26.0594 43.2126L30.8468 34.4493L27.0243 22.6541L27.9756 22.3458L31.5066 33.2415L36.06 24.9064L35.005 17.5712L35.9948 17.4288L36.8598 23.4425L44.0611 10.2603L44.9387 10.7397L37.6132 24.1492L44.3495 22.0232L44.6504 22.9768L36.921 25.4163L32.389 33.712L42.3696 31.0173L42.6303 31.9827L31.7253 34.9271L26.7688 44H40.9999V45H26.2225L21.3058 54H35.4999V55H20.7595L15.7921 64.0929C25.3897 65.2256 33.0362 64.6069 38.9003 62.4223C44.8958 60.1887 49.0489 56.3116 51.5396 50.9344C54.0379 45.5409 54.8788 38.6037 54.1669 30.2435Z" fill="#344F10"/>
</svg>
