<svg width="90" height="90" viewBox="0 0 90 90" fill="none" xmlns="http://www.w3.org/2000/svg">
<g clip-path="url(#clip0)">
<path d="M45.6895 68.5588C67.7885 39.3041 71.4411 23.5606 9.98022 0.547852M48.6165 73.9997L45.6895 68.5588L48.6165 73.9997ZM19.6393 20.135L26.9568 33.7372L19.6393 20.135ZM26.9568 33.7372L30.3151 22.3114L26.9568 33.7372ZM26.9568 33.7372L15.5723 30.4727L26.9568 33.7372ZM26.9568 33.7372L33.3962 45.7071L26.9568 33.7372ZM33.3962 45.7071L37.9407 28.2963L33.3962 45.7071ZM33.3962 45.7071L18.1142 41.3544L33.3962 45.7071ZM33.3962 45.7071L41.0064 59.8534L33.3962 45.7071ZM41.0064 59.8534L47.0914 37.0017L41.0064 59.8534ZM41.0064 59.8534L19.6393 53.8685L41.0064 59.8534ZM41.0064 59.8534L45.6895 68.5588L41.0064 59.8534Z" stroke="#344F10"/>
<path d="M61.3258 43.6148L55.7337 53.8688L68.9514 54.9569M9.96631 0C-3.88296 66.0958 12.2665 69.6453 45.5665 68.5591L9.96631 0ZM59.2924 46.7956L61.3258 43.6148L59.2924 46.7956ZM72.51 26.1203L65.9012 36.4579L72.51 26.1203ZM65.9012 36.4579H74.5435H65.9012ZM65.9012 36.4579L63.3593 28.2966L65.9012 36.4579ZM65.9012 36.4579L61.3258 43.6148L65.9012 36.4579ZM61.3258 43.6148H72.51H61.3258Z" stroke="#344F10"/>
<path d="M48.1082 65.2944C78.969 64.8643 90.669 58.3002 80.3171 12.0591" stroke="#344F10"/>
<path d="M80.644 12.5181C69.4845 15.1016 63.6859 17.3177 56.2421 26.1203" stroke="#344F10"/>
</g>
<defs>
<clipPath id="clip0">
<rect width="90" height="90" fill="white"/>
</clipPath>
</defs>
</svg>
