<svg width="16" height="150" viewBox="0 0 16 150" fill="none" xmlns="http://www.w3.org/2000/svg">
<path d="M14.112 36.486C14.112 36.8967 14.0607 37.284 13.958 37.648C13.846 38.0027 13.6827 38.3107 13.468 38.572C13.2533 38.8333 12.992 39.0387 12.684 39.188C12.376 39.3373 12.0167 39.412 11.606 39.412V38.222H11.676C12.124 38.222 12.474 38.068 12.726 37.76C12.978 37.452 13.104 37.046 13.104 36.542C13.104 36.3273 13.0713 36.1267 13.006 35.94C12.9313 35.744 12.8333 35.576 12.712 35.436C12.5813 35.296 12.432 35.184 12.264 35.1C12.096 35.0067 11.9093 34.96 11.704 34.96C11.4893 34.96 11.3073 35.002 11.158 35.086C10.9993 35.17 10.864 35.2913 10.752 35.45C10.6307 35.6087 10.528 35.8 10.444 36.024C10.3507 36.2387 10.262 36.472 10.178 36.724C10.066 37.0413 9.954 37.3493 9.842 37.648C9.72067 37.9373 9.57133 38.194 9.394 38.418C9.20733 38.642 8.98333 38.824 8.722 38.964C8.45133 39.0947 8.11067 39.16 7.7 39.16C7.38267 39.16 7.09333 39.0947 6.832 38.964C6.57067 38.824 6.34667 38.6373 6.16 38.404C5.964 38.1613 5.81467 37.8767 5.712 37.55C5.6 37.2233 5.544 36.8687 5.544 36.486C5.544 36.094 5.6 35.7393 5.712 35.422C5.81467 35.0953 5.964 34.8153 6.16 34.582C6.356 34.3393 6.59867 34.1573 6.888 34.036C7.168 33.9053 7.49 33.84 7.854 33.84V34.974H7.77C7.39667 34.974 7.09333 35.1187 6.86 35.408C6.61733 35.6973 6.496 36.0613 6.496 36.5C6.496 36.948 6.608 37.3167 6.832 37.606C7.056 37.8953 7.34533 38.04 7.7 38.04C7.93333 38.04 8.12933 37.9933 8.288 37.9C8.44667 37.8067 8.582 37.676 8.694 37.508C8.806 37.34 8.90867 37.1393 9.002 36.906C9.09533 36.6727 9.18867 36.4207 9.282 36.15C9.394 35.8047 9.52 35.492 9.66 35.212C9.79067 34.9227 9.94933 34.6753 10.136 34.47C10.3227 34.2647 10.5467 34.1107 10.808 34.008C11.0693 33.896 11.382 33.84 11.746 33.84C12.054 33.84 12.3527 33.91 12.642 34.05C12.9313 34.1807 13.1833 34.3673 13.398 34.61C13.6127 34.8433 13.7853 35.1233 13.916 35.45C14.0467 35.7673 14.112 36.1127 14.112 36.486ZM10.318 26.4004V30.4744H14V31.5524H5.656V30.4744H9.296V26.4004H5.656V25.3224H14L14 26.4004H10.318ZM14.112 18.701C14.112 19.289 14 19.8443 13.776 20.367C13.552 20.8896 13.2487 21.3423 12.866 21.725C12.474 22.1076 12.0167 22.411 11.494 22.635C10.9713 22.859 10.416 22.971 9.828 22.971C9.24 22.971 8.68467 22.859 8.162 22.635C7.63933 22.411 7.18667 22.1076 6.804 21.725C6.412 21.3423 6.104 20.8896 5.88 20.367C5.656 19.8443 5.544 19.289 5.544 18.701C5.544 18.113 5.656 17.5576 5.88 17.035C6.104 16.5123 6.412 16.0596 6.804 15.677C7.18667 15.285 7.63933 14.977 8.162 14.753C8.68467 14.529 9.24 14.417 9.828 14.417C10.416 14.417 10.9713 14.529 11.494 14.753C12.0167 14.977 12.474 15.285 12.866 15.677C13.2487 16.0596 13.552 16.5123 13.776 17.035C14 17.5576 14.112 18.113 14.112 18.701ZM13.104 18.701C13.104 18.253 13.02 17.8376 12.852 17.455C12.6747 17.063 12.4413 16.727 12.152 16.447C11.8533 16.167 11.5033 15.9476 11.102 15.789C10.7007 15.621 10.276 15.537 9.828 15.537C9.38 15.537 8.96 15.621 8.568 15.789C8.16667 15.9476 7.81667 16.167 7.518 16.447C7.21933 16.727 6.986 17.063 6.818 17.455C6.64067 17.8376 6.552 18.253 6.552 18.701C6.552 19.149 6.64067 19.569 6.818 19.961C6.986 20.3436 7.21933 20.675 7.518 20.955C7.81667 21.235 8.16667 21.459 8.568 21.627C8.96 21.7856 9.38 21.865 9.828 21.865C10.276 21.865 10.7007 21.7856 11.102 21.627C11.5033 21.459 11.8533 21.235 12.152 20.955C12.4413 20.675 12.6747 20.3436 12.852 19.961C13.02 19.569 13.104 19.149 13.104 18.701ZM5.656 12.0645V9.37653C5.656 8.92853 5.73067 8.52253 5.88 8.15853C6.02933 7.7852 6.23467 7.46786 6.496 7.20653C6.75733 6.93586 7.06533 6.72586 7.42 6.57653C7.77467 6.4272 8.15267 6.35253 8.554 6.35253C8.96467 6.35253 9.34733 6.4272 9.702 6.57653C10.0567 6.72586 10.3647 6.93586 10.626 7.20653C10.8873 7.46786 11.0927 7.7852 11.242 8.15853C11.3913 8.53186 11.466 8.94253 11.466 9.39053V10.9865H14V12.0645H5.656ZM6.664 10.9865H10.444V9.46053C10.444 9.15253 10.3973 8.8772 10.304 8.63453C10.2013 8.38253 10.066 8.17253 9.898 8.00453C9.73 7.8272 9.534 7.69186 9.31 7.59853C9.07667 7.5052 8.82467 7.45853 8.554 7.45853C8.29267 7.45853 8.04533 7.5052 7.812 7.59853C7.57867 7.69186 7.378 7.8272 7.21 8.00453C7.042 8.17253 6.91133 8.38253 6.818 8.63453C6.71533 8.8772 6.664 9.15253 6.664 9.46053V10.9865Z" fill="#344F10" fill-opacity="0.5"/>
<rect x="8" y="50" width="1" height="100" fill="#344F10" fill-opacity="0.5"/>
</svg>
