<svg width="249" height="50" viewBox="0 0 249 50" fill="none" xmlns="http://www.w3.org/2000/svg">
<path d="M62.42 20.656H63.568L65.402 27.306L67.53 20.656H68.566L70.694 27.39L72.71 20.656H73.816L71.254 29H70.148L68.048 22.364L65.92 29H64.8L62.42 20.656ZM75.9863 20.656H77.0923V29H75.9863V20.656ZM81.8735 21.692H79.4375V20.656H85.3875V21.692H82.9655V29H81.8735V21.692ZM91.055 29.112C90.439 29.112 89.865 29 89.333 28.776C88.8104 28.552 88.353 28.2487 87.961 27.866C87.5784 27.4833 87.275 27.0307 87.051 26.508C86.8364 25.9853 86.729 25.43 86.729 24.842C86.729 24.254 86.841 23.6987 87.065 23.176C87.2984 22.6533 87.611 22.196 88.003 21.804C88.395 21.412 88.8524 21.104 89.375 20.88C89.907 20.656 90.467 20.544 91.055 20.544C91.5217 20.544 91.9697 20.6187 92.399 20.768C92.8284 20.9173 93.2204 21.1273 93.575 21.398C93.939 21.6593 94.2517 21.9767 94.513 22.35C94.7744 22.7233 94.9704 23.1293 95.101 23.568H93.953C93.6824 22.9613 93.2904 22.476 92.777 22.112C92.2637 21.7387 91.6804 21.552 91.027 21.552C90.551 21.552 90.117 21.6407 89.725 21.818C89.333 21.9953 88.997 22.238 88.717 22.546C88.437 22.8447 88.2177 23.1947 88.059 23.596C87.9097 23.988 87.835 24.4033 87.835 24.842C87.835 25.2713 87.9097 25.682 88.059 26.074C88.2177 26.466 88.437 26.816 88.717 27.124C88.997 27.4227 89.333 27.6607 89.725 27.838C90.117 28.0153 90.5464 28.104 91.013 28.104C91.6664 28.104 92.2404 27.936 92.735 27.6C93.2297 27.264 93.617 26.788 93.897 26.172H95.059C94.919 26.6107 94.7184 27.012 94.457 27.376C94.205 27.7307 93.9064 28.0387 93.561 28.3C93.2157 28.552 92.8284 28.7527 92.399 28.902C91.979 29.042 91.531 29.112 91.055 29.112ZM102.569 25.318H98.4947V29H97.4167V20.656H98.4947V24.296H102.569V20.656H103.647V29H102.569V25.318ZM114.933 29.112C114.345 29.112 113.79 29 113.267 28.776C112.744 28.552 112.292 28.2487 111.909 27.866C111.526 27.474 111.223 27.0167 110.999 26.494C110.775 25.9713 110.663 25.416 110.663 24.828C110.663 24.24 110.775 23.6847 110.999 23.162C111.223 22.6393 111.526 22.1867 111.909 21.804C112.292 21.412 112.744 21.104 113.267 20.88C113.79 20.656 114.345 20.544 114.933 20.544C115.521 20.544 116.076 20.656 116.599 20.88C117.122 21.104 117.574 21.412 117.957 21.804C118.349 22.1867 118.657 22.6393 118.881 23.162C119.105 23.6847 119.217 24.24 119.217 24.828C119.217 25.416 119.105 25.9713 118.881 26.494C118.657 27.0167 118.349 27.474 117.957 27.866C117.574 28.2487 117.122 28.552 116.599 28.776C116.076 29 115.521 29.112 114.933 29.112ZM114.933 28.104C115.381 28.104 115.796 28.02 116.179 27.852C116.571 27.6747 116.907 27.4413 117.187 27.152C117.467 26.8533 117.686 26.5033 117.845 26.102C118.013 25.7007 118.097 25.276 118.097 24.828C118.097 24.38 118.013 23.96 117.845 23.568C117.686 23.1667 117.467 22.8167 117.187 22.518C116.907 22.2193 116.571 21.986 116.179 21.818C115.796 21.6407 115.381 21.552 114.933 21.552C114.485 21.552 114.065 21.6407 113.673 21.818C113.29 21.986 112.959 22.2193 112.679 22.518C112.399 22.8167 112.175 23.1667 112.007 23.568C111.848 23.96 111.769 24.38 111.769 24.828C111.769 25.276 111.848 25.7007 112.007 26.102C112.175 26.5033 112.399 26.8533 112.679 27.152C112.959 27.4413 113.29 27.6747 113.673 27.852C114.065 28.02 114.485 28.104 114.933 28.104ZM121.569 20.656H126.287V21.664H122.647V24.31H126.287V25.318H122.647V29H121.569V20.656ZM133.319 20.656H134.383L137.421 24.87L140.459 20.656H141.495V29H140.417V22.518L137.421 26.662L134.397 22.476V29H133.319V20.656ZM148.112 29.112C147.524 29.112 146.969 29 146.446 28.776C145.923 28.552 145.471 28.2487 145.088 27.866C144.705 27.474 144.402 27.0167 144.178 26.494C143.954 25.9713 143.842 25.416 143.842 24.828C143.842 24.24 143.954 23.6847 144.178 23.162C144.402 22.6393 144.705 22.1867 145.088 21.804C145.471 21.412 145.923 21.104 146.446 20.88C146.969 20.656 147.524 20.544 148.112 20.544C148.7 20.544 149.255 20.656 149.778 20.88C150.301 21.104 150.753 21.412 151.136 21.804C151.528 22.1867 151.836 22.6393 152.06 23.162C152.284 23.6847 152.396 24.24 152.396 24.828C152.396 25.416 152.284 25.9713 152.06 26.494C151.836 27.0167 151.528 27.474 151.136 27.866C150.753 28.2487 150.301 28.552 149.778 28.776C149.255 29 148.7 29.112 148.112 29.112ZM148.112 28.104C148.56 28.104 148.975 28.02 149.358 27.852C149.75 27.6747 150.086 27.4413 150.366 27.152C150.646 26.8533 150.865 26.5033 151.024 26.102C151.192 25.7007 151.276 25.276 151.276 24.828C151.276 24.38 151.192 23.96 151.024 23.568C150.865 23.1667 150.646 22.8167 150.366 22.518C150.086 22.2193 149.75 21.986 149.358 21.818C148.975 21.6407 148.56 21.552 148.112 21.552C147.664 21.552 147.244 21.6407 146.852 21.818C146.469 21.986 146.138 22.2193 145.858 22.518C145.578 22.8167 145.354 23.1667 145.186 23.568C145.027 23.96 144.948 24.38 144.948 24.828C144.948 25.276 145.027 25.7007 145.186 26.102C145.354 26.5033 145.578 26.8533 145.858 27.152C146.138 27.4413 146.469 27.6747 146.852 27.852C147.244 28.02 147.664 28.104 148.112 28.104ZM157.589 29.112C157.178 29.112 156.795 29.0467 156.441 28.916C156.095 28.7853 155.797 28.5987 155.545 28.356C155.293 28.1133 155.097 27.8193 154.957 27.474C154.817 27.1193 154.747 26.7227 154.747 26.284V20.656H155.825V26.34C155.825 26.8813 155.988 27.3107 156.315 27.628C156.641 27.9453 157.071 28.104 157.603 28.104C158.125 28.104 158.55 27.9453 158.877 27.628C159.203 27.3107 159.367 26.8813 159.367 26.34V20.656H160.445V26.284C160.445 26.7227 160.37 27.1193 160.221 27.474C160.081 27.8193 159.885 28.1133 159.633 28.356C159.381 28.5987 159.077 28.7853 158.723 28.916C158.377 29.0467 157.999 29.112 157.589 29.112ZM163.036 20.656H164.24L168.804 27.25V20.656H169.882V29H168.734L164.114 22.336V29H163.036V20.656ZM174.599 21.692H172.163V20.656H178.113V21.692H175.691V29H174.599V21.692ZM182.365 20.656H183.485L186.593 29H185.473L184.759 27.082H181.077L180.377 29H179.243L182.365 20.656ZM181.455 26.046H184.381L182.911 22.084L181.455 26.046ZM188.736 20.656H189.842V29H188.736V20.656ZM192.565 20.656H193.769L198.333 27.25V20.656H199.411V29H198.263L193.643 22.336V29H192.565V20.656ZM206.174 20.656H207.322L209.156 27.306L211.284 20.656H212.32L214.448 27.39L216.464 20.656H217.57L215.008 29H213.902L211.802 22.364L209.674 29H208.554L206.174 20.656ZM219.741 20.656H220.847V29H219.741V20.656ZM223.57 20.656H224.774L229.338 27.25V20.656H230.416V29H229.268L224.648 22.336V29H223.57V20.656ZM233.075 20.656H235.399C236.061 20.656 236.659 20.7633 237.191 20.978C237.732 21.1927 238.189 21.4867 238.563 21.86C238.945 22.2333 239.239 22.6767 239.445 23.19C239.65 23.694 239.753 24.24 239.753 24.828C239.753 25.4253 239.645 25.9807 239.431 26.494C239.216 26.998 238.913 27.4367 238.521 27.81C238.138 28.1833 237.681 28.4773 237.149 28.692C236.626 28.8973 236.057 29 235.441 29H233.075V20.656ZM234.153 21.664V27.978H235.343C235.828 27.978 236.271 27.8987 236.673 27.74C237.083 27.5813 237.433 27.362 237.723 27.082C238.012 26.7927 238.236 26.4567 238.395 26.074C238.553 25.6913 238.633 25.276 238.633 24.828C238.633 24.3707 238.558 23.9507 238.409 23.568C238.259 23.176 238.04 22.84 237.751 22.56C237.471 22.28 237.125 22.0607 236.715 21.902C236.304 21.7433 235.833 21.664 235.301 21.664H234.153ZM244.566 29.112C244.156 29.112 243.768 29.0607 243.404 28.958C243.05 28.846 242.742 28.6827 242.48 28.468C242.219 28.2533 242.014 27.992 241.864 27.684C241.715 27.376 241.64 27.0167 241.64 26.606H242.83V26.676C242.83 27.124 242.984 27.474 243.292 27.726C243.6 27.978 244.006 28.104 244.51 28.104C244.725 28.104 244.926 28.0713 245.112 28.006C245.308 27.9313 245.476 27.8333 245.616 27.712C245.756 27.5813 245.868 27.432 245.952 27.264C246.046 27.096 246.092 26.9093 246.092 26.704C246.092 26.4893 246.05 26.3073 245.966 26.158C245.882 25.9993 245.761 25.864 245.602 25.752C245.444 25.6307 245.252 25.528 245.028 25.444C244.814 25.3507 244.58 25.262 244.328 25.178C244.011 25.066 243.703 24.954 243.404 24.842C243.115 24.7207 242.858 24.5713 242.634 24.394C242.41 24.2073 242.228 23.9833 242.088 23.722C241.958 23.4513 241.892 23.1107 241.892 22.7C241.892 22.3827 241.958 22.0933 242.088 21.832C242.228 21.5707 242.415 21.3467 242.648 21.16C242.891 20.964 243.176 20.8147 243.502 20.712C243.829 20.6 244.184 20.544 244.566 20.544C244.958 20.544 245.313 20.6 245.63 20.712C245.957 20.8147 246.237 20.964 246.47 21.16C246.713 21.356 246.895 21.5987 247.016 21.888C247.147 22.168 247.212 22.49 247.212 22.854H246.078V22.77C246.078 22.3967 245.934 22.0933 245.644 21.86C245.355 21.6173 244.991 21.496 244.552 21.496C244.104 21.496 243.736 21.608 243.446 21.832C243.157 22.056 243.012 22.3453 243.012 22.7C243.012 22.9333 243.059 23.1293 243.152 23.288C243.246 23.4467 243.376 23.582 243.544 23.694C243.712 23.806 243.913 23.9087 244.146 24.002C244.38 24.0953 244.632 24.1887 244.902 24.282C245.248 24.394 245.56 24.52 245.84 24.66C246.13 24.7907 246.377 24.9493 246.582 25.136C246.788 25.3227 246.942 25.5467 247.044 25.808C247.156 26.0693 247.212 26.382 247.212 26.746C247.212 27.054 247.142 27.3527 247.002 27.642C246.872 27.9313 246.685 28.1833 246.442 28.398C246.209 28.6127 245.929 28.7853 245.602 28.916C245.285 29.0467 244.94 29.112 244.566 29.112Z" fill="#344F10"/>
<circle cx="25" cy="25" r="24.5" stroke="#344F10"/>
<path fill-rule="evenodd" clip-rule="evenodd" d="M24.9533 15.0521L27.4066 22H22.5365L24.9806 23.5732L34.2056 17.6354L45 24.5833H27.4268L24.9894 30.5L22.5624 24.6083H5L15.7944 17.6605L22.5068 21.9809L24.9533 15.0521ZM26.9521 34.5L24.9894 30.5298L23.0268 34.5H26.9521Z" fill="#344F10"/>
<path d="M25 24L27.5 22H22.5L25 24Z" fill="#344F10"/>
</svg>
