<svg width="186" height="10" viewBox="0 0 186 10" fill="none" xmlns="http://www.w3.org/2000/svg">
<path d="M0.42 0.656H1.568L3.402 7.306L5.53 0.656H6.566L8.694 7.39L10.71 0.656H11.816L9.254 9H8.148L6.048 2.364L3.92 9H2.8L0.42 0.656ZM13.9863 0.656H15.0923V9H13.9863V0.656ZM19.8735 1.692H17.4375V0.656H23.3875V1.692H20.9655V9H19.8735V1.692ZM29.055 9.112C28.439 9.112 27.865 9 27.333 8.776C26.8104 8.552 26.353 8.24867 25.961 7.866C25.5784 7.48333 25.275 7.03067 25.051 6.508C24.8364 5.98533 24.729 5.43 24.729 4.842C24.729 4.254 24.841 3.69867 25.065 3.176C25.2984 2.65333 25.611 2.196 26.003 1.804C26.395 1.412 26.8524 1.104 27.375 0.879999C27.907 0.656 28.467 0.544 29.055 0.544C29.5217 0.544 29.9697 0.618666 30.399 0.768C30.8284 0.917333 31.2204 1.12733 31.575 1.398C31.939 1.65933 32.2517 1.97667 32.513 2.35C32.7744 2.72333 32.9704 3.12933 33.101 3.568H31.953C31.6824 2.96133 31.2904 2.476 30.777 2.112C30.2637 1.73867 29.6804 1.552 29.027 1.552C28.551 1.552 28.117 1.64067 27.725 1.818C27.333 1.99533 26.997 2.238 26.717 2.546C26.437 2.84467 26.2177 3.19467 26.059 3.596C25.9097 3.988 25.835 4.40333 25.835 4.842C25.835 5.27133 25.9097 5.682 26.059 6.074C26.2177 6.466 26.437 6.816 26.717 7.124C26.997 7.42267 27.333 7.66067 27.725 7.838C28.117 8.01533 28.5464 8.104 29.013 8.104C29.6664 8.104 30.2404 7.936 30.735 7.6C31.2297 7.264 31.617 6.788 31.897 6.172H33.059C32.919 6.61067 32.7184 7.012 32.457 7.376C32.205 7.73067 31.9064 8.03867 31.561 8.3C31.2157 8.552 30.8284 8.75267 30.399 8.902C29.979 9.042 29.531 9.112 29.055 9.112ZM40.5687 5.318H36.4947V9H35.4167V0.656H36.4947V4.296H40.5687V0.656H41.6467V9H40.5687V5.318ZM52.933 9.112C52.345 9.112 51.7897 9 51.267 8.776C50.7443 8.552 50.2917 8.24867 49.909 7.866C49.5263 7.474 49.223 7.01667 48.999 6.494C48.775 5.97133 48.663 5.416 48.663 4.828C48.663 4.24 48.775 3.68467 48.999 3.162C49.223 2.63933 49.5263 2.18667 49.909 1.804C50.2917 1.412 50.7443 1.104 51.267 0.879999C51.7897 0.656 52.345 0.544 52.933 0.544C53.521 0.544 54.0763 0.656 54.599 0.879999C55.1217 1.104 55.5743 1.412 55.957 1.804C56.349 2.18667 56.657 2.63933 56.881 3.162C57.105 3.68467 57.217 4.24 57.217 4.828C57.217 5.416 57.105 5.97133 56.881 6.494C56.657 7.01667 56.349 7.474 55.957 7.866C55.5743 8.24867 55.1217 8.552 54.599 8.776C54.0763 9 53.521 9.112 52.933 9.112ZM52.933 8.104C53.381 8.104 53.7964 8.02 54.179 7.852C54.571 7.67467 54.907 7.44133 55.187 7.152C55.467 6.85333 55.6864 6.50333 55.845 6.102C56.013 5.70067 56.097 5.276 56.097 4.828C56.097 4.38 56.013 3.96 55.845 3.568C55.6864 3.16667 55.467 2.81667 55.187 2.518C54.907 2.21933 54.571 1.986 54.179 1.818C53.7964 1.64067 53.381 1.552 52.933 1.552C52.485 1.552 52.065 1.64067 51.673 1.818C51.2903 1.986 50.959 2.21933 50.679 2.518C50.399 2.81667 50.175 3.16667 50.007 3.568C49.8483 3.96 49.769 4.38 49.769 4.828C49.769 5.276 49.8483 5.70067 50.007 6.102C50.175 6.50333 50.399 6.85333 50.679 7.152C50.959 7.44133 51.2903 7.67467 51.673 7.852C52.065 8.02 52.485 8.104 52.933 8.104ZM59.5695 0.656H64.2875V1.664H60.6475V4.31H64.2875V5.318H60.6475V9H59.5695V0.656ZM71.3191 0.656H72.3831L75.4211 4.87L78.4591 0.656H79.4951V9H78.4171V2.518L75.4211 6.662L72.3971 2.476V9H71.3191V0.656ZM86.1119 9.112C85.5239 9.112 84.9686 9 84.4459 8.776C83.9233 8.552 83.4706 8.24867 83.0879 7.866C82.7053 7.474 82.4019 7.01667 82.1779 6.494C81.9539 5.97133 81.8419 5.416 81.8419 4.828C81.8419 4.24 81.9539 3.68467 82.1779 3.162C82.4019 2.63933 82.7053 2.18667 83.0879 1.804C83.4706 1.412 83.9233 1.104 84.4459 0.879999C84.9686 0.656 85.5239 0.544 86.1119 0.544C86.6999 0.544 87.2553 0.656 87.7779 0.879999C88.3006 1.104 88.7533 1.412 89.1359 1.804C89.5279 2.18667 89.8359 2.63933 90.0599 3.162C90.2839 3.68467 90.3959 4.24 90.3959 4.828C90.3959 5.416 90.2839 5.97133 90.0599 6.494C89.8359 7.01667 89.5279 7.474 89.1359 7.866C88.7533 8.24867 88.3006 8.552 87.7779 8.776C87.2553 9 86.6999 9.112 86.1119 9.112ZM86.1119 8.104C86.5599 8.104 86.9753 8.02 87.3579 7.852C87.7499 7.67467 88.0859 7.44133 88.3659 7.152C88.6459 6.85333 88.8653 6.50333 89.0239 6.102C89.1919 5.70067 89.2759 5.276 89.2759 4.828C89.2759 4.38 89.1919 3.96 89.0239 3.568C88.8653 3.16667 88.6459 2.81667 88.3659 2.518C88.0859 2.21933 87.7499 1.986 87.3579 1.818C86.9753 1.64067 86.5599 1.552 86.1119 1.552C85.6639 1.552 85.2439 1.64067 84.8519 1.818C84.4693 1.986 84.1379 2.21933 83.8579 2.518C83.5779 2.81667 83.3539 3.16667 83.1859 3.568C83.0273 3.96 82.9479 4.38 82.9479 4.828C82.9479 5.276 83.0273 5.70067 83.1859 6.102C83.3539 6.50333 83.5779 6.85333 83.8579 7.152C84.1379 7.44133 84.4693 7.67467 84.8519 7.852C85.2439 8.02 85.6639 8.104 86.1119 8.104ZM95.5887 9.112C95.178 9.112 94.7954 9.04667 94.4407 8.916C94.0954 8.78533 93.7967 8.59867 93.5447 8.356C93.2927 8.11333 93.0967 7.81933 92.9567 7.474C92.8167 7.11933 92.7467 6.72267 92.7467 6.284V0.656H93.8247V6.34C93.8247 6.88133 93.988 7.31067 94.3147 7.628C94.6414 7.94533 95.0707 8.104 95.6027 8.104C96.1254 8.104 96.55 7.94533 96.8767 7.628C97.2034 7.31067 97.3667 6.88133 97.3667 6.34V0.656H98.4447V6.284C98.4447 6.72267 98.37 7.11933 98.2207 7.474C98.0807 7.81933 97.8847 8.11333 97.6327 8.356C97.3807 8.59867 97.0774 8.78533 96.7227 8.916C96.3774 9.04667 95.9994 9.112 95.5887 9.112ZM101.036 0.656H102.24L106.804 7.25V0.656H107.882V9H106.734L102.114 2.336V9H101.036V0.656ZM112.599 1.692H110.163V0.656H116.113V1.692H113.691V9H112.599V1.692ZM120.365 0.656H121.485L124.593 9H123.473L122.759 7.082H119.077L118.377 9H117.243L120.365 0.656ZM119.455 6.046H122.381L120.911 2.084L119.455 6.046ZM126.736 0.656H127.842V9H126.736V0.656ZM130.565 0.656H131.769L136.333 7.25V0.656H137.411V9H136.263L131.643 2.336V9H130.565V0.656ZM144.174 0.656H145.322L147.156 7.306L149.284 0.656H150.32L152.448 7.39L154.464 0.656H155.57L153.008 9H151.902L149.802 2.364L147.674 9H146.554L144.174 0.656ZM157.741 0.656H158.847V9H157.741V0.656ZM161.57 0.656H162.774L167.338 7.25V0.656H168.416V9H167.268L162.648 2.336V9H161.57V0.656ZM171.075 0.656H173.399C174.061 0.656 174.659 0.763333 175.191 0.978C175.732 1.19267 176.189 1.48667 176.563 1.86C176.945 2.23333 177.239 2.67667 177.445 3.19C177.65 3.694 177.753 4.24 177.753 4.828C177.753 5.42533 177.645 5.98067 177.431 6.494C177.216 6.998 176.913 7.43667 176.521 7.81C176.138 8.18333 175.681 8.47733 175.149 8.692C174.626 8.89733 174.057 9 173.441 9H171.075V0.656ZM172.153 1.664V7.978H173.343C173.828 7.978 174.271 7.89867 174.673 7.74C175.083 7.58133 175.433 7.362 175.723 7.082C176.012 6.79267 176.236 6.45667 176.395 6.074C176.553 5.69133 176.633 5.276 176.633 4.828C176.633 4.37067 176.558 3.95067 176.409 3.568C176.259 3.176 176.04 2.84 175.751 2.56C175.471 2.28 175.125 2.06067 174.715 1.902C174.304 1.74333 173.833 1.664 173.301 1.664H172.153ZM182.566 9.112C182.156 9.112 181.768 9.06067 181.404 8.958C181.05 8.846 180.742 8.68267 180.48 8.468C180.219 8.25333 180.014 7.992 179.864 7.684C179.715 7.376 179.64 7.01667 179.64 6.606H180.83V6.676C180.83 7.124 180.984 7.474 181.292 7.726C181.6 7.978 182.006 8.104 182.51 8.104C182.725 8.104 182.926 8.07133 183.112 8.006C183.308 7.93133 183.476 7.83333 183.616 7.712C183.756 7.58133 183.868 7.432 183.952 7.264C184.046 7.096 184.092 6.90933 184.092 6.704C184.092 6.48933 184.05 6.30733 183.966 6.158C183.882 5.99933 183.761 5.864 183.602 5.752C183.444 5.63067 183.252 5.528 183.028 5.444C182.814 5.35067 182.58 5.262 182.328 5.178C182.011 5.066 181.703 4.954 181.404 4.842C181.115 4.72067 180.858 4.57133 180.634 4.394C180.41 4.20733 180.228 3.98333 180.088 3.722C179.958 3.45133 179.892 3.11067 179.892 2.7C179.892 2.38267 179.958 2.09333 180.088 1.832C180.228 1.57067 180.415 1.34667 180.648 1.16C180.891 0.964 181.176 0.814666 181.502 0.712C181.829 0.6 182.184 0.544 182.566 0.544C182.958 0.544 183.313 0.6 183.63 0.712C183.957 0.814666 184.237 0.964 184.47 1.16C184.713 1.356 184.895 1.59867 185.016 1.888C185.147 2.168 185.212 2.49 185.212 2.854H184.078V2.77C184.078 2.39667 183.934 2.09333 183.644 1.86C183.355 1.61733 182.991 1.496 182.552 1.496C182.104 1.496 181.736 1.608 181.446 1.832C181.157 2.056 181.012 2.34533 181.012 2.7C181.012 2.93333 181.059 3.12933 181.152 3.288C181.246 3.44667 181.376 3.582 181.544 3.694C181.712 3.806 181.913 3.90867 182.146 4.002C182.38 4.09533 182.632 4.18867 182.902 4.282C183.248 4.394 183.56 4.52 183.84 4.66C184.13 4.79067 184.377 4.94933 184.582 5.136C184.788 5.32267 184.942 5.54667 185.044 5.808C185.156 6.06933 185.212 6.382 185.212 6.746C185.212 7.054 185.142 7.35267 185.002 7.642C184.872 7.93133 184.685 8.18333 184.442 8.398C184.209 8.61267 183.929 8.78533 183.602 8.916C183.285 9.04667 182.94 9.112 182.566 9.112Z" fill="#344F10"/>
</svg>
