<svg width="269" height="50" viewBox="0 0 269 50" fill="none" xmlns="http://www.w3.org/2000/svg">
<path d="M265.513 29.098C264.869 29.098 264.29 28.986 263.777 28.762C263.273 28.5286 262.876 28.2113 262.587 27.81C262.298 27.3993 262.148 26.928 262.139 26.396H263.497C263.544 26.8533 263.73 27.2406 264.057 27.558C264.393 27.866 264.878 28.02 265.513 28.02C266.12 28.02 266.596 27.8706 266.941 27.572C267.296 27.264 267.473 26.872 267.473 26.396C267.473 26.0226 267.37 25.7193 267.165 25.486C266.96 25.2526 266.703 25.0753 266.395 24.954C266.087 24.8326 265.672 24.702 265.149 24.562C264.505 24.394 263.987 24.226 263.595 24.058C263.212 23.89 262.881 23.6286 262.601 23.274C262.33 22.91 262.195 22.4246 262.195 21.818C262.195 21.286 262.33 20.8146 262.601 20.404C262.872 19.9933 263.25 19.676 263.735 19.452C264.23 19.228 264.794 19.116 265.429 19.116C266.344 19.116 267.09 19.3446 267.669 19.802C268.257 20.2593 268.588 20.866 268.663 21.622H267.263C267.216 21.2486 267.02 20.922 266.675 20.642C266.33 20.3526 265.872 20.208 265.303 20.208C264.771 20.208 264.337 20.348 264.001 20.628C263.665 20.8986 263.497 21.2813 263.497 21.776C263.497 22.1306 263.595 22.42 263.791 22.644C263.996 22.868 264.244 23.0406 264.533 23.162C264.832 23.274 265.247 23.4046 265.779 23.554C266.423 23.7313 266.941 23.9086 267.333 24.086C267.725 24.254 268.061 24.52 268.341 24.884C268.621 25.2386 268.761 25.724 268.761 26.34C268.761 26.816 268.635 27.264 268.383 27.684C268.131 28.104 267.758 28.4446 267.263 28.706C266.768 28.9673 266.185 29.098 265.513 29.098Z" fill="#344F10"/>
<path d="M254.859 19.2419C255.923 19.2419 256.842 19.4426 257.617 19.8439C258.401 20.2359 258.998 20.8006 259.409 21.5379C259.829 22.2753 260.039 23.1433 260.039 24.1419C260.039 25.1406 259.829 26.0086 259.409 26.7459C258.998 27.4739 258.401 28.0339 257.617 28.4259C256.842 28.8086 255.923 28.9999 254.859 28.9999H251.821V19.2419H254.859ZM254.859 27.9499C256.119 27.9499 257.08 27.6186 257.743 26.9559C258.405 26.2839 258.737 25.3459 258.737 24.1419C258.737 22.9286 258.401 21.9813 257.729 21.2999C257.066 20.6186 256.109 20.2779 254.859 20.2779H253.095V27.9499H254.859Z" fill="#344F10"/>
<path d="M248.949 29H247.675L242.551 21.23V29H241.277V19.228H242.551L247.675 26.984V19.228H248.949V29Z" fill="#344F10"/>
<path d="M238.406 19.2419V28.9999H237.132V19.2419H238.406Z" fill="#344F10"/>
<path d="M235.038 19.2419L232.21 28.9999H230.782L228.514 21.1459L226.162 28.9999L224.748 29.0139L222.018 19.2419H223.376L225.504 27.5159L227.856 19.2419H229.284L231.524 27.4879L233.666 19.2419H235.038Z" fill="#344F10"/>
<path d="M215.469 29H214.195L209.071 21.23V29H207.797V19.228H209.071L214.195 26.984V19.228H215.469V29Z" fill="#344F10"/>
<path d="M204.926 19.2419V28.9999H203.652V19.2419H204.926Z" fill="#344F10"/>
<path d="M199.286 26.8299H195.03L194.246 28.9999H192.902L196.43 19.2979H197.9L201.414 28.9999H200.07L199.286 26.8299ZM198.922 25.7939L197.158 20.8659L195.394 25.7939H198.922Z" fill="#344F10"/>
<path d="M191.25 19.2419V20.2779H188.59V28.9999H187.316V20.2779H184.642V19.2419H191.25Z" fill="#344F10"/>
<path d="M182.372 29H181.098L175.974 21.23V29H174.7V19.228H175.974L181.098 26.984V19.228H182.372V29Z" fill="#344F10"/>
<path d="M165.799 19.2419V25.4159C165.799 26.2839 166.009 26.9279 166.429 27.3479C166.859 27.7679 167.451 27.9779 168.207 27.9779C168.954 27.9779 169.537 27.7679 169.957 27.3479C170.387 26.9279 170.601 26.2839 170.601 25.4159V19.2419H171.875V25.4019C171.875 26.2139 171.712 26.8999 171.385 27.4599C171.059 28.0106 170.615 28.4213 170.055 28.6919C169.505 28.9626 168.884 29.0979 168.193 29.0979C167.503 29.0979 166.877 28.9626 166.317 28.6919C165.767 28.4213 165.328 28.0106 165.001 27.4599C164.684 26.8999 164.525 26.2139 164.525 25.4019V19.2419H165.799Z" fill="#344F10"/>
<path d="M157.271 29.0979C156.366 29.0979 155.54 28.8879 154.793 28.4679C154.046 28.0386 153.454 27.4459 153.015 26.6899C152.586 25.9245 152.371 25.0659 152.371 24.1139C152.371 23.1619 152.586 22.3079 153.015 21.5519C153.454 20.7866 154.046 20.1939 154.793 19.7739C155.54 19.3445 156.366 19.1299 157.271 19.1299C158.186 19.1299 159.016 19.3445 159.763 19.7739C160.51 20.1939 161.098 20.7819 161.527 21.5379C161.956 22.2939 162.171 23.1526 162.171 24.1139C162.171 25.0752 161.956 25.9339 161.527 26.6899C161.098 27.4459 160.51 28.0386 159.763 28.4679C159.016 28.8879 158.186 29.0979 157.271 29.0979ZM157.271 27.9919C157.952 27.9919 158.564 27.8332 159.105 27.5159C159.656 27.1986 160.085 26.7459 160.393 26.1579C160.71 25.5699 160.869 24.8886 160.869 24.1139C160.869 23.3299 160.71 22.6486 160.393 22.0699C160.085 21.4819 159.66 21.0292 159.119 20.7119C158.578 20.3945 157.962 20.2359 157.271 20.2359C156.58 20.2359 155.964 20.3945 155.423 20.7119C154.882 21.0292 154.452 21.4819 154.135 22.0699C153.827 22.6486 153.673 23.3299 153.673 24.1139C153.673 24.8886 153.827 25.5699 154.135 26.1579C154.452 26.7459 154.882 27.1986 155.423 27.5159C155.974 27.8332 156.59 27.9919 157.271 27.9919Z" fill="#344F10"/>
<path d="M149.987 19.312V29H148.713V21.776L145.493 29H144.597L141.363 21.762V29H140.089V19.312H141.461L145.045 27.32L148.629 19.312H149.987Z" fill="#344F10"/>
<path d="M133.417 19.2419V20.2779H129.175V23.5679H132.619V24.6039H129.175V28.9999H127.901V19.2419H133.417Z" fill="#344F10"/>
<path d="M120.62 29.0979C119.714 29.0979 118.888 28.8879 118.142 28.4679C117.395 28.0386 116.802 27.4459 116.364 26.6899C115.934 25.9245 115.72 25.0659 115.72 24.1139C115.72 23.1619 115.934 22.3079 116.364 21.5519C116.802 20.7866 117.395 20.1939 118.142 19.7739C118.888 19.3445 119.714 19.1299 120.62 19.1299C121.534 19.1299 122.365 19.3445 123.112 19.7739C123.858 20.1939 124.446 20.7819 124.876 21.5379C125.305 22.2939 125.52 23.1526 125.52 24.1139C125.52 25.0752 125.305 25.9339 124.876 26.6899C124.446 27.4459 123.858 28.0386 123.112 28.4679C122.365 28.8879 121.534 29.0979 120.62 29.0979ZM120.62 27.9919C121.301 27.9919 121.912 27.8332 122.454 27.5159C123.004 27.1986 123.434 26.7459 123.742 26.1579C124.059 25.5699 124.218 24.8886 124.218 24.1139C124.218 23.3299 124.059 22.6486 123.742 22.0699C123.434 21.4819 123.009 21.0292 122.468 20.7119C121.926 20.3945 121.31 20.2359 120.62 20.2359C119.929 20.2359 119.313 20.3945 118.772 20.7119C118.23 21.0292 117.801 21.4819 117.484 22.0699C117.176 22.6486 117.022 23.3299 117.022 24.1139C117.022 24.8886 117.176 25.5699 117.484 26.1579C117.801 26.7459 118.23 27.1986 118.772 27.5159C119.322 27.8332 119.938 27.9919 120.62 27.9919Z" fill="#344F10"/>
<path d="M108.888 19.2419V28.9999H107.614V24.5759H102.644V28.9999H101.37V19.2419H102.644V23.5259H107.614V19.2419H108.888Z" fill="#344F10"/>
<path d="M89.3794 24.114C89.3794 23.162 89.5941 22.308 90.0234 21.552C90.4527 20.7866 91.0361 20.1893 91.7734 19.76C92.5201 19.3306 93.3461 19.116 94.2514 19.116C95.3154 19.116 96.2441 19.3726 97.0374 19.886C97.8307 20.3993 98.4094 21.1273 98.7734 22.07H97.2474C96.9767 21.482 96.5847 21.0293 96.0714 20.712C95.5674 20.3946 94.9607 20.236 94.2514 20.236C93.5701 20.236 92.9587 20.3946 92.4174 20.712C91.8761 21.0293 91.4514 21.482 91.1434 22.07C90.8354 22.6486 90.6814 23.33 90.6814 24.114C90.6814 24.8886 90.8354 25.57 91.1434 26.158C91.4514 26.7366 91.8761 27.1846 92.4174 27.502C92.9587 27.8193 93.5701 27.978 94.2514 27.978C94.9607 27.978 95.5674 27.824 96.0714 27.516C96.5847 27.1986 96.9767 26.746 97.2474 26.158H98.7734C98.4094 27.0913 97.8307 27.8146 97.0374 28.328C96.2441 28.832 95.3154 29.084 94.2514 29.084C93.3461 29.084 92.5201 28.874 91.7734 28.454C91.0361 28.0246 90.4527 27.432 90.0234 26.676C89.5941 25.92 89.3794 25.066 89.3794 24.114Z" fill="#344F10"/>
<path d="M87.5875 19.2419V20.2779H84.9275V28.9999H83.6535V20.2779H80.9795V19.2419H87.5875Z" fill="#344F10"/>
<path d="M78.71 19.2419V28.9999H77.436V19.2419H78.71Z" fill="#344F10"/>
<path d="M75.3418 19.2419L72.5138 28.9999H71.0858L68.8178 21.1459L66.4658 28.9999L65.0518 29.0139L62.3218 19.2419H63.6798L65.8078 27.5159L68.1598 19.2419H69.5878L71.8278 27.4879L73.9698 19.2419H75.3418Z" fill="#344F10"/>
<path d="M50 25C50 38.8071 38.8071 50 25 50C11.1929 50 0 38.8071 0 25C0 11.1929 11.1929 0 25 0C38.8071 0 50 11.1929 50 25Z" fill="#E4DFD3"/>
<path fill-rule="evenodd" clip-rule="evenodd" d="M25 49C38.2548 49 49 38.2548 49 25C49 11.7452 38.2548 1 25 1C11.7452 1 1 11.7452 1 25C1 38.2548 11.7452 49 25 49ZM25 50C38.8071 50 50 38.8071 50 25C50 11.1929 38.8071 0 25 0C11.1929 0 0 11.1929 0 25C0 38.8071 11.1929 50 25 50Z" fill="#344F10"/>
<path fill-rule="evenodd" clip-rule="evenodd" d="M24.9533 15.052L27.4066 21.9999H22.5365L24.9806 23.5731L34.2056 17.6353L45 24.5832H27.4265L24.9891 30.4999L22.5621 24.6082H5L15.7944 17.6603L22.5068 21.9808L24.9533 15.052ZM26.9516 34.4999L24.989 30.5297L23.0264 34.4999H26.9516Z" fill="#344F10"/>
<path d="M25 24L27.5 22H22.5L25 24Z" fill="#344F10"/>
</svg>
