<svg width="28" height="28" viewBox="0 0 28 28" fill="none" xmlns="http://www.w3.org/2000/svg">
<path fill-rule="evenodd" clip-rule="evenodd" d="M16.7802 14.018L9.59522 21.3119C9.28837 21.6234 9.28836 22.1235 9.59519 22.435C9.8961 22.7405 10.3877 22.7443 10.6932 22.4434C10.696 22.4406 10.6988 22.4379 10.7015 22.4351L17.8867 15.1413L17.8897 15.1444L19 14.0177L18.9968 14.0145L19 14.0112L17.8937 12.8875L17.8902 12.8911L10.6744 5.56577C10.3724 5.25918 9.87905 5.25546 9.57246 5.55747C9.56971 5.56018 9.56697 5.56291 9.56426 5.56566C9.25635 5.87813 9.2563 6.37991 9.56415 6.69244L16.7802 14.018Z" fill="white"/>
<mask id="mask0" mask-type="alpha" maskUnits="userSpaceOnUse" x="9" y="5" width="10" height="18">
<path fill-rule="evenodd" clip-rule="evenodd" d="M16.7802 14.018L9.59522 21.3119C9.28837 21.6234 9.28836 22.1235 9.59519 22.435C9.8961 22.7405 10.3877 22.7443 10.6932 22.4434C10.696 22.4406 10.6988 22.4379 10.7015 22.4351L17.8867 15.1413L17.8897 15.1444L19 14.0177L18.9968 14.0145L19 14.0112L17.8937 12.8875L17.8902 12.8911L10.6744 5.56577C10.3724 5.25918 9.87905 5.25546 9.57246 5.55747C9.56971 5.56018 9.56697 5.56291 9.56426 5.56566C9.25635 5.87813 9.2563 6.37991 9.56415 6.69244L16.7802 14.018Z" fill="white"/>
</mask>
<g mask="url(#mask0)">
<rect width="28" height="28" transform="matrix(-1 0 0 1 28 0)" fill="#333333"/>
</g>
</svg>
