<svg width="28" height="28" viewBox="0 0 28 28" fill="none" xmlns="http://www.w3.org/2000/svg">
<path fill-rule="evenodd" clip-rule="evenodd" d="M16.7802 13.9821L9.59522 6.68815C9.28837 6.37665 9.28836 5.87652 9.59519 5.565C9.8961 5.25949 10.3877 5.25576 10.6932 5.55668C10.696 5.55942 10.6988 5.56217 10.7015 5.56495L17.8867 12.8587L17.8897 12.8557L19 13.9823L18.9968 13.9856L19 13.9888L17.8937 15.1125L17.8902 15.1089L10.6744 22.4343C10.3724 22.7409 9.87905 22.7446 9.57246 22.4426C9.5697 22.4399 9.56697 22.4371 9.56426 22.4344C9.25635 22.1219 9.2563 21.6201 9.56415 21.3076L16.7802 13.9821Z" fill="white"/>
<mask id="mask0" mask-type="alpha" maskUnits="userSpaceOnUse" x="9" y="5" width="10" height="18">
<path fill-rule="evenodd" clip-rule="evenodd" d="M16.7802 13.9821L9.59522 6.68815C9.28837 6.37665 9.28836 5.87652 9.59519 5.565C9.8961 5.25949 10.3877 5.25576 10.6932 5.55668C10.696 5.55942 10.6988 5.56217 10.7015 5.56495L17.8867 12.8587L17.8897 12.8557L19 13.9823L18.9968 13.9856L19 13.9888L17.8937 15.1125L17.8902 15.1089L10.6744 22.4343C10.3724 22.7409 9.87905 22.7446 9.57246 22.4426C9.5697 22.4399 9.56697 22.4371 9.56426 22.4344C9.25635 22.1219 9.2563 21.6201 9.56415 21.3076L16.7802 13.9821Z" fill="white"/>
</mask>
<g mask="url(#mask0)">
<rect x="28" y="28" width="28" height="28" transform="rotate(-180 28 28)" fill="#333333"/>
</g>
</svg>
