<svg width="82" height="77" viewBox="0 0 82 77" fill="none" xmlns="http://www.w3.org/2000/svg">
<path d="M45.1683 75.9363L42.2043 70.4266M15.8243 21.3898L23.2344 35.1642M23.2344 35.1642L26.6353 23.5937M23.2344 35.1642L11.7059 31.8583M23.2344 35.1642L29.7553 47.2856M29.7553 47.2856L34.3574 29.6544M29.7553 47.2856L14.2799 42.8778M29.7553 47.2856L37.4618 61.611M37.4618 61.611L43.6239 38.47M37.4618 61.611L15.8243 55.5502M37.4618 61.611L42.2043 70.4266M42.2043 70.4266C64.583 40.8015 68.2819 24.8587 6.04297 1.55469" stroke="#344F10"/>
<path d="M6.02918 1C-7.9954 67.9324 8.35849 71.5268 42.08 70.427M55.9796 48.388L58.0388 45.1669M69.3646 27.4509L62.6721 37.9194M62.6721 37.9194H71.4238M62.6721 37.9194L60.0981 29.6548M62.6721 37.9194L58.0388 45.1669M58.0388 45.1669H69.3646M58.0388 45.1669L52.3759 55.5506L65.7609 56.6526" stroke="#344F10"/>
<path d="M44.6543 67.1208C75.9058 66.6853 87.7539 60.0382 77.2709 13.2117" stroke="#344F10"/>
<path d="M77.6014 13.6765C66.3007 16.2928 60.4287 18.5369 52.8906 27.4509" stroke="#344F10"/>
</svg>
