<svg width="1180" height="399" viewBox="0 0 1180 399" fill="none" xmlns="http://www.w3.org/2000/svg">
<rect x="100" y="397.002" width="86" height="1" fill="#344F10"/>
<path d="M102.646 379.714H105.936V381.002H101.05V371.272H102.646V379.714ZM108.867 372.56V375.416H112.227V376.718H108.867V379.7H112.647V381.002H107.271V371.258H112.647V372.56H108.867ZM120.479 379.014H116.405L115.705 381.002H114.039L117.525 371.258H119.373L122.859 381.002H121.179L120.479 379.014ZM120.031 377.712L118.449 373.19L116.853 377.712H120.031ZM129.428 381.002L127.188 377.11H125.97V381.002H124.374V371.272H127.734C128.481 371.272 129.111 371.402 129.624 371.664C130.147 371.925 130.534 372.275 130.786 372.714C131.048 373.152 131.178 373.642 131.178 374.184C131.178 374.818 130.992 375.397 130.618 375.92C130.254 376.433 129.69 376.783 128.924 376.97L131.332 381.002H129.428ZM125.97 375.836H127.734C128.332 375.836 128.78 375.686 129.078 375.388C129.386 375.089 129.54 374.688 129.54 374.184C129.54 373.68 129.391 373.288 129.092 373.008C128.794 372.718 128.341 372.574 127.734 372.574H125.97V375.836ZM141.214 381.002H139.618L134.816 373.736V381.002H133.22V371.258H134.816L139.618 378.51V371.258H141.214V381.002ZM157.194 371.272V381.002H155.598V374.338L152.63 381.002H151.524L148.542 374.338V381.002H146.946V371.272H148.668L152.084 378.902L155.486 371.272H157.194ZM163.73 381.1C162.825 381.1 161.99 380.89 161.224 380.47C160.468 380.04 159.866 379.448 159.418 378.692C158.98 377.926 158.76 377.068 158.76 376.116C158.76 375.164 158.98 374.31 159.418 373.554C159.866 372.798 160.468 372.21 161.224 371.79C161.99 371.36 162.825 371.146 163.73 371.146C164.645 371.146 165.48 371.36 166.236 371.79C167.002 372.21 167.604 372.798 168.042 373.554C168.481 374.31 168.7 375.164 168.7 376.116C168.7 377.068 168.481 377.926 168.042 378.692C167.604 379.448 167.002 380.04 166.236 380.47C165.48 380.89 164.645 381.1 163.73 381.1ZM163.73 379.714C164.374 379.714 164.948 379.569 165.452 379.28C165.956 378.981 166.348 378.561 166.628 378.02C166.918 377.469 167.062 376.834 167.062 376.116C167.062 375.397 166.918 374.767 166.628 374.226C166.348 373.684 165.956 373.269 165.452 372.98C164.948 372.69 164.374 372.546 163.73 372.546C163.086 372.546 162.512 372.69 162.008 372.98C161.504 373.269 161.108 373.684 160.818 374.226C160.538 374.767 160.398 375.397 160.398 376.116C160.398 376.834 160.538 377.469 160.818 378.02C161.108 378.561 161.504 378.981 162.008 379.28C162.512 379.569 163.086 379.714 163.73 379.714ZM175.325 381.002L173.085 377.11H171.867V381.002H170.271V371.272H173.631C174.377 371.272 175.007 371.402 175.521 371.664C176.043 371.925 176.431 372.275 176.683 372.714C176.944 373.152 177.075 373.642 177.075 374.184C177.075 374.818 176.888 375.397 176.515 375.92C176.151 376.433 175.586 376.783 174.821 376.97L177.229 381.002H175.325ZM171.867 375.836H173.631C174.228 375.836 174.676 375.686 174.975 375.388C175.283 375.089 175.437 374.688 175.437 374.184C175.437 373.68 175.287 373.288 174.989 373.008C174.69 372.718 174.237 372.574 173.631 372.574H171.867V375.836ZM180.712 372.56V375.416H184.072V376.718H180.712V379.7H184.492V381.002H179.116V371.258H184.492V372.56H180.712Z" fill="#344F10"/>
<path fill-rule="evenodd" clip-rule="evenodd" d="M798.868 14.875C942.779 -4.23708 1025.73 -5.66674 1179.13 14.8751L1180 14.9912V15.8663V82.2515V83.2515H1179H1170.93V113.697V114.697H1169.93H1154.74C1154.66 115.069 1154.58 115.562 1154.48 116.153C1154.24 117.56 1153.96 119.519 1153.78 121.726C1153.4 126.182 1153.42 131.482 1154.85 135.309C1156.38 139.39 1160.23 143.748 1163.82 147.152C1165.59 148.837 1167.27 150.257 1168.51 151.256C1169.12 151.755 1169.63 152.148 1169.98 152.415C1170.15 152.549 1170.29 152.651 1170.38 152.72L1170.42 152.75L1170.48 152.797L1170.51 152.815L1170.52 152.82L1170.52 152.82L1170.51 152.826L1170.52 152.821L1170.93 153.12V153.628V179.082H1179H1180V180.082V339.307V340.307H1179H1170.93V376.243V377.055L1170.13 377.222C1044.23 403.576 963.765 403.617 809.506 377.229L808.674 377.087V376.243V340.307H799H798V339.307V180.082V179.082H799H808.674V153.628V153.045L809.182 152.758C810.051 152.266 810.943 151.783 811.843 151.297C814.642 149.784 817.513 148.232 820.004 146.226C823.243 143.619 825.716 140.329 826.294 135.539L826.295 135.529L826.297 135.518C827.225 129.01 827.36 124.558 826.382 114.697H809.674H808.674V113.697V83.2515H799H798V82.2515V15.8663V14.9903L798.868 14.875ZM810.674 340.419C957.407 356.01 1036.27 356.026 1168.93 340.432V375.43C1044 401.51 963.87 401.556 810.674 375.399V340.419ZM828.392 114.697H1152.7C1152.64 115.019 1152.57 115.398 1152.5 115.827C1152.26 117.272 1151.98 119.286 1151.79 121.558C1151.54 124.497 1151.44 127.94 1151.85 131.165H828.824C829.226 126.57 829.123 122.128 828.392 114.697ZM828.62 133.165H1152.18C1152.38 134.159 1152.65 135.115 1152.98 136.009C1154.68 140.552 1158.83 145.178 1162.44 148.603C1164.26 150.333 1165.98 151.788 1167.25 152.811C1167.88 153.322 1168.4 153.727 1168.76 154.004C1168.82 154.049 1168.88 154.09 1168.93 154.128V179.707C1029.56 186.462 950.512 185.947 810.674 179.626V154.214C811.314 153.858 811.98 153.498 812.662 153.13L812.666 153.128L812.667 153.127L812.675 153.123L812.678 153.121L812.678 153.121C815.509 151.591 818.61 149.916 821.259 147.784C824.773 144.955 827.618 141.235 828.278 135.79C828.407 134.883 828.521 134.014 828.62 133.165ZM1153.92 112.697H1168.93V83.2512H810.674V112.697L827.286 112.697L1153.92 112.697ZM809.674 81.2515L809.674 81.2512H1169.93L1169.93 81.2515H1178V16.7414C1025.64 -3.61303 942.94 -2.20223 800 16.7424V81.2515H809.674ZM809.629 181.58L809.651 181.082H800V338.307H809.674H809.727L809.78 338.313C957.503 354.051 1036.31 354.06 1169.81 338.314L1169.87 338.307H1169.93H1178V181.082H1171.55L1171.58 181.58C1030.23 188.485 950.97 187.984 809.629 181.58Z" fill="#344F10"/>
<path d="M638.546 53L633.954 47.912V53H632.498V41.848H633.954V47.016L638.562 41.848H640.402L635.346 47.432L640.45 53H638.546ZM641.532 48.584C641.532 47.688 641.713 46.904 642.076 46.232C642.438 45.5493 642.934 45.0213 643.564 44.648C644.204 44.2747 644.913 44.088 645.692 44.088C646.46 44.088 647.126 44.2533 647.692 44.584C648.257 44.9147 648.678 45.3307 648.956 45.832V44.232H650.428V53H648.956V51.368C648.668 51.88 648.236 52.3067 647.66 52.648C647.094 52.9787 646.433 53.144 645.676 53.144C644.897 53.144 644.193 52.952 643.564 52.568C642.934 52.184 642.438 51.6453 642.076 50.952C641.713 50.2587 641.532 49.4693 641.532 48.584ZM648.956 48.6C648.956 47.9387 648.822 47.3627 648.556 46.872C648.289 46.3813 647.926 46.008 647.468 45.752C647.02 45.4853 646.524 45.352 645.98 45.352C645.436 45.352 644.94 45.48 644.492 45.736C644.044 45.992 643.686 46.3653 643.42 46.856C643.153 47.3467 643.02 47.9227 643.02 48.584C643.02 49.256 643.153 49.8427 643.42 50.344C643.686 50.8347 644.044 51.2133 644.492 51.48C644.94 51.736 645.436 51.864 645.98 51.864C646.524 51.864 647.02 51.736 647.468 51.48C647.926 51.2133 648.289 50.8347 648.556 50.344C648.822 49.8427 648.956 49.2613 648.956 48.6ZM656.712 53.144C655.891 53.144 655.144 52.9573 654.472 52.584C653.811 52.2107 653.288 51.6827 652.904 51C652.531 50.3067 652.344 49.5067 652.344 48.6C652.344 47.704 652.536 46.9147 652.92 46.232C653.315 45.5387 653.848 45.0107 654.52 44.648C655.192 44.2747 655.944 44.088 656.776 44.088C657.608 44.088 658.36 44.2747 659.032 44.648C659.704 45.0107 660.232 45.5333 660.616 46.216C661.011 46.8987 661.208 47.6933 661.208 48.6C661.208 49.5067 661.006 50.3067 660.6 51C660.206 51.6827 659.667 52.2107 658.984 52.584C658.302 52.9573 657.544 53.144 656.712 53.144ZM656.712 51.864C657.235 51.864 657.726 51.7413 658.184 51.496C658.643 51.2507 659.011 50.8827 659.288 50.392C659.576 49.9013 659.72 49.304 659.72 48.6C659.72 47.896 659.582 47.2987 659.304 46.808C659.027 46.3173 658.664 45.9547 658.216 45.72C657.768 45.4747 657.283 45.352 656.76 45.352C656.227 45.352 655.736 45.4747 655.288 45.72C654.851 45.9547 654.499 46.3173 654.232 46.808C653.966 47.2987 653.832 47.896 653.832 48.6C653.832 49.3147 653.96 49.9173 654.216 50.408C654.483 50.8987 654.835 51.2667 655.272 51.512C655.71 51.7467 656.19 51.864 656.712 51.864ZM664.579 41.16V53H663.123V41.16H664.579ZM667.812 42.808C667.535 42.808 667.3 42.712 667.108 42.52C666.916 42.328 666.82 42.0933 666.82 41.816C666.82 41.5387 666.916 41.304 667.108 41.112C667.3 40.92 667.535 40.824 667.812 40.824C668.079 40.824 668.303 40.92 668.484 41.112C668.676 41.304 668.772 41.5387 668.772 41.816C668.772 42.0933 668.676 42.328 668.484 42.52C668.303 42.712 668.079 42.808 667.812 42.808ZM668.516 44.232V53H667.06V44.232H668.516ZM675.27 44.072C676.336 44.072 677.2 44.3973 677.862 45.048C678.523 45.688 678.854 46.616 678.854 47.832V53H677.414V48.04C677.414 47.1653 677.195 46.4987 676.758 46.04C676.32 45.5707 675.723 45.336 674.966 45.336C674.198 45.336 673.584 45.576 673.126 46.056C672.678 46.536 672.454 47.2347 672.454 48.152V53H670.998V44.232H672.454V45.48C672.742 45.032 673.131 44.6853 673.622 44.44C674.123 44.1947 674.672 44.072 675.27 44.072Z" fill="#333333"/>
<path d="M643.424 129.112C642.688 129.112 642.027 128.984 641.44 128.728C640.864 128.461 640.411 128.099 640.08 127.64C639.75 127.171 639.579 126.632 639.568 126.024H641.12C641.174 126.547 641.387 126.989 641.76 127.352C642.144 127.704 642.699 127.88 643.424 127.88C644.118 127.88 644.662 127.709 645.056 127.368C645.462 127.016 645.664 126.568 645.664 126.024C645.664 125.597 645.547 125.251 645.312 124.984C645.078 124.717 644.784 124.515 644.432 124.376C644.08 124.237 643.606 124.088 643.008 123.928C642.272 123.736 641.68 123.544 641.232 123.352C640.795 123.16 640.416 122.861 640.096 122.456C639.787 122.04 639.632 121.485 639.632 120.792C639.632 120.184 639.787 119.645 640.096 119.176C640.406 118.707 640.838 118.344 641.392 118.088C641.958 117.832 642.603 117.704 643.328 117.704C644.374 117.704 645.227 117.965 645.888 118.488C646.56 119.011 646.939 119.704 647.024 120.568H645.424C645.371 120.141 645.147 119.768 644.752 119.448C644.358 119.117 643.835 118.952 643.184 118.952C642.576 118.952 642.08 119.112 641.696 119.432C641.312 119.741 641.12 120.179 641.12 120.744C641.12 121.149 641.232 121.48 641.456 121.736C641.691 121.992 641.974 122.189 642.304 122.328C642.646 122.456 643.12 122.605 643.728 122.776C644.464 122.979 645.056 123.181 645.504 123.384C645.952 123.576 646.336 123.88 646.656 124.296C646.976 124.701 647.136 125.256 647.136 125.96C647.136 126.504 646.992 127.016 646.704 127.496C646.416 127.976 645.99 128.365 645.424 128.664C644.859 128.963 644.192 129.112 643.424 129.112ZM650.031 118.808C649.754 118.808 649.519 118.712 649.327 118.52C649.135 118.328 649.039 118.093 649.039 117.816C649.039 117.539 649.135 117.304 649.327 117.112C649.519 116.92 649.754 116.824 650.031 116.824C650.298 116.824 650.522 116.92 650.703 117.112C650.895 117.304 650.991 117.539 650.991 117.816C650.991 118.093 650.895 118.328 650.703 118.52C650.522 118.712 650.298 118.808 650.031 118.808ZM650.735 120.232V129H649.279V120.232H650.735ZM656.48 127.656L659.2 120.232H660.752L657.312 129H655.616L652.176 120.232H653.744L656.48 127.656ZM661.641 124.584C661.641 123.688 661.822 122.904 662.185 122.232C662.548 121.549 663.044 121.021 663.673 120.648C664.313 120.275 665.022 120.088 665.801 120.088C666.569 120.088 667.236 120.253 667.801 120.584C668.366 120.915 668.788 121.331 669.065 121.832V120.232H670.537V129H669.065V127.368C668.777 127.88 668.345 128.307 667.769 128.648C667.204 128.979 666.542 129.144 665.785 129.144C665.006 129.144 664.302 128.952 663.673 128.568C663.044 128.184 662.548 127.645 662.185 126.952C661.822 126.259 661.641 125.469 661.641 124.584ZM669.065 124.6C669.065 123.939 668.932 123.363 668.665 122.872C668.398 122.381 668.036 122.008 667.577 121.752C667.129 121.485 666.633 121.352 666.089 121.352C665.545 121.352 665.049 121.48 664.601 121.736C664.153 121.992 663.796 122.365 663.529 122.856C663.262 123.347 663.129 123.923 663.129 124.584C663.129 125.256 663.262 125.843 663.529 126.344C663.796 126.835 664.153 127.213 664.601 127.48C665.049 127.736 665.545 127.864 666.089 127.864C666.633 127.864 667.129 127.736 667.577 127.48C668.036 127.213 668.398 126.835 668.665 126.344C668.932 125.843 669.065 125.261 669.065 124.6ZM677.894 129L674.454 125.128V129H672.998V117.16H674.454V124.12L677.83 120.232H679.862L675.734 124.6L679.878 129H677.894Z" fill="#333333"/>
<path d="M613.204 196.418C613.204 195.33 613.449 194.354 613.94 193.49C614.43 192.615 615.097 191.932 615.94 191.442C616.793 190.951 617.737 190.706 618.772 190.706C619.988 190.706 621.049 190.999 621.956 191.586C622.862 192.172 623.524 193.004 623.94 194.082H622.196C621.886 193.41 621.438 192.892 620.852 192.53C620.276 192.167 619.582 191.986 618.772 191.986C617.993 191.986 617.294 192.167 616.676 192.53C616.057 192.892 615.572 193.41 615.22 194.082C614.868 194.743 614.692 195.522 614.692 196.418C614.692 197.303 614.868 198.082 615.22 198.754C615.572 199.415 616.057 199.927 616.676 200.29C617.294 200.652 617.993 200.834 618.772 200.834C619.582 200.834 620.276 200.658 620.852 200.306C621.438 199.943 621.886 199.426 622.196 198.754H623.94C623.524 199.82 622.862 200.647 621.956 201.234C621.049 201.81 619.988 202.098 618.772 202.098C617.737 202.098 616.793 201.858 615.94 201.378C615.097 200.887 614.43 200.21 613.94 199.346C613.449 198.482 613.204 197.506 613.204 196.418ZM625.563 197.586C625.563 196.69 625.744 195.906 626.107 195.234C626.47 194.551 626.966 194.023 627.595 193.65C628.235 193.276 628.944 193.09 629.723 193.09C630.491 193.09 631.158 193.255 631.723 193.586C632.288 193.916 632.71 194.332 632.987 194.834V193.234H634.459V202.002H632.987V200.37C632.699 200.882 632.267 201.308 631.691 201.65C631.126 201.98 630.464 202.146 629.707 202.146C628.928 202.146 628.224 201.954 627.595 201.57C626.966 201.186 626.47 200.647 626.107 199.954C625.744 199.26 625.563 198.471 625.563 197.586ZM632.987 197.602C632.987 196.94 632.854 196.364 632.587 195.874C632.32 195.383 631.958 195.01 631.499 194.754C631.051 194.487 630.555 194.354 630.011 194.354C629.467 194.354 628.971 194.482 628.523 194.738C628.075 194.994 627.718 195.367 627.451 195.858C627.184 196.348 627.051 196.924 627.051 197.586C627.051 198.258 627.184 198.844 627.451 199.346C627.718 199.836 628.075 200.215 628.523 200.482C628.971 200.738 629.467 200.866 630.011 200.866C630.555 200.866 631.051 200.738 631.499 200.482C631.958 200.215 632.32 199.836 632.587 199.346C632.854 198.844 632.987 198.263 632.987 197.602ZM638.376 190.162V202.002H636.92V190.162H638.376ZM640.313 197.602C640.313 196.695 640.494 195.906 640.857 195.234C641.22 194.551 641.721 194.023 642.361 193.65C643.012 193.276 643.753 193.09 644.585 193.09C645.662 193.09 646.548 193.351 647.241 193.874C647.945 194.396 648.409 195.122 648.633 196.05H647.065C646.916 195.516 646.622 195.095 646.185 194.786C645.758 194.476 645.225 194.322 644.585 194.322C643.753 194.322 643.081 194.61 642.569 195.186C642.057 195.751 641.801 196.556 641.801 197.602C641.801 198.658 642.057 199.474 642.569 200.05C643.081 200.626 643.753 200.914 644.585 200.914C645.225 200.914 645.758 200.764 646.185 200.466C646.612 200.167 646.905 199.74 647.065 199.186H648.633C648.398 200.082 647.929 200.802 647.225 201.346C646.521 201.879 645.641 202.146 644.585 202.146C643.753 202.146 643.012 201.959 642.361 201.586C641.721 201.212 641.22 200.684 640.857 200.002C640.494 199.319 640.313 198.519 640.313 197.602ZM651.328 191.81C651.05 191.81 650.816 191.714 650.624 191.522C650.432 191.33 650.336 191.095 650.336 190.818C650.336 190.54 650.432 190.306 650.624 190.114C650.816 189.922 651.05 189.826 651.328 189.826C651.594 189.826 651.818 189.922 652 190.114C652.192 190.306 652.288 190.54 652.288 190.818C652.288 191.095 652.192 191.33 652 191.522C651.818 191.714 651.594 191.81 651.328 191.81ZM652.032 193.234V202.002H650.576V193.234H652.032ZM662.289 193.234V202.002H660.833V200.706C660.556 201.154 660.167 201.506 659.665 201.762C659.175 202.007 658.631 202.13 658.033 202.13C657.351 202.13 656.737 201.991 656.193 201.714C655.649 201.426 655.217 200.999 654.897 200.434C654.588 199.868 654.433 199.18 654.433 198.37V193.234H655.873V198.178C655.873 199.042 656.092 199.708 656.529 200.178C656.967 200.636 657.564 200.866 658.321 200.866C659.1 200.866 659.713 200.626 660.161 200.146C660.609 199.666 660.833 198.967 660.833 198.05V193.234H662.289ZM675.292 193.074C675.974 193.074 676.582 193.218 677.116 193.506C677.649 193.783 678.07 194.204 678.38 194.77C678.689 195.335 678.844 196.023 678.844 196.834V202.002H677.404V197.042C677.404 196.167 677.185 195.5 676.748 195.042C676.321 194.572 675.74 194.338 675.004 194.338C674.246 194.338 673.644 194.583 673.196 195.074C672.748 195.554 672.524 196.252 672.524 197.17V202.002H671.084V197.042C671.084 196.167 670.865 195.5 670.428 195.042C670.001 194.572 669.42 194.338 668.684 194.338C667.926 194.338 667.324 194.583 666.876 195.074C666.428 195.554 666.204 196.252 666.204 197.17V202.002H664.748V193.234H666.204V194.498C666.492 194.039 666.876 193.687 667.356 193.442C667.846 193.196 668.385 193.074 668.972 193.074C669.708 193.074 670.358 193.239 670.924 193.57C671.489 193.9 671.91 194.386 672.188 195.026C672.433 194.407 672.838 193.927 673.404 193.586C673.969 193.244 674.598 193.074 675.292 193.074Z" fill="#333333"/>
<path d="M117.892 28.2137H107.884L106.228 33.0017H100.936L109.972 7.83771H115.84L124.876 33.0017H119.548L117.892 28.2137ZM116.524 24.1817L112.888 13.6697L109.252 24.1817H116.524ZM150.034 7.87371L141.538 24.2537V33.0017H136.498V24.2537L127.966 7.87371H133.654L139.054 19.3577L144.418 7.87371H150.034ZM159.708 7.87371V23.4257C159.708 25.1297 160.152 26.4377 161.04 27.3497C161.928 28.2377 163.176 28.6817 164.784 28.6817C166.416 28.6817 167.676 28.2377 168.564 27.3497C169.452 26.4377 169.896 25.1297 169.896 23.4257V7.87371H174.972V23.3897C174.972 25.5257 174.504 27.3377 173.568 28.8257C172.656 30.2897 171.42 31.3937 169.86 32.1377C168.324 32.8817 166.608 33.2537 164.712 33.2537C162.84 33.2537 161.136 32.8817 159.6 32.1377C158.088 31.3937 156.888 30.2897 156 28.8257C155.112 27.3377 154.668 25.5257 154.668 23.3897V7.87371H159.708ZM194.602 33.0017L189.058 23.2097H186.682V33.0017H181.642V7.87371H191.074C193.018 7.87371 194.674 8.22171 196.042 8.91771C197.41 9.58971 198.43 10.5137 199.102 11.6897C199.798 12.8417 200.146 14.1377 200.146 15.5777C200.146 17.2337 199.666 18.7337 198.706 20.0777C197.746 21.3977 196.318 22.3097 194.422 22.8137L200.434 33.0017H194.602ZM186.682 19.4297H190.894C192.262 19.4297 193.282 19.1057 193.954 18.4577C194.626 17.7857 194.962 16.8617 194.962 15.6857C194.962 14.5337 194.626 13.6457 193.954 13.0217C193.282 12.3737 192.262 12.0497 190.894 12.0497H186.682V19.4297ZM229.076 7.87371L219.86 33.0017H213.74L204.524 7.87371H209.924L216.836 27.8537L223.712 7.87371H229.076ZM238.938 11.9417V18.2417H247.398V22.2377H238.938V28.8977H248.478V33.0017H233.898V7.83771H248.478V11.9417H238.938ZM263.642 7.87371C266.282 7.87371 268.598 8.38971 270.59 9.42171C272.606 10.4537 274.154 11.9297 275.234 13.8497C276.338 15.7457 276.89 17.9537 276.89 20.4737C276.89 22.9937 276.338 25.2017 275.234 27.0977C274.154 28.9697 272.606 30.4217 270.59 31.4537C268.598 32.4857 266.282 33.0017 263.642 33.0017H254.858V7.87371H263.642ZM263.462 28.7177C266.102 28.7177 268.142 27.9977 269.582 26.5577C271.022 25.1177 271.742 23.0897 271.742 20.4737C271.742 17.8577 271.022 15.8177 269.582 14.3537C268.142 12.8657 266.102 12.1217 263.462 12.1217H259.898V28.7177H263.462ZM287.503 7.87371V33.0017H282.463V7.87371H287.503ZM293.058 20.4017C293.058 17.9297 293.61 15.7217 294.714 13.7777C295.842 11.8097 297.366 10.2857 299.286 9.20571C301.23 8.10171 303.402 7.54971 305.802 7.54971C308.61 7.54971 311.07 8.26971 313.182 9.70971C315.294 11.1497 316.77 13.1417 317.61 15.6857H311.814C311.238 14.4857 310.422 13.5857 309.366 12.9857C308.334 12.3857 307.134 12.0857 305.766 12.0857C304.302 12.0857 302.994 12.4337 301.842 13.1297C300.714 13.8017 299.826 14.7617 299.178 16.0097C298.554 17.2577 298.242 18.7217 298.242 20.4017C298.242 22.0577 298.554 23.5217 299.178 24.7937C299.826 26.0417 300.714 27.0137 301.842 27.7097C302.994 28.3817 304.302 28.7177 305.766 28.7177C307.134 28.7177 308.334 28.4177 309.366 27.8177C310.422 27.1937 311.238 26.2817 311.814 25.0817H317.61C316.77 27.6497 315.294 29.6537 313.182 31.0937C311.094 32.5097 308.634 33.2177 305.802 33.2177C303.402 33.2177 301.23 32.6777 299.286 31.5977C297.366 30.4937 295.842 28.9697 294.714 27.0257C293.61 25.0817 293.058 22.8737 293.058 20.4017ZM351.193 7.87371V11.9417H344.497V33.0017H339.457V11.9417H332.761V7.87371H351.193ZM368.335 33.2537C365.983 33.2537 363.823 32.7017 361.855 31.5977C359.887 30.4937 358.327 28.9697 357.175 27.0257C356.023 25.0577 355.447 22.8377 355.447 20.3657C355.447 17.9177 356.023 15.7217 357.175 13.7777C358.327 11.8097 359.887 10.2737 361.855 9.16971C363.823 8.06571 365.983 7.51371 368.335 7.51371C370.711 7.51371 372.871 8.06571 374.815 9.16971C376.783 10.2737 378.331 11.8097 379.459 13.7777C380.611 15.7217 381.187 17.9177 381.187 20.3657C381.187 22.8377 380.611 25.0577 379.459 27.0257C378.331 28.9697 376.783 30.4937 374.815 31.5977C372.847 32.7017 370.687 33.2537 368.335 33.2537ZM368.335 28.7537C369.847 28.7537 371.179 28.4177 372.331 27.7457C373.483 27.0497 374.383 26.0657 375.031 24.7937C375.679 23.5217 376.003 22.0457 376.003 20.3657C376.003 18.6857 375.679 17.2217 375.031 15.9737C374.383 14.7017 373.483 13.7297 372.331 13.0577C371.179 12.3857 369.847 12.0497 368.335 12.0497C366.823 12.0497 365.479 12.3857 364.303 13.0577C363.151 13.7297 362.251 14.7017 361.603 15.9737C360.955 17.2217 360.631 18.6857 360.631 20.3657C360.631 22.0457 360.955 23.5217 361.603 24.7937C362.251 26.0657 363.151 27.0497 364.303 27.7457C365.479 28.4177 366.823 28.7537 368.335 28.7537ZM398.4 33.2537C396.048 33.2537 393.888 32.7017 391.92 31.5977C389.952 30.4937 388.392 28.9697 387.24 27.0257C386.088 25.0577 385.512 22.8377 385.512 20.3657C385.512 17.9177 386.088 15.7217 387.24 13.7777C388.392 11.8097 389.952 10.2737 391.92 9.16971C393.888 8.06571 396.048 7.51371 398.4 7.51371C400.776 7.51371 402.936 8.06571 404.88 9.16971C406.848 10.2737 408.396 11.8097 409.524 13.7777C410.676 15.7217 411.252 17.9177 411.252 20.3657C411.252 22.8377 410.676 25.0577 409.524 27.0257C408.396 28.9697 406.848 30.4937 404.88 31.5977C402.912 32.7017 400.752 33.2537 398.4 33.2537ZM398.4 28.7537C399.912 28.7537 401.244 28.4177 402.396 27.7457C403.548 27.0497 404.448 26.0657 405.096 24.7937C405.744 23.5217 406.068 22.0457 406.068 20.3657C406.068 18.6857 405.744 17.2217 405.096 15.9737C404.448 14.7017 403.548 13.7297 402.396 13.0577C401.244 12.3857 399.912 12.0497 398.4 12.0497C396.888 12.0497 395.544 12.3857 394.368 13.0577C393.216 13.7297 392.316 14.7017 391.668 15.9737C391.02 17.2217 390.696 18.6857 390.696 20.3657C390.696 22.0457 391.02 23.5217 391.668 24.7937C392.316 26.0657 393.216 27.0497 394.368 27.7457C395.544 28.4177 396.888 28.7537 398.4 28.7537ZM433.902 7.87371V11.9417H427.206V33.0017H422.166V11.9417H415.47V7.87371H433.902ZM460.223 7.87371V33.0017H455.183V22.3097H444.419V33.0017H439.379V7.87371H444.419V18.2057H455.183V7.87371H460.223ZM120.808 55.6497C120.808 56.9937 120.484 58.2537 119.836 59.4297C119.212 60.6057 118.216 61.5537 116.848 62.2737C115.504 62.9937 113.8 63.3537 111.736 63.3537H107.524V73.0017H102.484V47.8737H111.736C113.68 47.8737 115.336 48.2097 116.704 48.8817C118.072 49.5537 119.092 50.4777 119.764 51.6537C120.46 52.8297 120.808 54.1617 120.808 55.6497ZM111.52 59.2857C112.912 59.2857 113.944 58.9737 114.616 58.3497C115.288 57.7017 115.624 56.8017 115.624 55.6497C115.624 53.2017 114.256 51.9777 111.52 51.9777H107.524V59.2857H111.52ZM137.85 73.2537C135.498 73.2537 133.338 72.7017 131.37 71.5977C129.402 70.4937 127.842 68.9697 126.69 67.0257C125.538 65.0577 124.962 62.8377 124.962 60.3657C124.962 57.9177 125.538 55.7217 126.69 53.7777C127.842 51.8097 129.402 50.2737 131.37 49.1697C133.338 48.0657 135.498 47.5137 137.85 47.5137C140.226 47.5137 142.386 48.0657 144.33 49.1697C146.298 50.2737 147.846 51.8097 148.974 53.7777C150.126 55.7217 150.702 57.9177 150.702 60.3657C150.702 62.8377 150.126 65.0577 148.974 67.0257C147.846 68.9697 146.298 70.4937 144.33 71.5977C142.362 72.7017 140.202 73.2537 137.85 73.2537ZM137.85 68.7537C139.362 68.7537 140.694 68.4177 141.846 67.7457C142.998 67.0497 143.898 66.0657 144.546 64.7937C145.194 63.5217 145.518 62.0457 145.518 60.3657C145.518 58.6857 145.194 57.2217 144.546 55.9737C143.898 54.7017 142.998 53.7297 141.846 53.0577C140.694 52.3857 139.362 52.0497 137.85 52.0497C136.338 52.0497 134.994 52.3857 133.818 53.0577C132.666 53.7297 131.766 54.7017 131.118 55.9737C130.47 57.2217 130.146 58.6857 130.146 60.3657C130.146 62.0457 130.47 63.5217 131.118 64.7937C131.766 66.0657 132.666 67.0497 133.818 67.7457C134.994 68.4177 136.338 68.7537 137.85 68.7537ZM189.84 47.8737L182.82 73.0017H176.88L172.164 55.1097L167.232 73.0017L161.328 73.0377L154.56 47.8737H159.96L164.388 67.3857L169.5 47.8737H175.116L179.94 67.2777L184.404 47.8737H189.84ZM203.715 47.8737C206.355 47.8737 208.671 48.3897 210.663 49.4217C212.679 50.4537 214.227 51.9297 215.307 53.8497C216.411 55.7457 216.963 57.9537 216.963 60.4737C216.963 62.9937 216.411 65.2017 215.307 67.0977C214.227 68.9697 212.679 70.4217 210.663 71.4537C208.671 72.4857 206.355 73.0017 203.715 73.0017H194.931V47.8737H203.715ZM203.535 68.7177C206.175 68.7177 208.215 67.9977 209.655 66.5577C211.095 65.1177 211.815 63.0897 211.815 60.4737C211.815 57.8577 211.095 55.8177 209.655 54.3537C208.215 52.8657 206.175 52.1217 203.535 52.1217H199.971V68.7177H203.535ZM227.576 51.9417V58.2417H236.036V62.2377H227.576V68.8977H237.116V73.0017H222.536V47.8377H237.116V51.9417H227.576ZM256.456 73.0017L250.912 63.2097H248.536V73.0017H243.496V47.8737H252.928C254.872 47.8737 256.528 48.2217 257.896 48.9177C259.264 49.5897 260.284 50.5137 260.956 51.6897C261.652 52.8417 262 54.1377 262 55.5777C262 57.2337 261.52 58.7337 260.56 60.0777C259.6 61.3977 258.172 62.3097 256.276 62.8137L262.288 73.0017H256.456ZM248.536 59.4297H252.748C254.116 59.4297 255.136 59.1057 255.808 58.4577C256.48 57.7857 256.816 56.8617 256.816 55.6857C256.816 54.5337 256.48 53.6457 255.808 53.0217C255.136 52.3737 254.116 52.0497 252.748 52.0497H248.536V59.4297Z" fill="#344F10"/>
<path d="M4.27 77.3557H14V78.9517H4.27V77.3557ZM6.16 71.3683C6.16 70.7616 6.286 70.2203 6.538 69.7443C6.79 69.259 7.16333 68.881 7.658 68.6103C8.15267 68.3396 8.75 68.2043 9.45 68.2043H14V69.7863H9.688C8.99733 69.7863 8.47 69.959 8.106 70.3043C7.73267 70.6496 7.546 71.121 7.546 71.7183C7.546 72.3156 7.73267 72.7916 8.106 73.1463C8.47 73.4916 8.99733 73.6643 9.688 73.6643H14V75.2603H6.286V73.6643H7.168C6.85067 73.403 6.60333 73.0716 6.426 72.6703C6.24867 72.2596 6.16 71.8256 6.16 71.3683ZM6.16 63.0605C6.16 62.4632 6.28133 61.9358 6.524 61.4785C6.75733 61.0118 7.05133 60.6478 7.406 60.3865H6.286V58.7765H14.126C14.8353 58.7765 15.4653 58.9258 16.016 59.2245C16.576 59.5232 17.0147 59.9572 17.332 60.5265C17.6493 61.0865 17.808 61.7585 17.808 62.5425C17.808 63.5878 17.5607 64.4558 17.066 65.1465C16.5807 65.8372 15.918 66.2292 15.078 66.3225V64.7405C15.4793 64.6192 15.8013 64.3625 16.044 63.9705C16.296 63.5692 16.422 63.0932 16.422 62.5425C16.422 61.8985 16.226 61.3805 15.834 60.9885C15.442 60.5872 14.8727 60.3865 14.126 60.3865H12.838C13.202 60.6572 13.51 61.0258 13.762 61.4925C14.0047 61.9498 14.126 62.4725 14.126 63.0605C14.126 63.7325 13.958 64.3485 13.622 64.9085C13.2767 65.4592 12.8007 65.8978 12.194 66.2245C11.578 66.5418 10.8827 66.7005 10.108 66.7005C9.33333 66.7005 8.64733 66.5418 8.05 66.2245C7.45267 65.8978 6.99067 65.4592 6.664 64.9085C6.328 64.3485 6.16 63.7325 6.16 63.0605ZM10.136 60.3865C9.604 60.3865 9.142 60.4985 8.75 60.7225C8.358 60.9372 8.05933 61.2218 7.854 61.5765C7.64867 61.9312 7.546 62.3138 7.546 62.7245C7.546 63.1352 7.64867 63.5178 7.854 63.8725C8.05 64.2272 8.344 64.5165 8.736 64.7405C9.11867 64.9552 9.576 65.0625 10.108 65.0625C10.64 65.0625 11.1067 64.9552 11.508 64.7405C11.9093 64.5165 12.2173 64.2272 12.432 63.8725C12.6373 63.5085 12.74 63.1258 12.74 62.7245C12.74 62.3138 12.6373 61.9312 12.432 61.5765C12.2267 61.2218 11.928 60.9372 11.536 60.7225C11.1347 60.4985 10.668 60.3865 10.136 60.3865ZM7.406 55.0842C7.014 54.8509 6.71067 54.5429 6.496 54.1602C6.272 53.7682 6.16 53.3062 6.16 52.7742H7.812V53.1802C7.812 53.8056 7.97067 54.2816 8.288 54.6082C8.60533 54.9256 9.156 55.0842 9.94 55.0842H14V56.6802H6.286V55.0842H7.406ZM9.954 44.2372C10.2433 44.2372 10.5047 44.2558 10.738 44.2932V50.1872C11.354 50.1405 11.8487 49.9118 12.222 49.5012C12.5953 49.0905 12.782 48.5865 12.782 47.9892C12.782 47.1305 12.4227 46.5238 11.704 46.1692V44.4472C12.4133 44.6805 12.9967 45.1052 13.454 45.7212C13.902 46.3278 14.126 47.0838 14.126 47.9892C14.126 48.7265 13.9627 49.3892 13.636 49.9772C13.3 50.5558 12.8333 51.0132 12.236 51.3492C11.6293 51.6758 10.9293 51.8392 10.136 51.8392C9.34267 51.8392 8.64733 51.6805 8.05 51.3632C7.44333 51.0365 6.97667 50.5838 6.65 50.0052C6.32333 49.4172 6.16 48.7452 6.16 47.9892C6.16 47.2612 6.31867 46.6125 6.636 46.0432C6.95333 45.4738 7.40133 45.0305 7.98 44.7132C8.54933 44.3958 9.20733 44.2372 9.954 44.2372ZM9.45 45.9032C8.862 45.9125 8.39067 46.1225 8.036 46.5332C7.68133 46.9438 7.504 47.4525 7.504 48.0592C7.504 48.6098 7.68133 49.0812 8.036 49.4732C8.38133 49.8652 8.85267 50.0985 9.45 50.1732V45.9032ZM10.108 43.1986C9.33333 43.1986 8.64733 43.0399 8.05 42.7226C7.45267 42.3959 6.99067 41.9572 6.664 41.4066C6.328 40.8466 6.16 40.2259 6.16 39.5446C6.16 39.0406 6.272 38.5459 6.496 38.0606C6.71067 37.5659 7 37.1739 7.364 36.8846H3.64V35.2746H14V36.8846H12.838C13.2113 37.1459 13.5193 37.5099 13.762 37.9766C14.0047 38.4339 14.126 38.9612 14.126 39.5586C14.126 40.2306 13.958 40.8466 13.622 41.4066C13.2767 41.9572 12.8007 42.3959 12.194 42.7226C11.578 43.0399 10.8827 43.1986 10.108 43.1986ZM10.136 36.8846C9.604 36.8846 9.142 36.9966 8.75 37.2206C8.358 37.4352 8.05933 37.7199 7.854 38.0746C7.64867 38.4292 7.546 38.8119 7.546 39.2226C7.546 39.6332 7.64867 40.0159 7.854 40.3706C8.05 40.7252 8.344 41.0146 8.736 41.2386C9.11867 41.4532 9.576 41.5606 10.108 41.5606C10.64 41.5606 11.1067 41.4532 11.508 41.2386C11.9093 41.0146 12.2173 40.7252 12.432 40.3706C12.6373 40.0066 12.74 39.6239 12.74 39.2226C12.74 38.8119 12.6373 38.4292 12.432 38.0746C12.2267 37.7199 11.928 37.4352 11.536 37.2206C11.1347 36.9966 10.668 36.8846 10.136 36.8846ZM5.264 32.3663C5.264 32.6556 5.166 32.8983 4.97 33.0943C4.774 33.2903 4.53133 33.3883 4.242 33.3883C3.95267 33.3883 3.71 33.2903 3.514 33.0943C3.318 32.8983 3.22 32.6556 3.22 32.3663C3.22 32.0863 3.318 31.8483 3.514 31.6523C3.71 31.4563 3.95267 31.3583 4.242 31.3583C4.53133 31.3583 4.774 31.4563 4.97 31.6523C5.166 31.8483 5.264 32.0863 5.264 32.3663ZM6.286 31.5823H14V33.1783H6.286V31.5823ZM9.954 22.4169C10.2433 22.4169 10.5047 22.4355 10.738 22.4729V28.3669C11.354 28.3202 11.8487 28.0915 12.222 27.6809C12.5953 27.2702 12.782 26.7662 12.782 26.1689C12.782 25.3102 12.4227 24.7035 11.704 24.3489V22.6269C12.4133 22.8602 12.9967 23.2849 13.454 23.9009C13.902 24.5075 14.126 25.2635 14.126 26.1689C14.126 26.9062 13.9627 27.5689 13.636 28.1569C13.3 28.7355 12.8333 29.1929 12.236 29.5289C11.6293 29.8555 10.9293 30.0189 10.136 30.0189C9.34267 30.0189 8.64733 29.8602 8.05 29.5429C7.44333 29.2162 6.97667 28.7635 6.65 28.1849C6.32333 27.5969 6.16 26.9249 6.16 26.1689C6.16 25.4409 6.31867 24.7922 6.636 24.2229C6.95333 23.6535 7.40133 23.2102 7.98 22.8929C8.54933 22.5755 9.20733 22.4169 9.954 22.4169ZM9.45 24.0829C8.862 24.0922 8.39067 24.3022 8.036 24.7129C7.68133 25.1235 7.504 25.6322 7.504 26.2389C7.504 26.7895 7.68133 27.2609 8.036 27.6529C8.38133 28.0449 8.85267 28.2782 9.45 28.3529V24.0829ZM6.16 16.9542C6.16 16.3476 6.286 15.8062 6.538 15.3302C6.79 14.8449 7.16333 14.4669 7.658 14.1962C8.15267 13.9256 8.75 13.7902 9.45 13.7902H14V15.3722H9.688C8.99733 15.3722 8.47 15.5449 8.106 15.8902C7.73267 16.2356 7.546 16.7069 7.546 17.3042C7.546 17.9016 7.73267 18.3776 8.106 18.7322C8.47 19.0776 8.99733 19.2502 9.688 19.2502H14V20.8462H6.286V19.2502H7.168C6.85067 18.9889 6.60333 18.6576 6.426 18.2562C6.24867 17.8456 6.16 17.4116 6.16 16.9542ZM7.588 9.89244H11.858C12.1473 9.89244 12.3573 9.82711 12.488 9.69644C12.6093 9.55644 12.67 9.32311 12.67 8.99644V8.01644H14V9.27644C14 9.99511 13.832 10.5458 13.496 10.9284C13.16 11.3111 12.614 11.5024 11.858 11.5024H7.588V12.4124H6.286V11.5024H4.368V9.89244H6.286L6.286 8.01644H7.588L7.588 9.89244ZM14.126 3.74546C14.126 4.35213 14.0187 4.89813 13.804 5.38346C13.58 5.85946 13.2813 6.23746 12.908 6.51746C12.5253 6.79746 12.1007 6.94679 11.634 6.96546V5.31346C11.9607 5.28546 12.236 5.13146 12.46 4.85146C12.6747 4.56213 12.782 4.20279 12.782 3.77346C12.782 3.32546 12.698 2.98013 12.53 2.73746C12.3527 2.48546 12.1287 2.35946 11.858 2.35946C11.5687 2.35946 11.354 2.49946 11.214 2.77946C11.074 3.05013 10.92 3.48413 10.752 4.08146C10.5933 4.66013 10.4393 5.13146 10.29 5.49546C10.1407 5.85946 9.912 6.17679 9.604 6.44746C9.296 6.70879 8.89 6.83946 8.386 6.83946C7.97533 6.83946 7.602 6.71813 7.266 6.47546C6.92067 6.23279 6.65 5.88746 6.454 5.43946C6.258 4.98213 6.16 4.45946 6.16 3.87146C6.16 2.99413 6.384 2.28946 6.832 1.75746C7.27067 1.21613 7.87267 0.926792 8.638 0.889459V2.48546C8.29267 2.51346 8.01733 2.65346 7.812 2.90546C7.60667 3.15746 7.504 3.49813 7.504 3.92746C7.504 4.34746 7.58333 4.66946 7.742 4.89346C7.90067 5.11746 8.11067 5.22946 8.372 5.22946C8.57733 5.22946 8.75 5.15479 8.89 5.00546C9.03 4.85613 9.142 4.67413 9.226 4.45946C9.30067 4.24479 9.39867 3.92746 9.52 3.50746C9.66933 2.94746 9.82333 2.49013 9.982 2.13546C10.1313 1.77146 10.3553 1.45879 10.654 1.19746C10.9527 0.936125 11.3493 0.800792 11.844 0.791459C12.2827 0.791459 12.6747 0.912792 13.02 1.15546C13.3653 1.39813 13.636 1.74346 13.832 2.19146C14.028 2.63013 14.126 3.14813 14.126 3.74546Z" fill="#344F10" fill-opacity="0.5"/>
<rect x="8" y="90.0017" width="1" height="88.0769" fill="#344F10" fill-opacity="0.5"/>
<circle cx="777.5" cy="50.5017" r="2.5" transform="rotate(-180 777.5 50.5017)" fill="#333333"/>
<circle cx="777.5" cy="123.502" r="2.5" transform="rotate(-180 777.5 123.502)" fill="#333333"/>
<circle cx="777.5" cy="199.502" r="2.5" fill="#333333"/>
<rect x="776" y="51.0017" width="76" height="1" transform="rotate(-180 776 51.0017)" fill="#333333"/>
<rect x="776" y="124.002" width="76" height="1" transform="rotate(-180 776 124.002)" fill="#333333"/>
<rect x="776" y="200.002" width="76" height="1" transform="rotate(-180 776 200.002)" fill="#333333"/>
<circle cx="777.5" cy="199.502" r="2.5" fill="#333333"/>
<circle cx="777.5" cy="272.502" r="2.5" fill="#333333"/>
<rect x="776" y="273.002" width="76" height="1" transform="rotate(-180 776 273.002)" fill="#333333"/>
<circle cx="777.5" cy="272.502" r="2.5" fill="#333333"/>
<circle cx="777.5" cy="272.502" r="2.5" fill="#333333"/>
<circle cx="777.5" cy="272.502" r="2.5" fill="#333333"/>
<circle cx="777.5" cy="344.502" r="2.5" fill="#333333"/>
<rect x="776" y="345.002" width="76" height="1" transform="rotate(-180 776 345.002)" fill="#333333"/>
<circle cx="777.5" cy="344.502" r="2.5" fill="#333333"/>
<circle cx="777.5" cy="344.502" r="2.5" fill="#333333"/>
<circle cx="777.5" cy="344.502" r="2.5" fill="#333333"/>
<path d="M585.813 276.818H589.717V278.002H584.357V266.85H585.813V276.818ZM592.015 267.81C591.738 267.81 591.503 267.714 591.311 267.522C591.119 267.33 591.023 267.095 591.023 266.818C591.023 266.54 591.119 266.306 591.311 266.114C591.503 265.922 591.738 265.826 592.015 265.826C592.282 265.826 592.506 265.922 592.687 266.114C592.879 266.306 592.975 266.54 592.975 266.818C592.975 267.095 592.879 267.33 592.687 267.522C592.506 267.714 592.282 267.81 592.015 267.81ZM592.719 269.234V278.002H591.263V269.234H592.719ZM594.657 273.602C594.657 272.695 594.838 271.906 595.201 271.234C595.563 270.551 596.065 270.023 596.705 269.65C597.355 269.276 598.097 269.09 598.929 269.09C600.006 269.09 600.891 269.351 601.585 269.874C602.289 270.396 602.753 271.122 602.977 272.05H601.409C601.259 271.516 600.966 271.095 600.529 270.786C600.102 270.476 599.569 270.322 598.929 270.322C598.097 270.322 597.425 270.61 596.913 271.186C596.401 271.751 596.145 272.556 596.145 273.602C596.145 274.658 596.401 275.474 596.913 276.05C597.425 276.626 598.097 276.914 598.929 276.914C599.569 276.914 600.102 276.764 600.529 276.466C600.955 276.167 601.249 275.74 601.409 275.186H602.977C602.742 276.082 602.273 276.802 601.569 277.346C600.865 277.879 599.985 278.146 598.929 278.146C598.097 278.146 597.355 277.959 596.705 277.586C596.065 277.212 595.563 276.684 595.201 276.002C594.838 275.319 594.657 274.519 594.657 273.602ZM608.744 278.146C607.922 278.146 607.176 277.959 606.504 277.586C605.842 277.212 605.32 276.684 604.936 276.002C604.562 275.308 604.376 274.508 604.376 273.602C604.376 272.706 604.568 271.916 604.952 271.234C605.346 270.54 605.88 270.012 606.552 269.65C607.224 269.276 607.976 269.09 608.808 269.09C609.64 269.09 610.392 269.276 611.064 269.65C611.736 270.012 612.264 270.535 612.648 271.218C613.042 271.9 613.24 272.695 613.24 273.602C613.24 274.508 613.037 275.308 612.632 276.002C612.237 276.684 611.698 277.212 611.016 277.586C610.333 277.959 609.576 278.146 608.744 278.146ZM608.744 276.866C609.266 276.866 609.757 276.743 610.216 276.498C610.674 276.252 611.042 275.884 611.32 275.394C611.608 274.903 611.752 274.306 611.752 273.602C611.752 272.898 611.613 272.3 611.336 271.81C611.058 271.319 610.696 270.956 610.248 270.722C609.8 270.476 609.314 270.354 608.792 270.354C608.258 270.354 607.768 270.476 607.32 270.722C606.882 270.956 606.53 271.319 606.264 271.81C605.997 272.3 605.864 272.898 605.864 273.602C605.864 274.316 605.992 274.919 606.248 275.41C606.514 275.9 606.866 276.268 607.304 276.514C607.741 276.748 608.221 276.866 608.744 276.866ZM616.61 270.658C616.866 270.156 617.229 269.767 617.698 269.49C618.178 269.212 618.759 269.074 619.442 269.074V270.578H619.058C617.426 270.578 616.61 271.463 616.61 273.234V278.002H615.154V269.234H616.61V270.658ZM621.875 267.81C621.597 267.81 621.363 267.714 621.171 267.522C620.979 267.33 620.883 267.095 620.883 266.818C620.883 266.54 620.979 266.306 621.171 266.114C621.363 265.922 621.597 265.826 621.875 265.826C622.141 265.826 622.365 265.922 622.547 266.114C622.739 266.306 622.835 266.54 622.835 266.818C622.835 267.095 622.739 267.33 622.547 267.522C622.365 267.714 622.141 267.81 621.875 267.81ZM622.579 269.234V278.002H621.123V269.234H622.579ZM624.516 273.602C624.516 272.695 624.697 271.906 625.06 271.234C625.423 270.551 625.924 270.023 626.564 269.65C627.215 269.276 627.956 269.09 628.788 269.09C629.865 269.09 630.751 269.351 631.444 269.874C632.148 270.396 632.612 271.122 632.836 272.05H631.268C631.119 271.516 630.825 271.095 630.388 270.786C629.961 270.476 629.428 270.322 628.788 270.322C627.956 270.322 627.284 270.61 626.772 271.186C626.26 271.751 626.004 272.556 626.004 273.602C626.004 274.658 626.26 275.474 626.772 276.05C627.284 276.626 627.956 276.914 628.788 276.914C629.428 276.914 629.961 276.764 630.388 276.466C630.815 276.167 631.108 275.74 631.268 275.186H632.836C632.601 276.082 632.132 276.802 631.428 277.346C630.724 277.879 629.844 278.146 628.788 278.146C627.956 278.146 627.215 277.959 626.564 277.586C625.924 277.212 625.423 276.684 625.06 276.002C624.697 275.319 624.516 274.519 624.516 273.602ZM642.779 273.282C642.779 273.559 642.763 273.852 642.731 274.162H635.723C635.776 275.026 636.07 275.703 636.603 276.194C637.147 276.674 637.803 276.914 638.571 276.914C639.2 276.914 639.723 276.77 640.139 276.482C640.566 276.183 640.864 275.788 641.035 275.298H642.603C642.368 276.14 641.899 276.828 641.195 277.362C640.491 277.884 639.616 278.146 638.571 278.146C637.739 278.146 636.992 277.959 636.331 277.586C635.68 277.212 635.168 276.684 634.795 276.002C634.422 275.308 634.235 274.508 634.235 273.602C634.235 272.695 634.416 271.9 634.779 271.218C635.142 270.535 635.648 270.012 636.299 269.65C636.96 269.276 637.718 269.09 638.571 269.09C639.403 269.09 640.139 269.271 640.779 269.634C641.419 269.996 641.91 270.498 642.251 271.138C642.603 271.767 642.779 272.482 642.779 273.282ZM641.275 272.978C641.275 272.423 641.152 271.948 640.907 271.554C640.662 271.148 640.326 270.844 639.899 270.642C639.483 270.428 639.019 270.322 638.507 270.322C637.771 270.322 637.142 270.556 636.619 271.026C636.107 271.495 635.814 272.146 635.739 272.978H641.275ZM650.422 270.658C650.678 270.156 651.041 269.767 651.51 269.49C651.99 269.212 652.572 269.074 653.254 269.074V270.578H652.87C651.238 270.578 650.422 271.463 650.422 273.234V278.002H648.966V269.234H650.422V270.658ZM658.759 278.146C657.938 278.146 657.191 277.959 656.519 277.586C655.858 277.212 655.335 276.684 654.951 276.002C654.578 275.308 654.391 274.508 654.391 273.602C654.391 272.706 654.583 271.916 654.967 271.234C655.362 270.54 655.895 270.012 656.567 269.65C657.239 269.276 657.991 269.09 658.823 269.09C659.655 269.09 660.407 269.276 661.079 269.65C661.751 270.012 662.279 270.535 662.663 271.218C663.058 271.9 663.255 272.695 663.255 273.602C663.255 274.508 663.052 275.308 662.647 276.002C662.252 276.684 661.714 277.212 661.031 277.586C660.348 277.959 659.591 278.146 658.759 278.146ZM658.759 276.866C659.282 276.866 659.772 276.743 660.231 276.498C660.69 276.252 661.058 275.884 661.335 275.394C661.623 274.903 661.767 274.306 661.767 273.602C661.767 272.898 661.628 272.3 661.351 271.81C661.074 271.319 660.711 270.956 660.263 270.722C659.815 270.476 659.33 270.354 658.807 270.354C658.274 270.354 657.783 270.476 657.335 270.722C656.898 270.956 656.546 271.319 656.279 271.81C656.012 272.3 655.879 272.898 655.879 273.602C655.879 274.316 656.007 274.919 656.263 275.41C656.53 275.9 656.882 276.268 657.319 276.514C657.756 276.748 658.236 276.866 658.759 276.866ZM668.994 278.146C668.172 278.146 667.426 277.959 666.754 277.586C666.092 277.212 665.57 276.684 665.186 276.002C664.812 275.308 664.626 274.508 664.626 273.602C664.626 272.706 664.818 271.916 665.202 271.234C665.596 270.54 666.13 270.012 666.802 269.65C667.474 269.276 668.226 269.09 669.058 269.09C669.89 269.09 670.642 269.276 671.314 269.65C671.986 270.012 672.514 270.535 672.898 271.218C673.292 271.9 673.49 272.695 673.49 273.602C673.49 274.508 673.287 275.308 672.882 276.002C672.487 276.684 671.948 277.212 671.266 277.586C670.583 277.959 669.826 278.146 668.994 278.146ZM668.994 276.866C669.516 276.866 670.007 276.743 670.466 276.498C670.924 276.252 671.292 275.884 671.57 275.394C671.858 274.903 672.002 274.306 672.002 273.602C672.002 272.898 671.863 272.3 671.586 271.81C671.308 271.319 670.946 270.956 670.498 270.722C670.05 270.476 669.564 270.354 669.042 270.354C668.508 270.354 668.018 270.476 667.57 270.722C667.132 270.956 666.78 271.319 666.514 271.81C666.247 272.3 666.114 272.898 666.114 273.602C666.114 274.316 666.242 274.919 666.498 275.41C666.764 275.9 667.116 276.268 667.554 276.514C667.991 276.748 668.471 276.866 668.994 276.866ZM677.18 270.434V275.602C677.18 276.028 677.271 276.332 677.452 276.514C677.633 276.684 677.948 276.77 678.396 276.77H679.468V278.002H678.156C677.345 278.002 676.737 277.815 676.332 277.442C675.927 277.068 675.724 276.455 675.724 275.602V270.434H674.588V269.234H675.724V267.026H677.18V269.234H679.468V270.434H677.18Z" fill="#333333"/>
<path d="M617.205 339.848V341.032H614.165V351H612.709V341.032H609.653V339.848H617.205ZM626.774 342.232V351H625.318V349.704C625.04 350.152 624.651 350.504 624.15 350.76C623.659 351.005 623.115 351.128 622.518 351.128C621.835 351.128 621.222 350.989 620.678 350.712C620.134 350.424 619.702 349.997 619.382 349.432C619.072 348.867 618.918 348.179 618.918 347.368V342.232H620.358V347.176C620.358 348.04 620.576 348.707 621.014 349.176C621.451 349.635 622.048 349.864 622.806 349.864C623.584 349.864 624.198 349.624 624.646 349.144C625.094 348.664 625.318 347.965 625.318 347.048V342.232H626.774ZM630.688 343.656C630.944 343.155 631.307 342.765 631.776 342.488C632.256 342.211 632.837 342.072 633.52 342.072V343.576H633.136C631.504 343.576 630.688 344.461 630.688 346.232V351H629.232V342.232H630.688V343.656ZM645.745 342.072C646.427 342.072 647.035 342.216 647.569 342.504C648.102 342.781 648.523 343.203 648.833 343.768C649.142 344.333 649.297 345.021 649.297 345.832V351H647.857V346.04C647.857 345.165 647.638 344.499 647.201 344.04C646.774 343.571 646.193 343.336 645.457 343.336C644.699 343.336 644.097 343.581 643.649 344.072C643.201 344.552 642.977 345.251 642.977 346.168V351H641.537V346.04C641.537 345.165 641.318 344.499 640.881 344.04C640.454 343.571 639.873 343.336 639.137 343.336C638.379 343.336 637.777 343.581 637.329 344.072C636.881 344.552 636.657 345.251 636.657 346.168V351H635.201V342.232H636.657V343.496C636.945 343.037 637.329 342.685 637.809 342.44C638.299 342.195 638.838 342.072 639.425 342.072C640.161 342.072 640.811 342.237 641.377 342.568C641.942 342.899 642.363 343.384 642.641 344.024C642.886 343.405 643.291 342.925 643.857 342.584C644.422 342.243 645.051 342.072 645.745 342.072ZM659.685 346.28C659.685 346.557 659.669 346.851 659.637 347.16H652.629C652.682 348.024 652.976 348.701 653.509 349.192C654.053 349.672 654.709 349.912 655.477 349.912C656.106 349.912 656.629 349.768 657.045 349.48C657.472 349.181 657.77 348.787 657.941 348.296H659.509C659.274 349.139 658.805 349.827 658.101 350.36C657.397 350.883 656.522 351.144 655.477 351.144C654.645 351.144 653.898 350.957 653.237 350.584C652.586 350.211 652.074 349.683 651.701 349C651.328 348.307 651.141 347.507 651.141 346.6C651.141 345.693 651.322 344.899 651.685 344.216C652.048 343.533 652.554 343.011 653.205 342.648C653.866 342.275 654.624 342.088 655.477 342.088C656.309 342.088 657.045 342.269 657.685 342.632C658.325 342.995 658.816 343.496 659.157 344.136C659.509 344.765 659.685 345.48 659.685 346.28ZM658.181 345.976C658.181 345.421 658.058 344.947 657.813 344.552C657.568 344.147 657.232 343.843 656.805 343.64C656.389 343.427 655.925 343.32 655.413 343.32C654.677 343.32 654.048 343.555 653.525 344.024C653.013 344.493 652.72 345.144 652.645 345.976H658.181ZM663.063 343.656C663.319 343.155 663.682 342.765 664.151 342.488C664.631 342.211 665.212 342.072 665.895 342.072V343.576H665.511C663.879 343.576 663.063 344.461 663.063 346.232V351H661.607V342.232H663.063V343.656ZM668.328 340.808C668.05 340.808 667.816 340.712 667.624 340.52C667.432 340.328 667.336 340.093 667.336 339.816C667.336 339.539 667.432 339.304 667.624 339.112C667.816 338.92 668.05 338.824 668.328 338.824C668.594 338.824 668.818 338.92 669 339.112C669.192 339.304 669.288 339.539 669.288 339.816C669.288 340.093 669.192 340.328 669 340.52C668.818 340.712 668.594 340.808 668.328 340.808ZM669.032 342.232V351H667.576V342.232H669.032ZM670.969 346.6C670.969 345.693 671.151 344.904 671.513 344.232C671.876 343.549 672.377 343.021 673.017 342.648C673.668 342.275 674.409 342.088 675.241 342.088C676.319 342.088 677.204 342.349 677.897 342.872C678.601 343.395 679.065 344.12 679.289 345.048H677.721C677.572 344.515 677.279 344.093 676.841 343.784C676.415 343.475 675.881 343.32 675.241 343.32C674.409 343.32 673.737 343.608 673.225 344.184C672.713 344.749 672.457 345.555 672.457 346.6C672.457 347.656 672.713 348.472 673.225 349.048C673.737 349.624 674.409 349.912 675.241 349.912C675.881 349.912 676.415 349.763 676.841 349.464C677.268 349.165 677.561 348.739 677.721 348.184H679.289C679.055 349.08 678.585 349.8 677.881 350.344C677.177 350.877 676.297 351.144 675.241 351.144C674.409 351.144 673.668 350.957 673.017 350.584C672.377 350.211 671.876 349.683 671.513 349C671.151 348.317 670.969 347.517 670.969 346.6Z" fill="#333333"/>
</svg>
