<svg width="18" height="181" viewBox="0 0 18 181" fill="none" xmlns="http://www.w3.org/2000/svg">
<path d="M3.78 82.866V81.774H14V82.866H3.78ZM5.656 78.9567V77.7527L12.25 73.1887H5.656V72.1107H14V73.2587L7.336 77.8787H14V78.9567H5.656ZM14.126 65.49C14.126 66.0967 14.014 66.666 13.79 67.198C13.566 67.7207 13.2627 68.178 12.88 68.57C12.488 68.9527 12.0353 69.256 11.522 69.48C10.9993 69.704 10.4393 69.816 9.842 69.816C9.254 69.816 8.69867 69.704 8.176 69.48C7.65333 69.256 7.196 68.9527 6.804 68.57C6.412 68.178 6.104 67.7207 5.88 67.198C5.656 66.6754 5.544 66.1154 5.544 65.518C5.544 65.0047 5.61867 64.524 5.768 64.076C5.908 63.628 6.10867 63.2267 6.37 62.872C6.622 62.508 6.93 62.2 7.294 61.948C7.658 61.6867 8.05933 61.486 8.498 61.346V62.494C7.882 62.774 7.406 63.1707 7.07 63.684C6.72467 64.188 6.552 64.7994 6.552 65.518C6.552 65.9567 6.636 66.372 6.804 66.764C6.972 67.1467 7.20533 67.4827 7.504 67.772C7.79333 68.0614 8.13867 68.29 8.54 68.458C8.94133 68.6167 9.37533 68.696 9.842 68.696C10.3087 68.696 10.7427 68.612 11.144 68.444C11.536 68.276 11.8767 68.052 12.166 67.772C12.4553 67.4827 12.684 67.142 12.852 66.75C13.02 66.358 13.104 65.938 13.104 65.49C13.104 65.042 13.0387 64.6407 12.908 64.286C12.7773 63.922 12.5953 63.614 12.362 63.362C12.1287 63.1007 11.8533 62.8907 11.536 62.732C11.2187 62.564 10.878 62.452 10.514 62.396V65.546H9.478V61.248H9.842C10.4207 61.248 10.9713 61.346 11.494 61.542C12.0073 61.738 12.46 62.0227 12.852 62.396C13.244 62.76 13.5567 63.2034 13.79 63.726C14.014 64.2487 14.126 64.8367 14.126 65.49ZM5.656 58.9766V56.3866C5.656 55.9573 5.726 55.5653 5.866 55.2106C6.006 54.856 6.19733 54.5526 6.44 54.3006C6.68267 54.0393 6.972 53.8386 7.308 53.6986C7.63467 53.5586 7.98467 53.4886 8.358 53.4886C8.638 53.4886 8.91333 53.5306 9.184 53.6146C9.45467 53.6986 9.702 53.8246 9.926 53.9926C10.15 54.1606 10.346 54.366 10.514 54.6086C10.6727 54.842 10.794 55.1126 10.878 55.4206L14 53.3766V54.6646L10.094 57.1566V56.5266C10.094 56.2186 10.0427 55.9433 9.94 55.7006C9.83733 55.458 9.702 55.2573 9.534 55.0986C9.366 54.94 9.17933 54.8186 8.974 54.7346C8.76867 54.6506 8.56333 54.6086 8.358 54.6086C7.854 54.6086 7.448 54.758 7.14 55.0566C6.82267 55.3553 6.664 55.8173 6.664 56.4426V57.8706H14V58.9766H5.656ZM5.656 51.1263V46.1003H6.664V50.0483H9.31V46.1003H10.318V50.0483H12.978V46.1003H14V51.1263H5.656ZM5.656 43.6313V41.3073C5.656 40.6447 5.76333 40.0473 5.978 39.5153C6.19267 38.974 6.48667 38.5167 6.86 38.1433C7.23333 37.7607 7.67667 37.4667 8.19 37.2613C8.694 37.056 9.24 36.9533 9.828 36.9533C10.4253 36.9533 10.9807 37.0607 11.494 37.2753C11.998 37.49 12.4367 37.7933 12.81 38.1853C13.1833 38.568 13.4773 39.0253 13.692 39.5573C13.8973 40.08 14 40.6493 14 41.2653V43.6313H5.656ZM6.664 42.5533H12.978V41.3633C12.978 40.878 12.8987 40.4347 12.74 40.0333C12.5813 39.6227 12.362 39.2727 12.082 38.9833C11.7927 38.694 11.4567 38.47 11.074 38.3113C10.6913 38.1527 10.276 38.0733 9.828 38.0733C9.37067 38.0733 8.95067 38.148 8.568 38.2973C8.176 38.4467 7.84 38.666 7.56 38.9553C7.28 39.2353 7.06067 39.5807 6.902 39.9913C6.74333 40.402 6.664 40.8733 6.664 41.4053V42.5533ZM5.656 34.5352V33.4292H14V34.5352H5.656ZM5.656 30.7059L5.656 25.6799H6.664L6.664 29.6279H9.31V25.6799H10.318V29.6279H12.978V25.6799H14V30.7059H5.656ZM5.656 23.211V22.007L12.25 17.443H5.656V16.365H14V17.513L7.336 22.133H14V23.211H5.656ZM6.692 11.6483L6.692 14.0843H5.656L5.656 8.13432H6.692V10.5563H14V11.6483H6.692ZM14.112 3.45866C14.112 3.86932 14.0607 4.25666 13.958 4.62066C13.846 4.97532 13.6827 5.28332 13.468 5.54466C13.2533 5.80599 12.992 6.01132 12.684 6.16066C12.376 6.30999 12.0167 6.38466 11.606 6.38466V5.19466H11.676C12.124 5.19466 12.474 5.04066 12.726 4.73266C12.978 4.42466 13.104 4.01866 13.104 3.51466C13.104 3.29999 13.0713 3.09932 13.006 2.91266C12.9313 2.71666 12.8333 2.54866 12.712 2.40866C12.5813 2.26866 12.432 2.15666 12.264 2.07266C12.096 1.97932 11.9093 1.93266 11.704 1.93266C11.4893 1.93266 11.3073 1.97466 11.158 2.05866C10.9993 2.14266 10.864 2.26399 10.752 2.42266C10.6307 2.58132 10.528 2.77266 10.444 2.99666C10.3507 3.21132 10.262 3.44466 10.178 3.69666C10.066 4.01399 9.954 4.32199 9.842 4.62066C9.72067 4.90999 9.57133 5.16666 9.394 5.39066C9.20733 5.61466 8.98333 5.79666 8.722 5.93666C8.45133 6.06732 8.11067 6.13266 7.7 6.13266C7.38267 6.13266 7.09333 6.06732 6.832 5.93666C6.57067 5.79666 6.34667 5.60999 6.16 5.37666C5.964 5.13399 5.81467 4.84932 5.712 4.52266C5.6 4.19599 5.544 3.84132 5.544 3.45866C5.544 3.06666 5.6 2.71199 5.712 2.39466C5.81467 2.06799 5.964 1.78799 6.16 1.55466C6.356 1.31199 6.59867 1.12999 6.888 1.00866C7.168 0.877989 7.49 0.812656 7.854 0.812656L7.854 1.94666H7.77C7.39667 1.94666 7.09333 2.09132 6.86 2.38066C6.61733 2.66999 6.496 3.03399 6.496 3.47266C6.496 3.92066 6.608 4.28932 6.832 4.57866C7.056 4.86799 7.34533 5.01266 7.7 5.01266C7.93333 5.01266 8.12933 4.96599 8.288 4.87266C8.44667 4.77932 8.582 4.64866 8.694 4.48066C8.806 4.31266 8.90867 4.11199 9.002 3.87866C9.09533 3.64532 9.18867 3.39332 9.282 3.12266C9.394 2.77732 9.52 2.46466 9.66 2.18466C9.79067 1.89532 9.94933 1.64799 10.136 1.44266C10.3227 1.23732 10.5467 1.08332 10.808 0.980656C11.0693 0.868656 11.382 0.812656 11.746 0.812656C12.054 0.812656 12.3527 0.882656 12.642 1.02266C12.9313 1.15332 13.1833 1.33999 13.398 1.58266C13.6127 1.81599 13.7853 2.09599 13.916 2.42266C14.0467 2.73999 14.112 3.08532 14.112 3.45866Z" fill="#344F10" fill-opacity="0.5"/>
<rect x="8" y="92.9231" width="1" height="88.0769" fill="#344F10" fill-opacity="0.5"/>
</svg>
