<svg width="382" height="398" viewBox="0 0 382 398" fill="none" xmlns="http://www.w3.org/2000/svg">
<path fill-rule="evenodd" clip-rule="evenodd" d="M0.868127 14.9007C144.779 -4.24441 227.726 -5.67655 381.133 14.9009L382 15.0172V15.892V82.392V83.392H381H372.927V113.892V114.892H371.927H356.736C356.665 115.265 356.575 115.759 356.477 116.352C356.244 117.762 355.965 119.724 355.778 121.934C355.402 126.399 355.423 131.708 356.853 135.543C358.377 139.631 362.229 143.997 365.818 147.406C367.594 149.094 369.273 150.517 370.508 151.517C371.125 152.017 371.63 152.411 371.979 152.679C372.154 152.813 372.29 152.916 372.382 152.984C372.427 153.018 372.462 153.044 372.485 153.061L372.51 153.08L372.516 153.084L372.517 153.085L372.518 153.085L372.927 153.385V153.892V179.392H381H382V180.392V339.892V340.892H381H372.927V376.892V377.704L372.132 377.871C246.233 404.27 165.765 404.311 11.5053 377.878L10.6742 377.735V376.892V340.892H1H0V339.892V180.392V179.392H1H10.6742V153.892V153.309L11.1811 153.022C12.0507 152.529 12.9427 152.046 13.8421 151.559C16.641 150.043 19.5119 148.489 22.0037 146.479C25.2419 143.867 27.716 140.572 28.2937 135.772L28.295 135.762L28.2965 135.751C29.2248 129.231 29.3604 124.772 28.3822 114.892H11.6742H10.6742V113.892V83.392H1H0V82.392V15.892V15.0162L0.868127 14.9007ZM12.6742 341.004C159.407 356.622 238.271 356.638 370.927 341.017V376.08C246.002 402.205 165.87 402.25 12.6742 376.049V341.004ZM30.3919 114.892H354.701C354.642 115.215 354.575 115.595 354.504 116.026C354.265 117.474 353.977 119.491 353.785 121.766C353.537 124.711 353.442 128.161 353.851 131.392H30.8237C31.2259 126.788 31.1232 122.337 30.3919 114.892ZM30.6199 133.392H354.178C354.382 134.388 354.645 135.346 354.979 136.241C356.675 140.791 360.828 145.426 364.44 148.856C366.264 150.589 367.984 152.047 369.248 153.071C369.881 153.584 370.4 153.989 370.763 154.267C370.822 154.312 370.877 154.354 370.927 154.392V180.017C231.559 186.785 152.512 186.269 12.6742 179.936V154.477C13.3184 154.119 13.9888 153.756 14.675 153.384L14.6774 153.383L14.6785 153.382C17.5097 151.85 20.6105 150.172 23.2593 148.036C26.7734 145.202 29.6184 141.476 30.278 136.022C30.4074 135.113 30.5215 134.243 30.6199 133.392ZM29.2865 112.892L355.916 112.892H370.927V83.3918H12.6742V112.892H29.2865L29.2865 112.892ZM11.6742 81.392L11.6742 81.3918L371.927 81.392H380V16.7669C227.641 -3.62274 144.94 -2.2095 2 16.7679V81.392H11.6742ZM11.6288 181.891L11.6515 181.392H2V338.892H11.6742H11.7274L11.7803 338.898C159.503 354.663 238.308 354.672 371.81 338.899L371.868 338.892H371.927H380V181.392H373.553L373.577 181.891C232.229 188.808 152.97 188.305 11.6288 181.891Z" fill="#344F10"/>
</svg>
