<svg width="1180" height="399" viewBox="0 0 1180 399" fill="none" xmlns="http://www.w3.org/2000/svg">
<rect x="100" y="397.002" width="86" height="1" fill="#344F10"/>
<path d="M102.646 381.714H105.936V383.002H101.05V373.272H102.646V381.714ZM108.867 374.56V377.416H112.227V378.718H108.867V381.7H112.647V383.002H107.271V373.258H112.647V374.56H108.867ZM120.479 381.014H116.405L115.705 383.002H114.039L117.525 373.258H119.373L122.859 383.002H121.179L120.479 381.014ZM120.031 379.712L118.449 375.19L116.853 379.712H120.031ZM129.428 383.002L127.188 379.11H125.97V383.002H124.374V373.272H127.734C128.481 373.272 129.111 373.402 129.624 373.664C130.147 373.925 130.534 374.275 130.786 374.714C131.048 375.152 131.178 375.642 131.178 376.184C131.178 376.818 130.992 377.397 130.618 377.92C130.254 378.433 129.69 378.783 128.924 378.97L131.332 383.002H129.428ZM125.97 377.836H127.734C128.332 377.836 128.78 377.686 129.078 377.388C129.386 377.089 129.54 376.688 129.54 376.184C129.54 375.68 129.391 375.288 129.092 375.008C128.794 374.718 128.341 374.574 127.734 374.574H125.97V377.836ZM141.214 383.002H139.618L134.816 375.736V383.002H133.22V373.258H134.816L139.618 380.51V373.258H141.214V383.002ZM157.194 373.272V383.002H155.598V376.338L152.63 383.002H151.524L148.542 376.338V383.002H146.946V373.272H148.668L152.084 380.902L155.486 373.272H157.194ZM163.73 383.1C162.825 383.1 161.99 382.89 161.224 382.47C160.468 382.04 159.866 381.448 159.418 380.692C158.98 379.926 158.76 379.068 158.76 378.116C158.76 377.164 158.98 376.31 159.418 375.554C159.866 374.798 160.468 374.21 161.224 373.79C161.99 373.36 162.825 373.146 163.73 373.146C164.645 373.146 165.48 373.36 166.236 373.79C167.002 374.21 167.604 374.798 168.042 375.554C168.481 376.31 168.7 377.164 168.7 378.116C168.7 379.068 168.481 379.926 168.042 380.692C167.604 381.448 167.002 382.04 166.236 382.47C165.48 382.89 164.645 383.1 163.73 383.1ZM163.73 381.714C164.374 381.714 164.948 381.569 165.452 381.28C165.956 380.981 166.348 380.561 166.628 380.02C166.918 379.469 167.062 378.834 167.062 378.116C167.062 377.397 166.918 376.767 166.628 376.226C166.348 375.684 165.956 375.269 165.452 374.98C164.948 374.69 164.374 374.546 163.73 374.546C163.086 374.546 162.512 374.69 162.008 374.98C161.504 375.269 161.108 375.684 160.818 376.226C160.538 376.767 160.398 377.397 160.398 378.116C160.398 378.834 160.538 379.469 160.818 380.02C161.108 380.561 161.504 380.981 162.008 381.28C162.512 381.569 163.086 381.714 163.73 381.714ZM175.325 383.002L173.085 379.11H171.867V383.002H170.271V373.272H173.631C174.377 373.272 175.007 373.402 175.521 373.664C176.043 373.925 176.431 374.275 176.683 374.714C176.944 375.152 177.075 375.642 177.075 376.184C177.075 376.818 176.888 377.397 176.515 377.92C176.151 378.433 175.586 378.783 174.821 378.97L177.229 383.002H175.325ZM171.867 377.836H173.631C174.228 377.836 174.676 377.686 174.975 377.388C175.283 377.089 175.437 376.688 175.437 376.184C175.437 375.68 175.287 375.288 174.989 375.008C174.69 374.718 174.237 374.574 173.631 374.574H171.867V377.836ZM180.712 374.56V377.416H184.072V378.718H180.712V381.7H184.492V383.002H179.116V373.258H184.492V374.56H180.712Z" fill="#344F10"/>
<path fill-rule="evenodd" clip-rule="evenodd" d="M798.868 14.875C942.779 -4.23708 1025.73 -5.66674 1179.13 14.8751L1180 14.9912V15.8663V82.2515V83.2515H1179H1170.93V113.697V114.697H1169.93H1154.74C1154.66 115.069 1154.58 115.562 1154.48 116.153C1154.24 117.56 1153.96 119.519 1153.78 121.726C1153.4 126.182 1153.42 131.482 1154.85 135.309C1156.38 139.39 1160.23 143.748 1163.82 147.152C1165.59 148.837 1167.27 150.257 1168.51 151.256C1169.12 151.755 1169.63 152.148 1169.98 152.415C1170.15 152.549 1170.29 152.651 1170.38 152.72L1170.42 152.75L1170.48 152.797L1170.51 152.815L1170.52 152.82L1170.52 152.82L1170.51 152.826L1170.52 152.821L1170.93 153.12V153.628V179.082H1179H1180V180.082V339.307V340.307H1179H1170.93V376.243V377.055L1170.13 377.222C1044.23 403.576 963.765 403.617 809.506 377.229L808.674 377.087V376.243V340.307H799H798V339.307V180.082V179.082H799H808.674V153.628V153.045L809.182 152.758C810.051 152.266 810.943 151.783 811.843 151.297C814.642 149.784 817.513 148.232 820.004 146.226C823.243 143.619 825.716 140.329 826.294 135.539L826.295 135.529L826.297 135.518C827.225 129.01 827.36 124.558 826.382 114.697H809.674H808.674V113.697V83.2515H799H798V82.2515V15.8663V14.9903L798.868 14.875ZM810.674 340.419C957.407 356.01 1036.27 356.026 1168.93 340.432V375.43C1044 401.51 963.87 401.556 810.674 375.399V340.419ZM828.392 114.697H1152.7C1152.64 115.019 1152.57 115.398 1152.5 115.827C1152.26 117.272 1151.98 119.286 1151.79 121.558C1151.54 124.497 1151.44 127.94 1151.85 131.165H828.824C829.226 126.57 829.123 122.128 828.392 114.697ZM828.62 133.165H1152.18C1152.38 134.159 1152.65 135.115 1152.98 136.009C1154.68 140.552 1158.83 145.178 1162.44 148.603C1164.26 150.333 1165.98 151.788 1167.25 152.811C1167.88 153.322 1168.4 153.727 1168.76 154.004C1168.82 154.049 1168.88 154.09 1168.93 154.128V179.707C1029.56 186.462 950.512 185.947 810.674 179.626V154.214C811.314 153.858 811.98 153.498 812.662 153.13L812.666 153.128L812.667 153.127L812.675 153.123L812.678 153.121L812.678 153.121C815.509 151.591 818.61 149.916 821.259 147.784C824.773 144.955 827.618 141.235 828.278 135.79C828.407 134.883 828.521 134.014 828.62 133.165ZM1153.92 112.697H1168.93V83.2512H810.674V112.697H827.287L827.287 112.697L1153.92 112.697ZM809.674 81.2515L809.674 81.2512H1169.93V81.2515H1178V16.7414C1025.64 -3.61303 942.94 -2.20223 800 16.7424V81.2515H809.674ZM809.629 181.58L809.651 181.082H800V338.307H809.674H809.727L809.78 338.313C957.503 354.051 1036.31 354.06 1169.81 338.314L1169.87 338.307H1169.93H1178V181.082H1171.55L1171.58 181.58C1030.23 188.485 950.97 187.984 809.629 181.58Z" fill="#344F10"/>
<path d="M638.546 53.0017L633.954 47.9137V53.0017H632.498V41.8497H633.954V47.0177L638.562 41.8497H640.402L635.346 47.4337L640.45 53.0017H638.546ZM641.532 48.5857C641.532 47.6897 641.713 46.9057 642.076 46.2337C642.438 45.551 642.934 45.023 643.564 44.6497C644.204 44.2764 644.913 44.0897 645.692 44.0897C646.46 44.0897 647.126 44.255 647.692 44.5857C648.257 44.9164 648.678 45.3324 648.956 45.8337V44.2337H650.428V53.0017H648.956V51.3697C648.668 51.8817 648.236 52.3084 647.66 52.6497C647.094 52.9804 646.433 53.1457 645.676 53.1457C644.897 53.1457 644.193 52.9537 643.564 52.5697C642.934 52.1857 642.438 51.647 642.076 50.9537C641.713 50.2604 641.532 49.471 641.532 48.5857ZM648.956 48.6017C648.956 47.9404 648.822 47.3644 648.556 46.8737C648.289 46.383 647.926 46.0097 647.468 45.7537C647.02 45.487 646.524 45.3537 645.98 45.3537C645.436 45.3537 644.94 45.4817 644.492 45.7377C644.044 45.9937 643.686 46.367 643.42 46.8577C643.153 47.3484 643.02 47.9244 643.02 48.5857C643.02 49.2577 643.153 49.8444 643.42 50.3457C643.686 50.8364 644.044 51.215 644.492 51.4817C644.94 51.7377 645.436 51.8657 645.98 51.8657C646.524 51.8657 647.02 51.7377 647.468 51.4817C647.926 51.215 648.289 50.8364 648.556 50.3457C648.822 49.8444 648.956 49.263 648.956 48.6017ZM656.712 53.1457C655.891 53.1457 655.144 52.959 654.472 52.5857C653.811 52.2124 653.288 51.6844 652.904 51.0017C652.531 50.3084 652.344 49.5084 652.344 48.6017C652.344 47.7057 652.536 46.9164 652.92 46.2337C653.315 45.5404 653.848 45.0124 654.52 44.6497C655.192 44.2764 655.944 44.0897 656.776 44.0897C657.608 44.0897 658.36 44.2764 659.032 44.6497C659.704 45.0124 660.232 45.535 660.616 46.2177C661.011 46.9004 661.208 47.695 661.208 48.6017C661.208 49.5084 661.006 50.3084 660.6 51.0017C660.206 51.6844 659.667 52.2124 658.984 52.5857C658.302 52.959 657.544 53.1457 656.712 53.1457ZM656.712 51.8657C657.235 51.8657 657.726 51.743 658.184 51.4977C658.643 51.2524 659.011 50.8844 659.288 50.3937C659.576 49.903 659.72 49.3057 659.72 48.6017C659.72 47.8977 659.582 47.3004 659.304 46.8097C659.027 46.319 658.664 45.9564 658.216 45.7217C657.768 45.4764 657.283 45.3537 656.76 45.3537C656.227 45.3537 655.736 45.4764 655.288 45.7217C654.851 45.9564 654.499 46.319 654.232 46.8097C653.966 47.3004 653.832 47.8977 653.832 48.6017C653.832 49.3164 653.96 49.919 654.216 50.4097C654.483 50.9004 654.835 51.2684 655.272 51.5137C655.71 51.7484 656.19 51.8657 656.712 51.8657ZM664.579 41.1617V53.0017H663.123V41.1617H664.579ZM667.812 42.8097C667.535 42.8097 667.3 42.7137 667.108 42.5217C666.916 42.3297 666.82 42.095 666.82 41.8177C666.82 41.5404 666.916 41.3057 667.108 41.1137C667.3 40.9217 667.535 40.8257 667.812 40.8257C668.079 40.8257 668.303 40.9217 668.484 41.1137C668.676 41.3057 668.772 41.5404 668.772 41.8177C668.772 42.095 668.676 42.3297 668.484 42.5217C668.303 42.7137 668.079 42.8097 667.812 42.8097ZM668.516 44.2337V53.0017H667.06V44.2337H668.516ZM675.27 44.0737C676.336 44.0737 677.2 44.399 677.862 45.0497C678.523 45.6897 678.854 46.6177 678.854 47.8337V53.0017H677.414V48.0417C677.414 47.167 677.195 46.5004 676.758 46.0417C676.32 45.5724 675.723 45.3377 674.966 45.3377C674.198 45.3377 673.584 45.5777 673.126 46.0577C672.678 46.5377 672.454 47.2364 672.454 48.1537V53.0017H670.998V44.2337H672.454V45.4817C672.742 45.0337 673.131 44.687 673.622 44.4417C674.123 44.1964 674.672 44.0737 675.27 44.0737Z" fill="#333333"/>
<path d="M573.393 129.114C572.657 129.114 571.996 128.986 571.409 128.73C570.833 128.463 570.38 128.1 570.049 127.642C569.718 127.172 569.548 126.634 569.537 126.026H571.089C571.142 126.548 571.356 126.991 571.729 127.354C572.113 127.706 572.668 127.882 573.393 127.882C574.086 127.882 574.63 127.711 575.025 127.37C575.43 127.018 575.633 126.57 575.633 126.026C575.633 125.599 575.516 125.252 575.281 124.986C575.046 124.719 574.753 124.516 574.401 124.378C574.049 124.239 573.574 124.09 572.977 123.93C572.241 123.738 571.649 123.546 571.201 123.354C570.764 123.162 570.385 122.863 570.065 122.458C569.756 122.042 569.601 121.487 569.601 120.794C569.601 120.186 569.756 119.647 570.065 119.178C570.374 118.708 570.806 118.346 571.361 118.09C571.926 117.834 572.572 117.706 573.297 117.706C574.342 117.706 575.196 117.967 575.857 118.49C576.529 119.012 576.908 119.706 576.993 120.57H575.393C575.34 120.143 575.116 119.77 574.721 119.45C574.326 119.119 573.804 118.954 573.153 118.954C572.545 118.954 572.049 119.114 571.665 119.434C571.281 119.743 571.089 120.18 571.089 120.746C571.089 121.151 571.201 121.482 571.425 121.738C571.66 121.994 571.942 122.191 572.273 122.33C572.614 122.458 573.089 122.607 573.697 122.778C574.433 122.98 575.025 123.183 575.473 123.386C575.921 123.578 576.305 123.882 576.625 124.298C576.945 124.703 577.105 125.258 577.105 125.962C577.105 126.506 576.961 127.018 576.673 127.498C576.385 127.978 575.958 128.367 575.393 128.666C574.828 128.964 574.161 129.114 573.393 129.114ZM580 118.81C579.722 118.81 579.488 118.714 579.296 118.522C579.104 118.33 579.008 118.095 579.008 117.818C579.008 117.54 579.104 117.306 579.296 117.114C579.488 116.922 579.722 116.826 580 116.826C580.266 116.826 580.49 116.922 580.672 117.114C580.864 117.306 580.96 117.54 580.96 117.818C580.96 118.095 580.864 118.33 580.672 118.522C580.49 118.714 580.266 118.81 580 118.81ZM580.704 120.234V129.002H579.248V120.234H580.704ZM586.449 127.658L589.169 120.234H590.721L587.281 129.002H585.585L582.145 120.234H583.713L586.449 127.658ZM591.61 124.586C591.61 123.69 591.791 122.906 592.154 122.234C592.517 121.551 593.013 121.023 593.642 120.65C594.282 120.276 594.991 120.09 595.77 120.09C596.538 120.09 597.205 120.255 597.77 120.586C598.335 120.916 598.757 121.332 599.034 121.834V120.234H600.506V129.002H599.034V127.37C598.746 127.882 598.314 128.308 597.738 128.65C597.173 128.98 596.511 129.146 595.754 129.146C594.975 129.146 594.271 128.954 593.642 128.57C593.013 128.186 592.517 127.647 592.154 126.954C591.791 126.26 591.61 125.471 591.61 124.586ZM599.034 124.602C599.034 123.94 598.901 123.364 598.634 122.874C598.367 122.383 598.005 122.01 597.546 121.754C597.098 121.487 596.602 121.354 596.058 121.354C595.514 121.354 595.018 121.482 594.57 121.738C594.122 121.994 593.765 122.367 593.498 122.858C593.231 123.348 593.098 123.924 593.098 124.586C593.098 125.258 593.231 125.844 593.498 126.346C593.765 126.836 594.122 127.215 594.57 127.482C595.018 127.738 595.514 127.866 596.058 127.866C596.602 127.866 597.098 127.738 597.546 127.482C598.005 127.215 598.367 126.836 598.634 126.346C598.901 125.844 599.034 125.263 599.034 124.602ZM607.862 129.002L604.422 125.13V129.002H602.966V117.162H604.422V124.122L607.798 120.234H609.83L605.702 124.602L609.846 129.002H607.862ZM619.21 131.978C618.186 130.975 617.386 129.7 616.81 128.154C616.245 126.607 615.962 124.938 615.962 123.146C615.962 121.311 616.261 119.599 616.858 118.01C617.466 116.41 618.33 115.092 619.45 114.058H620.97V114.202C619.776 115.322 618.874 116.671 618.266 118.25C617.669 119.818 617.37 121.45 617.37 123.146C617.37 124.799 617.653 126.378 618.218 127.882C618.794 129.386 619.632 130.703 620.73 131.834V131.978H619.21ZM630.188 121.114C630.188 122.042 629.868 122.815 629.228 123.434C628.599 124.042 627.633 124.346 626.332 124.346H624.188V129.002H622.732V117.85H626.332C627.591 117.85 628.545 118.154 629.196 118.762C629.857 119.37 630.188 120.154 630.188 121.114ZM626.332 123.146C627.143 123.146 627.74 122.97 628.124 122.618C628.508 122.266 628.7 121.764 628.7 121.114C628.7 119.738 627.911 119.05 626.332 119.05H624.188V123.146H626.332ZM639.998 124.282C639.998 124.559 639.982 124.852 639.95 125.162H632.942C632.995 126.026 633.288 126.703 633.822 127.194C634.366 127.674 635.022 127.914 635.79 127.914C636.419 127.914 636.942 127.77 637.358 127.482C637.784 127.183 638.083 126.788 638.254 126.298H639.822C639.587 127.14 639.118 127.828 638.414 128.362C637.71 128.884 636.835 129.146 635.79 129.146C634.958 129.146 634.211 128.959 633.55 128.586C632.899 128.212 632.387 127.684 632.014 127.002C631.64 126.308 631.454 125.508 631.454 124.602C631.454 123.695 631.635 122.9 631.998 122.218C632.36 121.535 632.867 121.012 633.518 120.65C634.179 120.276 634.936 120.09 635.79 120.09C636.622 120.09 637.358 120.271 637.998 120.634C638.638 120.996 639.128 121.498 639.47 122.138C639.822 122.767 639.998 123.482 639.998 124.282ZM638.494 123.978C638.494 123.423 638.371 122.948 638.126 122.554C637.88 122.148 637.544 121.844 637.118 121.642C636.702 121.428 636.238 121.322 635.726 121.322C634.99 121.322 634.36 121.556 633.838 122.026C633.326 122.495 633.032 123.146 632.958 123.978H638.494ZM643.376 121.658C643.632 121.156 643.994 120.767 644.464 120.49C644.944 120.212 645.525 120.074 646.208 120.074V121.578H645.824C644.192 121.578 643.376 122.463 643.376 124.234V129.002H641.92V120.234H643.376V121.658ZM650.992 129.146C650.32 129.146 649.718 129.034 649.184 128.81C648.651 128.575 648.23 128.255 647.92 127.85C647.611 127.434 647.44 126.959 647.408 126.426H648.912C648.955 126.863 649.158 127.22 649.52 127.498C649.894 127.775 650.379 127.914 650.976 127.914C651.531 127.914 651.968 127.791 652.288 127.546C652.608 127.3 652.768 126.991 652.768 126.618C652.768 126.234 652.598 125.951 652.256 125.77C651.915 125.578 651.387 125.391 650.672 125.21C650.022 125.039 649.488 124.868 649.072 124.698C648.667 124.516 648.315 124.255 648.016 123.914C647.728 123.562 647.584 123.103 647.584 122.538C647.584 122.09 647.718 121.679 647.984 121.306C648.251 120.932 648.63 120.639 649.12 120.426C649.611 120.202 650.171 120.09 650.8 120.09C651.771 120.09 652.555 120.335 653.152 120.826C653.75 121.316 654.07 121.988 654.112 122.842H652.656C652.624 122.383 652.438 122.015 652.096 121.738C651.766 121.46 651.318 121.322 650.752 121.322C650.23 121.322 649.814 121.434 649.504 121.658C649.195 121.882 649.04 122.175 649.04 122.538C649.04 122.826 649.131 123.066 649.312 123.258C649.504 123.439 649.739 123.588 650.016 123.706C650.304 123.812 650.699 123.935 651.2 124.074C651.83 124.244 652.342 124.415 652.736 124.586C653.131 124.746 653.467 124.991 653.744 125.322C654.032 125.652 654.182 126.084 654.192 126.618C654.192 127.098 654.059 127.53 653.792 127.914C653.526 128.298 653.147 128.602 652.656 128.826C652.176 129.039 651.622 129.146 650.992 129.146ZM657 118.81C656.722 118.81 656.488 118.714 656.296 118.522C656.104 118.33 656.008 118.095 656.008 117.818C656.008 117.54 656.104 117.306 656.296 117.114C656.488 116.922 656.722 116.826 657 116.826C657.266 116.826 657.49 116.922 657.672 117.114C657.864 117.306 657.96 117.54 657.96 117.818C657.96 118.095 657.864 118.33 657.672 118.522C657.49 118.714 657.266 118.81 657 118.81ZM657.704 120.234V129.002H656.248V120.234H657.704ZM659.641 124.586C659.641 123.69 659.822 122.906 660.185 122.234C660.548 121.551 661.044 121.023 661.673 120.65C662.313 120.276 663.022 120.09 663.801 120.09C664.569 120.09 665.236 120.255 665.801 120.586C666.366 120.916 666.788 121.332 667.065 121.834V120.234H668.537V129.002H667.065V127.37C666.777 127.882 666.345 128.308 665.769 128.65C665.204 128.98 664.542 129.146 663.785 129.146C663.006 129.146 662.302 128.954 661.673 128.57C661.044 128.186 660.548 127.647 660.185 126.954C659.822 126.26 659.641 125.471 659.641 124.586ZM667.065 124.602C667.065 123.94 666.932 123.364 666.665 122.874C666.398 122.383 666.036 122.01 665.577 121.754C665.129 121.487 664.633 121.354 664.089 121.354C663.545 121.354 663.049 121.482 662.601 121.738C662.153 121.994 661.796 122.367 661.529 122.858C661.262 123.348 661.129 123.924 661.129 124.586C661.129 125.258 661.262 125.844 661.529 126.346C661.796 126.836 662.153 127.215 662.601 127.482C663.049 127.738 663.545 127.866 664.089 127.866C664.633 127.866 665.129 127.738 665.577 127.482C666.036 127.215 666.398 126.836 666.665 126.346C666.932 125.844 667.065 125.263 667.065 124.602ZM675.27 120.074C676.336 120.074 677.2 120.399 677.862 121.05C678.523 121.69 678.854 122.618 678.854 123.834V129.002H677.414V124.042C677.414 123.167 677.195 122.5 676.758 122.042C676.32 121.572 675.723 121.338 674.966 121.338C674.198 121.338 673.584 121.578 673.126 122.058C672.678 122.538 672.454 123.236 672.454 124.154V129.002H670.998V120.234H672.454V121.482C672.742 121.034 673.131 120.687 673.622 120.442C674.123 120.196 674.672 120.074 675.27 120.074ZM607.164 153.146C606.492 153.146 605.889 153.034 605.356 152.81C604.823 152.575 604.401 152.255 604.092 151.85C603.783 151.434 603.612 150.959 603.58 150.426H605.084C605.127 150.863 605.329 151.22 605.692 151.498C606.065 151.775 606.551 151.914 607.148 151.914C607.703 151.914 608.14 151.791 608.46 151.546C608.78 151.3 608.94 150.991 608.94 150.618C608.94 150.234 608.769 149.951 608.428 149.77C608.087 149.578 607.559 149.391 606.844 149.21C606.193 149.039 605.66 148.868 605.244 148.698C604.839 148.516 604.487 148.255 604.188 147.914C603.9 147.562 603.756 147.103 603.756 146.538C603.756 146.09 603.889 145.679 604.156 145.306C604.423 144.932 604.801 144.639 605.292 144.426C605.783 144.202 606.343 144.09 606.972 144.09C607.943 144.09 608.727 144.335 609.324 144.826C609.921 145.316 610.241 145.988 610.284 146.842H608.828C608.796 146.383 608.609 146.015 608.268 145.738C607.937 145.46 607.489 145.322 606.924 145.322C606.401 145.322 605.985 145.434 605.676 145.658C605.367 145.882 605.212 146.175 605.212 146.538C605.212 146.826 605.303 147.066 605.484 147.258C605.676 147.439 605.911 147.588 606.188 147.706C606.476 147.812 606.871 147.935 607.372 148.074C608.001 148.244 608.513 148.415 608.908 148.586C609.303 148.746 609.639 148.991 609.916 149.322C610.204 149.652 610.353 150.084 610.364 150.618C610.364 151.098 610.231 151.53 609.964 151.914C609.697 152.298 609.319 152.602 608.828 152.826C608.348 153.039 607.793 153.146 607.164 153.146ZM611.876 148.586C611.876 147.69 612.057 146.906 612.42 146.234C612.782 145.551 613.278 145.023 613.908 144.65C614.548 144.276 615.257 144.09 616.036 144.09C616.804 144.09 617.47 144.255 618.036 144.586C618.601 144.916 619.022 145.332 619.3 145.834V144.234H620.772V153.002H619.3V151.37C619.012 151.882 618.58 152.308 618.004 152.65C617.438 152.98 616.777 153.146 616.02 153.146C615.241 153.146 614.537 152.954 613.908 152.57C613.278 152.186 612.782 151.647 612.42 150.954C612.057 150.26 611.876 149.471 611.876 148.586ZM619.3 148.602C619.3 147.94 619.166 147.364 618.9 146.874C618.633 146.383 618.27 146.01 617.812 145.754C617.364 145.487 616.868 145.354 616.324 145.354C615.78 145.354 615.284 145.482 614.836 145.738C614.388 145.994 614.03 146.367 613.764 146.858C613.497 147.348 613.364 147.924 613.364 148.586C613.364 149.258 613.497 149.844 613.764 150.346C614.03 150.836 614.388 151.215 614.836 151.482C615.284 151.738 615.78 151.866 616.324 151.866C616.868 151.866 617.364 151.738 617.812 151.482C618.27 151.215 618.633 150.836 618.9 150.346C619.166 149.844 619.3 149.263 619.3 148.602ZM624.688 141.162V153.002H623.232V141.162H624.688ZM630.434 151.658L633.154 144.234H634.706L631.266 153.002H629.57L626.13 144.234H627.698L630.434 151.658ZM635.594 148.586C635.594 147.69 635.776 146.906 636.138 146.234C636.501 145.551 636.997 145.023 637.626 144.65C638.266 144.276 638.976 144.09 639.754 144.09C640.522 144.09 641.189 144.255 641.754 144.586C642.32 144.916 642.741 145.332 643.018 145.834V144.234H644.49V153.002H643.018V151.37C642.73 151.882 642.298 152.308 641.722 152.65C641.157 152.98 640.496 153.146 639.738 153.146C638.96 153.146 638.256 152.954 637.626 152.57C636.997 152.186 636.501 151.647 636.138 150.954C635.776 150.26 635.594 149.471 635.594 148.586ZM643.018 148.602C643.018 147.94 642.885 147.364 642.618 146.874C642.352 146.383 641.989 146.01 641.53 145.754C641.082 145.487 640.586 145.354 640.042 145.354C639.498 145.354 639.002 145.482 638.554 145.738C638.106 145.994 637.749 146.367 637.482 146.858C637.216 147.348 637.082 147.924 637.082 148.586C637.082 149.258 637.216 149.844 637.482 150.346C637.749 150.836 638.106 151.215 638.554 151.482C639.002 151.738 639.498 151.866 640.042 151.866C640.586 151.866 641.082 151.738 641.53 151.482C641.989 151.215 642.352 150.836 642.618 150.346C642.885 149.844 643.018 149.263 643.018 148.602ZM646.407 148.586C646.407 147.69 646.588 146.906 646.951 146.234C647.313 145.551 647.809 145.023 648.439 144.65C649.079 144.276 649.793 144.09 650.583 144.09C651.265 144.09 651.9 144.25 652.487 144.57C653.073 144.879 653.521 145.29 653.831 145.802V141.162H655.303V153.002H653.831V151.354C653.543 151.876 653.116 152.308 652.551 152.65C651.985 152.98 651.324 153.146 650.567 153.146C649.788 153.146 649.079 152.954 648.439 152.57C647.809 152.186 647.313 151.647 646.951 150.954C646.588 150.26 646.407 149.471 646.407 148.586ZM653.831 148.602C653.831 147.94 653.697 147.364 653.431 146.874C653.164 146.383 652.801 146.01 652.343 145.754C651.895 145.487 651.399 145.354 650.855 145.354C650.311 145.354 649.815 145.482 649.367 145.738C648.919 145.994 648.561 146.367 648.295 146.858C648.028 147.348 647.895 147.924 647.895 148.586C647.895 149.258 648.028 149.844 648.295 150.346C648.561 150.836 648.919 151.215 649.367 151.482C649.815 151.738 650.311 151.866 650.855 151.866C651.399 151.866 651.895 151.738 652.343 151.482C652.801 151.215 653.164 150.836 653.431 150.346C653.697 149.844 653.831 149.263 653.831 148.602ZM661.587 153.146C660.766 153.146 660.019 152.959 659.347 152.586C658.686 152.212 658.163 151.684 657.779 151.002C657.406 150.308 657.219 149.508 657.219 148.602C657.219 147.706 657.411 146.916 657.795 146.234C658.19 145.54 658.723 145.012 659.395 144.65C660.067 144.276 660.819 144.09 661.651 144.09C662.483 144.09 663.235 144.276 663.907 144.65C664.579 145.012 665.107 145.535 665.491 146.218C665.886 146.9 666.083 147.695 666.083 148.602C666.083 149.508 665.881 150.308 665.475 151.002C665.081 151.684 664.542 152.212 663.859 152.586C663.177 152.959 662.419 153.146 661.587 153.146ZM661.587 151.866C662.11 151.866 662.601 151.743 663.059 151.498C663.518 151.252 663.886 150.884 664.163 150.394C664.451 149.903 664.595 149.306 664.595 148.602C664.595 147.898 664.457 147.3 664.179 146.81C663.902 146.319 663.539 145.956 663.091 145.722C662.643 145.476 662.158 145.354 661.635 145.354C661.102 145.354 660.611 145.476 660.163 145.722C659.726 145.956 659.374 146.319 659.107 146.81C658.841 147.3 658.707 147.898 658.707 148.602C658.707 149.316 658.835 149.919 659.091 150.41C659.358 150.9 659.71 151.268 660.147 151.514C660.585 151.748 661.065 151.866 661.587 151.866ZM669.454 145.658C669.71 145.156 670.072 144.767 670.542 144.49C671.022 144.212 671.603 144.074 672.286 144.074V145.578H671.902C670.27 145.578 669.454 146.463 669.454 148.234V153.002H667.998V144.234H669.454V145.658ZM673.502 155.978V155.834C674.601 154.703 675.433 153.386 675.998 151.882C676.574 150.378 676.862 148.799 676.862 147.146C676.862 145.45 676.558 143.818 675.95 142.25C675.353 140.671 674.457 139.322 673.262 138.202V138.058H674.782C675.902 139.092 676.761 140.41 677.358 142.01C677.966 143.599 678.27 145.311 678.27 147.146C678.27 148.938 677.982 150.607 677.406 152.154C676.841 153.7 676.046 154.975 675.022 155.978H673.502Z" fill="#333333"/>
<path d="M524.594 196.418C524.594 195.33 524.84 194.354 525.33 193.49C525.821 192.615 526.488 191.932 527.33 191.442C528.184 190.951 529.128 190.706 530.162 190.706C531.378 190.706 532.44 190.999 533.346 191.586C534.253 192.172 534.914 193.004 535.33 194.082H533.586C533.277 193.41 532.829 192.892 532.242 192.53C531.666 192.167 530.973 191.986 530.162 191.986C529.384 191.986 528.685 192.167 528.066 192.53C527.448 192.892 526.962 193.41 526.61 194.082C526.258 194.743 526.082 195.522 526.082 196.418C526.082 197.303 526.258 198.082 526.61 198.754C526.962 199.415 527.448 199.927 528.066 200.29C528.685 200.652 529.384 200.834 530.162 200.834C530.973 200.834 531.666 200.658 532.242 200.306C532.829 199.943 533.277 199.426 533.586 198.754H535.33C534.914 199.82 534.253 200.647 533.346 201.234C532.44 201.81 531.378 202.098 530.162 202.098C529.128 202.098 528.184 201.858 527.33 201.378C526.488 200.887 525.821 200.21 525.33 199.346C524.84 198.482 524.594 197.506 524.594 196.418ZM536.954 197.586C536.954 196.69 537.135 195.906 537.498 195.234C537.86 194.551 538.356 194.023 538.986 193.65C539.626 193.276 540.335 193.09 541.114 193.09C541.882 193.09 542.548 193.255 543.114 193.586C543.679 193.916 544.1 194.332 544.378 194.834V193.234H545.85V202.002H544.378V200.37C544.09 200.882 543.658 201.308 543.082 201.65C542.516 201.98 541.855 202.146 541.098 202.146C540.319 202.146 539.615 201.954 538.986 201.57C538.356 201.186 537.86 200.647 537.498 199.954C537.135 199.26 536.954 198.471 536.954 197.586ZM544.378 197.602C544.378 196.94 544.244 196.364 543.978 195.874C543.711 195.383 543.348 195.01 542.89 194.754C542.442 194.487 541.946 194.354 541.402 194.354C540.858 194.354 540.362 194.482 539.914 194.738C539.466 194.994 539.108 195.367 538.842 195.858C538.575 196.348 538.442 196.924 538.442 197.586C538.442 198.258 538.575 198.844 538.842 199.346C539.108 199.836 539.466 200.215 539.914 200.482C540.362 200.738 540.858 200.866 541.402 200.866C541.946 200.866 542.442 200.738 542.89 200.482C543.348 200.215 543.711 199.836 543.978 199.346C544.244 198.844 544.378 198.263 544.378 197.602ZM549.766 190.162V202.002H548.31V190.162H549.766ZM551.704 197.602C551.704 196.695 551.885 195.906 552.248 195.234C552.61 194.551 553.112 194.023 553.752 193.65C554.402 193.276 555.144 193.09 555.976 193.09C557.053 193.09 557.938 193.351 558.632 193.874C559.336 194.396 559.8 195.122 560.024 196.05H558.456C558.306 195.516 558.013 195.095 557.576 194.786C557.149 194.476 556.616 194.322 555.976 194.322C555.144 194.322 554.472 194.61 553.96 195.186C553.448 195.751 553.192 196.556 553.192 197.602C553.192 198.658 553.448 199.474 553.96 200.05C554.472 200.626 555.144 200.914 555.976 200.914C556.616 200.914 557.149 200.764 557.576 200.466C558.002 200.167 558.296 199.74 558.456 199.186H560.024C559.789 200.082 559.32 200.802 558.616 201.346C557.912 201.879 557.032 202.146 555.976 202.146C555.144 202.146 554.402 201.959 553.752 201.586C553.112 201.212 552.61 200.684 552.248 200.002C551.885 199.319 551.704 198.519 551.704 197.602ZM562.718 191.81C562.441 191.81 562.206 191.714 562.014 191.522C561.822 191.33 561.726 191.095 561.726 190.818C561.726 190.54 561.822 190.306 562.014 190.114C562.206 189.922 562.441 189.826 562.718 189.826C562.985 189.826 563.209 189.922 563.39 190.114C563.582 190.306 563.678 190.54 563.678 190.818C563.678 191.095 563.582 191.33 563.39 191.522C563.209 191.714 562.985 191.81 562.718 191.81ZM563.422 193.234V202.002H561.966V193.234H563.422ZM573.68 193.234V202.002H572.224V200.706C571.947 201.154 571.557 201.506 571.056 201.762C570.565 202.007 570.021 202.13 569.424 202.13C568.741 202.13 568.128 201.991 567.584 201.714C567.04 201.426 566.608 200.999 566.288 200.434C565.979 199.868 565.824 199.18 565.824 198.37V193.234H567.264V198.178C567.264 199.042 567.483 199.708 567.92 200.178C568.357 200.636 568.955 200.866 569.712 200.866C570.491 200.866 571.104 200.626 571.552 200.146C572 199.666 572.224 198.967 572.224 198.05V193.234H573.68ZM586.682 193.074C587.365 193.074 587.973 193.218 588.506 193.506C589.04 193.783 589.461 194.204 589.77 194.77C590.08 195.335 590.234 196.023 590.234 196.834V202.002H588.794V197.042C588.794 196.167 588.576 195.5 588.138 195.042C587.712 194.572 587.13 194.338 586.394 194.338C585.637 194.338 585.034 194.583 584.586 195.074C584.138 195.554 583.914 196.252 583.914 197.17V202.002H582.474V197.042C582.474 196.167 582.256 195.5 581.818 195.042C581.392 194.572 580.81 194.338 580.074 194.338C579.317 194.338 578.714 194.583 578.266 195.074C577.818 195.554 577.594 196.252 577.594 197.17V202.002H576.138V193.234H577.594V194.498C577.882 194.039 578.266 193.687 578.746 193.442C579.237 193.196 579.776 193.074 580.362 193.074C581.098 193.074 581.749 193.239 582.314 193.57C582.88 193.9 583.301 194.386 583.578 195.026C583.824 194.407 584.229 193.927 584.794 193.586C585.36 193.244 585.989 193.074 586.682 193.074ZM596.344 197.602C596.344 196.695 596.526 195.906 596.888 195.234C597.251 194.551 597.752 194.023 598.392 193.65C599.043 193.276 599.784 193.09 600.616 193.09C601.694 193.09 602.579 193.351 603.272 193.874C603.976 194.396 604.44 195.122 604.664 196.05H603.096C602.947 195.516 602.654 195.095 602.216 194.786C601.79 194.476 601.256 194.322 600.616 194.322C599.784 194.322 599.112 194.61 598.6 195.186C598.088 195.751 597.832 196.556 597.832 197.602C597.832 198.658 598.088 199.474 598.6 200.05C599.112 200.626 599.784 200.914 600.616 200.914C601.256 200.914 601.79 200.764 602.216 200.466C602.643 200.167 602.936 199.74 603.096 199.186H604.664C604.43 200.082 603.96 200.802 603.256 201.346C602.552 201.879 601.672 202.146 600.616 202.146C599.784 202.146 599.043 201.959 598.392 201.586C597.752 201.212 597.251 200.684 596.888 200.002C596.526 199.319 596.344 198.519 596.344 197.602ZM606.063 197.586C606.063 196.69 606.244 195.906 606.607 195.234C606.97 194.551 607.466 194.023 608.095 193.65C608.735 193.276 609.444 193.09 610.223 193.09C610.991 193.09 611.658 193.255 612.223 193.586C612.788 193.916 613.21 194.332 613.487 194.834V193.234H614.959V202.002H613.487V200.37C613.199 200.882 612.767 201.308 612.191 201.65C611.626 201.98 610.964 202.146 610.207 202.146C609.428 202.146 608.724 201.954 608.095 201.57C607.466 201.186 606.97 200.647 606.607 199.954C606.244 199.26 606.063 198.471 606.063 197.586ZM613.487 197.602C613.487 196.94 613.354 196.364 613.087 195.874C612.82 195.383 612.458 195.01 611.999 194.754C611.551 194.487 611.055 194.354 610.511 194.354C609.967 194.354 609.471 194.482 609.023 194.738C608.575 194.994 608.218 195.367 607.951 195.858C607.684 196.348 607.551 196.924 607.551 197.586C607.551 198.258 607.684 198.844 607.951 199.346C608.218 199.836 608.575 200.215 609.023 200.482C609.471 200.738 609.967 200.866 610.511 200.866C611.055 200.866 611.551 200.738 611.999 200.482C612.458 200.215 612.82 199.836 613.087 199.346C613.354 198.844 613.487 198.263 613.487 197.602ZM618.876 194.658C619.132 194.156 619.494 193.767 619.964 193.49C620.444 193.212 621.025 193.074 621.708 193.074V194.578H621.324C619.692 194.578 618.876 195.463 618.876 197.234V202.002H617.42V193.234H618.876V194.658ZM624.844 194.866C625.143 194.343 625.58 193.916 626.156 193.586C626.732 193.255 627.388 193.09 628.124 193.09C628.914 193.09 629.623 193.276 630.252 193.65C630.882 194.023 631.378 194.551 631.74 195.234C632.103 195.906 632.284 196.69 632.284 197.586C632.284 198.471 632.103 199.26 631.74 199.954C631.378 200.647 630.876 201.186 630.236 201.57C629.607 201.954 628.903 202.146 628.124 202.146C627.367 202.146 626.7 201.98 626.124 201.65C625.559 201.319 625.132 200.898 624.844 200.386V202.002H623.388V190.162H624.844V194.866ZM630.796 197.586C630.796 196.924 630.663 196.348 630.396 195.858C630.13 195.367 629.767 194.994 629.308 194.738C628.86 194.482 628.364 194.354 627.82 194.354C627.287 194.354 626.791 194.487 626.332 194.754C625.884 195.01 625.522 195.388 625.244 195.89C624.978 196.38 624.844 196.951 624.844 197.602C624.844 198.263 624.978 198.844 625.244 199.346C625.522 199.836 625.884 200.215 626.332 200.482C626.791 200.738 627.287 200.866 627.82 200.866C628.364 200.866 628.86 200.738 629.308 200.482C629.767 200.215 630.13 199.836 630.396 199.346C630.663 198.844 630.796 198.258 630.796 197.586ZM638.025 202.146C637.203 202.146 636.457 201.959 635.785 201.586C635.123 201.212 634.601 200.684 634.217 200.002C633.843 199.308 633.657 198.508 633.657 197.602C633.657 196.706 633.849 195.916 634.233 195.234C634.627 194.54 635.161 194.012 635.833 193.65C636.505 193.276 637.257 193.09 638.089 193.09C638.921 193.09 639.673 193.276 640.345 193.65C641.017 194.012 641.545 194.535 641.929 195.218C642.323 195.9 642.521 196.695 642.521 197.602C642.521 198.508 642.318 199.308 641.913 200.002C641.518 200.684 640.979 201.212 640.297 201.586C639.614 201.959 638.857 202.146 638.025 202.146ZM638.025 200.866C638.547 200.866 639.038 200.743 639.497 200.498C639.955 200.252 640.323 199.884 640.601 199.394C640.889 198.903 641.033 198.306 641.033 197.602C641.033 196.898 640.894 196.3 640.617 195.81C640.339 195.319 639.977 194.956 639.529 194.722C639.081 194.476 638.595 194.354 638.073 194.354C637.539 194.354 637.049 194.476 636.601 194.722C636.163 194.956 635.811 195.319 635.545 195.81C635.278 196.3 635.145 196.898 635.145 197.602C635.145 198.316 635.273 198.919 635.529 199.41C635.795 199.9 636.147 200.268 636.585 200.514C637.022 200.748 637.502 200.866 638.025 200.866ZM648.707 193.074C649.774 193.074 650.638 193.399 651.299 194.05C651.96 194.69 652.291 195.618 652.291 196.834V202.002H650.851V197.042C650.851 196.167 650.632 195.5 650.195 195.042C649.758 194.572 649.16 194.338 648.403 194.338C647.635 194.338 647.022 194.578 646.563 195.058C646.115 195.538 645.891 196.236 645.891 197.154V202.002H644.435V193.234H645.891V194.482C646.179 194.034 646.568 193.687 647.059 193.442C647.56 193.196 648.11 193.074 648.707 193.074ZM654.126 197.586C654.126 196.69 654.307 195.906 654.67 195.234C655.032 194.551 655.528 194.023 656.158 193.65C656.798 193.276 657.507 193.09 658.286 193.09C659.054 193.09 659.72 193.255 660.286 193.586C660.851 193.916 661.272 194.332 661.55 194.834V193.234H663.022V202.002H661.55V200.37C661.262 200.882 660.83 201.308 660.254 201.65C659.688 201.98 659.027 202.146 658.27 202.146C657.491 202.146 656.787 201.954 656.158 201.57C655.528 201.186 655.032 200.647 654.67 199.954C654.307 199.26 654.126 198.471 654.126 197.586ZM661.55 197.602C661.55 196.94 661.416 196.364 661.15 195.874C660.883 195.383 660.52 195.01 660.062 194.754C659.614 194.487 659.118 194.354 658.574 194.354C658.03 194.354 657.534 194.482 657.086 194.738C656.638 194.994 656.28 195.367 656.014 195.858C655.747 196.348 655.614 196.924 655.614 197.586C655.614 198.258 655.747 198.844 656.014 199.346C656.28 199.836 656.638 200.215 657.086 200.482C657.534 200.738 658.03 200.866 658.574 200.866C659.118 200.866 659.614 200.738 660.062 200.482C660.52 200.215 660.883 199.836 661.15 199.346C661.416 198.844 661.55 198.263 661.55 197.602ZM667.258 194.434V199.602C667.258 200.028 667.349 200.332 667.53 200.514C667.711 200.684 668.026 200.77 668.474 200.77H669.546V202.002H668.234C667.423 202.002 666.815 201.815 666.41 201.442C666.005 201.068 665.802 200.455 665.802 199.602V194.434H664.666V193.234H665.802V191.026H667.258V193.234H669.546V194.434H667.258ZM679.31 197.282C679.31 197.559 679.294 197.852 679.262 198.162H672.254C672.307 199.026 672.601 199.703 673.134 200.194C673.678 200.674 674.334 200.914 675.102 200.914C675.731 200.914 676.254 200.77 676.67 200.482C677.097 200.183 677.395 199.788 677.566 199.298H679.134C678.899 200.14 678.43 200.828 677.726 201.362C677.022 201.884 676.147 202.146 675.102 202.146C674.27 202.146 673.523 201.959 672.862 201.586C672.211 201.212 671.699 200.684 671.326 200.002C670.953 199.308 670.766 198.508 670.766 197.602C670.766 196.695 670.947 195.9 671.31 195.218C671.673 194.535 672.179 194.012 672.83 193.65C673.491 193.276 674.249 193.09 675.102 193.09C675.934 193.09 676.67 193.271 677.31 193.634C677.95 193.996 678.441 194.498 678.782 195.138C679.134 195.767 679.31 196.482 679.31 197.282ZM677.806 196.978C677.806 196.423 677.683 195.948 677.438 195.554C677.193 195.148 676.857 194.844 676.43 194.642C676.014 194.428 675.55 194.322 675.038 194.322C674.302 194.322 673.673 194.556 673.15 195.026C672.638 195.495 672.345 196.146 672.27 196.978H677.806Z" fill="#333333"/>
<path d="M117.892 28.2137H107.884L106.228 33.0017H100.936L109.972 7.83771H115.84L124.876 33.0017H119.548L117.892 28.2137ZM116.524 24.1817L112.888 13.6697L109.252 24.1817H116.524ZM150.034 7.87371L141.538 24.2537V33.0017H136.498V24.2537L127.966 7.87371H133.654L139.054 19.3577L144.418 7.87371H150.034ZM159.708 7.87371V23.4257C159.708 25.1297 160.152 26.4377 161.04 27.3497C161.928 28.2377 163.176 28.6817 164.784 28.6817C166.416 28.6817 167.676 28.2377 168.564 27.3497C169.452 26.4377 169.896 25.1297 169.896 23.4257V7.87371H174.972V23.3897C174.972 25.5257 174.504 27.3377 173.568 28.8257C172.656 30.2897 171.42 31.3937 169.86 32.1377C168.324 32.8817 166.608 33.2537 164.712 33.2537C162.84 33.2537 161.136 32.8817 159.6 32.1377C158.088 31.3937 156.888 30.2897 156 28.8257C155.112 27.3377 154.668 25.5257 154.668 23.3897V7.87371H159.708ZM194.602 33.0017L189.058 23.2097H186.682V33.0017H181.642V7.87371H191.074C193.018 7.87371 194.674 8.22171 196.042 8.91771C197.41 9.58971 198.43 10.5137 199.102 11.6897C199.798 12.8417 200.146 14.1377 200.146 15.5777C200.146 17.2337 199.666 18.7337 198.706 20.0777C197.746 21.3977 196.318 22.3097 194.422 22.8137L200.434 33.0017H194.602ZM186.682 19.4297H190.894C192.262 19.4297 193.282 19.1057 193.954 18.4577C194.626 17.7857 194.962 16.8617 194.962 15.6857C194.962 14.5337 194.626 13.6457 193.954 13.0217C193.282 12.3737 192.262 12.0497 190.894 12.0497H186.682V19.4297ZM229.076 7.87371L219.86 33.0017H213.74L204.524 7.87371H209.924L216.836 27.8537L223.712 7.87371H229.076ZM238.938 11.9417V18.2417H247.398V22.2377H238.938V28.8977H248.478V33.0017H233.898V7.83771H248.478V11.9417H238.938ZM263.642 7.87371C266.282 7.87371 268.598 8.38971 270.59 9.42171C272.606 10.4537 274.154 11.9297 275.234 13.8497C276.338 15.7457 276.89 17.9537 276.89 20.4737C276.89 22.9937 276.338 25.2017 275.234 27.0977C274.154 28.9697 272.606 30.4217 270.59 31.4537C268.598 32.4857 266.282 33.0017 263.642 33.0017H254.858V7.87371H263.642ZM263.462 28.7177C266.102 28.7177 268.142 27.9977 269.582 26.5577C271.022 25.1177 271.742 23.0897 271.742 20.4737C271.742 17.8577 271.022 15.8177 269.582 14.3537C268.142 12.8657 266.102 12.1217 263.462 12.1217H259.898V28.7177H263.462ZM287.503 7.87371V33.0017H282.463V7.87371H287.503ZM293.058 20.4017C293.058 17.9297 293.61 15.7217 294.714 13.7777C295.842 11.8097 297.366 10.2857 299.286 9.20571C301.23 8.10171 303.402 7.54971 305.802 7.54971C308.61 7.54971 311.07 8.26971 313.182 9.70971C315.294 11.1497 316.77 13.1417 317.61 15.6857H311.814C311.238 14.4857 310.422 13.5857 309.366 12.9857C308.334 12.3857 307.134 12.0857 305.766 12.0857C304.302 12.0857 302.994 12.4337 301.842 13.1297C300.714 13.8017 299.826 14.7617 299.178 16.0097C298.554 17.2577 298.242 18.7217 298.242 20.4017C298.242 22.0577 298.554 23.5217 299.178 24.7937C299.826 26.0417 300.714 27.0137 301.842 27.7097C302.994 28.3817 304.302 28.7177 305.766 28.7177C307.134 28.7177 308.334 28.4177 309.366 27.8177C310.422 27.1937 311.238 26.2817 311.814 25.0817H317.61C316.77 27.6497 315.294 29.6537 313.182 31.0937C311.094 32.5097 308.634 33.2177 305.802 33.2177C303.402 33.2177 301.23 32.6777 299.286 31.5977C297.366 30.4937 295.842 28.9697 294.714 27.0257C293.61 25.0817 293.058 22.8737 293.058 20.4017ZM351.193 7.87371V11.9417H344.497V33.0017H339.457V11.9417H332.761V7.87371H351.193ZM368.335 33.2537C365.983 33.2537 363.823 32.7017 361.855 31.5977C359.887 30.4937 358.327 28.9697 357.175 27.0257C356.023 25.0577 355.447 22.8377 355.447 20.3657C355.447 17.9177 356.023 15.7217 357.175 13.7777C358.327 11.8097 359.887 10.2737 361.855 9.16971C363.823 8.06571 365.983 7.51371 368.335 7.51371C370.711 7.51371 372.871 8.06571 374.815 9.16971C376.783 10.2737 378.331 11.8097 379.459 13.7777C380.611 15.7217 381.187 17.9177 381.187 20.3657C381.187 22.8377 380.611 25.0577 379.459 27.0257C378.331 28.9697 376.783 30.4937 374.815 31.5977C372.847 32.7017 370.687 33.2537 368.335 33.2537ZM368.335 28.7537C369.847 28.7537 371.179 28.4177 372.331 27.7457C373.483 27.0497 374.383 26.0657 375.031 24.7937C375.679 23.5217 376.003 22.0457 376.003 20.3657C376.003 18.6857 375.679 17.2217 375.031 15.9737C374.383 14.7017 373.483 13.7297 372.331 13.0577C371.179 12.3857 369.847 12.0497 368.335 12.0497C366.823 12.0497 365.479 12.3857 364.303 13.0577C363.151 13.7297 362.251 14.7017 361.603 15.9737C360.955 17.2217 360.631 18.6857 360.631 20.3657C360.631 22.0457 360.955 23.5217 361.603 24.7937C362.251 26.0657 363.151 27.0497 364.303 27.7457C365.479 28.4177 366.823 28.7537 368.335 28.7537ZM398.4 33.2537C396.048 33.2537 393.888 32.7017 391.92 31.5977C389.952 30.4937 388.392 28.9697 387.24 27.0257C386.088 25.0577 385.512 22.8377 385.512 20.3657C385.512 17.9177 386.088 15.7217 387.24 13.7777C388.392 11.8097 389.952 10.2737 391.92 9.16971C393.888 8.06571 396.048 7.51371 398.4 7.51371C400.776 7.51371 402.936 8.06571 404.88 9.16971C406.848 10.2737 408.396 11.8097 409.524 13.7777C410.676 15.7217 411.252 17.9177 411.252 20.3657C411.252 22.8377 410.676 25.0577 409.524 27.0257C408.396 28.9697 406.848 30.4937 404.88 31.5977C402.912 32.7017 400.752 33.2537 398.4 33.2537ZM398.4 28.7537C399.912 28.7537 401.244 28.4177 402.396 27.7457C403.548 27.0497 404.448 26.0657 405.096 24.7937C405.744 23.5217 406.068 22.0457 406.068 20.3657C406.068 18.6857 405.744 17.2217 405.096 15.9737C404.448 14.7017 403.548 13.7297 402.396 13.0577C401.244 12.3857 399.912 12.0497 398.4 12.0497C396.888 12.0497 395.544 12.3857 394.368 13.0577C393.216 13.7297 392.316 14.7017 391.668 15.9737C391.02 17.2217 390.696 18.6857 390.696 20.3657C390.696 22.0457 391.02 23.5217 391.668 24.7937C392.316 26.0657 393.216 27.0497 394.368 27.7457C395.544 28.4177 396.888 28.7537 398.4 28.7537ZM433.902 7.87371V11.9417H427.206V33.0017H422.166V11.9417H415.47V7.87371H433.902ZM460.223 7.87371V33.0017H455.183V22.3097H444.419V33.0017H439.379V7.87371H444.419V18.2057H455.183V7.87371H460.223ZM120.808 55.6497C120.808 56.9937 120.484 58.2537 119.836 59.4297C119.212 60.6057 118.216 61.5537 116.848 62.2737C115.504 62.9937 113.8 63.3537 111.736 63.3537H107.524V73.0017H102.484V47.8737H111.736C113.68 47.8737 115.336 48.2097 116.704 48.8817C118.072 49.5537 119.092 50.4777 119.764 51.6537C120.46 52.8297 120.808 54.1617 120.808 55.6497ZM111.52 59.2857C112.912 59.2857 113.944 58.9737 114.616 58.3497C115.288 57.7017 115.624 56.8017 115.624 55.6497C115.624 53.2017 114.256 51.9777 111.52 51.9777H107.524V59.2857H111.52ZM137.85 73.2537C135.498 73.2537 133.338 72.7017 131.37 71.5977C129.402 70.4937 127.842 68.9697 126.69 67.0257C125.538 65.0577 124.962 62.8377 124.962 60.3657C124.962 57.9177 125.538 55.7217 126.69 53.7777C127.842 51.8097 129.402 50.2737 131.37 49.1697C133.338 48.0657 135.498 47.5137 137.85 47.5137C140.226 47.5137 142.386 48.0657 144.33 49.1697C146.298 50.2737 147.846 51.8097 148.974 53.7777C150.126 55.7217 150.702 57.9177 150.702 60.3657C150.702 62.8377 150.126 65.0577 148.974 67.0257C147.846 68.9697 146.298 70.4937 144.33 71.5977C142.362 72.7017 140.202 73.2537 137.85 73.2537ZM137.85 68.7537C139.362 68.7537 140.694 68.4177 141.846 67.7457C142.998 67.0497 143.898 66.0657 144.546 64.7937C145.194 63.5217 145.518 62.0457 145.518 60.3657C145.518 58.6857 145.194 57.2217 144.546 55.9737C143.898 54.7017 142.998 53.7297 141.846 53.0577C140.694 52.3857 139.362 52.0497 137.85 52.0497C136.338 52.0497 134.994 52.3857 133.818 53.0577C132.666 53.7297 131.766 54.7017 131.118 55.9737C130.47 57.2217 130.146 58.6857 130.146 60.3657C130.146 62.0457 130.47 63.5217 131.118 64.7937C131.766 66.0657 132.666 67.0497 133.818 67.7457C134.994 68.4177 136.338 68.7537 137.85 68.7537ZM189.84 47.8737L182.82 73.0017H176.88L172.164 55.1097L167.232 73.0017L161.328 73.0377L154.56 47.8737H159.96L164.388 67.3857L169.5 47.8737H175.116L179.94 67.2777L184.404 47.8737H189.84ZM203.715 47.8737C206.355 47.8737 208.671 48.3897 210.663 49.4217C212.679 50.4537 214.227 51.9297 215.307 53.8497C216.411 55.7457 216.963 57.9537 216.963 60.4737C216.963 62.9937 216.411 65.2017 215.307 67.0977C214.227 68.9697 212.679 70.4217 210.663 71.4537C208.671 72.4857 206.355 73.0017 203.715 73.0017H194.931V47.8737H203.715ZM203.535 68.7177C206.175 68.7177 208.215 67.9977 209.655 66.5577C211.095 65.1177 211.815 63.0897 211.815 60.4737C211.815 57.8577 211.095 55.8177 209.655 54.3537C208.215 52.8657 206.175 52.1217 203.535 52.1217H199.971V68.7177H203.535ZM227.576 51.9417V58.2417H236.036V62.2377H227.576V68.8977H237.116V73.0017H222.536V47.8377H237.116V51.9417H227.576ZM256.456 73.0017L250.912 63.2097H248.536V73.0017H243.496V47.8737H252.928C254.872 47.8737 256.528 48.2217 257.896 48.9177C259.264 49.5897 260.284 50.5137 260.956 51.6897C261.652 52.8417 262 54.1377 262 55.5777C262 57.2337 261.52 58.7337 260.56 60.0777C259.6 61.3977 258.172 62.3097 256.276 62.8137L262.288 73.0017H256.456ZM248.536 59.4297H252.748C254.116 59.4297 255.136 59.1057 255.808 58.4577C256.48 57.7857 256.816 56.8617 256.816 55.6857C256.816 54.5337 256.48 53.6457 255.808 53.0217C255.136 52.3737 254.116 52.0497 252.748 52.0497H248.536V59.4297Z" fill="#344F10"/>
<path d="M4.27 77.3557H14V78.9517H4.27V77.3557ZM6.16 71.3683C6.16 70.7616 6.286 70.2203 6.538 69.7443C6.79 69.259 7.16333 68.881 7.658 68.6103C8.15267 68.3396 8.75 68.2043 9.45 68.2043H14V69.7863H9.688C8.99733 69.7863 8.47 69.959 8.106 70.3043C7.73267 70.6496 7.546 71.121 7.546 71.7183C7.546 72.3156 7.73267 72.7916 8.106 73.1463C8.47 73.4916 8.99733 73.6643 9.688 73.6643H14V75.2603H6.286V73.6643H7.168C6.85067 73.403 6.60333 73.0716 6.426 72.6703C6.24867 72.2596 6.16 71.8256 6.16 71.3683ZM6.16 63.0605C6.16 62.4632 6.28133 61.9358 6.524 61.4785C6.75733 61.0118 7.05133 60.6478 7.406 60.3865H6.286V58.7765H14.126C14.8353 58.7765 15.4653 58.9258 16.016 59.2245C16.576 59.5232 17.0147 59.9572 17.332 60.5265C17.6493 61.0865 17.808 61.7585 17.808 62.5425C17.808 63.5878 17.5607 64.4558 17.066 65.1465C16.5807 65.8372 15.918 66.2292 15.078 66.3225V64.7405C15.4793 64.6192 15.8013 64.3625 16.044 63.9705C16.296 63.5692 16.422 63.0932 16.422 62.5425C16.422 61.8985 16.226 61.3805 15.834 60.9885C15.442 60.5872 14.8727 60.3865 14.126 60.3865H12.838C13.202 60.6572 13.51 61.0258 13.762 61.4925C14.0047 61.9498 14.126 62.4725 14.126 63.0605C14.126 63.7325 13.958 64.3485 13.622 64.9085C13.2767 65.4592 12.8007 65.8978 12.194 66.2245C11.578 66.5418 10.8827 66.7005 10.108 66.7005C9.33333 66.7005 8.64733 66.5418 8.05 66.2245C7.45267 65.8978 6.99067 65.4592 6.664 64.9085C6.328 64.3485 6.16 63.7325 6.16 63.0605ZM10.136 60.3865C9.604 60.3865 9.142 60.4985 8.75 60.7225C8.358 60.9372 8.05933 61.2218 7.854 61.5765C7.64867 61.9312 7.546 62.3138 7.546 62.7245C7.546 63.1352 7.64867 63.5178 7.854 63.8725C8.05 64.2272 8.344 64.5165 8.736 64.7405C9.11867 64.9552 9.576 65.0625 10.108 65.0625C10.64 65.0625 11.1067 64.9552 11.508 64.7405C11.9093 64.5165 12.2173 64.2272 12.432 63.8725C12.6373 63.5085 12.74 63.1258 12.74 62.7245C12.74 62.3138 12.6373 61.9312 12.432 61.5765C12.2267 61.2218 11.928 60.9372 11.536 60.7225C11.1347 60.4985 10.668 60.3865 10.136 60.3865ZM7.406 55.0842C7.014 54.8509 6.71067 54.5429 6.496 54.1602C6.272 53.7682 6.16 53.3062 6.16 52.7742H7.812V53.1802C7.812 53.8056 7.97067 54.2816 8.288 54.6082C8.60533 54.9256 9.156 55.0842 9.94 55.0842H14V56.6802H6.286V55.0842H7.406ZM9.954 44.2372C10.2433 44.2372 10.5047 44.2558 10.738 44.2932V50.1872C11.354 50.1405 11.8487 49.9118 12.222 49.5012C12.5953 49.0905 12.782 48.5865 12.782 47.9892C12.782 47.1305 12.4227 46.5238 11.704 46.1692V44.4472C12.4133 44.6805 12.9967 45.1052 13.454 45.7212C13.902 46.3278 14.126 47.0838 14.126 47.9892C14.126 48.7265 13.9627 49.3892 13.636 49.9772C13.3 50.5558 12.8333 51.0132 12.236 51.3492C11.6293 51.6758 10.9293 51.8392 10.136 51.8392C9.34267 51.8392 8.64733 51.6805 8.05 51.3632C7.44333 51.0365 6.97667 50.5838 6.65 50.0052C6.32333 49.4172 6.16 48.7452 6.16 47.9892C6.16 47.2612 6.31867 46.6125 6.636 46.0432C6.95333 45.4738 7.40133 45.0305 7.98 44.7132C8.54933 44.3958 9.20733 44.2372 9.954 44.2372ZM9.45 45.9032C8.862 45.9125 8.39067 46.1225 8.036 46.5332C7.68133 46.9438 7.504 47.4525 7.504 48.0592C7.504 48.6098 7.68133 49.0812 8.036 49.4732C8.38133 49.8652 8.85267 50.0985 9.45 50.1732V45.9032ZM10.108 43.1986C9.33333 43.1986 8.64733 43.0399 8.05 42.7226C7.45267 42.3959 6.99067 41.9572 6.664 41.4066C6.328 40.8466 6.16 40.2259 6.16 39.5446C6.16 39.0406 6.272 38.5459 6.496 38.0606C6.71067 37.5659 7 37.1739 7.364 36.8846H3.64V35.2746H14V36.8846H12.838C13.2113 37.1459 13.5193 37.5099 13.762 37.9766C14.0047 38.4339 14.126 38.9612 14.126 39.5586C14.126 40.2306 13.958 40.8466 13.622 41.4066C13.2767 41.9572 12.8007 42.3959 12.194 42.7226C11.578 43.0399 10.8827 43.1986 10.108 43.1986ZM10.136 36.8846C9.604 36.8846 9.142 36.9966 8.75 37.2206C8.358 37.4352 8.05933 37.7199 7.854 38.0746C7.64867 38.4292 7.546 38.8119 7.546 39.2226C7.546 39.6332 7.64867 40.0159 7.854 40.3706C8.05 40.7252 8.344 41.0146 8.736 41.2386C9.11867 41.4532 9.576 41.5606 10.108 41.5606C10.64 41.5606 11.1067 41.4532 11.508 41.2386C11.9093 41.0146 12.2173 40.7252 12.432 40.3706C12.6373 40.0066 12.74 39.6239 12.74 39.2226C12.74 38.8119 12.6373 38.4292 12.432 38.0746C12.2267 37.7199 11.928 37.4352 11.536 37.2206C11.1347 36.9966 10.668 36.8846 10.136 36.8846ZM5.264 32.3663C5.264 32.6556 5.166 32.8983 4.97 33.0943C4.774 33.2903 4.53133 33.3883 4.242 33.3883C3.95267 33.3883 3.71 33.2903 3.514 33.0943C3.318 32.8983 3.22 32.6556 3.22 32.3663C3.22 32.0863 3.318 31.8483 3.514 31.6523C3.71 31.4563 3.95267 31.3583 4.242 31.3583C4.53133 31.3583 4.774 31.4563 4.97 31.6523C5.166 31.8483 5.264 32.0863 5.264 32.3663ZM6.286 31.5823H14V33.1783H6.286V31.5823ZM9.954 22.4169C10.2433 22.4169 10.5047 22.4355 10.738 22.4729V28.3669C11.354 28.3202 11.8487 28.0915 12.222 27.6809C12.5953 27.2702 12.782 26.7662 12.782 26.1689C12.782 25.3102 12.4227 24.7035 11.704 24.3489V22.6269C12.4133 22.8602 12.9967 23.2849 13.454 23.9009C13.902 24.5075 14.126 25.2635 14.126 26.1689C14.126 26.9062 13.9627 27.5689 13.636 28.1569C13.3 28.7355 12.8333 29.1929 12.236 29.5289C11.6293 29.8555 10.9293 30.0189 10.136 30.0189C9.34267 30.0189 8.64733 29.8602 8.05 29.5429C7.44333 29.2162 6.97667 28.7635 6.65 28.1849C6.32333 27.5969 6.16 26.9249 6.16 26.1689C6.16 25.4409 6.31867 24.7922 6.636 24.2229C6.95333 23.6535 7.40133 23.2102 7.98 22.8929C8.54933 22.5755 9.20733 22.4169 9.954 22.4169ZM9.45 24.0829C8.862 24.0922 8.39067 24.3022 8.036 24.7129C7.68133 25.1235 7.504 25.6322 7.504 26.2389C7.504 26.7895 7.68133 27.2609 8.036 27.6529C8.38133 28.0449 8.85267 28.2782 9.45 28.3529V24.0829ZM6.16 16.9542C6.16 16.3476 6.286 15.8062 6.538 15.3302C6.79 14.8449 7.16333 14.4669 7.658 14.1962C8.15267 13.9256 8.75 13.7902 9.45 13.7902H14V15.3722H9.688C8.99733 15.3722 8.47 15.5449 8.106 15.8902C7.73267 16.2356 7.546 16.7069 7.546 17.3042C7.546 17.9016 7.73267 18.3776 8.106 18.7322C8.47 19.0776 8.99733 19.2502 9.688 19.2502H14V20.8462H6.286V19.2502H7.168C6.85067 18.9889 6.60333 18.6576 6.426 18.2562C6.24867 17.8456 6.16 17.4116 6.16 16.9542ZM7.588 9.89244H11.858C12.1473 9.89244 12.3573 9.82711 12.488 9.69644C12.6093 9.55644 12.67 9.32311 12.67 8.99644V8.01644H14V9.27644C14 9.99511 13.832 10.5458 13.496 10.9284C13.16 11.3111 12.614 11.5024 11.858 11.5024H7.588V12.4124H6.286V11.5024H4.368V9.89244H6.286L6.286 8.01644H7.588L7.588 9.89244ZM14.126 3.74546C14.126 4.35213 14.0187 4.89813 13.804 5.38346C13.58 5.85946 13.2813 6.23746 12.908 6.51746C12.5253 6.79746 12.1007 6.94679 11.634 6.96546V5.31346C11.9607 5.28546 12.236 5.13146 12.46 4.85146C12.6747 4.56213 12.782 4.20279 12.782 3.77346C12.782 3.32546 12.698 2.98013 12.53 2.73746C12.3527 2.48546 12.1287 2.35946 11.858 2.35946C11.5687 2.35946 11.354 2.49946 11.214 2.77946C11.074 3.05013 10.92 3.48413 10.752 4.08146C10.5933 4.66013 10.4393 5.13146 10.29 5.49546C10.1407 5.85946 9.912 6.17679 9.604 6.44746C9.296 6.70879 8.89 6.83946 8.386 6.83946C7.97533 6.83946 7.602 6.71813 7.266 6.47546C6.92067 6.23279 6.65 5.88746 6.454 5.43946C6.258 4.98213 6.16 4.45946 6.16 3.87146C6.16 2.99413 6.384 2.28946 6.832 1.75746C7.27067 1.21613 7.87267 0.926792 8.638 0.889459V2.48546C8.29267 2.51346 8.01733 2.65346 7.812 2.90546C7.60667 3.15746 7.504 3.49813 7.504 3.92746C7.504 4.34746 7.58333 4.66946 7.742 4.89346C7.90067 5.11746 8.11067 5.22946 8.372 5.22946C8.57733 5.22946 8.75 5.15479 8.89 5.00546C9.03 4.85613 9.142 4.67413 9.226 4.45946C9.30067 4.24479 9.39867 3.92746 9.52 3.50746C9.66933 2.94746 9.82333 2.49013 9.982 2.13546C10.1313 1.77146 10.3553 1.45879 10.654 1.19746C10.9527 0.936125 11.3493 0.800792 11.844 0.791459C12.2827 0.791459 12.6747 0.912792 13.02 1.15546C13.3653 1.39813 13.636 1.74346 13.832 2.19146C14.028 2.63013 14.126 3.14813 14.126 3.74546Z" fill="#344F10" fill-opacity="0.5"/>
<rect x="8" y="88.9248" width="1" height="88.0769" fill="#344F10" fill-opacity="0.5"/>
<circle cx="777.5" cy="50.5017" r="2.5" transform="rotate(-180 777.5 50.5017)" fill="#333333"/>
<circle cx="777.5" cy="123.502" r="2.5" transform="rotate(-180 777.5 123.502)" fill="#333333"/>
<circle cx="777.5" cy="199.502" r="2.5" fill="#333333"/>
<rect x="776" y="51.0017" width="76" height="1" transform="rotate(-180 776 51.0017)" fill="#333333"/>
<rect x="776" y="124.002" width="76" height="1" transform="rotate(-180 776 124.002)" fill="#333333"/>
<rect x="776" y="200.002" width="76" height="1" transform="rotate(-180 776 200.002)" fill="#333333"/>
<circle cx="777.5" cy="199.502" r="2.5" fill="#333333"/>
<circle cx="777.5" cy="272.502" r="2.5" fill="#333333"/>
<rect x="776" y="273.002" width="76" height="1" transform="rotate(-180 776 273.002)" fill="#333333"/>
<circle cx="777.5" cy="272.502" r="2.5" fill="#333333"/>
<circle cx="777.5" cy="272.502" r="2.5" fill="#333333"/>
<circle cx="777.5" cy="272.502" r="2.5" fill="#333333"/>
<circle cx="777.5" cy="344.502" r="2.5" fill="#333333"/>
<rect x="776" y="345.002" width="76" height="1" transform="rotate(-180 776 345.002)" fill="#333333"/>
<circle cx="777.5" cy="344.502" r="2.5" fill="#333333"/>
<circle cx="777.5" cy="344.502" r="2.5" fill="#333333"/>
<circle cx="777.5" cy="344.502" r="2.5" fill="#333333"/>
<path d="M585.813 276.818H589.717V278.002H584.357V266.85H585.813V276.818ZM592.015 267.81C591.738 267.81 591.503 267.714 591.311 267.522C591.119 267.33 591.023 267.095 591.023 266.818C591.023 266.54 591.119 266.306 591.311 266.114C591.503 265.922 591.738 265.826 592.015 265.826C592.282 265.826 592.506 265.922 592.687 266.114C592.879 266.306 592.975 266.54 592.975 266.818C592.975 267.095 592.879 267.33 592.687 267.522C592.506 267.714 592.282 267.81 592.015 267.81ZM592.719 269.234V278.002H591.263V269.234H592.719ZM594.657 273.602C594.657 272.695 594.838 271.906 595.201 271.234C595.563 270.551 596.065 270.023 596.705 269.65C597.355 269.276 598.097 269.09 598.929 269.09C600.006 269.09 600.891 269.351 601.585 269.874C602.289 270.396 602.753 271.122 602.977 272.05H601.409C601.259 271.516 600.966 271.095 600.529 270.786C600.102 270.476 599.569 270.322 598.929 270.322C598.097 270.322 597.425 270.61 596.913 271.186C596.401 271.751 596.145 272.556 596.145 273.602C596.145 274.658 596.401 275.474 596.913 276.05C597.425 276.626 598.097 276.914 598.929 276.914C599.569 276.914 600.102 276.764 600.529 276.466C600.955 276.167 601.249 275.74 601.409 275.186H602.977C602.742 276.082 602.273 276.802 601.569 277.346C600.865 277.879 599.985 278.146 598.929 278.146C598.097 278.146 597.355 277.959 596.705 277.586C596.065 277.212 595.563 276.684 595.201 276.002C594.838 275.319 594.657 274.519 594.657 273.602ZM608.744 278.146C607.922 278.146 607.176 277.959 606.504 277.586C605.842 277.212 605.32 276.684 604.936 276.002C604.562 275.308 604.376 274.508 604.376 273.602C604.376 272.706 604.568 271.916 604.952 271.234C605.346 270.54 605.88 270.012 606.552 269.65C607.224 269.276 607.976 269.09 608.808 269.09C609.64 269.09 610.392 269.276 611.064 269.65C611.736 270.012 612.264 270.535 612.648 271.218C613.042 271.9 613.24 272.695 613.24 273.602C613.24 274.508 613.037 275.308 612.632 276.002C612.237 276.684 611.698 277.212 611.016 277.586C610.333 277.959 609.576 278.146 608.744 278.146ZM608.744 276.866C609.266 276.866 609.757 276.743 610.216 276.498C610.674 276.252 611.042 275.884 611.32 275.394C611.608 274.903 611.752 274.306 611.752 273.602C611.752 272.898 611.613 272.3 611.336 271.81C611.058 271.319 610.696 270.956 610.248 270.722C609.8 270.476 609.314 270.354 608.792 270.354C608.258 270.354 607.768 270.476 607.32 270.722C606.882 270.956 606.53 271.319 606.264 271.81C605.997 272.3 605.864 272.898 605.864 273.602C605.864 274.316 605.992 274.919 606.248 275.41C606.514 275.9 606.866 276.268 607.304 276.514C607.741 276.748 608.221 276.866 608.744 276.866ZM616.61 270.658C616.866 270.156 617.229 269.767 617.698 269.49C618.178 269.212 618.759 269.074 619.442 269.074V270.578H619.058C617.426 270.578 616.61 271.463 616.61 273.234V278.002H615.154V269.234H616.61V270.658ZM621.875 267.81C621.597 267.81 621.363 267.714 621.171 267.522C620.979 267.33 620.883 267.095 620.883 266.818C620.883 266.54 620.979 266.306 621.171 266.114C621.363 265.922 621.597 265.826 621.875 265.826C622.141 265.826 622.365 265.922 622.547 266.114C622.739 266.306 622.835 266.54 622.835 266.818C622.835 267.095 622.739 267.33 622.547 267.522C622.365 267.714 622.141 267.81 621.875 267.81ZM622.579 269.234V278.002H621.123V269.234H622.579ZM624.516 273.602C624.516 272.695 624.697 271.906 625.06 271.234C625.423 270.551 625.924 270.023 626.564 269.65C627.215 269.276 627.956 269.09 628.788 269.09C629.865 269.09 630.751 269.351 631.444 269.874C632.148 270.396 632.612 271.122 632.836 272.05H631.268C631.119 271.516 630.825 271.095 630.388 270.786C629.961 270.476 629.428 270.322 628.788 270.322C627.956 270.322 627.284 270.61 626.772 271.186C626.26 271.751 626.004 272.556 626.004 273.602C626.004 274.658 626.26 275.474 626.772 276.05C627.284 276.626 627.956 276.914 628.788 276.914C629.428 276.914 629.961 276.764 630.388 276.466C630.815 276.167 631.108 275.74 631.268 275.186H632.836C632.601 276.082 632.132 276.802 631.428 277.346C630.724 277.879 629.844 278.146 628.788 278.146C627.956 278.146 627.215 277.959 626.564 277.586C625.924 277.212 625.423 276.684 625.06 276.002C624.697 275.319 624.516 274.519 624.516 273.602ZM642.779 273.282C642.779 273.559 642.763 273.852 642.731 274.162H635.723C635.776 275.026 636.07 275.703 636.603 276.194C637.147 276.674 637.803 276.914 638.571 276.914C639.2 276.914 639.723 276.77 640.139 276.482C640.566 276.183 640.864 275.788 641.035 275.298H642.603C642.368 276.14 641.899 276.828 641.195 277.362C640.491 277.884 639.616 278.146 638.571 278.146C637.739 278.146 636.992 277.959 636.331 277.586C635.68 277.212 635.168 276.684 634.795 276.002C634.422 275.308 634.235 274.508 634.235 273.602C634.235 272.695 634.416 271.9 634.779 271.218C635.142 270.535 635.648 270.012 636.299 269.65C636.96 269.276 637.718 269.09 638.571 269.09C639.403 269.09 640.139 269.271 640.779 269.634C641.419 269.996 641.91 270.498 642.251 271.138C642.603 271.767 642.779 272.482 642.779 273.282ZM641.275 272.978C641.275 272.423 641.152 271.948 640.907 271.554C640.662 271.148 640.326 270.844 639.899 270.642C639.483 270.428 639.019 270.322 638.507 270.322C637.771 270.322 637.142 270.556 636.619 271.026C636.107 271.495 635.814 272.146 635.739 272.978H641.275ZM650.422 270.658C650.678 270.156 651.041 269.767 651.51 269.49C651.99 269.212 652.572 269.074 653.254 269.074V270.578H652.87C651.238 270.578 650.422 271.463 650.422 273.234V278.002H648.966V269.234H650.422V270.658ZM658.759 278.146C657.938 278.146 657.191 277.959 656.519 277.586C655.858 277.212 655.335 276.684 654.951 276.002C654.578 275.308 654.391 274.508 654.391 273.602C654.391 272.706 654.583 271.916 654.967 271.234C655.362 270.54 655.895 270.012 656.567 269.65C657.239 269.276 657.991 269.09 658.823 269.09C659.655 269.09 660.407 269.276 661.079 269.65C661.751 270.012 662.279 270.535 662.663 271.218C663.058 271.9 663.255 272.695 663.255 273.602C663.255 274.508 663.052 275.308 662.647 276.002C662.252 276.684 661.714 277.212 661.031 277.586C660.348 277.959 659.591 278.146 658.759 278.146ZM658.759 276.866C659.282 276.866 659.772 276.743 660.231 276.498C660.69 276.252 661.058 275.884 661.335 275.394C661.623 274.903 661.767 274.306 661.767 273.602C661.767 272.898 661.628 272.3 661.351 271.81C661.074 271.319 660.711 270.956 660.263 270.722C659.815 270.476 659.33 270.354 658.807 270.354C658.274 270.354 657.783 270.476 657.335 270.722C656.898 270.956 656.546 271.319 656.279 271.81C656.012 272.3 655.879 272.898 655.879 273.602C655.879 274.316 656.007 274.919 656.263 275.41C656.53 275.9 656.882 276.268 657.319 276.514C657.756 276.748 658.236 276.866 658.759 276.866ZM668.994 278.146C668.172 278.146 667.426 277.959 666.754 277.586C666.092 277.212 665.57 276.684 665.186 276.002C664.812 275.308 664.626 274.508 664.626 273.602C664.626 272.706 664.818 271.916 665.202 271.234C665.596 270.54 666.13 270.012 666.802 269.65C667.474 269.276 668.226 269.09 669.058 269.09C669.89 269.09 670.642 269.276 671.314 269.65C671.986 270.012 672.514 270.535 672.898 271.218C673.292 271.9 673.49 272.695 673.49 273.602C673.49 274.508 673.287 275.308 672.882 276.002C672.487 276.684 671.948 277.212 671.266 277.586C670.583 277.959 669.826 278.146 668.994 278.146ZM668.994 276.866C669.516 276.866 670.007 276.743 670.466 276.498C670.924 276.252 671.292 275.884 671.57 275.394C671.858 274.903 672.002 274.306 672.002 273.602C672.002 272.898 671.863 272.3 671.586 271.81C671.308 271.319 670.946 270.956 670.498 270.722C670.05 270.476 669.564 270.354 669.042 270.354C668.508 270.354 668.018 270.476 667.57 270.722C667.132 270.956 666.78 271.319 666.514 271.81C666.247 272.3 666.114 272.898 666.114 273.602C666.114 274.316 666.242 274.919 666.498 275.41C666.764 275.9 667.116 276.268 667.554 276.514C667.991 276.748 668.471 276.866 668.994 276.866ZM677.18 270.434V275.602C677.18 276.028 677.271 276.332 677.452 276.514C677.633 276.684 677.948 276.77 678.396 276.77H679.468V278.002H678.156C677.345 278.002 676.737 277.815 676.332 277.442C675.927 277.068 675.724 276.455 675.724 275.602V270.434H674.588V269.234H675.724V267.026H677.18V269.234H679.468V270.434H677.18Z" fill="#333333"/>
<path d="M617.205 339.85V341.034H614.165V351.002H612.709V341.034H609.653V339.85H617.205ZM626.774 342.234V351.002H625.318V349.706C625.04 350.154 624.651 350.506 624.15 350.762C623.659 351.007 623.115 351.13 622.518 351.13C621.835 351.13 621.222 350.991 620.678 350.714C620.134 350.426 619.702 349.999 619.382 349.434C619.072 348.868 618.918 348.18 618.918 347.37V342.234H620.358V347.178C620.358 348.042 620.576 348.708 621.014 349.178C621.451 349.636 622.048 349.866 622.806 349.866C623.584 349.866 624.198 349.626 624.646 349.146C625.094 348.666 625.318 347.967 625.318 347.05V342.234H626.774ZM630.688 343.658C630.944 343.156 631.307 342.767 631.776 342.49C632.256 342.212 632.837 342.074 633.52 342.074V343.578H633.136C631.504 343.578 630.688 344.463 630.688 346.234V351.002H629.232V342.234H630.688V343.658ZM645.745 342.074C646.427 342.074 647.035 342.218 647.569 342.506C648.102 342.783 648.523 343.204 648.833 343.77C649.142 344.335 649.297 345.023 649.297 345.834V351.002H647.857V346.042C647.857 345.167 647.638 344.5 647.201 344.042C646.774 343.572 646.193 343.338 645.457 343.338C644.699 343.338 644.097 343.583 643.649 344.074C643.201 344.554 642.977 345.252 642.977 346.17V351.002H641.537V346.042C641.537 345.167 641.318 344.5 640.881 344.042C640.454 343.572 639.873 343.338 639.137 343.338C638.379 343.338 637.777 343.583 637.329 344.074C636.881 344.554 636.657 345.252 636.657 346.17V351.002H635.201V342.234H636.657V343.498C636.945 343.039 637.329 342.687 637.809 342.442C638.299 342.196 638.838 342.074 639.425 342.074C640.161 342.074 640.811 342.239 641.377 342.57C641.942 342.9 642.363 343.386 642.641 344.026C642.886 343.407 643.291 342.927 643.857 342.586C644.422 342.244 645.051 342.074 645.745 342.074ZM659.685 346.282C659.685 346.559 659.669 346.852 659.637 347.162H652.629C652.682 348.026 652.976 348.703 653.509 349.194C654.053 349.674 654.709 349.914 655.477 349.914C656.106 349.914 656.629 349.77 657.045 349.482C657.472 349.183 657.77 348.788 657.941 348.298H659.509C659.274 349.14 658.805 349.828 658.101 350.362C657.397 350.884 656.522 351.146 655.477 351.146C654.645 351.146 653.898 350.959 653.237 350.586C652.586 350.212 652.074 349.684 651.701 349.002C651.328 348.308 651.141 347.508 651.141 346.602C651.141 345.695 651.322 344.9 651.685 344.218C652.048 343.535 652.554 343.012 653.205 342.65C653.866 342.276 654.624 342.09 655.477 342.09C656.309 342.09 657.045 342.271 657.685 342.634C658.325 342.996 658.816 343.498 659.157 344.138C659.509 344.767 659.685 345.482 659.685 346.282ZM658.181 345.978C658.181 345.423 658.058 344.948 657.813 344.554C657.568 344.148 657.232 343.844 656.805 343.642C656.389 343.428 655.925 343.322 655.413 343.322C654.677 343.322 654.048 343.556 653.525 344.026C653.013 344.495 652.72 345.146 652.645 345.978H658.181ZM663.063 343.658C663.319 343.156 663.682 342.767 664.151 342.49C664.631 342.212 665.212 342.074 665.895 342.074V343.578H665.511C663.879 343.578 663.063 344.463 663.063 346.234V351.002H661.607V342.234H663.063V343.658ZM668.328 340.81C668.05 340.81 667.816 340.714 667.624 340.522C667.432 340.33 667.336 340.095 667.336 339.818C667.336 339.54 667.432 339.306 667.624 339.114C667.816 338.922 668.05 338.826 668.328 338.826C668.594 338.826 668.818 338.922 669 339.114C669.192 339.306 669.288 339.54 669.288 339.818C669.288 340.095 669.192 340.33 669 340.522C668.818 340.714 668.594 340.81 668.328 340.81ZM669.032 342.234V351.002H667.576V342.234H669.032ZM670.969 346.602C670.969 345.695 671.151 344.906 671.513 344.234C671.876 343.551 672.377 343.023 673.017 342.65C673.668 342.276 674.409 342.09 675.241 342.09C676.319 342.09 677.204 342.351 677.897 342.874C678.601 343.396 679.065 344.122 679.289 345.05H677.721C677.572 344.516 677.279 344.095 676.841 343.786C676.415 343.476 675.881 343.322 675.241 343.322C674.409 343.322 673.737 343.61 673.225 344.186C672.713 344.751 672.457 345.556 672.457 346.602C672.457 347.658 672.713 348.474 673.225 349.05C673.737 349.626 674.409 349.914 675.241 349.914C675.881 349.914 676.415 349.764 676.841 349.466C677.268 349.167 677.561 348.74 677.721 348.186H679.289C679.055 349.082 678.585 349.802 677.881 350.346C677.177 350.879 676.297 351.146 675.241 351.146C674.409 351.146 673.668 350.959 673.017 350.586C672.377 350.212 671.876 349.684 671.513 349.002C671.151 348.319 670.969 347.519 670.969 346.602Z" fill="#333333"/>
</svg>
