<svg width="28" height="28" viewBox="0 0 28 28" fill="none" xmlns="http://www.w3.org/2000/svg">
<path fill-rule="evenodd" clip-rule="evenodd" d="M11.2198 14.0179L18.4048 21.3119C18.7116 21.6234 18.7116 22.1235 18.4048 22.435C18.1039 22.7405 17.6123 22.7442 17.3068 22.4433C17.304 22.4406 17.3012 22.4378 17.2985 22.435L10.1133 15.1413L10.1103 15.1443L9 14.0177L9.0032 14.0144L9 14.0112L10.1063 12.8875L10.1098 12.8911L17.3256 5.56574C17.6276 5.25915 18.121 5.25543 18.4275 5.55744C18.4303 5.56015 18.433 5.56288 18.4357 5.56563C18.7437 5.8781 18.7437 6.37988 18.4358 6.69241L11.2198 14.0179Z" fill="white"/>
<mask id="mask0" mask-type="alpha" maskUnits="userSpaceOnUse" x="9" y="5" width="10" height="18">
<path fill-rule="evenodd" clip-rule="evenodd" d="M11.2198 14.0179L18.4048 21.3119C18.7116 21.6234 18.7116 22.1235 18.4048 22.435C18.1039 22.7405 17.6123 22.7442 17.3068 22.4433C17.304 22.4406 17.3012 22.4378 17.2985 22.435L10.1133 15.1413L10.1103 15.1443L9 14.0177L9.0032 14.0144L9 14.0112L10.1063 12.8875L10.1098 12.8911L17.3256 5.56574C17.6276 5.25915 18.121 5.25543 18.4275 5.55744C18.4303 5.56015 18.433 5.56288 18.4357 5.56563C18.7437 5.8781 18.7437 6.37988 18.4358 6.69241L11.2198 14.0179Z" fill="white"/>
</mask>
<g mask="url(#mask0)">
<rect width="28" height="28" fill="#333333"/>
</g>
</svg>
