<?xml version="1.0" encoding="utf-8"?>
<!-- Generator: Adobe Illustrator 13.0.0, SVG Export Plug-In . SVG Version: 6.00 Build 14948)  -->
<!DOCTYPE svg PUBLIC "-//W3C//DTD SVG 1.1//EN" "http://www.w3.org/Graphics/SVG/1.1/DTD/svg11.dtd">
<svg version="1.1" id="Слой_1" xmlns="http://www.w3.org/2000/svg" xmlns:xlink="http://www.w3.org/1999/xlink" x="0px" y="0px"
	 width="28px" height="28px" viewBox="44.833 1 28 28" enable-background="new 44.833 1 28 28" xml:space="preserve">
<defs>
	<filter id="Adobe_OpacityMaskFilter" filterUnits="userSpaceOnUse" x="44.833" y="1" width="28" height="28">
		<feColorMatrix  type="matrix" values="1 0 0 0 0  0 1 0 0 0  0 0 1 0 0  0 0 0 1 0"/>
	</filter>
</defs>
<mask maskUnits="userSpaceOnUse" x="44.833" y="1" width="28" height="28" id="mask0">
	<path fill="#FFFFFF" filter="url(#Adobe_OpacityMaskFilter)" d="M63.269,22.309c0.309,0.313,0.309,0.813,0,1.127
		c-0.002,0.002-0.006,0.004-0.008,0.008c-0.307,0.302-0.801,0.298-1.103-0.008l-7.217-7.326l-0.002,0.005l-1.106-1.125l0.004-0.003
		l-0.004-0.004l1.11-1.126l0.002,0.003l7.186-7.294c0.003-0.002,0.007-0.005,0.009-0.008c0.307-0.301,0.797-0.297,1.098,0.008
		c0.308,0.312,0.308,0.812,0,1.124l-7.185,7.293L63.269,22.309z"/>
</mask>
<g mask="url(#mask0)">
	<rect x="44.833" y="1" fill="#333333" width="28" height="28"/>
</g>
</svg>
