<svg width="18" height="248" viewBox="0 0 18 248" fill="none" xmlns="http://www.w3.org/2000/svg">
<path d="M5.656 147.486V146.366L14 143.258V144.378L12.082 145.092V148.774L14 149.474V150.608L5.656 147.486ZM11.046 148.396V145.47L7.084 146.94L11.046 148.396ZM5.656 141.185V138.273C5.656 137.452 5.85667 136.803 6.258 136.327C6.65 135.842 7.196 135.599 7.896 135.599C8.68933 135.599 9.27267 135.935 9.646 136.607C9.814 136.206 10.066 135.898 10.402 135.683C10.738 135.459 11.144 135.347 11.62 135.347C12.376 135.347 12.964 135.599 13.384 136.103C13.7947 136.598 14 137.256 14 138.077L14 141.185H5.656ZM10.22 140.107H13.006L13.006 138.049C13.006 137.545 12.88 137.149 12.628 136.859C12.3667 136.57 12.026 136.425 11.606 136.425C11.186 136.425 10.85 136.561 10.598 136.831C10.346 137.093 10.22 137.517 10.22 138.105L10.22 140.107ZM6.65 140.107H9.198L9.198 138.175C9.198 137.671 9.07667 137.298 8.834 137.055C8.59133 136.803 8.27867 136.677 7.896 136.677C7.51333 136.677 7.21 136.813 6.986 137.083C6.762 137.354 6.65 137.741 6.65 138.245V140.107ZM14.112 129.099C14.112 129.687 14 130.243 13.776 130.765C13.552 131.288 13.2487 131.741 12.866 132.123C12.474 132.506 12.0167 132.809 11.494 133.033C10.9713 133.257 10.416 133.369 9.828 133.369C9.24 133.369 8.68467 133.257 8.162 133.033C7.63933 132.809 7.18667 132.506 6.804 132.123C6.412 131.741 6.104 131.288 5.88 130.765C5.656 130.243 5.544 129.687 5.544 129.099C5.544 128.511 5.656 127.956 5.88 127.433C6.104 126.911 6.412 126.458 6.804 126.075C7.18667 125.683 7.63933 125.375 8.162 125.151C8.68467 124.927 9.24 124.815 9.828 124.815C10.416 124.815 10.9713 124.927 11.494 125.151C12.0167 125.375 12.474 125.683 12.866 126.075C13.2487 126.458 13.552 126.911 13.776 127.433C14 127.956 14.112 128.511 14.112 129.099ZM13.104 129.099C13.104 128.651 13.02 128.236 12.852 127.853C12.6747 127.461 12.4413 127.125 12.152 126.845C11.8533 126.565 11.5033 126.346 11.102 126.187C10.7007 126.019 10.276 125.935 9.828 125.935C9.38 125.935 8.96 126.019 8.568 126.187C8.16667 126.346 7.81667 126.565 7.518 126.845C7.21933 127.125 6.986 127.461 6.818 127.853C6.64067 128.236 6.552 128.651 6.552 129.099C6.552 129.547 6.64067 129.967 6.818 130.359C6.986 130.742 7.21933 131.073 7.518 131.353C7.81667 131.633 8.16667 131.857 8.568 132.025C8.96 132.184 9.38 132.263 9.828 132.263C10.276 132.263 10.7007 132.184 11.102 132.025C11.5033 131.857 11.8533 131.633 12.152 131.353C12.4413 131.073 12.6747 130.742 12.852 130.359C13.02 129.967 13.104 129.547 13.104 129.099ZM14.112 119.623C14.112 120.033 14.0467 120.416 13.916 120.771C13.7853 121.116 13.5987 121.415 13.356 121.667C13.1133 121.919 12.8193 122.115 12.474 122.255C12.1193 122.395 11.7227 122.465 11.284 122.465H5.656V121.387H11.34C11.8813 121.387 12.3107 121.223 12.628 120.897C12.9453 120.57 13.104 120.141 13.104 119.609C13.104 119.086 12.9453 118.661 12.628 118.335C12.3107 118.008 11.8813 117.845 11.34 117.845H5.656V116.767H11.284C11.7227 116.767 12.1193 116.841 12.474 116.991C12.8193 117.131 13.1133 117.327 13.356 117.579C13.5987 117.831 13.7853 118.134 13.916 118.489C14.0467 118.834 14.112 119.212 14.112 119.623ZM6.692 112.117V114.553H5.656V108.603H6.692V111.025H14V112.117H6.692ZM6.692 99.6018V102.038H5.656V96.0878H6.692V98.5098H14V99.6018H6.692ZM10.318 88.6575V92.7315H14V93.8095H5.656L5.656 92.7315H9.296V88.6575H5.656V87.5795H14V88.6575H10.318ZM5.656 84.92L5.656 79.894H6.664L6.664 83.842H9.31V79.894H10.318V83.842H12.978V79.894H14V84.92H5.656ZM14.112 68.7422C14.112 69.3582 14 69.9322 13.776 70.4642C13.552 70.9869 13.2487 71.4442 12.866 71.8362C12.4833 72.2189 12.0307 72.5222 11.508 72.7462C10.9853 72.9609 10.43 73.0682 9.842 73.0682C9.254 73.0682 8.69867 72.9562 8.176 72.7322C7.65333 72.4989 7.196 72.1862 6.804 71.7942C6.412 71.4022 6.104 70.9449 5.88 70.4222C5.656 69.8902 5.544 69.3302 5.544 68.7422C5.544 68.2756 5.61867 67.8276 5.768 67.3982C5.91733 66.9689 6.12733 66.5769 6.398 66.2222C6.65933 65.8582 6.97667 65.5456 7.35 65.2842C7.72333 65.0229 8.12933 64.8269 8.568 64.6962V65.8442C7.96133 66.1149 7.476 66.5069 7.112 67.0202C6.73867 67.5336 6.552 68.1169 6.552 68.7702C6.552 69.2462 6.64067 69.6802 6.818 70.0722C6.99533 70.4642 7.238 70.8002 7.546 71.0802C7.84467 71.3602 8.19467 71.5796 8.596 71.7382C8.988 71.8876 9.40333 71.9622 9.842 71.9622C10.2713 71.9622 10.682 71.8876 11.074 71.7382C11.466 71.5796 11.816 71.3602 12.124 71.0802C12.4227 70.8002 12.6607 70.4642 12.838 70.0722C13.0153 69.6802 13.104 69.2509 13.104 68.7842C13.104 68.1309 12.936 67.5569 12.6 67.0622C12.264 66.5676 11.788 66.1802 11.172 65.9002V64.7382C11.6107 64.8782 12.012 65.0789 12.376 65.3402C12.7307 65.5922 13.0387 65.8909 13.3 66.2362C13.552 66.5816 13.7527 66.9689 13.902 67.3982C14.042 67.8182 14.112 68.2662 14.112 68.7422ZM5.656 62.3805V59.7905C5.656 59.3612 5.726 58.9692 5.866 58.6145C6.006 58.2599 6.19733 57.9565 6.44 57.7045C6.68267 57.4432 6.972 57.2425 7.308 57.1025C7.63467 56.9625 7.98467 56.8925 8.358 56.8925C8.638 56.8925 8.91333 56.9345 9.184 57.0185C9.45467 57.1025 9.702 57.2285 9.926 57.3965C10.15 57.5645 10.346 57.7699 10.514 58.0125C10.6727 58.2459 10.794 58.5165 10.878 58.8245L14 56.7805V58.0685L10.094 60.5605V59.9305C10.094 59.6225 10.0427 59.3472 9.94 59.1045C9.83733 58.8619 9.702 58.6612 9.534 58.5025C9.366 58.3439 9.17933 58.2225 8.974 58.1385C8.76867 58.0545 8.56333 58.0125 8.358 58.0125C7.854 58.0125 7.448 58.1619 7.14 58.4605C6.82267 58.7592 6.664 59.2212 6.664 59.8465V61.2745H14L14 62.3805H5.656ZM5.656 54.5302V49.5042H6.664V53.4522H9.31V49.5042H10.318V53.4522H12.978V49.5042H14V54.5302H5.656ZM5.656 44.5012V43.3812L14 40.2732V41.3932L12.082 42.1072V45.7892L14 46.4892V47.6232L5.656 44.5012ZM11.046 45.4112V42.4852L7.084 43.9552L11.046 45.4112ZM6.692 37.4003V39.8363H5.656V33.8863H6.692V36.3083H14V37.4003H6.692ZM14.112 28.2748C14.112 28.8628 14 29.4181 13.776 29.9408C13.552 30.4635 13.2487 30.9161 12.866 31.2988C12.474 31.6815 12.0167 31.9848 11.494 32.2088C10.9713 32.4328 10.416 32.5448 9.828 32.5448C9.24 32.5448 8.68467 32.4328 8.162 32.2088C7.63933 31.9848 7.18667 31.6815 6.804 31.2988C6.412 30.9161 6.104 30.4635 5.88 29.9408C5.656 29.4181 5.544 28.8628 5.544 28.2748C5.544 27.6868 5.656 27.1315 5.88 26.6088C6.104 26.0861 6.412 25.6335 6.804 25.2508C7.18667 24.8588 7.63933 24.5508 8.162 24.3268C8.68467 24.1028 9.24 23.9908 9.828 23.9908C10.416 23.9908 10.9713 24.1028 11.494 24.3268C12.0167 24.5508 12.474 24.8588 12.866 25.2508C13.2487 25.6335 13.552 26.0861 13.776 26.6088C14 27.1315 14.112 27.6868 14.112 28.2748ZM13.104 28.2748C13.104 27.8268 13.02 27.4115 12.852 27.0288C12.6747 26.6368 12.4413 26.3008 12.152 26.0208C11.8533 25.7408 11.5033 25.5215 11.102 25.3628C10.7007 25.1948 10.276 25.1108 9.828 25.1108C9.38 25.1108 8.96 25.1948 8.568 25.3628C8.16667 25.5215 7.81667 25.7408 7.518 26.0208C7.21933 26.3008 6.986 26.6368 6.818 27.0288C6.64067 27.4115 6.552 27.8268 6.552 28.2748C6.552 28.7228 6.64067 29.1428 6.818 29.5348C6.986 29.9175 7.21933 30.2488 7.518 30.5288C7.81667 30.8088 8.16667 31.0328 8.568 31.2008C8.96 31.3595 9.38 31.4388 9.828 31.4388C10.276 31.4388 10.7007 31.3595 11.102 31.2008C11.5033 31.0328 11.8533 30.8088 12.152 30.5288C12.4413 30.2488 12.6747 29.9175 12.852 29.5348C13.02 29.1428 13.104 28.7228 13.104 28.2748ZM5.656 21.6384V19.0484C5.656 18.619 5.726 18.227 5.866 17.8724C6.006 17.5177 6.19733 17.2144 6.44 16.9624C6.68267 16.701 6.972 16.5004 7.308 16.3604C7.63467 16.2204 7.98467 16.1504 8.358 16.1504C8.638 16.1504 8.91333 16.1924 9.184 16.2764C9.45467 16.3604 9.702 16.4864 9.926 16.6544C10.15 16.8224 10.346 17.0277 10.514 17.2704C10.6727 17.5037 10.794 17.7744 10.878 18.0824L14 16.0384V17.3264L10.094 19.8184V19.1884C10.094 18.8804 10.0427 18.605 9.94 18.3624C9.83733 18.1197 9.702 17.919 9.534 17.7604C9.366 17.6017 9.17933 17.4804 8.974 17.3964C8.76867 17.3124 8.56333 17.2704 8.358 17.2704C7.854 17.2704 7.448 17.4197 7.14 17.7184C6.82267 18.017 6.664 18.479 6.664 19.1044V20.5324H14V21.6384H5.656ZM14.112 11.1173C14.112 11.5279 14.0607 11.9153 13.958 12.2793C13.846 12.6339 13.6827 12.9419 13.468 13.2033C13.2533 13.4646 12.992 13.6699 12.684 13.8193C12.376 13.9686 12.0167 14.0433 11.606 14.0433V12.8533H11.676C12.124 12.8533 12.474 12.6993 12.726 12.3913C12.978 12.0833 13.104 11.6773 13.104 11.1733C13.104 10.9586 13.0713 10.7579 13.006 10.5713C12.9313 10.3753 12.8333 10.2073 12.712 10.0673C12.5813 9.92726 12.432 9.81526 12.264 9.73126C12.096 9.63792 11.9093 9.59126 11.704 9.59126C11.4893 9.59126 11.3073 9.63326 11.158 9.71726C10.9993 9.80126 10.864 9.92259 10.752 10.0813C10.6307 10.2399 10.528 10.4313 10.444 10.6553C10.3507 10.8699 10.262 11.1033 10.178 11.3553C10.066 11.6726 9.954 11.9806 9.842 12.2793C9.72067 12.5686 9.57133 12.8253 9.394 13.0493C9.20733 13.2733 8.98333 13.4553 8.722 13.5953C8.45133 13.7259 8.11067 13.7913 7.7 13.7913C7.38267 13.7913 7.09333 13.7259 6.832 13.5953C6.57067 13.4553 6.34667 13.2686 6.16 13.0353C5.964 12.7926 5.81467 12.5079 5.712 12.1813C5.6 11.8546 5.544 11.4999 5.544 11.1173C5.544 10.7253 5.6 10.3706 5.712 10.0533C5.81467 9.72659 5.964 9.44659 6.16 9.21326C6.356 8.97059 6.59867 8.78859 6.888 8.66726C7.168 8.53659 7.49 8.47126 7.854 8.47126V9.60526H7.77C7.39667 9.60526 7.09333 9.74992 6.86 10.0393C6.61733 10.3286 6.496 10.6926 6.496 11.1313C6.496 11.5793 6.608 11.9479 6.832 12.2373C7.056 12.5266 7.34533 12.6713 7.7 12.6713C7.93333 12.6713 8.12933 12.6246 8.288 12.5313C8.44667 12.4379 8.582 12.3073 8.694 12.1393C8.806 11.9713 8.90867 11.7706 9.002 11.5373C9.09533 11.3039 9.18867 11.0519 9.282 10.7813C9.394 10.4359 9.52 10.1233 9.66 9.84326C9.79067 9.55392 9.94933 9.30659 10.136 9.10126C10.3227 8.89592 10.5467 8.74192 10.808 8.63926C11.0693 8.52726 11.382 8.47126 11.746 8.47126C12.054 8.47126 12.3527 8.54126 12.642 8.68126C12.9313 8.81192 13.1833 8.99859 13.398 9.24126C13.6127 9.47459 13.7853 9.75459 13.916 10.0813C14.0467 10.3986 14.112 10.7439 14.112 11.1173Z" fill="#344F10" fill-opacity="0.5"/>
<rect x="8" y="159.923" width="1" height="88.0769" fill="#344F10" fill-opacity="0.5"/>
</svg>
