<?xml version="1.0" encoding="utf-8"?>
<!-- Generator: Adobe Illustrator 13.0.0, SVG Export Plug-In . SVG Version: 6.00 Build 14948)  -->
<!DOCTYPE svg PUBLIC "-//W3C//DTD SVG 1.1//EN" "http://www.w3.org/Graphics/SVG/1.1/DTD/svg11.dtd">
<svg version="1.1" id="Слой_1" xmlns="http://www.w3.org/2000/svg" xmlns:xlink="http://www.w3.org/1999/xlink" x="0px" y="0px"
	 width="20px" height="24px" viewBox="0 0 20 24" enable-background="new 0 0 20 24" xml:space="preserve">
<path fill="none" stroke="#344F10" d="M18.389,7.098L19.467,23.5H0.531L1.505,7.098H18.389z"/>
<path fill="#344F10" d="M13.658,9c0.209-0.486,0.325-1.022,0.326-1.585l0,0V5.013C13.98,2.797,12.187,1.003,9.972,1l0,0V0.5V0
	c2.769,0,5.013,2.244,5.015,5.013l0,0l-0.002,2.402c0,0.554-0.09,1.087-0.256,1.585"/>
<path fill="#344F10" d="M5.212,8.995c-0.165-0.497-0.253-1.028-0.253-1.58l0,0V5.013C4.958,2.244,7.203,0,9.972,0l0,0v0.5V1
	C7.756,1.003,5.962,2.797,5.958,5.013l0,0v2.402c0.001,0.554,0.114,1.082,0.317,1.562"/>
</svg>
