<svg width="15" height="35" viewBox="0 0 15 35" fill="none" xmlns="http://www.w3.org/2000/svg">
<path d="M11.126 31.15C11.126 31.7567 11.0187 32.3027 10.804 32.788C10.58 33.264 10.2813 33.642 9.908 33.922C9.52533 34.202 9.10067 34.3513 8.634 34.37V32.718C8.96067 32.69 9.236 32.536 9.46 32.256C9.67467 31.9667 9.782 31.6073 9.782 31.178C9.782 30.73 9.698 30.3847 9.53 30.142C9.35267 29.89 9.12867 29.764 8.858 29.764C8.56867 29.764 8.354 29.904 8.214 30.184C8.074 30.4547 7.92 30.8887 7.752 31.486C7.59333 32.0647 7.43933 32.536 7.29 32.9C7.14067 33.264 6.912 33.5813 6.604 33.852C6.296 34.1133 5.89 34.244 5.386 34.244C4.97533 34.244 4.602 34.1227 4.266 33.88C3.92067 33.6373 3.65 33.292 3.454 32.844C3.258 32.3867 3.16 31.864 3.16 31.276C3.16 30.3987 3.384 29.694 3.832 29.162C4.27067 28.6207 4.87267 28.3313 5.638 28.294V29.89C5.29267 29.918 5.01733 30.058 4.812 30.31C4.60667 30.562 4.504 30.9027 4.504 31.332C4.504 31.752 4.58333 32.074 4.742 32.298C4.90067 32.522 5.11067 32.634 5.372 32.634C5.57733 32.634 5.75 32.5593 5.89 32.41C6.03 32.2607 6.142 32.0787 6.226 31.864C6.30067 31.6493 6.39867 31.332 6.52 30.912C6.66933 30.352 6.82333 29.8947 6.982 29.54C7.13133 29.176 7.35533 28.8633 7.654 28.602C7.95267 28.3407 8.34933 28.2053 8.844 28.196C9.28267 28.196 9.67467 28.3173 10.02 28.56C10.3653 28.8027 10.636 29.148 10.832 29.596C11.028 30.0347 11.126 30.5527 11.126 31.15ZM3.16 22.4815C3.16 21.8935 3.286 21.3708 3.538 20.9135C3.79 20.4468 4.16333 20.0828 4.658 19.8215C5.15267 19.5508 5.75 19.4155 6.45 19.4155H11L11 20.9975H6.688C5.99733 20.9975 5.47 21.1702 5.106 21.5155C4.73267 21.8608 4.546 22.3322 4.546 22.9295C4.546 23.5268 4.73267 24.0028 5.106 24.3575C5.47 24.7028 5.99733 24.8755 6.688 24.8755H11V26.4715H0.64V24.8755H4.182C3.85533 24.6048 3.60333 24.2642 3.426 23.8535C3.24867 23.4335 3.16 22.9762 3.16 22.4815ZM11.126 14.0337C11.126 14.7617 10.9627 15.4197 10.636 16.0077C10.3 16.5957 9.83333 17.0577 9.236 17.3937C8.62933 17.7297 7.92933 17.8977 7.136 17.8977C6.352 17.8977 5.65667 17.725 5.05 17.3797C4.44333 17.0344 3.97667 16.563 3.65 15.9657C3.32333 15.3684 3.16 14.701 3.16 13.9637C3.16 13.2264 3.32333 12.559 3.65 11.9617C3.97667 11.3644 4.44333 10.893 5.05 10.5477C5.65667 10.2024 6.352 10.0297 7.136 10.0297C7.92 10.0297 8.61533 10.207 9.222 10.5617C9.82867 10.9164 10.3 11.4017 10.636 12.0177C10.9627 12.6244 11.126 13.2964 11.126 14.0337ZM9.74 14.0337C9.74 13.623 9.642 13.2404 9.446 12.8857C9.25 12.5217 8.956 12.2277 8.564 12.0037C8.172 11.7797 7.696 11.6677 7.136 11.6677C6.576 11.6677 6.10467 11.775 5.722 11.9897C5.33 12.2044 5.036 12.489 4.84 12.8437C4.644 13.1984 4.546 13.581 4.546 13.9917C4.546 14.4024 4.644 14.785 4.84 15.1397C5.036 15.485 5.33 15.7604 5.722 15.9657C6.10467 16.171 6.576 16.2737 7.136 16.2737C7.96667 16.2737 8.61067 16.0637 9.068 15.6437C9.516 15.2144 9.74 14.6777 9.74 14.0337ZM4.42 6.85595C4.06533 6.58529 3.76667 6.21662 3.524 5.74995C3.28133 5.28329 3.16 4.75595 3.16 4.16795C3.16 3.49595 3.328 2.88462 3.664 2.33395C3.99067 1.77395 4.45267 1.33529 5.05 1.01795C5.64733 0.700619 6.33333 0.541952 7.108 0.541952C7.88267 0.541952 8.578 0.700619 9.194 1.01795C9.80067 1.33529 10.2767 1.77395 10.622 2.33395C10.958 2.88462 11.126 3.49595 11.126 4.16795C11.126 4.75595 11.0093 5.27862 10.776 5.73595C10.5333 6.19329 10.2347 6.56662 9.88 6.85595H14.668V8.45195H3.286V6.85595H4.42ZM7.108 2.16595C6.576 2.16595 6.11867 2.27795 5.736 2.50195C5.344 2.71662 5.05 3.00595 4.854 3.36995C4.64867 3.72462 4.546 4.10729 4.546 4.51795C4.546 4.91929 4.64867 5.30195 4.854 5.66595C5.05933 6.02062 5.358 6.30995 5.75 6.53395C6.142 6.74862 6.604 6.85595 7.136 6.85595C7.668 6.85595 8.13467 6.74862 8.536 6.53395C8.928 6.30995 9.22667 6.02062 9.432 5.66595C9.63733 5.30195 9.74 4.91929 9.74 4.51795C9.74 4.10729 9.63733 3.72462 9.432 3.36995C9.21733 3.00595 8.90933 2.71662 8.508 2.50195C8.10667 2.27795 7.64 2.16595 7.108 2.16595Z" fill="#344F10" fill-opacity="0.5"/>
</svg>
