<svg width="18" height="150" viewBox="0 0 18 150" fill="none" xmlns="http://www.w3.org/2000/svg">
<path d="M14.126 36.15C14.126 36.7567 14.0187 37.3027 13.804 37.788C13.58 38.264 13.2813 38.642 12.908 38.922C12.5253 39.202 12.1007 39.3513 11.634 39.37V37.718C11.9607 37.69 12.236 37.536 12.46 37.256C12.6747 36.9667 12.782 36.6073 12.782 36.178C12.782 35.73 12.698 35.3847 12.53 35.142C12.3527 34.89 12.1287 34.764 11.858 34.764C11.5687 34.764 11.354 34.904 11.214 35.184C11.074 35.4547 10.92 35.8887 10.752 36.486C10.5933 37.0647 10.4393 37.536 10.29 37.9C10.1407 38.264 9.912 38.5813 9.604 38.852C9.296 39.1133 8.89 39.244 8.386 39.244C7.97533 39.244 7.602 39.1227 7.266 38.88C6.92067 38.6373 6.65 38.292 6.454 37.844C6.258 37.3867 6.16 36.864 6.16 36.276C6.16 35.3987 6.384 34.694 6.832 34.162C7.27067 33.6207 7.87267 33.3313 8.638 33.294V34.89C8.29267 34.918 8.01733 35.058 7.812 35.31C7.60667 35.562 7.504 35.9027 7.504 36.332C7.504 36.752 7.58333 37.074 7.742 37.298C7.90067 37.522 8.11067 37.634 8.372 37.634C8.57733 37.634 8.75 37.5593 8.89 37.41C9.03 37.2607 9.142 37.0787 9.226 36.864C9.30067 36.6493 9.39867 36.332 9.52 35.912C9.66933 35.352 9.82333 34.8947 9.982 34.54C10.1313 34.176 10.3553 33.8633 10.654 33.602C10.9527 33.3407 11.3493 33.2053 11.844 33.196C12.2827 33.196 12.6747 33.3173 13.02 33.56C13.3653 33.8027 13.636 34.148 13.832 34.596C14.028 35.0347 14.126 35.5527 14.126 36.15ZM6.16 27.4815C6.16 26.8935 6.286 26.3708 6.538 25.9135C6.79 25.4468 7.16333 25.0828 7.658 24.8215C8.15267 24.5508 8.75 24.4155 9.45 24.4155H14L14 25.9975H9.688C8.99733 25.9975 8.47 26.1702 8.106 26.5155C7.73267 26.8608 7.546 27.3322 7.546 27.9295C7.546 28.5268 7.73267 29.0028 8.106 29.3575C8.47 29.7028 8.99733 29.8755 9.688 29.8755H14V31.4715H3.64V29.8755H7.182C6.85533 29.6048 6.60333 29.2642 6.426 28.8535C6.24867 28.4335 6.16 27.9762 6.16 27.4815ZM14.126 19.0337C14.126 19.7617 13.9627 20.4197 13.636 21.0077C13.3 21.5957 12.8333 22.0577 12.236 22.3937C11.6293 22.7297 10.9293 22.8977 10.136 22.8977C9.352 22.8977 8.65667 22.725 8.05 22.3797C7.44333 22.0344 6.97667 21.563 6.65 20.9657C6.32333 20.3684 6.16 19.701 6.16 18.9637C6.16 18.2264 6.32333 17.559 6.65 16.9617C6.97667 16.3644 7.44333 15.893 8.05 15.5477C8.65667 15.2024 9.352 15.0297 10.136 15.0297C10.92 15.0297 11.6153 15.207 12.222 15.5617C12.8287 15.9164 13.3 16.4017 13.636 17.0177C13.9627 17.6244 14.126 18.2964 14.126 19.0337ZM12.74 19.0337C12.74 18.623 12.642 18.2404 12.446 17.8857C12.25 17.5217 11.956 17.2277 11.564 17.0037C11.172 16.7797 10.696 16.6677 10.136 16.6677C9.576 16.6677 9.10467 16.775 8.722 16.9897C8.33 17.2044 8.036 17.489 7.84 17.8437C7.644 18.1984 7.546 18.581 7.546 18.9917C7.546 19.4024 7.644 19.785 7.84 20.1397C8.036 20.485 8.33 20.7604 8.722 20.9657C9.10467 21.171 9.576 21.2737 10.136 21.2737C10.9667 21.2737 11.6107 21.0637 12.068 20.6437C12.516 20.2144 12.74 19.6777 12.74 19.0337ZM7.42 11.856C7.06533 11.5853 6.76667 11.2166 6.524 10.75C6.28133 10.2833 6.16 9.75595 6.16 9.16795C6.16 8.49595 6.328 7.88462 6.664 7.33395C6.99067 6.77395 7.45267 6.33529 8.05 6.01795C8.64733 5.70062 9.33333 5.54195 10.108 5.54195C10.8827 5.54195 11.578 5.70062 12.194 6.01795C12.8007 6.33529 13.2767 6.77395 13.622 7.33395C13.958 7.88462 14.126 8.49595 14.126 9.16795C14.126 9.75595 14.0093 10.2786 13.776 10.736C13.5333 11.1933 13.2347 11.5666 12.88 11.856H17.668V13.452H6.286V11.856H7.42ZM10.108 7.16595C9.576 7.16595 9.11867 7.27795 8.736 7.50195C8.344 7.71662 8.05 8.00595 7.854 8.36995C7.64867 8.72462 7.546 9.10729 7.546 9.51795C7.546 9.91929 7.64867 10.302 7.854 10.666C8.05933 11.0206 8.358 11.31 8.75 11.534C9.142 11.7486 9.604 11.856 10.136 11.856C10.668 11.856 11.1347 11.7486 11.536 11.534C11.928 11.31 12.2267 11.0206 12.432 10.666C12.6373 10.302 12.74 9.91929 12.74 9.51795C12.74 9.10729 12.6373 8.72462 12.432 8.36995C12.2173 8.00595 11.9093 7.71662 11.508 7.50195C11.1067 7.27795 10.64 7.16595 10.108 7.16595Z" fill="#344F10" fill-opacity="0.5"/>
<rect x="8" y="50" width="1" height="100" fill="#344F10" fill-opacity="0.5"/>
</svg>
