<svg width="32" height="32" viewBox="0 0 32 32" fill="none" xmlns="http://www.w3.org/2000/svg">
<path fill-rule="evenodd" clip-rule="evenodd" d="M19.1773 15.9795L10.9659 7.64363C10.6152 7.28763 10.6152 6.71606 10.9659 6.36004C11.3098 6.01088 11.8716 6.00662 12.2208 6.35052C12.224 6.35365 12.2271 6.3568 12.2302 6.35998L20.4419 14.6957L20.4454 14.6922L21.7142 15.9798L21.7106 15.9836L21.7142 15.9873L20.4499 17.2715L20.4459 17.2674L12.1993 25.6392C11.8541 25.9896 11.2903 25.9938 10.9399 25.6487C10.9368 25.6456 10.9336 25.6425 10.9305 25.6393C10.5786 25.2822 10.5786 24.7087 10.9304 24.3516L19.1773 15.9795Z" fill="white"/>
<mask id="mask0" mask-type="alpha" maskUnits="userSpaceOnUse" x="10" y="6" width="12" height="20">
<path fill-rule="evenodd" clip-rule="evenodd" d="M19.1773 15.9795L10.9659 7.64363C10.6152 7.28763 10.6152 6.71606 10.9659 6.36004C11.3098 6.01088 11.8716 6.00662 12.2208 6.35052C12.224 6.35365 12.2271 6.3568 12.2302 6.35998L20.4419 14.6957L20.4454 14.6922L21.7142 15.9798L21.7106 15.9836L21.7142 15.9873L20.4499 17.2715L20.4459 17.2674L12.1993 25.6392C11.8541 25.9896 11.2903 25.9938 10.9399 25.6487C10.9368 25.6456 10.9336 25.6425 10.9305 25.6393C10.5786 25.2822 10.5786 24.7087 10.9304 24.3516L19.1773 15.9795Z" fill="white"/>
</mask>
<g mask="url(#mask0)">
<rect x="32" y="32" width="32" height="32" transform="rotate(-180 32 32)" fill="#333333"/>
</g>
</svg>
