<svg width="12" height="173" viewBox="0 0 12 173" fill="none" xmlns="http://www.w3.org/2000/svg">
<path d="M3.286 161.024L11 163.418V165.098L5.302 166.652L11 168.206V169.886L3.286 172.294V170.67L9.488 169.06L3.286 167.422V165.756L9.46 164.188L3.286 162.592V161.024ZM2.264 159.019C2.264 159.308 2.166 159.551 1.97 159.747C1.774 159.943 1.53133 160.041 1.242 160.041C0.952666 160.041 0.71 159.943 0.514 159.747C0.318 159.551 0.219999 159.308 0.219999 159.019C0.219999 158.739 0.318 158.501 0.514 158.305C0.71 158.109 0.952666 158.011 1.242 158.011C1.53133 158.011 1.774 158.109 1.97 158.305C2.166 158.501 2.264 158.739 2.264 159.019ZM3.286 158.235H11V159.831H3.286V158.235ZM4.588 154.277H8.858C9.14733 154.277 9.35733 154.212 9.488 154.081C9.60933 153.941 9.67 153.708 9.67 153.381V152.401H11V153.661C11 154.38 10.832 154.931 10.496 155.313C10.16 155.696 9.614 155.887 8.858 155.887H4.588V156.797H3.286V155.887H1.368V154.277H3.286V152.401H4.588V154.277ZM7.136 151.462C6.34267 151.462 5.64733 151.304 5.05 150.986C4.44333 150.66 3.97667 150.212 3.65 149.642C3.32333 149.073 3.16 148.42 3.16 147.682C3.16 146.749 3.384 145.979 3.832 145.372C4.27067 144.756 4.90067 144.341 5.722 144.126V145.848C5.33933 145.988 5.04067 146.212 4.826 146.52C4.61133 146.828 4.504 147.216 4.504 147.682C4.504 148.336 4.73733 148.858 5.204 149.25C5.66133 149.633 6.30533 149.824 7.136 149.824C7.96667 149.824 8.61533 149.633 9.082 149.25C9.54867 148.858 9.782 148.336 9.782 147.682C9.782 146.758 9.376 146.147 8.564 145.848V144.126C9.348 144.35 9.97333 144.77 10.44 145.386C10.8973 146.002 11.126 146.768 11.126 147.682C11.126 148.42 10.9627 149.073 10.636 149.642C10.3 150.212 9.83333 150.66 9.236 150.986C8.62933 151.304 7.92933 151.462 7.136 151.462ZM3.16 138.546C3.16 137.958 3.286 137.435 3.538 136.978C3.79 136.511 4.16333 136.147 4.658 135.886C5.15267 135.615 5.75 135.48 6.45 135.48H11V137.062H6.688C5.99733 137.062 5.47 137.235 5.106 137.58C4.73267 137.925 4.546 138.397 4.546 138.994C4.546 139.591 4.73267 140.067 5.106 140.422C5.47 140.767 5.99733 140.94 6.688 140.94H11V142.536H0.64L0.64 140.94H4.182C3.85533 140.669 3.60333 140.329 3.426 139.918C3.24867 139.498 3.16 139.041 3.16 138.546ZM11.126 126.461C11.126 127.189 10.9627 127.847 10.636 128.435C10.3 129.023 9.83333 129.485 9.236 129.821C8.62933 130.157 7.92933 130.325 7.136 130.325C6.352 130.325 5.65667 130.153 5.05 129.807C4.44333 129.462 3.97667 128.991 3.65 128.393C3.32333 127.796 3.16 127.129 3.16 126.391C3.16 125.654 3.32333 124.987 3.65 124.389C3.97667 123.792 4.44333 123.321 5.05 122.975C5.65667 122.63 6.352 122.457 7.136 122.457C7.92 122.457 8.61533 122.635 9.222 122.989C9.82867 123.344 10.3 123.829 10.636 124.445C10.9627 125.052 11.126 125.724 11.126 126.461ZM9.74 126.461C9.74 126.051 9.642 125.668 9.446 125.313C9.25 124.949 8.956 124.655 8.564 124.431C8.172 124.207 7.696 124.095 7.136 124.095C6.576 124.095 6.10467 124.203 5.722 124.417C5.33 124.632 5.036 124.917 4.84 125.271C4.644 125.626 4.546 126.009 4.546 126.419C4.546 126.83 4.644 127.213 4.84 127.567C5.036 127.913 5.33 128.188 5.722 128.393C6.10467 128.599 6.576 128.701 7.136 128.701C7.96667 128.701 8.61067 128.491 9.068 128.071C9.516 127.642 9.74 127.105 9.74 126.461ZM4.588 117.646V119.074H11V120.684H4.588V121.594H3.286V120.684H2.74C1.85333 120.684 1.20933 120.45 0.807999 119.984C0.397333 119.508 0.192 118.766 0.192 117.758H1.522C1.522 118.243 1.61533 118.584 1.802 118.78C1.97933 118.976 2.292 119.074 2.74 119.074H3.286V117.646H4.588ZM3.16 103.257C3.16 102.65 3.286 102.109 3.538 101.633C3.79 101.147 4.16333 100.769 4.658 100.499C5.15267 100.219 5.75 100.079 6.45 100.079H11V101.661H6.688C5.99733 101.661 5.47 101.833 5.106 102.179C4.73267 102.524 4.546 102.995 4.546 103.593C4.546 104.19 4.73267 104.666 5.106 105.021C5.47 105.366 5.99733 105.539 6.688 105.539H11V107.121H6.688C5.99733 107.121 5.47 107.293 5.106 107.639C4.73267 107.984 4.546 108.455 4.546 109.053C4.546 109.65 4.73267 110.126 5.106 110.481C5.47 110.826 5.99733 110.999 6.688 110.999H11V112.595H3.286V110.999H4.168C3.85067 110.737 3.60333 110.406 3.426 110.005C3.24867 109.603 3.16 109.174 3.16 108.717C3.16 108.101 3.29067 107.55 3.552 107.065C3.81333 106.579 4.19133 106.206 4.686 105.945C4.21933 105.711 3.85067 105.347 3.58 104.853C3.3 104.358 3.16 103.826 3.16 103.257ZM11.126 94.7017C11.126 95.4297 10.9627 96.0877 10.636 96.6757C10.3 97.2637 9.83333 97.7257 9.236 98.0617C8.62933 98.3977 7.92933 98.5657 7.136 98.5657C6.352 98.5657 5.65667 98.393 5.05 98.0477C4.44333 97.7023 3.97667 97.231 3.65 96.6337C3.32333 96.0363 3.16 95.369 3.16 94.6317C3.16 93.8943 3.32333 93.227 3.65 92.6297C3.97667 92.0323 4.44333 91.561 5.05 91.2157C5.65667 90.8703 6.352 90.6977 7.136 90.6977C7.92 90.6977 8.61533 90.875 9.222 91.2297C9.82867 91.5843 10.3 92.0697 10.636 92.6857C10.9627 93.2923 11.126 93.9643 11.126 94.7017ZM9.74 94.7017C9.74 94.291 9.642 93.9083 9.446 93.5537C9.25 93.1897 8.956 92.8957 8.564 92.6717C8.172 92.4477 7.696 92.3357 7.136 92.3357C6.576 92.3357 6.10467 92.443 5.722 92.6577C5.33 92.8723 5.036 93.157 4.84 93.5117C4.644 93.8663 4.546 94.249 4.546 94.6597C4.546 95.0703 4.644 95.453 4.84 95.8077C5.036 96.153 5.33 96.4283 5.722 96.6337C6.10467 96.839 6.576 96.9417 7.136 96.9417C7.96667 96.9417 8.61067 96.7317 9.068 96.3117C9.516 95.8823 9.74 95.3457 9.74 94.7017ZM3.286 82.1339H11V83.7299H10.09C10.4073 83.9819 10.6593 84.3133 10.846 84.7239C11.0233 85.1253 11.112 85.5546 11.112 86.0119C11.112 86.6186 10.986 87.1646 10.734 87.6499C10.482 88.1259 10.1087 88.5039 9.614 88.7839C9.11933 89.0546 8.522 89.1899 7.822 89.1899H3.286L3.286 87.6079H7.584C8.27467 87.6079 8.80667 87.4353 9.18 87.0899C9.544 86.7446 9.726 86.2733 9.726 85.6759C9.726 85.0786 9.544 84.6073 9.18 84.2619C8.80667 83.9073 8.27467 83.7299 7.584 83.7299H3.286V82.1339ZM3.16 76.1361C3.16 75.5295 3.286 74.9881 3.538 74.5121C3.79 74.0268 4.16333 73.6488 4.658 73.3781C5.15267 73.1075 5.75 72.9721 6.45 72.9721H11V74.5541H6.688C5.99733 74.5541 5.47 74.7268 5.106 75.0721C4.73267 75.4175 4.546 75.8888 4.546 76.4861C4.546 77.0835 4.73267 77.5595 5.106 77.9141C5.47 78.2595 5.99733 78.4321 6.688 78.4321H11V80.0281H3.286V78.4321H4.168C3.85067 78.1708 3.60333 77.8395 3.426 77.4381C3.24867 77.0275 3.16 76.5935 3.16 76.1361ZM4.588 69.0743H8.858C9.14733 69.0743 9.35733 69.009 9.488 68.8783C9.60933 68.7383 9.67 68.505 9.67 68.1783V67.1983H11V68.4583C11 69.177 10.832 69.7277 10.496 70.1103C10.16 70.493 9.614 70.6843 8.858 70.6843H4.588V71.5943H3.286V70.6843H1.368V69.0743H3.286V67.1983H4.588V69.0743ZM7.108 66.2593C6.33333 66.2593 5.64733 66.1007 5.05 65.7833C4.45267 65.4567 3.99067 65.018 3.664 64.4673C3.328 63.9073 3.16 63.2913 3.16 62.6193C3.16 62.0127 3.28133 61.4853 3.524 61.0373C3.75733 60.58 4.05133 60.216 4.406 59.9453H3.286L3.286 58.3353H11V59.9453H9.852C10.216 60.216 10.5193 60.5847 10.762 61.0513C11.0047 61.518 11.126 62.05 11.126 62.6473C11.126 63.31 10.958 63.9167 10.622 64.4673C10.2767 65.018 9.80067 65.4567 9.194 65.7833C8.578 66.1007 7.88267 66.2593 7.108 66.2593ZM7.136 59.9453C6.604 59.9453 6.142 60.0573 5.75 60.2813C5.358 60.496 5.05933 60.7807 4.854 61.1353C4.64867 61.49 4.546 61.8727 4.546 62.2833C4.546 62.694 4.64867 63.0767 4.854 63.4313C5.05 63.786 5.344 64.0753 5.736 64.2993C6.11867 64.514 6.576 64.6213 7.108 64.6213C7.64 64.6213 8.10667 64.514 8.508 64.2993C8.90933 64.0753 9.21733 63.786 9.432 63.4313C9.63733 63.0673 9.74 62.6847 9.74 62.2833C9.74 61.8727 9.63733 61.49 9.432 61.1353C9.22667 60.7807 8.928 60.496 8.536 60.2813C8.13467 60.0573 7.668 59.9453 7.136 59.9453ZM2.264 55.4271C2.264 55.7164 2.166 55.9591 1.97 56.1551C1.774 56.3511 1.53133 56.4491 1.242 56.4491C0.952666 56.4491 0.71 56.3511 0.514 56.1551C0.318 55.9591 0.219999 55.7164 0.219999 55.4271C0.219999 55.1471 0.318 54.9091 0.514 54.7131C0.71 54.5171 0.952666 54.4191 1.242 54.4191C1.53133 54.4191 1.774 54.5171 1.97 54.7131C2.166 54.9091 2.264 55.1471 2.264 55.4271ZM3.286 54.6431H11V56.2391H3.286V54.6431ZM3.16 48.6557C3.16 48.049 3.286 47.5077 3.538 47.0317C3.79 46.5463 4.16333 46.1683 4.658 45.8977C5.15267 45.627 5.75 45.4917 6.45 45.4917H11V47.0737H6.688C5.99733 47.0737 5.47 47.2463 5.106 47.5917C4.73267 47.937 4.546 48.4083 4.546 49.0057C4.546 49.603 4.73267 50.079 5.106 50.4337C5.47 50.779 5.99733 50.9517 6.688 50.9517H11L11 52.5477H3.286V50.9517H4.168C3.85067 50.6903 3.60333 50.359 3.426 49.9577C3.24867 49.547 3.16 49.113 3.16 48.6557ZM3.286 29.4591L11 31.8531V33.5331L5.302 35.0871L11 36.6411V38.3211L3.286 40.7291V39.1051L9.488 37.4951L3.286 35.8571V34.1911L9.46 32.6231L3.286 31.0271L3.286 29.4591ZM2.264 27.4544C2.264 27.7437 2.166 27.9864 1.97 28.1824C1.774 28.3784 1.53133 28.4764 1.242 28.4764C0.952666 28.4764 0.71 28.3784 0.514 28.1824C0.318 27.9864 0.219999 27.7437 0.219999 27.4544C0.219999 27.1744 0.318 26.9364 0.514 26.7404C0.71 26.5444 0.952666 26.4464 1.242 26.4464C1.53133 26.4464 1.774 26.5444 1.97 26.7404C2.166 26.9364 2.264 27.1744 2.264 27.4544ZM3.286 26.6704H11V28.2664H3.286V26.6704ZM3.16 20.683C3.16 20.0763 3.286 19.535 3.538 19.059C3.79 18.5737 4.16333 18.1957 4.658 17.925C5.15267 17.6543 5.75 17.519 6.45 17.519H11V19.101H6.688C5.99733 19.101 5.47 19.2737 5.106 19.619C4.73267 19.9643 4.546 20.4357 4.546 21.033C4.546 21.6303 4.73267 22.1063 5.106 22.461C5.47 22.8063 5.99733 22.979 6.688 22.979H11V24.575H3.286V22.979H4.168C3.85067 22.7177 3.60333 22.3863 3.426 21.985C3.24867 21.5743 3.16 21.1403 3.16 20.683ZM7.108 16.0152C6.33333 16.0152 5.64733 15.8565 5.05 15.5392C4.45267 15.2125 3.99067 14.7739 3.664 14.2232C3.328 13.6632 3.16 13.0425 3.16 12.3612C3.16 11.8572 3.272 11.3625 3.496 10.8772C3.71067 10.3825 4 9.99054 4.364 9.7012H0.64V8.0912H11V9.7012H9.838C10.2113 9.96254 10.5193 10.3265 10.762 10.7932C11.0047 11.2505 11.126 11.7779 11.126 12.3752C11.126 13.0472 10.958 13.6632 10.622 14.2232C10.2767 14.7739 9.80067 15.2125 9.194 15.5392C8.578 15.8565 7.88267 16.0152 7.108 16.0152ZM7.136 9.7012C6.604 9.7012 6.142 9.8132 5.75 10.0372C5.358 10.2519 5.05933 10.5365 4.854 10.8912C4.64867 11.2459 4.546 11.6285 4.546 12.0392C4.546 12.4499 4.64867 12.8325 4.854 13.1872C5.05 13.5419 5.344 13.8312 5.736 14.0552C6.11867 14.2699 6.576 14.3772 7.108 14.3772C7.64 14.3772 8.10667 14.2699 8.508 14.0552C8.90933 13.8312 9.21733 13.5419 9.432 13.1872C9.63733 12.8232 9.74 12.4405 9.74 12.0392C9.74 11.6285 9.63733 11.2459 9.432 10.8912C9.22667 10.5365 8.928 10.2519 8.536 10.0372C8.13467 9.8132 7.668 9.7012 7.136 9.7012ZM11.126 3.19492C11.126 3.80159 11.0187 4.34759 10.804 4.83292C10.58 5.30892 10.2813 5.68692 9.908 5.96692C9.52533 6.24692 9.10067 6.39626 8.634 6.41492V4.76292C8.96067 4.73492 9.236 4.58092 9.46 4.30092C9.67467 4.01159 9.782 3.65226 9.782 3.22292C9.782 2.77492 9.698 2.42959 9.53 2.18692C9.35267 1.93492 9.12867 1.80892 8.858 1.80892C8.56867 1.80892 8.354 1.94892 8.214 2.22892C8.074 2.49959 7.92 2.93359 7.752 3.53092C7.59333 4.10959 7.43933 4.58092 7.29 4.94492C7.14067 5.30892 6.912 5.62626 6.604 5.89692C6.296 6.15826 5.89 6.28892 5.386 6.28892C4.97533 6.28892 4.602 6.16759 4.266 5.92492C3.92067 5.68226 3.65 5.33692 3.454 4.88892C3.258 4.43159 3.16 3.90892 3.16 3.32092C3.16 2.44359 3.384 1.73892 3.832 1.20692C4.27067 0.665588 4.87267 0.376255 5.638 0.338921V1.93492C5.29267 1.96292 5.01733 2.10292 4.812 2.35492C4.60667 2.60692 4.504 2.94759 4.504 3.37692C4.504 3.79692 4.58333 4.11892 4.742 4.34292C4.90067 4.56692 5.11067 4.67892 5.372 4.67892C5.57733 4.67892 5.75 4.60426 5.89 4.45492C6.03 4.30559 6.142 4.12359 6.226 3.90892C6.30067 3.69426 6.39867 3.37692 6.52 2.95692C6.66933 2.39692 6.82333 1.93959 6.982 1.58492C7.13133 1.22092 7.35533 0.908255 7.654 0.646922C7.95267 0.385588 8.34933 0.250255 8.844 0.240921C9.28267 0.240921 9.67467 0.362255 10.02 0.604922C10.3653 0.847588 10.636 1.19292 10.832 1.64092C11.028 2.07959 11.126 2.59759 11.126 3.19492Z" fill="#344F10" fill-opacity="0.5"/>
</svg>
