<svg width="958" height="573" viewBox="0 0 958 573" fill="none" xmlns="http://www.w3.org/2000/svg">
<rect width="958.001" height="573" fill="white"/>
<g clip-path="url(#clip0_21779_1007)">
<path fill-rule="evenodd" clip-rule="evenodd" d="M186.868 102.875C330.779 83.7629 413.726 82.3333 567.133 102.875L568 102.991V103.866V170.251V171.251H567H558.927V201.697V202.697H557.927H542.735C542.665 203.069 542.575 203.562 542.477 204.153C542.244 205.56 541.965 207.519 541.778 209.726C541.402 214.182 541.423 219.482 542.853 223.309C544.376 227.39 548.228 231.748 551.817 235.152C553.594 236.837 555.272 238.257 556.507 239.256C557.124 239.755 557.629 240.148 557.979 240.415C558.153 240.549 558.289 240.651 558.381 240.72L558.421 240.75L558.484 240.797L558.51 240.815L558.516 240.82L558.517 240.82L558.513 240.826L558.517 240.821L558.927 241.12V241.628V267.082H567H568V268.082V427.307V428.307H567H558.927V464.243V465.055L558.132 465.222C432.233 491.576 351.765 491.617 197.506 465.229L196.674 465.087V464.243V428.307H187H186V427.307V268.082V267.082H187H196.674V241.628V241.045L197.182 240.758C198.051 240.266 198.943 239.783 199.843 239.297C202.642 237.784 205.513 236.232 208.004 234.226C211.243 231.619 213.716 228.329 214.294 223.539L214.295 223.529L214.297 223.518C215.225 217.01 215.36 212.558 214.382 202.697H197.674H196.674V201.697V171.251H187H186V170.251V103.866V102.99L186.868 102.875ZM198.674 428.419C345.407 444.01 424.271 444.026 556.927 428.432V463.43C432.002 489.51 351.87 489.556 198.674 463.399V428.419ZM216.392 202.697H540.701C540.642 203.019 540.575 203.398 540.504 203.827C540.265 205.272 539.977 207.286 539.785 209.558C539.537 212.497 539.442 215.94 539.851 219.165H216.824C217.226 214.57 217.123 210.128 216.392 202.697ZM216.62 221.165H540.178C540.382 222.159 540.645 223.115 540.979 224.009C542.675 228.552 546.829 233.178 550.441 236.603C552.265 238.333 553.985 239.788 555.249 240.811C555.882 241.322 556.401 241.727 556.763 242.004C556.822 242.049 556.877 242.09 556.927 242.128V267.707C417.559 274.462 338.512 273.947 198.674 267.626V242.214C199.314 241.858 199.98 241.498 200.662 241.13L200.666 241.128L200.667 241.127L200.675 241.123L200.678 241.121L200.678 241.121C203.509 239.591 206.61 237.916 209.259 235.784C212.773 232.955 215.618 229.235 216.278 223.79C216.407 222.883 216.521 222.014 216.62 221.165ZM541.916 200.697H556.927V171.251H198.674V200.697L215.286 200.697L541.916 200.697ZM197.674 169.251L197.674 169.251H557.927L557.927 169.251H566V104.741C413.641 84.387 330.94 85.7978 188 104.742V169.251H197.674ZM197.629 269.58L197.651 269.082H188V426.307H197.674H197.727L197.78 426.313C345.503 442.051 424.308 442.06 557.81 426.314L557.868 426.307H557.927H566V269.082H559.553L559.577 269.58C418.229 276.485 338.97 275.984 197.629 269.58Z" fill="#344F10"/>
<circle cx="165.5" cy="138.502" r="2.5" transform="rotate(-180 165.5 138.502)" fill="#333333"/>
<circle cx="165.5" cy="211.502" r="2.5" transform="rotate(-180 165.5 211.502)" fill="#333333"/>
<circle cx="165.5" cy="287.502" r="2.5" fill="#333333"/>
<rect x="164" y="139.002" width="76" height="1" transform="rotate(-180 164 139.002)" fill="#333333"/>
<rect x="164" y="212.002" width="76" height="1" transform="rotate(-180 164 212.002)" fill="#333333"/>
<rect x="164" y="288.002" width="76" height="1" transform="rotate(-180 164 288.002)" fill="#333333"/>
<circle cx="165.5" cy="287.502" r="2.5" fill="#333333"/>
<circle cx="165.5" cy="360.502" r="2.5" fill="#333333"/>
<rect x="164" y="361.002" width="76" height="1" transform="rotate(-180 164 361.002)" fill="#333333"/>
<circle cx="165.5" cy="360.502" r="2.5" fill="#333333"/>
<circle cx="165.5" cy="360.502" r="2.5" fill="#333333"/>
<circle cx="165.5" cy="360.502" r="2.5" fill="#333333"/>
<circle cx="165.5" cy="432.502" r="2.5" fill="#333333"/>
<rect x="164" y="433.002" width="76" height="1" transform="rotate(-180 164 433.002)" fill="#333333"/>
<circle cx="165.5" cy="432.502" r="2.5" fill="#333333"/>
<circle cx="165.5" cy="432.502" r="2.5" fill="#333333"/>
<circle cx="165.5" cy="432.502" r="2.5" fill="#333333"/>
</g>
<path d="M545.926 141.39H534V139.356C534.66 103.578 583.944 107.208 590.001 123.593C594.474 123.363 595.925 122.723 597.26 119.525C600.531 118.246 602.537 118.203 604.519 119.525C606.401 115.228 607.34 113.23 608.667 110.881H612.297L608.667 121.559C619.514 136.255 611.589 140.712 604.519 141.39C599.645 141.547 595.267 141.538 590.001 141.39M545.926 141.39C544.278 143.97 544.187 145.421 545.926 148H573.408C580.61 146.731 584.276 145.348 590.001 141.39M545.926 141.39H590.001" stroke="#344F10"/>
<path d="M545.408 116.983L548 110.373M548 110.373L542.815 99.1864M548 110.373L555.26 112.407L559.926 106.814M542.815 99.1864L545.408 92.0678M542.815 99.1864L550.593 96.644M559.926 106.814V96.644M559.926 106.814L566.667 111.898M559.926 96.644L565.111 89.5254M559.926 96.644H567.704" stroke="#344F10"/>
<path d="M602.445 126.644L604.779 129.441M607.112 132.237L604.779 129.441M604.779 129.441L607.112 126.644M604.779 129.441L601.408 132.237M576.001 125.119H566.149V130.712H576.001V135.288H552.148V119.017L577.038 120.034L576.001 125.119Z" stroke="#344F10"/>
<path d="M597.26 119.525L598.988 111.39H602.445V118.701" stroke="#344F10"/>
<path d="M600.371 103.763C601.518 102.066 600.931 101.183 598.297 99.6949C597.464 98.1102 598.17 97.2203 600.371 95.6271C601.179 94.1773 600.642 93.2711 598.297 91.5593C597.732 89.7798 598.175 89.0163 600.371 88" stroke="#344F10"/>
<path d="M610.223 104.271C611.167 102.486 610.894 101.484 608.149 99.6949C607.576 98.5079 607.822 97.6748 610.223 95.6271C610.318 94.04 610.102 93.1524 608.149 91.5593C608.069 89.7163 608.416 88.8797 610.223 88" stroke="#344F10"/>
<path d="M569.26 125.627V130.712" stroke="#344F10"/>
<path d="M546.963 126.644L542.815 133.254" stroke="#344F10"/>
<path d="M583.278 126.644C583.278 127.201 582.815 127.67 582.223 127.67C581.63 127.67 581.167 127.201 581.167 126.644C581.167 126.087 581.63 125.619 582.223 125.619C582.815 125.619 583.278 126.087 583.278 126.644Z" stroke="#344F10"/>
<path d="M722.701 98.8367L718.548 101.833C707.341 86.8234 701.271 78.8141 681.921 105.578L695.514 113.816C697.446 107.374 699.073 104.092 703.066 98.8367L707.597 107.824L703.066 111.195C708.547 111.719 711.483 111.788 716.282 111.195C719.535 107.291 721.036 104.699 722.701 98.8367Z" stroke="#344F10"/>
<path d="M713.143 148.87L712.515 143.753C730.914 140.947 740.775 139.369 726.706 109.428L713.061 117.58C717.746 122.366 719.827 125.374 722.497 131.426L712.518 131.17L711.744 125.538C708.677 130.158 707.219 132.734 705.448 137.28C707.295 142.03 708.835 144.598 713.143 148.87Z" stroke="#344F10"/>
<path d="M671.04 115.313L675.774 117.239C669.282 134.86 665.866 144.339 698.602 146.422L698.162 130.412C691.749 132.231 688.136 132.612 681.603 132.038L686.663 123.343L691.913 125.389C689.401 120.439 687.879 117.901 684.803 114.132C679.796 113.462 676.826 113.577 671.04 115.313Z" stroke="#344F10"/>
<path d="M834.168 162.936L831.204 157.427M804.824 108.39L812.234 122.164M812.234 122.164L815.635 110.594M812.234 122.164L800.706 118.858M812.234 122.164L818.755 134.286M818.755 134.286L823.357 116.655M818.755 134.286L803.28 129.878M818.755 134.286L826.462 148.611M826.462 148.611L832.624 125.47M826.462 148.611L804.824 142.55M826.462 148.611L831.204 157.427M831.204 157.427C853.583 127.802 857.282 111.859 795.043 88.5548" stroke="#344F10"/>
<path d="M795.029 88C781.005 154.932 797.358 158.527 831.08 157.427M844.98 135.388L847.039 132.167M858.365 114.451L851.672 124.919M851.672 124.919H860.424M851.672 124.919L849.098 116.655M851.672 124.919L847.039 132.167M847.039 132.167H858.365M847.039 132.167L841.376 142.551L854.761 143.653" stroke="#344F10"/>
<path d="M833.654 154.121C864.906 153.685 876.754 147.038 866.271 100.212" stroke="#344F10"/>
<path d="M866.601 100.677C855.301 103.293 849.429 105.537 841.891 114.451" stroke="#344F10"/>
<defs>
<clipPath id="clip0_21779_1007">
<rect width="398" height="397" fill="white" transform="translate(88 88)"/>
</clipPath>
</defs>
</svg>
