<svg width="743" height="573" viewBox="0 0 743 573" fill="none" xmlns="http://www.w3.org/2000/svg">
<rect width="743" height="573" fill="white"/>
<g clip-path="url(#clip0_21779_1056)">
<path fill-rule="evenodd" clip-rule="evenodd" d="M134.868 102.875C278.779 83.7629 361.726 82.3333 515.133 102.875L516 102.991V103.866V170.251V171.251H515H506.927V201.697V202.697H505.927H490.735C490.665 203.069 490.575 203.562 490.477 204.153C490.244 205.56 489.965 207.519 489.778 209.726C489.402 214.182 489.423 219.482 490.853 223.309C492.376 227.39 496.228 231.748 499.817 235.152C501.594 236.837 503.272 238.257 504.507 239.256C505.124 239.755 505.629 240.148 505.979 240.415C506.153 240.549 506.289 240.651 506.381 240.72L506.421 240.75L506.484 240.797L506.51 240.815L506.516 240.82L506.517 240.82L506.513 240.826L506.517 240.821L506.927 241.12V241.628V267.082H515H516V268.082V427.307V428.307H515H506.927V464.243V465.055L506.132 465.222C380.233 491.576 299.765 491.617 145.506 465.229L144.674 465.087V464.243V428.307H135H134V427.307V268.082V267.082H135H144.674V241.628V241.045L145.182 240.758C146.051 240.266 146.943 239.783 147.843 239.297C150.642 237.784 153.513 236.232 156.004 234.226C159.243 231.619 161.716 228.329 162.294 223.539L162.295 223.529L162.297 223.518C163.225 217.01 163.36 212.558 162.382 202.697H145.674H144.674V201.697V171.251H135H134V170.251V103.866V102.99L134.868 102.875ZM146.674 428.419C293.407 444.01 372.271 444.026 504.927 428.432V463.43C380.002 489.51 299.87 489.556 146.674 463.399V428.419ZM164.392 202.697H488.701C488.642 203.019 488.575 203.398 488.504 203.827C488.265 205.272 487.977 207.286 487.785 209.558C487.537 212.497 487.442 215.94 487.851 219.165H164.824C165.226 214.57 165.123 210.128 164.392 202.697ZM164.62 221.165H488.178C488.382 222.159 488.645 223.115 488.979 224.009C490.675 228.552 494.829 233.178 498.441 236.603C500.265 238.333 501.985 239.788 503.249 240.811C503.882 241.322 504.401 241.727 504.763 242.004C504.822 242.049 504.877 242.09 504.927 242.128V267.707C365.559 274.462 286.512 273.947 146.674 267.626V242.214C147.314 241.858 147.98 241.498 148.662 241.13L148.666 241.128L148.667 241.127L148.675 241.123L148.678 241.121L148.678 241.121C151.509 239.591 154.61 237.916 157.259 235.784C160.773 232.955 163.618 229.235 164.278 223.79C164.407 222.883 164.521 222.014 164.62 221.165ZM489.916 200.697H504.927V171.251H146.674V200.697L163.286 200.697L489.916 200.697ZM145.674 169.251L145.674 169.251H505.927L505.927 169.251H514V104.741C361.641 84.387 278.94 85.7978 136 104.742V169.251H145.674ZM145.629 269.58L145.651 269.082H136V426.307H145.674H145.727L145.78 426.313C293.503 442.051 372.308 442.06 505.81 426.314L505.868 426.307H505.927H514V269.082H507.553L507.577 269.58C366.229 276.485 286.97 275.984 145.629 269.58Z" fill="#344F10"/>
<circle cx="121.5" cy="138.502" r="2.5" transform="rotate(-180 121.5 138.502)" fill="#333333"/>
<circle cx="121.5" cy="211.502" r="2.5" transform="rotate(-180 121.5 211.502)" fill="#333333"/>
<circle cx="121.5" cy="287.502" r="2.5" fill="#333333"/>
<rect x="120" y="139" width="32" height="1" transform="rotate(-180 120 139)" fill="#333333"/>
<rect x="120" y="212" width="32" height="1" transform="rotate(-180 120 212)" fill="#333333"/>
<rect x="120" y="288" width="32" height="1" transform="rotate(-180 120 288)" fill="#333333"/>
<circle cx="121.5" cy="287.502" r="2.5" fill="#333333"/>
<circle cx="121.5" cy="360.502" r="2.5" fill="#333333"/>
<rect x="120" y="361" width="32" height="1" transform="rotate(-180 120 361)" fill="#333333"/>
<circle cx="121.5" cy="360.502" r="2.5" fill="#333333"/>
<circle cx="121.5" cy="360.502" r="2.5" fill="#333333"/>
<circle cx="121.5" cy="360.502" r="2.5" fill="#333333"/>
<circle cx="121.5" cy="432.502" r="2.5" fill="#333333"/>
<rect x="120" y="433" width="32" height="1" transform="rotate(-180 120 433)" fill="#333333"/>
<circle cx="121.5" cy="432.502" r="2.5" fill="#333333"/>
<circle cx="121.5" cy="432.502" r="2.5" fill="#333333"/>
<circle cx="121.5" cy="432.502" r="2.5" fill="#333333"/>
</g>
<path d="M361.616 162L358.689 156.559M332.639 108.135L339.957 121.737M339.957 121.737L343.315 110.311M339.957 121.737L328.572 118.473M339.957 121.737L346.396 133.707M346.396 133.707L350.94 116.296M346.396 133.707L331.114 129.354M346.396 133.707L354.006 147.853M354.006 147.853L360.091 125.002M354.006 147.853L332.639 141.868M354.006 147.853L358.689 156.559M358.689 156.559C380.788 127.304 384.441 111.561 322.98 88.5479" stroke="#344F10"/>
<path d="M322.966 88C309.117 154.096 325.267 157.645 358.567 156.559M372.292 134.796L374.326 131.615M385.51 114.12L378.901 124.458M378.901 124.458H387.544M378.901 124.458L376.359 116.297M378.901 124.458L374.326 131.615M374.326 131.615H385.51M374.326 131.615L368.734 141.869L381.951 142.957" stroke="#344F10"/>
<path d="M361.108 153.294C391.969 152.864 403.669 146.3 393.317 100.059" stroke="#344F10"/>
<path d="M393.644 100.518C382.485 103.102 376.686 105.318 369.242 114.12" stroke="#344F10"/>
<path d="M454.243 141.39H445V139.356C445.511 103.578 483.707 107.208 488.4 123.593C491.867 123.363 492.992 122.723 494.026 119.525C496.562 118.246 498.116 118.203 499.652 119.525C501.111 115.228 501.838 113.23 502.867 110.881H505.68L502.867 121.559C511.273 136.255 505.131 140.712 499.652 141.39C495.875 141.547 492.482 141.538 488.4 141.39M454.243 141.39C452.965 143.97 452.895 145.421 454.243 148H475.541C481.122 146.731 483.964 145.348 488.4 141.39M454.243 141.39H488.4" stroke="#344F10"/>
<path d="M453.841 116.983L455.85 110.373M455.85 110.373L451.832 99.1864M455.85 110.373L461.476 112.407L465.093 106.814M451.832 99.1864L453.841 92.0678M451.832 99.1864L457.859 96.644M465.093 106.814V96.644M465.093 106.814L470.317 111.898M465.093 96.644L469.111 89.5254M465.093 96.644H471.121" stroke="#344F10"/>
<path d="M498.045 126.644L499.853 129.441M501.662 132.237L499.853 129.441M499.853 129.441L501.662 126.644M499.853 129.441L497.241 132.237M477.55 125.119H469.915V130.712H477.55V135.288H459.065V119.017L478.354 120.034L477.55 125.119Z" stroke="#344F10"/>
<path d="M494.026 119.525L495.366 111.39H498.045V118.701" stroke="#344F10"/>
<path d="M496.437 103.763C497.327 102.066 496.872 101.183 494.83 99.6949C494.185 98.1102 494.731 97.2203 496.437 95.6271C497.064 94.1773 496.648 93.2711 494.83 91.5593C494.392 89.7798 494.735 89.0163 496.437 88" stroke="#344F10"/>
<path d="M504.073 104.271C504.805 102.486 504.593 101.484 502.465 99.6949C502.022 98.5079 502.213 97.6748 504.073 95.6271C504.147 94.04 503.979 93.1524 502.465 91.5593C502.404 89.7163 502.673 88.8797 504.073 88" stroke="#344F10"/>
<path d="M472.326 125.627V130.712" stroke="#344F10"/>
<path d="M455.046 126.644L451.832 133.254" stroke="#344F10"/>
<path d="M483.078 126.644C483.078 127.326 482.659 127.67 482.373 127.67C482.086 127.67 481.667 127.326 481.667 126.644C481.667 125.962 482.086 125.619 482.373 125.619C482.659 125.619 483.078 125.962 483.078 126.644Z" stroke="#344F10"/>
<path d="M630.876 101.41L625.684 105.118C611.675 86.5439 604.088 76.6325 579.901 109.752L596.893 119.948C599.308 111.976 601.34 107.914 606.332 101.41L611.996 112.533L606.332 116.704C613.184 117.352 616.853 117.437 622.852 116.704C626.919 111.872 628.795 108.665 630.876 101.41Z" stroke="#344F10"/>
<path d="M618.929 163.327L618.144 156.994C641.142 153.521 653.468 151.57 635.882 114.518L618.826 124.606C624.682 130.528 627.283 134.25 630.621 141.74L618.148 141.423L617.18 134.454C613.346 140.171 611.523 143.358 609.31 148.984C611.619 154.862 613.544 158.041 618.929 163.327Z" stroke="#344F10"/>
<path d="M566.3 121.8L572.217 124.183C564.103 145.989 559.833 157.719 600.753 160.298L600.203 140.484C592.186 142.736 587.67 143.207 579.504 142.497L585.829 131.737L592.391 134.269C589.252 128.143 587.349 125.003 583.504 120.338C577.245 119.508 573.533 119.652 566.3 121.8Z" stroke="#344F10"/>
<defs>
<clipPath id="clip0_21779_1056">
<rect width="182" height="397" fill="white" transform="translate(88 88)"/>
</clipPath>
</defs>
</svg>
