<svg width="1040" height="574" viewBox="0 0 1040 574" fill="none" xmlns="http://www.w3.org/2000/svg">
<rect width="1040" height="573.004" fill="white"/>
<circle cx="165.5" cy="138.502" r="2.5" transform="rotate(-180 165.5 138.502)" fill="#333333"/>
<circle cx="165.5" cy="211.502" r="2.5" transform="rotate(-180 165.5 211.502)" fill="#333333"/>
<circle cx="165.5" cy="287.502" r="2.5" fill="#333333"/>
<circle cx="165.5" cy="287.502" r="2.5" fill="#333333"/>
<circle cx="165.5" cy="360.502" r="2.5" fill="#333333"/>
<circle cx="165.5" cy="360.502" r="2.5" fill="#333333"/>
<circle cx="165.5" cy="360.502" r="2.5" fill="#333333"/>
<circle cx="165.5" cy="360.502" r="2.5" fill="#333333"/>
<circle cx="165.5" cy="432.502" r="2.5" fill="#333333"/>
<path fill-rule="evenodd" clip-rule="evenodd" d="M186.868 102.875C330.779 83.7629 413.726 82.3333 567.133 102.875L568 102.991V103.866V170.251V171.251H567H558.927V201.697V202.697H557.927H542.735C542.665 203.069 542.575 203.562 542.477 204.153C542.244 205.56 541.965 207.519 541.778 209.726C541.402 214.182 541.423 219.482 542.853 223.309C544.376 227.39 548.228 231.748 551.817 235.152C553.594 236.837 555.272 238.257 556.507 239.256C557.124 239.755 557.629 240.148 557.979 240.415C558.153 240.549 558.289 240.651 558.381 240.72L558.421 240.75L558.484 240.797L558.51 240.815L558.516 240.82L558.517 240.82L558.513 240.826L558.517 240.821L558.927 241.12V241.628V267.082H567H568V268.082V427.307V428.307H567H558.927V464.243V465.055L558.132 465.222C432.233 491.576 351.765 491.617 197.506 465.229L196.674 465.087V464.243V428.307H187H186V427.307V268.082V267.082H187H196.674V241.628V241.045L197.182 240.758C198.051 240.266 198.943 239.783 199.843 239.297C202.642 237.784 205.513 236.232 208.004 234.226C211.243 231.619 213.716 228.329 214.294 223.539L214.295 223.529L214.297 223.518C215.225 217.01 215.36 212.558 214.382 202.697H197.674H196.674V201.697V171.251H187H186V170.251V103.866V102.99L186.868 102.875ZM198.674 428.419C345.407 444.01 424.271 444.026 556.927 428.432V463.43C432.002 489.51 351.87 489.556 198.674 463.399V428.419ZM216.392 202.697H540.701C540.642 203.019 540.575 203.398 540.504 203.827C540.265 205.272 539.977 207.286 539.785 209.558C539.537 212.497 539.442 215.94 539.851 219.165H216.824C217.226 214.57 217.123 210.128 216.392 202.697ZM216.62 221.165H540.178C540.382 222.159 540.645 223.115 540.979 224.009C542.675 228.552 546.829 233.178 550.441 236.603C552.265 238.333 553.985 239.788 555.249 240.811C555.882 241.322 556.401 241.727 556.763 242.004C556.822 242.049 556.877 242.09 556.927 242.128V267.707C417.559 274.462 338.512 273.947 198.674 267.626V242.214C199.314 241.858 199.98 241.498 200.662 241.13L200.666 241.128L200.667 241.127L200.675 241.123L200.678 241.121L200.678 241.121C203.509 239.591 206.61 237.916 209.259 235.784C212.773 232.955 215.618 229.235 216.278 223.79C216.407 222.883 216.521 222.014 216.62 221.165ZM541.916 200.697H556.927V171.251H198.674V200.697L215.286 200.697L541.916 200.697ZM197.674 169.251L197.674 169.251H557.927L557.927 169.251H566V104.741C413.641 84.387 330.94 85.7978 188 104.742V169.251H197.674ZM197.629 269.58L197.651 269.082H188V426.307H197.674H197.727L197.78 426.313C345.503 442.051 424.308 442.06 557.81 426.314L557.868 426.307H557.927H566V269.082H559.553L559.577 269.58C418.229 276.485 338.97 275.984 197.629 269.58Z" fill="#344F10"/>
<rect x="164" y="139.002" width="76" height="1" transform="rotate(-180 164 139.002)" fill="#333333"/>
<rect x="164" y="212.002" width="76" height="1" transform="rotate(-180 164 212.002)" fill="#333333"/>
<rect x="164" y="288.002" width="76" height="1" transform="rotate(-180 164 288.002)" fill="#333333"/>
<rect x="164" y="361.002" width="76" height="1" transform="rotate(-180 164 361.002)" fill="#333333"/>
<rect x="164" y="433.002" width="76" height="1" transform="rotate(-180 164 433.002)" fill="#333333"/>
<circle cx="165.5" cy="432.502" r="2.5" fill="#333333"/>
<circle cx="165.5" cy="432.502" r="2.5" fill="#333333"/>
<circle cx="165.5" cy="432.502" r="2.5" fill="#333333"/>
<path d="M627.926 141.39H616V139.356C616.66 103.578 665.944 107.208 672.001 123.593C676.474 123.363 677.925 122.723 679.26 119.525C682.531 118.246 684.537 118.203 686.519 119.525C688.401 115.228 689.34 113.23 690.667 110.881H694.297L690.667 121.559C701.514 136.255 693.589 140.712 686.519 141.39C681.645 141.547 677.267 141.538 672.001 141.39M627.926 141.39C626.278 143.97 626.187 145.421 627.926 148H655.408C662.61 146.731 666.276 145.348 672.001 141.39M627.926 141.39H672.001" stroke="#344F10"/>
<path d="M627.408 116.983L630 110.373M630 110.373L624.815 99.1864M630 110.373L637.26 112.407L641.926 106.814M624.815 99.1864L627.408 92.0678M624.815 99.1864L632.593 96.6441M641.926 106.814V96.6441M641.926 106.814L648.667 111.898M641.926 96.6441L647.111 89.5254M641.926 96.6441H649.704" stroke="#344F10"/>
<path d="M684.445 126.644L686.779 129.441M689.112 132.237L686.779 129.441M686.779 129.441L689.112 126.644M686.779 129.441L683.408 132.237M658.001 125.119H648.149V130.712H658.001V135.288H634.148V119.017L659.038 120.034L658.001 125.119Z" stroke="#344F10"/>
<path d="M679.26 119.525L680.988 111.39H684.445V118.701" stroke="#344F10"/>
<path d="M682.371 103.763C683.518 102.066 682.931 101.183 680.297 99.6949C679.464 98.1102 680.17 97.2203 682.371 95.6271C683.179 94.1773 682.642 93.2711 680.297 91.5593C679.732 89.7798 680.175 89.0163 682.371 88" stroke="#344F10"/>
<path d="M692.223 104.271C693.167 102.486 692.894 101.484 690.149 99.6949C689.576 98.5079 689.822 97.6748 692.223 95.6271C692.318 94.04 692.102 93.1524 690.149 91.5593C690.069 89.7163 690.416 88.8797 692.223 88" stroke="#344F10"/>
<path d="M651.26 125.627V130.712" stroke="#344F10"/>
<path d="M628.963 126.644L624.815 133.254" stroke="#344F10"/>
<path d="M665.278 126.644C665.278 127.201 664.815 127.67 664.223 127.67C663.63 127.67 663.167 127.201 663.167 126.644C663.167 126.087 663.63 125.619 664.223 125.619C664.815 125.619 665.278 126.087 665.278 126.644Z" stroke="#344F10"/>
<path d="M804.701 98.8561L800.548 101.857C789.341 86.8213 783.271 78.7977 763.921 105.609L777.514 113.862C779.446 107.409 781.073 104.121 785.066 98.8561L789.597 107.86L785.066 111.236C790.547 111.761 793.483 111.83 798.282 111.236C801.535 107.325 803.036 104.729 804.701 98.8561Z" stroke="#344F10"/>
<path d="M795.143 148.979L794.515 143.852C812.914 141.041 822.775 139.461 808.706 109.467L795.061 117.633C799.746 122.427 801.827 125.441 804.497 131.503L794.518 131.247L793.744 125.605C790.677 130.234 789.219 132.813 787.448 137.368C789.295 142.126 790.835 144.7 795.143 148.979Z" stroke="#344F10"/>
<path d="M753.04 115.362L757.774 117.291C751.282 134.943 747.866 144.439 780.602 146.527L780.162 130.487C773.749 132.31 770.136 132.691 763.603 132.116L768.663 123.406L773.913 125.456C771.401 120.496 769.879 117.955 766.803 114.179C761.796 113.507 758.826 113.623 753.04 115.362Z" stroke="#344F10"/>
<path d="M916.169 162.999L913.205 157.485M886.825 108.407L894.235 122.193M894.235 122.193L897.636 110.612M894.235 122.193L882.706 118.884M894.235 122.193L900.756 134.324M900.756 134.324L905.358 116.678M900.756 134.324L885.28 129.913M900.756 134.324L908.462 148.662M908.462 148.662L914.624 125.501M908.462 148.662L886.825 142.596M908.462 148.662L913.205 157.485M913.205 157.485C935.583 127.835 939.282 111.879 877.043 88.5548" stroke="#344F10"/>
<path d="M877.029 88C863.005 154.989 879.358 158.587 913.08 157.486M926.98 135.428L929.039 132.204M940.365 114.473L933.672 124.951M933.672 124.951H942.424M933.672 124.951L931.098 116.679M933.672 124.951L929.039 132.204M929.039 132.204H940.365M929.039 132.204L923.376 142.597L936.761 143.7" stroke="#344F10"/>
<path d="M915.654 154.177C946.905 153.741 958.753 147.088 948.27 100.222" stroke="#344F10"/>
<path d="M948.601 100.688C937.301 103.306 931.429 105.552 923.891 114.474" stroke="#344F10"/>
</svg>
