<svg width="398" height="397" viewBox="0 0 398 397" fill="none" xmlns="http://www.w3.org/2000/svg">
<g clip-path="url(#clip0_21779_893)">
<path fill-rule="evenodd" clip-rule="evenodd" d="M98.8684 14.8733C242.779 -4.23879 325.726 -5.66845 479.133 14.8734L480 14.9895V15.8646V82.2497V83.2497H479H470.927V113.695V114.695H469.927H454.735C454.665 115.067 454.575 115.56 454.477 116.152C454.244 117.559 453.965 119.518 453.778 121.724C453.402 126.181 453.423 131.48 454.853 135.308C456.376 139.388 460.228 143.747 463.817 147.15C465.594 148.835 467.272 150.255 468.507 151.254C469.124 151.753 469.629 152.146 469.979 152.414C470.153 152.547 470.289 152.65 470.381 152.718L470.421 152.748L470.484 152.795L470.51 152.814L470.516 152.818L470.517 152.819L470.513 152.824L470.517 152.819L470.927 153.118V153.626V179.081H479H480V180.081V339.305V340.305H479H470.927V376.241V377.054L470.132 377.22C344.233 403.574 263.765 403.615 109.506 377.227L108.674 377.085V376.241V340.305H99H98V339.305V180.081V179.081H99H108.674V153.626V153.043L109.182 152.756C110.051 152.264 110.943 151.782 111.843 151.296C114.642 149.782 117.513 148.23 120.004 146.224C123.243 143.617 125.716 140.327 126.294 135.538L126.295 135.527L126.297 135.516C127.225 129.008 127.36 124.557 126.382 114.695H109.674H108.674V113.695V83.2497H99H98V82.2497V15.8646V14.9886L98.8684 14.8733ZM110.674 340.417C257.407 356.008 336.271 356.024 468.927 340.43V375.429C344.002 401.508 263.87 401.554 110.674 375.398V340.417ZM128.392 114.695H452.701C452.642 115.017 452.575 115.396 452.504 115.825C452.265 117.271 451.977 119.284 451.785 121.556C451.537 124.495 451.442 127.939 451.851 131.163H128.824C129.226 126.568 129.123 122.126 128.392 114.695ZM128.62 133.163H452.178C452.382 134.157 452.645 135.113 452.979 136.007C454.675 140.55 458.829 145.176 462.441 148.601C464.265 150.331 465.985 151.786 467.249 152.809C467.882 153.321 468.401 153.725 468.763 154.002C468.822 154.047 468.877 154.089 468.927 154.127V179.705C329.559 186.461 250.512 185.945 110.674 179.624V154.212C111.314 153.856 111.98 153.497 112.662 153.128L112.666 153.126L112.667 153.125L112.675 153.121L112.678 153.12L112.678 153.119C115.509 151.59 118.61 149.915 121.259 147.782C124.773 144.953 127.618 141.233 128.278 135.788C128.407 134.881 128.521 134.012 128.62 133.163ZM453.916 112.695H468.927V83.2495H110.674V112.695L127.286 112.695L453.916 112.695ZM109.674 81.2497L109.674 81.2495H469.927L469.927 81.2497H478V16.7397C325.641 -3.61474 242.94 -2.20394 100 16.7407V81.2497H109.674ZM109.629 181.579L109.651 181.081H100V338.305H109.674H109.727L109.78 338.311C257.503 354.049 336.308 354.058 469.81 338.312L469.868 338.305H469.927H478V181.081H471.553L471.577 181.578C330.229 188.483 250.97 187.982 109.629 181.579Z" fill="#344F10"/>
<circle cx="77.5" cy="50.5" r="2.5" transform="rotate(-180 77.5 50.5)" fill="#333333"/>
<circle cx="77.5" cy="123.5" r="2.5" transform="rotate(-180 77.5 123.5)" fill="#333333"/>
<circle cx="77.5" cy="199.5" r="2.5" fill="#333333"/>
<rect x="76" y="51" width="76" height="1" transform="rotate(-180 76 51)" fill="#333333"/>
<rect x="76" y="124" width="76" height="1" transform="rotate(-180 76 124)" fill="#333333"/>
<rect x="76" y="200" width="76" height="1" transform="rotate(-180 76 200)" fill="#333333"/>
<circle cx="77.5" cy="199.5" r="2.5" fill="#333333"/>
<circle cx="77.5" cy="272.5" r="2.5" fill="#333333"/>
<rect x="76" y="273" width="76" height="1" transform="rotate(-180 76 273)" fill="#333333"/>
<circle cx="77.5" cy="272.5" r="2.5" fill="#333333"/>
<circle cx="77.5" cy="272.5" r="2.5" fill="#333333"/>
<circle cx="77.5" cy="272.5" r="2.5" fill="#333333"/>
<circle cx="77.5" cy="344.5" r="2.5" fill="#333333"/>
<rect x="76" y="345" width="76" height="1" transform="rotate(-180 76 345)" fill="#333333"/>
<circle cx="77.5" cy="344.5" r="2.5" fill="#333333"/>
<circle cx="77.5" cy="344.5" r="2.5" fill="#333333"/>
<circle cx="77.5" cy="344.5" r="2.5" fill="#333333"/>
</g>
<defs>
<clipPath id="clip0_21779_893">
<rect width="398" height="397" fill="white" transform="translate(0 -0.00170898)"/>
</clipPath>
</defs>
</svg>
