<?xml version="1.0" encoding="UTF-8" standalone="no"?>
<svg
   xmlns:dc="http://purl.org/dc/elements/1.1/"
   xmlns:cc="http://creativecommons.org/ns#"
   xmlns:rdf="http://www.w3.org/1999/02/22-rdf-syntax-ns#"
   xmlns:svg="http://www.w3.org/2000/svg"
   xmlns="http://www.w3.org/2000/svg"
   xmlns:sodipodi="http://sodipodi.sourceforge.net/DTD/sodipodi-0.dtd"
   xmlns:inkscape="http://www.inkscape.org/namespaces/inkscape"
   version="1.1"
   id="Шар_1"
   x="0px"
   y="0px"
   viewBox="0 0 523.00001 397.7928"
   xml:space="preserve"
   sodipodi:docname="tooth-mobile.svg"
   inkscape:version="1.0.1 (3bc2e813f5, 2020-09-07)"
   width="523"
   height="397.79282"><metadata
   id="metadata70"><rdf:RDF><cc:Work
       rdf:about=""><dc:format>image/svg+xml</dc:format><dc:type
         rdf:resource="http://purl.org/dc/dcmitype/StillImage" /><dc:title /></cc:Work></rdf:RDF></metadata><defs
   id="defs68" /><sodipodi:namedview
   pagecolor="#ffffff"
   bordercolor="#666666"
   borderopacity="1"
   objecttolerance="10"
   gridtolerance="10"
   guidetolerance="10"
   inkscape:pageopacity="0"
   inkscape:pageshadow="2"
   inkscape:window-width="1368"
   inkscape:window-height="850"
   id="namedview66"
   showgrid="false"
   showguides="true"
   inkscape:guide-bbox="true"
   inkscape:zoom="1.6092532"
   inkscape:cx="218.49999"
   inkscape:cy="149.13032"
   inkscape:window-x="-6"
   inkscape:window-y="-6"
   inkscape:window-maximized="1"
   inkscape:current-layer="Шар_1"
   inkscape:document-rotation="0"><sodipodi:guide
     position="-118.21312,197.08578"
     orientation="1,0"
     id="guide84" /></sodipodi:namedview>
<style
   type="text/css"
   id="style41">
	.st0{fill-rule:evenodd;clip-rule:evenodd;fill:#344F10;}
	.st1{fill:#333333;}
</style>
<path
   class="st0"
   d="m 141.8,14.89281 c 143.9,-19.1000005 226.9,-20.6000005 380.3,0 l 0.9,0.1 v 0.9 66.5 1 h -1 -8.1 v 30.5 1 h -1 -15.2 c -0.1,0.4 -0.2,0.9 -0.3,1.5 -0.2,1.4 -0.5,3.4 -0.7,5.6 -0.4,4.5 -0.4,9.8 1.1,13.6 1.5,4.1 5.4,8.5 9,11.9 1.8,1.7 3.5,3.1 4.7,4.1 0.6,0.5 1.1,0.9 1.5,1.2 0.2,0.1 0.3,0.2 0.4,0.3 l 0.1,0.1 v 0 0 0 0 l 0.4,0.3 v 0.5 25.5 h 8.1 1 v 1 159.5 1 h -1 -8.1 v 36 0.8 l -0.8,0.2 c -125.9,26.4 -206.4,26.4 -360.6,0 l -0.8,-0.1 v -0.8 -36 h -9.7 -1 v -1 -159.7 -1 h 1 9.7 v -25.5 -0.6 l 0.5,-0.3 c 0.9,-0.5 1.8,-1 2.7,-1.5 2.8,-1.5 5.7,-3.1 8.2,-5.1 3.2,-2.6 5.7,-5.9 6.3,-10.7 v 0 0 c 0.9,-6.5 1.1,-11 0.1,-20.9 h -16.7 -1 v -1 -30.4 h -9.7 -1 v -1 -66.5 -0.9 z m 11.8,326.1 c 146.7,15.6 225.6,15.6 358.3,0 v 35.1 c -124.9,26.1 -205.1,26.2 -358.3,0 z m 17.7,-226.1 h 324.3 c -0.1,0.3 -0.1,0.7 -0.2,1.1 -0.2,1.4 -0.5,3.5 -0.7,5.7 -0.2,2.9 -0.3,6.4 0.1,9.6 h -323 c 0.4,-4.5 0.3,-9 -0.5,-16.4 z m 0.3,18.5 h 323.6 c 0.2,1 0.5,2 0.8,2.8 1.7,4.6 5.8,9.2 9.5,12.6 1.8,1.7 3.5,3.2 4.8,4.2 0.6,0.5 1.2,0.9 1.5,1.2 0.1,0 0.1,0.1 0.2,0.1 v 25.7 c -139.4,6.8 -218.4,6.3 -358.3,-0.1 v -25.5 c 0.6,-0.4 1.3,-0.7 2,-1.1 v 0 0 c 2.8,-1.5 5.9,-3.2 8.6,-5.3 3.5,-2.8 6.4,-6.6 7,-12 0,-0.9 0.2,-1.8 0.3,-2.6 z m -1.4,-20.5 h 326.6 15 v -29.5 H 153.6 v 29.5 z m -17.6,-31.5 v 0 h 360.3 8.1 v -64.6 c -152.4,-20.4000005 -235.1,-19.0000005 -378,0 v 64.6 c 0,0 9.6,0 9.6,0 z m 0,100.5 v -0.5 h -9.7 v 157.5 h 9.7 0.1 0.1 c 147.7,15.8 226.5,15.8 360,0 h 0.1 0.1 8.1 v -157.5 h -6.4 v 0.5 c -141.5,6.9 -220.8,6.4 -362.1,0 z"
   id="path43" />
<path
   class="st1"
   d="m 0.1,265.89281 h 1.2 v 10.5 h 5.2 v 1.2 H 0 v -11.7 z m 8.5,3.7 h 1.2 v 8 H 8.6 Z m -0.4,-2.7 c 0,-0.3 0.1,-0.5 0.3,-0.7 0.2,-0.2 0.4,-0.3 0.7,-0.3 0.3,0 0.5,0.1 0.7,0.3 0.2,0.2 0.3,0.4 0.3,0.7 0,0.3 -0.1,0.5 -0.3,0.7 -0.2,0.2 -0.4,0.3 -0.7,0.3 -0.3,0 -0.5,-0.1 -0.7,-0.3 -0.2,-0.2 -0.3,-0.4 -0.3,-0.7 z m 7.6,10.8 c -0.6,0 -1.1,-0.1 -1.6,-0.3 -0.5,-0.2 -0.9,-0.5 -1.3,-0.9 -0.4,-0.4 -0.7,-0.8 -0.9,-1.3 -0.2,-0.5 -0.3,-1.1 -0.3,-1.6 0,-0.5 0.1,-1.1 0.3,-1.6 0.2,-0.5 0.5,-1 0.9,-1.3 0.4,-0.4 0.8,-0.7 1.3,-0.9 0.5,-0.2 1,-0.3 1.6,-0.3 0.6,0 1.1,0.1 1.5,0.3 0.5,0.2 0.9,0.4 1.2,0.7 0.4,0.3 0.6,0.7 0.9,1.1 0.2,0.4 0.4,0.9 0.5,1.4 h -1.3 c -0.1,-0.7 -0.4,-1.3 -0.9,-1.7 -0.5,-0.4 -1.1,-0.6 -1.9,-0.6 -0.4,0 -0.8,0.1 -1.1,0.2 -0.4,0.2 -0.7,0.4 -0.9,0.7 -0.3,0.3 -0.5,0.6 -0.6,1 -0.1,0.4 -0.2,0.8 -0.2,1.2 0,0.4 0.1,0.8 0.2,1.2 0.1,0.4 0.4,0.7 0.6,1 0.3,0.3 0.6,0.5 0.9,0.6 0.4,0.2 0.7,0.2 1.1,0.2 0.4,0 0.7,-0.1 1,-0.2 0.3,-0.1 0.6,-0.3 0.8,-0.5 0.3,-0.2 0.5,-0.5 0.6,-0.8 0.2,-0.3 0.3,-0.6 0.4,-1 h 1.3 c -0.1,0.5 -0.2,1 -0.5,1.4 -0.2,0.4 -0.5,0.8 -0.9,1.1 -0.4,0.3 -0.8,0.5 -1.2,0.7 -0.5,0.1 -1,0.2 -1.5,0.2 z m 9.8,0 c -0.6,0 -1.1,-0.1 -1.6,-0.3 -0.5,-0.2 -0.9,-0.5 -1.3,-0.9 -0.4,-0.4 -0.7,-0.8 -0.9,-1.3 -0.2,-0.5 -0.3,-1.1 -0.3,-1.6 0,-0.5 0.1,-1.1 0.3,-1.6 0.2,-0.5 0.5,-1 0.9,-1.3 0.4,-0.4 0.8,-0.7 1.3,-0.9 0.5,-0.2 1,-0.3 1.6,-0.3 0.6,0 1.1,0.1 1.6,0.3 0.5,0.2 1,0.5 1.3,0.9 0.4,0.4 0.7,0.8 0.9,1.3 0.2,0.5 0.3,1 0.3,1.6 0,0.6 -0.1,1.1 -0.3,1.6 -0.2,0.5 -0.5,0.9 -0.9,1.3 -0.4,0.4 -0.8,0.7 -1.3,0.9 -0.4,0.2 -1,0.3 -1.6,0.3 z m 0,-1.1 c 0.4,0 0.8,-0.1 1.1,-0.2 0.4,-0.2 0.7,-0.4 0.9,-0.6 0.3,-0.3 0.5,-0.6 0.6,-1 0.1,-0.4 0.2,-0.8 0.2,-1.2 0,-0.4 -0.1,-0.8 -0.2,-1.2 -0.1,-0.4 -0.4,-0.7 -0.6,-1 -0.3,-0.3 -0.6,-0.5 -0.9,-0.7 -0.4,-0.2 -0.7,-0.2 -1.1,-0.2 -0.4,0 -0.8,0.1 -1.1,0.2 -0.4,0.2 -0.7,0.4 -0.9,0.7 -0.3,0.3 -0.5,0.6 -0.6,1 -0.1,0.4 -0.2,0.8 -0.2,1.2 0,0.4 0.1,0.8 0.2,1.2 0.1,0.4 0.4,0.7 0.6,1 0.3,0.3 0.6,0.5 0.9,0.6 0.4,0.1 0.7,0.2 1.1,0.2 z m 6.1,-7 h 1.2 v 1.2 c 0.2,-0.4 0.5,-0.7 0.9,-0.8 0.4,-0.2 0.8,-0.3 1.3,-0.3 h 1 v 1.2 h -1 c -0.8,0 -1.4,0.2 -1.7,0.7 -0.3,0.4 -0.5,1.1 -0.5,2 v 4.1 h -1.2 c 0,0 0,-8.1 0,-8.1 z m 6.2,0 h 1.2 v 8 h -1.2 z m -0.4,-2.7 c 0,-0.3 0.1,-0.5 0.3,-0.7 0.2,-0.2 0.4,-0.3 0.7,-0.3 0.3,0 0.5,0.1 0.7,0.3 0.2,0.2 0.3,0.4 0.3,0.7 0,0.3 -0.1,0.5 -0.3,0.7 -0.2,0.2 -0.4,0.3 -0.7,0.3 -0.3,0 -0.5,-0.1 -0.7,-0.3 -0.2,-0.2 -0.3,-0.4 -0.3,-0.7 z m 7.6,10.8 c -0.6,0 -1.1,-0.1 -1.6,-0.3 -0.5,-0.2 -0.9,-0.5 -1.3,-0.9 -0.4,-0.4 -0.7,-0.8 -0.9,-1.3 -0.2,-0.5 -0.3,-1.1 -0.3,-1.6 0,-0.5 0.1,-1.1 0.3,-1.6 0.2,-0.5 0.5,-1 0.9,-1.3 0.4,-0.4 0.8,-0.7 1.3,-0.9 0.5,-0.2 1,-0.3 1.6,-0.3 0.6,0 1.1,0.1 1.5,0.3 0.5,0.2 0.9,0.4 1.2,0.7 0.4,0.3 0.6,0.7 0.9,1.1 0.2,0.4 0.4,0.9 0.5,1.4 h -1.3 c -0.1,-0.7 -0.4,-1.3 -0.9,-1.7 -0.5,-0.4 -1.1,-0.6 -1.9,-0.6 -0.4,0 -0.8,0.1 -1.1,0.2 -0.4,0.2 -0.7,0.4 -0.9,0.7 -0.3,0.3 -0.5,0.6 -0.6,1 -0.1,0.4 -0.2,0.8 -0.2,1.2 0,0.4 0.1,0.8 0.2,1.2 0.1,0.4 0.4,0.7 0.6,1 0.3,0.3 0.6,0.5 0.9,0.6 0.4,0.2 0.7,0.2 1.1,0.2 0.4,0 0.7,-0.1 1,-0.2 0.3,-0.1 0.6,-0.3 0.8,-0.5 0.3,-0.2 0.5,-0.5 0.6,-0.8 0.2,-0.3 0.3,-0.6 0.4,-1 h 1.3 c -0.1,0.5 -0.2,1 -0.5,1.4 -0.2,0.4 -0.5,0.8 -0.9,1.1 -0.4,0.3 -0.8,0.5 -1.2,0.7 -0.5,0.1 -1,0.2 -1.5,0.2 z m 9.8,0 c -0.6,0 -1.2,-0.1 -1.7,-0.3 -0.5,-0.2 -0.9,-0.5 -1.3,-0.9 -0.4,-0.4 -0.6,-0.8 -0.8,-1.3 -0.2,-0.5 -0.3,-1 -0.3,-1.6 0,-0.6 0.1,-1.2 0.3,-1.7 0.2,-0.5 0.5,-1 0.9,-1.3 0.4,-0.4 0.8,-0.7 1.3,-0.9 0.5,-0.2 1.1,-0.3 1.7,-0.3 0.6,0 1.1,0.1 1.6,0.3 0.5,0.2 0.9,0.5 1.3,0.8 0.4,0.4 0.7,0.8 0.9,1.3 0.2,0.5 0.3,1 0.3,1.6 v 0.5 H 52 c 0,0.4 0.1,0.7 0.3,1.1 0.2,0.3 0.4,0.6 0.6,0.9 0.3,0.2 0.6,0.4 0.9,0.6 0.4,0.1 0.7,0.2 1.2,0.2 0.7,0 1.2,-0.2 1.7,-0.5 0.5,-0.3 0.8,-0.7 1,-1.3 H 59 c -0.3,0.9 -0.8,1.6 -1.5,2.1 -0.7,0.5 -1.6,0.7 -2.6,0.7 z m 0,-7.2 c -0.4,0 -0.7,0.1 -1,0.2 -0.3,0.1 -0.6,0.3 -0.8,0.5 -0.2,0.2 -0.5,0.4 -0.6,0.7 -0.2,0.3 -0.3,0.6 -0.4,0.9 h 5.7 c -0.1,-0.7 -0.4,-1.3 -0.9,-1.7 -0.5,-0.4 -1.2,-0.6 -2,-0.6 z m 10.6,-4.6 h 3.6 c 0.6,0 1.1,0.1 1.6,0.3 0.5,0.2 0.9,0.5 1.3,0.8 0.4,0.3 0.6,0.7 0.8,1.2 0.2,0.4 0.3,0.9 0.3,1.4 0,0.4 -0.1,0.8 -0.2,1.2 -0.1,0.4 -0.3,0.7 -0.6,1.1 -0.2,0.3 -0.5,0.6 -0.9,0.8 -0.4,0.2 -0.8,0.4 -1.2,0.5 l 3,4.4 h -1.5 l -3.5,-5.3 H 69 c 0.4,0 0.8,-0.1 1.2,-0.2 0.4,-0.1 0.7,-0.3 0.9,-0.6 0.2,-0.3 0.4,-0.5 0.6,-0.8 0.1,-0.3 0.2,-0.6 0.2,-1 0,-0.4 -0.1,-0.7 -0.2,-1 -0.1,-0.3 -0.3,-0.6 -0.6,-0.8 -0.2,-0.2 -0.5,-0.4 -0.9,-0.5 -0.3,-0.1 -0.7,-0.2 -1.2,-0.2 h -2.2 v 10.5 h -1.2 v -11.8 z m 12.9,11.8 c -0.6,0 -1.1,-0.1 -1.6,-0.3 -0.5,-0.2 -0.9,-0.5 -1.3,-0.9 -0.4,-0.4 -0.7,-0.8 -0.9,-1.3 -0.2,-0.5 -0.3,-1.1 -0.3,-1.6 0,-0.5 0.1,-1.1 0.3,-1.6 0.2,-0.5 0.5,-1 0.9,-1.3 0.4,-0.4 0.8,-0.7 1.3,-0.9 0.5,-0.2 1,-0.3 1.6,-0.3 0.6,0 1.1,0.1 1.6,0.3 0.5,0.2 1,0.5 1.3,0.9 0.4,0.4 0.7,0.8 0.9,1.3 0.2,0.5 0.3,1 0.3,1.6 0,0.6 -0.1,1.1 -0.3,1.6 -0.2,0.5 -0.5,0.9 -0.9,1.3 -0.4,0.4 -0.8,0.7 -1.3,0.9 -0.5,0.2 -1,0.3 -1.6,0.3 z m 0,-1.1 c 0.4,0 0.8,-0.1 1.1,-0.2 0.4,-0.2 0.7,-0.4 0.9,-0.6 0.3,-0.3 0.5,-0.6 0.6,-1 0.1,-0.4 0.2,-0.8 0.2,-1.2 0,-0.4 -0.1,-0.8 -0.2,-1.2 -0.1,-0.4 -0.4,-0.7 -0.6,-1 -0.3,-0.3 -0.6,-0.5 -0.9,-0.7 -0.4,-0.2 -0.7,-0.2 -1.1,-0.2 -0.4,0 -0.8,0.1 -1.1,0.2 -0.4,0.2 -0.7,0.4 -0.9,0.7 -0.3,0.3 -0.5,0.6 -0.6,1 -0.1,0.4 -0.2,0.8 -0.2,1.2 0,0.4 0.1,0.8 0.2,1.2 0.1,0.4 0.4,0.7 0.6,1 0.3,0.3 0.6,0.5 0.9,0.6 0.3,0.1 0.7,0.2 1.1,0.2 z m 10,1.1 c -0.6,0 -1.1,-0.1 -1.6,-0.3 -0.5,-0.2 -0.9,-0.5 -1.3,-0.9 -0.4,-0.4 -0.7,-0.8 -0.9,-1.3 -0.2,-0.5 -0.3,-1.1 -0.3,-1.6 0,-0.5 0.1,-1.1 0.3,-1.6 0.2,-0.5 0.5,-1 0.9,-1.3 0.4,-0.4 0.8,-0.7 1.3,-0.9 0.5,-0.2 1,-0.3 1.6,-0.3 0.6,0 1.1,0.1 1.6,0.3 0.5,0.2 1,0.5 1.3,0.9 0.4,0.4 0.7,0.8 0.9,1.3 0.2,0.5 0.3,1 0.3,1.6 0,0.6 -0.1,1.1 -0.3,1.6 -0.2,0.5 -0.5,0.9 -0.9,1.3 -0.4,0.4 -0.8,0.7 -1.3,0.9 -0.5,0.2 -1.1,0.3 -1.6,0.3 z m 0,-1.1 c 0.4,0 0.8,-0.1 1.1,-0.2 0.4,-0.2 0.7,-0.4 0.9,-0.6 0.3,-0.3 0.5,-0.6 0.6,-1 0.1,-0.4 0.2,-0.8 0.2,-1.2 0,-0.4 -0.1,-0.8 -0.2,-1.2 -0.1,-0.4 -0.4,-0.7 -0.6,-1 -0.3,-0.3 -0.6,-0.5 -0.9,-0.7 -0.4,-0.2 -0.7,-0.2 -1.1,-0.2 -0.4,0 -0.8,0.1 -1.1,0.2 -0.4,0.2 -0.7,0.4 -0.9,0.7 -0.3,0.3 -0.5,0.6 -0.6,1 -0.1,0.4 -0.2,0.8 -0.2,1.2 0,0.4 0.1,0.8 0.2,1.2 0.1,0.4 0.4,0.7 0.6,1 0.3,0.3 0.6,0.5 0.9,0.6 0.3,0.1 0.6,0.2 1.1,0.2 z m 5,-7 h 1.4 v -1.9 l 1.2,-0.7 v 2.6 h 1.9 v 1.1 H 96 v 3.8 c 0,0.4 0,0.7 0.1,1 0.1,0.2 0.1,0.4 0.3,0.6 0.2,0.2 0.3,0.2 0.6,0.3 0.3,0.1 0.6,0.1 1,0.1 v 1.2 h -0.2 c -0.6,0 -1.1,0 -1.5,-0.1 -0.4,-0.1 -0.7,-0.3 -0.9,-0.5 -0.2,-0.2 -0.4,-0.5 -0.5,-0.9 -0.1,-0.4 -0.1,-0.9 -0.1,-1.5 v -3.8 h -1.4 z"
   id="path45" />
<path
   class="st1"
   d="m 35.2,345.79281 h -3.4 v -1.2 h 8 v 1.2 h -3.3 v 10.5 h -1.3 z m 7.9,10.6 c -1.1,0 -2,-0.3 -2.6,-1 -0.6,-0.7 -0.9,-1.6 -0.9,-2.7 v -4.4 h 1.2 v 4.4 c 0,0.8 0.2,1.4 0.6,1.9 0.4,0.5 1,0.7 1.7,0.7 0.3,0 0.7,-0.1 0.9,-0.2 0.3,-0.1 0.6,-0.3 0.8,-0.6 0.2,-0.2 0.4,-0.5 0.5,-0.8 0.1,-0.3 0.2,-0.7 0.2,-1 v -4.4 h 1.2 v 8 h -1.2 v -1.2 c -0.3,0.4 -0.6,0.7 -1.1,1 -0.3,0.2 -0.8,0.3 -1.3,0.3 z m 6,-8.1 h 1.2 v 1.2 c 0.2,-0.4 0.5,-0.7 0.9,-0.8 0.4,-0.2 0.8,-0.3 1.3,-0.3 h 1 v 1.2 h -1 c -0.8,0 -1.4,0.2 -1.7,0.7 -0.3,0.4 -0.5,1.1 -0.5,2 v 4.1 h -1.2 z m 6.2,0 h 1.2 v 1.1 c 0.3,-0.4 0.6,-0.7 1,-0.9 0.4,-0.2 0.9,-0.3 1.5,-0.3 0.7,0 1.3,0.2 1.8,0.5 0.5,0.3 0.8,0.7 1.1,1.2 0.3,-0.5 0.6,-0.9 1.1,-1.2 0.5,-0.3 1.1,-0.4 1.8,-0.4 0.6,0 1.1,0.1 1.5,0.3 0.4,0.2 0.8,0.4 1.1,0.7 0.3,0.3 0.5,0.7 0.7,1.1 0.2,0.4 0.2,0.9 0.2,1.4 v 4.7 h -1.2 v -4.8 c 0,-0.7 -0.2,-1.2 -0.6,-1.6 -0.4,-0.4 -1,-0.6 -1.7,-0.6 -0.3,0 -0.6,0.1 -0.9,0.2 -0.3,0.1 -0.5,0.3 -0.7,0.5 -0.2,0.2 -0.4,0.5 -0.5,0.8 -0.1,0.3 -0.2,0.6 -0.2,1 v 4.7 h -1.3 v -4.9 c 0,-0.6 -0.2,-1.2 -0.6,-1.5 -0.4,-0.4 -0.9,-0.6 -1.6,-0.6 -0.4,0 -0.7,0.1 -1,0.2 -0.3,0.1 -0.6,0.3 -0.8,0.5 -0.2,0.2 -0.4,0.5 -0.5,0.8 -0.1,0.3 -0.2,0.7 -0.2,1.1 v 4.5 h -1.2 z m 19,8.1 c -0.6,0 -1.2,-0.1 -1.7,-0.3 -0.5,-0.2 -0.9,-0.5 -1.3,-0.9 -0.4,-0.4 -0.6,-0.8 -0.8,-1.3 -0.2,-0.5 -0.3,-1 -0.3,-1.6 0,-0.6 0.1,-1.2 0.3,-1.7 0.2,-0.5 0.5,-1 0.9,-1.3 0.4,-0.4 0.8,-0.7 1.3,-0.9 0.5,-0.2 1.1,-0.3 1.7,-0.3 0.6,0 1.1,0.1 1.6,0.3 0.5,0.2 0.9,0.5 1.3,0.8 0.4,0.4 0.7,0.8 0.9,1.3 0.2,0.5 0.3,1 0.3,1.6 v 0.5 h -7.1 c 0,0.4 0.1,0.7 0.3,1.1 0.2,0.3 0.4,0.6 0.6,0.9 0.3,0.2 0.6,0.4 0.9,0.6 0.4,0.1 0.7,0.2 1.2,0.2 0.7,0 1.2,-0.2 1.7,-0.5 0.5,-0.3 0.8,-0.7 1,-1.3 h 1.3 c -0.3,0.9 -0.8,1.6 -1.5,2.1 -0.7,0.5 -1.6,0.7 -2.6,0.7 z m 0,-7.2 c -0.4,0 -0.7,0.1 -1,0.2 -0.3,0.1 -0.6,0.3 -0.8,0.5 -0.2,0.2 -0.5,0.4 -0.6,0.7 -0.2,0.3 -0.3,0.6 -0.4,0.9 h 5.7 c -0.1,-0.7 -0.4,-1.3 -0.9,-1.7 -0.6,-0.4 -1.2,-0.6 -2,-0.6 z m 6,-0.9 h 1.2 v 1.2 c 0.2,-0.4 0.5,-0.7 0.9,-0.8 0.4,-0.2 0.8,-0.3 1.3,-0.3 h 1 v 1.2 h -1 c -0.8,0 -1.4,0.2 -1.7,0.7 -0.3,0.4 -0.5,1.1 -0.5,2 v 4.1 h -1.2 z m 6.2,0 h 1.2 v 8 h -1.2 z m -0.3,-2.7 c 0,-0.3 0.1,-0.5 0.3,-0.7 0.2,-0.2 0.4,-0.3 0.7,-0.3 0.3,0 0.5,0.1 0.7,0.3 0.2,0.2 0.3,0.4 0.3,0.7 0,0.3 -0.1,0.5 -0.3,0.7 -0.2,0.2 -0.4,0.3 -0.7,0.3 -0.3,0 -0.5,-0.1 -0.7,-0.3 -0.2,-0.1 -0.3,-0.4 -0.3,-0.7 z m 7.6,10.8 c -0.6,0 -1.1,-0.1 -1.6,-0.3 -0.5,-0.2 -0.9,-0.5 -1.3,-0.9 -0.4,-0.4 -0.7,-0.8 -0.9,-1.3 -0.2,-0.5 -0.3,-1.1 -0.3,-1.6 0,-0.5 0.1,-1.1 0.3,-1.6 0.2,-0.5 0.5,-1 0.9,-1.3 0.4,-0.4 0.8,-0.7 1.3,-0.9 0.5,-0.2 1,-0.3 1.6,-0.3 0.6,0 1.1,0.1 1.5,0.3 0.5,0.2 0.9,0.4 1.2,0.7 0.4,0.3 0.6,0.7 0.9,1.1 0.2,0.4 0.4,0.9 0.5,1.4 h -1.3 c -0.1,-0.7 -0.4,-1.3 -0.9,-1.7 -0.5,-0.4 -1.1,-0.6 -1.9,-0.6 -0.4,0 -0.8,0.1 -1.1,0.2 -0.4,0.2 -0.7,0.4 -0.9,0.7 -0.3,0.3 -0.5,0.6 -0.6,1 -0.1,0.4 -0.2,0.8 -0.2,1.2 0,0.4 0.1,0.8 0.2,1.2 0.1,0.4 0.4,0.7 0.6,1 0.3,0.3 0.6,0.5 0.9,0.6 0.4,0.2 0.7,0.2 1.1,0.2 0.4,0 0.7,-0.1 1,-0.2 0.3,-0.1 0.6,-0.3 0.8,-0.5 0.3,-0.2 0.5,-0.5 0.6,-0.8 0.2,-0.3 0.3,-0.6 0.4,-1 h 1.3 c -0.1,0.5 -0.2,1 -0.5,1.4 -0.2,0.4 -0.5,0.8 -0.9,1.1 -0.4,0.3 -0.8,0.5 -1.2,0.7 -0.5,0.2 -1,0.2 -1.5,0.2 z"
   id="path47" />

<path
   class="st1"
   d="m 57.3,48.99281 -2.2,2.6 v 3.6 h -1.2 v -11.7 h 1.2 v 6.4 l 5.5,-6.4 h 1.5 l -4,4.7 4.5,7 h -1.4 z m 10.1,6.3 c -0.6,0 -1.1,-0.1 -1.6,-0.3 -0.5,-0.2 -0.9,-0.5 -1.3,-0.9 -0.4,-0.4 -0.7,-0.8 -0.9,-1.3 -0.2,-0.5 -0.3,-1 -0.3,-1.6 0,-0.6 0.1,-1.1 0.3,-1.6 0.2,-0.5 0.5,-0.9 0.8,-1.3 0.4,-0.4 0.8,-0.7 1.3,-0.9 0.5,-0.2 1.1,-0.3 1.6,-0.3 0.3,0 0.5,0 0.8,0.1 0.3,0.1 0.5,0.2 0.8,0.3 0.3,0.1 0.5,0.3 0.8,0.5 0.2,0.2 0.4,0.4 0.6,0.6 v -1.3 h 1.2 v 8 h -1.2 v -1.3 c -0.2,0.2 -0.4,0.5 -0.6,0.6 -0.2,0.2 -0.5,0.3 -0.8,0.5 -0.3,0.1 -0.5,0.2 -0.8,0.3 -0.2,-0.1 -0.5,-0.1 -0.7,-0.1 z m 0,-1.1 c 0.4,0 0.8,-0.1 1.2,-0.2 0.4,-0.2 0.7,-0.4 1,-0.6 0.3,-0.3 0.5,-0.6 0.6,-1 0.1,-0.4 0.2,-0.8 0.2,-1.2 0,-0.4 -0.1,-0.8 -0.2,-1.2 -0.1,-0.4 -0.4,-0.7 -0.6,-1 -0.3,-0.3 -0.6,-0.5 -1,-0.7 -0.4,-0.2 -0.8,-0.2 -1.2,-0.2 -0.4,0 -0.8,0.1 -1.2,0.2 -0.4,0.2 -0.7,0.4 -0.9,0.7 -0.3,0.3 -0.5,0.6 -0.6,1 -0.1,0.4 -0.2,0.8 -0.2,1.2 0,0.4 0.1,0.8 0.2,1.2 0.1,0.4 0.4,0.7 0.6,1 0.3,0.3 0.6,0.5 0.9,0.6 0.5,0.1 0.8,0.2 1.2,0.2 z m 10.2,1.1 c -0.6,0 -1.1,-0.1 -1.6,-0.3 -0.5,-0.2 -0.9,-0.5 -1.3,-0.9 -0.4,-0.4 -0.7,-0.8 -0.9,-1.3 -0.2,-0.5 -0.3,-1.1 -0.3,-1.6 0,-0.5 0.1,-1.1 0.3,-1.6 0.2,-0.5 0.5,-1 0.9,-1.3 0.4,-0.4 0.8,-0.7 1.3,-0.9 0.5,-0.2 1,-0.3 1.6,-0.3 0.6,0 1.1,0.1 1.6,0.3 0.5,0.2 1,0.5 1.3,0.9 0.4,0.4 0.7,0.8 0.9,1.3 0.2,0.5 0.3,1 0.3,1.6 0,0.6 -0.1,1.1 -0.3,1.6 -0.2,0.5 -0.5,0.9 -0.9,1.3 -0.4,0.4 -0.8,0.7 -1.3,0.9 -0.5,0.2 -1.1,0.3 -1.6,0.3 z m 0,-1.1 c 0.4,0 0.8,-0.1 1.1,-0.2 0.4,-0.2 0.7,-0.4 0.9,-0.6 0.3,-0.3 0.5,-0.6 0.6,-1 0.1,-0.4 0.2,-0.8 0.2,-1.2 0,-0.4 -0.1,-0.8 -0.2,-1.2 -0.1,-0.4 -0.4,-0.7 -0.6,-1 -0.3,-0.3 -0.6,-0.5 -0.9,-0.7 -0.4,-0.2 -0.7,-0.2 -1.1,-0.2 -0.4,0 -0.8,0.1 -1.1,0.2 -0.3,0.1 -0.7,0.4 -0.9,0.7 -0.3,0.3 -0.5,0.6 -0.6,1 -0.1,0.4 -0.2,0.8 -0.2,1.2 0,0.4 0.1,0.8 0.2,1.2 0.1,0.4 0.4,0.7 0.6,1 0.3,0.3 0.6,0.5 0.9,0.6 0.3,0.1 0.6,0.2 1.1,0.2 z m 6,-10.7 h 1.2 v 11.7 h -1.2 z m 3.5,3.7 h 1.2 v 8 h -1.2 z m -0.4,-2.7 c 0,-0.3 0.1,-0.5 0.3,-0.7 0.2,-0.2 0.4,-0.3 0.7,-0.3 0.3,0 0.5,0.1 0.7,0.3 0.2,0.2 0.3,0.4 0.3,0.7 0,0.3 -0.1,0.5 -0.3,0.7 -0.2,0.2 -0.4,0.3 -0.7,0.3 -0.3,0 -0.5,-0.1 -0.7,-0.3 -0.2,-0.2 -0.3,-0.4 -0.3,-0.7 z m 3.8,2.7 h 1.2 v 1.1 c 0.3,-0.4 0.6,-0.7 1.1,-1 0.5,-0.2 1,-0.4 1.6,-0.4 1.1,0 1.9,0.3 2.5,1 0.6,0.7 0.9,1.6 0.9,2.7 v 4.4 h -1.2 v -4.4 c 0,-0.8 -0.2,-1.4 -0.6,-1.9 -0.4,-0.5 -1,-0.7 -1.8,-0.7 -0.4,0 -0.7,0.1 -1,0.2 -0.3,0.1 -0.6,0.3 -0.8,0.5 -0.2,0.2 -0.4,0.5 -0.5,0.8 -0.1,0.3 -0.2,0.7 -0.2,1 v 4.4 h -1.2 z"
   id="path51" />

<rect
   x="113.2"
   y="48.892811"
   class="st1"
   width="76"
   height="1"
   id="rect55" />
<rect
   x="113.2"
   y="125.49281"
   class="st1"
   width="76"
   height="1"
   id="rect57" />
<rect
   x="113.2"
   y="199.29282"
   class="st1"
   width="76"
   height="1"
   id="rect59" />
<rect
   x="113.2"
   y="271.29279"
   class="st1"
   width="76"
   height="1"
   id="rect61" />
<rect
   x="113.2"
   y="350.19281"
   class="st1"
   width="76"
   height="1"
   id="rect63" />
<path
   d="m 40.81364,193.46422 c -0.832,0 -1.6106,-0.1547 -2.336,-0.464 -0.7253,-0.32 -1.36,-0.752 -1.904,-1.296 -0.544,-0.544 -0.976,-1.17867 -1.296,-1.904 -0.3093,-0.72533 -0.464,-1.504 -0.464,-2.336 0,-0.832 0.1547,-1.61067 0.464,-2.336 0.32,-0.72533 0.752,-1.36 1.296,-1.904 0.544,-0.544 1.1787,-0.97067 1.904,-1.28 0.7254,-0.32 1.504,-0.48 2.336,-0.48 0.672,0 1.312,0.10666 1.92,0.32 0.608,0.20266 1.1627,0.49066 1.664,0.864 0.512,0.37333 0.9494,0.82133 1.312,1.344 0.3734,0.512 0.6507,1.07733 0.832,1.696 h -1.344 c -0.1706,-0.448 -0.4,-0.85333 -0.688,-1.216 -0.288,-0.37333 -0.6186,-0.69333 -0.992,-0.96 -0.3733,-0.27733 -0.7893,-0.49067 -1.248,-0.64 -0.4586,-0.14933 -0.944,-0.224 -1.456,-0.224 -0.672,0 -1.296,0.128 -1.872,0.384 -0.576,0.256 -1.0773,0.60267 -1.504,1.04 -0.416,0.43733 -0.7466,0.94933 -0.992,1.536 -0.2346,0.576 -0.352,1.19467 -0.352,1.856 0,0.66133 0.1174,1.28533 0.352,1.872 0.2454,0.576 0.576,1.08267 0.992,1.52 0.4267,0.43733 0.928,0.784 1.504,1.04 0.576,0.256 1.2,0.384 1.872,0.384 0.512,0 0.992,-0.0693 1.44,-0.208 0.448,-0.1493 0.8587,-0.3573 1.232,-0.624 0.3734,-0.26667 0.6987,-0.576 0.976,-0.928 0.288,-0.36267 0.5227,-0.76267 0.704,-1.2 h 1.36 c -0.192,0.608 -0.4746,1.168 -0.848,1.68 -0.3733,0.5013 -0.8106,0.9387 -1.312,1.312 -0.4906,0.3627 -1.04,0.6453 -1.648,0.848 -0.608,0.2027 -1.2426,0.304 -1.904,0.304 z m 11.4859,0 c -0.5867,0 -1.1307,-0.1067 -1.632,-0.32 -0.5013,-0.224 -0.9333,-0.5227 -1.296,-0.896 -0.3627,-0.384 -0.6507,-0.8267 -0.864,-1.328 -0.2027,-0.50133 -0.304,-1.04 -0.304,-1.616 0,-0.576 0.1013,-1.11467 0.304,-1.616 0.2027,-0.50133 0.4853,-0.93867 0.848,-1.312 0.3627,-0.384 0.7947,-0.68267 1.296,-0.896 0.5013,-0.224 1.0507,-0.336 1.648,-0.336 0.256,0 0.5173,0.032 0.784,0.096 0.2773,0.064 0.544,0.16 0.8,0.288 0.2667,0.128 0.5173,0.28267 0.752,0.464 0.2347,0.18133 0.4373,0.38933 0.608,0.624 v -1.312 h 1.232 v 8 h -1.232 v -1.312 c -0.1707,0.2453 -0.3733,0.4587 -0.608,0.64 -0.2347,0.1813 -0.4853,0.336 -0.752,0.464 -0.256,0.1173 -0.5227,0.208 -0.8,0.272 -0.2667,0.064 -0.528,0.096 -0.784,0.096 z m 0.064,-1.12 c 0.4267,0 0.8213,-0.08 1.184,-0.24 0.3733,-0.16 0.6933,-0.3733 0.96,-0.64 0.2667,-0.27733 0.4747,-0.60267 0.624,-0.976 0.1493,-0.37333 0.224,-0.768 0.224,-1.184 0,-0.416 -0.0747,-0.80533 -0.224,-1.168 -0.1493,-0.37333 -0.3573,-0.69867 -0.624,-0.976 -0.2667,-0.27733 -0.5867,-0.496 -0.96,-0.656 -0.3627,-0.16 -0.7573,-0.24 -1.184,-0.24 -0.4053,0 -0.7893,0.08 -1.152,0.24 -0.352,0.16 -0.6613,0.37867 -0.928,0.656 -0.256,0.26667 -0.4587,0.58667 -0.608,0.96 -0.1493,0.37333 -0.224,0.768 -0.224,1.184 0,0.416 0.0747,0.81067 0.224,1.184 0.1493,0.37333 0.352,0.69867 0.608,0.976 0.2667,0.2667 0.576,0.48 0.928,0.64 0.3627,0.16 0.7467,0.24 1.152,0.24 z m 6.2694,-10.72 h 1.248 v 11.68 h -1.248 z m 7.2459,11.84 c -0.576,0 -1.1147,-0.1067 -1.616,-0.32 -0.5014,-0.2133 -0.944,-0.5067 -1.328,-0.88 -0.3734,-0.3733 -0.6667,-0.8107 -0.88,-1.312 -0.2134,-0.512 -0.32,-1.06133 -0.32,-1.648 0,-0.58667 0.1066,-1.13067 0.32,-1.632 0.2133,-0.512 0.5066,-0.95467 0.88,-1.328 0.384,-0.37333 0.8266,-0.66667 1.328,-0.88 0.5013,-0.21333 1.04,-0.32 1.616,-0.32 0.5546,0 1.0666,0.0853 1.536,0.256 0.48,0.17067 0.896,0.41067 1.248,0.72 0.352,0.29867 0.64,0.66133 0.864,1.088 0.2346,0.416 0.3893,0.88 0.464,1.392 h -1.264 c -0.1174,-0.704 -0.432,-1.26933 -0.944,-1.696 -0.5014,-0.42667 -1.136,-0.64 -1.904,-0.64 -0.4054,0 -0.784,0.08 -1.136,0.24 -0.352,0.16 -0.6614,0.37867 -0.928,0.656 -0.256,0.26667 -0.4587,0.58667 -0.608,0.96 -0.1494,0.37333 -0.224,0.768 -0.224,1.184 0,0.416 0.0746,0.81067 0.224,1.184 0.1493,0.37333 0.352,0.69867 0.608,0.976 0.2666,0.2667 0.576,0.48 0.928,0.64 0.352,0.16 0.7306,0.24 1.136,0.24 0.3626,0 0.6986,-0.0533 1.008,-0.16 0.32,-0.1173 0.6026,-0.2773 0.848,-0.48 0.256,-0.2133 0.4693,-0.464 0.64,-0.752 0.1706,-0.29867 0.288,-0.624 0.352,-0.976 h 1.264 c -0.0747,0.52267 -0.2347,0.99733 -0.48,1.424 -0.2347,0.4267 -0.5334,0.7947 -0.896,1.104 -0.3627,0.2987 -0.7787,0.5333 -1.248,0.704 -0.4587,0.1707 -0.9547,0.256 -1.488,0.256 z m 5.9725,-8.16 h 1.248 v 8 h -1.248 z m -0.352,-2.64 c 0,-0.27733 0.0906,-0.50667 0.272,-0.688 0.192,-0.192 0.4266,-0.288 0.704,-0.288 0.288,0 0.5226,0.096 0.704,0.288 0.192,0.18133 0.288,0.41067 0.288,0.688 0,0.27733 -0.096,0.512 -0.288,0.704 -0.1814,0.192 -0.416,0.288 -0.704,0.288 -0.288,0 -0.5227,-0.096 -0.704,-0.288 -0.1814,-0.192 -0.272,-0.42667 -0.272,-0.704 z m 7.1666,10.8 c -1.1307,0 -1.9894,-0.3253 -2.576,-0.976 -0.5867,-0.6613 -0.88,-1.57333 -0.88,-2.736 v -4.448 h 1.248 v 4.448 c 0,0.77867 0.1973,1.408 0.592,1.888 0.3946,0.4693 0.9706,0.704 1.728,0.704 0.3413,0 0.656,-0.064 0.944,-0.192 0.2986,-0.1387 0.55459,-0.3253 0.768,-0.56 0.224,-0.2347 0.39459,-0.512 0.512,-0.832 0.128,-0.32 0.192,-0.66133 0.192,-1.024 v -4.432 h 1.232 v 8 h -1.216 v -1.152 c -0.2774,0.4053 -0.6347,0.7253 -1.07201,0.96 -0.43739,0.2347 -0.92799,0.352 -1.47199,0.352 z m 5.9979,-8.16 h 1.216 v 1.088 c 0.2666,-0.384 0.6133,-0.688 1.04,-0.912 0.43729,-0.224 0.944,-0.336 1.52,-0.336 0.7253,0 1.3226,0.15467 1.792,0.464 0.48,0.29867 0.832,0.688 1.056,1.168 0.256,-0.49067 0.6346,-0.88533 1.136,-1.184 0.5013,-0.29867 1.08799,-0.448 1.76,-0.448 0.576,0 1.0826,0.0853 1.51999,0.256 0.44801,0.17067 0.82131,0.41067 1.12001,0.72 0.3093,0.29867 0.5386,0.66133 0.688,1.088 0.16,0.416 0.23999,0.88 0.23999,1.392 v 4.704 h -1.24799 v -4.784 c 0,-0.672 -0.208,-1.216 -0.624,-1.632 -0.416,-0.42667 -0.9867,-0.64 -1.71201,-0.64 -0.33069,0 -0.63999,0.0533 -0.928,0.16 -0.2774,0.10667 -0.52269,0.26667 -0.73599,0.48 -0.2134,0.20267 -0.38401,0.45333 -0.512,0.752 -0.1174,0.29867 -0.17611,0.63467 -0.17611,1.008 v 4.656 h -1.23189 v -4.928 c 0,-0.64 -0.208,-1.152 -0.624,-1.536 -0.4054,-0.39467 -0.944,-0.592 -1.616,-0.592 -0.352,0 -0.6774,0.0587 -0.976,0.176 -0.2987,0.11733 -0.56,0.28267 -0.784,0.496 -0.2134,0.21333 -0.384,0.48 -0.512,0.8 -0.1174,0.32 -0.176,0.67733 -0.176,1.072 v 4.512 h -1.232 z m -63.8658,32.16 c -0.832,0 -1.61067,-0.1547 -2.336,-0.464 -0.72533,-0.32 -1.36,-0.752 -1.904,-1.296 -0.544,-0.544 -0.976,-1.1787 -1.296,-1.904 -0.30933,-0.7253 -0.464,-1.504 -0.464,-2.336 0,-0.832 0.15467,-1.6107 0.464,-2.336 0.32,-0.7253 0.752,-1.36 1.296,-1.904 0.544,-0.544 1.17867,-0.9707 1.904,-1.28 0.72533,-0.32 1.504,-0.48 2.336,-0.48 0.672,0 1.312,0.1067 1.92,0.32 0.608,0.2027 1.1627,0.4907 1.664,0.864 0.512,0.3733 0.9493,0.8213 1.312,1.344 0.3733,0.512 0.6507,1.0773 0.832,1.696 h -1.344 c -0.1707,-0.448 -0.4,-0.8533 -0.688,-1.216 -0.288,-0.3733 -0.6187,-0.6933 -0.992,-0.96 -0.37333,-0.2773 -0.78933,-0.4907 -1.248,-0.64 -0.45867,-0.1493 -0.944,-0.224 -1.456,-0.224 -0.672,0 -1.296,0.128 -1.872,0.384 -0.576,0.256 -1.07733,0.6027 -1.504,1.04 -0.416,0.4373 -0.74667,0.9493 -0.992,1.536 -0.23467,0.576 -0.352,1.1947 -0.352,1.856 0,0.6613 0.11733,1.2853 0.352,1.872 0.24533,0.576 0.576,1.0827 0.992,1.52 0.42667,0.4373 0.928,0.784 1.504,1.04 0.576,0.256 1.2,0.384 1.872,0.384 0.512,0 0.992,-0.0693 1.44,-0.208 0.448,-0.1493 0.85867,-0.3573 1.232,-0.624 0.3733,-0.2667 0.6987,-0.576 0.976,-0.928 0.288,-0.3627 0.5227,-0.7627 0.704,-1.2 h 1.36 c -0.192,0.608 -0.4747,1.168 -0.848,1.68 -0.3733,0.5013 -0.8107,0.9387 -1.312,1.312 -0.4907,0.3627 -1.04,0.6453 -1.648,0.848 -0.608,0.2027 -1.24267,0.304 -1.904,0.304 z m 11.4859,0 c -0.5867,0 -1.1307,-0.1067 -1.632,-0.32 -0.5014,-0.224 -0.9334,-0.5227 -1.296,-0.896 -0.3627,-0.384 -0.6507,-0.8267 -0.864,-1.328 -0.2027,-0.5013 -0.304,-1.04 -0.304,-1.616 0,-0.576 0.1013,-1.1147 0.304,-1.616 0.2026,-0.5013 0.4853,-0.9387 0.848,-1.312 0.3626,-0.384 0.7946,-0.6827 1.296,-0.896 0.5013,-0.224 1.0506,-0.336 1.648,-0.336 0.256,0 0.5173,0.032 0.784,0.096 0.2773,0.064 0.544,0.16 0.8,0.288 0.2666,0.128 0.5173,0.2827 0.752,0.464 0.2346,0.1813 0.4373,0.3893 0.608,0.624 v -1.312 h 1.232 v 8 h -1.232 v -1.312 c -0.1707,0.2453 -0.3734,0.4587 -0.608,0.64 -0.2347,0.1813 -0.4854,0.336 -0.752,0.464 -0.256,0.1173 -0.5227,0.208 -0.8,0.272 -0.2667,0.064 -0.528,0.096 -0.784,0.096 z m 0.064,-1.12 c 0.4266,0 0.8213,-0.08 1.184,-0.24 0.3733,-0.16 0.6933,-0.3733 0.96,-0.64 0.2666,-0.2773 0.4746,-0.6027 0.624,-0.976 0.1493,-0.3733 0.224,-0.768 0.224,-1.184 0,-0.416 -0.0747,-0.8053 -0.224,-1.168 -0.1494,-0.3733 -0.3574,-0.6987 -0.624,-0.976 -0.2667,-0.2773 -0.5867,-0.496 -0.96,-0.656 -0.3627,-0.16 -0.7574,-0.24 -1.184,-0.24 -0.4054,0 -0.7894,0.08 -1.152,0.24 -0.352,0.16 -0.6614,0.3787 -0.928,0.656 -0.256,0.2667 -0.4587,0.5867 -0.608,0.96 -0.1494,0.3733 -0.224,0.768 -0.224,1.184 0,0.416 0.0746,0.8107 0.224,1.184 0.1493,0.3733 0.352,0.6987 0.608,0.976 0.2666,0.2667 0.576,0.48 0.928,0.64 0.3626,0.16 0.7466,0.24 1.152,0.24 z m 6.3471,-7.04 h 1.232 v 1.152 c 0.2133,-0.3733 0.5067,-0.656 0.88,-0.848 0.384,-0.2027 0.832,-0.304 1.344,-0.304 h 0.992 v 1.152 h -0.992 c -0.8107,0 -1.3813,0.2187 -1.712,0.656 -0.3307,0.4267 -0.496,1.1093 -0.496,2.048 v 4.144 h -1.248 z m 10.3628,8.16 c -0.5227,0 -1.0614,-0.1227 -1.616,-0.368 -0.544,-0.256 -0.9867,-0.624 -1.328,-1.104 v 1.312 h -1.184 v -11.68 h 1.2 v 4.976 c 0.3413,-0.48 0.784,-0.8427 1.328,-1.088 0.544,-0.2453 1.0773,-0.368 1.6,-0.368 0.5973,0 1.1466,0.112 1.648,0.336 0.5013,0.2133 0.9333,0.512 1.296,0.896 0.3626,0.3733 0.6453,0.8107 0.848,1.312 0.2026,0.5013 0.304,1.04 0.304,1.616 0,0.576 -0.1067,1.1147 -0.32,1.616 -0.2027,0.5013 -0.4854,0.944 -0.848,1.328 -0.3627,0.3733 -0.7947,0.672 -1.296,0.896 -0.5014,0.2133 -1.0454,0.32 -1.632,0.32 z m -0.064,-1.12 c 0.4053,0 0.784,-0.08 1.136,-0.24 0.3626,-0.16 0.672,-0.3733 0.928,-0.64 0.2666,-0.2773 0.4746,-0.6027 0.624,-0.976 0.1493,-0.3733 0.224,-0.768 0.224,-1.184 0,-0.416 -0.0747,-0.8107 -0.224,-1.184 -0.1494,-0.3733 -0.3574,-0.6933 -0.624,-0.96 -0.256,-0.2773 -0.5654,-0.496 -0.928,-0.656 -0.352,-0.16 -0.7307,-0.24 -1.136,-0.24 -0.4267,0 -0.8267,0.08 -1.2,0.24 -0.3627,0.16 -0.6774,0.3787 -0.944,0.656 -0.2667,0.2773 -0.4747,0.6027 -0.624,0.976 -0.1494,0.3627 -0.224,0.752 -0.224,1.168 0,0.416 0.0746,0.8107 0.224,1.184 0.1493,0.3733 0.3573,0.6987 0.624,0.976 0.2666,0.2667 0.5813,0.48 0.944,0.64 0.3733,0.16 0.7733,0.24 1.2,0.24 z m 9.9322,1.12 c -0.576,0 -1.1147,-0.1067 -1.616,-0.32 -0.5013,-0.2133 -0.944,-0.5067 -1.328,-0.88 -0.3733,-0.3733 -0.6667,-0.8107 -0.88,-1.312 -0.2133,-0.512 -0.32,-1.0613 -0.32,-1.648 0,-0.5867 0.1067,-1.1307 0.32,-1.632 0.2133,-0.512 0.5067,-0.9547 0.88,-1.328 0.384,-0.3733 0.8267,-0.6667 1.328,-0.88 0.5013,-0.2133 1.04,-0.32 1.616,-0.32 0.576,0 1.1147,0.1067 1.616,0.32 0.512,0.2133 0.9547,0.5067 1.328,0.88 0.3733,0.3733 0.6667,0.816 0.88,1.328 0.224,0.5013 0.336,1.0453 0.336,1.632 0,0.5867 -0.112,1.136 -0.336,1.648 -0.2133,0.5013 -0.5067,0.9387 -0.88,1.312 -0.3733,0.3733 -0.816,0.6667 -1.328,0.88 -0.5013,0.2133 -1.04,0.32 -1.616,0.32 z m 0,-1.12 c 0.4053,0 0.784,-0.08 1.136,-0.24 0.3627,-0.16 0.672,-0.3733 0.928,-0.64 0.2667,-0.2773 0.4747,-0.6027 0.624,-0.976 0.1493,-0.3733 0.224,-0.768 0.224,-1.184 0,-0.416 -0.0747,-0.8107 -0.224,-1.184 -0.1493,-0.3733 -0.3573,-0.6933 -0.624,-0.96 -0.256,-0.2773 -0.5653,-0.496 -0.928,-0.656 -0.352,-0.16 -0.7307,-0.24 -1.136,-0.24 -0.4053,0 -0.784,0.08 -1.136,0.24 -0.352,0.16 -0.6613,0.3787 -0.928,0.656 -0.256,0.2667 -0.4587,0.5867 -0.608,0.96 -0.1493,0.3733 -0.224,0.768 -0.224,1.184 0,0.416 0.0747,0.8107 0.224,1.184 0.1493,0.3733 0.352,0.6987 0.608,0.976 0.2667,0.2667 0.576,0.48 0.928,0.64 0.352,0.16 0.7307,0.24 1.136,0.24 z m 6.019,-7.04 h 1.216 v 1.184 c 0.2773,-0.4053 0.6453,-0.7307 1.104,-0.976 0.4693,-0.2453 1.008,-0.368 1.616,-0.368 1.0773,0 1.9253,0.3307 2.544,0.992 0.6187,0.6507 0.928,1.5573 0.928,2.72 v 4.448 h -1.248 v -4.448 c 0,-0.7787 -0.2027,-1.4027 -0.608,-1.872 -0.3947,-0.48 -0.992,-0.72 -1.792,-0.72 -0.3627,0 -0.6987,0.0693 -1.008,0.208 -0.3093,0.128 -0.576,0.3093 -0.8,0.544 -0.224,0.2347 -0.4,0.512 -0.528,0.832 -0.128,0.32 -0.192,0.6613 -0.192,1.024 v 4.432 h -1.232 z m 13.3076,8.16 c -0.5866,0 -1.1306,-0.1067 -1.632,-0.32 -0.5013,-0.224 -0.9333,-0.5227 -1.296,-0.896 -0.3626,-0.384 -0.6506,-0.8267 -0.864,-1.328 -0.2026,-0.5013 -0.304,-1.04 -0.304,-1.616 0,-0.576 0.1014,-1.1147 0.304,-1.616 0.2027,-0.5013 0.4854,-0.9387 0.848,-1.312 0.3627,-0.384 0.7947,-0.6827 1.296,-0.896 0.5014,-0.224 1.0507,-0.336 1.648,-0.336 0.256,0 0.5174,0.032 0.784,0.096 0.2774,0.064 0.544,0.16 0.8,0.288 0.2667,0.128 0.5174,0.2827 0.752,0.464 0.2347,0.1813 0.4374,0.3893 0.608,0.624 v -1.312 h 1.232 v 8 h -1.232 v -1.312 c -0.1706,0.2453 -0.3733,0.4587 -0.608,0.64 -0.2346,0.1813 -0.4853,0.336 -0.752,0.464 -0.256,0.1173 -0.5226,0.208 -0.8,0.272 -0.2666,0.064 -0.528,0.096 -0.784,0.096 z m 0.064,-1.12 c 0.4267,0 0.8214,-0.08 1.184,-0.24 0.3734,-0.16 0.6934,-0.3733 0.96,-0.64 0.2667,-0.2773 0.4747,-0.6027 0.624,-0.976 0.1494,-0.3733 0.224,-0.768 0.224,-1.184 0,-0.416 -0.0746,-0.8053 -0.224,-1.168 -0.1493,-0.3733 -0.3573,-0.6987 -0.624,-0.976 -0.2666,-0.2773 -0.5866,-0.496 -0.96,-0.656 -0.3626,-0.16 -0.7573,-0.24 -1.184,-0.24 -0.4053,0 -0.7893,0.08 -1.152,0.24 -0.352,0.16 -0.6613,0.3787 -0.928,0.656 -0.256,0.2667 -0.4586,0.5867 -0.608,0.96 -0.1493,0.3733 -0.224,0.768 -0.224,1.184 0,0.416 0.0747,0.8107 0.224,1.184 0.1494,0.3733 0.352,0.6987 0.608,0.976 0.2667,0.2667 0.576,0.48 0.928,0.64 0.3627,0.16 0.7467,0.24 1.152,0.24 z m 5.7254,-7.04 h 1.376 v -1.888 l 1.248,-0.688 v 2.576 h 1.888 v 1.12 h -1.888 v 3.808 c 0,0.4053 0.0213,0.736 0.064,0.992 0.0533,0.2453 0.1493,0.4373 0.288,0.576 0.1387,0.1387 0.3307,0.2293 0.576,0.272 0.2453,0.0427 0.5653,0.064 0.96,0.064 v 1.168 h -0.176 c -0.5867,0 -1.072,-0.048 -1.456,-0.144 -0.3733,-0.096 -0.672,-0.256 -0.896,-0.48 -0.224,-0.2347 -0.384,-0.5493 -0.48,-0.944 -0.0853,-0.3947 -0.128,-0.8907 -0.128,-1.488 v -3.824 h -1.376 z m 9.836,8.16 c -0.6293,0 -1.2,-0.1067 -1.712,-0.32 -0.5013,-0.224 -0.9333,-0.5173 -1.296,-0.88 -0.352,-0.3733 -0.624,-0.8053 -0.816,-1.296 -0.192,-0.5013 -0.288,-1.0347 -0.288,-1.6 0,-0.5973 0.10129,-1.152 0.304,-1.664 0.2133,-0.5227 0.5013,-0.9707 0.864,-1.344 0.3733,-0.384 0.8107,-0.6827 1.312,-0.896 0.512,-0.2133 1.0667,-0.32 1.664,-0.32 0.576,0 1.1093,0.096 1.6,0.288 0.5013,0.192 0.9333,0.464 1.296,0.816 0.3733,0.352 0.6667,0.7787 0.88,1.28 0.2133,0.4907 0.32,1.04 0.32,1.648 v 0.496 h -7.056 c 0.032,0.3733 0.12269,0.7253 0.272,1.056 0.16,0.3307 0.368,0.6187 0.62399,0.864 0.25601,0.2347 0.55471,0.4213 0.89601,0.56 0.352,0.1387 0.736,0.208 1.152,0.208 0.672,0 1.2373,-0.1547 1.696,-0.464 0.45869,-0.3093 0.7787,-0.736 0.96,-1.28 h 1.328 c -0.288,0.8853 -0.7733,1.584 -1.456,2.096 -0.672,0.5013 -1.52,0.752 -2.544,0.752 z m 0.032,-7.216 c -0.3627,0 -0.704,0.0587 -1.024,0.176 -0.3093,0.1067 -0.5867,0.2667 -0.832,0.48 -0.2453,0.2027 -0.4587,0.448 -0.64,0.736 -0.1707,0.2773 -0.2933,0.5813 -0.368,0.912 h 5.696 c -0.1173,-0.7253 -0.4267,-1.2907 -0.928,-1.696 -0.4907,-0.4053 -1.1253,-0.608 -1.904,-0.608 z"
   fill="#333333"
   id="path20" /><path
   d="m 63.6676,130.27406 c -0.56533,0 -1.07733,-0.0747 -1.536,-0.224 -0.45867,-0.16 -0.85333,-0.3893 -1.184,-0.688 -0.32,-0.2987 -0.57067,-0.6667 -0.752,-1.104 -0.17066,-0.43733 -0.256,-0.93867 -0.256,-1.504 h 1.232 v 0.096 c 0,0.352 0.0587,0.672 0.176,0.96 0.128,0.27733 0.29867,0.5173 0.512,0.72 0.224,0.192 0.48533,0.3413 0.784,0.448 0.29867,0.1067 0.624,0.16 0.976,0.16 0.74667,0 1.328,-0.192 1.744,-0.576 0.42667,-0.3947 0.64,-0.912 0.64,-1.552 0,-0.384 -0.0747,-0.704 -0.224,-0.96 -0.14933,-0.256 -0.352,-0.47467 -0.608,-0.656 -0.24533,-0.192 -0.53333,-0.352 -0.864,-0.48 -0.33067,-0.128 -0.672,-0.256 -1.024,-0.384 -0.39467,-0.13867 -0.77867,-0.288 -1.152,-0.448 -0.37333,-0.17067 -0.704,-0.37867 -0.992,-0.624 -0.288,-0.24533 -0.52267,-0.544 -0.704,-0.896 -0.17067,-0.352 -0.256,-0.77867 -0.256,-1.28 0,-0.45867 0.0853,-0.87467 0.256,-1.248 0.17067,-0.37333 0.41067,-0.688 0.72,-0.944 0.30933,-0.26667 0.672,-0.46934 1.088,-0.608 0.42667,-0.13867 0.89067,-0.208 1.392,-0.208 0.544,0 1.03467,0.0747 1.472,0.224 0.43733,0.14933 0.80533,0.36266 1.104,0.64 0.30933,0.27733 0.544,0.61333 0.704,1.008 0.16,0.39467 0.23467,0.84267 0.224,1.344 h -1.216 v -0.112 c 0,-0.608 -0.20267,-1.09333 -0.608,-1.456 -0.39467,-0.37333 -0.94933,-0.56 -1.664,-0.56 -0.66133,0 -1.19467,0.17067 -1.6,0.512 -0.40533,0.34133 -0.608,0.81067 -0.608,1.408 0,0.33067 0.064,0.608 0.192,0.832 0.128,0.224 0.30933,0.416 0.544,0.576 0.23467,0.16 0.512,0.304 0.832,0.432 0.32,0.128 0.672,0.26133 1.056,0.4 0.416,0.14933 0.816,0.32 1.2,0.512 0.384,0.18133 0.72533,0.40533 1.024,0.672 0.30933,0.26667 0.55467,0.58667 0.736,0.96 0.18133,0.36267 0.272,0.80533 0.272,1.328 0,0.448 -0.0853,0.87467 -0.256,1.28 -0.16,0.3947 -0.4,0.7413 -0.72,1.04 -0.30933,0.2987 -0.688,0.5333 -1.136,0.704 -0.448,0.1707 -0.95467,0.256 -1.52,0.256 z m 5.46663,-8.16 h 1.24797 v 8 h -1.24797 z m -0.352,-2.64 c 0,-0.27733 0.0907,-0.50667 0.272,-0.688 0.19197,-0.192 0.42667,-0.288 0.70397,-0.288 0.288,0 0.5227,0.096 0.704,0.288 0.192,0.18133 0.288,0.41067 0.288,0.688 0,0.27733 -0.096,0.512 -0.288,0.704 -0.1813,0.192 -0.416,0.288 -0.704,0.288 -0.288,0 -0.5226,-0.096 -0.70397,-0.288 -0.18134,-0.192 -0.272,-0.42667 -0.272,-0.704 z m 3.15067,2.64 h 1.328 l 2.4159,6.352 2.3841,-6.352 h 1.312 l -3.104,8 h -1.232 z m 12.4777,8.16 c -0.5867,0 -1.1307,-0.1067 -1.632,-0.32 -0.5013,-0.224 -0.9333,-0.5227 -1.296,-0.896 -0.3627,-0.384 -0.6507,-0.8267 -0.864,-1.328 -0.2027,-0.50133 -0.304,-1.04 -0.304,-1.616 0,-0.576 0.1013,-1.11467 0.304,-1.616 0.2027,-0.50133 0.4853,-0.93867 0.848,-1.312 0.3627,-0.384 0.7947,-0.68267 1.296,-0.896 0.5013,-0.224 1.0507,-0.336 1.648,-0.336 0.256,0 0.5173,0.032 0.784,0.096 0.2773,0.064 0.544,0.16 0.8,0.288 0.2667,0.128 0.5173,0.28267 0.752,0.464 0.2347,0.18133 0.4373,0.38933 0.608,0.624 v -1.312 h 1.232 v 8 h -1.232 v -1.312 c -0.1707,0.2453 -0.3733,0.4587 -0.608,0.64 -0.2347,0.1813 -0.4853,0.336 -0.752,0.464 -0.256,0.1173 -0.5227,0.208 -0.8,0.272 -0.2667,0.064 -0.528,0.096 -0.784,0.096 z m 0.064,-1.12 c 0.4267,0 0.8213,-0.08 1.184,-0.24 0.3733,-0.16 0.6933,-0.3733 0.96,-0.64 0.2667,-0.27733 0.4747,-0.60267 0.624,-0.976 0.1493,-0.37333 0.224,-0.768 0.224,-1.184 0,-0.416 -0.0747,-0.80533 -0.224,-1.168 -0.1493,-0.37333 -0.3573,-0.69867 -0.624,-0.976 -0.2667,-0.27733 -0.5867,-0.496 -0.96,-0.656 -0.3627,-0.16 -0.7573,-0.24 -1.184,-0.24 -0.4053,0 -0.7893,0.08 -1.152,0.24 -0.352,0.16 -0.6613,0.37867 -0.928,0.656 -0.256,0.26667 -0.4587,0.58667 -0.608,0.96 -0.1493,0.37333 -0.224,0.768 -0.224,1.184 0,0.416 0.0747,0.81067 0.224,1.184 0.1493,0.37333 0.352,0.69867 0.608,0.976 0.2667,0.2667 0.576,0.48 0.928,0.64 0.3627,0.16 0.7467,0.24 1.152,0.24 z m 9.1014,-2.912 -1.616,1.648 v 2.224 h -1.216 v -11.68 h 1.216 v 8.032 l 4.256,-4.352 h 1.568 l -3.312,3.392 3.328,4.608 h -1.44 z"
   fill="#333333"
   id="path49" /></svg>
