<?xml version="1.0" encoding="utf-8"?>
<!-- Generator: Adobe Illustrator 23.0.1, SVG Export Plug-In . SVG Version: 6.00 Build 0)  -->
<svg version="1.1" id="Шар_1" xmlns="http://www.w3.org/2000/svg" xmlns:xlink="http://www.w3.org/1999/xlink" x="0px" y="0px"
	 viewBox="0 0 608.8 397.7" style="enable-background:new 0 0 608.8 397.7;" xml:space="preserve">
<style type="text/css">
	.st0{fill-rule:evenodd;clip-rule:evenodd;fill:#344F10;}
	.st1{fill:#333333;}
</style>
<path class="st0" d="M227.7,14.9C371.6-4.2,454.6-5.7,608,14.9l0.9,0.1v0.9v66.5v1h-1h-8.1v30.5v1h-1h-15.2
	c-0.1,0.4-0.2,0.9-0.3,1.5c-0.2,1.4-0.5,3.4-0.7,5.6c-0.4,4.5-0.4,9.8,1.1,13.6c1.5,4.1,5.4,8.5,9,11.9c1.8,1.7,3.5,3.1,4.7,4.1
	c0.6,0.5,1.1,0.9,1.5,1.2c0.2,0.1,0.3,0.2,0.4,0.3l0.1,0.1l0,0l0,0l0,0l0,0l0.4,0.3v0.5v25.5h8.1h1v1V340v1h-1h-8.1v36v0.8L599,378
	c-125.9,26.4-206.4,26.4-360.6,0l-0.8-0.1v-0.8v-36h-9.7h-1v-1V180.4v-1h1h9.7v-25.5v-0.6l0.5-0.3c0.9-0.5,1.8-1,2.7-1.5
	c2.8-1.5,5.7-3.1,8.2-5.1c3.2-2.6,5.7-5.9,6.3-10.7l0,0l0,0c0.9-6.5,1.1-11,0.1-20.9h-16.7h-1v-1V83.4H228h-1v-1V15.9V15L227.7,14.9
	z M239.5,341c146.7,15.6,225.6,15.6,358.3,0v35.1c-124.9,26.1-205.1,26.2-358.3,0L239.5,341L239.5,341z M257.2,114.9h324.3
	c-0.1,0.3-0.1,0.7-0.2,1.1c-0.2,1.4-0.5,3.5-0.7,5.7c-0.2,2.9-0.3,6.4,0.1,9.6h-323C258.1,126.8,258,122.3,257.2,114.9z
	 M257.5,133.4h323.6c0.2,1,0.5,2,0.8,2.8c1.7,4.6,5.8,9.2,9.5,12.6c1.8,1.7,3.5,3.2,4.8,4.2c0.6,0.5,1.2,0.9,1.5,1.2
	c0.1,0,0.1,0.1,0.2,0.1V180c-139.4,6.8-218.4,6.3-358.3-0.1v-25.5c0.6-0.4,1.3-0.7,2-1.1l0,0l0,0c2.8-1.5,5.9-3.2,8.6-5.3
	c3.5-2.8,6.4-6.6,7-12C257.2,135.1,257.4,134.2,257.5,133.4z M256.1,112.9h326.6h15V83.4H239.5v29.5H256.1L256.1,112.9z M238.5,81.4
	L238.5,81.4h360.3h8.1V16.8c-152.4-20.4-235.1-19-378,0v64.6C228.9,81.4,238.5,81.4,238.5,81.4z M238.5,181.9v-0.5h-9.7v157.5h9.7
	h0.1h0.1c147.7,15.8,226.5,15.8,360,0h0.1h0.1h8.1V181.4h-6.4v0.5C459.1,188.8,379.8,188.3,238.5,181.9z"/>
<path class="st1" d="M86,265.9h1.2v10.5h5.2v1.2h-6.5v-11.7H86z M94.5,269.6h1.2v8h-1.2V269.6z M94.1,266.9c0-0.3,0.1-0.5,0.3-0.7
	s0.4-0.3,0.7-0.3s0.5,0.1,0.7,0.3c0.2,0.2,0.3,0.4,0.3,0.7c0,0.3-0.1,0.5-0.3,0.7s-0.4,0.3-0.7,0.3s-0.5-0.1-0.7-0.3
	C94.2,267.4,94.1,267.2,94.1,266.9z M101.7,277.7c-0.6,0-1.1-0.1-1.6-0.3c-0.5-0.2-0.9-0.5-1.3-0.9s-0.7-0.8-0.9-1.3
	s-0.3-1.1-0.3-1.6s0.1-1.1,0.3-1.6s0.5-1,0.9-1.3c0.4-0.4,0.8-0.7,1.3-0.9c0.5-0.2,1-0.3,1.6-0.3s1.1,0.1,1.5,0.3
	c0.5,0.2,0.9,0.4,1.2,0.7c0.4,0.3,0.6,0.7,0.9,1.1c0.2,0.4,0.4,0.9,0.5,1.4h-1.3c-0.1-0.7-0.4-1.3-0.9-1.7c-0.5-0.4-1.1-0.6-1.9-0.6
	c-0.4,0-0.8,0.1-1.1,0.2c-0.4,0.2-0.7,0.4-0.9,0.7c-0.3,0.3-0.5,0.6-0.6,1s-0.2,0.8-0.2,1.2c0,0.4,0.1,0.8,0.2,1.2
	c0.1,0.4,0.4,0.7,0.6,1c0.3,0.3,0.6,0.5,0.9,0.6c0.4,0.2,0.7,0.2,1.1,0.2s0.7-0.1,1-0.2s0.6-0.3,0.8-0.5c0.3-0.2,0.5-0.5,0.6-0.8
	c0.2-0.3,0.3-0.6,0.4-1h1.3c-0.1,0.5-0.2,1-0.5,1.4c-0.2,0.4-0.5,0.8-0.9,1.1c-0.4,0.3-0.8,0.5-1.2,0.7
	C102.7,277.6,102.2,277.7,101.7,277.7z M111.5,277.7c-0.6,0-1.1-0.1-1.6-0.3c-0.5-0.2-0.9-0.5-1.3-0.9s-0.7-0.8-0.9-1.3
	s-0.3-1.1-0.3-1.6s0.1-1.1,0.3-1.6s0.5-1,0.9-1.3c0.4-0.4,0.8-0.7,1.3-0.9c0.5-0.2,1-0.3,1.6-0.3s1.1,0.1,1.6,0.3
	c0.5,0.2,1,0.5,1.3,0.9c0.4,0.4,0.7,0.8,0.9,1.3s0.3,1,0.3,1.6s-0.1,1.1-0.3,1.6s-0.5,0.9-0.9,1.3s-0.8,0.7-1.3,0.9
	C112.7,277.6,112.1,277.7,111.5,277.7z M111.5,276.6c0.4,0,0.8-0.1,1.1-0.2c0.4-0.2,0.7-0.4,0.9-0.6c0.3-0.3,0.5-0.6,0.6-1
	s0.2-0.8,0.2-1.2c0-0.4-0.1-0.8-0.2-1.2c-0.1-0.4-0.4-0.7-0.6-1c-0.3-0.3-0.6-0.5-0.9-0.7c-0.4-0.2-0.7-0.2-1.1-0.2
	c-0.4,0-0.8,0.1-1.1,0.2c-0.4,0.2-0.7,0.4-0.9,0.7c-0.3,0.3-0.5,0.6-0.6,1s-0.2,0.8-0.2,1.2c0,0.4,0.1,0.8,0.2,1.2
	c0.1,0.4,0.4,0.7,0.6,1c0.3,0.3,0.6,0.5,0.9,0.6C110.8,276.5,111.1,276.6,111.5,276.6z M117.6,269.6h1.2v1.2
	c0.2-0.4,0.5-0.7,0.9-0.8c0.4-0.2,0.8-0.3,1.3-0.3h1v1.2h-1c-0.8,0-1.4,0.2-1.7,0.7c-0.3,0.4-0.5,1.1-0.5,2v4.1h-1.2
	C117.6,277.7,117.6,269.6,117.6,269.6z M123.8,269.6h1.2v8h-1.2V269.6z M123.4,266.9c0-0.3,0.1-0.5,0.3-0.7s0.4-0.3,0.7-0.3
	s0.5,0.1,0.7,0.3c0.2,0.2,0.3,0.4,0.3,0.7c0,0.3-0.1,0.5-0.3,0.7s-0.4,0.3-0.7,0.3s-0.5-0.1-0.7-0.3
	C123.5,267.4,123.4,267.2,123.4,266.9z M131,277.7c-0.6,0-1.1-0.1-1.6-0.3c-0.5-0.2-0.9-0.5-1.3-0.9s-0.7-0.8-0.9-1.3
	s-0.3-1.1-0.3-1.6s0.1-1.1,0.3-1.6s0.5-1,0.9-1.3c0.4-0.4,0.8-0.7,1.3-0.9c0.5-0.2,1-0.3,1.6-0.3s1.1,0.1,1.5,0.3
	c0.5,0.2,0.9,0.4,1.2,0.7c0.4,0.3,0.6,0.7,0.9,1.1c0.2,0.4,0.4,0.9,0.5,1.4h-1.3c-0.1-0.7-0.4-1.3-0.9-1.7c-0.5-0.4-1.1-0.6-1.9-0.6
	c-0.4,0-0.8,0.1-1.1,0.2c-0.4,0.2-0.7,0.4-0.9,0.7c-0.3,0.3-0.5,0.6-0.6,1s-0.2,0.8-0.2,1.2c0,0.4,0.1,0.8,0.2,1.2
	c0.1,0.4,0.4,0.7,0.6,1c0.3,0.3,0.6,0.5,0.9,0.6c0.4,0.2,0.7,0.2,1.1,0.2c0.4,0,0.7-0.1,1-0.2s0.6-0.3,0.8-0.5
	c0.3-0.2,0.5-0.5,0.6-0.8c0.2-0.3,0.3-0.6,0.4-1h1.3c-0.1,0.5-0.2,1-0.5,1.4c-0.2,0.4-0.5,0.8-0.9,1.1c-0.4,0.3-0.8,0.5-1.2,0.7
	C132,277.6,131.5,277.7,131,277.7z M140.8,277.7c-0.6,0-1.2-0.1-1.7-0.3c-0.5-0.2-0.9-0.5-1.3-0.9c-0.4-0.4-0.6-0.8-0.8-1.3
	s-0.3-1-0.3-1.6s0.1-1.2,0.3-1.7s0.5-1,0.9-1.3c0.4-0.4,0.8-0.7,1.3-0.9c0.5-0.2,1.1-0.3,1.7-0.3c0.6,0,1.1,0.1,1.6,0.3
	c0.5,0.2,0.9,0.5,1.3,0.8c0.4,0.4,0.7,0.8,0.9,1.3s0.3,1,0.3,1.6v0.5h-7.1c0,0.4,0.1,0.7,0.3,1.1c0.2,0.3,0.4,0.6,0.6,0.9
	c0.3,0.2,0.6,0.4,0.9,0.6c0.4,0.1,0.7,0.2,1.2,0.2c0.7,0,1.2-0.2,1.7-0.5s0.8-0.7,1-1.3h1.3c-0.3,0.9-0.8,1.6-1.5,2.1
	C142.7,277.5,141.8,277.7,140.8,277.7z M140.8,270.5c-0.4,0-0.7,0.1-1,0.2s-0.6,0.3-0.8,0.5s-0.5,0.4-0.6,0.7
	c-0.2,0.3-0.3,0.6-0.4,0.9h5.7c-0.1-0.7-0.4-1.3-0.9-1.7C142.3,270.7,141.6,270.5,140.8,270.5z M151.4,265.9h3.6
	c0.6,0,1.1,0.1,1.6,0.3c0.5,0.2,0.9,0.5,1.3,0.8c0.4,0.3,0.6,0.7,0.8,1.2c0.2,0.4,0.3,0.9,0.3,1.4c0,0.4-0.1,0.8-0.2,1.2
	c-0.1,0.4-0.3,0.7-0.6,1.1c-0.2,0.3-0.5,0.6-0.9,0.8c-0.4,0.2-0.8,0.4-1.2,0.5l3,4.4h-1.5l-3.5-5.3h0.8c0.4,0,0.8-0.1,1.2-0.2
	s0.7-0.3,0.9-0.6s0.4-0.5,0.6-0.8c0.1-0.3,0.2-0.6,0.2-1s-0.1-0.7-0.2-1c-0.1-0.3-0.3-0.6-0.6-0.8c-0.2-0.2-0.5-0.4-0.9-0.5
	c-0.3-0.1-0.7-0.2-1.2-0.2h-2.2v10.5h-1.2v-11.8H151.4z M164.3,277.7c-0.6,0-1.1-0.1-1.6-0.3c-0.5-0.2-0.9-0.5-1.3-0.9
	c-0.4-0.4-0.7-0.8-0.9-1.3s-0.3-1.1-0.3-1.6s0.1-1.1,0.3-1.6s0.5-1,0.9-1.3c0.4-0.4,0.8-0.7,1.3-0.9c0.5-0.2,1-0.3,1.6-0.3
	s1.1,0.1,1.6,0.3c0.5,0.2,1,0.5,1.3,0.9c0.4,0.4,0.7,0.8,0.9,1.3s0.3,1,0.3,1.6s-0.1,1.1-0.3,1.6s-0.5,0.9-0.9,1.3s-0.8,0.7-1.3,0.9
	S164.9,277.7,164.3,277.7z M164.3,276.6c0.4,0,0.8-0.1,1.1-0.2c0.4-0.2,0.7-0.4,0.9-0.6c0.3-0.3,0.5-0.6,0.6-1s0.2-0.8,0.2-1.2
	c0-0.4-0.1-0.8-0.2-1.2c-0.1-0.4-0.4-0.7-0.6-1c-0.3-0.3-0.6-0.5-0.9-0.7c-0.4-0.2-0.7-0.2-1.1-0.2c-0.4,0-0.8,0.1-1.1,0.2
	c-0.4,0.2-0.7,0.4-0.9,0.7c-0.3,0.3-0.5,0.6-0.6,1s-0.2,0.8-0.2,1.2c0,0.4,0.1,0.8,0.2,1.2c0.1,0.4,0.4,0.7,0.6,1
	c0.3,0.3,0.6,0.5,0.9,0.6S163.9,276.6,164.3,276.6z M174.3,277.7c-0.6,0-1.1-0.1-1.6-0.3c-0.5-0.2-0.9-0.5-1.3-0.9
	c-0.4-0.4-0.7-0.8-0.9-1.3s-0.3-1.1-0.3-1.6s0.1-1.1,0.3-1.6s0.5-1,0.9-1.3c0.4-0.4,0.8-0.7,1.3-0.9c0.5-0.2,1-0.3,1.6-0.3
	s1.1,0.1,1.6,0.3c0.5,0.2,1,0.5,1.3,0.9c0.4,0.4,0.7,0.8,0.9,1.3s0.3,1,0.3,1.6s-0.1,1.1-0.3,1.6s-0.5,0.9-0.9,1.3s-0.8,0.7-1.3,0.9
	S174.8,277.7,174.3,277.7z M174.3,276.6c0.4,0,0.8-0.1,1.1-0.2c0.4-0.2,0.7-0.4,0.9-0.6c0.3-0.3,0.5-0.6,0.6-1s0.2-0.8,0.2-1.2
	c0-0.4-0.1-0.8-0.2-1.2c-0.1-0.4-0.4-0.7-0.6-1c-0.3-0.3-0.6-0.5-0.9-0.7c-0.4-0.2-0.7-0.2-1.1-0.2c-0.4,0-0.8,0.1-1.1,0.2
	c-0.4,0.2-0.7,0.4-0.9,0.7c-0.3,0.3-0.5,0.6-0.6,1s-0.2,0.8-0.2,1.2c0,0.4,0.1,0.8,0.2,1.2c0.1,0.4,0.4,0.7,0.6,1
	c0.3,0.3,0.6,0.5,0.9,0.6C173.5,276.5,173.8,276.6,174.3,276.6z M179.3,269.6h1.4v-1.9l1.2-0.7v2.6h1.9v1.1h-1.9v3.8
	c0,0.4,0,0.7,0.1,1c0.1,0.2,0.1,0.4,0.3,0.6s0.3,0.2,0.6,0.3s0.6,0.1,1,0.1v1.2h-0.2c-0.6,0-1.1,0-1.5-0.1s-0.7-0.3-0.9-0.5
	s-0.4-0.5-0.5-0.9s-0.1-0.9-0.1-1.5v-3.8h-1.4L179.3,269.6L179.3,269.6z"/>
<path class="st1" d="M121.1,345.8h-3.4v-1.2h8v1.2h-3.3v10.5h-1.3V345.8z M129,356.4c-1.1,0-2-0.3-2.6-1s-0.9-1.6-0.9-2.7v-4.4h1.2
	v4.4c0,0.8,0.2,1.4,0.6,1.9c0.4,0.5,1,0.7,1.7,0.7c0.3,0,0.7-0.1,0.9-0.2c0.3-0.1,0.6-0.3,0.8-0.6c0.2-0.2,0.4-0.5,0.5-0.8
	s0.2-0.7,0.2-1v-4.4h1.2v8h-1.2v-1.2c-0.3,0.4-0.6,0.7-1.1,1C130,356.3,129.5,356.4,129,356.4z M135,348.3h1.2v1.2
	c0.2-0.4,0.5-0.7,0.9-0.8c0.4-0.2,0.8-0.3,1.3-0.3h1v1.2h-1c-0.8,0-1.4,0.2-1.7,0.7c-0.3,0.4-0.5,1.1-0.5,2v4.1H135V348.3z
	 M141.2,348.3h1.2v1.1c0.3-0.4,0.6-0.7,1-0.9c0.4-0.2,0.9-0.3,1.5-0.3c0.7,0,1.3,0.2,1.8,0.5s0.8,0.7,1.1,1.2
	c0.3-0.5,0.6-0.9,1.1-1.2c0.5-0.3,1.1-0.4,1.8-0.4c0.6,0,1.1,0.1,1.5,0.3c0.4,0.2,0.8,0.4,1.1,0.7c0.3,0.3,0.5,0.7,0.7,1.1
	s0.2,0.9,0.2,1.4v4.7H153v-4.8c0-0.7-0.2-1.2-0.6-1.6c-0.4-0.4-1-0.6-1.7-0.6c-0.3,0-0.6,0.1-0.9,0.2c-0.3,0.1-0.5,0.3-0.7,0.5
	s-0.4,0.5-0.5,0.8s-0.2,0.6-0.2,1v4.7h-1.3v-4.9c0-0.6-0.2-1.2-0.6-1.5c-0.4-0.4-0.9-0.6-1.6-0.6c-0.4,0-0.7,0.1-1,0.2
	s-0.6,0.3-0.8,0.5s-0.4,0.5-0.5,0.8s-0.2,0.7-0.2,1.1v4.5h-1.2L141.2,348.3L141.2,348.3z M160.2,356.4c-0.6,0-1.2-0.1-1.7-0.3
	c-0.5-0.2-0.9-0.5-1.3-0.9c-0.4-0.4-0.6-0.8-0.8-1.3s-0.3-1-0.3-1.6s0.1-1.2,0.3-1.7s0.5-1,0.9-1.3c0.4-0.4,0.8-0.7,1.3-0.9
	c0.5-0.2,1.1-0.3,1.7-0.3c0.6,0,1.1,0.1,1.6,0.3c0.5,0.2,0.9,0.5,1.3,0.8c0.4,0.4,0.7,0.8,0.9,1.3s0.3,1,0.3,1.6v0.5h-7.1
	c0,0.4,0.1,0.7,0.3,1.1c0.2,0.3,0.4,0.6,0.6,0.9c0.3,0.2,0.6,0.4,0.9,0.6c0.4,0.1,0.7,0.2,1.2,0.2c0.7,0,1.2-0.2,1.7-0.5
	s0.8-0.7,1-1.3h1.3c-0.3,0.9-0.8,1.6-1.5,2.1C162.1,356.2,161.2,356.4,160.2,356.4z M160.2,349.2c-0.4,0-0.7,0.1-1,0.2
	s-0.6,0.3-0.8,0.5s-0.5,0.4-0.6,0.7c-0.2,0.3-0.3,0.6-0.4,0.9h5.7c-0.1-0.7-0.4-1.3-0.9-1.7C161.6,349.4,161,349.2,160.2,349.2z
	 M166.2,348.3h1.2v1.2c0.2-0.4,0.5-0.7,0.9-0.8c0.4-0.2,0.8-0.3,1.3-0.3h1v1.2h-1c-0.8,0-1.4,0.2-1.7,0.7c-0.3,0.4-0.5,1.1-0.5,2
	v4.1h-1.2V348.3z M172.4,348.3h1.2v8h-1.2V348.3z M172.1,345.6c0-0.3,0.1-0.5,0.3-0.7s0.4-0.3,0.7-0.3s0.5,0.1,0.7,0.3
	c0.2,0.2,0.3,0.4,0.3,0.7c0,0.3-0.1,0.5-0.3,0.7s-0.4,0.3-0.7,0.3s-0.5-0.1-0.7-0.3C172.2,346.2,172.1,345.9,172.1,345.6z
	 M179.7,356.4c-0.6,0-1.1-0.1-1.6-0.3c-0.5-0.2-0.9-0.5-1.3-0.9c-0.4-0.4-0.7-0.8-0.9-1.3s-0.3-1.1-0.3-1.6s0.1-1.1,0.3-1.6
	s0.5-1,0.9-1.3c0.4-0.4,0.8-0.7,1.3-0.9c0.5-0.2,1-0.3,1.6-0.3s1.1,0.1,1.5,0.3c0.5,0.2,0.9,0.4,1.2,0.7c0.4,0.3,0.6,0.7,0.9,1.1
	c0.2,0.4,0.4,0.9,0.5,1.4h-1.3c-0.1-0.7-0.4-1.3-0.9-1.7c-0.5-0.4-1.1-0.6-1.9-0.6c-0.4,0-0.8,0.1-1.1,0.2c-0.4,0.2-0.7,0.4-0.9,0.7
	c-0.3,0.3-0.5,0.6-0.6,1s-0.2,0.8-0.2,1.2c0,0.4,0.1,0.8,0.2,1.2c0.1,0.4,0.4,0.7,0.6,1c0.3,0.3,0.6,0.5,0.9,0.6
	c0.4,0.2,0.7,0.2,1.1,0.2c0.4,0,0.7-0.1,1-0.2s0.6-0.3,0.8-0.5c0.3-0.2,0.5-0.5,0.6-0.8c0.2-0.3,0.3-0.6,0.4-1h1.3
	c-0.1,0.5-0.2,1-0.5,1.4c-0.2,0.4-0.5,0.8-0.9,1.1c-0.4,0.3-0.8,0.5-1.2,0.7C180.7,356.4,180.2,356.4,179.7,356.4z"/>
<path class="st1" d="M37.2,205.6c-0.8,0-1.6-0.2-2.3-0.5c-0.7-0.3-1.4-0.8-1.9-1.3s-1-1.2-1.3-1.9s-0.5-1.5-0.5-2.3s0.2-1.6,0.5-2.3
	s0.8-1.4,1.3-1.9s1.2-1,1.9-1.3c0.7-0.3,1.5-0.5,2.3-0.5c0.7,0,1.3,0.1,1.9,0.3s1.2,0.5,1.7,0.9s0.9,0.8,1.3,1.3s0.7,1.1,0.8,1.7
	h-1.3c-0.2-0.4-0.4-0.9-0.7-1.2c-0.3-0.4-0.6-0.7-1-1s-0.8-0.5-1.2-0.6c-0.5-0.1-0.9-0.2-1.5-0.2c-0.7,0-1.3,0.1-1.9,0.4
	c-0.6,0.3-1.1,0.6-1.5,1s-0.7,0.9-1,1.5c-0.2,0.6-0.4,1.2-0.4,1.9s0.1,1.3,0.4,1.9c0.2,0.6,0.6,1.1,1,1.5s0.9,0.8,1.5,1
	s1.2,0.4,1.9,0.4c0.5,0,1-0.1,1.4-0.2c0.4-0.1,0.9-0.4,1.2-0.6c0.4-0.3,0.7-0.6,1-0.9c0.3-0.4,0.5-0.8,0.7-1.2h1.4
	c-0.2,0.6-0.5,1.2-0.8,1.7c-0.4,0.5-0.8,0.9-1.3,1.3c-0.5,0.4-1,0.6-1.6,0.8C38.5,205.5,37.9,205.6,37.2,205.6z M48.7,205.6
	c-0.6,0-1.1-0.1-1.6-0.3s-0.9-0.5-1.3-0.9s-0.7-0.8-0.9-1.3c-0.2-0.5-0.3-1-0.3-1.6s0.1-1.1,0.3-1.6c0.2-0.5,0.5-0.9,0.8-1.3
	c0.4-0.4,0.8-0.7,1.3-0.9s1.1-0.3,1.6-0.3c0.3,0,0.5,0,0.8,0.1s0.5,0.2,0.8,0.3s0.5,0.3,0.8,0.5c0.2,0.2,0.4,0.4,0.6,0.6v-1.3h1.2v8
	h-1.2v-1.3c-0.2,0.2-0.4,0.5-0.6,0.6c-0.2,0.2-0.5,0.3-0.8,0.5c-0.3,0.1-0.5,0.2-0.8,0.3C49.2,205.6,49,205.6,48.7,205.6z
	 M48.8,204.5c0.4,0,0.8-0.1,1.2-0.2c0.4-0.2,0.7-0.4,1-0.6c0.3-0.3,0.5-0.6,0.6-1s0.2-0.8,0.2-1.2s-0.1-0.8-0.2-1.2s-0.4-0.7-0.6-1
	c-0.3-0.3-0.6-0.5-1-0.7s-0.8-0.2-1.2-0.2c-0.4,0-0.8,0.1-1.2,0.2c-0.4,0.2-0.7,0.4-0.9,0.7c-0.3,0.3-0.5,0.6-0.6,1
	s-0.2,0.8-0.2,1.2s0.1,0.8,0.2,1.2s0.4,0.7,0.6,1c0.3,0.3,0.6,0.5,0.9,0.6C48,204.4,48.4,204.5,48.8,204.5z M55.1,193.8h1.2v11.7
	h-1.2V193.8z M62.3,205.6c-0.6,0-1.1-0.1-1.6-0.3s-0.9-0.5-1.3-0.9c-0.4-0.4-0.7-0.8-0.9-1.3s-0.3-1.1-0.3-1.6s0.1-1.1,0.3-1.6
	s0.5-1,0.9-1.3c0.4-0.4,0.8-0.7,1.3-0.9s1-0.3,1.6-0.3s1.1,0.1,1.5,0.3c0.5,0.2,0.9,0.4,1.2,0.7c0.4,0.3,0.6,0.7,0.9,1.1
	c0.2,0.4,0.4,0.9,0.5,1.4h-1.3c-0.1-0.7-0.4-1.3-0.9-1.7s-1.1-0.6-1.9-0.6c-0.4,0-0.8,0.1-1.1,0.2c-0.4,0.2-0.7,0.4-0.9,0.7
	c-0.3,0.3-0.5,0.6-0.6,1s-0.2,0.8-0.2,1.2s0.1,0.8,0.2,1.2c0.1,0.4,0.4,0.7,0.6,1c0.3,0.3,0.6,0.5,0.9,0.6c0.3,0.1,0.7,0.2,1.1,0.2
	c0.4,0,0.7-0.1,1-0.2c0.3-0.1,0.6-0.3,0.8-0.5c0.3-0.2,0.5-0.5,0.6-0.8c0.2-0.3,0.3-0.6,0.4-1h1.3c-0.1,0.5-0.2,1-0.5,1.4
	c-0.2,0.4-0.5,0.8-0.9,1.1s-0.8,0.5-1.2,0.7C63.3,205.6,62.8,205.6,62.3,205.6z M68.3,197.5h1.2v8h-1.2V197.5z M67.9,194.8
	c0-0.3,0.1-0.5,0.3-0.7s0.4-0.3,0.7-0.3s0.5,0.1,0.7,0.3s0.3,0.4,0.3,0.7s-0.1,0.5-0.3,0.7s-0.4,0.3-0.7,0.3s-0.5-0.1-0.7-0.3
	C68,195.4,67.9,195.1,67.9,194.8z M75.1,205.6c-1.1,0-2-0.3-2.6-1s-0.9-1.6-0.9-2.7v-4.4h1.2v4.4c0,0.8,0.2,1.4,0.6,1.9
	c0.4,0.5,1,0.7,1.7,0.7c0.3,0,0.7-0.1,0.9-0.2c0.3-0.1,0.6-0.3,0.8-0.6c0.2-0.2,0.4-0.5,0.5-0.8s0.2-0.7,0.2-1v-4.4h1.2v8h-1.2v-1.2
	c-0.3,0.4-0.6,0.7-1.1,1C76.1,205.5,75.6,205.6,75.1,205.6z M81.1,197.5h1.2v1.1c0.3-0.4,0.6-0.7,1-0.9s0.9-0.3,1.5-0.3
	c0.7,0,1.3,0.2,1.8,0.5s0.8,0.7,1.1,1.2c0.3-0.5,0.6-0.9,1.1-1.2s1.1-0.4,1.8-0.4c0.6,0,1.1,0.1,1.5,0.3s0.8,0.4,1.1,0.7
	s0.5,0.7,0.7,1.1c0.2,0.4,0.2,0.9,0.2,1.4v4.7h-1.2v-4.8c0-0.7-0.2-1.2-0.6-1.6c-0.4-0.4-1-0.6-1.7-0.6c-0.3,0-0.6,0.1-0.9,0.2
	c-0.3,0.1-0.5,0.3-0.7,0.5s-0.4,0.5-0.5,0.8s-0.2,0.6-0.2,1v4.7h-1.2V201c0-0.6-0.2-1.2-0.6-1.5c-0.4-0.4-0.9-0.6-1.6-0.6
	c-0.4,0-0.7,0.1-1,0.2c-0.3,0.1-0.6,0.3-0.8,0.5s-0.4,0.5-0.5,0.8s-0.2,0.7-0.2,1.1v4.5h-1.3V197.5z M106.6,205.6
	c-0.8,0-1.6-0.2-2.3-0.5s-1.4-0.8-1.9-1.3s-1-1.2-1.3-1.9s-0.5-1.5-0.5-2.3s0.2-1.6,0.5-2.3s0.8-1.4,1.3-1.9s1.2-1,1.9-1.3
	s1.5-0.5,2.3-0.5c0.7,0,1.3,0.1,1.9,0.3c0.6,0.2,1.2,0.5,1.7,0.9s0.9,0.8,1.3,1.3c0.4,0.5,0.7,1.1,0.8,1.7H111
	c-0.2-0.4-0.4-0.9-0.7-1.2c-0.3-0.4-0.6-0.7-1-1s-0.8-0.5-1.2-0.6c-0.5-0.1-0.9-0.2-1.5-0.2c-0.7,0-1.3,0.1-1.9,0.4
	c-0.6,0.3-1.1,0.6-1.5,1s-0.7,0.9-1,1.5c-0.2,0.6-0.4,1.2-0.4,1.9s0.1,1.3,0.4,1.9c0.2,0.6,0.6,1.1,1,1.5s0.9,0.8,1.5,1
	c0.6,0.3,1.2,0.4,1.9,0.4c0.5,0,1-0.1,1.4-0.2c0.4-0.1,0.9-0.4,1.2-0.6c0.4-0.3,0.7-0.6,1-0.9c0.3-0.4,0.5-0.8,0.7-1.2h1.4
	c-0.2,0.6-0.5,1.2-0.8,1.7c-0.4,0.5-0.8,0.9-1.3,1.3c-0.5,0.4-1,0.6-1.6,0.8C107.9,205.5,107.2,205.6,106.6,205.6z M118,205.6
	c-0.6,0-1.1-0.1-1.6-0.3s-0.9-0.5-1.3-0.9s-0.7-0.8-0.9-1.3s-0.3-1-0.3-1.6s0.1-1.1,0.3-1.6s0.5-0.9,0.8-1.3
	c0.4-0.4,0.8-0.7,1.3-0.9s1.1-0.3,1.6-0.3c0.3,0,0.5,0,0.8,0.1s0.5,0.2,0.8,0.3s0.5,0.3,0.8,0.5c0.2,0.2,0.4,0.4,0.6,0.6v-1.3h1.2v8
	h-1.2v-1.3c-0.2,0.2-0.4,0.5-0.6,0.6c-0.2,0.2-0.5,0.3-0.8,0.5c-0.3,0.1-0.5,0.2-0.8,0.3C118.6,205.6,118.3,205.6,118,205.6z
	 M118.1,204.5c0.4,0,0.8-0.1,1.2-0.2c0.4-0.2,0.7-0.4,1-0.6c0.3-0.3,0.5-0.6,0.6-1s0.2-0.8,0.2-1.2s-0.1-0.8-0.2-1.2
	c-0.1-0.4-0.4-0.7-0.6-1c-0.3-0.3-0.6-0.5-1-0.7s-0.8-0.2-1.2-0.2s-0.8,0.1-1.2,0.2c-0.4,0.2-0.7,0.4-0.9,0.7
	c-0.3,0.3-0.5,0.6-0.6,1s-0.2,0.8-0.2,1.2s0.1,0.8,0.2,1.2s0.4,0.7,0.6,1c0.3,0.3,0.6,0.5,0.9,0.6
	C117.3,204.4,117.7,204.5,118.1,204.5z M124.5,197.5h1.2v1.2c0.2-0.4,0.5-0.7,0.9-0.8c0.4-0.2,0.8-0.3,1.3-0.3h1v1.2h-1
	c-0.8,0-1.4,0.2-1.7,0.7c-0.3,0.4-0.5,1.1-0.5,2v4.1h-1.2C124.5,205.6,124.5,197.5,124.5,197.5z M134.8,205.6
	c-0.5,0-1.1-0.1-1.6-0.4c-0.5-0.3-1-0.6-1.3-1.1v1.3h-1.2v-11.6h1.2v5c0.3-0.5,0.8-0.8,1.3-1.1s1.1-0.4,1.6-0.4
	c0.6,0,1.1,0.1,1.6,0.3s0.9,0.5,1.3,0.9c0.4,0.4,0.6,0.8,0.8,1.3s0.3,1,0.3,1.6s-0.1,1.1-0.3,1.6s-0.5,0.9-0.8,1.3
	c-0.4,0.4-0.8,0.7-1.3,0.9C136,205.5,135.4,205.6,134.8,205.6z M134.8,204.5c0.4,0,0.8-0.1,1.1-0.2c0.4-0.2,0.7-0.4,0.9-0.6
	c0.3-0.3,0.5-0.6,0.6-1c0.2-0.4,0.2-0.8,0.2-1.2s-0.1-0.8-0.2-1.2c-0.1-0.4-0.4-0.7-0.6-1c-0.3-0.3-0.6-0.5-0.9-0.7
	c-0.4-0.2-0.7-0.2-1.1-0.2c-0.4,0-0.8,0.1-1.2,0.2c-0.4,0.2-0.7,0.4-0.9,0.7c-0.3,0.3-0.5,0.6-0.6,1s-0.2,0.8-0.2,1.2
	s0.1,0.8,0.2,1.2c0.1,0.4,0.4,0.7,0.6,1c0.3,0.3,0.6,0.5,0.9,0.6C133.9,204.4,134.3,204.5,134.8,204.5z M144.7,205.6
	c-0.6,0-1.1-0.1-1.6-0.3s-0.9-0.5-1.3-0.9c-0.4-0.4-0.7-0.8-0.9-1.3s-0.3-1.1-0.3-1.6s0.1-1.1,0.3-1.6s0.5-1,0.9-1.3
	c0.4-0.4,0.8-0.7,1.3-0.9s1-0.3,1.6-0.3s1.1,0.1,1.6,0.3s1,0.5,1.3,0.9c0.4,0.4,0.7,0.8,0.9,1.3s0.3,1,0.3,1.6s-0.1,1.1-0.3,1.6
	s-0.5,0.9-0.9,1.3c-0.4,0.4-0.8,0.7-1.3,0.9C145.8,205.5,145.3,205.6,144.7,205.6z M144.7,204.5c0.4,0,0.8-0.1,1.1-0.2
	c0.4-0.2,0.7-0.4,0.9-0.6c0.3-0.3,0.5-0.6,0.6-1s0.2-0.8,0.2-1.2s-0.1-0.8-0.2-1.2c-0.1-0.4-0.4-0.7-0.6-1c-0.3-0.3-0.6-0.5-0.9-0.7
	c-0.4-0.2-0.7-0.2-1.1-0.2c-0.4,0-0.8,0.1-1.1,0.2c-0.4,0.2-0.7,0.4-0.9,0.7c-0.3,0.3-0.5,0.6-0.6,1s-0.2,0.8-0.2,1.2
	s0.1,0.8,0.2,1.2c0.1,0.4,0.4,0.7,0.6,1c0.3,0.3,0.6,0.5,0.9,0.6C143.9,204.4,144.3,204.5,144.7,204.5z M150.7,197.5h1.2v1.2
	c0.3-0.4,0.6-0.7,1.1-1c0.5-0.2,1-0.4,1.6-0.4c1.1,0,1.9,0.3,2.5,1s0.9,1.6,0.9,2.7v4.4h-1.2V201c0-0.8-0.2-1.4-0.6-1.9
	c-0.4-0.5-1-0.7-1.8-0.7c-0.4,0-0.7,0.1-1,0.2c-0.3,0.1-0.6,0.3-0.8,0.5s-0.4,0.5-0.5,0.8s-0.2,0.7-0.2,1v4.4h-1.2V197.5z
	 M164,205.6c-0.6,0-1.1-0.1-1.6-0.3s-0.9-0.5-1.3-0.9c-0.4-0.4-0.7-0.8-0.9-1.3s-0.3-1-0.3-1.6s0.1-1.1,0.3-1.6s0.5-0.9,0.8-1.3
	c0.4-0.4,0.8-0.7,1.3-0.9s1.1-0.3,1.6-0.3c0.3,0,0.5,0,0.8,0.1s0.5,0.2,0.8,0.3s0.5,0.3,0.8,0.5c0.2,0.2,0.4,0.4,0.6,0.6v-1.3h1.2v8
	h-1.2v-1.3c-0.2,0.2-0.4,0.5-0.6,0.6c-0.2,0.2-0.5,0.3-0.8,0.5c-0.3,0.1-0.5,0.2-0.8,0.3C164.5,205.6,164.3,205.6,164,205.6z
	 M164.1,204.5c0.4,0,0.8-0.1,1.2-0.2c0.4-0.2,0.7-0.4,1-0.6c0.3-0.3,0.5-0.6,0.6-1s0.2-0.8,0.2-1.2s-0.1-0.8-0.2-1.2
	c-0.1-0.4-0.4-0.7-0.6-1c-0.3-0.3-0.6-0.5-1-0.7s-0.8-0.2-1.2-0.2s-0.8,0.1-1.2,0.2c-0.4,0.2-0.7,0.4-0.9,0.7
	c-0.3,0.3-0.5,0.6-0.6,1s-0.2,0.8-0.2,1.2s0.1,0.8,0.2,1.2c0.1,0.4,0.4,0.7,0.6,1c0.3,0.3,0.6,0.5,0.9,0.6
	C163.3,204.4,163.7,204.5,164.1,204.5z M169.8,197.5h1.4v-1.9l1.2-0.7v2.6h1.9v1.1h-1.9v3.8c0,0.4,0,0.7,0.1,1
	c0.1,0.2,0.1,0.4,0.3,0.6c0.1,0.1,0.3,0.2,0.6,0.3c0.2,0,0.6,0.1,1,0.1v1.2h-0.3c-0.6,0-1.1,0-1.5-0.1s-0.7-0.3-0.9-0.5
	s-0.4-0.5-0.5-0.9s-0.1-0.9-0.1-1.5v-3.8h-1.4L169.8,197.5L169.8,197.5z M179.6,205.6c-0.6,0-1.2-0.1-1.7-0.3s-0.9-0.5-1.3-0.9
	c-0.4-0.4-0.6-0.8-0.8-1.3s-0.3-1-0.3-1.6s0.1-1.2,0.3-1.7s0.5-1,0.9-1.3c0.4-0.4,0.8-0.7,1.3-0.9s1.1-0.3,1.7-0.3
	c0.6,0,1.1,0.1,1.6,0.3s0.9,0.5,1.3,0.8c0.4,0.4,0.7,0.8,0.9,1.3s0.3,1,0.3,1.6v0.5h-7.1c0,0.4,0.1,0.7,0.3,1.1
	c0.2,0.3,0.4,0.6,0.6,0.9c0.3,0.2,0.6,0.4,0.9,0.6c0.4,0.1,0.7,0.2,1.2,0.2c0.7,0,1.2-0.2,1.7-0.5s0.8-0.7,1-1.3h1.3
	c-0.3,0.9-0.8,1.6-1.5,2.1C181.5,205.4,180.7,205.6,179.6,205.6z M179.7,198.4c-0.4,0-0.7,0.1-1,0.2c-0.3,0.1-0.6,0.3-0.8,0.5
	s-0.5,0.4-0.6,0.7c-0.2,0.3-0.3,0.6-0.4,0.9h5.7c-0.1-0.7-0.4-1.3-0.9-1.7C181.1,198.6,180.5,198.4,179.7,198.4z"/>
<path class="st1" d="M143.2,49l-2.2,2.6v3.6h-1.2V43.5h1.2v6.4l5.5-6.4h1.5l-4,4.7l4.5,7h-1.4L143.2,49z M153.3,55.3
	c-0.6,0-1.1-0.1-1.6-0.3s-0.9-0.5-1.3-0.9c-0.4-0.4-0.7-0.8-0.9-1.3s-0.3-1-0.3-1.6s0.1-1.1,0.3-1.6s0.5-0.9,0.8-1.3
	c0.4-0.4,0.8-0.7,1.3-0.9s1.1-0.3,1.6-0.3c0.3,0,0.5,0,0.8,0.1s0.5,0.2,0.8,0.3s0.5,0.3,0.8,0.5c0.2,0.2,0.4,0.4,0.6,0.6v-1.3h1.2v8
	h-1.2V54c-0.2,0.2-0.4,0.5-0.6,0.6c-0.2,0.2-0.5,0.3-0.8,0.5c-0.3,0.1-0.5,0.2-0.8,0.3C153.8,55.3,153.5,55.3,153.3,55.3z
	 M153.3,54.2c0.4,0,0.8-0.1,1.2-0.2c0.4-0.2,0.7-0.4,1-0.6c0.3-0.3,0.5-0.6,0.6-1s0.2-0.8,0.2-1.2s-0.1-0.8-0.2-1.2
	c-0.1-0.4-0.4-0.7-0.6-1c-0.3-0.3-0.6-0.5-1-0.7s-0.8-0.2-1.2-0.2s-0.8,0.1-1.2,0.2c-0.4,0.2-0.7,0.4-0.9,0.7
	c-0.3,0.3-0.5,0.6-0.6,1s-0.2,0.8-0.2,1.2s0.1,0.8,0.2,1.2c0.1,0.4,0.4,0.7,0.6,1c0.3,0.3,0.6,0.5,0.9,0.6
	C152.6,54.1,152.9,54.2,153.3,54.2z M163.5,55.3c-0.6,0-1.1-0.1-1.6-0.3s-0.9-0.5-1.3-0.9c-0.4-0.4-0.7-0.8-0.9-1.3
	s-0.3-1.1-0.3-1.6s0.1-1.1,0.3-1.6s0.5-1,0.9-1.3c0.4-0.4,0.8-0.7,1.3-0.9s1-0.3,1.6-0.3s1.1,0.1,1.6,0.3s1,0.5,1.3,0.9
	c0.4,0.4,0.7,0.8,0.9,1.3s0.3,1,0.3,1.6s-0.1,1.1-0.3,1.6s-0.5,0.9-0.9,1.3c-0.4,0.4-0.8,0.7-1.3,0.9S164,55.3,163.5,55.3z
	 M163.5,54.2c0.4,0,0.8-0.1,1.1-0.2c0.4-0.2,0.7-0.4,0.9-0.6c0.3-0.3,0.5-0.6,0.6-1s0.2-0.8,0.2-1.2s-0.1-0.8-0.2-1.2
	c-0.1-0.4-0.4-0.7-0.6-1c-0.3-0.3-0.6-0.5-0.9-0.7c-0.4-0.2-0.7-0.2-1.1-0.2c-0.4,0-0.8,0.1-1.1,0.2s-0.7,0.4-0.9,0.7
	c-0.3,0.3-0.5,0.6-0.6,1s-0.2,0.8-0.2,1.2s0.1,0.8,0.2,1.2c0.1,0.4,0.4,0.7,0.6,1c0.3,0.3,0.6,0.5,0.9,0.6S163,54.2,163.5,54.2z
	 M169.5,43.5h1.2v11.7h-1.2V43.5z M173,47.2h1.2v8H173V47.2z M172.6,44.5c0-0.3,0.1-0.5,0.3-0.7s0.4-0.3,0.7-0.3s0.5,0.1,0.7,0.3
	s0.3,0.4,0.3,0.7s-0.1,0.5-0.3,0.7s-0.4,0.3-0.7,0.3s-0.5-0.1-0.7-0.3S172.6,44.8,172.6,44.5z M176.4,47.2h1.2v1.1
	c0.3-0.4,0.6-0.7,1.1-1c0.5-0.2,1-0.4,1.6-0.4c1.1,0,1.9,0.3,2.5,1s0.9,1.6,0.9,2.7V55h-1.2v-4.4c0-0.8-0.2-1.4-0.6-1.9
	c-0.4-0.5-1-0.7-1.8-0.7c-0.4,0-0.7,0.1-1,0.2c-0.3,0.1-0.6,0.3-0.8,0.5s-0.4,0.5-0.5,0.8s-0.2,0.7-0.2,1v4.4h-1.2V47.2z"/>
<path class="st1" d="M3.8,130.2c-0.6,0-1.1-0.1-1.5-0.2c-0.5-0.2-0.9-0.4-1.2-0.7s-0.6-0.7-0.8-1.1c-0.2-0.4-0.3-0.9-0.3-1.5h1.2
	v0.1c0,0.4,0.1,0.7,0.2,1c0.1,0.3,0.3,0.5,0.5,0.7c0.2,0.2,0.5,0.3,0.8,0.4c0.3,0.1,0.6,0.2,1,0.2c0.7,0,1.3-0.2,1.7-0.6
	c0.4-0.4,0.6-0.9,0.6-1.6c0-0.4-0.1-0.7-0.2-1s-0.4-0.5-0.6-0.7s-0.5-0.4-0.9-0.5c-0.3-0.1-0.7-0.3-1-0.4c-0.4-0.1-0.8-0.3-1.2-0.4
	c-0.4-0.2-0.7-0.4-1-0.6s-0.5-0.5-0.7-0.9s-0.3-0.8-0.3-1.3s0.1-0.9,0.3-1.2c0.2-0.4,0.4-0.7,0.7-0.9c0.3-0.3,0.7-0.5,1.1-0.6
	s0.9-0.2,1.4-0.2s1,0.1,1.5,0.2c0.4,0.1,0.8,0.4,1.1,0.6c0.3,0.3,0.5,0.6,0.7,1s0.2,0.8,0.2,1.3h-1v-0.1c0-0.6-0.2-1.1-0.6-1.5
	s-0.9-0.6-1.7-0.6c-0.7,0-1.2,0.2-1.6,0.5s-0.6,0.8-0.6,1.4c0,0.3,0.1,0.6,0.2,0.8c0.1,0.2,0.3,0.4,0.5,0.6s0.5,0.3,0.8,0.4
	s0.7,0.3,1.1,0.4s0.8,0.3,1.2,0.5c0.4,0.2,0.7,0.4,1,0.7c0.3,0.3,0.6,0.6,0.7,1c0.2,0.4,0.3,0.8,0.3,1.3c0,0.4-0.1,0.9-0.3,1.3
	c-0.2,0.4-0.4,0.7-0.7,1c-0.3,0.3-0.7,0.5-1.1,0.7C4.9,130.1,4.4,130.2,3.8,130.2z M9.3,122h1.2v8H9.3V122z M8.9,119.4
	c0-0.3,0.1-0.5,0.3-0.7c0.2-0.2,0.4-0.3,0.7-0.3c0.3,0,0.5,0.1,0.7,0.3c0.2,0.2,0.3,0.4,0.3,0.7c0,0.3-0.1,0.5-0.3,0.7
	s-0.4,0.3-0.7,0.3c-0.3,0-0.5-0.1-0.7-0.3C9,119.9,8.9,119.7,8.9,119.4z M12.1,122h1.3l2.4,6.4l2.4-6.4h1.3l-3.1,8h-1.2L12.1,122z
	 M24.6,130.2c-0.6,0-1.1-0.1-1.6-0.3s-0.9-0.5-1.3-0.9s-0.7-0.8-0.9-1.3c-0.2-0.5-0.3-1-0.3-1.6s0.1-1.1,0.3-1.6
	c0.2-0.5,0.5-0.9,0.8-1.3c0.4-0.4,0.8-0.7,1.3-0.9c0.5-0.2,1.1-0.3,1.6-0.3c0.3,0,0.5,0,0.8,0.1s0.5,0.2,0.8,0.3
	c0.3,0.1,0.5,0.3,0.8,0.5c0.2,0.2,0.4,0.4,0.6,0.6v-1.3h1.2v8h-1.2v-1.3c-0.2,0.2-0.4,0.5-0.6,0.6c-0.2,0.2-0.5,0.3-0.8,0.5
	c-0.3,0.1-0.5,0.2-0.8,0.3C25.1,130.2,24.8,130.2,24.6,130.2z M24.6,129.1c0.4,0,0.8-0.1,1.2-0.2c0.4-0.2,0.7-0.4,1-0.6
	c0.3-0.3,0.5-0.6,0.6-1s0.2-0.8,0.2-1.2s-0.1-0.8-0.2-1.2c-0.1-0.4-0.4-0.7-0.6-1c-0.3-0.3-0.6-0.5-1-0.7S25,123,24.6,123
	s-0.8,0.1-1.2,0.2c-0.4,0.2-0.7,0.4-0.9,0.7c-0.3,0.3-0.5,0.6-0.6,1s-0.2,0.8-0.2,1.2s0.1,0.8,0.2,1.2c0.1,0.4,0.4,0.7,0.6,1
	c0.3,0.3,0.6,0.5,0.9,0.6C23.8,129,24.2,129.1,24.6,129.1z M33.7,126.2l-1.6,1.6v2.2h-1.2v-11.7h1.2v8l4.3-4.4H38l-3.3,3.4l3.3,4.6
	h-1.4L33.7,126.2z M49.8,133.8c-0.9-0.2-1.7-0.5-2.4-1c-0.7-0.5-1.4-1.1-1.9-1.7c-0.5-0.7-1-1.4-1.3-2.3c-0.3-0.8-0.4-1.7-0.4-2.7
	c0-0.9,0.1-1.8,0.4-2.7c0.3-0.8,0.7-1.6,1.3-2.3c0.5-0.7,1.2-1.3,1.9-1.7c0.7-0.5,1.6-0.8,2.4-1v1.3c-0.7,0.2-1.3,0.5-1.9,0.9
	s-1.1,0.9-1.5,1.5s-0.7,1.2-1,1.9c-0.2,0.7-0.4,1.4-0.4,2.2c0,0.8,0.1,1.5,0.4,2.2c0.2,0.7,0.6,1.3,1,1.9c0.4,0.6,0.9,1.1,1.5,1.5
	s1.2,0.7,1.9,0.9V133.8z M51.5,118.4h3.6c0.6,0,1.2,0.1,1.7,0.3c0.5,0.2,1,0.5,1.3,0.8c0.4,0.4,0.7,0.8,0.9,1.3s0.3,1,0.3,1.6
	s-0.1,1.1-0.3,1.6s-0.5,0.9-0.9,1.3s-0.8,0.7-1.3,0.9c-0.5,0.2-1.1,0.3-1.7,0.3h-2.4v3.6h-1.2C51.5,130.1,51.5,118.4,51.5,118.4z
	 M52.7,119.5v5.7h2.4c0.5,0,0.9-0.1,1.3-0.2s0.7-0.4,1-0.6c0.3-0.3,0.5-0.6,0.6-0.9c0.1-0.4,0.2-0.7,0.2-1.1s-0.1-0.8-0.2-1.1
	c-0.1-0.4-0.3-0.7-0.6-0.9c-0.3-0.3-0.6-0.5-1-0.6s-0.8-0.2-1.3-0.2h-2.4C52.7,119.6,52.7,119.5,52.7,119.5z M64.7,130.2
	c-0.6,0-1.2-0.1-1.7-0.3s-0.9-0.5-1.3-0.9c-0.4-0.4-0.6-0.8-0.8-1.3s-0.3-1-0.3-1.6s0.1-1.2,0.3-1.7s0.5-1,0.9-1.3
	c0.4-0.4,0.8-0.7,1.3-0.9c0.5-0.2,1.1-0.3,1.7-0.3s1.1,0.1,1.6,0.3c0.5,0.2,0.9,0.5,1.3,0.8c0.4,0.4,0.7,0.8,0.9,1.3s0.3,1,0.3,1.6
	v0.5h-7.1c0,0.4,0.1,0.7,0.3,1.1c0.2,0.3,0.4,0.6,0.6,0.9c0.3,0.2,0.6,0.4,0.9,0.6c0.4,0.1,0.7,0.2,1.2,0.2c0.7,0,1.2-0.2,1.7-0.5
	s0.8-0.7,1-1.3h1.3c-0.3,0.9-0.8,1.6-1.5,2.1S65.7,130.2,64.7,130.2z M64.7,123c-0.4,0-0.7,0.1-1,0.2s-0.6,0.3-0.8,0.5
	s-0.5,0.4-0.6,0.7c-0.2,0.3-0.3,0.6-0.4,0.9h5.7c-0.1-0.7-0.4-1.3-0.9-1.7C66.2,123.2,65.5,123,64.7,123z M70.7,122h1.2v1.2
	c0.2-0.4,0.5-0.7,0.9-0.8c0.4-0.2,0.8-0.3,1.3-0.3h1v1.2h-1c-0.8,0-1.4,0.2-1.7,0.7c-0.3,0.4-0.5,1.1-0.5,2v4.1h-1.2
	C70.7,130.1,70.7,122,70.7,122z M79.1,130.2c-0.4,0-0.8-0.1-1.1-0.2c-0.3-0.1-0.6-0.3-0.9-0.5c-0.2-0.2-0.4-0.5-0.6-0.8
	c-0.1-0.3-0.2-0.7-0.2-1.1h1.3c0,0.5,0.1,0.9,0.4,1.1c0.3,0.2,0.6,0.3,1.1,0.3c0.4,0,0.8-0.1,1-0.4c0.2-0.2,0.4-0.5,0.4-0.9
	c0-0.2,0-0.4-0.1-0.5s-0.2-0.3-0.4-0.4c-0.1-0.1-0.3-0.2-0.5-0.3c-0.2-0.1-0.4-0.2-0.6-0.3c-0.3-0.1-0.5-0.2-0.8-0.3
	c-0.3-0.1-0.5-0.3-0.7-0.4c-0.2-0.2-0.4-0.4-0.5-0.6c-0.1-0.3-0.2-0.6-0.2-0.9s0.1-0.5,0.2-0.8c0.1-0.3,0.3-0.5,0.5-0.7
	s0.5-0.4,0.8-0.5s0.7-0.2,1.1-0.2c0.8,0,1.4,0.2,1.8,0.6s0.7,0.9,0.7,1.6h-1.2c0-0.3-0.1-0.6-0.3-0.8c-0.2-0.2-0.5-0.3-1-0.3
	c-0.4,0-0.7,0.1-0.9,0.3c-0.2,0.2-0.3,0.5-0.3,0.8c0,0.2,0,0.4,0.1,0.5s0.2,0.3,0.4,0.4s0.3,0.2,0.5,0.3c0.2,0.1,0.4,0.2,0.6,0.3
	c0.3,0.1,0.5,0.2,0.8,0.3c0.3,0.1,0.5,0.3,0.7,0.4c0.2,0.2,0.4,0.4,0.5,0.6c0.1,0.3,0.2,0.6,0.2,0.9c0,0.3-0.1,0.6-0.2,0.9
	c-0.1,0.3-0.3,0.5-0.5,0.8c-0.2,0.2-0.5,0.4-0.8,0.5C79.9,130.1,79.5,130.2,79.1,130.2z M83.5,122h1.2v8h-1.2V122z M83.2,119.4
	c0-0.3,0.1-0.5,0.3-0.7s0.4-0.3,0.7-0.3s0.5,0.1,0.7,0.3c0.2,0.2,0.3,0.4,0.3,0.7c0,0.3-0.1,0.5-0.3,0.7s-0.4,0.3-0.7,0.3
	s-0.5-0.1-0.7-0.3C83.3,119.9,83.2,119.7,83.2,119.4z M90.7,130.2c-0.6,0-1.1-0.1-1.6-0.3s-0.9-0.5-1.3-0.9s-0.7-0.8-0.9-1.3
	s-0.3-1-0.3-1.6s0.1-1.1,0.3-1.6s0.5-0.9,0.8-1.3c0.4-0.4,0.8-0.7,1.3-0.9c0.5-0.2,1.1-0.3,1.6-0.3c0.3,0,0.5,0,0.8,0.1
	s0.5,0.2,0.8,0.3c0.3,0.1,0.5,0.3,0.8,0.5c0.2,0.2,0.4,0.4,0.6,0.6v-1.3h1.2v8h-1.2v-1.3c-0.2,0.2-0.4,0.5-0.6,0.6
	c-0.2,0.2-0.5,0.3-0.8,0.5c-0.3,0.1-0.5,0.2-0.8,0.3C91.2,130.2,91,130.2,90.7,130.2z M90.8,129.1c0.4,0,0.8-0.1,1.2-0.2
	c0.4-0.2,0.7-0.4,1-0.6c0.3-0.3,0.5-0.6,0.6-1s0.2-0.8,0.2-1.2s-0.1-0.8-0.2-1.2c-0.1-0.4-0.4-0.7-0.6-1c-0.3-0.3-0.6-0.5-1-0.7
	s-0.8-0.2-1.2-0.2s-0.8,0.1-1.2,0.2c-0.4,0.2-0.7,0.4-0.9,0.7c-0.3,0.3-0.5,0.6-0.6,1s-0.2,0.8-0.2,1.2s0.1,0.8,0.2,1.2
	s0.4,0.7,0.6,1c0.3,0.3,0.6,0.5,0.9,0.6C90,129,90.4,129.1,90.8,129.1z M97.1,122h1.2v1.2c0.3-0.4,0.6-0.7,1.1-1
	c0.5-0.2,1-0.4,1.6-0.4c1.1,0,1.9,0.3,2.5,1s0.9,1.6,0.9,2.7v4.4h-1.2v-4.3c0-0.8-0.2-1.4-0.6-1.9s-1-0.7-1.8-0.7
	c-0.4,0-0.7,0.1-1,0.2s-0.6,0.3-0.8,0.5s-0.4,0.5-0.5,0.8s-0.2,0.7-0.2,1v4.4h-1.2V122z M114.6,130.2c-0.6,0-1.1-0.1-1.5-0.2
	c-0.5-0.2-0.9-0.4-1.2-0.7s-0.6-0.7-0.8-1.1c-0.2-0.4-0.3-0.9-0.3-1.5h1.2v0.1c0,0.4,0.1,0.7,0.2,1c0.1,0.3,0.3,0.5,0.5,0.7
	s0.5,0.3,0.8,0.4c0.3,0.1,0.6,0.2,1,0.2c0.7,0,1.3-0.2,1.7-0.6c0.4-0.4,0.6-0.9,0.6-1.6c0-0.4-0.1-0.7-0.2-1
	c-0.1-0.3-0.4-0.5-0.6-0.7s-0.5-0.4-0.9-0.5s-0.7-0.3-1-0.4c-0.4-0.1-0.8-0.3-1.2-0.4c-0.4-0.2-0.7-0.4-1-0.6s-0.5-0.5-0.7-0.9
	s-0.3-0.8-0.3-1.3s0.1-0.9,0.3-1.2c0.2-0.4,0.4-0.7,0.7-0.9c0.3-0.3,0.7-0.5,1.1-0.6s0.9-0.2,1.4-0.2s1,0.1,1.5,0.2
	c0.4,0.1,0.8,0.4,1.1,0.6c0.3,0.3,0.5,0.6,0.7,1s0.2,0.8,0.2,1.3h-1.2v-0.1c0-0.6-0.2-1.1-0.6-1.5c-0.4-0.4-0.9-0.6-1.7-0.6
	c-0.7,0-1.2,0.2-1.6,0.5s-0.6,0.8-0.6,1.4c0,0.3,0.1,0.6,0.2,0.8c0.1,0.2,0.3,0.4,0.5,0.6s0.5,0.3,0.8,0.4s0.7,0.3,1.1,0.4
	s0.8,0.3,1.2,0.5s0.7,0.4,1,0.7c0.3,0.3,0.6,0.6,0.7,1c0.2,0.4,0.3,0.8,0.3,1.3c0,0.4-0.1,0.9-0.3,1.3c-0.2,0.4-0.4,0.7-0.7,1
	s-0.7,0.5-1.1,0.7C115.7,130.1,115.2,130.2,114.6,130.2z M124.1,130.2c-0.6,0-1.1-0.1-1.6-0.3s-0.9-0.5-1.3-0.9
	c-0.4-0.4-0.7-0.8-0.9-1.3s-0.3-1-0.3-1.6s0.1-1.1,0.3-1.6s0.5-0.9,0.8-1.3c0.4-0.4,0.8-0.7,1.3-0.9c0.5-0.2,1.1-0.3,1.6-0.3
	c0.3,0,0.5,0,0.8,0.1s0.5,0.2,0.8,0.3c0.3,0.1,0.5,0.3,0.8,0.5s0.4,0.4,0.6,0.6v-1.3h1.2v8H127v-1.3c-0.2,0.2-0.4,0.5-0.6,0.6
	c-0.2,0.2-0.5,0.3-0.8,0.5c-0.3,0.1-0.5,0.2-0.8,0.3C124.6,130.2,124.3,130.2,124.1,130.2z M124.2,129.1c0.4,0,0.8-0.1,1.2-0.2
	c0.4-0.2,0.7-0.4,1-0.6c0.3-0.3,0.5-0.6,0.6-1s0.2-0.8,0.2-1.2s-0.1-0.8-0.2-1.2c-0.1-0.4-0.4-0.7-0.6-1c-0.3-0.3-0.6-0.5-1-0.7
	s-0.8-0.2-1.2-0.2s-0.8,0.1-1.2,0.2c-0.4,0.2-0.7,0.4-0.9,0.7c-0.3,0.3-0.5,0.6-0.6,1s-0.2,0.8-0.2,1.2s0.1,0.8,0.2,1.2
	c0.1,0.4,0.4,0.7,0.6,1c0.3,0.3,0.6,0.5,0.9,0.6C123.4,129,123.7,129.1,124.2,129.1z M130.4,118.4h1.2v11.7h-1.2V118.4z M133.2,122
	h1.3l2.4,6.4l2.4-6.4h1.3l-3.1,8h-1.2L133.2,122z M145.7,130.2c-0.6,0-1.1-0.1-1.6-0.3s-0.9-0.5-1.3-0.9c-0.4-0.4-0.7-0.8-0.9-1.3
	s-0.3-1-0.3-1.6s0.1-1.1,0.3-1.6s0.5-0.9,0.8-1.3c0.4-0.4,0.8-0.7,1.3-0.9c0.5-0.2,1.1-0.3,1.6-0.3c0.3,0,0.5,0,0.8,0.1
	s0.5,0.2,0.8,0.3c0.3,0.1,0.5,0.3,0.8,0.5s0.4,0.4,0.6,0.6v-1.3h1.2v8h-1.2v-1.3c-0.2,0.2-0.4,0.5-0.6,0.6c-0.2,0.2-0.5,0.3-0.8,0.5
	c-0.3,0.1-0.5,0.2-0.8,0.3C146.2,130.2,146,130.2,145.7,130.2z M145.8,129.1c0.4,0,0.8-0.1,1.2-0.2c0.4-0.2,0.7-0.4,1-0.6
	c0.3-0.3,0.5-0.6,0.6-1s0.2-0.8,0.2-1.2s-0.1-0.8-0.2-1.2c-0.1-0.4-0.4-0.7-0.6-1s-0.6-0.5-1-0.7s-0.8-0.2-1.2-0.2s-0.8,0.1-1.2,0.2
	c-0.4,0.2-0.7,0.4-0.9,0.7c-0.3,0.3-0.5,0.6-0.6,1s-0.2,0.8-0.2,1.2s0.1,0.8,0.2,1.2s0.4,0.7,0.6,1c0.3,0.3,0.6,0.5,0.9,0.6
	C145,129,145.4,129.1,145.8,129.1z M155.8,130.2c-0.6,0-1.1-0.1-1.6-0.3s-0.9-0.5-1.3-0.9c-0.4-0.4-0.6-0.8-0.9-1.3
	c-0.2-0.5-0.3-1-0.3-1.6s0.1-1.1,0.3-1.6s0.5-0.9,0.8-1.3c0.4-0.4,0.8-0.7,1.3-0.9c0.5-0.2,1.1-0.3,1.6-0.3c0.3,0,0.5,0,0.8,0.1
	s0.5,0.2,0.8,0.3c0.3,0.1,0.5,0.3,0.7,0.4c0.2,0.2,0.4,0.4,0.6,0.6v-5h1.2v11.7h-1.2v-1.3c-0.2,0.2-0.4,0.5-0.6,0.6
	c-0.2,0.2-0.5,0.3-0.8,0.5c-0.3,0.1-0.5,0.2-0.8,0.3C156.3,130.2,156.1,130.2,155.8,130.2z M155.9,129.1c0.4,0,0.8-0.1,1.2-0.2
	c0.4-0.2,0.7-0.4,1-0.6c0.3-0.3,0.5-0.6,0.6-1s0.2-0.8,0.2-1.2s-0.1-0.8-0.2-1.2c-0.1-0.4-0.4-0.7-0.6-1c-0.3-0.3-0.6-0.5-1-0.7
	s-0.8-0.2-1.2-0.2s-0.8,0.1-1.2,0.2c-0.4,0.2-0.7,0.4-0.9,0.7c-0.3,0.3-0.5,0.6-0.6,1s-0.2,0.8-0.2,1.2s0.1,0.8,0.2,1.2
	c0.2,0.4,0.4,0.7,0.6,1c0.3,0.3,0.6,0.5,0.9,0.6C155.1,129,155.5,129.1,155.9,129.1z M166,130.2c-0.6,0-1.1-0.1-1.6-0.3
	s-0.9-0.5-1.3-0.9c-0.4-0.4-0.7-0.8-0.9-1.3s-0.3-1.1-0.3-1.6s0.1-1.1,0.3-1.6s0.5-1,0.9-1.3c0.4-0.4,0.8-0.7,1.3-0.9
	c0.5-0.2,1-0.3,1.6-0.3s1.1,0.1,1.6,0.3c0.5,0.2,1,0.5,1.3,0.9c0.4,0.4,0.7,0.8,0.9,1.3s0.3,1,0.3,1.6s-0.1,1.1-0.3,1.6
	s-0.5,0.9-0.9,1.3c-0.4,0.4-0.8,0.7-1.3,0.9S166.5,130.2,166,130.2z M166,129.1c0.4,0,0.8-0.1,1.1-0.2c0.4-0.2,0.7-0.4,0.9-0.6
	c0.3-0.3,0.5-0.6,0.6-1s0.2-0.8,0.2-1.2s-0.1-0.8-0.2-1.2c-0.1-0.4-0.4-0.7-0.6-1c-0.3-0.3-0.6-0.5-0.9-0.7
	c-0.4-0.2-0.7-0.2-1.1-0.2c-0.4,0-0.8,0.1-1.1,0.2s-0.7,0.4-0.9,0.7c-0.3,0.3-0.5,0.6-0.6,1s-0.2,0.8-0.2,1.2s0.1,0.8,0.2,1.2
	c0.1,0.4,0.4,0.7,0.6,1c0.3,0.3,0.6,0.5,0.9,0.6C165.2,129,165.6,129.1,166,129.1z M172,122h1.2v1.2c0.2-0.4,0.5-0.7,0.9-0.8
	c0.4-0.2,0.8-0.3,1.3-0.3h1v1.2h-1c-0.8,0-1.4,0.2-1.7,0.7c-0.3,0.4-0.5,1.1-0.5,2v4.1H172V122z M177.7,132.5
	c0.7-0.2,1.3-0.5,1.9-0.9c0.6-0.4,1.1-0.9,1.5-1.5s0.8-1.2,1-1.9s0.4-1.4,0.4-2.2c0-0.8-0.1-1.5-0.4-2.2c-0.2-0.7-0.6-1.3-1-1.9
	s-0.9-1.1-1.5-1.5s-1.2-0.7-1.9-0.9v-1.3c0.9,0.2,1.7,0.5,2.4,1s1.4,1,1.9,1.7s1,1.4,1.3,2.3c0.3,0.8,0.5,1.7,0.5,2.7
	c0,0.9-0.2,1.8-0.5,2.7c-0.3,0.8-0.7,1.6-1.3,2.3c-0.5,0.7-1.2,1.3-1.9,1.7c-0.7,0.5-1.5,0.8-2.4,1V132.5z"/>
<rect x="199.1" y="48.9" class="st1" width="76" height="1"/>
<rect x="199.1" y="125.5" class="st1" width="76" height="1"/>
<rect x="199.1" y="199.3" class="st1" width="76" height="1"/>
<rect x="199.1" y="271.3" class="st1" width="76" height="1"/>
<rect x="199.1" y="350.2" class="st1" width="76" height="1"/>
</svg>
