<?xml version="1.0" encoding="utf-8"?>
<!-- Generator: Adobe Illustrator 23.0.1, SVG Export Plug-In . SVG Version: 6.00 Build 0)  -->
<svg version="1.1" id="Шар_1" xmlns="http://www.w3.org/2000/svg" xmlns:xlink="http://www.w3.org/1999/xlink" x="0px" y="0px"
	 viewBox="0 0 678.7 397.7" style="enable-background:new 0 0 678.7 397.7;" xml:space="preserve">
<style type="text/css">
	.st0{fill-rule:evenodd;clip-rule:evenodd;fill:#344F10;}
	.st1{fill:#333333;}
</style>
<path class="st0" d="M297.6,14.9c143.9-19.1,226.9-20.6,380.3,0l0.9,0.1v0.9v66.5v1h-1h-8.1v30.5v1h-1h-15.2
	c-0.1,0.4-0.2,0.9-0.3,1.5c-0.2,1.4-0.5,3.4-0.7,5.6c-0.4,4.5-0.4,9.8,1.1,13.6c1.5,4.1,5.4,8.5,9,11.9c1.8,1.7,3.5,3.1,4.7,4.1
	c0.6,0.5,1.1,0.9,1.5,1.2c0.2,0.1,0.3,0.2,0.4,0.3c0,0,0.1,0.1,0.1,0.1l0,0l0,0l0,0h0l0.4,0.3v0.5v25.5h8.1h1v1v159.5v1h-1h-8.1v36
	v0.8l-0.8,0.2c-125.9,26.4-206.4,26.4-360.6,0l-0.8-0.1v-0.8v-36h-9.7h-1v-1V180.4v-1h1h9.7v-25.5v-0.6l0.5-0.3
	c0.9-0.5,1.8-1,2.7-1.5c2.8-1.5,5.7-3.1,8.2-5.1c3.2-2.6,5.7-5.9,6.3-10.7l0,0l0,0c0.9-6.5,1.1-11,0.1-20.9h-16.7h-1v-1V83.4h-9.7
	h-1v-1V15.9V15L297.6,14.9z M309.4,341c146.7,15.6,225.6,15.6,358.3,0v35.1c-124.9,26.1-205.1,26.2-358.3,0V341z M327.1,114.9h324.3
	c-0.1,0.3-0.1,0.7-0.2,1.1c-0.2,1.4-0.5,3.5-0.7,5.7c-0.2,2.9-0.3,6.4,0.1,9.6h-323C328,126.8,327.9,122.3,327.1,114.9z
	 M327.4,133.4h323.6c0.2,1,0.5,2,0.8,2.8c1.7,4.6,5.8,9.2,9.5,12.6c1.8,1.7,3.5,3.2,4.8,4.2c0.6,0.5,1.2,0.9,1.5,1.2
	c0.1,0,0.1,0.1,0.2,0.1V180c-139.4,6.8-218.4,6.3-358.3-0.1v-25.5c0.6-0.4,1.3-0.7,2-1.1l0,0l0,0c2.8-1.5,5.9-3.2,8.6-5.3
	c3.5-2.8,6.4-6.6,7-12C327.1,135.1,327.3,134.2,327.4,133.4z M326,112.9h326.6h15V83.4H309.4v29.5H326L326,112.9z M308.4,81.4
	L308.4,81.4h360.3h8.1V16.8c-152.4-20.4-235.1-19-378,0v64.6H308.4z M308.4,181.9l0-0.5h-9.7v157.5h9.7h0.1l0.1,0
	c147.7,15.8,226.5,15.8,360,0l0.1,0h0.1h8.1V181.4h-6.4l0,0.5C529,188.8,449.7,188.3,308.4,181.9z"/>
<path class="st1" d="M85.9,265.4h1.2v10.5h5.2v1.2h-6.5V265.4z M94.4,269.1h1.2v8h-1.2V269.1z M94,266.4c0-0.3,0.1-0.5,0.3-0.7
	c0.2-0.2,0.4-0.3,0.7-0.3c0.3,0,0.5,0.1,0.7,0.3c0.2,0.2,0.3,0.4,0.3,0.7c0,0.3-0.1,0.5-0.3,0.7c-0.2,0.2-0.4,0.3-0.7,0.3
	s-0.5-0.1-0.7-0.3C94.1,266.9,94,266.7,94,266.4z M101.6,277.2c-0.6,0-1.1-0.1-1.6-0.3c-0.5-0.2-0.9-0.5-1.3-0.9
	c-0.4-0.4-0.7-0.8-0.9-1.3c-0.2-0.5-0.3-1.1-0.3-1.6s0.1-1.1,0.3-1.6c0.2-0.5,0.5-1,0.9-1.3c0.4-0.4,0.8-0.7,1.3-0.9
	c0.5-0.2,1-0.3,1.6-0.3c0.6,0,1.1,0.1,1.5,0.3c0.5,0.2,0.9,0.4,1.2,0.7c0.4,0.3,0.6,0.7,0.9,1.1c0.2,0.4,0.4,0.9,0.5,1.4h-1.3
	c-0.1-0.7-0.4-1.3-0.9-1.7c-0.5-0.4-1.1-0.6-1.9-0.6c-0.4,0-0.8,0.1-1.1,0.2c-0.4,0.2-0.7,0.4-0.9,0.7c-0.3,0.3-0.5,0.6-0.6,1
	c-0.1,0.4-0.2,0.8-0.2,1.2c0,0.4,0.1,0.8,0.2,1.2c0.1,0.4,0.4,0.7,0.6,1c0.3,0.3,0.6,0.5,0.9,0.6c0.4,0.2,0.7,0.2,1.1,0.2
	c0.4,0,0.7-0.1,1-0.2c0.3-0.1,0.6-0.3,0.8-0.5c0.3-0.2,0.5-0.5,0.6-0.8c0.2-0.3,0.3-0.6,0.4-1h1.3c-0.1,0.5-0.2,1-0.5,1.4
	c-0.2,0.4-0.5,0.8-0.9,1.1c-0.4,0.3-0.8,0.5-1.2,0.7C102.6,277.1,102.1,277.2,101.6,277.2z M111.4,277.2c-0.6,0-1.1-0.1-1.6-0.3
	c-0.5-0.2-0.9-0.5-1.3-0.9c-0.4-0.4-0.7-0.8-0.9-1.3c-0.2-0.5-0.3-1.1-0.3-1.6s0.1-1.1,0.3-1.6c0.2-0.5,0.5-1,0.9-1.3
	c0.4-0.4,0.8-0.7,1.3-0.9c0.5-0.2,1-0.3,1.6-0.3s1.1,0.1,1.6,0.3c0.5,0.2,1,0.5,1.3,0.9c0.4,0.4,0.7,0.8,0.9,1.3
	c0.2,0.5,0.3,1,0.3,1.6s-0.1,1.1-0.3,1.6c-0.2,0.5-0.5,0.9-0.9,1.3c-0.4,0.4-0.8,0.7-1.3,0.9C112.6,277.1,112,277.2,111.4,277.2z
	 M111.4,276.1c0.4,0,0.8-0.1,1.1-0.2c0.4-0.2,0.7-0.4,0.9-0.6c0.3-0.3,0.5-0.6,0.6-1c0.1-0.4,0.2-0.8,0.2-1.2c0-0.4-0.1-0.8-0.2-1.2
	c-0.1-0.4-0.4-0.7-0.6-1c-0.3-0.3-0.6-0.5-0.9-0.7c-0.4-0.2-0.7-0.2-1.1-0.2c-0.4,0-0.8,0.1-1.1,0.2c-0.4,0.2-0.7,0.4-0.9,0.7
	c-0.3,0.3-0.5,0.6-0.6,1c-0.1,0.4-0.2,0.8-0.2,1.2c0,0.4,0.1,0.8,0.2,1.2c0.1,0.4,0.4,0.7,0.6,1c0.3,0.3,0.6,0.5,0.9,0.6
	C110.7,276,111,276.1,111.4,276.1z M117.5,269.1h1.2v1.2c0.2-0.4,0.5-0.7,0.9-0.8c0.4-0.2,0.8-0.3,1.3-0.3h1v1.2h-1
	c-0.8,0-1.4,0.2-1.7,0.7c-0.3,0.4-0.5,1.1-0.5,2v4.1h-1.2V269.1z M123.7,269.1h1.2v8h-1.2V269.1z M123.3,266.4
	c0-0.3,0.1-0.5,0.3-0.7c0.2-0.2,0.4-0.3,0.7-0.3c0.3,0,0.5,0.1,0.7,0.3c0.2,0.2,0.3,0.4,0.3,0.7c0,0.3-0.1,0.5-0.3,0.7
	c-0.2,0.2-0.4,0.3-0.7,0.3s-0.5-0.1-0.7-0.3C123.4,266.9,123.3,266.7,123.3,266.4z M130.9,277.2c-0.6,0-1.1-0.1-1.6-0.3
	c-0.5-0.2-0.9-0.5-1.3-0.9c-0.4-0.4-0.7-0.8-0.9-1.3c-0.2-0.5-0.3-1.1-0.3-1.6s0.1-1.1,0.3-1.6c0.2-0.5,0.5-1,0.9-1.3
	c0.4-0.4,0.8-0.7,1.3-0.9c0.5-0.2,1-0.3,1.6-0.3c0.6,0,1.1,0.1,1.5,0.3c0.5,0.2,0.9,0.4,1.2,0.7c0.4,0.3,0.6,0.7,0.9,1.1
	c0.2,0.4,0.4,0.9,0.5,1.4h-1.3c-0.1-0.7-0.4-1.3-0.9-1.7c-0.5-0.4-1.1-0.6-1.9-0.6c-0.4,0-0.8,0.1-1.1,0.2c-0.4,0.2-0.7,0.4-0.9,0.7
	c-0.3,0.3-0.5,0.6-0.6,1c-0.1,0.4-0.2,0.8-0.2,1.2c0,0.4,0.1,0.8,0.2,1.2c0.1,0.4,0.4,0.7,0.6,1c0.3,0.3,0.6,0.5,0.9,0.6
	c0.4,0.2,0.7,0.2,1.1,0.2c0.4,0,0.7-0.1,1-0.2c0.3-0.1,0.6-0.3,0.8-0.5c0.3-0.2,0.5-0.5,0.6-0.8c0.2-0.3,0.3-0.6,0.4-1h1.3
	c-0.1,0.5-0.2,1-0.5,1.4c-0.2,0.4-0.5,0.8-0.9,1.1c-0.4,0.3-0.8,0.5-1.2,0.7C131.9,277.1,131.4,277.2,130.9,277.2z M140.7,277.2
	c-0.6,0-1.2-0.1-1.7-0.3c-0.5-0.2-0.9-0.5-1.3-0.9c-0.4-0.4-0.6-0.8-0.8-1.3c-0.2-0.5-0.3-1-0.3-1.6c0-0.6,0.1-1.2,0.3-1.7
	c0.2-0.5,0.5-1,0.9-1.3c0.4-0.4,0.8-0.7,1.3-0.9c0.5-0.2,1.1-0.3,1.7-0.3c0.6,0,1.1,0.1,1.6,0.3c0.5,0.2,0.9,0.5,1.3,0.8
	c0.4,0.4,0.7,0.8,0.9,1.3c0.2,0.5,0.3,1,0.3,1.6v0.5h-7.1c0,0.4,0.1,0.7,0.3,1.1c0.2,0.3,0.4,0.6,0.6,0.9c0.3,0.2,0.6,0.4,0.9,0.6
	c0.4,0.1,0.7,0.2,1.2,0.2c0.7,0,1.2-0.2,1.7-0.5c0.5-0.3,0.8-0.7,1-1.3h1.3c-0.3,0.9-0.8,1.6-1.5,2.1
	C142.6,277,141.7,277.2,140.7,277.2z M140.7,270c-0.4,0-0.7,0.1-1,0.2c-0.3,0.1-0.6,0.3-0.8,0.5c-0.2,0.2-0.5,0.4-0.6,0.7
	c-0.2,0.3-0.3,0.6-0.4,0.9h5.7c-0.1-0.7-0.4-1.3-0.9-1.7C142.2,270.2,141.5,270,140.7,270z M151.3,265.4h3.6c0.6,0,1.1,0.1,1.6,0.3
	c0.5,0.2,0.9,0.5,1.3,0.8c0.4,0.3,0.6,0.7,0.8,1.2c0.2,0.4,0.3,0.9,0.3,1.4c0,0.4-0.1,0.8-0.2,1.2c-0.1,0.4-0.3,0.7-0.6,1.1
	c-0.2,0.3-0.5,0.6-0.9,0.8c-0.4,0.2-0.8,0.4-1.2,0.5l3,4.4h-1.5l-3.5-5.3h0.8c0.4,0,0.8-0.1,1.2-0.2c0.4-0.1,0.7-0.3,0.9-0.6
	s0.4-0.5,0.6-0.8c0.1-0.3,0.2-0.6,0.2-1c0-0.4-0.1-0.7-0.2-1c-0.1-0.3-0.3-0.6-0.6-0.8c-0.2-0.2-0.5-0.4-0.9-0.5
	c-0.3-0.1-0.7-0.2-1.2-0.2h-2.2v10.5h-1.2V265.4z M164.2,277.2c-0.6,0-1.1-0.1-1.6-0.3c-0.5-0.2-0.9-0.5-1.3-0.9
	c-0.4-0.4-0.7-0.8-0.9-1.3c-0.2-0.5-0.3-1.1-0.3-1.6s0.1-1.1,0.3-1.6c0.2-0.5,0.5-1,0.9-1.3c0.4-0.4,0.8-0.7,1.3-0.9
	c0.5-0.2,1-0.3,1.6-0.3s1.1,0.1,1.6,0.3c0.5,0.2,1,0.5,1.3,0.9c0.4,0.4,0.7,0.8,0.9,1.3c0.2,0.5,0.3,1,0.3,1.6s-0.1,1.1-0.3,1.6
	c-0.2,0.5-0.5,0.9-0.9,1.3c-0.4,0.4-0.8,0.7-1.3,0.9C165.3,277.1,164.8,277.2,164.2,277.2z M164.2,276.1c0.4,0,0.8-0.1,1.1-0.2
	c0.4-0.2,0.7-0.4,0.9-0.6c0.3-0.3,0.5-0.6,0.6-1c0.1-0.4,0.2-0.8,0.2-1.2c0-0.4-0.1-0.8-0.2-1.2c-0.1-0.4-0.4-0.7-0.6-1
	c-0.3-0.3-0.6-0.5-0.9-0.7c-0.4-0.2-0.7-0.2-1.1-0.2c-0.4,0-0.8,0.1-1.1,0.2c-0.4,0.2-0.7,0.4-0.9,0.7c-0.3,0.3-0.5,0.6-0.6,1
	c-0.1,0.4-0.2,0.8-0.2,1.2c0,0.4,0.1,0.8,0.2,1.2c0.1,0.4,0.4,0.7,0.6,1c0.3,0.3,0.6,0.5,0.9,0.6S163.8,276.1,164.2,276.1z
	 M174.2,277.2c-0.6,0-1.1-0.1-1.6-0.3c-0.5-0.2-0.9-0.5-1.3-0.9c-0.4-0.4-0.7-0.8-0.9-1.3c-0.2-0.5-0.3-1.1-0.3-1.6s0.1-1.1,0.3-1.6
	c0.2-0.5,0.5-1,0.9-1.3c0.4-0.4,0.8-0.7,1.3-0.9c0.5-0.2,1-0.3,1.6-0.3c0.6,0,1.1,0.1,1.6,0.3c0.5,0.2,1,0.5,1.3,0.9
	c0.4,0.4,0.7,0.8,0.9,1.3c0.2,0.5,0.3,1,0.3,1.6s-0.1,1.1-0.3,1.6c-0.2,0.5-0.5,0.9-0.9,1.3c-0.4,0.4-0.8,0.7-1.3,0.9
	C175.3,277.1,174.7,277.2,174.2,277.2z M174.2,276.1c0.4,0,0.8-0.1,1.1-0.2c0.4-0.2,0.7-0.4,0.9-0.6c0.3-0.3,0.5-0.6,0.6-1
	c0.1-0.4,0.2-0.8,0.2-1.2c0-0.4-0.1-0.8-0.2-1.2c-0.1-0.4-0.4-0.7-0.6-1c-0.3-0.3-0.6-0.5-0.9-0.7c-0.4-0.2-0.7-0.2-1.1-0.2
	c-0.4,0-0.8,0.1-1.1,0.2c-0.4,0.2-0.7,0.4-0.9,0.7c-0.3,0.3-0.5,0.6-0.6,1c-0.1,0.4-0.2,0.8-0.2,1.2c0,0.4,0.1,0.8,0.2,1.2
	c0.1,0.4,0.4,0.7,0.6,1c0.3,0.3,0.6,0.5,0.9,0.6C173.4,276,173.7,276.1,174.2,276.1z M179.2,269.1h1.4v-1.9l1.2-0.7v2.6h1.9v1.1
	h-1.9v3.8c0,0.4,0,0.7,0.1,1c0.1,0.2,0.1,0.4,0.3,0.6s0.3,0.2,0.6,0.3s0.6,0.1,1,0.1v1.2h-0.2c-0.6,0-1.1,0-1.5-0.1
	c-0.4-0.1-0.7-0.3-0.9-0.5c-0.2-0.2-0.4-0.5-0.5-0.9c-0.1-0.4-0.1-0.9-0.1-1.5v-3.8h-1.4V269.1z"/>
<path class="st1" d="M278.5,46.6c-1.2,0-2.2,0.9-2.4,2h-75v1h75c0.2,1.1,1.2,2,2.4,2c1.4,0,2.5-1.1,2.5-2.5
	C281,47.7,279.9,46.6,278.5,46.6z"/>
<path class="st1" d="M121,346h-3.4v-1.2h8v1.2h-3.3v10.5H121V346z M128.9,356.6c-1.1,0-2-0.3-2.6-1c-0.6-0.7-0.9-1.6-0.9-2.7v-4.4
	h1.2v4.4c0,0.8,0.2,1.4,0.6,1.9c0.4,0.5,1,0.7,1.7,0.7c0.3,0,0.7-0.1,0.9-0.2c0.3-0.1,0.6-0.3,0.8-0.6c0.2-0.2,0.4-0.5,0.5-0.8
	c0.1-0.3,0.2-0.7,0.2-1v-4.4h1.2v8h-1.2v-1.2c-0.3,0.4-0.6,0.7-1.1,1C129.9,356.5,129.4,356.6,128.9,356.6z M134.9,348.5h1.2v1.2
	c0.2-0.4,0.5-0.7,0.9-0.8c0.4-0.2,0.8-0.3,1.3-0.3h1v1.2h-1c-0.8,0-1.4,0.2-1.7,0.7c-0.3,0.4-0.5,1.1-0.5,2v4.1h-1.2V348.5z
	 M141.1,348.5h1.2v1.1c0.3-0.4,0.6-0.7,1-0.9c0.4-0.2,0.9-0.3,1.5-0.3c0.7,0,1.3,0.2,1.8,0.5c0.5,0.3,0.8,0.7,1.1,1.2
	c0.3-0.5,0.6-0.9,1.1-1.2c0.5-0.3,1.1-0.4,1.8-0.4c0.6,0,1.1,0.1,1.5,0.3c0.4,0.2,0.8,0.4,1.1,0.7c0.3,0.3,0.5,0.7,0.7,1.1
	c0.2,0.4,0.2,0.9,0.2,1.4v4.7h-1.2v-4.8c0-0.7-0.2-1.2-0.6-1.6c-0.4-0.4-1-0.6-1.7-0.6c-0.3,0-0.6,0.1-0.9,0.2
	c-0.3,0.1-0.5,0.3-0.7,0.5c-0.2,0.2-0.4,0.5-0.5,0.8c-0.1,0.3-0.2,0.6-0.2,1v4.7H147v-4.9c0-0.6-0.2-1.2-0.6-1.5
	c-0.4-0.4-0.9-0.6-1.6-0.6c-0.4,0-0.7,0.1-1,0.2c-0.3,0.1-0.6,0.3-0.8,0.5c-0.2,0.2-0.4,0.5-0.5,0.8c-0.1,0.3-0.2,0.7-0.2,1.1v4.5
	h-1.2V348.5z M160.1,356.6c-0.6,0-1.2-0.1-1.7-0.3c-0.5-0.2-0.9-0.5-1.3-0.9c-0.4-0.4-0.6-0.8-0.8-1.3c-0.2-0.5-0.3-1-0.3-1.6
	c0-0.6,0.1-1.2,0.3-1.7c0.2-0.5,0.5-1,0.9-1.3c0.4-0.4,0.8-0.7,1.3-0.9c0.5-0.2,1.1-0.3,1.7-0.3c0.6,0,1.1,0.1,1.6,0.3
	c0.5,0.2,0.9,0.5,1.3,0.8c0.4,0.4,0.7,0.8,0.9,1.3c0.2,0.5,0.3,1,0.3,1.6v0.5h-7.1c0,0.4,0.1,0.7,0.3,1.1c0.2,0.3,0.4,0.6,0.6,0.9
	c0.3,0.2,0.6,0.4,0.9,0.6c0.4,0.1,0.7,0.2,1.2,0.2c0.7,0,1.2-0.2,1.7-0.5c0.5-0.3,0.8-0.7,1-1.3h1.3c-0.3,0.9-0.8,1.6-1.5,2.1
	C162,356.4,161.1,356.6,160.1,356.6z M160.1,349.4c-0.4,0-0.7,0.1-1,0.2c-0.3,0.1-0.6,0.3-0.8,0.5c-0.2,0.2-0.5,0.4-0.6,0.7
	c-0.2,0.3-0.3,0.6-0.4,0.9h5.7c-0.1-0.7-0.4-1.3-0.9-1.7C161.5,349.6,160.9,349.4,160.1,349.4z M166.1,348.5h1.2v1.2
	c0.2-0.4,0.5-0.7,0.9-0.8c0.4-0.2,0.8-0.3,1.3-0.3h1v1.2h-1c-0.8,0-1.4,0.2-1.7,0.7c-0.3,0.4-0.5,1.1-0.5,2v4.1h-1.2V348.5z
	 M172.3,348.5h1.2v8h-1.2V348.5z M172,345.8c0-0.3,0.1-0.5,0.3-0.7c0.2-0.2,0.4-0.3,0.7-0.3c0.3,0,0.5,0.1,0.7,0.3
	c0.2,0.2,0.3,0.4,0.3,0.7c0,0.3-0.1,0.5-0.3,0.7c-0.2,0.2-0.4,0.3-0.7,0.3c-0.3,0-0.5-0.1-0.7-0.3C172.1,346.4,172,346.1,172,345.8z
	 M179.6,356.6c-0.6,0-1.1-0.1-1.6-0.3c-0.5-0.2-0.9-0.5-1.3-0.9c-0.4-0.4-0.7-0.8-0.9-1.3c-0.2-0.5-0.3-1.1-0.3-1.6s0.1-1.1,0.3-1.6
	c0.2-0.5,0.5-1,0.9-1.3c0.4-0.4,0.8-0.7,1.3-0.9c0.5-0.2,1-0.3,1.6-0.3c0.6,0,1.1,0.1,1.5,0.3c0.5,0.2,0.9,0.4,1.2,0.7
	c0.4,0.3,0.6,0.7,0.9,1.1c0.2,0.4,0.4,0.9,0.5,1.4h-1.3c-0.1-0.7-0.4-1.3-0.9-1.7c-0.5-0.4-1.1-0.6-1.9-0.6c-0.4,0-0.8,0.1-1.1,0.2
	c-0.4,0.2-0.7,0.4-0.9,0.7c-0.3,0.3-0.5,0.6-0.6,1c-0.1,0.4-0.2,0.8-0.2,1.2c0,0.4,0.1,0.8,0.2,1.2c0.1,0.4,0.4,0.7,0.6,1
	c0.3,0.3,0.6,0.5,0.9,0.6c0.4,0.2,0.7,0.2,1.1,0.2c0.4,0,0.7-0.1,1-0.2c0.3-0.1,0.6-0.3,0.8-0.5c0.3-0.2,0.5-0.5,0.6-0.8
	c0.2-0.3,0.3-0.6,0.4-1h1.3c-0.1,0.5-0.2,1-0.5,1.4c-0.2,0.4-0.5,0.8-0.9,1.1c-0.4,0.3-0.8,0.5-1.2,0.7
	C180.6,356.6,180.1,356.6,179.6,356.6z"/>
<path class="st1" d="M37.1,204.8c-0.8,0-1.6-0.2-2.3-0.5c-0.7-0.3-1.4-0.8-1.9-1.3c-0.5-0.5-1-1.2-1.3-1.9c-0.3-0.7-0.5-1.5-0.5-2.3
	s0.2-1.6,0.5-2.3c0.3-0.7,0.8-1.4,1.3-1.9c0.5-0.5,1.2-1,1.9-1.3c0.7-0.3,1.5-0.5,2.3-0.5c0.7,0,1.3,0.1,1.9,0.3
	c0.6,0.2,1.2,0.5,1.7,0.9c0.5,0.4,0.9,0.8,1.3,1.3c0.4,0.5,0.7,1.1,0.8,1.7h-1.3c-0.2-0.4-0.4-0.9-0.7-1.2c-0.3-0.4-0.6-0.7-1-1
	c-0.4-0.3-0.8-0.5-1.2-0.6c-0.5-0.1-0.9-0.2-1.5-0.2c-0.7,0-1.3,0.1-1.9,0.4c-0.6,0.3-1.1,0.6-1.5,1c-0.4,0.4-0.7,0.9-1,1.5
	c-0.2,0.6-0.4,1.2-0.4,1.9s0.1,1.3,0.4,1.9c0.2,0.6,0.6,1.1,1,1.5c0.4,0.4,0.9,0.8,1.5,1s1.2,0.4,1.9,0.4c0.5,0,1-0.1,1.4-0.2
	c0.4-0.1,0.9-0.4,1.2-0.6c0.4-0.3,0.7-0.6,1-0.9c0.3-0.4,0.5-0.8,0.7-1.2h1.4c-0.2,0.6-0.5,1.2-0.8,1.7c-0.4,0.5-0.8,0.9-1.3,1.3
	c-0.5,0.4-1,0.6-1.6,0.8C38.4,204.7,37.8,204.8,37.1,204.8z M48.6,204.8c-0.6,0-1.1-0.1-1.6-0.3c-0.5-0.2-0.9-0.5-1.3-0.9
	c-0.4-0.4-0.7-0.8-0.9-1.3c-0.2-0.5-0.3-1-0.3-1.6c0-0.6,0.1-1.1,0.3-1.6c0.2-0.5,0.5-0.9,0.8-1.3c0.4-0.4,0.8-0.7,1.3-0.9
	c0.5-0.2,1.1-0.3,1.6-0.3c0.3,0,0.5,0,0.8,0.1c0.3,0.1,0.5,0.2,0.8,0.3c0.3,0.1,0.5,0.3,0.8,0.5c0.2,0.2,0.4,0.4,0.6,0.6v-1.3h1.2v8
	h-1.2v-1.3c-0.2,0.2-0.4,0.5-0.6,0.6c-0.2,0.2-0.5,0.3-0.8,0.5c-0.3,0.1-0.5,0.2-0.8,0.3C49.1,204.8,48.9,204.8,48.6,204.8z
	 M48.7,203.7c0.4,0,0.8-0.1,1.2-0.2c0.4-0.2,0.7-0.4,1-0.6c0.3-0.3,0.5-0.6,0.6-1c0.1-0.4,0.2-0.8,0.2-1.2s-0.1-0.8-0.2-1.2
	c-0.1-0.4-0.4-0.7-0.6-1c-0.3-0.3-0.6-0.5-1-0.7c-0.4-0.2-0.8-0.2-1.2-0.2c-0.4,0-0.8,0.1-1.2,0.2c-0.4,0.2-0.7,0.4-0.9,0.7
	c-0.3,0.3-0.5,0.6-0.6,1c-0.1,0.4-0.2,0.8-0.2,1.2s0.1,0.8,0.2,1.2c0.1,0.4,0.4,0.7,0.6,1c0.3,0.3,0.6,0.5,0.9,0.6
	C47.9,203.6,48.3,203.7,48.7,203.7z M55,193h1.2v11.7H55V193z M62.2,204.8c-0.6,0-1.1-0.1-1.6-0.3c-0.5-0.2-0.9-0.5-1.3-0.9
	c-0.4-0.4-0.7-0.8-0.9-1.3c-0.2-0.5-0.3-1.1-0.3-1.6s0.1-1.1,0.3-1.6c0.2-0.5,0.5-1,0.9-1.3c0.4-0.4,0.8-0.7,1.3-0.9s1-0.3,1.6-0.3
	c0.6,0,1.1,0.1,1.5,0.3c0.5,0.2,0.9,0.4,1.2,0.7c0.4,0.3,0.6,0.7,0.9,1.1c0.2,0.4,0.4,0.9,0.5,1.4H65c-0.1-0.7-0.4-1.3-0.9-1.7
	c-0.5-0.4-1.1-0.6-1.9-0.6c-0.4,0-0.8,0.1-1.1,0.2c-0.4,0.2-0.7,0.4-0.9,0.7c-0.3,0.3-0.5,0.6-0.6,1c-0.1,0.4-0.2,0.8-0.2,1.2
	s0.1,0.8,0.2,1.2s0.4,0.7,0.6,1c0.3,0.3,0.6,0.5,0.9,0.6s0.7,0.2,1.1,0.2c0.4,0,0.7-0.1,1-0.2c0.3-0.1,0.6-0.3,0.8-0.5
	c0.3-0.2,0.5-0.5,0.6-0.8c0.2-0.3,0.3-0.6,0.4-1h1.3c-0.1,0.5-0.2,1-0.5,1.4c-0.2,0.4-0.5,0.8-0.9,1.1c-0.4,0.3-0.8,0.5-1.2,0.7
	C63.2,204.8,62.7,204.8,62.2,204.8z M68.2,196.7h1.2v8h-1.2V196.7z M67.8,194c0-0.3,0.1-0.5,0.3-0.7c0.2-0.2,0.4-0.3,0.7-0.3
	c0.3,0,0.5,0.1,0.7,0.3c0.2,0.2,0.3,0.4,0.3,0.7s-0.1,0.5-0.3,0.7c-0.2,0.2-0.4,0.3-0.7,0.3s-0.5-0.1-0.7-0.3
	C67.9,194.6,67.8,194.3,67.8,194z M75,204.8c-1.1,0-2-0.3-2.6-1c-0.6-0.7-0.9-1.6-0.9-2.7v-4.4h1.2v4.4c0,0.8,0.2,1.4,0.6,1.9
	c0.4,0.5,1,0.7,1.7,0.7c0.3,0,0.7-0.1,0.9-0.2c0.3-0.1,0.6-0.3,0.8-0.6c0.2-0.2,0.4-0.5,0.5-0.8c0.1-0.3,0.2-0.7,0.2-1v-4.4h1.2v8
	h-1.2v-1.2c-0.3,0.4-0.6,0.7-1.1,1C76,204.7,75.5,204.8,75,204.8z M81,196.7h1.2v1.1c0.3-0.4,0.6-0.7,1-0.9c0.4-0.2,0.9-0.3,1.5-0.3
	c0.7,0,1.3,0.2,1.8,0.5c0.5,0.3,0.8,0.7,1.1,1.2c0.3-0.5,0.6-0.9,1.1-1.2c0.5-0.3,1.1-0.4,1.8-0.4c0.6,0,1.1,0.1,1.5,0.3
	c0.4,0.2,0.8,0.4,1.1,0.7c0.3,0.3,0.5,0.7,0.7,1.1c0.2,0.4,0.2,0.9,0.2,1.4v4.7h-1.2v-4.8c0-0.7-0.2-1.2-0.6-1.6
	c-0.4-0.4-1-0.6-1.7-0.6c-0.3,0-0.6,0.1-0.9,0.2c-0.3,0.1-0.5,0.3-0.7,0.5c-0.2,0.2-0.4,0.5-0.5,0.8c-0.1,0.3-0.2,0.6-0.2,1v4.7
	h-1.2v-4.9c0-0.6-0.2-1.2-0.6-1.5c-0.4-0.4-0.9-0.6-1.6-0.6c-0.4,0-0.7,0.1-1,0.2c-0.3,0.1-0.6,0.3-0.8,0.5
	c-0.2,0.2-0.4,0.5-0.5,0.8c-0.1,0.3-0.2,0.7-0.2,1.1v4.5H81V196.7z M106.5,204.8c-0.8,0-1.6-0.2-2.3-0.5c-0.7-0.3-1.4-0.8-1.9-1.3
	c-0.5-0.5-1-1.2-1.3-1.9c-0.3-0.7-0.5-1.5-0.5-2.3s0.2-1.6,0.5-2.3c0.3-0.7,0.8-1.4,1.3-1.9c0.5-0.5,1.2-1,1.9-1.3
	c0.7-0.3,1.5-0.5,2.3-0.5c0.7,0,1.3,0.1,1.9,0.3c0.6,0.2,1.2,0.5,1.7,0.9c0.5,0.4,0.9,0.8,1.3,1.3c0.4,0.5,0.7,1.1,0.8,1.7h-1.3
	c-0.2-0.4-0.4-0.9-0.7-1.2c-0.3-0.4-0.6-0.7-1-1c-0.4-0.3-0.8-0.5-1.2-0.6c-0.5-0.1-0.9-0.2-1.5-0.2c-0.7,0-1.3,0.1-1.9,0.4
	c-0.6,0.3-1.1,0.6-1.5,1c-0.4,0.4-0.7,0.9-1,1.5c-0.2,0.6-0.4,1.2-0.4,1.9s0.1,1.3,0.4,1.9c0.2,0.6,0.6,1.1,1,1.5
	c0.4,0.4,0.9,0.8,1.5,1c0.6,0.3,1.2,0.4,1.9,0.4c0.5,0,1-0.1,1.4-0.2c0.4-0.1,0.9-0.4,1.2-0.6c0.4-0.3,0.7-0.6,1-0.9
	c0.3-0.4,0.5-0.8,0.7-1.2h1.4c-0.2,0.6-0.5,1.2-0.8,1.7c-0.4,0.5-0.8,0.9-1.3,1.3c-0.5,0.4-1,0.6-1.6,0.8
	C107.8,204.7,107.1,204.8,106.5,204.8z M117.9,204.8c-0.6,0-1.1-0.1-1.6-0.3c-0.5-0.2-0.9-0.5-1.3-0.9c-0.4-0.4-0.7-0.8-0.9-1.3
	c-0.2-0.5-0.3-1-0.3-1.6c0-0.6,0.1-1.1,0.3-1.6c0.2-0.5,0.5-0.9,0.8-1.3c0.4-0.4,0.8-0.7,1.3-0.9c0.5-0.2,1.1-0.3,1.6-0.3
	c0.3,0,0.5,0,0.8,0.1c0.3,0.1,0.5,0.2,0.8,0.3c0.3,0.1,0.5,0.3,0.8,0.5c0.2,0.2,0.4,0.4,0.6,0.6v-1.3h1.2v8h-1.2v-1.3
	c-0.2,0.2-0.4,0.5-0.6,0.6c-0.2,0.2-0.5,0.3-0.8,0.5c-0.3,0.1-0.5,0.2-0.8,0.3C118.5,204.8,118.2,204.8,117.9,204.8z M118,203.7
	c0.4,0,0.8-0.1,1.2-0.2c0.4-0.2,0.7-0.4,1-0.6c0.3-0.3,0.5-0.6,0.6-1c0.1-0.4,0.2-0.8,0.2-1.2s-0.1-0.8-0.2-1.2
	c-0.1-0.4-0.4-0.7-0.6-1c-0.3-0.3-0.6-0.5-1-0.7c-0.4-0.2-0.8-0.2-1.2-0.2c-0.4,0-0.8,0.1-1.2,0.2c-0.4,0.2-0.7,0.4-0.9,0.7
	c-0.3,0.3-0.5,0.6-0.6,1c-0.1,0.4-0.2,0.8-0.2,1.2s0.1,0.8,0.2,1.2c0.1,0.4,0.4,0.7,0.6,1c0.3,0.3,0.6,0.5,0.9,0.6
	C117.2,203.6,117.6,203.7,118,203.7z M124.4,196.7h1.2v1.2c0.2-0.4,0.5-0.7,0.9-0.8c0.4-0.2,0.8-0.3,1.3-0.3h1v1.2h-1
	c-0.8,0-1.4,0.2-1.7,0.7c-0.3,0.4-0.5,1.1-0.5,2v4.1h-1.2V196.7z M134.7,204.8c-0.5,0-1.1-0.1-1.6-0.4c-0.5-0.3-1-0.6-1.3-1.1v1.3
	h-1.2V193h1.2v5c0.3-0.5,0.8-0.8,1.3-1.1s1.1-0.4,1.6-0.4c0.6,0,1.1,0.1,1.6,0.3c0.5,0.2,0.9,0.5,1.3,0.9c0.4,0.4,0.6,0.8,0.8,1.3
	c0.2,0.5,0.3,1,0.3,1.6c0,0.6-0.1,1.1-0.3,1.6c-0.2,0.5-0.5,0.9-0.8,1.3c-0.4,0.4-0.8,0.7-1.3,0.9
	C135.9,204.7,135.3,204.8,134.7,204.8z M134.7,203.7c0.4,0,0.8-0.1,1.1-0.2c0.4-0.2,0.7-0.4,0.9-0.6c0.3-0.3,0.5-0.6,0.6-1
	c0.2-0.4,0.2-0.8,0.2-1.2s-0.1-0.8-0.2-1.2c-0.1-0.4-0.4-0.7-0.6-1c-0.3-0.3-0.6-0.5-0.9-0.7c-0.4-0.2-0.7-0.2-1.1-0.2
	c-0.4,0-0.8,0.1-1.2,0.2c-0.4,0.2-0.7,0.4-0.9,0.7c-0.3,0.3-0.5,0.6-0.6,1c-0.1,0.4-0.2,0.8-0.2,1.2s0.1,0.8,0.2,1.2
	c0.1,0.4,0.4,0.7,0.6,1c0.3,0.3,0.6,0.5,0.9,0.6C133.8,203.6,134.2,203.7,134.7,203.7z M144.6,204.8c-0.6,0-1.1-0.1-1.6-0.3
	c-0.5-0.2-0.9-0.5-1.3-0.9c-0.4-0.4-0.7-0.8-0.9-1.3c-0.2-0.5-0.3-1.1-0.3-1.6s0.1-1.1,0.3-1.6c0.2-0.5,0.5-1,0.9-1.3
	c0.4-0.4,0.8-0.7,1.3-0.9c0.5-0.2,1-0.3,1.6-0.3c0.6,0,1.1,0.1,1.6,0.3c0.5,0.2,1,0.5,1.3,0.9c0.4,0.4,0.7,0.8,0.9,1.3
	c0.2,0.5,0.3,1,0.3,1.6s-0.1,1.1-0.3,1.6c-0.2,0.5-0.5,0.9-0.9,1.3c-0.4,0.4-0.8,0.7-1.3,0.9C145.7,204.7,145.2,204.8,144.6,204.8z
	 M144.6,203.7c0.4,0,0.8-0.1,1.1-0.2c0.4-0.2,0.7-0.4,0.9-0.6c0.3-0.3,0.5-0.6,0.6-1c0.1-0.4,0.2-0.8,0.2-1.2s-0.1-0.8-0.2-1.2
	c-0.1-0.4-0.4-0.7-0.6-1c-0.3-0.3-0.6-0.5-0.9-0.7c-0.4-0.2-0.7-0.2-1.1-0.2c-0.4,0-0.8,0.1-1.1,0.2c-0.4,0.2-0.7,0.4-0.9,0.7
	c-0.3,0.3-0.5,0.6-0.6,1c-0.1,0.4-0.2,0.8-0.2,1.2s0.1,0.8,0.2,1.2c0.1,0.4,0.4,0.7,0.6,1c0.3,0.3,0.6,0.5,0.9,0.6
	C143.8,203.6,144.2,203.7,144.6,203.7z M150.6,196.7h1.2v1.2c0.3-0.4,0.6-0.7,1.1-1c0.5-0.2,1-0.4,1.6-0.4c1.1,0,1.9,0.3,2.5,1
	c0.6,0.7,0.9,1.6,0.9,2.7v4.4h-1.2v-4.4c0-0.8-0.2-1.4-0.6-1.9c-0.4-0.5-1-0.7-1.8-0.7c-0.4,0-0.7,0.1-1,0.2
	c-0.3,0.1-0.6,0.3-0.8,0.5s-0.4,0.5-0.5,0.8c-0.1,0.3-0.2,0.7-0.2,1v4.4h-1.2V196.7z M163.9,204.8c-0.6,0-1.1-0.1-1.6-0.3
	c-0.5-0.2-0.9-0.5-1.3-0.9c-0.4-0.4-0.7-0.8-0.9-1.3c-0.2-0.5-0.3-1-0.3-1.6c0-0.6,0.1-1.1,0.3-1.6c0.2-0.5,0.5-0.9,0.8-1.3
	c0.4-0.4,0.8-0.7,1.3-0.9c0.5-0.2,1.1-0.3,1.6-0.3c0.3,0,0.5,0,0.8,0.1c0.3,0.1,0.5,0.2,0.8,0.3c0.3,0.1,0.5,0.3,0.8,0.5
	c0.2,0.2,0.4,0.4,0.6,0.6v-1.3h1.2v8h-1.2v-1.3c-0.2,0.2-0.4,0.5-0.6,0.6c-0.2,0.2-0.5,0.3-0.8,0.5c-0.3,0.1-0.5,0.2-0.8,0.3
	C164.4,204.8,164.2,204.8,163.9,204.8z M164,203.7c0.4,0,0.8-0.1,1.2-0.2c0.4-0.2,0.7-0.4,1-0.6c0.3-0.3,0.5-0.6,0.6-1
	s0.2-0.8,0.2-1.2s-0.1-0.8-0.2-1.2c-0.1-0.4-0.4-0.7-0.6-1c-0.3-0.3-0.6-0.5-1-0.7c-0.4-0.2-0.8-0.2-1.2-0.2c-0.4,0-0.8,0.1-1.2,0.2
	c-0.4,0.2-0.7,0.4-0.9,0.7c-0.3,0.3-0.5,0.6-0.6,1c-0.1,0.4-0.2,0.8-0.2,1.2s0.1,0.8,0.2,1.2c0.1,0.4,0.4,0.7,0.6,1
	c0.3,0.3,0.6,0.5,0.9,0.6C163.2,203.6,163.6,203.7,164,203.7z M169.7,196.7h1.4v-1.9l1.2-0.7v2.6h1.9v1.1h-1.9v3.8
	c0,0.4,0,0.7,0.1,1c0.1,0.2,0.1,0.4,0.3,0.6c0.1,0.1,0.3,0.2,0.6,0.3c0.2,0,0.6,0.1,1,0.1v1.2H174c-0.6,0-1.1,0-1.5-0.1
	c-0.4-0.1-0.7-0.3-0.9-0.5c-0.2-0.2-0.4-0.5-0.5-0.9c-0.1-0.4-0.1-0.9-0.1-1.5v-3.8h-1.4V196.7z M179.5,204.8
	c-0.6,0-1.2-0.1-1.7-0.3c-0.5-0.2-0.9-0.5-1.3-0.9c-0.4-0.4-0.6-0.8-0.8-1.3c-0.2-0.5-0.3-1-0.3-1.6c0-0.6,0.1-1.2,0.3-1.7
	c0.2-0.5,0.5-1,0.9-1.3c0.4-0.4,0.8-0.7,1.3-0.9c0.5-0.2,1.1-0.3,1.7-0.3c0.6,0,1.1,0.1,1.6,0.3c0.5,0.2,0.9,0.5,1.3,0.8
	c0.4,0.4,0.7,0.8,0.9,1.3c0.2,0.5,0.3,1,0.3,1.6v0.5h-7.1c0,0.4,0.1,0.7,0.3,1.1c0.2,0.3,0.4,0.6,0.6,0.9c0.3,0.2,0.6,0.4,0.9,0.6
	c0.4,0.1,0.7,0.2,1.2,0.2c0.7,0,1.2-0.2,1.7-0.5c0.5-0.3,0.8-0.7,1-1.3h1.3c-0.3,0.9-0.8,1.6-1.5,2.1
	C181.4,204.6,180.6,204.8,179.5,204.8z M179.6,197.6c-0.4,0-0.7,0.1-1,0.2c-0.3,0.1-0.6,0.3-0.8,0.5c-0.2,0.2-0.5,0.4-0.6,0.7
	c-0.2,0.3-0.3,0.6-0.4,0.9h5.7c-0.1-0.7-0.4-1.3-0.9-1.7C181,197.8,180.4,197.6,179.6,197.6z"/>
<path class="st1" d="M143.1,48.7l-2.2,2.6v3.6h-1.2V43.2h1.2v6.4l5.5-6.4h1.5l-4,4.7l4.5,7h-1.4L143.1,48.7z M153.2,55
	c-0.6,0-1.1-0.1-1.6-0.3c-0.5-0.2-0.9-0.5-1.3-0.9c-0.4-0.4-0.7-0.8-0.9-1.3c-0.2-0.5-0.3-1-0.3-1.6s0.1-1.1,0.3-1.6
	c0.2-0.5,0.5-0.9,0.8-1.3c0.4-0.4,0.8-0.7,1.3-0.9c0.5-0.2,1.1-0.3,1.6-0.3c0.3,0,0.5,0,0.8,0.1c0.3,0.1,0.5,0.2,0.8,0.3
	c0.3,0.1,0.5,0.3,0.8,0.5c0.2,0.2,0.4,0.4,0.6,0.6v-1.3h1.2v8h-1.2v-1.3c-0.2,0.2-0.4,0.5-0.6,0.6c-0.2,0.2-0.5,0.3-0.8,0.5
	c-0.3,0.1-0.5,0.2-0.8,0.3C153.7,55,153.4,55,153.2,55z M153.2,53.9c0.4,0,0.8-0.1,1.2-0.2c0.4-0.2,0.7-0.4,1-0.6
	c0.3-0.3,0.5-0.6,0.6-1c0.1-0.4,0.2-0.8,0.2-1.2c0-0.4-0.1-0.8-0.2-1.2c-0.1-0.4-0.4-0.7-0.6-1c-0.3-0.3-0.6-0.5-1-0.7
	c-0.4-0.2-0.8-0.2-1.2-0.2c-0.4,0-0.8,0.1-1.2,0.2c-0.4,0.2-0.7,0.4-0.9,0.7c-0.3,0.3-0.5,0.6-0.6,1c-0.1,0.4-0.2,0.8-0.2,1.2
	c0,0.4,0.1,0.8,0.2,1.2c0.1,0.4,0.4,0.7,0.6,1c0.3,0.3,0.6,0.5,0.9,0.6C152.5,53.8,152.8,53.9,153.2,53.9z M163.4,55
	c-0.6,0-1.1-0.1-1.6-0.3c-0.5-0.2-0.9-0.5-1.3-0.9c-0.4-0.4-0.7-0.8-0.9-1.3c-0.2-0.5-0.3-1.1-0.3-1.6s0.1-1.1,0.3-1.6
	c0.2-0.5,0.5-1,0.9-1.3c0.4-0.4,0.8-0.7,1.3-0.9c0.5-0.2,1-0.3,1.6-0.3s1.1,0.1,1.6,0.3c0.5,0.2,1,0.5,1.3,0.9
	c0.4,0.4,0.7,0.8,0.9,1.3c0.2,0.5,0.3,1,0.3,1.6s-0.1,1.1-0.3,1.6c-0.2,0.5-0.5,0.9-0.9,1.3c-0.4,0.4-0.8,0.7-1.3,0.9
	C164.5,54.9,163.9,55,163.4,55z M163.4,53.9c0.4,0,0.8-0.1,1.1-0.2c0.4-0.2,0.7-0.4,0.9-0.6c0.3-0.3,0.5-0.6,0.6-1
	c0.1-0.4,0.2-0.8,0.2-1.2c0-0.4-0.1-0.8-0.2-1.2c-0.1-0.4-0.4-0.7-0.6-1c-0.3-0.3-0.6-0.5-0.9-0.7c-0.4-0.2-0.7-0.2-1.1-0.2
	c-0.4,0-0.8,0.1-1.1,0.2s-0.7,0.4-0.9,0.7c-0.3,0.3-0.5,0.6-0.6,1c-0.1,0.4-0.2,0.8-0.2,1.2c0,0.4,0.1,0.8,0.2,1.2
	c0.1,0.4,0.4,0.7,0.6,1c0.3,0.3,0.6,0.5,0.9,0.6S162.9,53.9,163.4,53.9z M169.4,43.2h1.2v11.7h-1.2V43.2z M172.9,46.9h1.2v8h-1.2
	V46.9z M172.5,44.2c0-0.3,0.1-0.5,0.3-0.7c0.2-0.2,0.4-0.3,0.7-0.3c0.3,0,0.5,0.1,0.7,0.3c0.2,0.2,0.3,0.4,0.3,0.7
	c0,0.3-0.1,0.5-0.3,0.7c-0.2,0.2-0.4,0.3-0.7,0.3c-0.3,0-0.5-0.1-0.7-0.3C172.6,44.7,172.5,44.5,172.5,44.2z M176.3,46.9h1.2V48
	c0.3-0.4,0.6-0.7,1.1-1c0.5-0.2,1-0.4,1.6-0.4c1.1,0,1.9,0.3,2.5,1c0.6,0.7,0.9,1.6,0.9,2.7v4.4h-1.2v-4.4c0-0.8-0.2-1.4-0.6-1.9
	c-0.4-0.5-1-0.7-1.8-0.7c-0.4,0-0.7,0.1-1,0.2c-0.3,0.1-0.6,0.3-0.8,0.5s-0.4,0.5-0.5,0.8c-0.1,0.3-0.2,0.7-0.2,1v4.4h-1.2V46.9z"/>
<path class="st1" d="M3.7,130.6c-0.6,0-1.1-0.1-1.5-0.2c-0.5-0.2-0.9-0.4-1.2-0.7c-0.3-0.3-0.6-0.7-0.8-1.1
	c-0.2-0.4-0.3-0.9-0.3-1.5h1.2v0.1c0,0.4,0.1,0.7,0.2,1c0.1,0.3,0.3,0.5,0.5,0.7c0.2,0.2,0.5,0.3,0.8,0.4s0.6,0.2,1,0.2
	c0.7,0,1.3-0.2,1.7-0.6c0.4-0.4,0.6-0.9,0.6-1.6c0-0.4-0.1-0.7-0.2-1c-0.1-0.3-0.4-0.5-0.6-0.7c-0.2-0.2-0.5-0.4-0.9-0.5
	c-0.3-0.1-0.7-0.3-1-0.4c-0.4-0.1-0.8-0.3-1.2-0.4c-0.4-0.2-0.7-0.4-1-0.6s-0.5-0.5-0.7-0.9c-0.2-0.4-0.3-0.8-0.3-1.3
	c0-0.5,0.1-0.9,0.3-1.2c0.2-0.4,0.4-0.7,0.7-0.9c0.3-0.3,0.7-0.5,1.1-0.6c0.4-0.1,0.9-0.2,1.4-0.2c0.5,0,1,0.1,1.5,0.2
	c0.4,0.1,0.8,0.4,1.1,0.6c0.3,0.3,0.5,0.6,0.7,1s0.2,0.8,0.2,1.3H6v-0.1c0-0.6-0.2-1.1-0.6-1.5c-0.4-0.4-0.9-0.6-1.7-0.6
	c-0.7,0-1.2,0.2-1.6,0.5s-0.6,0.8-0.6,1.4c0,0.3,0.1,0.6,0.2,0.8c0.1,0.2,0.3,0.4,0.5,0.6c0.2,0.2,0.5,0.3,0.8,0.4s0.7,0.3,1.1,0.4
	c0.4,0.1,0.8,0.3,1.2,0.5c0.4,0.2,0.7,0.4,1,0.7c0.3,0.3,0.6,0.6,0.7,1c0.2,0.4,0.3,0.8,0.3,1.3c0,0.4-0.1,0.9-0.3,1.3
	c-0.2,0.4-0.4,0.7-0.7,1c-0.3,0.3-0.7,0.5-1.1,0.7C4.8,130.5,4.3,130.6,3.7,130.6z M9.2,122.4h1.2v8H9.2V122.4z M8.8,119.8
	c0-0.3,0.1-0.5,0.3-0.7c0.2-0.2,0.4-0.3,0.7-0.3c0.3,0,0.5,0.1,0.7,0.3c0.2,0.2,0.3,0.4,0.3,0.7c0,0.3-0.1,0.5-0.3,0.7
	c-0.2,0.2-0.4,0.3-0.7,0.3s-0.5-0.1-0.7-0.3C8.9,120.3,8.8,120.1,8.8,119.8z M12,122.4h1.3l2.4,6.4l2.4-6.4h1.3l-3.1,8h-1.2
	L12,122.4z M24.5,130.6c-0.6,0-1.1-0.1-1.6-0.3c-0.5-0.2-0.9-0.5-1.3-0.9c-0.4-0.4-0.7-0.8-0.9-1.3c-0.2-0.5-0.3-1-0.3-1.6
	c0-0.6,0.1-1.1,0.3-1.6c0.2-0.5,0.5-0.9,0.8-1.3c0.4-0.4,0.8-0.7,1.3-0.9c0.5-0.2,1.1-0.3,1.6-0.3c0.3,0,0.5,0,0.8,0.1
	c0.3,0.1,0.5,0.2,0.8,0.3c0.3,0.1,0.5,0.3,0.8,0.5c0.2,0.2,0.4,0.4,0.6,0.6v-1.3h1.2v8h-1.2v-1.3c-0.2,0.2-0.4,0.5-0.6,0.6
	c-0.2,0.2-0.5,0.3-0.8,0.5c-0.3,0.1-0.5,0.2-0.8,0.3C25,130.6,24.7,130.6,24.5,130.6z M24.5,129.5c0.4,0,0.8-0.1,1.2-0.2
	c0.4-0.2,0.7-0.4,1-0.6c0.3-0.3,0.5-0.6,0.6-1c0.1-0.4,0.2-0.8,0.2-1.2s-0.1-0.8-0.2-1.2c-0.1-0.4-0.4-0.7-0.6-1
	c-0.3-0.3-0.6-0.5-1-0.7c-0.4-0.2-0.8-0.2-1.2-0.2c-0.4,0-0.8,0.1-1.2,0.2c-0.4,0.2-0.7,0.4-0.9,0.7c-0.3,0.3-0.5,0.6-0.6,1
	c-0.1,0.4-0.2,0.8-0.2,1.2s0.1,0.8,0.2,1.2c0.1,0.4,0.4,0.7,0.6,1c0.3,0.3,0.6,0.5,0.9,0.6C23.7,129.4,24.1,129.5,24.5,129.5z
	 M33.6,126.6l-1.6,1.6v2.2h-1.2v-11.7H32v8l4.3-4.4h1.6l-3.3,3.4l3.3,4.6h-1.4L33.6,126.6z M49.7,134.2c-0.9-0.2-1.7-0.5-2.4-1
	c-0.7-0.5-1.4-1.1-1.9-1.7c-0.5-0.7-1-1.4-1.3-2.3c-0.3-0.8-0.4-1.7-0.4-2.7c0-0.9,0.1-1.8,0.4-2.7c0.3-0.8,0.7-1.6,1.3-2.3
	c0.5-0.7,1.2-1.3,1.9-1.7c0.7-0.5,1.6-0.8,2.4-1v1.3c-0.7,0.2-1.3,0.5-1.9,0.9c-0.6,0.4-1.1,0.9-1.5,1.5c-0.4,0.6-0.7,1.2-1,1.9
	c-0.2,0.7-0.4,1.4-0.4,2.2c0,0.8,0.1,1.5,0.4,2.2c0.2,0.7,0.6,1.3,1,1.9c0.4,0.6,0.9,1.1,1.5,1.5c0.6,0.4,1.2,0.7,1.9,0.9V134.2z
	 M51.4,118.8H55c0.6,0,1.2,0.1,1.7,0.3c0.5,0.2,1,0.5,1.3,0.8c0.4,0.4,0.7,0.8,0.9,1.3c0.2,0.5,0.3,1,0.3,1.6s-0.1,1.1-0.3,1.6
	c-0.2,0.5-0.5,0.9-0.9,1.3c-0.4,0.4-0.8,0.7-1.3,0.9c-0.5,0.2-1.1,0.3-1.7,0.3h-2.4v3.6h-1.2V118.8z M52.6,119.9v5.7H55
	c0.5,0,0.9-0.1,1.3-0.2c0.4-0.1,0.7-0.4,1-0.6c0.3-0.3,0.5-0.6,0.6-0.9c0.1-0.4,0.2-0.7,0.2-1.1c0-0.4-0.1-0.8-0.2-1.1
	c-0.1-0.4-0.3-0.7-0.6-0.9c-0.3-0.3-0.6-0.5-1-0.6c-0.4-0.1-0.8-0.2-1.3-0.2H52.6z M64.6,130.6c-0.6,0-1.2-0.1-1.7-0.3
	c-0.5-0.2-0.9-0.5-1.3-0.9c-0.4-0.4-0.6-0.8-0.8-1.3c-0.2-0.5-0.3-1-0.3-1.6c0-0.6,0.1-1.2,0.3-1.7c0.2-0.5,0.5-1,0.9-1.3
	c0.4-0.4,0.8-0.7,1.3-0.9c0.5-0.2,1.1-0.3,1.7-0.3c0.6,0,1.1,0.1,1.6,0.3c0.5,0.2,0.9,0.5,1.3,0.8c0.4,0.4,0.7,0.8,0.9,1.3
	c0.2,0.5,0.3,1,0.3,1.6v0.5h-7.1c0,0.4,0.1,0.7,0.3,1.1c0.2,0.3,0.4,0.6,0.6,0.9c0.3,0.2,0.6,0.4,0.9,0.6c0.4,0.1,0.7,0.2,1.2,0.2
	c0.7,0,1.2-0.2,1.7-0.5c0.5-0.3,0.8-0.7,1-1.3h1.3c-0.3,0.9-0.8,1.6-1.5,2.1C66.5,130.4,65.6,130.6,64.6,130.6z M64.6,123.4
	c-0.4,0-0.7,0.1-1,0.2c-0.3,0.1-0.6,0.3-0.8,0.5c-0.2,0.2-0.5,0.4-0.6,0.7c-0.2,0.3-0.3,0.6-0.4,0.9h5.7c-0.1-0.7-0.4-1.3-0.9-1.7
	C66.1,123.6,65.4,123.4,64.6,123.4z M70.6,122.4h1.2v1.2c0.2-0.4,0.5-0.7,0.9-0.8c0.4-0.2,0.8-0.3,1.3-0.3h1v1.2h-1
	c-0.8,0-1.4,0.2-1.7,0.7c-0.3,0.4-0.5,1.1-0.5,2v4.1h-1.2V122.4z M79,130.6c-0.4,0-0.8-0.1-1.1-0.2c-0.3-0.1-0.6-0.3-0.9-0.5
	c-0.2-0.2-0.4-0.5-0.6-0.8c-0.1-0.3-0.2-0.7-0.2-1.1h1.3c0,0.5,0.1,0.9,0.4,1.1c0.3,0.2,0.6,0.3,1.1,0.3c0.4,0,0.8-0.1,1-0.4
	c0.2-0.2,0.4-0.5,0.4-0.9c0-0.2,0-0.4-0.1-0.5c-0.1-0.1-0.2-0.3-0.4-0.4c-0.1-0.1-0.3-0.2-0.5-0.3c-0.2-0.1-0.4-0.2-0.6-0.3
	c-0.3-0.1-0.5-0.2-0.8-0.3c-0.3-0.1-0.5-0.3-0.7-0.4c-0.2-0.2-0.4-0.4-0.5-0.6c-0.1-0.3-0.2-0.6-0.2-0.9c0-0.3,0.1-0.5,0.2-0.8
	c0.1-0.3,0.3-0.5,0.5-0.7c0.2-0.2,0.5-0.4,0.8-0.5c0.3-0.1,0.7-0.2,1.1-0.2c0.8,0,1.4,0.2,1.8,0.6c0.4,0.4,0.7,0.9,0.7,1.6h-1.2
	c0-0.3-0.1-0.6-0.3-0.8c-0.2-0.2-0.5-0.3-1-0.3c-0.4,0-0.7,0.1-0.9,0.3c-0.2,0.2-0.3,0.5-0.3,0.8c0,0.2,0,0.4,0.1,0.5
	s0.2,0.3,0.4,0.4c0.2,0.1,0.3,0.2,0.5,0.3c0.2,0.1,0.4,0.2,0.6,0.3c0.3,0.1,0.5,0.2,0.8,0.3c0.3,0.1,0.5,0.3,0.7,0.4
	c0.2,0.2,0.4,0.4,0.5,0.6c0.1,0.3,0.2,0.6,0.2,0.9c0,0.3-0.1,0.6-0.2,0.9c-0.1,0.3-0.3,0.5-0.5,0.8c-0.2,0.2-0.5,0.4-0.8,0.5
	C79.8,130.5,79.4,130.6,79,130.6z M83.4,122.4h1.2v8h-1.2V122.4z M83.1,119.8c0-0.3,0.1-0.5,0.3-0.7c0.2-0.2,0.4-0.3,0.7-0.3
	c0.3,0,0.5,0.1,0.7,0.3c0.2,0.2,0.3,0.4,0.3,0.7c0,0.3-0.1,0.5-0.3,0.7c-0.2,0.2-0.4,0.3-0.7,0.3c-0.3,0-0.5-0.1-0.7-0.3
	C83.2,120.3,83.1,120.1,83.1,119.8z M90.6,130.6c-0.6,0-1.1-0.1-1.6-0.3c-0.5-0.2-0.9-0.5-1.3-0.9c-0.4-0.4-0.7-0.8-0.9-1.3
	c-0.2-0.5-0.3-1-0.3-1.6c0-0.6,0.1-1.1,0.3-1.6c0.2-0.5,0.5-0.9,0.8-1.3c0.4-0.4,0.8-0.7,1.3-0.9c0.5-0.2,1.1-0.3,1.6-0.3
	c0.3,0,0.5,0,0.8,0.1c0.3,0.1,0.5,0.2,0.8,0.3c0.3,0.1,0.5,0.3,0.8,0.5c0.2,0.2,0.4,0.4,0.6,0.6v-1.3h1.2v8h-1.2v-1.3
	c-0.2,0.2-0.4,0.5-0.6,0.6c-0.2,0.2-0.5,0.3-0.8,0.5c-0.3,0.1-0.5,0.2-0.8,0.3C91.1,130.6,90.9,130.6,90.6,130.6z M90.7,129.5
	c0.4,0,0.8-0.1,1.2-0.2c0.4-0.2,0.7-0.4,1-0.6c0.3-0.3,0.5-0.6,0.6-1c0.1-0.4,0.2-0.8,0.2-1.2s-0.1-0.8-0.2-1.2
	c-0.1-0.4-0.4-0.7-0.6-1c-0.3-0.3-0.6-0.5-1-0.7c-0.4-0.2-0.8-0.2-1.2-0.2c-0.4,0-0.8,0.1-1.2,0.2c-0.4,0.2-0.7,0.4-0.9,0.7
	c-0.3,0.3-0.5,0.6-0.6,1c-0.1,0.4-0.2,0.8-0.2,1.2s0.1,0.8,0.2,1.2c0.1,0.4,0.4,0.7,0.6,1c0.3,0.3,0.6,0.5,0.9,0.6
	C89.9,129.4,90.3,129.5,90.7,129.5z M97,122.4h1.2v1.2c0.3-0.4,0.6-0.7,1.1-1c0.5-0.2,1-0.4,1.6-0.4c1.1,0,1.9,0.3,2.5,1
	c0.6,0.7,0.9,1.6,0.9,2.7v4.4h-1.2V126c0-0.8-0.2-1.4-0.6-1.9c-0.4-0.5-1-0.7-1.8-0.7c-0.4,0-0.7,0.1-1,0.2
	c-0.3,0.1-0.6,0.3-0.8,0.5s-0.4,0.5-0.5,0.8c-0.1,0.3-0.2,0.7-0.2,1v4.4H97V122.4z M114.5,130.6c-0.6,0-1.1-0.1-1.5-0.2
	c-0.5-0.2-0.9-0.4-1.2-0.7c-0.3-0.3-0.6-0.7-0.8-1.1c-0.2-0.4-0.3-0.9-0.3-1.5h1.2v0.1c0,0.4,0.1,0.7,0.2,1c0.1,0.3,0.3,0.5,0.5,0.7
	c0.2,0.2,0.5,0.3,0.8,0.4c0.3,0.1,0.6,0.2,1,0.2c0.7,0,1.3-0.2,1.7-0.6c0.4-0.4,0.6-0.9,0.6-1.6c0-0.4-0.1-0.7-0.2-1
	s-0.4-0.5-0.6-0.7c-0.2-0.2-0.5-0.4-0.9-0.5s-0.7-0.3-1-0.4c-0.4-0.1-0.8-0.3-1.2-0.4c-0.4-0.2-0.7-0.4-1-0.6s-0.5-0.5-0.7-0.9
	c-0.2-0.4-0.3-0.8-0.3-1.3c0-0.5,0.1-0.9,0.3-1.2c0.2-0.4,0.4-0.7,0.7-0.9c0.3-0.3,0.7-0.5,1.1-0.6c0.4-0.1,0.9-0.2,1.4-0.2
	c0.5,0,1,0.1,1.5,0.2c0.4,0.1,0.8,0.4,1.1,0.6c0.3,0.3,0.5,0.6,0.7,1c0.2,0.4,0.2,0.8,0.2,1.3h-1.2v-0.1c0-0.6-0.2-1.1-0.6-1.5
	c-0.4-0.4-0.9-0.6-1.7-0.6c-0.7,0-1.2,0.2-1.6,0.5s-0.6,0.8-0.6,1.4c0,0.3,0.1,0.6,0.2,0.8c0.1,0.2,0.3,0.4,0.5,0.6
	c0.2,0.2,0.5,0.3,0.8,0.4s0.7,0.3,1.1,0.4c0.4,0.1,0.8,0.3,1.2,0.5c0.4,0.2,0.7,0.4,1,0.7c0.3,0.3,0.6,0.6,0.7,1
	c0.2,0.4,0.3,0.8,0.3,1.3c0,0.4-0.1,0.9-0.3,1.3c-0.2,0.4-0.4,0.7-0.7,1c-0.3,0.3-0.7,0.5-1.1,0.7
	C115.6,130.5,115.1,130.6,114.5,130.6z M124,130.6c-0.6,0-1.1-0.1-1.6-0.3c-0.5-0.2-0.9-0.5-1.3-0.9c-0.4-0.4-0.7-0.8-0.9-1.3
	c-0.2-0.5-0.3-1-0.3-1.6c0-0.6,0.1-1.1,0.3-1.6c0.2-0.5,0.5-0.9,0.8-1.3c0.4-0.4,0.8-0.7,1.3-0.9c0.5-0.2,1.1-0.3,1.6-0.3
	c0.3,0,0.5,0,0.8,0.1c0.3,0.1,0.5,0.2,0.8,0.3c0.3,0.1,0.5,0.3,0.8,0.5s0.4,0.4,0.6,0.6v-1.3h1.2v8h-1.2v-1.3
	c-0.2,0.2-0.4,0.5-0.6,0.6c-0.2,0.2-0.5,0.3-0.8,0.5c-0.3,0.1-0.5,0.2-0.8,0.3C124.5,130.6,124.2,130.6,124,130.6z M124.1,129.5
	c0.4,0,0.8-0.1,1.2-0.2c0.4-0.2,0.7-0.4,1-0.6c0.3-0.3,0.5-0.6,0.6-1c0.1-0.4,0.2-0.8,0.2-1.2s-0.1-0.8-0.2-1.2
	c-0.1-0.4-0.4-0.7-0.6-1c-0.3-0.3-0.6-0.5-1-0.7c-0.4-0.2-0.8-0.2-1.2-0.2c-0.4,0-0.8,0.1-1.2,0.2c-0.4,0.2-0.7,0.4-0.9,0.7
	c-0.3,0.3-0.5,0.6-0.6,1c-0.1,0.4-0.2,0.8-0.2,1.2s0.1,0.8,0.2,1.2c0.1,0.4,0.4,0.7,0.6,1c0.3,0.3,0.6,0.5,0.9,0.6
	C123.3,129.4,123.6,129.5,124.1,129.5z M130.3,118.8h1.2v11.7h-1.2V118.8z M133.1,122.4h1.3l2.4,6.4l2.4-6.4h1.3l-3.1,8h-1.2
	L133.1,122.4z M145.6,130.6c-0.6,0-1.1-0.1-1.6-0.3c-0.5-0.2-0.9-0.5-1.3-0.9c-0.4-0.4-0.7-0.8-0.9-1.3c-0.2-0.5-0.3-1-0.3-1.6
	c0-0.6,0.1-1.1,0.3-1.6c0.2-0.5,0.5-0.9,0.8-1.3c0.4-0.4,0.8-0.7,1.3-0.9c0.5-0.2,1.1-0.3,1.6-0.3c0.3,0,0.5,0,0.8,0.1
	c0.3,0.1,0.5,0.2,0.8,0.3c0.3,0.1,0.5,0.3,0.8,0.5s0.4,0.4,0.6,0.6v-1.3h1.2v8h-1.2v-1.3c-0.2,0.2-0.4,0.5-0.6,0.6
	c-0.2,0.2-0.5,0.3-0.8,0.5c-0.3,0.1-0.5,0.2-0.8,0.3C146.1,130.6,145.9,130.6,145.6,130.6z M145.7,129.5c0.4,0,0.8-0.1,1.2-0.2
	c0.4-0.2,0.7-0.4,1-0.6c0.3-0.3,0.5-0.6,0.6-1s0.2-0.8,0.2-1.2s-0.1-0.8-0.2-1.2c-0.1-0.4-0.4-0.7-0.6-1s-0.6-0.5-1-0.7
	c-0.4-0.2-0.8-0.2-1.2-0.2c-0.4,0-0.8,0.1-1.2,0.2c-0.4,0.2-0.7,0.4-0.9,0.7c-0.3,0.3-0.5,0.6-0.6,1s-0.2,0.8-0.2,1.2
	s0.1,0.8,0.2,1.2s0.4,0.7,0.6,1c0.3,0.3,0.6,0.5,0.9,0.6C144.9,129.4,145.3,129.5,145.7,129.5z M155.7,130.6c-0.6,0-1.1-0.1-1.6-0.3
	c-0.5-0.2-0.9-0.5-1.3-0.9c-0.4-0.4-0.6-0.8-0.9-1.3c-0.2-0.5-0.3-1-0.3-1.6c0-0.6,0.1-1.1,0.3-1.6c0.2-0.5,0.5-0.9,0.8-1.3
	c0.4-0.4,0.8-0.7,1.3-0.9c0.5-0.2,1.1-0.3,1.6-0.3c0.3,0,0.5,0,0.8,0.1c0.3,0.1,0.5,0.2,0.8,0.3c0.3,0.1,0.5,0.3,0.7,0.4
	c0.2,0.2,0.4,0.4,0.6,0.6v-5h1.2v11.7h-1.2v-1.3c-0.2,0.2-0.4,0.5-0.6,0.6c-0.2,0.2-0.5,0.3-0.8,0.5c-0.3,0.1-0.5,0.2-0.8,0.3
	C156.2,130.6,156,130.6,155.7,130.6z M155.8,129.5c0.4,0,0.8-0.1,1.2-0.2c0.4-0.2,0.7-0.4,1-0.6c0.3-0.3,0.5-0.6,0.6-1
	c0.1-0.4,0.2-0.8,0.2-1.2s-0.1-0.8-0.2-1.2c-0.1-0.4-0.4-0.7-0.6-1c-0.3-0.3-0.6-0.5-1-0.7c-0.4-0.2-0.8-0.2-1.2-0.2
	c-0.4,0-0.8,0.1-1.2,0.2c-0.4,0.2-0.7,0.4-0.9,0.7c-0.3,0.3-0.5,0.6-0.6,1c-0.1,0.4-0.2,0.8-0.2,1.2s0.1,0.8,0.2,1.2
	c0.2,0.4,0.4,0.7,0.6,1c0.3,0.3,0.6,0.5,0.9,0.6C155,129.4,155.4,129.5,155.8,129.5z M165.9,130.6c-0.6,0-1.1-0.1-1.6-0.3
	c-0.5-0.2-0.9-0.5-1.3-0.9c-0.4-0.4-0.7-0.8-0.9-1.3c-0.2-0.5-0.3-1.1-0.3-1.6s0.1-1.1,0.3-1.6c0.2-0.5,0.5-1,0.9-1.3
	c0.4-0.4,0.8-0.7,1.3-0.9c0.5-0.2,1-0.3,1.6-0.3s1.1,0.1,1.6,0.3c0.5,0.2,1,0.5,1.3,0.9c0.4,0.4,0.7,0.8,0.9,1.3
	c0.2,0.5,0.3,1,0.3,1.6s-0.1,1.1-0.3,1.6c-0.2,0.5-0.5,0.9-0.9,1.3c-0.4,0.4-0.8,0.7-1.3,0.9C167,130.5,166.4,130.6,165.9,130.6z
	 M165.9,129.5c0.4,0,0.8-0.1,1.1-0.2c0.4-0.2,0.7-0.4,0.9-0.6c0.3-0.3,0.5-0.6,0.6-1c0.1-0.4,0.2-0.8,0.2-1.2s-0.1-0.8-0.2-1.2
	c-0.1-0.4-0.4-0.7-0.6-1c-0.3-0.3-0.6-0.5-0.9-0.7c-0.4-0.2-0.7-0.2-1.1-0.2c-0.4,0-0.8,0.1-1.1,0.2s-0.7,0.4-0.9,0.7
	c-0.3,0.3-0.5,0.6-0.6,1c-0.1,0.4-0.2,0.8-0.2,1.2s0.1,0.8,0.2,1.2c0.1,0.4,0.4,0.7,0.6,1c0.3,0.3,0.6,0.5,0.9,0.6
	C165.1,129.4,165.5,129.5,165.9,129.5z M171.9,122.4h1.2v1.2c0.2-0.4,0.5-0.7,0.9-0.8c0.4-0.2,0.8-0.3,1.3-0.3h1v1.2h-1
	c-0.8,0-1.4,0.2-1.7,0.7c-0.3,0.4-0.5,1.1-0.5,2v4.1h-1.2V122.4z M177.6,132.9c0.7-0.2,1.3-0.5,1.9-0.9c0.6-0.4,1.1-0.9,1.5-1.5
	c0.4-0.6,0.8-1.2,1-1.9c0.2-0.7,0.4-1.4,0.4-2.2c0-0.8-0.1-1.5-0.4-2.2c-0.2-0.7-0.6-1.3-1-1.9c-0.4-0.6-0.9-1.1-1.5-1.5
	c-0.6-0.4-1.2-0.7-1.9-0.9v-1.3c0.9,0.2,1.7,0.5,2.4,1c0.7,0.5,1.4,1,1.9,1.7c0.5,0.7,1,1.4,1.3,2.3c0.3,0.8,0.5,1.7,0.5,2.7
	c0,0.9-0.2,1.8-0.5,2.7c-0.3,0.8-0.7,1.6-1.3,2.3c-0.5,0.7-1.2,1.3-1.9,1.7c-0.7,0.5-1.5,0.8-2.4,1V132.9z"/>
<path class="st1" d="M278.5,123.9c-1.2,0-2.2,0.9-2.4,2h-75v1h75c0.2,1.1,1.2,2,2.4,2c1.4,0,2.5-1.1,2.5-2.5
	C281,125,279.9,123.9,278.5,123.9z"/>
<path class="st1" d="M278.5,196.3c-1.2,0-2.2,0.9-2.4,2h-75v1h75c0.2,1.1,1.2,2,2.4,2c1.4,0,2.5-1.1,2.5-2.5
	C281,197.5,279.9,196.3,278.5,196.3z"/>
<path class="st1" d="M278.5,268.8c-1.2,0-2.2,0.9-2.4,2h-75v1h75c0.2,1.1,1.2,2,2.4,2c1.4,0,2.5-1.1,2.5-2.5
	C281,269.9,279.9,268.8,278.5,268.8z"/>
<path class="st1" d="M278.5,348.2c-1.2,0-2.2,0.9-2.4,2h-75v1h75c0.2,1.1,1.2,2,2.4,2c1.4,0,2.5-1.1,2.5-2.5
	C281,349.3,279.9,348.2,278.5,348.2z"/>
</svg>
