<?xml version="1.0" encoding="UTF-8"?>
<!DOCTYPE svg PUBLIC "-//W3C//DTD SVG 1.1//EN" "http://www.w3.org/Graphics/SVG/1.1/DTD/svg11.dtd">
<!-- Creator: CorelDRAW -->
<svg xmlns="http://www.w3.org/2000/svg" xml:space="preserve" width="77mm" height="80mm" style="shape-rendering:geometricPrecision; text-rendering:geometricPrecision; image-rendering:optimizeQuality; fill-rule:evenodd; clip-rule:evenodd"
viewBox="0 0 77 80"
 xmlns:xlink="http://www.w3.org/1999/xlink"
 version="1.1"
 enable-background="new 0 0 595.275 841.89">
 <defs>
  <style type="text/css">
   <![CDATA[
    .fil0 {fill:#344F10}
   ]]>
  </style>
 </defs>
 <g id="Слой_x0020_1">
  <metadata id="CorelCorpID_0Corel-Layer"/>
  <path class="fil0" d="M0.8148 3.8973c28.5575,-3.7989 45.0173,-4.0836 75.4589,0l0.172 0.023 0 0.1736 0 13.1961 0 0.1984 -0.1985 0 -1.602 0 0 6.0523 0 0.1984 -0.1984 0 -3.0145 0.0001c-0.014,0.0741 -0.032,0.172 -0.0516,0.2897 -0.046,0.2799 -0.1016,0.6691 -0.1384,1.1078 -0.0746,0.8861 -0.0704,1.9394 0.2133,2.7006 0.3027,0.8112 1.0668,1.6775 1.7793,2.354 0.3522,0.335 0.6858,0.6173 0.9305,0.8157 0.1225,0.0992 0.2228,0.1773 0.2921,0.2307 0.0349,0.0267 0.0619,0.0471 0.0799,0.0606 0.009,0.0069 0.0161,0.0119 0.0206,0.0153l0.005 0.0037 0.0013 0.0008 0 0.0003 0.0005 0.0001 0.0812 0.0595 0 0.1005 0 5.0602 1.602 0 0.1985 0 0 0.1984 0 31.6508 0 0.1984 -0.1985 0.0001 -1.602 0 0 7.1438 0 0.1606 -0.1577 0.0336c-24.9833,5.238 -40.9506,5.2462 -71.5619,0.0011l-0.1648 -0.0283 0 -0.167 0 -7.1438 -1.9198 0 -0.1985 0 0 -0.1984 0 -31.6509 0 -0.1984 0.1985 0 1.9195 0 0 -5.0602 0 -0.1159 0.1005 -0.0569c0.1728,-0.0979 0.3498,-0.1937 0.5281,-0.2902 0.5554,-0.3008 1.1247,-0.6093 1.6195,-1.0081 0.6427,-0.5183 1.1335,-1.1721 1.2483,-2.1246l0 -0.0019 0.0003 -0.0021c0.1842,-1.2938 0.2111,-2.1786 0.0169,-4.1391l-3.3155 0 -0.1983 0.0001 0 -0.1984 0 -6.0523 -1.9196 0 -0.1984 -0.0001 0 -0.1984 0 -13.1961 0 -0.1738 0.1717 -0.0234 0 0zm2.1352 33.137l0.0045 -0.099 -1.9151 0 0 31.2542 1.9196 0 0.0106 0 0.0106 0.0011c29.3137,3.1284 44.9516,3.13 71.4431,0l0.0116 -0.0011 0.0118 0 1.6018 0 0 -31.2542 -1.2792 0 0.005 0.099c-28.049,1.3726 -43.7766,1.2729 -71.8243,0l0 0zm0.009 -19.9427l0 0 71.4875 0 1.6023 0 0 -12.8241c-30.2339,-4.046 -46.645,-3.7656 -75.0091,0.0003l0 12.8238 1.9193 0 0 0zm3.4951 6.2507l64.8155 0 2.9787 0 0 -5.8536 -71.0909 0 0 5.8536 3.2967 0 0 0zm0.2646 4.068l64.2062 0c0.0402,0.1976 0.0926,0.3876 0.159,0.5654 0.3363,0.903 1.1607,1.8227 1.8775,2.5032 0.3617,0.3437 0.7033,0.6331 0.9541,0.8363 0.1257,0.1019 0.2286,0.182 0.3006,0.2373 0.0119,0.009 0.0228,0.0172 0.0325,0.0249l0 5.085c-27.6556,1.343 -43.3417,1.2406 -71.0904,-0.0161l0 -5.052c0.1278,-0.0712 0.2606,-0.1431 0.3969,-0.217l0.0003 -0.0003 0 -0.0003c0.562,-0.304 1.1771,-0.6371 1.7029,-1.061 0.6972,-0.5622 1.2618,-1.3018 1.3928,-2.3839 0.0253,-0.1799 0.048,-0.3527 0.0676,-0.5215l0 0zm-0.0452 -3.6711l64.3548 0c-0.0119,0.064 -0.0249,0.1394 -0.0389,0.2252 -0.0474,0.2873 -0.1048,0.6877 -0.1426,1.139 -0.0492,0.5845 -0.0683,1.2689 0.013,1.9103l-64.1006 0c0.0799,-0.9139 0.0593,-1.797 -0.0857,-3.2745l0 0zm-3.5161 44.8694c29.1171,3.0991 44.767,3.1022 71.0906,0.0026l0 6.9577c-24.7899,5.1842 -40.6911,5.193 -71.0906,-0.0061l0 -6.9542 0 0z"/>
 </g>
</svg>
