<svg width="82" height="39" viewBox="0 0 82 39" fill="none" xmlns="http://www.w3.org/2000/svg">
<path d="M12.926 31.3918H1V29.3579C1.65999 -6.42042 50.9445 -2.78964 57.0005 13.5952C61.4742 13.3645 62.9252 12.7249 64.2599 9.52737C67.5312 8.24774 69.5367 8.20526 71.5192 9.52737C73.4014 5.22985 74.3397 3.23186 75.6674 0.883301H79.2971L75.6674 11.5613C86.5141 26.2567 78.5886 30.7143 71.5192 31.3918C66.6453 31.5489 62.2674 31.5397 57.0005 31.3918M12.926 31.3918C11.2776 33.9721 11.1872 35.4227 12.926 38.0019H40.4078C47.6096 36.7326 51.2758 35.3495 57.0005 31.3918M12.926 31.3918H57.0005" stroke="#344F10"/>
</svg>
