<svg width="300" height="397" viewBox="0 0 300 397" fill="none" xmlns="http://www.w3.org/2000/svg">
<path fill-rule="evenodd" clip-rule="evenodd" d="M0.868351 14.8733C144.779 -4.23879 227.726 -5.66845 381.133 14.8734L382 14.9895V15.8646V82.2497V83.2497H381H372.927V113.695V114.695H371.927H356.735C356.665 115.067 356.575 115.56 356.477 116.152C356.244 117.559 355.965 119.518 355.778 121.724C355.402 126.181 355.423 131.48 356.853 135.308C358.376 139.388 362.228 143.747 365.817 147.15C367.594 148.835 369.272 150.255 370.507 151.254C371.124 151.753 371.629 152.146 371.979 152.414C372.153 152.547 372.289 152.65 372.381 152.718L372.421 152.748L372.484 152.795L372.51 152.814L372.516 152.818L372.517 152.819L372.513 152.824L372.517 152.819L372.927 153.118V153.626V179.081H381H382V180.081V339.305V340.305H381H372.927V376.241V377.054L372.132 377.22C246.233 403.574 165.765 403.615 11.5055 377.227L10.6742 377.085V376.241V340.305H1H0V339.305V180.081V179.081H1H10.6742V153.626V153.043L11.1817 152.756C12.0513 152.264 12.9433 151.782 13.8427 151.296C16.6417 149.782 19.5125 148.23 22.0044 146.224C25.2426 143.617 27.7162 140.327 28.2937 135.538L28.295 135.527L28.2965 135.516C29.2247 129.008 29.3604 124.557 28.3823 114.695H11.6742H10.6742V113.695V83.2497H1H0V82.2497V15.8646V14.9886L0.868351 14.8733ZM12.6742 340.417C159.407 356.008 238.271 356.024 370.927 340.43V375.429C246.002 401.508 165.87 401.554 12.6742 375.398V340.417ZM30.392 114.695H354.701C354.642 115.017 354.575 115.396 354.504 115.825C354.265 117.271 353.977 119.284 353.785 121.556C353.537 124.495 353.442 127.939 353.851 131.163H30.8239C31.2258 126.568 31.1231 122.126 30.392 114.695ZM30.6197 133.163H354.178C354.382 134.157 354.645 135.113 354.979 136.007C356.675 140.55 360.829 145.176 364.441 148.601C366.265 150.331 367.985 151.786 369.249 152.809C369.882 153.321 370.401 153.725 370.763 154.002C370.822 154.047 370.877 154.089 370.927 154.127V179.705C231.559 186.461 152.512 185.945 12.6742 179.624V154.212C13.3142 153.856 13.9801 153.497 14.6617 153.128L14.6656 153.126L14.6674 153.125L14.6755 153.121L14.6778 153.12L14.6782 153.119C17.5093 151.59 20.61 149.915 23.2586 147.782C26.7726 144.953 29.6182 141.233 30.278 135.788C30.4073 134.881 30.5214 134.012 30.6197 133.163ZM355.916 112.695H370.927V83.2495H12.6742V112.695L29.2865 112.695L355.916 112.695ZM11.6742 81.2497L11.6742 81.2495H371.927L371.927 81.2497H380V16.7397C227.641 -3.61474 144.94 -2.20394 2 16.7407V81.2497H11.6742ZM11.6289 181.579L11.6515 181.081H2V338.305H11.6742H11.7273L11.7801 338.311C159.503 354.049 238.308 354.058 371.81 338.312L371.868 338.305H371.927H380V181.081H373.553L373.577 181.578C232.229 188.483 152.97 187.982 11.6289 181.579Z" fill="#344F10"/>
</svg>
