<svg width="18" height="302" viewBox="0 0 18 302" fill="none" xmlns="http://www.w3.org/2000/svg">
<path d="M5.656 188.49V187.342L12.306 185.508L5.656 183.38V182.344L12.39 180.216L5.656 178.2V177.094L14 179.656V180.762L7.364 182.862L14 184.99V186.11L5.656 188.49ZM5.656 174.924V173.818H14V174.924H5.656ZM6.692 169.036L6.692 171.472H5.656L5.656 165.522H6.692V167.944H14V169.036H6.692ZM14.112 159.855C14.112 160.471 14 161.045 13.776 161.577C13.552 162.1 13.2487 162.557 12.866 162.949C12.4833 163.332 12.0307 163.635 11.508 163.859C10.9853 164.074 10.43 164.181 9.842 164.181C9.254 164.181 8.69867 164.069 8.176 163.845C7.65333 163.612 7.196 163.299 6.804 162.907C6.412 162.515 6.104 162.058 5.88 161.535C5.656 161.003 5.544 160.443 5.544 159.855C5.544 159.388 5.61867 158.94 5.768 158.511C5.91733 158.082 6.12733 157.69 6.398 157.335C6.65933 156.971 6.97667 156.658 7.35 156.397C7.72333 156.136 8.12933 155.94 8.568 155.809V156.957C7.96133 157.228 7.476 157.62 7.112 158.133C6.73867 158.646 6.552 159.23 6.552 159.883C6.552 160.359 6.64067 160.793 6.818 161.185C6.99533 161.577 7.238 161.913 7.546 162.193C7.84467 162.473 8.19467 162.692 8.596 162.851C8.988 163 9.40333 163.075 9.842 163.075C10.2713 163.075 10.682 163 11.074 162.851C11.466 162.692 11.816 162.473 12.124 162.193C12.4227 161.913 12.6607 161.577 12.838 161.185C13.0153 160.793 13.104 160.364 13.104 159.897C13.104 159.244 12.936 158.67 12.6 158.175C12.264 157.68 11.788 157.293 11.172 157.013V155.851C11.6107 155.991 12.012 156.192 12.376 156.453C12.7307 156.705 13.0387 157.004 13.3 157.349C13.552 157.694 13.7527 158.082 13.902 158.511C14.042 158.931 14.112 159.379 14.112 159.855ZM10.318 148.341L10.318 152.415H14V153.493H5.656V152.415H9.296L9.296 148.341H5.656V147.263H14V148.341H10.318ZM14.112 135.977C14.112 136.565 14 137.12 13.776 137.643C13.552 138.166 13.2487 138.618 12.866 139.001C12.474 139.384 12.0167 139.687 11.494 139.911C10.9713 140.135 10.416 140.247 9.828 140.247C9.24 140.247 8.68467 140.135 8.162 139.911C7.63933 139.687 7.18667 139.384 6.804 139.001C6.412 138.618 6.104 138.166 5.88 137.643C5.656 137.12 5.544 136.565 5.544 135.977C5.544 135.389 5.656 134.834 5.88 134.311C6.104 133.788 6.412 133.336 6.804 132.953C7.18667 132.561 7.63933 132.253 8.162 132.029C8.68467 131.805 9.24 131.693 9.828 131.693C10.416 131.693 10.9713 131.805 11.494 132.029C12.0167 132.253 12.474 132.561 12.866 132.953C13.2487 133.336 13.552 133.788 13.776 134.311C14 134.834 14.112 135.389 14.112 135.977ZM13.104 135.977C13.104 135.529 13.02 135.114 12.852 134.731C12.6747 134.339 12.4413 134.003 12.152 133.723C11.8533 133.443 11.5033 133.224 11.102 133.065C10.7007 132.897 10.276 132.813 9.828 132.813C9.38 132.813 8.96 132.897 8.568 133.065C8.16667 133.224 7.81667 133.443 7.518 133.723C7.21933 134.003 6.986 134.339 6.818 134.731C6.64067 135.114 6.552 135.529 6.552 135.977C6.552 136.425 6.64067 136.845 6.818 137.237C6.986 137.62 7.21933 137.951 7.518 138.231C7.81667 138.511 8.16667 138.735 8.568 138.903C8.96 139.062 9.38 139.141 9.828 139.141C10.276 139.141 10.7007 139.062 11.102 138.903C11.5033 138.735 11.8533 138.511 12.152 138.231C12.4413 137.951 12.6747 137.62 12.852 137.237C13.02 136.845 13.104 136.425 13.104 135.977ZM5.656 129.341L5.656 124.623H6.664L6.664 128.263H9.31V124.623H10.318V128.263H14V129.341H5.656ZM5.656 117.591V116.527L9.87 113.489L5.656 110.451V109.415H14V110.493H7.518L11.662 113.489L7.476 116.513H14V117.591H5.656ZM14.112 102.798C14.112 103.386 14 103.941 13.776 104.464C13.552 104.987 13.2487 105.439 12.866 105.822C12.474 106.205 12.0167 106.508 11.494 106.732C10.9713 106.956 10.416 107.068 9.828 107.068C9.24 107.068 8.68467 106.956 8.162 106.732C7.63933 106.508 7.18667 106.205 6.804 105.822C6.412 105.439 6.104 104.987 5.88 104.464C5.656 103.941 5.544 103.386 5.544 102.798C5.544 102.21 5.656 101.655 5.88 101.132C6.104 100.609 6.412 100.157 6.804 99.774C7.18667 99.382 7.63933 99.074 8.162 98.85C8.68467 98.626 9.24 98.514 9.828 98.514C10.416 98.514 10.9713 98.626 11.494 98.85C12.0167 99.074 12.474 99.382 12.866 99.774C13.2487 100.157 13.552 100.609 13.776 101.132C14 101.655 14.112 102.21 14.112 102.798ZM13.104 102.798C13.104 102.35 13.02 101.935 12.852 101.552C12.6747 101.16 12.4413 100.824 12.152 100.544C11.8533 100.264 11.5033 100.045 11.102 99.886C10.7007 99.718 10.276 99.634 9.828 99.634C9.38 99.634 8.96 99.718 8.568 99.886C8.16667 100.045 7.81667 100.264 7.518 100.544C7.21933 100.824 6.986 101.16 6.818 101.552C6.64067 101.935 6.552 102.35 6.552 102.798C6.552 103.246 6.64067 103.666 6.818 104.058C6.986 104.441 7.21933 104.772 7.518 105.052C7.81667 105.332 8.16667 105.556 8.568 105.724C8.96 105.883 9.38 105.962 9.828 105.962C10.276 105.962 10.7007 105.883 11.102 105.724C11.5033 105.556 11.8533 105.332 12.152 105.052C12.4413 104.772 12.6747 104.441 12.852 104.058C13.02 103.666 13.104 103.246 13.104 102.798ZM14.112 93.3212C14.112 93.7319 14.0467 94.1146 13.916 94.4692C13.7853 94.8146 13.5987 95.1132 13.356 95.3652C13.1133 95.6172 12.8193 95.8132 12.474 95.9532C12.1193 96.0932 11.7227 96.1632 11.284 96.1632H5.656V95.0852H11.34C11.8813 95.0852 12.3107 94.9219 12.628 94.5952C12.9453 94.2686 13.104 93.8392 13.104 93.3072C13.104 92.7846 12.9453 92.3599 12.628 92.0332C12.3107 91.7066 11.8813 91.5432 11.34 91.5432H5.656V90.4652H11.284C11.7227 90.4652 12.1193 90.5399 12.474 90.6892C12.8193 90.8292 13.1133 91.0252 13.356 91.2772C13.5987 91.5292 13.7853 91.8326 13.916 92.1872C14.0467 92.5326 14.112 92.9106 14.112 93.3212ZM5.656 87.8737V86.6697L12.25 82.1057H5.656V81.0277H14V82.1757L7.336 86.7957H14V87.8737H5.656ZM6.692 76.311V78.747H5.656V72.797H6.692V75.219H14V76.311H6.692ZM5.656 68.5452V67.4252L14 64.3172V65.4372L12.082 66.1512V69.8332L14 70.5332V71.6672L5.656 68.5452ZM11.046 69.4552V66.5292L7.084 67.9992L11.046 69.4552ZM5.656 62.1744V61.0684H14L14 62.1744H5.656ZM5.656 58.3452V57.1412L12.25 52.5772H5.656V51.4992H14V52.6472L7.336 57.2672H14V58.3452H5.656ZM5.656 44.7357V43.5877L12.306 41.7537L5.656 39.6257V38.5897L12.39 36.4617L5.656 34.4457V33.3397L14 35.9017V37.0077L7.364 39.1077L14 41.2357V42.3557L5.656 44.7357ZM5.656 31.1693V30.0633H14V31.1693H5.656ZM5.656 27.3401V26.1361L12.25 21.5721H5.656V20.4941H14V21.6421L7.336 26.2621H14V27.3401H5.656ZM5.656 17.8354V15.5114C5.656 14.8488 5.76333 14.2514 5.978 13.7194C6.19267 13.1781 6.48667 12.7208 6.86 12.3474C7.23333 11.9648 7.67667 11.6708 8.19 11.4654C8.694 11.2601 9.24 11.1574 9.828 11.1574C10.4253 11.1574 10.9807 11.2648 11.494 11.4794C11.998 11.6941 12.4367 11.9974 12.81 12.3894C13.1833 12.7721 13.4773 13.2294 13.692 13.7614C13.8973 14.2841 14 14.8534 14 15.4694V17.8354H5.656ZM6.664 16.7574H12.978V15.5674C12.978 15.0821 12.8987 14.6388 12.74 14.2374C12.5813 13.8268 12.362 13.4768 12.082 13.1874C11.7927 12.8981 11.4567 12.6741 11.074 12.5154C10.6913 12.3568 10.276 12.2774 9.828 12.2774C9.37067 12.2774 8.95067 12.3521 8.568 12.5014C8.176 12.6508 7.84 12.8701 7.56 13.1594C7.28 13.4394 7.06067 13.7848 6.902 14.1954C6.74333 14.6061 6.664 15.0774 6.664 15.6094V16.7574ZM14.112 6.34362C14.112 6.75429 14.0607 7.14162 13.958 7.50562C13.846 7.86029 13.6827 8.16829 13.468 8.42962C13.2533 8.69095 12.992 8.89629 12.684 9.04562C12.376 9.19495 12.0167 9.26962 11.606 9.26962V8.07962H11.676C12.124 8.07962 12.474 7.92562 12.726 7.61762C12.978 7.30962 13.104 6.90362 13.104 6.39962C13.104 6.18495 13.0713 5.98429 13.006 5.79762C12.9313 5.60162 12.8333 5.43362 12.712 5.29362C12.5813 5.15362 12.432 5.04162 12.264 4.95762C12.096 4.86429 11.9093 4.81762 11.704 4.81762C11.4893 4.81762 11.3073 4.85962 11.158 4.94362C10.9993 5.02762 10.864 5.14895 10.752 5.30762C10.6307 5.46629 10.528 5.65762 10.444 5.88162C10.3507 6.09629 10.262 6.32962 10.178 6.58162C10.066 6.89895 9.954 7.20695 9.842 7.50562C9.72067 7.79495 9.57133 8.05162 9.394 8.27562C9.20733 8.49962 8.98333 8.68162 8.722 8.82162C8.45133 8.95229 8.11067 9.01762 7.7 9.01762C7.38267 9.01762 7.09333 8.95229 6.832 8.82162C6.57067 8.68162 6.34667 8.49495 6.16 8.26162C5.964 8.01895 5.81467 7.73429 5.712 7.40762C5.6 7.08095 5.544 6.72629 5.544 6.34362C5.544 5.95162 5.6 5.59695 5.712 5.27962C5.81467 4.95295 5.964 4.67295 6.16 4.43962C6.356 4.19695 6.59867 4.01495 6.888 3.89362C7.168 3.76295 7.49 3.69762 7.854 3.69762V4.83162H7.77C7.39667 4.83162 7.09333 4.97629 6.86 5.26562C6.61733 5.55495 6.496 5.91895 6.496 6.35762C6.496 6.80562 6.608 7.17429 6.832 7.46362C7.056 7.75295 7.34533 7.89762 7.7 7.89762C7.93333 7.89762 8.12933 7.85095 8.288 7.75762C8.44667 7.66429 8.582 7.53362 8.694 7.36562C8.806 7.19762 8.90867 6.99695 9.002 6.76362C9.09533 6.53029 9.18867 6.27829 9.282 6.00762C9.394 5.66229 9.52 5.34962 9.66 5.06962C9.79067 4.78029 9.94933 4.53295 10.136 4.32762C10.3227 4.12229 10.5467 3.96829 10.808 3.86562C11.0693 3.75362 11.382 3.69762 11.746 3.69762C12.054 3.69762 12.3527 3.76762 12.642 3.90762C12.9313 4.03829 13.1833 4.22495 13.398 4.46762C13.6127 4.70095 13.7853 4.98095 13.916 5.30762C14.0467 5.62495 14.112 5.97029 14.112 6.34362Z" fill="#344F10" fill-opacity="0.5"/>
<rect x="8" y="202" width="1" height="100" fill="#344F10" fill-opacity="0.5"/>
</svg>
