<?xml version="1.0" standalone="no"?>
<!DOCTYPE svg PUBLIC "-//W3C//DTD SVG 20010904//EN"
 "http://www.w3.org/TR/2001/REC-SVG-20010904/DTD/svg10.dtd">
<svg version="1.0" xmlns="http://www.w3.org/2000/svg"
 width="380.000000pt" height="396.000000pt" viewBox="0 0 380.000000 396.000000"
 preserveAspectRatio="xMidYMid meet">

<g transform="translate(0.000000,396.000000) scale(0.100000,-0.100000)"
fill="#344f10" stroke="none">
<path d="M1479 3950 c-351 -15 -784 -54 -1230 -110 -130 -17 -239 -30 -243
-30 -3 0 -6 -153 -6 -340 l0 -340 55 0 55 0 0 -155 0 -154 88 -3 87 -3 3 -80
c5 -118 -11 -176 -58 -219 -22 -19 -57 -44 -80 -56 l-40 -20 0 -130 0 -130
-55 0 -55 0 0 -800 0 -800 55 0 55 0 0 -184 0 -184 28 -6 c129 -26 551 -90
802 -121 968 -119 1691 -93 2614 95 82 16 151 30 153 30 1 0 3 83 3 185 l0
185 45 0 45 0 0 800 0 800 -45 0 -45 0 0 125 0 126 -66 61 c-90 84 -108 122
-107 225 1 45 4 86 8 92 3 6 40 11 86 11 l79 0 0 155 0 155 45 0 45 0 0 340
c0 187 -2 340 -5 340 -3 0 -92 11 -198 25 -807 104 -1488 141 -2118 115z
m1161 -34 c277 -21 549 -48 878 -88 l262 -32 0 -323 0 -323 -1880 0 -1880 0 0
323 0 323 262 33 c337 41 712 77 953 91 105 6 213 12 240 14 133 10 967 -3
1165 -18z m1048 -933 l-3 -148 -1780 0 -1780 0 -3 148 -3 147 1786 0 1786 0
-3 -147z m-162 -185 c-3 -13 -6 -51 -6 -85 l0 -63 -1605 0 -1605 0 0 48 c0 26
-3 64 -6 85 l-7 37 1618 0 1617 0 -6 -22z m9 -194 c8 -20 46 -68 85 -108 l70
-73 0 -125 0 -126 -107 -6 c-491 -29 -1427 -50 -1928 -42 -447 7 -1303 33
-1445 44 l-85 7 -3 122 -3 123 54 34 c64 41 114 96 123 134 3 15 7 33 10 40 3
9 333 12 1609 12 l1605 0 15 -36z m-3050 -464 c1030 -41 1923 -41 2885 0 129
5 274 13 323 16 l87 6 0 -786 0 -786 -48 0 c-26 0 -149 -11 -272 -24 -586 -64
-998 -88 -1505 -88 -502 0 -936 24 -1569 87 -136 14 -275 25 -307 25 l-59 0 0
786 0 787 108 -7 c59 -3 220 -11 357 -16z m270 -1624 c387 -33 660 -47 1030
-53 516 -8 942 12 1530 73 132 14 270 27 308 31 l67 6 0 -175 0 -175 -157 -31
c-311 -62 -682 -117 -968 -142 -196 -18 -718 -24 -945 -11 -243 14 -525 41
-781 75 -213 28 -639 94 -684 105 l-30 7 -3 164 c-1 90 -1 169 2 175 2 7 72 4
222 -11 121 -12 305 -29 409 -38z"/>
</g>
</svg>
