<?xml version="1.0" encoding="utf-8"?>
<!-- Generator: Adobe Illustrator 26.0.2, SVG Export Plug-In . SVG Version: 6.00 Build 0)  -->
<svg version="1.1" id="Layer_1" xmlns="http://www.w3.org/2000/svg" xmlns:xlink="http://www.w3.org/1999/xlink" x="0px" y="0px"
	 viewBox="0 0 79.9 77.1" style="enable-background:new 0 0 79.9 77.1;" xml:space="preserve">
<style type="text/css">
	.st0{fill:none;stroke:#344F10;}
</style>
<path class="st0" d="M65.8,13.9l-5.2,3.7C46.6-1,39-10.9,14.8,22.2l17,10.2c2.4-8,4.4-12,9.4-18.5L46.9,25l-5.7,4.2
	c6.9,0.6,10.5,0.7,16.5,0C61.9,24.4,63.7,21.2,65.8,13.9z"/>
<path class="st0" d="M53.9,75.8l-0.8-6.3c23-3.5,35.3-5.4,17.7-42.5L53.8,37.1c5.9,5.9,8.5,9.6,11.8,17.1l-12.5-0.3l-1-7
	c-3.8,5.7-5.7,8.9-7.9,14.5C46.6,67.4,48.5,70.5,53.9,75.8z"/>
<path class="st0" d="M1.2,34.3l5.9,2.4C-0.9,58.5-5.2,70.2,35.7,72.8L35.2,53c-8,2.3-12.5,2.7-20.7,2l6.3-10.8l6.6,2.5
	c-3.1-6.1-5-9.3-8.9-13.9C12.2,32,8.5,32.1,1.2,34.3z"/>
</svg>
