<svg width="190" height="312" viewBox="0 0 190 312" fill="none" xmlns="http://www.w3.org/2000/svg">
<path d="M50.706 1.672H52.242V6.568H52.37L57.378 1.672H59.522L54.05 6.904L59.89 13H57.65L52.37 7.336H52.242V13H50.706V1.672ZM60.745 6.344C61.1503 5.97067 61.6197 5.69333 62.153 5.512C62.6863 5.32 63.2197 5.224 63.753 5.224C64.3077 5.224 64.7823 5.29333 65.177 5.432C65.5823 5.57067 65.913 5.75733 66.169 5.992C66.425 6.22667 66.6117 6.49867 66.729 6.808C66.857 7.10667 66.921 7.42133 66.921 7.752V11.624C66.921 11.8907 66.9263 12.136 66.937 12.36C66.9477 12.584 66.9637 12.7973 66.985 13H65.705C65.673 12.616 65.657 12.232 65.657 11.848H65.625C65.305 12.3387 64.9263 12.6853 64.489 12.888C64.0517 13.0907 63.545 13.192 62.969 13.192C62.617 13.192 62.281 13.144 61.961 13.048C61.641 12.952 61.3583 12.808 61.113 12.616C60.8783 12.424 60.6917 12.1893 60.553 11.912C60.4143 11.624 60.345 11.2933 60.345 10.92C60.345 10.4293 60.4517 10.0187 60.665 9.688C60.889 9.35733 61.1877 9.09067 61.561 8.888C61.945 8.67467 62.3877 8.52533 62.889 8.44C63.401 8.344 63.945 8.296 64.521 8.296H65.577V7.976C65.577 7.784 65.5397 7.592 65.465 7.4C65.3903 7.208 65.2783 7.03733 65.129 6.888C64.9797 6.728 64.793 6.60533 64.569 6.52C64.345 6.424 64.0783 6.376 63.769 6.376C63.4917 6.376 63.2463 6.40267 63.033 6.456C62.8303 6.50933 62.6437 6.57867 62.473 6.664C62.3023 6.73867 62.1477 6.82933 62.009 6.936C61.8703 7.04267 61.737 7.144 61.609 7.24L60.745 6.344ZM64.809 9.352C64.4677 9.352 64.1157 9.37333 63.753 9.416C63.401 9.448 63.0757 9.51733 62.777 9.624C62.489 9.73067 62.249 9.88 62.057 10.072C61.8757 10.264 61.785 10.5093 61.785 10.808C61.785 11.2453 61.929 11.56 62.217 11.752C62.5157 11.944 62.9157 12.04 63.417 12.04C63.8117 12.04 64.1477 11.976 64.425 11.848C64.7023 11.7093 64.9263 11.5333 65.097 11.32C65.2677 11.1067 65.3903 10.872 65.465 10.616C65.5397 10.3493 65.577 10.088 65.577 9.832V9.352H64.809ZM70.1779 9.208C70.1779 9.592 70.2365 9.94933 70.3539 10.28C70.4712 10.6 70.6365 10.8773 70.8499 11.112C71.0632 11.336 71.3245 11.5173 71.6339 11.656C71.9432 11.784 72.2899 11.848 72.6739 11.848C73.0579 11.848 73.4045 11.784 73.7139 11.656C74.0232 11.5173 74.2845 11.336 74.4979 11.112C74.7112 10.8773 74.8765 10.6 74.9939 10.28C75.1112 9.94933 75.1699 9.592 75.1699 9.208C75.1699 8.824 75.1112 8.472 74.9939 8.152C74.8765 7.82133 74.7112 7.544 74.4979 7.32C74.2845 7.08533 74.0232 6.904 73.7139 6.776C73.4045 6.63733 73.0579 6.568 72.6739 6.568C72.2899 6.568 71.9432 6.63733 71.6339 6.776C71.3245 6.904 71.0632 7.08533 70.8499 7.32C70.6365 7.544 70.4712 7.82133 70.3539 8.152C70.2365 8.472 70.1779 8.824 70.1779 9.208ZM68.6419 9.208C68.6419 8.65333 68.7432 8.136 68.9459 7.656C69.1592 7.176 69.4472 6.75467 69.8099 6.392C70.1725 6.02933 70.5992 5.74667 71.0899 5.544C71.5805 5.33067 72.1085 5.224 72.6739 5.224C73.2392 5.224 73.7672 5.33067 74.2579 5.544C74.7485 5.74667 75.1752 6.02933 75.5379 6.392C75.9005 6.75467 76.1832 7.176 76.3859 7.656C76.5992 8.136 76.7059 8.65333 76.7059 9.208C76.7059 9.76267 76.5992 10.2853 76.3859 10.776C76.1832 11.256 75.9005 11.6773 75.5379 12.04C75.1752 12.392 74.7485 12.6747 74.2579 12.888C73.7672 13.0907 73.2392 13.192 72.6739 13.192C72.1085 13.192 71.5805 13.0907 71.0899 12.888C70.5992 12.6747 70.1725 12.392 69.8099 12.04C69.4472 11.6773 69.1592 11.256 68.9459 10.776C68.7432 10.2853 68.6419 9.76267 68.6419 9.208ZM78.6219 0.903999H80.0619V13H78.6219V0.903999ZM82.4656 5.416H83.9056V13H82.4656V5.416ZM82.1296 2.696C82.1296 2.408 82.231 2.16267 82.4336 1.96C82.647 1.74667 82.8976 1.64 83.1856 1.64C83.4736 1.64 83.719 1.74667 83.9216 1.96C84.135 2.16267 84.2416 2.408 84.2416 2.696C84.2416 2.984 84.135 3.23467 83.9216 3.448C83.719 3.65067 83.4736 3.752 83.1856 3.752C82.8976 3.752 82.647 3.65067 82.4336 3.448C82.231 3.23467 82.1296 2.984 82.1296 2.696ZM86.1974 5.416H87.6374V6.584H87.6694C87.8507 6.17867 88.1654 5.85333 88.6134 5.608C89.0614 5.352 89.5787 5.224 90.1654 5.224C90.528 5.224 90.8747 5.28267 91.2054 5.4C91.5467 5.50667 91.84 5.67733 92.0854 5.912C92.3414 6.14667 92.544 6.45067 92.6934 6.824C92.8427 7.18667 92.9174 7.61867 92.9174 8.12V13H91.4774V8.52C91.4774 8.168 91.4294 7.86933 91.3334 7.624C91.2374 7.368 91.1094 7.16533 90.9494 7.016C90.7894 6.856 90.6027 6.744 90.3894 6.68C90.1867 6.60533 89.9734 6.568 89.7494 6.568C89.4507 6.568 89.1734 6.616 88.9174 6.712C88.6614 6.808 88.4374 6.96267 88.2454 7.176C88.0534 7.37867 87.904 7.64 87.7974 7.96C87.6907 8.28 87.6374 8.65867 87.6374 9.096V13H86.1974V5.416Z" fill="#333333"/>
<path d="M58.4639 86.632C58.7412 87.048 59.0932 87.3573 59.5199 87.56C59.9572 87.752 60.4052 87.848 60.8639 87.848C61.1199 87.848 61.3812 87.8107 61.6479 87.736C61.9145 87.6507 62.1545 87.528 62.3679 87.368C62.5919 87.208 62.7732 87.0107 62.9119 86.776C63.0505 86.5413 63.1199 86.2693 63.1199 85.96C63.1199 85.5227 62.9812 85.192 62.7039 84.968C62.4265 84.7333 62.0799 84.5413 61.6639 84.392C61.2585 84.232 60.8105 84.0827 60.3199 83.944C59.8399 83.7947 59.3919 83.592 58.9759 83.336C58.5705 83.08 58.2292 82.7387 57.9519 82.312C57.6745 81.8747 57.5359 81.288 57.5359 80.552C57.5359 80.2213 57.6052 79.8693 57.7439 79.496C57.8932 79.1227 58.1225 78.7813 58.4319 78.472C58.7412 78.1627 59.1359 77.9067 59.6159 77.704C60.1065 77.4907 60.6932 77.384 61.3759 77.384C61.9945 77.384 62.5865 77.4693 63.1519 77.64C63.7172 77.8107 64.2132 78.1573 64.6399 78.68L63.3919 79.816C63.1999 79.5173 62.9279 79.2773 62.5759 79.096C62.2239 78.9147 61.8239 78.824 61.3759 78.824C60.9492 78.824 60.5919 78.8827 60.3039 79C60.0265 79.1067 59.8025 79.2507 59.6319 79.432C59.4612 79.6027 59.3385 79.7893 59.2639 79.992C59.1999 80.1947 59.1679 80.3813 59.1679 80.552C59.1679 81.032 59.3065 81.4 59.5839 81.656C59.8612 81.912 60.2025 82.12 60.6079 82.28C61.0239 82.44 61.4719 82.584 61.9519 82.712C62.4425 82.84 62.8905 83.0213 63.2959 83.256C63.7119 83.48 64.0585 83.7893 64.3359 84.184C64.6132 84.568 64.7519 85.1013 64.7519 85.784C64.7519 86.328 64.6452 86.8187 64.4319 87.256C64.2292 87.6933 63.9519 88.0613 63.5999 88.36C63.2479 88.6587 62.8319 88.888 62.3519 89.048C61.8719 89.208 61.3599 89.288 60.8159 89.288C60.0905 89.288 59.4025 89.16 58.7519 88.904C58.1012 88.648 57.5839 88.2533 57.1999 87.72L58.4639 86.632ZM66.7625 81.416H68.2025V89H66.7625V81.416ZM66.4265 78.696C66.4265 78.408 66.5278 78.1627 66.7305 77.96C66.9438 77.7467 67.1945 77.64 67.4825 77.64C67.7705 77.64 68.0158 77.7467 68.2185 77.96C68.4318 78.1627 68.5385 78.408 68.5385 78.696C68.5385 78.984 68.4318 79.2347 68.2185 79.448C68.0158 79.6507 67.7705 79.752 67.4825 79.752C67.1945 79.752 66.9438 79.6507 66.7305 79.448C66.5278 79.2347 66.4265 78.984 66.4265 78.696ZM69.5823 81.416H71.2463L73.5182 87.224L75.6943 81.416H77.2303L74.2543 89H72.6703L69.5823 81.416ZM78.5263 82.344C78.9316 81.9707 79.4009 81.6933 79.9343 81.512C80.4676 81.32 81.0009 81.224 81.5343 81.224C82.0889 81.224 82.5636 81.2933 82.9583 81.432C83.3636 81.5707 83.6943 81.7573 83.9503 81.992C84.2063 82.2267 84.3929 82.4987 84.5103 82.808C84.6383 83.1067 84.7023 83.4213 84.7023 83.752V87.624C84.7023 87.8907 84.7076 88.136 84.7183 88.36C84.7289 88.584 84.7449 88.7973 84.7663 89H83.4863C83.4543 88.616 83.4383 88.232 83.4383 87.848H83.4063C83.0863 88.3387 82.7076 88.6853 82.2703 88.888C81.8329 89.0907 81.3263 89.192 80.7503 89.192C80.3983 89.192 80.0623 89.144 79.7423 89.048C79.4223 88.952 79.1396 88.808 78.8943 88.616C78.6596 88.424 78.4729 88.1893 78.3343 87.912C78.1956 87.624 78.1263 87.2933 78.1263 86.92C78.1263 86.4293 78.2329 86.0187 78.4463 85.688C78.6703 85.3573 78.9689 85.0907 79.3423 84.888C79.7263 84.6747 80.1689 84.5253 80.6703 84.44C81.1823 84.344 81.7263 84.296 82.3023 84.296H83.3583V83.976C83.3583 83.784 83.3209 83.592 83.2463 83.4C83.1716 83.208 83.0596 83.0373 82.9103 82.888C82.7609 82.728 82.5743 82.6053 82.3503 82.52C82.1263 82.424 81.8596 82.376 81.5503 82.376C81.2729 82.376 81.0276 82.4027 80.8143 82.456C80.6116 82.5093 80.4249 82.5787 80.2543 82.664C80.0836 82.7387 79.9289 82.8293 79.7903 82.936C79.6516 83.0427 79.5183 83.144 79.3903 83.24L78.5263 82.344ZM82.5903 85.352C82.2489 85.352 81.8969 85.3733 81.5343 85.416C81.1823 85.448 80.8569 85.5173 80.5583 85.624C80.2703 85.7307 80.0303 85.88 79.8383 86.072C79.6569 86.264 79.5663 86.5093 79.5663 86.808C79.5663 87.2453 79.7103 87.56 79.9983 87.752C80.2969 87.944 80.6969 88.04 81.1983 88.04C81.5929 88.04 81.9289 87.976 82.2063 87.848C82.4836 87.7093 82.7076 87.5333 82.8783 87.32C83.0489 87.1067 83.1716 86.872 83.2463 86.616C83.3209 86.3493 83.3583 86.088 83.3583 85.832V85.352H82.5903ZM86.7911 76.904H88.2311V84.712L91.4951 81.432H93.4951L89.9591 84.872L93.7991 89H91.7511L88.2311 85.064V89H86.7911V76.904Z" fill="#333333"/>
<path d="M45.8596 145.12C45.5396 144.704 45.1343 144.384 44.6436 144.16C44.153 143.936 43.6463 143.824 43.1236 143.824C42.4836 143.824 41.9023 143.947 41.3796 144.192C40.8676 144.427 40.425 144.752 40.0516 145.168C39.689 145.584 39.4063 146.075 39.2036 146.64C39.001 147.195 38.8996 147.792 38.8996 148.432C38.8996 149.029 38.9956 149.595 39.1876 150.128C39.3796 150.661 39.657 151.131 40.0196 151.536C40.3823 151.941 40.825 152.261 41.3476 152.496C41.8703 152.731 42.4623 152.848 43.1236 152.848C43.7743 152.848 44.345 152.715 44.8356 152.448C45.3263 152.181 45.7423 151.808 46.0836 151.328L47.3796 152.304C47.2943 152.421 47.145 152.592 46.9316 152.816C46.7183 153.029 46.4356 153.248 46.0836 153.472C45.7316 153.685 45.305 153.872 44.8036 154.032C44.313 154.203 43.7423 154.288 43.0916 154.288C42.1956 154.288 41.385 154.117 40.6596 153.776C39.945 153.435 39.3316 152.987 38.8196 152.432C38.3183 151.877 37.9343 151.253 37.6676 150.56C37.401 149.856 37.2676 149.147 37.2676 148.432C37.2676 147.557 37.4116 146.752 37.6996 146.016C37.9876 145.269 38.3876 144.629 38.8996 144.096C39.4223 143.552 40.0463 143.131 40.7716 142.832C41.497 142.533 42.297 142.384 43.1716 142.384C43.9183 142.384 44.649 142.528 45.3636 142.816C46.089 143.104 46.681 143.547 47.1396 144.144L45.8596 145.12ZM48.9013 147.344C49.3066 146.971 49.7759 146.693 50.3093 146.512C50.8426 146.32 51.3759 146.224 51.9093 146.224C52.4639 146.224 52.9386 146.293 53.3333 146.432C53.7386 146.571 54.0693 146.757 54.3253 146.992C54.5813 147.227 54.7679 147.499 54.8853 147.808C55.0133 148.107 55.0773 148.421 55.0773 148.752V152.624C55.0773 152.891 55.0826 153.136 55.0933 153.36C55.1039 153.584 55.1199 153.797 55.1413 154H53.8613C53.8293 153.616 53.8133 153.232 53.8133 152.848H53.7813C53.4613 153.339 53.0826 153.685 52.6453 153.888C52.2079 154.091 51.7013 154.192 51.1253 154.192C50.7733 154.192 50.4373 154.144 50.1173 154.048C49.7973 153.952 49.5146 153.808 49.2693 153.616C49.0346 153.424 48.8479 153.189 48.7093 152.912C48.5706 152.624 48.5013 152.293 48.5013 151.92C48.5013 151.429 48.6079 151.019 48.8213 150.688C49.0453 150.357 49.3439 150.091 49.7173 149.888C50.1013 149.675 50.5439 149.525 51.0453 149.44C51.5573 149.344 52.1013 149.296 52.6773 149.296H53.7333V148.976C53.7333 148.784 53.6959 148.592 53.6213 148.4C53.5466 148.208 53.4346 148.037 53.2853 147.888C53.1359 147.728 52.9493 147.605 52.7253 147.52C52.5013 147.424 52.2346 147.376 51.9253 147.376C51.6479 147.376 51.4026 147.403 51.1893 147.456C50.9866 147.509 50.7999 147.579 50.6293 147.664C50.4586 147.739 50.3039 147.829 50.1653 147.936C50.0266 148.043 49.8933 148.144 49.7653 148.24L48.9013 147.344ZM52.9653 150.352C52.6239 150.352 52.2719 150.373 51.9093 150.416C51.5573 150.448 51.2319 150.517 50.9333 150.624C50.6453 150.731 50.4053 150.88 50.2133 151.072C50.0319 151.264 49.9413 151.509 49.9413 151.808C49.9413 152.245 50.0853 152.56 50.3733 152.752C50.6719 152.944 51.0719 153.04 51.5733 153.04C51.9679 153.04 52.3039 152.976 52.5813 152.848C52.8586 152.709 53.0826 152.533 53.2533 152.32C53.4239 152.107 53.5466 151.872 53.6213 151.616C53.6959 151.349 53.7333 151.088 53.7333 150.832V150.352H52.9653ZM57.2781 141.904H58.7181V154H57.2781V141.904ZM66.4339 148.432C66.1672 148.155 65.8845 147.947 65.5859 147.808C65.2979 147.659 64.9512 147.584 64.5459 147.584C64.1512 147.584 63.8045 147.659 63.5059 147.808C63.2179 147.947 62.9725 148.144 62.7699 148.4C62.5779 148.645 62.4285 148.933 62.3219 149.264C62.2259 149.584 62.1779 149.92 62.1779 150.272C62.1779 150.624 62.2365 150.96 62.3539 151.28C62.4712 151.589 62.6365 151.861 62.8499 152.096C63.0632 152.331 63.3192 152.517 63.6179 152.656C63.9165 152.784 64.2525 152.848 64.6259 152.848C65.0312 152.848 65.3779 152.779 65.6659 152.64C65.9539 152.491 66.2205 152.277 66.4659 152L67.4899 153.024C67.1165 153.44 66.6792 153.739 66.1779 153.92C65.6872 154.101 65.1645 154.192 64.6099 154.192C64.0232 154.192 63.4845 154.096 62.9939 153.904C62.5139 153.712 62.0979 153.445 61.7459 153.104C61.3939 152.752 61.1219 152.336 60.9299 151.856C60.7379 151.365 60.6419 150.827 60.6419 150.24C60.6419 149.653 60.7379 149.115 60.9299 148.624C61.1219 148.133 61.3885 147.712 61.7299 147.36C62.0819 147.008 62.4979 146.736 62.9779 146.544C63.4685 146.341 64.0125 146.24 64.6099 146.24C65.1645 146.24 65.6925 146.341 66.1939 146.544C66.7059 146.736 67.1485 147.035 67.5219 147.44L66.4339 148.432ZM68.8406 146.416H70.2806V154H68.8406V146.416ZM68.5046 143.696C68.5046 143.408 68.606 143.163 68.8086 142.96C69.022 142.747 69.2726 142.64 69.5606 142.64C69.8486 142.64 70.094 142.747 70.2966 142.96C70.51 143.163 70.6166 143.408 70.6166 143.696C70.6166 143.984 70.51 144.235 70.2966 144.448C70.094 144.651 69.8486 144.752 69.5606 144.752C69.2726 144.752 69.022 144.651 68.8086 144.448C68.606 144.235 68.5046 143.984 68.5046 143.696ZM79.2924 154H77.8524V152.832H77.8204C77.639 153.237 77.3244 153.568 76.8764 153.824C76.4284 154.069 75.911 154.192 75.3244 154.192C74.951 154.192 74.599 154.133 74.2684 154.016C73.9377 153.909 73.6444 153.739 73.3884 153.504C73.143 153.269 72.9457 152.971 72.7964 152.608C72.647 152.235 72.5724 151.797 72.5724 151.296V146.416H74.0124V150.896C74.0124 151.248 74.0604 151.552 74.1564 151.808C74.2524 152.053 74.3804 152.256 74.5404 152.416C74.7004 152.565 74.8817 152.677 75.0844 152.752C75.2977 152.816 75.5164 152.848 75.7404 152.848C76.039 152.848 76.3164 152.8 76.5724 152.704C76.8284 152.608 77.0524 152.459 77.2444 152.256C77.4364 152.043 77.5857 151.776 77.6924 151.456C77.799 151.136 77.8524 150.757 77.8524 150.32V146.416H79.2924V154ZM81.463 146.416H82.807V147.6H82.839C82.871 147.493 82.951 147.36 83.079 147.2C83.2177 147.04 83.3883 146.891 83.591 146.752C83.8043 146.603 84.0497 146.48 84.327 146.384C84.615 146.277 84.9297 146.224 85.271 146.224C85.8363 146.224 86.311 146.341 86.695 146.576C87.079 146.811 87.3937 147.163 87.639 147.632C87.8843 147.163 88.231 146.811 88.679 146.576C89.127 146.341 89.5803 146.224 90.039 146.224C90.6257 146.224 91.1057 146.32 91.479 146.512C91.8523 146.704 92.1457 146.96 92.359 147.28C92.5723 147.589 92.7163 147.947 92.791 148.352C92.8763 148.747 92.919 149.157 92.919 149.584V154H91.479V149.776C91.479 149.488 91.4577 149.211 91.415 148.944C91.383 148.677 91.3083 148.443 91.191 148.24C91.0737 148.037 90.9083 147.877 90.695 147.76C90.4817 147.632 90.199 147.568 89.847 147.568C89.1537 147.568 88.6577 147.781 88.359 148.208C88.0603 148.635 87.911 149.184 87.911 149.856V154H86.471V150.032C86.471 149.669 86.4497 149.339 86.407 149.04C86.375 148.741 86.3003 148.485 86.183 148.272C86.0763 148.048 85.9163 147.877 85.703 147.76C85.5003 147.632 85.223 147.568 84.871 147.568C84.615 147.568 84.3643 147.621 84.119 147.728C83.8843 147.824 83.6763 147.973 83.495 148.176C83.3137 148.379 83.1697 148.64 83.063 148.96C82.9563 149.269 82.903 149.637 82.903 150.064V154H81.463V146.416ZM26.5784 169.12C26.2584 168.704 25.853 168.384 25.3624 168.16C24.8717 167.936 24.365 167.824 23.8424 167.824C23.2024 167.824 22.621 167.947 22.0984 168.192C21.5864 168.427 21.1437 168.752 20.7704 169.168C20.4077 169.584 20.125 170.075 19.9224 170.64C19.7197 171.195 19.6184 171.792 19.6184 172.432C19.6184 173.029 19.7144 173.595 19.9064 174.128C20.0984 174.661 20.3757 175.131 20.7384 175.536C21.101 175.941 21.5437 176.261 22.0664 176.496C22.589 176.731 23.181 176.848 23.8424 176.848C24.493 176.848 25.0637 176.715 25.5544 176.448C26.045 176.181 26.461 175.808 26.8024 175.328L28.0984 176.304C28.013 176.421 27.8637 176.592 27.6504 176.816C27.437 177.029 27.1544 177.248 26.8024 177.472C26.4504 177.685 26.0237 177.872 25.5224 178.032C25.0317 178.203 24.461 178.288 23.8104 178.288C22.9144 178.288 22.1037 178.117 21.3784 177.776C20.6637 177.435 20.0504 176.987 19.5384 176.432C19.037 175.877 18.653 175.253 18.3864 174.56C18.1197 173.856 17.9864 173.147 17.9864 172.432C17.9864 171.557 18.1304 170.752 18.4184 170.016C18.7064 169.269 19.1064 168.629 19.6184 168.096C20.141 167.552 20.765 167.131 21.4904 166.832C22.2157 166.533 23.0157 166.384 23.8904 166.384C24.637 166.384 25.3677 166.528 26.0824 166.816C26.8077 167.104 27.3997 167.547 27.8584 168.144L26.5784 169.12ZM29.62 171.344C30.0253 170.971 30.4947 170.693 31.028 170.512C31.5613 170.32 32.0947 170.224 32.628 170.224C33.1827 170.224 33.6573 170.293 34.052 170.432C34.4573 170.571 34.788 170.757 35.044 170.992C35.3 171.227 35.4867 171.499 35.604 171.808C35.732 172.107 35.796 172.421 35.796 172.752V176.624C35.796 176.891 35.8013 177.136 35.812 177.36C35.8227 177.584 35.8387 177.797 35.86 178H34.58C34.548 177.616 34.532 177.232 34.532 176.848H34.5C34.18 177.339 33.8013 177.685 33.364 177.888C32.9267 178.091 32.42 178.192 31.844 178.192C31.492 178.192 31.156 178.144 30.836 178.048C30.516 177.952 30.2333 177.808 29.988 177.616C29.7533 177.424 29.5667 177.189 29.428 176.912C29.2893 176.624 29.22 176.293 29.22 175.92C29.22 175.429 29.3267 175.019 29.54 174.688C29.764 174.357 30.0627 174.091 30.436 173.888C30.82 173.675 31.2627 173.525 31.764 173.44C32.276 173.344 32.82 173.296 33.396 173.296H34.452V172.976C34.452 172.784 34.4147 172.592 34.34 172.4C34.2653 172.208 34.1533 172.037 34.004 171.888C33.8547 171.728 33.668 171.605 33.444 171.52C33.22 171.424 32.9533 171.376 32.644 171.376C32.3667 171.376 32.1213 171.403 31.908 171.456C31.7053 171.509 31.5187 171.579 31.348 171.664C31.1773 171.739 31.0227 171.829 30.884 171.936C30.7453 172.043 30.612 172.144 30.484 172.24L29.62 171.344ZM33.684 174.352C33.3427 174.352 32.9907 174.373 32.628 174.416C32.276 174.448 31.9507 174.517 31.652 174.624C31.364 174.731 31.124 174.88 30.932 175.072C30.7507 175.264 30.66 175.509 30.66 175.808C30.66 176.245 30.804 176.56 31.092 176.752C31.3907 176.944 31.7907 177.04 32.292 177.04C32.6867 177.04 33.0227 176.976 33.3 176.848C33.5773 176.709 33.8013 176.533 33.972 176.32C34.1427 176.107 34.2653 175.872 34.34 175.616C34.4147 175.349 34.452 175.088 34.452 174.832V174.352H33.684ZM37.8849 170.416H39.3249V171.584H39.3569C39.4529 171.381 39.5809 171.2 39.7409 171.04C39.9009 170.869 40.0769 170.725 40.2689 170.608C40.4715 170.491 40.6902 170.4 40.9249 170.336C41.1595 170.261 41.3942 170.224 41.6289 170.224C41.8635 170.224 42.0769 170.256 42.2689 170.32L42.2049 171.872C42.0875 171.84 41.9702 171.813 41.8529 171.792C41.7355 171.771 41.6182 171.76 41.5009 171.76C40.7969 171.76 40.2582 171.957 39.8849 172.352C39.5115 172.747 39.3249 173.36 39.3249 174.192V178H37.8849V170.416ZM43.8068 165.904H45.2468V171.504H45.2788C45.5348 171.109 45.9028 170.8 46.3828 170.576C46.8628 170.341 47.3748 170.224 47.9188 170.224C48.5054 170.224 49.0334 170.325 49.5028 170.528C49.9828 170.731 50.3881 171.013 50.7188 171.376C51.0601 171.728 51.3214 172.149 51.5028 172.64C51.6841 173.12 51.7748 173.643 51.7748 174.208C51.7748 174.773 51.6841 175.296 51.5028 175.776C51.3214 176.256 51.0601 176.677 50.7188 177.04C50.3881 177.403 49.9828 177.685 49.5028 177.888C49.0334 178.091 48.5054 178.192 47.9188 178.192C47.4068 178.192 46.9054 178.08 46.4148 177.856C45.9348 177.632 45.5561 177.317 45.2788 176.912H45.2468V178H43.8068V165.904ZM47.7428 176.848C48.1268 176.848 48.4734 176.784 48.7828 176.656C49.0921 176.517 49.3534 176.336 49.5668 176.112C49.7801 175.877 49.9454 175.6 50.0628 175.28C50.1801 174.949 50.2388 174.592 50.2388 174.208C50.2388 173.824 50.1801 173.472 50.0628 173.152C49.9454 172.821 49.7801 172.544 49.5668 172.32C49.3534 172.085 49.0921 171.904 48.7828 171.776C48.4734 171.637 48.1268 171.568 47.7428 171.568C47.3588 171.568 47.0121 171.637 46.7028 171.776C46.3934 171.904 46.1321 172.085 45.9188 172.32C45.7054 172.544 45.5401 172.821 45.4228 173.152C45.3054 173.472 45.2468 173.824 45.2468 174.208C45.2468 174.592 45.3054 174.949 45.4228 175.28C45.5401 175.6 45.7054 175.877 45.9188 176.112C46.1321 176.336 46.3934 176.517 46.7028 176.656C47.0121 176.784 47.3588 176.848 47.7428 176.848ZM54.756 174.208C54.756 174.592 54.8147 174.949 54.932 175.28C55.0493 175.6 55.2147 175.877 55.428 176.112C55.6413 176.336 55.9027 176.517 56.212 176.656C56.5213 176.784 56.868 176.848 57.252 176.848C57.636 176.848 57.9827 176.784 58.292 176.656C58.6013 176.517 58.8627 176.336 59.076 176.112C59.2893 175.877 59.4547 175.6 59.572 175.28C59.6893 174.949 59.748 174.592 59.748 174.208C59.748 173.824 59.6893 173.472 59.572 173.152C59.4547 172.821 59.2893 172.544 59.076 172.32C58.8627 172.085 58.6013 171.904 58.292 171.776C57.9827 171.637 57.636 171.568 57.252 171.568C56.868 171.568 56.5213 171.637 56.212 171.776C55.9027 171.904 55.6413 172.085 55.428 172.32C55.2147 172.544 55.0493 172.821 54.932 173.152C54.8147 173.472 54.756 173.824 54.756 174.208ZM53.22 174.208C53.22 173.653 53.3213 173.136 53.524 172.656C53.7373 172.176 54.0253 171.755 54.388 171.392C54.7507 171.029 55.1773 170.747 55.668 170.544C56.1587 170.331 56.6867 170.224 57.252 170.224C57.8173 170.224 58.3453 170.331 58.836 170.544C59.3267 170.747 59.7533 171.029 60.116 171.392C60.4787 171.755 60.7613 172.176 60.964 172.656C61.1773 173.136 61.284 173.653 61.284 174.208C61.284 174.763 61.1773 175.285 60.964 175.776C60.7613 176.256 60.4787 176.677 60.116 177.04C59.7533 177.392 59.3267 177.675 58.836 177.888C58.3453 178.091 57.8173 178.192 57.252 178.192C56.6867 178.192 56.1587 178.091 55.668 177.888C55.1773 177.675 54.7507 177.392 54.388 177.04C54.0253 176.677 53.7373 176.256 53.524 175.776C53.3213 175.285 53.22 174.763 53.22 174.208ZM63.088 170.416H64.528V171.584H64.56C64.7413 171.179 65.056 170.853 65.504 170.608C65.952 170.352 66.4693 170.224 67.056 170.224C67.4187 170.224 67.7653 170.283 68.096 170.4C68.4373 170.507 68.7307 170.677 68.976 170.912C69.232 171.147 69.4347 171.451 69.584 171.824C69.7333 172.187 69.808 172.619 69.808 173.12V178H68.368V173.52C68.368 173.168 68.32 172.869 68.224 172.624C68.128 172.368 68 172.165 67.84 172.016C67.68 171.856 67.4933 171.744 67.28 171.68C67.0773 171.605 66.864 171.568 66.64 171.568C66.3413 171.568 66.064 171.616 65.808 171.712C65.552 171.808 65.328 171.963 65.136 172.176C64.944 172.379 64.7947 172.64 64.688 172.96C64.5813 173.28 64.528 173.659 64.528 174.096V178H63.088V170.416ZM72.0106 171.344C72.416 170.971 72.8853 170.693 73.4186 170.512C73.952 170.32 74.4853 170.224 75.0186 170.224C75.5733 170.224 76.048 170.293 76.4426 170.432C76.848 170.571 77.1786 170.757 77.4346 170.992C77.6906 171.227 77.8773 171.499 77.9946 171.808C78.1226 172.107 78.1866 172.421 78.1866 172.752V176.624C78.1866 176.891 78.192 177.136 78.2026 177.36C78.2133 177.584 78.2293 177.797 78.2506 178H76.9706C76.9386 177.616 76.9226 177.232 76.9226 176.848H76.8906C76.5706 177.339 76.192 177.685 75.7546 177.888C75.3173 178.091 74.8106 178.192 74.2346 178.192C73.8826 178.192 73.5466 178.144 73.2266 178.048C72.9066 177.952 72.624 177.808 72.3786 177.616C72.144 177.424 71.9573 177.189 71.8186 176.912C71.68 176.624 71.6106 176.293 71.6106 175.92C71.6106 175.429 71.7173 175.019 71.9306 174.688C72.1546 174.357 72.4533 174.091 72.8266 173.888C73.2106 173.675 73.6533 173.525 74.1546 173.44C74.6666 173.344 75.2106 173.296 75.7866 173.296H76.8426V172.976C76.8426 172.784 76.8053 172.592 76.7306 172.4C76.656 172.208 76.544 172.037 76.3946 171.888C76.2453 171.728 76.0586 171.605 75.8346 171.52C75.6106 171.424 75.344 171.376 75.0346 171.376C74.7573 171.376 74.512 171.403 74.2986 171.456C74.096 171.509 73.9093 171.579 73.7386 171.664C73.568 171.739 73.4133 171.829 73.2746 171.936C73.136 172.043 73.0026 172.144 72.8746 172.24L72.0106 171.344ZM76.0746 174.352C75.7333 174.352 75.3813 174.373 75.0186 174.416C74.6666 174.448 74.3413 174.517 74.0426 174.624C73.7546 174.731 73.5146 174.88 73.3226 175.072C73.1413 175.264 73.0506 175.509 73.0506 175.808C73.0506 176.245 73.1946 176.56 73.4826 176.752C73.7813 176.944 74.1813 177.04 74.6826 177.04C75.0773 177.04 75.4133 176.976 75.6906 176.848C75.968 176.709 76.192 176.533 76.3626 176.32C76.5333 176.107 76.656 175.872 76.7306 175.616C76.8053 175.349 76.8426 175.088 76.8426 174.832V174.352H76.0746ZM84.3395 171.664H82.2755V175.104C82.2755 175.317 82.2808 175.531 82.2915 175.744C82.3022 175.947 82.3395 176.133 82.4035 176.304C82.4782 176.464 82.5848 176.597 82.7235 176.704C82.8728 176.8 83.0862 176.848 83.3635 176.848C83.5342 176.848 83.7102 176.832 83.8915 176.8C84.0728 176.768 84.2382 176.709 84.3875 176.624V177.936C84.2168 178.032 83.9928 178.096 83.7155 178.128C83.4488 178.171 83.2408 178.192 83.0915 178.192C82.5368 178.192 82.1048 178.117 81.7955 177.968C81.4968 177.808 81.2728 177.605 81.1235 177.36C80.9848 177.115 80.8995 176.843 80.8675 176.544C80.8462 176.235 80.8355 175.925 80.8355 175.616V171.664H79.1715V170.416H80.8355V168.288H82.2755V170.416H84.3395V171.664ZM87.2854 174.736C87.2854 175.067 87.3547 175.371 87.4934 175.648C87.6427 175.915 87.8347 176.144 88.0694 176.336C88.304 176.528 88.576 176.677 88.8854 176.784C89.1947 176.891 89.5147 176.944 89.8454 176.944C90.2934 176.944 90.6827 176.843 91.0134 176.64C91.344 176.427 91.648 176.149 91.9254 175.808L93.0134 176.64C92.2134 177.675 91.0934 178.192 89.6534 178.192C89.056 178.192 88.512 178.091 88.0214 177.888C87.5414 177.685 87.1307 177.408 86.7894 177.056C86.4587 176.693 86.2027 176.272 86.0214 175.792C85.84 175.301 85.7494 174.773 85.7494 174.208C85.7494 173.643 85.8454 173.12 86.0374 172.64C86.24 172.149 86.512 171.728 86.8534 171.376C87.2054 171.013 87.6214 170.731 88.1014 170.528C88.5814 170.325 89.104 170.224 89.6694 170.224C90.3414 170.224 90.9067 170.341 91.3654 170.576C91.8347 170.811 92.2187 171.12 92.5174 171.504C92.816 171.877 93.0294 172.304 93.1574 172.784C93.296 173.253 93.3654 173.733 93.3654 174.224V174.736H87.2854ZM91.8294 173.584C91.8187 173.264 91.7654 172.971 91.6694 172.704C91.584 172.437 91.4507 172.208 91.2694 172.016C91.088 171.813 90.8587 171.659 90.5814 171.552C90.3147 171.435 90 171.376 89.6374 171.376C89.2854 171.376 88.96 171.445 88.6614 171.584C88.3734 171.712 88.128 171.883 87.9254 172.096C87.7227 172.309 87.5627 172.549 87.4454 172.816C87.3387 173.072 87.2854 173.328 87.2854 173.584H91.8294Z" fill="#333333"/>
<rect x="190" y="12" width="76" height="1" transform="rotate(-180 190 12)" fill="#333333"/>
<rect x="190" y="85" width="76" height="1" transform="rotate(-180 190 85)" fill="#333333"/>
<rect x="190" y="161" width="76" height="1" transform="rotate(-180 190 161)" fill="#333333"/>
<rect x="190" y="234" width="76" height="1" transform="rotate(-180 190 234)" fill="#333333"/>
<rect x="190" y="306" width="76" height="1" transform="rotate(-180 190 306)" fill="#333333"/>
<path d="M0.565375 226.672H2.10138V236.56H7.30138V238H0.565375V226.672ZM8.60625 230.416H10.0463V238H8.60625V230.416ZM8.27025 227.696C8.27025 227.408 8.37158 227.163 8.57425 226.96C8.78758 226.747 9.03825 226.64 9.32625 226.64C9.61425 226.64 9.85958 226.747 10.0623 226.96C10.2756 227.163 10.3823 227.408 10.3823 227.696C10.3823 227.984 10.2756 228.235 10.0623 228.448C9.85958 228.651 9.61425 228.752 9.32625 228.752C9.03825 228.752 8.78758 228.651 8.57425 228.448C8.37158 228.235 8.27025 227.984 8.27025 227.696ZM17.762 232.432C17.4953 232.155 17.2127 231.947 16.914 231.808C16.626 231.659 16.2793 231.584 15.874 231.584C15.4793 231.584 15.1327 231.659 14.834 231.808C14.546 231.947 14.3007 232.144 14.098 232.4C13.906 232.645 13.7567 232.933 13.65 233.264C13.554 233.584 13.506 233.92 13.506 234.272C13.506 234.624 13.5647 234.96 13.682 235.28C13.7993 235.589 13.9647 235.861 14.178 236.096C14.3913 236.331 14.6473 236.517 14.946 236.656C15.2447 236.784 15.5807 236.848 15.954 236.848C16.3593 236.848 16.706 236.779 16.994 236.64C17.282 236.491 17.5487 236.277 17.794 236L18.818 237.024C18.4447 237.44 18.0073 237.739 17.506 237.92C17.0153 238.101 16.4927 238.192 15.938 238.192C15.3513 238.192 14.8127 238.096 14.322 237.904C13.842 237.712 13.426 237.445 13.074 237.104C12.722 236.752 12.45 236.336 12.258 235.856C12.066 235.365 11.97 234.827 11.97 234.24C11.97 233.653 12.066 233.115 12.258 232.624C12.45 232.133 12.7167 231.712 13.058 231.36C13.41 231.008 13.826 230.736 14.306 230.544C14.7967 230.341 15.3407 230.24 15.938 230.24C16.4927 230.24 17.0207 230.341 17.522 230.544C18.034 230.736 18.4767 231.035 18.85 231.44L17.762 232.432ZM21.2248 234.208C21.2248 234.592 21.2834 234.949 21.4008 235.28C21.5181 235.6 21.6834 235.877 21.8968 236.112C22.1101 236.336 22.3714 236.517 22.6808 236.656C22.9901 236.784 23.3368 236.848 23.7208 236.848C24.1048 236.848 24.4514 236.784 24.7608 236.656C25.0701 236.517 25.3314 236.336 25.5448 236.112C25.7581 235.877 25.9234 235.6 26.0408 235.28C26.1581 234.949 26.2168 234.592 26.2168 234.208C26.2168 233.824 26.1581 233.472 26.0408 233.152C25.9234 232.821 25.7581 232.544 25.5448 232.32C25.3314 232.085 25.0701 231.904 24.7608 231.776C24.4514 231.637 24.1048 231.568 23.7208 231.568C23.3368 231.568 22.9901 231.637 22.6808 231.776C22.3714 231.904 22.1101 232.085 21.8968 232.32C21.6834 232.544 21.5181 232.821 21.4008 233.152C21.2834 233.472 21.2248 233.824 21.2248 234.208ZM19.6888 234.208C19.6888 233.653 19.7901 233.136 19.9928 232.656C20.2061 232.176 20.4941 231.755 20.8568 231.392C21.2194 231.029 21.6461 230.747 22.1368 230.544C22.6274 230.331 23.1554 230.224 23.7208 230.224C24.2861 230.224 24.8141 230.331 25.3048 230.544C25.7954 230.747 26.2221 231.029 26.5848 231.392C26.9474 231.755 27.2301 232.176 27.4328 232.656C27.6461 233.136 27.7528 233.653 27.7528 234.208C27.7528 234.763 27.6461 235.285 27.4328 235.776C27.2301 236.256 26.9474 236.677 26.5848 237.04C26.2221 237.392 25.7954 237.675 25.3048 237.888C24.8141 238.091 24.2861 238.192 23.7208 238.192C23.1554 238.192 22.6274 238.091 22.1368 237.888C21.6461 237.675 21.2194 237.392 20.8568 237.04C20.4941 236.677 20.2061 236.256 19.9928 235.776C19.7901 235.285 19.6888 234.763 19.6888 234.208ZM29.5568 230.416H30.9968V231.584H31.0288C31.1248 231.381 31.2528 231.2 31.4128 231.04C31.5728 230.869 31.7488 230.725 31.9408 230.608C32.1434 230.491 32.3621 230.4 32.5968 230.336C32.8314 230.261 33.0661 230.224 33.3008 230.224C33.5354 230.224 33.7488 230.256 33.9408 230.32L33.8768 231.872C33.7594 231.84 33.6421 231.813 33.5248 231.792C33.4074 231.771 33.2901 231.76 33.1727 231.76C32.4688 231.76 31.9301 231.957 31.5568 232.352C31.1834 232.747 30.9968 233.36 30.9968 234.192V238H29.5568V230.416ZM35.5906 230.416H37.0306V238H35.5906V230.416ZM35.2546 227.696C35.2546 227.408 35.356 227.163 35.5586 226.96C35.772 226.747 36.0226 226.64 36.3106 226.64C36.5986 226.64 36.844 226.747 37.0466 226.96C37.26 227.163 37.3666 227.408 37.3666 227.696C37.3666 227.984 37.26 228.235 37.0466 228.448C36.844 228.651 36.5986 228.752 36.3106 228.752C36.0226 228.752 35.772 228.651 35.5586 228.448C35.356 228.235 35.2546 227.984 35.2546 227.696ZM44.7464 232.432C44.4797 232.155 44.197 231.947 43.8984 231.808C43.6104 231.659 43.2637 231.584 42.8584 231.584C42.4637 231.584 42.117 231.659 41.8184 231.808C41.5304 231.947 41.285 232.144 41.0824 232.4C40.8904 232.645 40.741 232.933 40.6344 233.264C40.5384 233.584 40.4904 233.92 40.4904 234.272C40.4904 234.624 40.549 234.96 40.6664 235.28C40.7837 235.589 40.949 235.861 41.1624 236.096C41.3757 236.331 41.6317 236.517 41.9304 236.656C42.229 236.784 42.565 236.848 42.9384 236.848C43.3437 236.848 43.6904 236.779 43.9784 236.64C44.2664 236.491 44.533 236.277 44.7784 236L45.8024 237.024C45.429 237.44 44.9917 237.739 44.4904 237.92C43.9997 238.101 43.477 238.192 42.9224 238.192C42.3357 238.192 41.797 238.096 41.3064 237.904C40.8264 237.712 40.4104 237.445 40.0584 237.104C39.7064 236.752 39.4344 236.336 39.2424 235.856C39.0504 235.365 38.9544 234.827 38.9544 234.24C38.9544 233.653 39.0504 233.115 39.2424 232.624C39.4344 232.133 39.701 231.712 40.0424 231.36C40.3944 231.008 40.8104 230.736 41.2904 230.544C41.781 230.341 42.325 230.24 42.9224 230.24C43.477 230.24 44.005 230.341 44.5064 230.544C45.0184 230.736 45.461 231.035 45.8344 231.44L44.7464 232.432ZM48.1291 234.736C48.1291 235.067 48.1985 235.371 48.3371 235.648C48.4865 235.915 48.6785 236.144 48.9131 236.336C49.1478 236.528 49.4198 236.677 49.7291 236.784C50.0385 236.891 50.3585 236.944 50.6891 236.944C51.1371 236.944 51.5265 236.843 51.8571 236.64C52.1878 236.427 52.4918 236.149 52.7691 235.808L53.8571 236.64C53.0571 237.675 51.9371 238.192 50.4971 238.192C49.8998 238.192 49.3558 238.091 48.8651 237.888C48.3851 237.685 47.9745 237.408 47.6331 237.056C47.3025 236.693 47.0465 236.272 46.8651 235.792C46.6838 235.301 46.5931 234.773 46.5931 234.208C46.5931 233.643 46.6891 233.12 46.8811 232.64C47.0838 232.149 47.3558 231.728 47.6971 231.376C48.0491 231.013 48.4651 230.731 48.9451 230.528C49.4251 230.325 49.9478 230.224 50.5131 230.224C51.1851 230.224 51.7505 230.341 52.2091 230.576C52.6785 230.811 53.0625 231.12 53.3611 231.504C53.6598 231.877 53.8731 232.304 54.0011 232.784C54.1398 233.253 54.2091 233.733 54.2091 234.224V234.736H48.1291ZM52.6731 233.584C52.6625 233.264 52.6091 232.971 52.5131 232.704C52.4278 232.437 52.2945 232.208 52.1131 232.016C51.9318 231.813 51.7025 231.659 51.4251 231.552C51.1585 231.435 50.8438 231.376 50.4811 231.376C50.1291 231.376 49.8038 231.445 49.5051 231.584C49.2171 231.712 48.9718 231.883 48.7691 232.096C48.5665 232.309 48.4065 232.549 48.2891 232.816C48.1825 233.072 48.1291 233.328 48.1291 233.584H52.6731ZM60.7529 226.672H64.7369C65.4622 226.672 66.0595 226.773 66.5289 226.976C66.9982 227.168 67.3662 227.419 67.6329 227.728C67.9102 228.027 68.1022 228.368 68.2089 228.752C68.3155 229.125 68.3689 229.488 68.3689 229.84C68.3689 230.203 68.3049 230.555 68.1769 230.896C68.0489 231.227 67.8622 231.531 67.6169 231.808C67.3822 232.075 67.0889 232.304 66.7369 232.496C66.3955 232.677 66.0115 232.789 65.5849 232.832L68.8009 238H66.8809L64.0009 233.008H62.2889V238H60.7529V226.672ZM62.2889 231.664H64.3049C64.6035 231.664 64.8969 231.643 65.1849 231.6C65.4835 231.547 65.7449 231.456 65.9689 231.328C66.2035 231.2 66.3902 231.019 66.5289 230.784C66.6675 230.539 66.7369 230.224 66.7369 229.84C66.7369 229.456 66.6675 229.147 66.5289 228.912C66.3902 228.667 66.2035 228.48 65.9689 228.352C65.7449 228.224 65.4835 228.139 65.1849 228.096C64.8969 228.043 64.6035 228.016 64.3049 228.016H62.2889V231.664ZM71.3341 234.208C71.3341 234.592 71.3928 234.949 71.5101 235.28C71.6275 235.6 71.7928 235.877 72.0061 236.112C72.2195 236.336 72.4808 236.517 72.7901 236.656C73.0995 236.784 73.4461 236.848 73.8301 236.848C74.2141 236.848 74.5608 236.784 74.8701 236.656C75.1795 236.517 75.4408 236.336 75.6541 236.112C75.8675 235.877 76.0328 235.6 76.1501 235.28C76.2675 234.949 76.3261 234.592 76.3261 234.208C76.3261 233.824 76.2675 233.472 76.1501 233.152C76.0328 232.821 75.8675 232.544 75.6541 232.32C75.4408 232.085 75.1795 231.904 74.8701 231.776C74.5608 231.637 74.2141 231.568 73.8301 231.568C73.4461 231.568 73.0995 231.637 72.7901 231.776C72.4808 231.904 72.2195 232.085 72.0061 232.32C71.7928 232.544 71.6275 232.821 71.5101 233.152C71.3928 233.472 71.3341 233.824 71.3341 234.208ZM69.7981 234.208C69.7981 233.653 69.8995 233.136 70.1021 232.656C70.3155 232.176 70.6035 231.755 70.9661 231.392C71.3288 231.029 71.7555 230.747 72.2461 230.544C72.7368 230.331 73.2648 230.224 73.8301 230.224C74.3955 230.224 74.9235 230.331 75.4141 230.544C75.9048 230.747 76.3315 231.029 76.6941 231.392C77.0568 231.755 77.3395 232.176 77.5421 232.656C77.7555 233.136 77.8621 233.653 77.8621 234.208C77.8621 234.763 77.7555 235.285 77.5421 235.776C77.3395 236.256 77.0568 236.677 76.6941 237.04C76.3315 237.392 75.9048 237.675 75.4141 237.888C74.9235 238.091 74.3955 238.192 73.8301 238.192C73.2648 238.192 72.7368 238.091 72.2461 237.888C71.7555 237.675 71.3288 237.392 70.9661 237.04C70.6035 236.677 70.3155 236.256 70.1021 235.776C69.8995 235.285 69.7981 234.763 69.7981 234.208ZM80.8341 234.208C80.8341 234.592 80.8928 234.949 81.0101 235.28C81.1275 235.6 81.2928 235.877 81.5061 236.112C81.7195 236.336 81.9808 236.517 82.2901 236.656C82.5995 236.784 82.9461 236.848 83.3301 236.848C83.7141 236.848 84.0608 236.784 84.3701 236.656C84.6795 236.517 84.9408 236.336 85.1541 236.112C85.3675 235.877 85.5328 235.6 85.6501 235.28C85.7675 234.949 85.8261 234.592 85.8261 234.208C85.8261 233.824 85.7675 233.472 85.6501 233.152C85.5328 232.821 85.3675 232.544 85.1541 232.32C84.9408 232.085 84.6795 231.904 84.3701 231.776C84.0608 231.637 83.7141 231.568 83.3301 231.568C82.9461 231.568 82.5995 231.637 82.2901 231.776C81.9808 231.904 81.7195 232.085 81.5061 232.32C81.2928 232.544 81.1275 232.821 81.0101 233.152C80.8928 233.472 80.8341 233.824 80.8341 234.208ZM79.2981 234.208C79.2981 233.653 79.3995 233.136 79.6021 232.656C79.8155 232.176 80.1035 231.755 80.4661 231.392C80.8288 231.029 81.2555 230.747 81.7461 230.544C82.2368 230.331 82.7648 230.224 83.3301 230.224C83.8955 230.224 84.4235 230.331 84.9141 230.544C85.4048 230.747 85.8315 231.029 86.1941 231.392C86.5568 231.755 86.8395 232.176 87.0421 232.656C87.2555 233.136 87.3621 233.653 87.3621 234.208C87.3621 234.763 87.2555 235.285 87.0421 235.776C86.8395 236.256 86.5568 236.677 86.1941 237.04C85.8315 237.392 85.4048 237.675 84.9141 237.888C84.4235 238.091 83.8955 238.192 83.3301 238.192C82.7648 238.192 82.2368 238.091 81.7461 237.888C81.2555 237.675 80.8288 237.392 80.4661 237.04C80.1035 236.677 79.8155 236.256 79.6021 235.776C79.3995 235.285 79.2981 234.763 79.2981 234.208ZM93.2301 231.664H91.1661V235.104C91.1661 235.317 91.1715 235.531 91.1821 235.744C91.1928 235.947 91.2301 236.133 91.2941 236.304C91.3688 236.464 91.4755 236.597 91.6141 236.704C91.7635 236.8 91.9768 236.848 92.2541 236.848C92.4248 236.848 92.6008 236.832 92.7821 236.8C92.9635 236.768 93.1288 236.709 93.2781 236.624V237.936C93.1075 238.032 92.8835 238.096 92.6061 238.128C92.3395 238.171 92.1315 238.192 91.9821 238.192C91.4275 238.192 90.9955 238.117 90.6861 237.968C90.3875 237.808 90.1635 237.605 90.0141 237.36C89.8755 237.115 89.7901 236.843 89.7581 236.544C89.7368 236.235 89.7261 235.925 89.7261 235.616V231.664H88.0621V230.416H89.7261V228.288H91.1661V230.416H93.2301V231.664Z" fill="#333333"/>
<path d="M35.4334 301.112H31.7854V299.672H40.6174V301.112H36.9694V311H35.4334V301.112ZM46.9955 311H45.5555V309.832H45.5235C45.3422 310.237 45.0275 310.568 44.5795 310.824C44.1315 311.069 43.6142 311.192 43.0275 311.192C42.6542 311.192 42.3022 311.133 41.9715 311.016C41.6408 310.909 41.3475 310.739 41.0915 310.504C40.8462 310.269 40.6488 309.971 40.4995 309.608C40.3502 309.235 40.2755 308.797 40.2755 308.296V303.416H41.7155V307.896C41.7155 308.248 41.7635 308.552 41.8595 308.808C41.9555 309.053 42.0835 309.256 42.2435 309.416C42.4035 309.565 42.5848 309.677 42.7875 309.752C43.0008 309.816 43.2195 309.848 43.4435 309.848C43.7422 309.848 44.0195 309.8 44.2755 309.704C44.5315 309.608 44.7555 309.459 44.9475 309.256C45.1395 309.043 45.2888 308.776 45.3955 308.456C45.5022 308.136 45.5555 307.757 45.5555 307.32V303.416H46.9955V311ZM49.1661 303.416H50.6061V304.584H50.6381C50.7341 304.381 50.8621 304.2 51.0221 304.04C51.1821 303.869 51.3581 303.725 51.5501 303.608C51.7528 303.491 51.9715 303.4 52.2061 303.336C52.4408 303.261 52.6755 303.224 52.9101 303.224C53.1448 303.224 53.3581 303.256 53.5501 303.32L53.4861 304.872C53.3688 304.84 53.2515 304.813 53.1341 304.792C53.0168 304.771 52.8995 304.76 52.7821 304.76C52.0781 304.76 51.5395 304.957 51.1661 305.352C50.7928 305.747 50.6061 306.36 50.6061 307.192V311H49.1661V303.416ZM55.088 303.416H56.432V304.6H56.464C56.496 304.493 56.576 304.36 56.704 304.2C56.8427 304.04 57.0133 303.891 57.216 303.752C57.4293 303.603 57.6747 303.48 57.952 303.384C58.24 303.277 58.5547 303.224 58.896 303.224C59.4613 303.224 59.936 303.341 60.32 303.576C60.704 303.811 61.0187 304.163 61.264 304.632C61.5093 304.163 61.856 303.811 62.304 303.576C62.752 303.341 63.2053 303.224 63.664 303.224C64.2507 303.224 64.7307 303.32 65.104 303.512C65.4773 303.704 65.7707 303.96 65.984 304.28C66.1973 304.589 66.3413 304.947 66.416 305.352C66.5013 305.747 66.544 306.157 66.544 306.584V311H65.104V306.776C65.104 306.488 65.0827 306.211 65.04 305.944C65.008 305.677 64.9333 305.443 64.816 305.24C64.6987 305.037 64.5333 304.877 64.32 304.76C64.1067 304.632 63.824 304.568 63.472 304.568C62.7787 304.568 62.2827 304.781 61.984 305.208C61.6853 305.635 61.536 306.184 61.536 306.856V311H60.096V307.032C60.096 306.669 60.0747 306.339 60.032 306.04C60 305.741 59.9253 305.485 59.808 305.272C59.7013 305.048 59.5413 304.877 59.328 304.76C59.1253 304.632 58.848 304.568 58.496 304.568C58.24 304.568 57.9893 304.621 57.744 304.728C57.5093 304.824 57.3013 304.973 57.12 305.176C56.9387 305.379 56.7947 305.64 56.688 305.96C56.5813 306.269 56.528 306.637 56.528 307.064V311H55.088V303.416ZM69.801 307.736C69.801 308.067 69.8703 308.371 70.009 308.648C70.1583 308.915 70.3503 309.144 70.585 309.336C70.8197 309.528 71.0917 309.677 71.401 309.784C71.7103 309.891 72.0303 309.944 72.361 309.944C72.809 309.944 73.1983 309.843 73.529 309.64C73.8597 309.427 74.1637 309.149 74.441 308.808L75.529 309.64C74.729 310.675 73.609 311.192 72.169 311.192C71.5717 311.192 71.0277 311.091 70.537 310.888C70.057 310.685 69.6463 310.408 69.305 310.056C68.9743 309.693 68.7183 309.272 68.537 308.792C68.3557 308.301 68.265 307.773 68.265 307.208C68.265 306.643 68.361 306.12 68.553 305.64C68.7557 305.149 69.0277 304.728 69.369 304.376C69.721 304.013 70.137 303.731 70.617 303.528C71.097 303.325 71.6197 303.224 72.185 303.224C72.857 303.224 73.4223 303.341 73.881 303.576C74.3503 303.811 74.7343 304.12 75.033 304.504C75.3317 304.877 75.545 305.304 75.673 305.784C75.8117 306.253 75.881 306.733 75.881 307.224V307.736H69.801ZM74.345 306.584C74.3343 306.264 74.281 305.971 74.185 305.704C74.0997 305.437 73.9663 305.208 73.785 305.016C73.6037 304.813 73.3743 304.659 73.097 304.552C72.8303 304.435 72.5157 304.376 72.153 304.376C71.801 304.376 71.4757 304.445 71.177 304.584C70.889 304.712 70.6437 304.883 70.441 305.096C70.2383 305.309 70.0783 305.549 69.961 305.816C69.8543 306.072 69.801 306.328 69.801 306.584H74.345ZM77.6036 303.416H79.0436V304.584H79.0756C79.1716 304.381 79.2996 304.2 79.4596 304.04C79.6196 303.869 79.7956 303.725 79.9876 303.608C80.1903 303.491 80.409 303.4 80.6436 303.336C80.8783 303.261 81.113 303.224 81.3476 303.224C81.5823 303.224 81.7956 303.256 81.9876 303.32L81.9236 304.872C81.8063 304.84 81.689 304.813 81.5716 304.792C81.4543 304.771 81.337 304.76 81.2196 304.76C80.5156 304.76 79.977 304.957 79.6036 305.352C79.2303 305.747 79.0436 306.36 79.0436 307.192V311H77.6036V303.416ZM83.6375 303.416H85.0775V311H83.6375V303.416ZM83.3015 300.696C83.3015 300.408 83.4028 300.163 83.6055 299.96C83.8188 299.747 84.0695 299.64 84.3575 299.64C84.6455 299.64 84.8908 299.747 85.0935 299.96C85.3068 300.163 85.4135 300.408 85.4135 300.696C85.4135 300.984 85.3068 301.235 85.0935 301.448C84.8908 301.651 84.6455 301.752 84.3575 301.752C84.0695 301.752 83.8188 301.651 83.6055 301.448C83.4028 301.235 83.3015 300.984 83.3015 300.696ZM92.7933 305.432C92.5266 305.155 92.2439 304.947 91.9453 304.808C91.6573 304.659 91.3106 304.584 90.9053 304.584C90.5106 304.584 90.1639 304.659 89.8653 304.808C89.5773 304.947 89.3319 305.144 89.1293 305.4C88.9373 305.645 88.7879 305.933 88.6813 306.264C88.5853 306.584 88.5373 306.92 88.5373 307.272C88.5373 307.624 88.5959 307.96 88.7133 308.28C88.8306 308.589 88.9959 308.861 89.2093 309.096C89.4226 309.331 89.6786 309.517 89.9773 309.656C90.2759 309.784 90.6119 309.848 90.9852 309.848C91.3906 309.848 91.7373 309.779 92.0253 309.64C92.3133 309.491 92.5799 309.277 92.8253 309L93.8493 310.024C93.4759 310.44 93.0386 310.739 92.5373 310.92C92.0466 311.101 91.5239 311.192 90.9693 311.192C90.3826 311.192 89.8439 311.096 89.3533 310.904C88.8733 310.712 88.4573 310.445 88.1053 310.104C87.7533 309.752 87.4813 309.336 87.2893 308.856C87.0973 308.365 87.0013 307.827 87.0013 307.24C87.0013 306.653 87.0973 306.115 87.2893 305.624C87.4813 305.133 87.7479 304.712 88.0893 304.36C88.4413 304.008 88.8573 303.736 89.3373 303.544C89.8279 303.341 90.3719 303.24 90.9693 303.24C91.5239 303.24 92.0519 303.341 92.5533 303.544C93.0653 303.736 93.5079 304.035 93.8813 304.44L92.7933 305.432Z" fill="#333333"/>
</svg>
