<svg xmlns="http://www.w3.org/2000/svg" width="12" height="131" fill="none"><path fill="#344F10" fill-opacity=".5" d="M7.108 130.482q-1.162 0-2.058-.476a3.56 3.56 0 0 1-1.89-3.164q0-.91.364-1.582.35-.685.882-1.092h-1.12v-1.61H11v1.61H9.852q.546.406.91 1.106t.364 1.596q0 .994-.504 1.82a3.74 3.74 0 0 1-1.428 1.316q-.924.476-2.086.476m.028-6.314q-.798 0-1.386.336-.588.322-.896.854a2.25 2.25 0 0 0-.308 1.148q0 .616.308 1.148.294.532.882.868.574.322 1.372.322t1.4-.322a2.44 2.44 0 0 0 .924-.868q.308-.546.308-1.148 0-.616-.308-1.148a2.26 2.26 0 0 0-.896-.854q-.602-.336-1.4-.336m-2.702-5.302a3 3 0 0 1-.91-1.106 3.43 3.43 0 0 1-.364-1.582q0-1.023.49-1.848a3.43 3.43 0 0 1 1.4-1.302q.896-.477 2.058-.476 1.162 0 2.086.476a3.6 3.6 0 0 1 1.428 1.316 3.45 3.45 0 0 1 .504 1.834q0 .895-.35 1.596a3.1 3.1 0 0 1-.896 1.092H11v1.596H.64v-1.596zm2.674-4.69q-.799 0-1.372.336a2.13 2.13 0 0 0-.882.868 2.25 2.25 0 0 0-.308 1.148q0 .602.308 1.148.308.532.896.868.588.322 1.386.322t1.4-.322q.587-.336.896-.868.308-.546.308-1.148a2.25 2.25 0 0 0-.308-1.148 2.3 2.3 0 0 0-.924-.868q-.602-.336-1.4-.336m4.018-6.549q0 1.092-.49 1.974a3.63 3.63 0 0 1-1.4 1.386q-.91.504-2.1.504-1.176 0-2.086-.518a3.57 3.57 0 0 1-1.4-1.414 4.1 4.1 0 0 1-.49-2.002q0-1.105.49-2.002a3.6 3.6 0 0 1 1.4-1.414q.91-.518 2.086-.518t2.086.532 1.414 1.456q.49.91.49 2.016m-1.386 0q0-.615-.294-1.148a2.23 2.23 0 0 0-.882-.882q-.588-.336-1.428-.336t-1.414.322a2.17 2.17 0 0 0-.882.854 2.34 2.34 0 0 0-.294 1.148q0 .617.294 1.148.294.519.882.826.574.309 1.414.308 1.246 0 1.932-.63.672-.644.672-1.61M3.286 95.06H11v1.596h-.91q.476.378.756.994.266.601.266 1.288 0 .909-.378 1.638a2.8 2.8 0 0 1-1.12 1.134q-.742.406-1.792.406H3.286v-1.582h4.298q1.036 0 1.596-.518.546-.519.546-1.414 0-.897-.546-1.414-.56-.532-1.596-.532H3.286zm1.302-3.968h4.27q.435 0 .63-.196.182-.21.182-.7v-.98H11v1.26q0 1.079-.504 1.652-.504.574-1.638.574h-4.27v.91H3.286v-.91H1.368v-1.61h1.918v-1.876h1.302zm0-8.846h4.27q.435 0 .63-.196.182-.21.182-.7v-.98H11v1.26q0 1.079-.504 1.652-.504.574-1.638.574h-4.27v.91H3.286v-.91H1.368v-1.61h1.918V80.37h1.302zM3.16 74.91q0-.881.378-1.568.378-.699 1.12-1.092.742-.405 1.792-.406H11v1.582H6.688q-1.035 0-1.582.518-.56.519-.56 1.414 0 .897.56 1.428.546.519 1.582.518H11V78.9H.64v-1.596h3.542a2.7 2.7 0 0 1-.756-1.022 3.5 3.5 0 0 1-.266-1.372m3.794-12.172q.434.001.784.056v5.894q.924-.07 1.484-.686.56-.615.56-1.512 0-1.287-1.078-1.82v-1.722q1.065.35 1.75 1.274.672.91.672 2.268 0 1.107-.49 1.988a3.66 3.66 0 0 1-1.4 1.372q-.91.49-2.1.49t-2.086-.476a3.44 3.44 0 0 1-1.4-1.358q-.49-.882-.49-2.016 0-1.092.476-1.946a3.35 3.35 0 0 1 1.344-1.33q.854-.476 1.974-.476m-.504 1.666q-.883.015-1.414.63-.532.617-.532 1.526 0 .826.532 1.414.518.588 1.414.7zm.686-6.34q-1.19 0-2.086-.477a3.47 3.47 0 0 1-1.4-1.344q-.49-.855-.49-1.96 0-1.4.672-2.31.658-.924 1.89-1.246v1.722q-.574.21-.896.672t-.322 1.162q0 .98.7 1.568.685.574 1.932.574t1.946-.574q.7-.588.7-1.568 0-1.386-1.218-1.834v-1.722q1.177.336 1.876 1.26.686.924.686 2.296 0 1.105-.49 1.96a3.6 3.6 0 0 1-1.4 1.344q-.91.476-2.1.476m-2.73-10.524a2.47 2.47 0 0 1-.91-.924q-.336-.588-.336-1.386h1.652v.407q0 .937.476 1.427.476.476 1.652.476H11v1.596H3.286V47.54zm2.548-10.846q.434 0 .784.056v5.893q.924-.07 1.484-.686.56-.615.56-1.512 0-1.287-1.078-1.82v-1.721q1.065.35 1.75 1.273.672.91.672 2.268 0 1.106-.49 1.988a3.66 3.66 0 0 1-1.4 1.372q-.91.49-2.1.49T5.05 43.82a3.44 3.44 0 0 1-1.4-1.358q-.49-.882-.49-2.017 0-1.09.476-1.946a3.35 3.35 0 0 1 1.344-1.33q.854-.475 1.974-.475m-.504 1.666q-.883.014-1.414.63-.532.615-.532 1.526 0 .825.532 1.413.518.59 1.414.7zm.658-2.705q-1.162 0-2.058-.476a3.56 3.56 0 0 1-1.89-3.164q0-.91.364-1.582.35-.686.882-1.092h-1.12v-1.61H11v1.61H9.852q.546.406.91 1.106t.364 1.596q0 .995-.504 1.82-.518.826-1.428 1.316-.924.476-2.086.476m.028-6.314q-.798 0-1.386.336-.588.323-.896.854a2.25 2.25 0 0 0-.308 1.148q0 .615.308 1.148.294.532.882.868.574.322 1.372.322t1.4-.322q.602-.337.924-.868.308-.546.308-1.148 0-.616-.308-1.148a2.26 2.26 0 0 0-.896-.854q-.602-.336-1.4-.336m-2.548-5.568h4.27q.435 0 .63-.196.182-.21.182-.7v-.98H11v1.26q0 1.077-.504 1.652-.504.574-1.638.574h-4.27v.91H3.286v-.91H1.368v-1.61h1.918v-1.876h1.302zm6.538-6.693q0 1.092-.49 1.974a3.63 3.63 0 0 1-1.4 1.386q-.91.504-2.1.504-1.176 0-2.086-.518a3.6 3.6 0 0 1-1.4-1.414 4.1 4.1 0 0 1-.49-2.002q0-1.107.49-2.002a3.6 3.6 0 0 1 1.4-1.414q.91-.518 2.086-.518t2.086.532a3.7 3.7 0 0 1 1.414 1.456q.49.909.49 2.016m-1.386 0q0-.617-.294-1.148a2.23 2.23 0 0 0-.882-.882q-.588-.336-1.428-.336t-1.414.322q-.588.321-.882.854a2.34 2.34 0 0 0-.294 1.148q0 .615.294 1.148.294.517.882.826.574.308 1.414.308 1.246 0 1.932-.63.672-.645.672-1.61M4.406 9.9a2.47 2.47 0 0 1-.91-.924Q3.16 8.389 3.16 7.59h1.652v.406q0 .938.476 1.428.476.476 1.652.476H11v1.596H3.286V9.9zm6.72-6.577q0 .909-.322 1.638a2.96 2.96 0 0 1-.896 1.134q-.574.42-1.274.448V4.892q.49-.042.826-.462.322-.435.322-1.078 0-.672-.252-1.036-.265-.378-.672-.378-.434 0-.644.42-.21.405-.462 1.302-.238.868-.462 1.414t-.686.952q-.462.392-1.218.392-.615 0-1.12-.364-.518-.364-.812-1.036Q3.16 4.33 3.16 3.45q0-1.317.672-2.114Q4.49.524 5.638.468v1.596q-.517.042-.826.42-.308.377-.308 1.022 0 .63.238.966a.74.74 0 0 0 .63.336.68.68 0 0 0 .518-.224q.21-.225.336-.546.112-.322.294-.952.224-.84.462-1.372.224-.546.672-.938.448-.393 1.19-.406.658 0 1.176.364t.812 1.036q.294.657.294 1.554"/></svg>