<svg xmlns="http://www.w3.org/2000/svg" width="20" height="20" fill="none"><path stroke="#E4DFD3" d="M17.305 19.5h-3.787l.01-6.147h1.97a.94.94 0 0 0 .932-.828l.273-2.303a.938.938 0 0 0-.932-1.049h-2.254V7.746c0-.416.064-.626.161-.74.08-.096.275-.23.835-.23h1.161c.518 0 .938-.42.938-.938V3.895a.94.94 0 0 0-.938-.938h-1.891c-1.254 0-2.361.385-3.157 1.17-.797.789-1.225 1.925-1.225 3.32v1.726H8.047c-.52 0-.94.422-.938.942l.009 2.303a.94.94 0 0 0 .938.935h1.356l-.01 6.147H2.694A2.195 2.195 0 0 1 .5 17.305V2.695C.5 1.483 1.483.5 2.695.5h14.61c1.212 0 2.195.983 2.195 2.195v14.61a2.195 2.195 0 0 1-2.195 2.195Z"/></svg>