<svg xmlns="http://www.w3.org/2000/svg" width="15" height="30" fill="none"><path fill="#344F10" fill-opacity=".5" d="M3.16 25.962q0-.881.378-1.568.378-.7 1.12-1.092.742-.405 1.792-.406H11v1.582H6.688q-1.035 0-1.582.518-.56.518-.56 1.414t.56 1.428q.546.518 1.582.518H11v1.596H.64v-1.596h3.542a2.7 2.7 0 0 1-.756-1.022 3.5 3.5 0 0 1-.266-1.372M6.954 13.79q.434 0 .784.056v5.894q.924-.07 1.484-.686.56-.615.56-1.512 0-1.288-1.078-1.82V14q1.065.35 1.75 1.274.672.91.672 2.268 0 1.106-.49 1.988a3.66 3.66 0 0 1-1.4 1.372q-.91.49-2.1.49t-2.086-.476a3.45 3.45 0 0 1-1.4-1.358q-.49-.882-.49-2.016 0-1.092.476-1.946a3.35 3.35 0 0 1 1.344-1.33q.854-.476 1.974-.476m-.504 1.666q-.883.015-1.414.63-.532.616-.532 1.526 0 .825.532 1.414.518.588 1.414.7zM.64 10.624H11v1.595H.64zm3.78-3.692q-.532-.406-.896-1.106a3.4 3.4 0 0 1-.364-1.582q0-1.008.504-1.834.49-.84 1.386-1.316T7.108.618t2.086.476a3.6 3.6 0 0 1 1.428 1.316q.504.825.504 1.834 0 .882-.35 1.568-.364.685-.896 1.12h4.788v1.596H3.286V6.932zm2.688-4.69q-.799 0-1.372.336a2.14 2.14 0 0 0-.882.868 2.25 2.25 0 0 0-.308 1.148q0 .602.308 1.148.308.532.896.868.588.322 1.386.322t1.4-.322q.587-.336.896-.868.308-.546.308-1.148 0-.615-.308-1.148a2.3 2.3 0 0 0-.924-.868q-.602-.336-1.4-.336"/></svg>