<svg xmlns="http://www.w3.org/2000/svg" width="15" height="79" fill="none"><path fill="#344F10" fill-opacity=".5" d="M1.27 77.356H11v1.596H1.27zm1.89-5.988q0-.91.378-1.624a2.68 2.68 0 0 1 1.12-1.134q.742-.406 1.792-.406H11v1.582H6.688q-1.035 0-1.582.518-.56.519-.56 1.414 0 .897.56 1.428.546.519 1.582.518H11v1.596H3.286v-1.596h.882a2.65 2.65 0 0 1-.742-.994 3.25 3.25 0 0 1-.266-1.302m0-8.307q0-.896.364-1.583.35-.699.882-1.092h-1.12v-1.61h7.84q1.065 0 1.89.448.84.449 1.316 1.303.476.84.476 2.015 0 1.569-.742 2.605a2.69 2.69 0 0 1-1.988 1.175V64.74q.602-.18.966-.77.378-.6.378-1.428 0-.966-.588-1.553-.588-.603-1.708-.602H9.838q.546.406.924 1.105.364.686.364 1.569 0 1.008-.504 1.848a3.74 3.74 0 0 1-1.428 1.316q-.924.476-2.086.476-1.162-.001-2.058-.476a3.56 3.56 0 0 1-1.89-3.164m3.976-2.675q-.798 0-1.386.336-.588.323-.896.855a2.25 2.25 0 0 0-.308 1.148q0 .615.308 1.148.294.531.882.867.574.323 1.372.323t1.4-.323q.602-.336.924-.867.308-.546.308-1.148 0-.617-.308-1.148a2.26 2.26 0 0 0-.896-.855q-.602-.336-1.4-.336m-2.73-5.302a2.47 2.47 0 0 1-.91-.924q-.336-.588-.336-1.386h1.652v.406q0 .939.476 1.428.476.476 1.652.476H11v1.596H3.286v-1.596zm2.548-10.847q.434 0 .784.056v5.894q.924-.07 1.484-.686.56-.615.56-1.512 0-1.287-1.078-1.82v-1.722q1.065.35 1.75 1.274.672.91.672 2.268 0 1.107-.49 1.988a3.66 3.66 0 0 1-1.4 1.372q-.91.49-2.1.49t-2.086-.476a3.45 3.45 0 0 1-1.4-1.358q-.49-.882-.49-2.016 0-1.092.476-1.946a3.35 3.35 0 0 1 1.344-1.33q.854-.476 1.974-.476m-.504 1.666q-.883.015-1.414.63-.532.616-.532 1.526 0 .825.532 1.414.518.588 1.414.7zm.658-2.704q-1.162-.001-2.058-.476a3.56 3.56 0 0 1-1.89-3.178q0-.757.336-1.484.322-.742.868-1.176H.64v-1.61H11v1.61H9.838q.56.39.924 1.092.364.685.364 1.582 0 1.008-.504 1.848-.518.825-1.428 1.316-.924.476-2.086.476m.028-6.314q-.798 0-1.386.336-.588.321-.896.854a2.25 2.25 0 0 0-.308 1.148q0 .615.308 1.148.294.532.882.868.574.322 1.372.322t1.4-.322q.602-.336.924-.868.308-.546.308-1.148 0-.617-.308-1.148a2.26 2.26 0 0 0-.896-.854q-.602-.336-1.4-.336m-4.872-4.519q0 .434-.294.728a1 1 0 0 1-.728.294 1 1 0 0 1-.728-.294 1 1 0 0 1-.294-.728q0-.42.294-.714a1 1 0 0 1 .728-.294q.435 0 .728.294a.97.97 0 0 1 .294.714m1.022-.784H11v1.596H3.286zm3.668-9.165q.434 0 .784.056v5.894q.924-.07 1.484-.686t.56-1.512q0-1.289-1.078-1.82v-1.722q1.065.35 1.75 1.274.672.91.672 2.268 0 1.106-.49 1.988a3.66 3.66 0 0 1-1.4 1.372q-.91.49-2.1.49t-2.086-.476a3.45 3.45 0 0 1-1.4-1.358q-.49-.882-.49-2.016 0-1.092.476-1.946a3.35 3.35 0 0 1 1.344-1.33q.854-.476 1.974-.476m-.504 1.666q-.883.015-1.414.63-.532.616-.532 1.526 0 .826.532 1.414.518.588 1.414.7zm-3.29-7.129q0-.91.378-1.624a2.68 2.68 0 0 1 1.12-1.134q.742-.405 1.792-.406H11v1.582H6.688q-1.035 0-1.582.518-.56.519-.56 1.414 0 .897.56 1.428.546.519 1.582.518H11v1.596H3.286V19.25h.882a2.65 2.65 0 0 1-.742-.994 3.25 3.25 0 0 1-.266-1.302m1.428-7.062h4.27q.435 0 .63-.196.182-.21.182-.7v-.98H11v1.26q0 1.08-.504 1.652-.504.574-1.638.574h-4.27v.91H3.286v-.91H1.368v-1.61h1.918V8.016h1.302zm6.538-6.147q0 .91-.322 1.638a2.96 2.96 0 0 1-.896 1.134q-.574.42-1.274.448V5.313q.49-.042.826-.462.322-.433.322-1.078 0-.672-.252-1.036-.265-.378-.672-.378-.434 0-.644.42-.21.406-.462 1.302-.238.869-.462 1.414-.224.547-.686.952-.462.392-1.218.392-.615.001-1.12-.364-.518-.364-.812-1.036-.294-.686-.294-1.568 0-1.316.672-2.114Q4.49.947 5.638.89v1.596q-.517.042-.826.42t-.308 1.022q0 .63.238.966a.74.74 0 0 0 .63.336.68.68 0 0 0 .518-.224q.21-.223.336-.546.112-.322.294-.952.224-.84.462-1.372.224-.546.672-.938.448-.39 1.19-.406.658 0 1.176.364t.812 1.036q.294.66.294 1.554"/></svg>