<svg xmlns="http://www.w3.org/2000/svg" width="81" height="76" fill="none"><path stroke="#344F10" d="m44.617 75-2.927-5.441M15.64 21.135l7.317 13.602m0 0 3.358-11.426m-3.358 11.426-11.384-3.264m11.384 3.264 6.44 11.97m0 0 4.544-17.41m-4.545 17.41-15.282-4.352m15.282 4.352 7.61 14.147m0 0 6.086-22.852m-6.085 22.852L15.64 54.869m21.367 5.985 4.683 8.705m0 0C63.789 40.304 67.44 24.561 5.98 1.548"/><path stroke="#344F10" d="M5.966 1c-13.849 66.096 2.3 69.645 35.6 68.56m13.726-21.764 2.034-3.181M68.51 27.12l-6.609 10.338m0 0h8.642m-8.642 0-2.542-8.161m2.542 8.16-4.575 7.158m0 0H68.51m-11.184 0-5.592 10.254 13.217 1.088"/><path stroke="#344F10" d="M44.108 66.295c30.861-.43 42.561-6.995 32.21-53.236"/><path stroke="#344F10" d="M76.644 13.518c-11.16 2.584-16.958 4.8-24.402 13.602"/></svg>