<svg xmlns="http://www.w3.org/2000/svg" width="270" height="50" fill="none"><path fill="#344F10" d="M75.342 19.242 72.514 29h-1.428l-2.268-7.854L66.466 29l-1.414.014-2.73-9.772h1.358l2.128 8.274 2.352-8.274h1.428l2.24 8.246 2.142-8.246zm3.368 0V29h-1.274v-9.758zm8.878 0v1.036h-2.66V29h-1.275v-8.722H80.98v-1.036zm1.792 4.872q0-1.428.644-2.562a4.7 4.7 0 0 1 1.75-1.792 4.9 4.9 0 0 1 2.478-.644q1.596 0 2.786.77t1.736 2.184h-1.526a3.05 3.05 0 0 0-1.176-1.358q-.756-.476-1.82-.476-1.023 0-1.834.476t-1.274 1.358q-.462.868-.462 2.044 0 1.162.462 2.044a3.34 3.34 0 0 0 1.274 1.344q.811.476 1.834.476 1.064 0 1.82-.462.77-.476 1.176-1.358h1.526q-.546 1.4-1.736 2.17-1.19.756-2.786.756-1.359 0-2.478-.63a4.7 4.7 0 0 1-1.75-1.778q-.645-1.134-.644-2.562m19.508-4.872V29h-1.274v-4.424h-4.97V29h-1.274v-9.758h1.274v4.284h4.97v-4.284zm11.732 9.856q-1.358 0-2.478-.63a4.8 4.8 0 0 1-1.778-1.778q-.644-1.148-.644-2.576t.644-2.562a4.65 4.65 0 0 1 1.778-1.778 4.9 4.9 0 0 1 2.478-.644q1.372 0 2.492.644a4.57 4.57 0 0 1 1.764 1.764q.644 1.134.644 2.576t-.644 2.576a4.67 4.67 0 0 1-1.764 1.778q-1.12.63-2.492.63m0-1.106q1.022 0 1.834-.476.826-.476 1.288-1.358.476-.883.476-2.044 0-1.176-.476-2.044a3.3 3.3 0 0 0-1.274-1.358q-.812-.476-1.848-.476t-1.848.476-1.288 1.358q-.462.868-.462 2.044 0 1.162.462 2.044.476.881 1.288 1.358a3.64 3.64 0 0 0 1.848.476m12.798-8.75v1.036h-4.242v3.29h3.444v1.036h-3.444V29h-1.274v-9.758zm16.569.07V29h-1.274v-7.224L145.493 29h-.896l-3.234-7.238V29h-1.274v-9.688h1.372l3.584 8.008 3.584-8.008zm7.285 9.786q-1.359 0-2.478-.63a4.8 4.8 0 0 1-1.778-1.778q-.644-1.148-.644-2.576t.644-2.562a4.64 4.64 0 0 1 1.778-1.778 4.9 4.9 0 0 1 2.478-.644q1.371 0 2.492.644a4.6 4.6 0 0 1 1.764 1.764q.644 1.134.644 2.576t-.644 2.576a4.7 4.7 0 0 1-1.764 1.778q-1.12.63-2.492.63m0-1.106q1.021 0 1.834-.476.825-.476 1.288-1.358.476-.883.476-2.044 0-1.176-.476-2.044a3.3 3.3 0 0 0-1.274-1.358q-.813-.476-1.848-.476t-1.848.476-1.288 1.358q-.462.868-.462 2.044 0 1.162.462 2.044.475.881 1.288 1.358a3.63 3.63 0 0 0 1.848.476m8.527-8.75v6.174q0 1.302.63 1.932.644.63 1.778.63 1.12 0 1.75-.63.644-.63.644-1.932v-6.174h1.274v6.16q0 1.218-.49 2.058-.49.825-1.33 1.232-.825.405-1.862.406-1.035 0-1.876-.406a3.1 3.1 0 0 1-1.316-1.232q-.476-.84-.476-2.058v-6.16zM182.373 29h-1.274l-5.124-7.77V29h-1.274v-9.772h1.274l5.124 7.756v-7.756h1.274zm8.877-9.758v1.036h-2.66V29h-1.274v-8.722h-2.674v-1.036zm8.037 7.588h-4.256l-.784 2.17h-1.344l3.528-9.702h1.47L201.415 29h-1.344zm-.364-1.036-1.764-4.928-1.764 4.928zm6.003-6.552V29h-1.274v-9.758zM215.47 29h-1.274l-5.124-7.77V29h-1.274v-9.772h1.274l5.124 7.756v-7.756h1.274zm19.568-9.758L232.21 29h-1.428l-2.268-7.854L226.162 29l-1.414.014-2.73-9.772h1.358l2.128 8.274 2.352-8.274h1.428l2.24 8.246 2.142-8.246zm3.368 0V29h-1.274v-9.758zM248.949 29h-1.274l-5.124-7.77V29h-1.274v-9.772h1.274l5.124 7.756v-7.756h1.274zm5.91-9.758q1.596 0 2.758.602a4.1 4.1 0 0 1 1.792 1.694q.63 1.105.63 2.604t-.63 2.604q-.616 1.092-1.792 1.68-1.162.574-2.758.574h-3.038v-9.758zm0 8.708q1.89 0 2.884-.994.994-1.008.994-2.814 0-1.82-1.008-2.842-.994-1.022-2.87-1.022h-1.764v7.672zm10.654 1.148q-.965 0-1.736-.336-.755-.35-1.19-.952a2.5 2.5 0 0 1-.448-1.414h1.358q.07.686.56 1.162.505.462 1.456.462.91 0 1.428-.448.532-.462.532-1.176 0-.56-.308-.91a1.97 1.97 0 0 0-.77-.532 12 12 0 0 0-1.246-.392q-.966-.252-1.554-.504a2.6 2.6 0 0 1-.994-.784q-.405-.547-.406-1.456 0-.798.406-1.414t1.134-.952q.743-.336 1.694-.336 1.373 0 2.24.686.883.686.994 1.82h-1.4q-.069-.56-.588-.98-.517-.434-1.372-.434-.798 0-1.302.42-.504.405-.504 1.148 0 .532.294.868.309.336.742.518.448.168 1.246.392.966.266 1.554.532a2.5 2.5 0 0 1 1.008.798q.42.532.42 1.456 0 .714-.378 1.344t-1.12 1.022-1.75.392"/><circle cx="25" cy="25" r="24.5" fill="#E4DFD3" stroke="#344F10"/><path fill="#344F10" fill-rule="evenodd" d="M24.953 15.052 27.407 22h-4.87l2.444 1.573 9.225-5.938L45 24.583H27.427L24.989 30.5l-2.427-5.892H5l10.794-6.948 6.713 4.32zM26.952 34.5l-1.963-3.97-1.962 3.97z" clip-rule="evenodd"/><path fill="#344F10" d="m25 24 2.5-2h-5z"/></svg>