<svg xmlns="http://www.w3.org/2000/svg" width="99" height="85" fill="none"><path stroke="#344F10" d="m75.118 14.41-5.14 3.708C56.109-.456 48.598-10.367 24.652 22.752l16.822 10.196c2.391-7.972 4.404-12.034 9.346-18.538l5.607 11.123-5.607 4.17c6.782.65 10.415.734 16.354 0 4.026-4.83 5.884-8.038 7.944-15.293ZM63.29 76.327l-.778-6.333c22.769-3.473 34.972-5.424 17.561-42.476L63.188 37.606c5.797 5.922 8.373 9.644 11.677 17.134l-12.349-.317-.958-6.97c-3.795 5.718-5.6 8.905-7.79 14.53 2.285 5.88 4.19 9.058 9.522 14.344ZM11.187 34.8l5.858 2.383C9.012 58.99 4.785 70.72 45.295 73.298l-.544-19.814c-7.937 2.252-12.407 2.723-20.492 2.012l6.262-10.76 6.496 2.533c-3.108-6.126-4.992-9.266-8.799-13.93-6.196-.83-9.87-.687-17.031 1.46Z"/></svg>