<svg xmlns="http://www.w3.org/2000/svg" width="15" height="35" fill="none"><path fill="#344F10" fill-opacity=".5" d="M11.126 31.15q0 .91-.322 1.638a2.96 2.96 0 0 1-.896 1.134q-.574.42-1.274.448v-1.652q.49-.042.826-.462.322-.435.322-1.078 0-.672-.252-1.036-.265-.378-.672-.378-.434 0-.644.42-.21.406-.462 1.302-.238.868-.462 1.414t-.686.952q-.462.392-1.218.392-.615 0-1.12-.364-.518-.364-.812-1.036-.294-.686-.294-1.568 0-1.316.672-2.114.658-.811 1.806-.868v1.596q-.517.042-.826.42t-.308 1.022q0 .63.238.966a.74.74 0 0 0 .63.336.68.68 0 0 0 .518-.224q.21-.224.336-.546.112-.322.294-.952.224-.84.462-1.372.224-.546.672-.938t1.19-.406q.658 0 1.176.364t.812 1.036q.294.659.294 1.554M3.16 22.482q0-.882.378-1.569.378-.7 1.12-1.091.742-.406 1.792-.406H11v1.581H6.688q-1.035 0-1.582.518-.56.518-.56 1.415 0 .896.56 1.428.546.517 1.582.517H11v1.596H.64v-1.596h3.542a2.7 2.7 0 0 1-.756-1.021 3.5 3.5 0 0 1-.266-1.372m7.966-8.448q0 1.092-.49 1.974a3.63 3.63 0 0 1-1.4 1.386q-.91.504-2.1.504-1.176 0-2.086-.518a3.6 3.6 0 0 1-1.4-1.414 4.1 4.1 0 0 1-.49-2.002q0-1.107.49-2.002a3.6 3.6 0 0 1 1.4-1.414q.91-.518 2.086-.518t2.086.532a3.7 3.7 0 0 1 1.414 1.456q.49.909.49 2.016m-1.386 0q0-.617-.294-1.148a2.23 2.23 0 0 0-.882-.882q-.588-.336-1.428-.336t-1.414.322q-.588.321-.882.854a2.34 2.34 0 0 0-.294 1.148q0 .615.294 1.148.294.517.882.826.574.308 1.414.308 1.246 0 1.932-.63.672-.645.672-1.61M4.42 6.856q-.532-.406-.896-1.106a3.4 3.4 0 0 1-.364-1.582q0-1.008.504-1.834.49-.84 1.386-1.316T7.108.542t2.086.476a3.6 3.6 0 0 1 1.428 1.316q.504.826.504 1.834 0 .882-.35 1.568-.364.685-.896 1.12h4.788v1.596H3.286V6.856zm2.688-4.69q-.799 0-1.372.336a2.14 2.14 0 0 0-.882.868 2.25 2.25 0 0 0-.308 1.148q0 .602.308 1.148.308.532.896.868.588.322 1.386.322t1.4-.322q.587-.336.896-.868.308-.546.308-1.148 0-.615-.308-1.148a2.3 2.3 0 0 0-.924-.868q-.602-.336-1.4-.336"/></svg>