<svg xmlns="http://www.w3.org/2000/svg" width="12" height="173" fill="none"><path fill="#344F10" fill-opacity=".5" d="M3.286 161.024 11 163.418v1.68l-5.698 1.554L11 168.206v1.68l-7.714 2.408v-1.624l6.202-1.61-6.202-1.638v-1.666l6.174-1.568-6.174-1.596zm-1.022-2.005a1 1 0 0 1-.294.728 1 1 0 0 1-.728.294 1 1 0 0 1-.728-.294 1 1 0 0 1-.294-.728q0-.42.294-.714a1 1 0 0 1 .728-.294q.435 0 .728.294a.97.97 0 0 1 .294.714m1.022-.784H11v1.596H3.286zm1.302-3.958h4.27q.435 0 .63-.196.182-.21.182-.7v-.98H11v1.26q0 1.079-.504 1.652-.504.574-1.638.574h-4.27v.91H3.286v-.91H1.368v-1.61h1.918v-1.876h1.302zm2.548-2.815q-1.19 0-2.086-.476a3.46 3.46 0 0 1-1.4-1.344q-.49-.853-.49-1.96 0-1.4.672-2.31.658-.924 1.89-1.246v1.722q-.574.21-.896.672t-.322 1.162q0 .98.7 1.568.685.574 1.932.574t1.946-.574q.7-.587.7-1.568 0-1.386-1.218-1.834v-1.722q1.177.336 1.876 1.26.686.924.686 2.296 0 1.107-.49 1.96a3.6 3.6 0 0 1-1.4 1.344q-.91.477-2.1.476M3.16 138.546q0-.882.378-1.568a2.63 2.63 0 0 1 1.12-1.092q.742-.406 1.792-.406H11v1.582H6.688q-1.035 0-1.582.518-.56.518-.56 1.414t.56 1.428q.546.518 1.582.518H11v1.596H.64v-1.596h3.542a2.7 2.7 0 0 1-.756-1.022 3.5 3.5 0 0 1-.266-1.372m7.966-12.085q0 1.092-.49 1.974a3.63 3.63 0 0 1-1.4 1.386q-.91.504-2.1.504-1.176 0-2.086-.518a3.57 3.57 0 0 1-1.4-1.414 4.1 4.1 0 0 1-.49-2.002q0-1.105.49-2.002a3.6 3.6 0 0 1 1.4-1.414q.91-.518 2.086-.518t2.086.532 1.414 1.456q.49.91.49 2.016m-1.386 0q0-.615-.294-1.148a2.23 2.23 0 0 0-.882-.882q-.588-.336-1.428-.336t-1.414.322a2.17 2.17 0 0 0-.882.854 2.34 2.34 0 0 0-.294 1.148q0 .617.294 1.148.294.519.882.826.574.308 1.414.308 1.246 0 1.932-.63.672-.644.672-1.61m-5.152-8.815v1.428H11v1.61H4.588v.91H3.286v-.91H2.74q-1.33 0-1.932-.7-.615-.714-.616-2.226h1.33q0 .728.28 1.022.266.294.938.294h.546v-1.428zM3.16 103.257q0-.91.378-1.624a2.67 2.67 0 0 1 1.12-1.134q.742-.42 1.792-.42H11v1.582H6.688q-1.035 0-1.582.518-.56.517-.56 1.414 0 .895.56 1.428.546.518 1.582.518H11v1.582H6.688q-1.035 0-1.582.518-.56.517-.56 1.414 0 .895.56 1.428.546.518 1.582.518H11v1.596H3.286v-1.596h.882a2.66 2.66 0 0 1-.742-.994 3.15 3.15 0 0 1-.266-1.288q0-.924.392-1.652.392-.729 1.134-1.12a2.56 2.56 0 0 1-1.106-1.092 3.2 3.2 0 0 1-.42-1.596m7.966-8.555q0 1.092-.49 1.974a3.63 3.63 0 0 1-1.4 1.386q-.91.504-2.1.504-1.176 0-2.086-.518a3.6 3.6 0 0 1-1.4-1.414 4.1 4.1 0 0 1-.49-2.002q0-1.107.49-2.002a3.6 3.6 0 0 1 1.4-1.414q.91-.518 2.086-.518t2.086.532a3.7 3.7 0 0 1 1.414 1.456q.49.909.49 2.016m-1.386 0q0-.617-.294-1.148a2.23 2.23 0 0 0-.882-.882q-.588-.336-1.428-.336t-1.414.322q-.588.321-.882.854a2.34 2.34 0 0 0-.294 1.148q0 .615.294 1.148.294.517.882.826.574.308 1.414.308 1.246 0 1.932-.63.672-.645.672-1.61M3.286 82.134H11v1.596h-.91q.476.378.756.994.266.601.266 1.288 0 .91-.378 1.638a2.8 2.8 0 0 1-1.12 1.134q-.742.405-1.792.406H3.286v-1.582h4.298q1.036 0 1.596-.518.546-.518.546-1.414t-.546-1.414q-.56-.532-1.596-.532H3.286zm-.126-5.998q0-.91.378-1.624a2.68 2.68 0 0 1 1.12-1.134q.742-.406 1.792-.406H11v1.582H6.688q-1.035 0-1.582.518-.56.519-.56 1.414t.56 1.428q.546.519 1.582.518H11v1.596H3.286v-1.596h.882a2.65 2.65 0 0 1-.742-.994 3.25 3.25 0 0 1-.266-1.302m1.428-7.062h4.27q.435 0 .63-.196.182-.21.182-.7v-.98H11v1.26q0 1.079-.504 1.652-.504.574-1.638.574h-4.27v.91H3.286v-.91H1.368v-1.61h1.918v-1.876h1.302zm2.52-2.815q-1.162 0-2.058-.476a3.56 3.56 0 0 1-1.89-3.164q0-.91.364-1.582.35-.685.882-1.092h-1.12v-1.61H11v1.61H9.852q.546.407.91 1.106t.364 1.596q0 .995-.504 1.82a3.74 3.74 0 0 1-1.428 1.316q-.924.477-2.086.476m.028-6.314q-.798 0-1.386.336-.588.323-.896.854a2.25 2.25 0 0 0-.308 1.148q0 .617.308 1.148.294.532.882.868.574.322 1.372.322t1.4-.322q.602-.336.924-.868a2.3 2.3 0 0 0 0-2.296 2.26 2.26 0 0 0-.896-.854q-.602-.336-1.4-.336m-4.872-4.518q0 .434-.294.728a1 1 0 0 1-.728.294 1 1 0 0 1-.728-.294 1 1 0 0 1-.294-.728q0-.42.294-.714a1 1 0 0 1 .728-.294q.435 0 .728.294a.97.97 0 0 1 .294.714m1.022-.784H11v1.596H3.286zm-.126-5.987q0-.91.378-1.624a2.68 2.68 0 0 1 1.12-1.134q.742-.406 1.792-.406H11v1.582H6.688q-1.035 0-1.582.518-.56.517-.56 1.414t.56 1.428q.546.518 1.582.518H11v1.596H3.286v-1.596h.882a2.65 2.65 0 0 1-.742-.994 3.25 3.25 0 0 1-.266-1.302m.126-19.197L11 31.853v1.68l-5.698 1.554L11 36.641v1.68L3.286 40.73v-1.624l6.202-1.61-6.202-1.638v-1.666l6.174-1.568-6.174-1.596zm-1.022-2.005q0 .434-.294.728a1 1 0 0 1-.728.294 1 1 0 0 1-.728-.294 1 1 0 0 1-.294-.728q0-.42.294-.714a1 1 0 0 1 .728-.294q.435 0 .728.294a.97.97 0 0 1 .294.714m1.022-.784H11v1.596H3.286zm-.126-5.987q0-.91.378-1.624a2.68 2.68 0 0 1 1.12-1.134q.742-.405 1.792-.406H11v1.582H6.688q-1.035 0-1.582.518-.56.518-.56 1.414t.56 1.428q.546.518 1.582.518H11v1.596H3.286v-1.596h.882a2.65 2.65 0 0 1-.742-.994 3.25 3.25 0 0 1-.266-1.302m3.948-4.668q-1.162 0-2.058-.476a3.56 3.56 0 0 1-1.89-3.178q0-.755.336-1.484.322-.742.868-1.176H.64v-1.61H11v1.61H9.838q.56.392.924 1.092.364.687.364 1.582 0 1.008-.504 1.848a3.74 3.74 0 0 1-1.428 1.316q-.924.476-2.086.476m.028-6.314q-.798 0-1.386.336-.588.323-.896.854a2.25 2.25 0 0 0-.308 1.148q0 .615.308 1.148.294.532.882.868.574.322 1.372.322t1.4-.322q.602-.336.924-.868.308-.546.308-1.148 0-.615-.308-1.148a2.26 2.26 0 0 0-.896-.854q-.602-.336-1.4-.336m3.99-6.506q0 .91-.322 1.638a2.96 2.96 0 0 1-.896 1.134q-.574.42-1.274.448V4.763q.49-.042.826-.462.322-.435.322-1.078 0-.672-.252-1.036-.265-.378-.672-.378-.434 0-.644.42-.21.406-.462 1.302-.238.868-.462 1.414t-.686.952q-.462.392-1.218.392-.615 0-1.12-.364-.518-.364-.812-1.036-.294-.686-.294-1.568 0-1.316.672-2.114Q4.49.396 5.638.339v1.596q-.517.042-.826.42t-.308 1.022q0 .63.238.966a.74.74 0 0 0 .63.336.68.68 0 0 0 .518-.224q.21-.224.336-.546.112-.322.294-.952.224-.84.462-1.372.224-.546.672-.938T8.844.24q.658 0 1.176.364t.812 1.036q.294.659.294 1.554"/></svg>