<svg xmlns="http://www.w3.org/2000/svg" width="82" height="62" fill="none"><path stroke="#344F10" d="M12.926 54.39H1v-2.034c.66-35.778 49.945-32.148 56-15.763 4.474-.23 5.925-.87 7.26-4.068 3.271-1.28 5.277-1.322 7.26 0 1.881-4.297 2.82-6.295 4.147-8.644h3.63l-3.63 10.678c10.847 14.696 2.922 19.153-4.148 19.83-4.874.158-9.252.149-14.519 0m-44.074 0c-1.648 2.581-1.739 4.032 0 6.611h27.482C47.61 59.73 51.276 58.348 57 54.39m-44.075 0h44.075"/><path stroke="#344F10" d="M12.407 29.983 15 23.373m0 0L9.814 12.186M15 23.373l7.259 2.034 4.667-5.593M9.814 12.186l2.593-7.118m-2.593 7.118 7.778-2.542m9.334 10.17V9.644m0 10.17 6.74 5.084m-6.74-15.254 5.185-7.119m-5.185 7.119h7.778M69.445 39.644l2.334 2.797m2.333 2.796-2.333-2.796m0 0 2.333-2.797m-2.333 2.797-3.37 2.796M43 38.12H33.15v5.593H43v4.576H19.148V32.017l24.89 1.017zM64.26 32.526l1.728-8.136h3.457V31.7M67.37 16.763c1.148-1.697.561-2.58-2.073-4.068-.833-1.585-.127-2.475 2.074-4.068.808-1.45.271-2.356-2.074-4.068-.565-1.78-.122-2.543 2.074-3.559M77.223 17.271c.944-1.785.67-2.787-2.074-4.576-.573-1.187-.327-2.02 2.074-4.068.095-1.587-.121-2.475-2.074-4.068-.08-1.843.267-2.68 2.074-3.559M36.26 38.627v5.085M13.963 39.644l-4.149 6.61M50.278 39.644a1.04 1.04 0 0 1-1.055 1.026 1.04 1.04 0 0 1-1.056-1.026 1.04 1.04 0 0 1 1.056-1.025 1.04 1.04 0 0 1 1.055 1.025Z"/></svg>