<svg width="82" height="62" viewBox="0 0 82 62" fill="none" xmlns="http://www.w3.org/2000/svg">
<path d="M12.926 54.3915H1V52.3576C1.65999 16.5793 50.9445 20.2101 57.0005 36.5949C61.4742 36.3643 62.9252 35.7246 64.2599 32.5271C67.5312 31.2475 69.5367 31.205 71.5192 32.5271C73.4014 28.2296 74.3397 26.2316 75.6674 23.8831H79.2971L75.6674 34.561C86.5141 49.2565 78.5886 53.7141 71.5192 54.3915C66.6453 54.5486 62.2674 54.5395 57.0005 54.3915M12.926 54.3915C11.2776 56.9719 11.1872 58.4224 12.926 61.0017H40.4078C47.6096 59.7324 51.2758 58.3493 57.0005 54.3915M12.926 54.3915H57.0005" stroke="#344F10"/>
<path d="M12.4076 29.9847L15.0002 23.3746M15.0002 23.3746L9.81494 12.1881M15.0002 23.3746L22.2595 25.4085L26.9262 19.8152M9.81494 12.1881L12.4076 5.06947M9.81494 12.1881L17.5928 9.64574M26.9262 19.8152V9.64574M26.9262 19.8152L33.667 24.9M26.9262 9.64574L32.1115 2.5271M26.9262 9.64574H34.7041" stroke="#344F10"/>
<path d="M69.4452 39.6457L71.7786 42.4423M74.1119 45.2389L71.7786 42.4423M71.7786 42.4423L74.1119 39.6457M71.7786 42.4423L68.4082 45.2389M43.0005 38.1203H33.1486V43.7135H43.0005V48.2897H19.1484V32.0186L44.0376 33.0355L43.0005 38.1203Z" stroke="#344F10"/>
<path d="M64.2598 32.5272L65.9882 24.3916H69.445V31.7032" stroke="#344F10"/>
<path d="M67.3709 16.7644C68.5184 15.068 67.9314 14.1843 65.2969 12.6966C64.4644 11.1119 65.1695 10.222 67.3709 8.62883C68.1791 7.17901 67.6422 6.27282 65.2969 4.56103C64.7322 2.78147 65.1748 2.01803 67.3709 1.00171" stroke="#344F10"/>
<path d="M77.2228 17.2729C78.1674 15.4873 77.8937 14.4855 75.1487 12.6966C74.5763 11.5096 74.8224 10.6765 77.2228 8.62883C77.3179 7.0417 77.1016 6.15406 75.1487 4.56103C75.0688 2.71801 75.4162 1.88142 77.2228 1.00171" stroke="#344F10"/>
<path d="M36.2598 38.6289V43.7137" stroke="#344F10"/>
<path d="M13.9631 39.6458L9.81494 46.2559" stroke="#344F10"/>
<path d="M50.2781 39.6458C50.2781 40.2029 49.8148 40.6712 49.2226 40.6712C48.6303 40.6712 48.167 40.2029 48.167 39.6458C48.167 39.0886 48.6303 38.6204 49.2226 38.6204C49.8148 38.6204 50.2781 39.0886 50.2781 39.6458Z" stroke="#344F10"/>
</svg>
