<svg width="82" height="77" viewBox="0 0 82 77" fill="none" xmlns="http://www.w3.org/2000/svg">
<path d="M45.1683 75.938L42.2043 70.4283M15.8243 21.3915L23.2344 35.1659M23.2344 35.1659L26.6353 23.5954M23.2344 35.1659L11.7059 31.86M23.2344 35.1659L29.7553 47.2873M29.7553 47.2873L34.3574 29.6561M29.7553 47.2873L14.2799 42.8795M29.7553 47.2873L37.4618 61.6127M37.4618 61.6127L43.6239 38.4717M37.4618 61.6127L15.8243 55.5519M37.4618 61.6127L42.2043 70.4283M42.2043 70.4283C64.583 40.8032 68.2819 24.8604 6.04297 1.5564" stroke="#344F10"/>
<path d="M6.02918 1.00171C-7.9954 67.9341 8.35849 71.5286 42.08 70.4287M55.9796 48.3897L58.0388 45.1686M69.3646 27.4526L62.6721 37.9211M62.6721 37.9211H71.4238M62.6721 37.9211L60.0981 29.6565M62.6721 37.9211L58.0388 45.1686M58.0388 45.1686H69.3646M58.0388 45.1686L52.3759 55.5523L65.7609 56.6543" stroke="#344F10"/>
<path d="M44.6543 67.1225C75.9058 66.687 87.7539 60.0399 77.2709 13.2134" stroke="#344F10"/>
<path d="M77.6014 13.6782C66.3007 16.2945 60.4287 18.5387 52.8906 27.4526" stroke="#344F10"/>
</svg>
