<svg version="1.2" xmlns="http://www.w3.org/2000/svg" viewBox="0 0 57 33" width="57" height="33">
	<title>Group 15</title>
	<style>
		.s0 { fill: #344f10 } 
	</style>
	<path id="Layer" fill-rule="evenodd" class="s0" d="m-15.5 56.4q0-1.6 0.7-2.9 0.8-1.3 2-2.1 1.3-0.7 2.9-0.7 1.8 0 3.1 0.9 1.4 0.9 2 2.5h-1.7q-0.5-1-1.4-1.6-0.8-0.5-2-0.5-1.2 0-2.1 0.5-1 0.6-1.5 1.6-0.5 1-0.5 2.3 0 1.3 0.5 2.4 0.5 0.9 1.5 1.5 0.9 0.5 2.1 0.5 1.2 0 2-0.5 0.9-0.5 1.4-1.5h1.7q-0.6 1.6-2 2.4-1.3 0.9-3.1 0.9-1.6 0-2.9-0.7-1.2-0.8-2-2.1-0.7-1.3-0.7-2.9zm14.3-1.7q0.4-0.8 1.1-1.2 0.8-0.4 1.8-0.4v1.5h-0.4q-2.5 0-2.5 2.6v4.8h-1.4v-8.8h1.4zm12.6 2.7q0 0.4-0.1 0.8h-7q0.1 1.3 0.9 2.1 0.8 0.7 1.9 0.7 1 0 1.6-0.4 0.7-0.5 0.9-1.2h1.6q-0.4 1.2-1.4 2-1.1 0.8-2.7 0.8-1.2 0-2.2-0.5-1-0.6-1.5-1.6-0.6-1.1-0.6-2.4 0-1.4 0.6-2.4 0.5-1 1.5-1.6 1-0.5 2.2-0.5 1.3 0 2.3 0.5 0.9 0.6 1.4 1.5 0.6 1 0.6 2.2zm-1.5-0.3q0-0.9-0.4-1.5-0.4-0.6-1-0.9-0.6-0.3-1.4-0.3-1.1 0-1.9 0.7-0.8 0.7-0.9 2zm2.9 0.6q0-1.4 0.5-2.4 0.6-1 1.5-1.6 1-0.5 2.2-0.5 1 0 1.9 0.4 0.9 0.5 1.3 1.3v-4.7h1.5v11.9h-1.5v-1.7q-0.4 0.8-1.3 1.3-0.8 0.5-1.9 0.5-1.2 0-2.2-0.6-0.9-0.5-1.5-1.6-0.5-1-0.5-2.3zm7.4 0q0-1-0.4-1.8-0.4-0.7-1.1-1.1-0.6-0.4-1.5-0.4-0.8 0-1.4 0.4-0.7 0.4-1.1 1.1-0.4 0.8-0.4 1.8 0 1 0.4 1.7 0.4 0.8 1.1 1.2 0.6 0.3 1.4 0.3 0.9 0 1.5-0.3 0.7-0.4 1.1-1.2 0.4-0.7 0.4-1.7zm4.7-5.8q-0.4 0-0.7-0.3-0.3-0.3-0.3-0.7 0-0.4 0.3-0.7 0.3-0.3 0.7-0.3 0.4 0 0.7 0.3 0.3 0.3 0.3 0.7 0 0.4-0.3 0.7-0.3 0.3-0.7 0.3zm-0.7 1.4h1.4v8.8h-1.4zm5.7 1.2v5.1q0 0.7 0.2 1 0.3 0.2 1 0.2h1.1v1.2h-1.4q-1.2 0-1.8-0.5-0.6-0.6-0.6-1.9v-5.1h-1.1v-1.2h1.1v-2.2h1.5v2.2h2.3v1.2zm7.7 3.1q0-1.3 0.6-2.3 0.5-1 1.5-1.6 1-0.6 2.2-0.6 1.6 0 2.7 0.8 1 0.8 1.4 2.2h-1.6q-0.2-0.8-0.9-1.3-0.6-0.4-1.6-0.4-1.2 0-2 0.8-0.8 0.9-0.8 2.4 0 1.6 0.8 2.5 0.8 0.9 2 0.9 1 0 1.6-0.5 0.6-0.4 0.9-1.3h1.6q-0.4 1.4-1.5 2.2-1 0.8-2.6 0.8-1.2 0-2.2-0.6-1-0.5-1.5-1.6-0.6-1-0.6-2.4zm9.7 0q0-1.3 0.6-2.3 0.5-1 1.5-1.6 0.9-0.6 2.1-0.6 1.2 0 2 0.5 0.9 0.5 1.3 1.3v-1.6h1.4v8.7h-1.4v-1.6q-0.5 0.8-1.3 1.3-0.9 0.5-2 0.5-1.2 0-2.1-0.6-1-0.6-1.5-1.6-0.6-1-0.6-2.4zm7.5 0q0-0.9-0.4-1.7-0.4-0.7-1.1-1.1-0.7-0.4-1.5-0.4-0.8 0-1.5 0.4-0.7 0.4-1.1 1.1-0.4 0.7-0.4 1.7 0 1 0.4 1.8 0.4 0.7 1.1 1.1 0.7 0.4 1.5 0.4 0.8 0 1.5-0.4 0.7-0.4 1.1-1.1 0.4-0.8 0.4-1.8zm5.4-2.9q0.3-0.8 1-1.2 0.8-0.4 1.8-0.4v1.5h-0.4q-2.4 0-2.4 2.7v4.7h-1.5v-8.7h1.5zm3.9 2.9q0-1.3 0.6-2.3 0.5-1.1 1.5-1.6 0.9-0.6 2.1-0.6 1 0 1.9 0.5 0.9 0.5 1.4 1.2v-4.6h1.4v11.8h-1.4v-1.6q-0.5 0.8-1.3 1.3-0.9 0.5-2 0.5-1.2 0-2.1-0.6-1-0.6-1.5-1.6-0.6-1.1-0.6-2.4zm7.5 0q0-1-0.4-1.7-0.4-0.7-1.1-1.1-0.7-0.4-1.5-0.4-0.8 0-1.5 0.4-0.7 0.3-1.1 1.1-0.4 0.7-0.4 1.7 0 1 0.4 1.8 0.4 0.7 1.1 1.1 0.7 0.4 1.5 0.4 0.8 0 1.5-0.4 0.7-0.4 1.1-1.1 0.4-0.8 0.4-1.8z"/>
	<path id="Layer" fill-rule="evenodd" class="s0" d="m1 4c0-1.7 1.3-3 3-3h49c1.7 0 3 1.3 3 3v25c0 1.7-1.3 3-3 3h-49c-1.7 0-3-1.3-3-3zm1 25c0 1.1 0.9 2 2 2h49c1.1 0 2-0.9 2-2v-25c0-1.1-0.9-2-2-2h-49c-1.1 0-2 0.9-2 2zm4-20c0-1.7 1.3-3 3-3h5c1.7 0 3 1.3 3 3v2c0 1.7-1.3 3-3 3h-5c-1.7 0-3-1.3-3-3zm1 2c0 1.1 0.9 2 2 2h5c1.1 0 2-0.9 2-2v-2c0-1.1-0.9-2-2-2h-5c-1.1 0-2 0.9-2 2zm-1 7c0-0.6 0.4-1 1-1h42c0.6 0 1 0.4 1 1v2c0 0.6-0.4 1-1 1h-42c-0.6 0-1-0.4-1-1zm1 2h42v-2h-42zm36 3c0-0.6 0.4-1 1-1h5c0.6 0 1 0.4 1 1v2c0 0.6-0.4 1-1 1h-5c-0.6 0-1-0.4-1-1zm1 2h5v-2h-5zm-38 0c0-0.6 0.4-1 1-1h13c0.6 0 1 0.4 1 1v2c0 0.6-0.4 1-1 1h-13c-0.6 0-1-0.4-1-1zm1 2h13v-2h-13z"/>
</svg>