<svg width="55" height="31" viewBox="0 0 55 31" fill="none" xmlns="http://www.w3.org/2000/svg">
<path fill-rule="evenodd" clip-rule="evenodd" d="M52 1H3C1.89543 1 1 1.89543 1 3V28C1 29.1046 1.89543 30 3 30H52C53.1046 30 54 29.1046 54 28V3C54 1.89543 53.1046 1 52 1ZM3 0C1.34315 0 0 1.34315 0 3V28C0 29.6569 1.34315 31 3 31H52C53.6569 31 55 29.6569 55 28V3C55 1.34315 53.6569 0 52 0H3ZM13 6H8C6.89543 6 6 6.89543 6 8V10C6 11.1046 6.89543 12 8 12H13C14.1046 12 15 11.1046 15 10V8C15 6.89543 14.1046 6 13 6ZM8 5C6.34315 5 5 6.34315 5 8V10C5 11.6569 6.34315 13 8 13H13C14.6569 13 16 11.6569 16 10V8C16 6.34315 14.6569 5 13 5H8ZM6 17H48V19H6L6 17ZM5 17C5 16.4477 5.44772 16 6 16H48C48.5523 16 49 16.4477 49 17V19C49 19.5523 48.5523 20 48 20H6C5.44771 20 5 19.5523 5 19V17ZM48 22H43V24H48V22ZM43 21C42.4477 21 42 21.4477 42 22V24C42 24.5523 42.4477 25 43 25H48C48.5523 25 49 24.5523 49 24V22C49 21.4477 48.5523 21 48 21H43ZM6 24H19V26H6V24ZM5 24C5 23.4477 5.44772 23 6 23H19C19.5523 23 20 23.4477 20 24V26C20 26.5523 19.5523 27 19 27H6C5.44772 27 5 26.5523 5 26V24Z" fill="#333333"/>
</svg>
