<svg width="18" height="20" viewBox="0 0 18 20" fill="none" xmlns="http://www.w3.org/2000/svg">
<path d="M9.00001 0.25C6.94051 0.25 5.25001 1.9405 5.25001 4V4.75H1.54651L1.50001 5.4535L0.750009 18.9535L0.702759 19.75H17.2965L17.25 18.9528L16.5 5.45275L16.4528 4.75H12.75V4C12.75 1.9405 11.0595 0.25 9.00001 0.25ZM9.00001 1.75C9.59675 1.75 10.169 1.98705 10.591 2.40901C11.013 2.83097 11.25 3.40326 11.25 4V4.75H6.75001V4C6.75001 3.40326 6.98706 2.83097 7.40902 2.40901C7.83098 1.98705 8.40327 1.75 9.00001 1.75ZM2.95276 6.25H5.25001V8.5H6.75001V6.25H11.25V8.5H12.75V6.25H15.0473L15.7035 18.25H2.29726L2.95276 6.25Z" fill="#344F10"/>
</svg>
