<svg version="1.2" xmlns="http://www.w3.org/2000/svg" viewBox="0 0 12 13" width="12" height="13">
	<title>copyright-svg</title>
	<style>
		.s0 { fill: #e4dfd3 } 
	</style>
	<path id="Layer" fill-rule="evenodd" class="s0" d="m-89.3 6.7q0-1.8 0.8-3.3 0.9-1.4 2.3-2.2 1.5-0.9 3.3-0.9 2 0 3.5 1 1.6 1 2.3 2.8h-2.5q-0.5-1-1.3-1.5-0.9-0.5-2-0.5-1.3 0-2.3 0.6-0.9 0.5-1.5 1.6-0.5 1-0.5 2.4 0 1.4 0.5 2.4 0.6 1.1 1.5 1.7 1 0.5 2.3 0.5 1.1 0 2-0.5 0.8-0.4 1.3-1.4h2.5q-0.7 1.8-2.3 2.7-1.5 1-3.5 1-1.8 0-3.3-0.8-1.4-0.8-2.3-2.3-0.8-1.4-0.8-3.3zm18.9 6.5q-1.4 0-2.6-0.7-1.1-0.6-1.7-1.8-0.7-1.1-0.7-2.7 0-1.5 0.7-2.7 0.6-1.1 1.8-1.7 1.1-0.7 2.6-0.7 1.4 0 2.5 0.7 1.2 0.6 1.9 1.7 0.6 1.2 0.6 2.7 0 1.5-0.7 2.7-0.6 1.2-1.8 1.8-1.2 0.7-2.6 0.7zm0-1.8q0.8 0 1.4-0.4 0.8-0.4 1.2-1.1 0.4-0.8 0.4-1.9 0-1-0.4-1.8-0.4-0.7-1.1-1.1-0.7-0.4-1.5-0.4-0.8 0-1.4 0.4-0.7 0.4-1.1 1.1-0.4 0.8-0.4 1.8 0 1.6 0.8 2.5 0.8 0.9 2.1 0.9zm9.2-6.9q0.5-0.6 1.4-1.1 0.9-0.5 2.1-0.5 1.3 0 2.3 0.7 1.1 0.6 1.7 1.7 0.6 1.2 0.6 2.7 0 1.5-0.6 2.7-0.6 1.1-1.7 1.8-1 0.7-2.3 0.7-1.2 0-2.1-0.5-0.8-0.5-1.4-1.1v6.1h-2v-14.6h2zm6 3.4q0-1-0.4-1.7-0.4-0.8-1.1-1.2-0.7-0.4-1.5-0.4-0.8 0-1.5 0.4-0.7 0.4-1.1 1.2-0.4 0.7-0.4 1.8 0 1 0.4 1.8 0.4 0.7 1.1 1.1 0.7 0.4 1.5 0.4 0.8 0 1.5-0.4 0.7-0.4 1.1-1.2 0.4-0.7 0.4-1.8zm13.1-4.9l-6.1 14.6h-2.1l2-4.8-3.9-9.8h2.3l2.8 7.6 2.9-7.6zm3.6 1.5q0.4-0.8 1.1-1.2 0.8-0.4 1.8-0.4v2.1h-0.5q-1.2 0-1.8 0.6-0.6 0.6-0.6 2.1v5.2h-2.1v-9.9h2.1zm5.9-2.7q-0.6 0-1-0.4-0.4-0.4-0.4-0.9 0-0.6 0.4-1 0.4-0.4 1-0.4 0.5 0 0.9 0.4 0.4 0.4 0.4 1 0 0.5-0.4 0.9-0.4 0.4-0.9 0.4zm-1.1 1.3h2.1v9.9h-2.1zm8.8-0.2q1.1 0 2 0.5 0.9 0.5 1.4 1.1v-1.4h2.1v10.1q0 1.4-0.6 2.4-0.6 1.1-1.7 1.7-1.1 0.6-2.6 0.6-2 0-3.3-0.9-1.4-1-1.5-2.6h2q0.2 0.8 1 1.2 0.8 0.5 1.8 0.5 1.3 0 2-0.7 0.8-0.8 0.8-2.2v-1.7q-0.5 0.7-1.4 1.2-0.9 0.5-2 0.5-1.3 0-2.4-0.7-1.1-0.6-1.7-1.8-0.6-1.2-0.6-2.7 0-1.5 0.6-2.6 0.6-1.2 1.7-1.8 1.1-0.7 2.4-0.7zm3.4 5.2q0-1.1-0.4-1.8-0.5-0.8-1.1-1.2-0.7-0.4-1.5-0.4-0.8 0-1.5 0.4-0.7 0.4-1.1 1.2-0.4 0.7-0.4 1.7 0 1 0.4 1.8 0.4 0.8 1.1 1.2 0.7 0.4 1.5 0.4 0.8 0 1.5-0.4 0.6-0.4 1.1-1.1 0.4-0.8 0.4-1.8zm9.9-5.2q1.1 0 2 0.5 0.9 0.5 1.4 1.5 0.5 0.9 0.5 2.3v5.8h-2v-5.5q0-1.4-0.7-2.1-0.6-0.7-1.8-0.7-1.1 0-1.8 0.7-0.7 0.7-0.7 2.1v5.5h-2v-13.3h2v4.6q0.5-0.7 1.3-1 0.8-0.4 1.8-0.4zm8.9 1.9v5.5q0 0.5 0.3 0.8 0.3 0.2 0.9 0.2h1.3v1.7h-1.7q-1.4 0-2.1-0.6-0.7-0.7-0.7-2.1v-5.5h-1.2v-1.7h1.2v-2.5h2v2.5h2.5v1.7z"/>
	<path id="Layer" fill-rule="evenodd" class="s0" d="m6.9 1.2c0.6 0.1 1.2 0.4 1.7 0.7q1.2 0.8 1.8 2.2 0.6 1.3 0.5 2.8c-0.1 0.8-0.4 1.6-0.9 2.3q-0.7 1.1-1.9 1.7c-0.7 0.4-1.2 0.5-2 0.6-0.1 0-0.7 0-0.9 0-0.4-0.1-0.7-0.1-1.1-0.3-1-0.3-1.9-0.9-2.5-1.7-0.5-0.7-0.9-1.5-1-2.3-0.1-0.3-0.1-0.6-0.1-0.9 0-0.4 0-0.5 0-0.7 0.2-1 0.6-2 1.2-2.8 0.2-0.1 0.5-0.4 0.6-0.5q0.5-0.5 1.1-0.7c0.7-0.4 1.4-0.5 2.1-0.6 0.4 0 1 0 1.4 0.2zm-1.4 0.7c-0.6 0-1.1 0.2-1.6 0.4q-1.4 0.6-2.1 2.1-0.6 1.2-0.4 2.4c0.1 0.7 0.4 1.5 0.9 2.1q0.6 0.9 1.6 1.3c0.4 0.2 0.8 0.4 1.4 0.4 0.1 0 0.5 0 0.7 0 0.6 0 1.1-0.2 1.6-0.4 0.5-0.2 0.8-0.5 1.1-0.8 0.7-0.6 1.2-1.6 1.3-2.6q0.2-1.4-0.6-2.8c-0.4-0.8-1.1-1.4-2.1-1.8q-0.6-0.3-1.3-0.3c-0.1 0-0.4 0-0.5 0z"/>
	<path id="Layer" class="s0" d="m5.7 3.1c0.2 0 0.4 0 0.5 0 0.8 0.2 1.5 0.7 1.9 1.4 0.1 0.1 0.1 0.1 0.1 0.1 0 0-0.2 0.1-0.4 0.2-0.2 0.2-0.4 0.3-0.5 0.3v-0.1q-0.1-0.2-0.3-0.4-0.3-0.2-0.6-0.3c-0.5-0.3-1.2-0.3-1.7 0.1q-0.4 0.3-0.7 0.8c-0.2 0.3-0.2 0.7-0.2 1.1 0 0.4 0 0.7 0.2 1 0.2 0.6 0.7 1 1.3 1.1 0.6 0.2 1.2 0 1.7-0.5q0.3-0.3 0.5-0.7 0-0.1 0-0.1c0 0 0.2 0.1 0.4 0.1 0.3 0.1 0.5 0.2 0.5 0.2v0.1c0 0.1-0.1 0.3-0.2 0.5-0.2 0.3-0.4 0.5-0.6 0.7q-0.7 0.7-1.7 0.8c-0.1 0-0.4 0-0.6 0q-0.9-0.2-1.6-0.9-0.8-0.7-0.9-1.9c0-0.1 0-0.2 0-0.4 0-0.3 0-0.4 0-0.6 0.2-1 0.8-1.9 1.6-2.3 0.4-0.2 0.7-0.3 1.1-0.3 0 0 0.1 0 0.2 0z"/>
	<path id="Layer" fill-rule="evenodd" class="s0" d="m21.2 10.2q1.7-1.5 2.7-2.4 1-1 1.7-2.1 0.7-1 0.7-2 0-1.1-0.5-1.7-0.6-0.6-1.7-0.6-1 0-1.6 0.6-0.6 0.7-0.6 1.8h-2q0.1-2 1.2-3.1 1.2-1.1 3-1.1 2 0 3.1 1.1 1.1 1.1 1.1 2.9 0 1.3-0.7 2.5-0.6 1.2-1.5 2.1-0.9 0.9-2.3 2.2l-0.8 0.7h5.7v1.7h-8.8v-1.5zm9.3-3.9q0-3.1 1-4.9 1.1-1.7 3.7-1.7 2.5 0 3.6 1.7 1 1.8 1 4.9 0 3.1-1 4.9-1.1 1.8-3.6 1.8-2.6 0-3.7-1.8-1-1.8-1-4.9zm7.3 0q0-1.5-0.2-2.5-0.2-1-0.7-1.6-0.6-0.7-1.7-0.7-1.2 0-1.8 0.7-0.5 0.6-0.7 1.6-0.2 1-0.2 2.5 0 1.5 0.2 2.5 0.1 1 0.7 1.7 0.6 0.6 1.8 0.6 1.1 0 1.7-0.6 0.6-0.7 0.7-1.7 0.2-1 0.2-2.5zm3.9-4.5v-1.9h3.8v13.1h-2.1v-11.2zm9.1 7.7q0.2 0.9 0.8 1.3 0.6 0.5 1.6 0.5 1.3 0 1.9-1 0.6-1 0.6-3.5-0.5 0.7-1.3 1-0.7 0.3-1.6 0.3-1.2 0-2.2-0.4-0.9-0.5-1.5-1.5-0.5-0.9-0.5-2.3 0-2 1.1-3.1 1.2-1.2 3.2-1.2 2.5 0 3.5 1.6 1.1 1.6 1.1 5 0 2.3-0.4 3.8-0.4 1.5-1.4 2.2-0.9 0.8-2.6 0.8-1.9 0-3-1-1-1-1.2-2.5zm2.3-3.1q1.1 0 1.7-0.7 0.6-0.7 0.6-1.8 0-1.2-0.6-1.9-0.7-0.7-1.8-0.7-1.1 0-1.8 0.7-0.7 0.7-0.7 1.9 0 1.1 0.7 1.8 0.6 0.7 1.9 0.7zm27.8-5.9l-3.7 12.5h-2.3l-2.6-9.5-2.8 9.5h-2.3l-3.6-12.5h2.2l2.6 10.2 2.8-10.2h2.3l2.6 10.1 2.6-10.1zm2.8 1.3q-0.6 0-1-0.4-0.3-0.4-0.3-0.9 0-0.6 0.3-1 0.4-0.3 1-0.3 0.5 0 0.9 0.3 0.4 0.4 0.4 1 0 0.5-0.4 0.9-0.4 0.4-0.9 0.4zm-1.1 1.3h2.1v9.9h-2.1zm7.2 1.7v5.5q0 0.5 0.2 0.8 0.3 0.2 0.9 0.2h1.3v1.7h-1.6q-1.4 0-2.2-0.6-0.7-0.7-0.7-2.1v-5.5h-1.2v-1.7h1.2v-2.5h2.1v2.5h2.4v1.7zm3.6 3.3q0-1.6 0.6-2.7 0.7-1.2 1.8-1.8 1-0.6 2.5-0.6 1.8 0 2.9 0.8 1.2 0.9 1.6 2.4h-2.2q-0.2-0.7-0.8-1.1-0.6-0.4-1.5-0.4-1.3 0-2 0.9-0.8 0.9-0.8 2.5 0 1.6 0.8 2.5 0.7 0.9 2 0.9 1.8 0 2.3-1.6h2.2q-0.4 1.5-1.6 2.4-1.2 0.9-2.9 0.9-1.5 0-2.5-0.6-1.1-0.7-1.8-1.8-0.6-1.2-0.6-2.7zm16.6-5.1q1.2 0 2 0.4 0.9 0.5 1.4 1.5 0.6 0.9 0.6 2.3v5.8h-2.1v-5.5q0-1.3-0.6-2-0.7-0.8-1.9-0.8-1.1 0-1.8 0.8-0.7 0.7-0.7 2v5.5h-2v-13.3h2v4.6q0.6-0.7 1.4-1 0.8-0.3 1.7-0.3zm17 10.2q-1.8 0-3.3-0.8-1.4-0.9-2.3-2.3-0.8-1.5-0.8-3.3 0-1.9 0.8-3.3 0.9-1.5 2.3-2.3 1.5-0.8 3.3-0.8 1.7 0 3.2 0.8 1.5 0.8 2.3 2.3 0.8 1.4 0.8 3.3 0 1.8-0.8 3.3-0.8 1.4-2.3 2.3-1.5 0.8-3.2 0.8zm0-1.8q1.2 0 2.2-0.6 0.9-0.6 1.5-1.6 0.5-1.1 0.5-2.4 0-1.4-0.5-2.5-0.6-1-1.5-1.6-1-0.5-2.2-0.5-1.3 0-2.3 0.5-0.9 0.6-1.5 1.6-0.5 1.1-0.5 2.5 0 1.3 0.5 2.4 0.6 1 1.5 1.6 1 0.6 2.3 0.6zm12.5-6.6h-1.8v8.2h-2.1v-8.2h-1.1v-1.7h1.1v-0.7q0-1.7 0.9-2.5 0.9-0.8 2.9-0.8v1.7q-1 0-1.3 0.4-0.4 0.4-0.4 1.2v0.7h1.8zm19.7-4.2v12.5h-2.1v-8.6l-3.8 8.6h-1.4l-3.8-8.6v8.6h-2.1v-12.5h2.2l4.4 9.8 4.4-9.8zm7 12.6q-1.4 0-2.5-0.6-1.2-0.7-1.8-1.8-0.7-1.2-0.7-2.7 0-1.5 0.7-2.7 0.7-1.2 1.8-1.8 1.2-0.6 2.6-0.6 1.4 0 2.6 0.6 1.1 0.6 1.8 1.8 0.6 1.2 0.6 2.7 0 1.5-0.6 2.7-0.7 1.1-1.9 1.8-1.2 0.6-2.6 0.6zm0-1.8q0.8 0 1.5-0.3 0.7-0.4 1.1-1.2 0.4-0.7 0.4-1.8 0-1.1-0.4-1.8-0.4-0.8-1.1-1.2-0.7-0.3-1.4-0.3-0.8 0-1.5 0.3-0.7 0.4-1.1 1.2-0.4 0.7-0.4 1.8 0 1.6 0.8 2.5 0.9 0.8 2.1 0.8zm16.2-8.3v10h-2.1v-1.2q-0.5 0.6-1.3 1-0.7 0.3-1.6 0.3-1.2 0-2.1-0.5-1-0.5-1.5-1.4-0.5-1-0.5-2.3v-5.9h2v5.6q0 1.3 0.7 2 0.7 0.7 1.8 0.7 1.2 0 1.8-0.7 0.7-0.7 0.7-2v-5.6zm7.7-0.1q1.2 0 2.1 0.5 0.9 0.5 1.5 1.4 0.5 1 0.5 2.3v5.9h-2v-5.6q0-1.3-0.7-2-0.7-0.7-1.8-0.7-1.2 0-1.9 0.7-0.6 0.7-0.6 2v5.6h-2.1v-10h2.1v1.2q0.5-0.6 1.2-1 0.8-0.3 1.7-0.3zm9.1 1.8v5.5q0 0.6 0.2 0.8 0.3 0.3 0.9 0.3h1.3v1.7h-1.6q-1.4 0-2.1-0.7-0.8-0.6-0.8-2.1v-5.5h-1.1v-1.7h1.1v-2.4h2.1v2.4h2.4v1.7zm3.6 3.3q0-1.5 0.6-2.7 0.7-1.1 1.7-1.8 1.1-0.6 2.4-0.6 1.2 0 2 0.4 0.9 0.5 1.4 1.2v-1.5h2.1v10h-2.1v-1.5q-0.5 0.7-1.4 1.2-0.9 0.4-2 0.4-1.3 0-2.4-0.6-1-0.7-1.7-1.9-0.6-1.1-0.6-2.6zm8.1 0q0-1-0.4-1.8-0.4-0.7-1.1-1.1-0.7-0.4-1.5-0.4-0.8 0-1.4 0.4-0.7 0.3-1.2 1.1-0.4 0.7-0.4 1.8 0 1 0.4 1.8 0.5 0.7 1.2 1.1 0.7 0.4 1.4 0.4 0.8 0 1.5-0.4 0.7-0.4 1.1-1.1 0.4-0.8 0.4-1.8zm5.9-6.3q-0.6 0-1-0.3-0.4-0.4-0.4-1 0-0.5 0.4-0.9 0.4-0.4 1-0.4 0.5 0 0.9 0.4 0.4 0.4 0.4 0.9 0 0.6-0.4 1-0.4 0.3-0.9 0.3zm-1.1 1.3h2.1v10h-2.1zm9.8-0.2q1.1 0 2 0.5 1 0.5 1.5 1.4 0.5 1 0.5 2.3v5.9h-2v-5.6q0-1.3-0.7-2-0.6-0.7-1.8-0.7-1.1 0-1.8 0.7-0.7 0.7-0.7 2v5.6h-2v-9.9h2v1.1q0.5-0.6 1.3-1 0.8-0.3 1.7-0.3zm27.6-2.4l-3.7 12.5h-2.3l-2.6-9.5-2.8 9.5h-2.3l-3.6-12.5h2.2l2.6 10.2 2.8-10.2h2.3l2.6 10.1 2.6-10.1zm2.8 1.2q-0.6 0-1-0.3-0.4-0.4-0.4-1 0-0.5 0.4-0.9 0.4-0.4 1-0.4 0.5 0 0.9 0.4 0.3 0.4 0.3 0.9 0 0.6-0.3 1-0.4 0.3-0.9 0.3zm-1.1 1.4h2.1v9.9h-2.1zm9.8-0.2q1.1 0 2 0.5 1 0.5 1.5 1.4 0.5 1 0.5 2.3v5.9h-2v-5.5q0-1.4-0.7-2.1-0.6-0.7-1.8-0.7-1.1 0-1.8 0.7-0.7 0.7-0.7 2.1v5.5h-2v-9.9h2v1.1q0.5-0.6 1.3-0.9 0.8-0.4 1.7-0.4zm6 5.1q0-1.5 0.6-2.7 0.6-1.1 1.7-1.7 1-0.7 2.4-0.7 0.9 0 1.9 0.4 0.9 0.5 1.5 1.2v-4.8h2v13.3h-2v-1.5q-0.5 0.7-1.4 1.2-0.9 0.5-2.1 0.5-1.3 0-2.3-0.7-1.1-0.7-1.7-1.8-0.6-1.2-0.6-2.7zm8.1 0q0-1-0.5-1.8-0.4-0.7-1.1-1.1-0.6-0.4-1.4-0.4-0.8 0-1.5 0.4-0.7 0.4-1.1 1.1-0.4 0.8-0.4 1.8 0 1 0.4 1.8 0.4 0.8 1.1 1.2 0.7 0.4 1.5 0.4 0.8 0 1.4-0.4 0.7-0.4 1.1-1.2 0.5-0.7 0.5-1.8zm8.3 5.2q-1.1 0-2.1-0.5-0.9-0.4-1.4-1.1-0.6-0.7-0.6-1.6h2.1q0.1 0.6 0.6 1 0.6 0.4 1.4 0.4 0.9 0 1.3-0.3 0.5-0.3 0.5-0.9 0-0.5-0.5-0.8-0.5-0.3-1.7-0.6-1.1-0.3-1.8-0.6-0.7-0.3-1.2-0.9-0.5-0.5-0.5-1.5 0-0.8 0.4-1.5 0.5-0.6 1.4-1 0.8-0.4 2-0.4 1.7 0 2.7 0.9 1 0.8 1.1 2.3h-2q-0.1-0.7-0.6-1.1-0.5-0.4-1.3-0.4-0.8 0-1.2 0.4-0.5 0.3-0.5 0.8 0 0.4 0.3 0.6 0.3 0.3 0.7 0.5 0.4 0.1 1.2 0.3 1.1 0.3 1.8 0.6 0.7 0.3 1.2 0.9 0.5 0.6 0.5 1.5 0 0.9-0.4 1.5-0.5 0.7-1.4 1.1-0.8 0.4-2 0.4z"/>
</svg>