<svg width="24" height="24" viewBox="0 0 24 24" fill="none" xmlns="http://www.w3.org/2000/svg">
<g clip-path="url(#clip0_21779_1127)">
<path d="M3.23438 0.5H20.7656C22.2756 0.5 23.5 1.72436 23.5 3.23438V20.7656C23.5 22.2756 22.2756 23.5 20.7656 23.5H16.1221L16.1348 15.9238H18.5977C19.1174 15.9238 19.555 15.5347 19.6162 15.0186L19.9443 12.2539C20.0165 11.644 19.5398 11.1076 18.9258 11.1074H16.1211V9.29492C16.1211 8.7925 16.1971 8.50907 16.3369 8.34277C16.4607 8.19579 16.7307 8.03224 17.416 8.03223L18.8086 8.03125C19.3746 8.03091 19.8338 7.57204 19.834 7.00586V4.6748C19.834 4.10833 19.3749 3.64858 18.8086 3.64844H16.5391C15.055 3.64846 13.7533 4.10325 12.8213 5.02441C11.8877 5.94713 11.3809 7.28322 11.3809 8.93652V11.1074H9.65625C9.0884 11.1076 8.62868 11.5697 8.63086 12.1377L8.6416 14.9023C8.64404 15.467 9.10228 15.9237 9.66699 15.9238H11.3945L11.3818 23.5H3.23438C1.72438 23.5 0.5 22.2756 0.5 20.7656V3.23438C0.5 1.72438 1.72443 0.5 3.23438 0.5Z" stroke="#344F10"/>
</g>
<defs>
<clipPath id="clip0_21779_1127">
<rect width="24" height="24" fill="white"/>
</clipPath>
</defs>
</svg>
