<svg width="81" height="76" viewBox="0 0 81 76" fill="none" xmlns="http://www.w3.org/2000/svg">
<path d="M44.6168 74.9998L41.6898 69.559M15.6395 21.1351L22.957 34.7373M22.957 34.7373L26.3154 23.3115M22.957 34.7373L11.5726 31.4728M22.957 34.7373L29.3964 46.7073M29.3964 46.7073L33.941 29.2965M29.3964 46.7073L14.1144 42.3546M29.3964 46.7073L37.0066 60.8536M37.0066 60.8536L43.0917 38.0019M37.0066 60.8536L15.6395 54.8686M37.0066 60.8536L41.6898 69.559M41.6898 69.559C63.7887 40.3042 67.4414 24.5607 5.98047 1.54797" stroke="#344F10"/>
<path d="M5.96631 1C-7.88296 67.0958 8.26651 70.6453 41.5665 69.5591M55.2924 47.7956L57.3258 44.6148M68.51 27.1203L61.9012 37.4579M61.9012 37.4579H70.5435M61.9012 37.4579L59.3593 29.2966M61.9012 37.4579L57.3258 44.6148M57.3258 44.6148H68.51M57.3258 44.6148L51.7337 54.8688L64.9514 55.9569" stroke="#344F10"/>
<path d="M44.1084 66.2945C74.9692 65.8644 86.6692 59.3004 76.3173 13.0592" stroke="#344F10"/>
<path d="M76.6441 13.5182C65.4846 16.1018 59.686 18.3179 52.2422 27.1204" stroke="#344F10"/>
</svg>
