<svg width="25" height="24" viewBox="0 0 25 24" fill="none" xmlns="http://www.w3.org/2000/svg">
<path d="M22.4422 11.9926C19.709 11.9594 17.502 9.73912 17.502 6.99816C14.761 6.99816 12.541 4.79156 12.5074 2.0588C11.4426 1.89708 10.3539 2.07052 9.3934 2.55957L6.69302 3.93533C5.72092 4.43072 4.93068 5.22123 4.43561 6.19349L3.06452 8.88406C2.56798 9.85879 2.39269 10.9657 2.56374 12.0461L3.03562 15.0253C3.2065 16.1047 3.71462 17.1023 4.48717 17.8753L6.62662 20.0143C7.39673 20.7847 8.39098 21.2914 9.46684 21.4619L12.4633 21.9365C13.5379 22.1069 14.6391 21.9322 15.609 21.4381L18.3094 20.0627C19.2814 19.5672 20.0716 18.7768 20.5668 17.8046L21.9379 15.114C22.4285 14.1515 22.6023 13.0602 22.4422 11.9926ZM9.37504 16.3745C8.68481 16.3745 8.12505 15.8148 8.12505 15.1246C8.12505 14.4343 8.68481 13.8746 9.37504 13.8746C10.0653 13.8746 10.625 14.4343 10.625 15.1246C10.625 15.8148 10.0653 16.3745 9.37504 16.3745ZM10.625 10.1247C9.9348 10.1247 9.37504 9.56491 9.37504 8.87468C9.37504 8.18446 9.9348 7.62471 10.625 7.62471C11.3153 7.62471 11.875 8.18446 11.875 8.87468C11.875 9.56491 11.3153 10.1247 10.625 10.1247ZM16.875 15.1246C16.1848 15.1246 15.625 14.5648 15.625 13.8746C15.625 13.1844 16.1848 12.6246 16.875 12.6246C17.5652 12.6246 18.125 13.1844 18.125 13.8746C18.125 14.5648 17.5652 15.1246 16.875 15.1246Z" fill="white"/>
</svg>
