<svg width="40" height="52" viewBox="0 0 40 52" fill="none" xmlns="http://www.w3.org/2000/svg">
<path fill-rule="evenodd" clip-rule="evenodd" d="M10.6352 42.9791C24.7304 44.5697 33.3774 41.3008 37.0823 33.725C38.931 29.9449 39.5084 25.158 38.979 19.5125C38.4493 13.8642 36.8083 7.32137 34.1826 0L33.2413 0.337589L33.2417 0.338635C24.223 3.11903 17.1815 5.79428 11.953 8.5692C6.63878 11.3896 3.14006 14.3425 1.36855 17.6701C-0.417693 21.0254 -0.407572 24.6828 1.12011 28.7994C2.61427 32.8258 5.57045 37.3245 9.76437 42.4858L4.61303 50.8035L5.46319 51.33L10.6352 42.9791ZM37.9834 19.6058C37.4867 14.31 35.9886 8.17216 33.576 1.28201C24.561 4.0598 17.5761 6.71698 12.4218 9.45251C7.17722 12.2359 3.8851 15.071 2.25126 18.14C0.632149 21.1814 0.602156 24.5294 2.05764 28.4515C3.46793 32.2519 6.26252 36.5582 10.3105 41.5713L13.7045 35.784L9.20889 25.7406L10.1216 25.332L14.3258 34.7245L17.6101 29.1242L14.8846 20.717L15.8358 20.4087L18.2871 27.9698L21.4958 22.4985L18.8032 14.759L19.7477 14.4304L22.1603 21.3653L25.217 16.153L24.4763 11.3554L25.4646 11.2028L26.018 14.7872L30.946 6.38424L31.8086 6.89012L26.808 15.4169L31.2362 14.115L31.5183 15.0744L26.0694 16.6763L23.0785 21.7764L29.8316 20.078L30.0755 21.0477L22.3691 22.986L19.0278 28.6835H28.8857V29.6835H18.4414L15.1389 35.3148H24.9704V36.3148H14.5525L11.198 42.0348C24.8801 43.4896 32.8024 40.2005 36.184 33.2857C37.9235 29.7286 38.5029 25.1452 37.9834 19.6058Z" fill="#344F10"/>
</svg>
