<svg width="82" height="77" viewBox="0 0 82 77" fill="none" xmlns="http://www.w3.org/2000/svg">
<path d="M45.1687 75.9994L42.2046 70.485M15.8246 21.4067L23.2347 35.1927M23.2347 35.1927L26.6356 23.6125M23.2347 35.1927L11.7062 31.8841M23.2347 35.1927L29.7556 47.3245M29.7556 47.3245L34.3577 29.6783M29.7556 47.3245L14.2802 42.9129M29.7556 47.3245L37.4621 61.662M37.4621 61.662L43.6242 38.5014M37.4621 61.662L15.8246 55.5961M37.4621 61.662L42.2046 70.485M42.2046 70.485C64.5833 40.8349 68.2822 24.8786 6.04327 1.55478" stroke="#344F10"/>
<path d="M6.02918 1C-7.9954 67.9891 8.35849 71.5866 42.08 70.4858M55.9796 48.4281L58.0388 45.2043M69.3646 27.4733L62.6721 37.9507M62.6721 37.9507H71.4238M62.6721 37.9507L60.0981 29.6791M62.6721 37.9507L58.0388 45.2043M58.0388 45.2043H69.3646M58.0388 45.2043L52.3759 55.5969L65.7609 56.6998" stroke="#344F10"/>
<path d="M44.6538 67.1771C75.9053 66.7412 87.7534 60.0884 77.2704 13.2223" stroke="#344F10"/>
<path d="M77.6015 13.6875C66.3008 16.306 60.4288 18.5521 52.8907 27.4736" stroke="#344F10"/>
</svg>
