<svg width="65" height="63" viewBox="0 0 65 63" fill="none" xmlns="http://www.w3.org/2000/svg">
<path d="M53.388 11.6818L49.2564 14.6349C38.1085 -0.159771 32.0707 -8.05452 12.8231 18.3262L26.3447 26.4472C28.2666 20.0975 29.8842 16.8624 33.8567 11.6818L38.3639 20.5411L33.8567 23.8633C39.3089 24.3799 42.2288 24.4475 47.0027 23.8633C50.2387 20.0151 51.732 17.4602 53.388 11.6818Z" stroke="#344F10"/>
<path d="M43.8806 61L43.2559 55.9558C61.5576 53.1896 71.3662 51.6351 57.3715 22.122L43.7989 30.1573C48.4589 34.8744 50.5289 37.8396 53.1853 43.805L43.259 43.5525L42.4891 38.0018C39.438 42.5556 37.9876 45.0941 36.2263 49.5753C38.0637 54.2575 39.5957 56.7893 43.8806 61Z" stroke="#344F10"/>
<path d="M2 27.9224L6.70879 29.8211C0.251284 47.1898 -3.14667 56.5334 29.4169 58.5871L28.9791 42.8051C22.5996 44.5989 19.0059 44.974 12.5075 44.408L17.5409 35.8375L22.7625 37.8546C20.2642 32.9747 18.7503 30.4737 15.6901 26.7585C10.7096 26.0974 7.75539 26.2115 2 27.9224Z" stroke="#344F10"/>
</svg>
