<svg width="24" height="24" viewBox="0 0 24 24" fill="none" xmlns="http://www.w3.org/2000/svg">
<g id="la:shopping-bag">
<path id="Vector" d="M12 2.25C9.94051 2.25 8.25001 3.9405 8.25001 6V6.75H4.54651L4.50001 7.4535L3.75001 20.9535L3.70276 21.75H20.2965L20.25 20.9528L19.5 7.45275L19.4528 6.75H15.75V6C15.75 3.9405 14.0595 2.25 12 2.25ZM12 3.75C12.5967 3.75 13.169 3.98705 13.591 4.40901C14.013 4.83097 14.25 5.40326 14.25 6V6.75H9.75001V6C9.75001 5.40326 9.98706 4.83097 10.409 4.40901C10.831 3.98705 11.4033 3.75 12 3.75ZM5.95276 8.25H8.25001V10.5H9.75001V8.25H14.25V10.5H15.75V8.25H18.0473L18.7035 20.25H5.29726L5.95276 8.25Z" fill="#344F10"/>
</g>
</svg>
