<svg width="249" height="50" viewBox="0 0 249 50" fill="none" xmlns="http://www.w3.org/2000/svg">
<path d="M64.702 29H66.55L68.37 24.072L70.176 29H71.996L74.558 21.44H72.598L71.016 26.396L69.252 21.44H67.53L65.738 26.368L64.212 21.44H62.252L64.702 29ZM76.2392 29H78.2132V21.44H76.2392V29ZM75.9872 19.312C75.9872 20.026 76.4912 20.544 77.2192 20.544C77.9612 20.544 78.4652 20.026 78.4652 19.312C78.4652 18.584 77.9612 18.052 77.2192 18.052C76.5052 18.052 75.9872 18.584 75.9872 19.312ZM79.9919 23.148H81.3919V26.326C81.3919 28.384 82.3159 29.14 83.8979 29.14C84.5979 29.14 85.2139 28.93 85.7039 28.566L84.8219 27.054C84.5979 27.25 84.3879 27.334 84.1219 27.334C83.6319 27.334 83.2959 27.054 83.2959 26.256V23.148H85.2839V21.44H83.2959V18.682L81.3919 19.802V21.44H79.9919V23.148ZM90.6331 29.154C92.4391 29.154 93.6991 28.146 94.3431 26.746L92.5371 26.004C92.2291 26.774 91.5571 27.32 90.6611 27.32C89.4991 27.32 88.5751 26.368 88.5751 25.22C88.5751 24.044 89.4851 23.092 90.6471 23.092C91.5151 23.092 92.2151 23.582 92.5231 24.394L94.3011 23.68C93.7131 22.252 92.3691 21.286 90.6191 21.286C88.3791 21.286 86.6571 22.994 86.6571 25.22C86.6571 27.418 88.3651 29.154 90.6331 29.154ZM96.181 29H98.099V24.828C98.099 23.652 98.799 22.98 99.709 22.98C100.731 22.98 101.249 23.652 101.249 24.73V29H103.237V24.436C103.237 22.462 102.089 21.286 100.297 21.286C99.373 21.286 98.603 21.692 98.099 22.364V17.968H96.181V29ZM113.159 29.154C115.441 29.154 117.163 27.39 117.163 25.22C117.163 23.036 115.413 21.286 113.159 21.286C110.891 21.286 109.169 23.036 109.169 25.22C109.169 27.39 110.891 29.154 113.159 29.154ZM113.173 27.32C112.011 27.32 111.101 26.382 111.101 25.206C111.101 24.03 112.011 23.092 113.173 23.092C114.321 23.092 115.245 24.03 115.245 25.206C115.245 26.382 114.321 27.32 113.173 27.32ZM118.342 23.176H119.588V29H121.506V23.176H123.326V21.44H121.506V21.076C121.506 19.928 121.66 19.732 123.004 19.732H123.326V17.968H122.822C120.358 17.968 119.588 18.724 119.588 21.174V21.44H118.342V23.176ZM129.212 29H131.158V24.8C131.158 23.582 131.732 22.98 132.642 22.98C133.58 22.98 134 23.568 134 24.576V29H135.974V24.758C135.974 23.568 136.548 22.98 137.416 22.98C138.396 22.98 138.816 23.61 138.816 24.632V29H140.804V24.352C140.804 22.462 139.838 21.286 137.92 21.286C136.884 21.286 136.03 21.776 135.554 22.56C135.148 21.748 134.378 21.286 133.244 21.286C132.334 21.286 131.606 21.678 131.144 22.336V21.44H129.212V29ZM146.735 29.154C149.017 29.154 150.739 27.39 150.739 25.22C150.739 23.036 148.989 21.286 146.735 21.286C144.467 21.286 142.745 23.036 142.745 25.22C142.745 27.39 144.467 29.154 146.735 29.154ZM146.749 27.32C145.587 27.32 144.677 26.382 144.677 25.206C144.677 24.03 145.587 23.092 146.749 23.092C147.897 23.092 148.821 24.03 148.821 25.206C148.821 26.382 147.897 27.32 146.749 27.32ZM155.618 29.154C156.542 29.154 157.312 28.734 157.802 28.048V29L159.734 28.986V21.426L157.774 21.44V25.598C157.774 26.774 157.102 27.432 156.192 27.432C155.156 27.432 154.652 26.774 154.652 25.71V21.44H152.678V25.976C152.678 27.964 153.756 29.154 155.618 29.154ZM161.978 29H163.924V24.828C163.924 23.652 164.624 22.98 165.534 22.98C166.556 22.98 167.074 23.652 167.074 24.73V29H169.048V24.436C169.048 22.462 167.914 21.286 166.122 21.286C165.184 21.286 164.4 21.706 163.91 22.392V21.44H161.978V29ZM170.571 23.148H171.971V26.326C171.971 28.384 172.895 29.14 174.477 29.14C175.177 29.14 175.793 28.93 176.283 28.566L175.401 27.054C175.177 27.25 174.967 27.334 174.701 27.334C174.211 27.334 173.875 27.054 173.875 26.256V23.148H175.863V21.44H173.875V18.682L171.971 19.802V21.44H170.571V23.148ZM180.154 29.154C181.344 29.154 182.38 28.622 182.926 27.838V29H184.788V24.352C184.788 22.448 183.514 21.286 181.288 21.286C179.594 21.286 178.488 22 177.718 23.008L179.496 23.89C179.846 23.26 180.42 22.896 181.274 22.896C182.366 22.896 182.912 23.456 182.912 24.268V24.366H180.924C178.824 24.366 177.522 25.332 177.522 26.9C177.522 28.23 178.502 29.154 180.154 29.154ZM180.714 27.558C179.916 27.558 179.538 27.278 179.538 26.732C179.538 26.144 180 25.78 181.148 25.78H182.926V26.186C182.548 26.998 181.638 27.558 180.714 27.558ZM186.979 29H188.953V21.44H186.979V29ZM186.727 19.312C186.727 20.026 187.231 20.544 187.959 20.544C188.701 20.544 189.205 20.026 189.205 19.312C189.205 18.584 188.701 18.052 187.959 18.052C187.245 18.052 186.727 18.584 186.727 19.312ZM191.192 29H193.138V24.828C193.138 23.652 193.838 22.98 194.748 22.98C195.77 22.98 196.288 23.652 196.288 24.73V29H198.262V24.436C198.262 22.462 197.128 21.286 195.336 21.286C194.398 21.286 193.614 21.706 193.124 22.392V21.44H191.192V29ZM206.378 29H208.226L210.046 24.072L211.852 29H213.672L216.234 21.44H214.274L212.692 26.396L210.928 21.44H209.206L207.414 26.368L205.888 21.44H203.928L206.378 29ZM217.915 29H219.889V21.44H217.915V29ZM217.663 19.312C217.663 20.026 218.167 20.544 218.895 20.544C219.637 20.544 220.141 20.026 220.141 19.312C220.141 18.584 219.637 18.052 218.895 18.052C218.181 18.052 217.663 18.584 217.663 19.312ZM222.129 29H224.075V24.828C224.075 23.652 224.775 22.98 225.685 22.98C226.707 22.98 227.225 23.652 227.225 24.73V29H229.199V24.436C229.199 22.462 228.065 21.286 226.273 21.286C225.335 21.286 224.551 21.706 224.061 22.392V21.44H222.129V29ZM234.79 29.154C235.77 29.154 236.624 28.706 237.156 27.964V29H239.06V17.954H237.156V22.406C236.638 21.706 235.812 21.286 234.818 21.286C232.886 21.286 231.15 22.812 231.15 25.22C231.15 27.628 232.928 29.154 234.79 29.154ZM235.168 27.334C234.006 27.334 233.068 26.396 233.068 25.206C233.068 24.016 234.006 23.078 235.168 23.078C236.358 23.078 237.268 24.03 237.268 25.206C237.268 26.382 236.358 27.334 235.168 27.334ZM244.285 29.154C246.483 29.168 247.533 27.838 247.533 26.662C247.533 25.038 246.049 24.604 244.789 24.352C243.683 24.114 243.067 23.988 243.067 23.512C243.067 23.092 243.431 22.784 244.187 22.784C244.887 22.784 245.363 23.078 245.671 23.582L247.435 22.868C246.735 21.86 245.783 21.258 244.187 21.258C242.325 21.244 241.093 22.35 241.093 23.624C241.093 25.22 242.507 25.612 243.781 25.878C244.747 26.074 245.559 26.2 245.559 26.746C245.559 27.194 245.139 27.572 244.355 27.572C243.557 27.572 242.955 27.222 242.619 26.55L240.757 27.278C241.359 28.482 242.493 29.154 244.285 29.154Z" fill="#344F10"/>
<circle cx="25" cy="25" r="24.5" stroke="#344F10"/>
<path fill-rule="evenodd" clip-rule="evenodd" d="M24.9533 15.0521L27.4066 22H22.5365L24.9806 23.5732L34.2056 17.6354L45 24.5833H27.4268L24.9894 30.5L22.5624 24.6083H5L15.7944 17.6605L22.5068 21.9809L24.9533 15.0521ZM26.9521 34.5L24.9894 30.5298L23.0268 34.5H26.9521Z" fill="#344F10"/>
<path d="M25 24L27.5 22H22.5L25 24Z" fill="#344F10"/>
</svg>
