<svg width="150" height="399" viewBox="0 0 150 399" fill="none" xmlns="http://www.w3.org/2000/svg">
<path fill-rule="evenodd" clip-rule="evenodd" d="M0.868351 15.8733C144.779 -3.23879 227.726 -4.66845 381.133 15.8734L382 15.9895V16.8646V83.2497V84.2497H381H372.927V114.695V115.695H371.927H356.735C356.665 116.067 356.575 116.56 356.477 117.152C356.244 118.559 355.965 120.518 355.778 122.724C355.402 127.181 355.423 132.48 356.853 136.308C358.376 140.388 362.228 144.747 365.817 148.15C367.594 149.835 369.272 151.255 370.507 152.254C371.124 152.753 371.629 153.146 371.979 153.414C372.153 153.547 372.289 153.65 372.381 153.718L372.421 153.748L372.484 153.795L372.51 153.814L372.516 153.818L372.517 153.819L372.513 153.824L372.517 153.819L372.927 154.118V154.626V180.081H381H382V181.081V340.305V341.305H381H372.927V377.241V378.054L372.132 378.22C246.233 404.574 165.765 404.615 11.5055 378.227L10.6742 378.085V377.241V341.305H1H0V340.305V181.081V180.081H1H10.6742V154.626V154.043L11.1817 153.756C12.0513 153.264 12.9433 152.782 13.8427 152.296C16.6417 150.782 19.5125 149.23 22.0044 147.224C25.2426 144.617 27.7162 141.327 28.2937 136.538L28.295 136.527L28.2965 136.516C29.2247 130.008 29.3604 125.557 28.3823 115.695H11.6742H10.6742V114.695V84.2497H1H0V83.2497V16.8646V15.9886L0.868351 15.8733ZM12.6742 341.417C159.407 357.008 238.271 357.024 370.927 341.43V376.429C246.002 402.508 165.87 402.554 12.6742 376.398V341.417ZM30.392 115.695H354.701C354.642 116.017 354.575 116.396 354.504 116.825C354.265 118.271 353.977 120.284 353.785 122.556C353.537 125.495 353.442 128.939 353.851 132.163H30.8239C31.2258 127.568 31.1231 123.126 30.392 115.695ZM30.6197 134.163H354.178C354.382 135.157 354.645 136.113 354.979 137.007C356.675 141.55 360.829 146.176 364.441 149.601C366.265 151.331 367.985 152.786 369.249 153.809C369.882 154.321 370.401 154.725 370.763 155.002C370.822 155.047 370.877 155.089 370.927 155.127V180.705C231.559 187.461 152.512 186.945 12.6742 180.624V155.212C13.3142 154.856 13.9801 154.497 14.6617 154.128L14.6656 154.126L14.6674 154.125L14.6755 154.121L14.6778 154.12L14.6782 154.119C17.5093 152.59 20.61 150.915 23.2586 148.782C26.7726 145.953 29.6182 142.233 30.278 136.788C30.4073 135.881 30.5214 135.012 30.6197 134.163ZM29.2866 113.695L355.916 113.695H370.927V84.2495H12.6742V113.695H29.2865L29.2866 113.695ZM11.6741 82.2497H2V17.7407C144.94 -1.20394 227.641 -2.61474 380 17.7397V82.2497H371.927L371.927 82.2495H11.6741V82.2497ZM11.6288 182.579L11.6514 182.081H2V339.305H11.6742H11.7273L11.7801 339.311C159.503 355.049 238.308 355.058 371.81 339.312L371.868 339.305H371.927H380V182.081H373.552L373.577 182.578C232.229 189.483 152.97 188.982 11.6288 182.579Z" fill="#344F10"/>
</svg>
