<svg width="82" height="62" viewBox="0 0 82 62" fill="none" xmlns="http://www.w3.org/2000/svg">
<path d="M12.926 54.3893H1V52.3554C1.65999 16.5771 50.9445 20.2079 57.0005 36.5927C61.4742 36.3621 62.9252 35.7224 64.2599 32.5249C67.5312 31.2453 69.5367 31.2028 71.5192 32.5249C73.4014 28.2274 74.3397 26.2294 75.6674 23.8809H79.2971L75.6674 34.5588C86.5141 49.2543 78.5886 53.7119 71.5192 54.3893C66.6453 54.5464 62.2674 54.5373 57.0005 54.3893M12.926 54.3893C11.2776 56.9697 11.1872 58.4202 12.926 60.9995H40.4078C47.6096 59.7302 51.2758 58.3471 57.0005 54.3893M12.926 54.3893H57.0005" stroke="#344F10"/>
<path d="M12.409 29.983L15.0016 23.3729M15.0016 23.3729L9.81641 12.1864M15.0016 23.3729L22.261 25.4067L26.9277 19.8135M9.81641 12.1864L12.409 5.06776M9.81641 12.1864L17.5943 9.64404M26.9277 19.8135V9.64404M26.9277 19.8135L33.6685 24.8983M26.9277 9.64404L32.1129 2.52539M26.9277 9.64404H34.7055" stroke="#344F10"/>
<path d="M69.4452 39.6447L71.7786 42.4413M74.1119 45.2379L71.7786 42.4413M71.7786 42.4413L74.1119 39.6447M71.7786 42.4413L68.4082 45.2379M43.0005 38.1193H33.1486V43.7125H43.0005V48.2888H19.1484V32.0176L44.0376 33.0345L43.0005 38.1193Z" stroke="#344F10"/>
<path d="M64.2617 32.5262L65.9901 24.3906H69.447V31.7022" stroke="#344F10"/>
<path d="M67.37 16.7627C68.5174 15.0663 67.9304 14.1826 65.2959 12.6949C64.4634 11.1102 65.1686 10.2203 67.37 8.62712C68.1781 7.1773 67.6413 6.27111 65.2959 4.55932C64.7313 2.77976 65.1738 2.01632 67.37 1" stroke="#344F10"/>
<path d="M77.2238 17.2712C78.1684 15.4856 77.8947 14.4838 75.1497 12.6949C74.5772 11.5079 74.8234 10.6748 77.2238 8.62712C77.3188 7.03999 77.1025 6.15235 75.1497 4.55932C75.0698 2.7163 75.4172 1.87971 77.2238 1" stroke="#344F10"/>
<path d="M36.2578 38.627V43.7117" stroke="#344F10"/>
<path d="M13.9646 39.6445L9.81641 46.2547" stroke="#344F10"/>
<path d="M50.2791 39.6446C50.2791 40.2017 49.8158 40.67 49.2235 40.67C48.6313 40.67 48.168 40.2017 48.168 39.6446C48.168 39.0874 48.6313 38.6191 49.2235 38.6191C49.8158 38.6191 50.2791 39.0874 50.2791 39.6446Z" stroke="#344F10"/>
</svg>
