<svg width="182" height="397" fill="none" xmlns="http://www.w3.org/2000/svg"><g clip-path="url('#clip0_21779_256')"><path fill-rule="evenodd" clip-rule="evenodd" d="M46.868 14.875c143.911-19.112 226.858-20.542 380.265 0l.867.116v68.26h-9.073v31.446h-16.192a71.646 71.646 0 0 0-.957 7.029c-.376 4.456-.355 9.756 1.075 13.583 1.523 4.081 5.375 8.439 8.964 11.843a80.414 80.414 0 0 0 4.69 4.104 67.028 67.028 0 0 0 1.874 1.464l.04.03.063.047.026.018.006.005h.001l-.004.006.004-.005.41.299v25.962H428v161.225h-9.073v36.748l-.795.167c-125.899 26.354-206.367 26.395-360.627.007l-.83-.142v-36.78H46V179.082h10.674v-26.037l.508-.287c.87-.492 1.761-.975 2.66-1.461 2.8-1.513 5.67-3.065 8.162-5.071 3.239-2.607 5.712-5.897 6.29-10.687l.001-.01.001-.011c.929-6.508 1.064-10.96.086-20.821H56.674V83.251H46V14.99l.868-.115Zm11.806 325.544c146.733 15.591 225.597 15.607 358.253.013v34.998c-124.925 26.08-205.057 26.126-358.253-.031v-34.98Zm17.718-225.722h324.309a73.54 73.54 0 0 0-.916 6.861c-.248 2.939-.343 6.382.066 9.607H76.824c.402-4.595.3-9.037-.432-16.468Zm.228 18.468h323.558c.204.994.467 1.95.801 2.844 1.696 4.543 5.85 9.169 9.462 12.594a82.508 82.508 0 0 0 6.322 5.401l.164.124v25.579c-139.368 6.755-218.415 6.24-358.253-.081v-25.412c.64-.356 1.306-.716 1.988-1.084l.004-.002.001-.001.008-.004.003-.002c2.831-1.53 5.932-3.205 8.58-5.337 3.515-2.829 6.36-6.549 7.02-11.994.13-.907.243-1.776.342-2.625Zm325.296-20.468h15.011V83.251H58.674v29.446h343.242ZM57.674 81.251H426v-64.51C273.641-3.613 190.94-2.202 48 16.742v64.51h9.674ZM57.63 181.58l.023-.498H48v157.225h9.727l.053.006c147.723 15.738 226.528 15.747 360.03.001l.058-.007H426V181.082h-6.447l.024.498c-141.348 6.905-220.607 6.404-361.948 0Z" fill="#344F10"/><circle cx="33.5" cy="50.502" r="2.5" transform="rotate(-180 33.5 50.502)" fill="#333"/><circle cx="33.5" cy="123.502" r="2.5" transform="rotate(-180 33.5 123.502)" fill="#333"/><circle cx="33.5" cy="199.502" r="2.5" fill="#333"/><path fill="#333" d="M32 51H0v-1h32zM32 124H0v-1h32zM32 200H0v-1h32z"/><circle cx="33.5" cy="199.502" r="2.5" fill="#333"/><circle cx="33.5" cy="272.502" r="2.5" fill="#333"/><path fill="#333" d="M32 273H0v-1h32z"/><circle cx="33.5" cy="272.502" r="2.5" fill="#333"/><circle cx="33.5" cy="272.502" r="2.5" fill="#333"/><circle cx="33.5" cy="272.502" r="2.5" fill="#333"/><circle cx="33.5" cy="344.502" r="2.5" fill="#333"/><path fill="#333" d="M32 345H0v-1h32z"/><circle cx="33.5" cy="344.502" r="2.5" fill="#333"/><circle cx="33.5" cy="344.502" r="2.5" fill="#333"/><circle cx="33.5" cy="344.502" r="2.5" fill="#333"/></g><defs><clipPath id="clip0_21779_256"><path fill="#fff" d="M0 0h182v397H0z"/></clipPath></defs></svg>