<svg width="398" height="397" fill="none" xmlns="http://www.w3.org/2000/svg"><g clip-path="url('#clip0_21779_893')"><path fill-rule="evenodd" clip-rule="evenodd" d="M98.868 14.873c143.911-19.112 226.858-20.541 380.265 0l.867.117v68.26h-9.073v31.445h-16.192a71.675 71.675 0 0 0-.957 7.029c-.376 4.457-.355 9.756 1.075 13.584 1.523 4.08 5.375 8.439 8.964 11.842a80.414 80.414 0 0 0 6.162 5.264c.174.133.31.236.402.304l.04.03.063.047.026.019.006.004.001.001-.004.005.004-.005.41.299V179.081H480v161.224h-9.073v36.749l-.795.166c-125.899 26.354-206.367 26.395-360.626.007l-.832-.142v-36.78H98V179.081h10.674V153.043l.508-.287c.869-.492 1.761-.974 2.661-1.46 2.799-1.514 5.67-3.066 8.161-5.072 3.239-2.607 5.712-5.897 6.29-10.686l.001-.011.002-.011c.928-6.508 1.063-10.959.085-20.821h-17.708V83.25H98V14.989l.868-.116Zm11.806 325.544c146.733 15.591 225.597 15.607 358.253.013v34.999c-124.925 26.079-205.057 26.125-358.253-.031v-34.981Zm17.718-225.722h324.309a73.604 73.604 0 0 0-.916 6.861c-.248 2.939-.343 6.383.066 9.607H128.824c.402-4.595.299-9.037-.432-16.468Zm.228 18.468h323.558c.204.994.467 1.95.801 2.844 1.696 4.543 5.85 9.169 9.462 12.594a82.508 82.508 0 0 0 6.322 5.401l.164.125v25.578c-139.368 6.756-218.415 6.24-358.253-.081v-25.412c.64-.356 1.306-.715 1.988-1.084l.004-.002.001-.001.008-.004.003-.001v-.001c2.831-1.529 5.932-3.204 8.581-5.337 3.514-2.829 6.359-6.549 7.019-11.994.129-.907.243-1.776.342-2.625Zm325.296-20.468h15.011V83.25H110.674v29.445h343.242ZM109.674 81.25H478V16.74c-152.359-20.355-235.06-18.944-378 0v64.51h9.674Zm-.045 100.329.022-.498H100v157.224h9.727l.053.006c147.723 15.738 226.528 15.747 360.03.001l.058-.007H478V181.081h-6.447l.024.497c-141.348 6.905-220.607 6.404-361.948.001Z" fill="#344F10"/><circle cx="77.5" cy="50.5" r="2.5" transform="rotate(-180 77.5 50.5)" fill="#333"/><circle cx="77.5" cy="123.5" r="2.5" transform="rotate(-180 77.5 123.5)" fill="#333"/><circle cx="77.5" cy="199.5" r="2.5" fill="#333"/><path fill="#333" d="M76 51H0v-1h76zM76 124H0v-1h76zM76 200H0v-1h76z"/><circle cx="77.5" cy="199.5" r="2.5" fill="#333"/><circle cx="77.5" cy="272.5" r="2.5" fill="#333"/><path fill="#333" d="M76 273H0v-1h76z"/><circle cx="77.5" cy="272.5" r="2.5" fill="#333"/><circle cx="77.5" cy="272.5" r="2.5" fill="#333"/><circle cx="77.5" cy="272.5" r="2.5" fill="#333"/><circle cx="77.5" cy="344.5" r="2.5" fill="#333"/><path fill="#333" d="M76 345H0v-1h76z"/><circle cx="77.5" cy="344.5" r="2.5" fill="#333"/><circle cx="77.5" cy="344.5" r="2.5" fill="#333"/><circle cx="77.5" cy="344.5" r="2.5" fill="#333"/></g><defs><clipPath id="clip0_21779_893"><path fill="#fff" transform="translate(0 -.002)" d="M0 0h398v397H0z"/></clipPath></defs></svg>