<svg width="64" height="62" fill="none" xmlns="http://www.w3.org/2000/svg"><path d="M10.243 54.39H1v-2.034c.511-35.778 38.707-32.148 43.4-15.763 3.468-.23 4.592-.87 5.626-4.068 2.536-1.28 4.09-1.322 5.626 0 1.46-4.297 2.186-6.295 3.215-8.644h2.813L58.867 34.56c8.406 14.696 2.264 19.153-3.215 19.83-3.777.158-7.17.149-11.252 0m-34.157 0c-1.278 2.581-1.348 4.032 0 6.611H31.54c5.581-1.27 8.423-2.652 12.86-6.61m-34.158 0H44.4" stroke="#344F10"/><path d="m9.84 29.983 2.01-6.61m0 0L7.832 12.186m4.018 11.187 5.626 2.034 3.617-5.593M7.832 12.186 9.84 5.068m-2.01 7.118 6.028-2.542m7.234 10.17V9.644m0 10.17 5.224 5.084M21.093 9.644l4.018-7.119m-4.018 7.119h6.028M54.045 39.644l1.808 2.797m1.809 2.796-1.809-2.796m0 0 1.809-2.797m-1.809 2.797-2.612 2.796m-19.69-7.119h-7.636v5.594h7.635v4.576H15.065V32.017l19.289 1.017-.804 5.084ZM50.026 32.526l1.34-8.136h2.679V31.7M52.437 16.763c.89-1.697.435-2.58-1.607-4.068-.645-1.585-.099-2.475 1.607-4.068.627-1.45.21-2.356-1.607-4.068-.438-1.78-.095-2.543 1.607-3.559M60.073 17.271c.732-1.785.52-2.787-1.608-4.576-.443-1.187-.252-2.02 1.608-4.068.074-1.587-.094-2.475-1.608-4.068-.062-1.843.208-2.68 1.608-3.559M28.326 38.627v5.085M11.046 39.644l-3.214 6.61M39.078 39.644c0 .683-.419 1.026-.705 1.026-.287 0-.706-.343-.706-1.026 0-.682.42-1.025.706-1.025s.705.343.705 1.025Z" stroke="#344F10"/></svg>