<svg width="82" height="62" fill="none" xmlns="http://www.w3.org/2000/svg"><path d="M12.926 54.392H1v-2.034c.66-35.779 49.944-32.148 56-15.763 4.474-.23 5.925-.87 7.26-4.068 3.271-1.28 5.277-1.322 7.26 0 1.881-4.297 2.82-6.295 4.147-8.644h3.63l-3.63 10.678c10.847 14.696 2.922 19.153-4.148 19.83-4.874.158-9.252.148-14.519 0m-44.074 0c-1.648 2.58-1.739 4.031 0 6.61h27.482C47.61 59.733 51.276 58.35 57 54.392m-44.075 0h44.075" stroke="#344F10"/><path d="M12.408 29.985 15 23.375m0 0L9.815 12.188M15 23.375l7.26 2.034 4.666-5.594M9.815 12.188l2.593-7.119m-2.593 7.12 7.778-2.543m9.333 10.17V9.645m0 10.17 6.741 5.084m-6.74-15.254 5.184-7.119m-5.185 7.119h7.778M69.445 39.646l2.334 2.796m2.333 2.797-2.333-2.797m0 0 2.333-2.796m-2.333 2.796-3.37 2.797M43 38.12H33.15v5.594H43v4.576H19.148V32.019l24.89 1.017L43 38.12ZM64.26 32.527l1.728-8.135h3.457v7.311M67.37 16.764c1.148-1.696.561-2.58-2.073-4.067-.833-1.585-.127-2.475 2.074-4.068.808-1.45.271-2.356-2.074-4.068-.565-1.78-.122-2.543 2.074-3.56M77.223 17.273c.944-1.786.67-2.787-2.074-4.576-.573-1.187-.327-2.02 2.074-4.068.095-1.587-.121-2.475-2.074-4.068-.08-1.843.267-2.68 2.074-3.56M36.26 38.629v5.085M13.963 39.646l-4.148 6.61M50.278 39.646a1.04 1.04 0 0 1-1.055 1.025 1.04 1.04 0 0 1-1.056-1.025 1.04 1.04 0 0 1 1.056-1.026 1.04 1.04 0 0 1 1.055 1.026Z" stroke="#344F10"/></svg>