<svg width="80" height="69" fill="none" xmlns="http://www.w3.org/2000/svg"><path d="m60.701 11.838-4.154 2.996C45.341-.175 39.272-8.184 19.922 18.58l13.593 8.239c1.932-6.442 3.558-9.724 7.552-14.98l4.531 8.988-4.53 3.37c5.48.525 8.416.593 13.215 0 3.253-3.903 4.754-6.495 6.42-12.358ZM51.143 61.872l-.628-5.117c18.399-2.807 28.26-4.384 14.19-34.325l-13.644 8.152c4.685 4.785 6.766 7.794 9.436 13.846l-9.979-.257-.774-5.63c-3.067 4.619-4.525 7.194-6.296 11.74 1.847 4.75 3.387 7.32 7.695 11.59ZM9.04 28.315l4.734 1.926c-6.492 17.62-9.908 27.1 22.828 29.183l-.44-16.01c-6.413 1.82-10.026 2.2-16.559 1.625l5.06-8.694 5.25 2.046c-2.512-4.95-4.034-7.488-7.11-11.257-5.007-.67-7.977-.555-13.763 1.18Z" stroke="#344F10"/></svg>