<svg width="28" height="28" viewBox="0 0 28 28" fill="none" xmlns="http://www.w3.org/2000/svg">
<path fill-rule="evenodd" clip-rule="evenodd" d="M11.2198 14.0178L18.4048 21.3118C18.7116 21.6233 18.7116 22.1234 18.4048 22.4349C18.1039 22.7404 17.6123 22.7441 17.3068 22.4432C17.304 22.4405 17.3012 22.4377 17.2985 22.435L10.1133 15.1412L10.1103 15.1442L9 14.0176L9.0032 14.0143L9 14.0111L10.1063 12.8874L10.1098 12.891L17.3256 5.56565C17.6276 5.25906 18.121 5.25534 18.4275 5.55735C18.4303 5.56006 18.433 5.56279 18.4357 5.56554C18.7437 5.87801 18.7437 6.37979 18.4358 6.69232L11.2198 14.0178Z" fill="white"/>
<mask id="mask0" mask-type="alpha" maskUnits="userSpaceOnUse" x="9" y="5" width="10" height="18">
<path fill-rule="evenodd" clip-rule="evenodd" d="M11.2198 14.0178L18.4048 21.3118C18.7116 21.6233 18.7116 22.1234 18.4048 22.4349C18.1039 22.7404 17.6123 22.7441 17.3068 22.4432C17.304 22.4405 17.3012 22.4377 17.2985 22.435L10.1133 15.1412L10.1103 15.1442L9 14.0176L9.0032 14.0143L9 14.0111L10.1063 12.8874L10.1098 12.891L17.3256 5.56565C17.6276 5.25906 18.121 5.25534 18.4275 5.55735C18.4303 5.56006 18.433 5.56279 18.4357 5.56554C18.7437 5.87801 18.7437 6.37979 18.4358 6.69232L11.2198 14.0178Z" fill="white"/>
</mask>
<g mask="url(#mask0)">
<rect width="28" height="28" fill="#828282"/>
</g>
</svg>
