<?xml version="1.0" standalone="no"?>
<!DOCTYPE svg PUBLIC "-//W3C//DTD SVG 20010904//EN"
 "http://www.w3.org/TR/2001/REC-SVG-20010904/DTD/svg10.dtd">
<svg version="1.0" xmlns="http://www.w3.org/2000/svg"
 width="700.000000pt" height="700.000000pt" viewBox="0 0 700.000000 700.000000"
 preserveAspectRatio="xMidYMid meet">
<metadata>
Created by potrace 1.14, written by Peter Selinger 2001-2017
</metadata>
<g transform="translate(0.000000,700.000000) scale(0.100000,-0.100000)"
fill="#000000" stroke="none">
<path d="M3278 6995 c-1 -1 -42 -5 -89 -9 -47 -4 -95 -8 -105 -10 -10 -2 -48
-7 -84 -12 -36 -4 -67 -8 -70 -9 -3 -1 -25 -5 -50 -9 -25 -4 -101 -21 -170
-38 -69 -16 -135 -31 -147 -34 -40 -8 -264 -84 -367 -126 -135 -54 -353 -160
-449 -220 -43 -26 -81 -48 -84 -48 -9 0 -227 -152 -313 -219 -484 -376 -872
-891 -1100 -1462 -66 -165 -142 -408 -165 -530 -3 -13 -12 -58 -20 -99 -8 -41
-17 -89 -19 -105 -3 -17 -7 -46 -11 -66 -21 -123 -30 -282 -30 -504 0 -194 7
-329 20 -406 2 -13 6 -46 9 -74 47 -408 239 -953 466 -1318 30 -48 60 -95 65
-105 24 -42 133 -191 208 -285 147 -182 310 -348 497 -504 102 -84 305 -233
320 -233 5 0 10 -4 10 -10 0 -5 4 -10 10 -10 5 0 40 -19 77 -43 267 -171 724
-355 1046 -423 89 -19 213 -41 276 -50 25 -3 57 -8 71 -10 163 -25 682 -25
842 1 13 2 46 7 73 10 74 11 87 13 120 19 17 4 46 9 65 12 95 16 309 73 450
121 558 189 1087 540 1480 982 36 41 70 79 76 85 66 69 263 353 354 511 161
278 315 677 376 970 16 75 54 300 60 350 4 33 9 76 11 95 8 70 10 517 3 595
-13 129 -21 202 -25 226 -3 13 -7 41 -10 64 -3 22 -13 74 -21 115 -203 1009
-833 1875 -1730 2378 -346 193 -768 340 -1144 397 -25 4 -53 9 -62 11 -9 1
-43 6 -75 9 -32 4 -76 9 -98 12 -44 5 -541 13 -547 8z m512 -299 c19 -2 58 -7
85 -10 127 -13 229 -32 391 -71 905 -220 1683 -840 2100 -1675 90 -180 203
-471 229 -590 2 -8 13 -55 25 -105 26 -106 27 -112 40 -190 6 -33 12 -71 14
-85 6 -32 13 -96 23 -195 15 -153 8 -548 -12 -666 -2 -13 -6 -42 -10 -64 -14
-100 -26 -169 -29 -174 -2 -3 -7 -24 -10 -46 -9 -53 -61 -248 -87 -321 -11
-33 -22 -66 -24 -75 -8 -37 -100 -251 -159 -368 -109 -218 -236 -413 -394
-605 -86 -105 -306 -327 -405 -410 -417 -348 -903 -583 -1427 -690 -69 -14
-152 -28 -185 -32 -33 -3 -69 -8 -79 -10 -128 -24 -633 -24 -761 0 -26 5 -89
14 -145 21 -25 4 -65 11 -90 17 -25 5 -56 12 -70 14 -14 3 -43 10 -65 16 -22
6 -44 11 -50 12 -67 15 -264 78 -365 118 -659 260 -1223 738 -1583 1343 -126
213 -208 389 -284 610 -35 102 -106 367 -118 440 -24 155 -36 242 -42 320 -14
166 -7 547 12 665 2 14 7 43 9 65 48 381 203 820 415 1180 347 587 901 1067
1536 1330 161 67 434 153 545 171 14 2 45 9 70 14 49 11 81 16 150 25 25 4 56
8 70 10 14 2 63 7 110 10 47 4 86 8 88 10 5 5 444 -3 482 -9z"/>
<path d="M3418 4678 c-42 -117 -118 -333 -170 -480 -51 -147 -96 -268 -100
-268 -4 0 -216 134 -472 299 l-464 299 -79 -51 c-109 -70 -164 -105 -268 -172
-49 -32 -324 -209 -610 -393 -286 -183 -526 -339 -532 -346 -10 -9 261 -12
1200 -11 666 0 1220 -1 1230 -3 9 -3 17 -9 17 -16 0 -9 96 -248 129 -321 11
-24 103 -248 159 -388 l40 -98 32 78 c17 43 37 92 45 108 7 17 38 93 70 170
31 77 61 149 66 160 5 11 36 85 68 165 l59 145 1221 1 c698 1 1220 5 1219 10
-2 5 -226 152 -498 327 -272 176 -517 333 -545 351 -27 18 -108 70 -180 116
-71 46 -161 103 -198 127 l-68 44 -222 -143 c-122 -79 -229 -147 -238 -153
-10 -5 -132 -84 -273 -175 -494 -319 -559 -359 -570 -353 -6 4 -83 53 -170
110 l-159 103 338 0 337 0 -7 28 c-3 15 -44 133 -90 262 -146 411 -203 574
-220 628 -10 28 -18 52 -19 52 -1 0 -36 -96 -78 -212z"/>
<path d="M3362 2451 c-72 -149 -132 -272 -132 -275 0 -4 122 -6 270 -6 149 0
270 2 270 5 0 7 -269 545 -273 545 -1 0 -62 -121 -135 -269z"/>
</g>
</svg>
