<?xml version="1.0" standalone="no"?>
<!DOCTYPE svg PUBLIC "-//W3C//DTD SVG 20010904//EN"
 "http://www.w3.org/TR/2001/REC-SVG-20010904/DTD/svg10.dtd">
<svg version="1.0" xmlns="http://www.w3.org/2000/svg"
 width="1280.000000pt" height="1280.000000pt" viewBox="0 0 1280.000000 1280.000000"
 preserveAspectRatio="xMidYMid meet">
<metadata>
Created by potrace 1.11, written by Peter Selinger 2001-2013
</metadata>
<g transform="translate(0.000000,1280.000000) scale(0.100000,-0.100000)"
fill="#000000" stroke="none">
<path d="M6368 9554 c-9 -27 -40 -114 -68 -194 -28 -80 -53 -149 -54 -155 -2
-5 -6 -17 -9 -25 -12 -28 -78 -215 -82 -230 -2 -8 -12 -40 -23 -70 -39 -107
-134 -376 -172 -485 -21 -60 -60 -168 -85 -240 -26 -71 -51 -143 -56 -160 -5
-16 -13 -39 -18 -50 -12 -26 -41 -108 -41 -117 -1 -4 -8 -24 -16 -45 -9 -20
-18 -44 -20 -52 -2 -9 -20 -61 -40 -116 -20 -55 -45 -128 -57 -162 -12 -35
-25 -63 -30 -63 -4 0 -45 24 -90 54 -272 178 -349 226 -357 226 -6 0 -10 4
-10 9 0 5 -13 14 -30 21 -16 7 -30 16 -30 21 0 5 -4 9 -10 9 -5 0 -60 33 -122
73 -292 191 -350 227 -358 227 -4 0 -10 3 -12 8 -4 9 -65 52 -74 52 -3 0 -31
17 -62 39 -32 21 -99 65 -150 97 -51 33 -141 91 -200 129 -60 39 -144 93 -188
121 -176 114 -293 189 -364 235 -41 27 -79 49 -85 49 -8 0 -98 -54 -165 -100
-8 -6 -40 -26 -70 -45 -30 -19 -62 -39 -70 -45 -8 -5 -63 -41 -123 -80 -59
-38 -112 -70 -116 -70 -5 0 -11 -4 -13 -8 -1 -4 -37 -29 -78 -55 -41 -26 -85
-55 -98 -64 -25 -18 -58 -38 -82 -49 -8 -4 -17 -10 -20 -13 -8 -9 -69 -51 -74
-51 -2 0 -28 -16 -57 -35 -30 -20 -61 -40 -69 -45 -8 -6 -62 -41 -120 -78 -58
-37 -113 -71 -122 -75 -10 -3 -18 -11 -18 -17 0 -5 -5 -10 -11 -10 -6 0 -70
-39 -142 -86 -73 -47 -202 -130 -287 -185 -85 -54 -162 -103 -170 -109 -8 -6
-89 -58 -180 -116 -91 -58 -181 -116 -200 -129 -230 -150 -302 -195 -310 -195
-6 0 -10 -4 -10 -10 0 -5 -6 -10 -13 -10 -8 0 -22 -9 -32 -20 -10 -11 -21 -17
-25 -15 -5 3 -10 2 -12 -2 -3 -8 -25 -23 -155 -107 -40 -25 -103 -66 -140 -90
-38 -24 -108 -69 -158 -101 -178 -114 -305 -198 -305 -200 0 -1 1261 -2 2803
-2 l2802 0 12 -24 c20 -41 63 -139 63 -144 0 -5 87 -219 114 -280 8 -16 37
-88 66 -160 29 -71 55 -134 58 -140 4 -5 7 -14 9 -20 1 -5 27 -71 58 -145 31
-74 86 -207 122 -295 36 -88 74 -179 84 -202 10 -23 19 -45 19 -48 0 -3 11
-31 25 -61 14 -30 25 -61 25 -69 0 -8 5 -15 10 -15 6 0 10 -5 10 -11 0 -10 35
-102 65 -174 7 -16 19 -44 26 -62 l14 -32 27 57 c15 31 27 61 28 65 0 5 7 23
14 40 21 46 197 470 200 482 1 6 8 20 14 33 7 12 10 22 6 22 -3 0 -2 6 4 13 6
6 25 48 42 92 17 44 38 94 45 110 8 17 44 104 81 195 36 91 77 189 90 218 13
29 24 57 24 62 0 6 5 18 10 28 13 21 136 321 157 382 9 25 19 47 23 50 3 3 9
13 13 22 6 17 152 18 2814 20 l2807 3 -64 41 c-36 23 -118 76 -183 118 -66 42
-123 76 -127 76 -5 0 -10 3 -12 8 -4 9 -287 192 -298 192 -5 0 -10 3 -12 8 -3
8 -64 52 -73 52 -3 0 -59 36 -126 80 -66 44 -122 80 -124 80 -2 0 -57 35 -122
78 -108 72 -208 135 -258 165 -11 7 -22 14 -25 17 -3 3 -43 30 -90 60 -47 29
-143 91 -213 137 -70 46 -130 83 -133 83 -3 0 -10 5 -17 10 -24 21 -198 130
-206 130 -5 0 -11 4 -13 8 -2 5 -34 29 -73 53 -38 24 -71 47 -73 51 -2 4 -8 8
-13 8 -4 0 -43 23 -86 50 -99 64 -111 72 -137 90 -11 9 -33 22 -48 29 -15 8
-38 24 -50 35 -12 12 -25 21 -28 20 -5 0 -69 40 -255 160 -44 29 -109 71 -145
94 -36 22 -69 45 -75 49 -5 4 -22 14 -37 22 -15 8 -37 22 -47 33 -11 10 -23
18 -26 18 -4 0 -26 14 -50 30 -24 17 -48 30 -53 30 -6 0 -12 3 -14 8 -4 9
-131 92 -141 92 -7 0 -470 -296 -642 -410 -39 -25 -77 -49 -85 -53 -8 -4 -69
-42 -135 -86 -66 -44 -174 -114 -240 -156 -170 -108 -288 -183 -305 -195 -19
-13 -119 -78 -340 -220 -96 -62 -201 -130 -233 -151 -32 -21 -59 -39 -62 -39
-2 0 -32 -20 -67 -44 l-64 -43 -12 25 c-7 15 -12 34 -12 43 0 10 -4 20 -9 23
-5 3 -11 16 -14 28 -5 22 -19 62 -123 353 -25 72 -52 148 -59 170 -8 22 -30
85 -50 140 -20 55 -38 107 -40 115 -2 8 -20 60 -40 115 -53 146 -95 265 -110
310 -8 22 -34 99 -60 170 -26 72 -62 175 -81 230 -20 55 -48 136 -64 180 -15
44 -42 121 -60 170 -17 50 -35 99 -40 110 -5 11 -10 26 -12 34 -2 8 -11 -8
-20 -35z"/>
<path d="M6337 4528 c-31 -62 -87 -176 -125 -253 -38 -77 -79 -160 -92 -185
-13 -25 -24 -47 -25 -50 0 -3 -69 -144 -154 -315 -84 -170 -157 -319 -161
-330 -8 -20 -4 -20 611 -19 340 0 621 3 624 6 3 3 -35 86 -83 184 -227 456
-282 570 -281 578 0 5 -3 12 -8 15 -10 7 -233 458 -233 471 0 30 -23 -3 -73
-102z"/>
</g>
</svg>
