<svg width="15" height="33" viewBox="0 0 15 33" fill="none" xmlns="http://www.w3.org/2000/svg">
<path d="M3.132 27.666C3.132 27.078 3.26267 26.5553 3.524 26.098C3.776 25.6407 4.154 25.286 4.658 25.034C5.15267 24.7727 5.75 24.642 6.45 24.642H11V26.602H6.716C6.1 26.602 5.62867 26.756 5.302 27.064C4.966 27.372 4.798 27.792 4.798 28.324C4.798 28.8653 4.966 29.2947 5.302 29.612C5.62867 29.92 6.1 30.074 6.716 30.074H11V32.034H0.64V30.074H4.21C3.874 29.822 3.61267 29.486 3.426 29.066C3.23 28.646 3.132 28.1793 3.132 27.666ZM6.954 14.8681C7.234 14.8681 7.486 14.8868 7.71 14.9241L7.71 20.5941C8.27 20.5475 8.70867 20.3515 9.026 20.0061C9.34333 19.6608 9.502 19.2361 9.502 18.7321C9.502 18.0041 9.18933 17.4861 8.564 17.1781V15.0641C9.31067 15.2881 9.92667 15.7175 10.412 16.3521C10.888 16.9868 11.126 17.7661 11.126 18.6901C11.126 19.4368 10.9627 20.1088 10.636 20.7061C10.3 21.2941 9.82867 21.7561 9.222 22.0921C8.61533 22.4188 7.91533 22.5821 7.122 22.5821C6.31933 22.5821 5.61467 22.4188 5.008 22.0921C4.40133 21.7655 3.93467 21.3081 3.608 20.7201C3.28133 20.1321 3.118 19.4555 3.118 18.6901C3.118 17.9528 3.27667 17.2948 3.594 16.7161C3.91133 16.1281 4.364 15.6755 4.952 15.3581C5.53067 15.0315 6.198 14.8681 6.954 14.8681ZM6.394 16.8981C5.89 16.9075 5.48867 17.0895 5.19 17.4441C4.882 17.7988 4.728 18.2328 4.728 18.7461C4.728 19.2315 4.87733 19.6421 5.176 19.9781C5.46533 20.3048 5.87133 20.5055 6.394 20.5801L6.394 16.8981ZM0.64 10.7775H11V12.7375H0.64V10.7775ZM4.364 6.18103C4.00933 5.92903 3.71533 5.5837 3.482 5.14503C3.23933 4.69703 3.118 4.18836 3.118 3.61903C3.118 2.95636 3.28133 2.35903 3.608 1.82703C3.93467 1.2857 4.40133 0.861031 5.008 0.553031C5.60533 0.235697 6.30067 0.0770303 7.094 0.0770303C7.88733 0.0770303 8.592 0.235697 9.208 0.553031C9.81467 0.861031 10.286 1.2857 10.622 1.82703C10.958 2.35903 11.126 2.95636 11.126 3.61903C11.126 4.18836 11.0093 4.69236 10.776 5.13103C10.5427 5.56036 10.2487 5.91036 9.894 6.18103H14.696L14.696 8.14103H3.244V6.18103H4.364ZM7.094 2.07903C6.62733 2.07903 6.226 2.17703 5.89 2.37303C5.54467 2.5597 5.28333 2.8117 5.106 3.12903C4.92867 3.43703 4.84 3.77303 4.84 4.13703C4.84 4.4917 4.93333 4.8277 5.12 5.14503C5.29733 5.45303 5.55867 5.70503 5.904 5.90103C6.24933 6.0877 6.65533 6.18103 7.122 6.18103C7.58867 6.18103 7.99467 6.0877 8.34 5.90103C8.68533 5.70503 8.95133 5.45303 9.138 5.14503C9.31533 4.8277 9.404 4.4917 9.404 4.13703C9.404 3.77303 9.31067 3.43703 9.124 3.12903C8.93733 2.8117 8.67133 2.5597 8.326 2.37303C7.98067 2.17703 7.57 2.07903 7.094 2.07903Z" fill="#344F10" fill-opacity="0.5"/>
</svg>
