<?xml version="1.0" standalone="no"?>
<!DOCTYPE svg PUBLIC "-//W3C//DTD SVG 20010904//EN"
 "http://www.w3.org/TR/2001/REC-SVG-20010904/DTD/svg10.dtd">
<svg version="1.0" xmlns="http://www.w3.org/2000/svg"
 width="512.000000pt" height="512.000000pt" viewBox="0 0 512.000000 512.000000"
 preserveAspectRatio="xMidYMid meet">
<metadata>
Created by potrace 1.14, written by Peter Selinger 2001-2017
</metadata>
<g transform="translate(0.000000,512.000000) scale(0.100000,-0.100000)"
fill="#000000" stroke="none">
<path d="M2010 5108 c0 -4 4 -8 9 -8 6 0 12 4 15 8 3 5 -1 9 -9 9 -8 0 -15 -4
-15 -9z"/>
<path d="M2060 5110 c8 -6 13 -10 10 -11 -34 -6 -43 -8 -48 -13 -3 -4 0 -12 7
-19 10 -9 15 -8 27 7 8 11 14 14 14 8 0 -7 5 -12 11 -12 8 0 7 6 -2 17 -12 14
-12 16 0 8 8 -5 12 -4 9 1 -4 5 4 10 16 10 13 1 28 -7 35 -18 10 -16 10 -19 0
-12 -9 5 -10 2 -6 -10 4 -10 3 -15 -4 -11 -5 4 -17 1 -25 -6 -9 -7 -30 -14
-47 -15 -18 -1 -26 0 -19 3 10 4 6 9 -10 17 -12 7 -21 19 -20 27 2 8 0 11 -4
7 -4 -4 -13 0 -21 10 -13 16 -13 15 -3 -3 5 -11 17 -30 25 -41 14 -19 14 -22
1 -27 -10 -4 -13 -1 -10 7 3 7 -3 19 -12 27 -10 8 -15 9 -11 3 10 -16 -18 -25
-33 -11 -10 9 -11 9 -5 -2 6 -11 3 -13 -15 -8 -23 6 -60 -11 -60 -27 0 -5 8
-2 18 7 20 18 37 23 28 8 -5 -8 15 -8 34 -1 3 1 9 2 14 1 4 -1 15 4 24 11 14
12 14 11 1 -9 -7 -12 -15 -20 -18 -18 -2 3 -10 0 -17 -6 -8 -7 -14 -7 -19 1
-5 8 -14 6 -28 -7 -19 -16 -20 -16 -8 0 9 12 10 17 2 17 -6 0 -14 -7 -18 -16
-5 -13 -7 -13 -14 -2 -5 7 -16 14 -26 14 -10 1 -22 3 -28 4 -21 5 -35 -1 -35
-14 0 -8 -7 -17 -16 -20 -9 -3 -12 -11 -8 -18 6 -10 4 -11 -7 0 -20 19 -31 14
-19 -8 6 -11 16 -17 22 -14 7 5 8 2 3 -5 -5 -9 -10 -10 -18 -2 -15 15 -30 14
-21 -1 5 -9 2 -9 -9 1 -19 15 -23 26 -5 15 7 -5 8 -3 3 6 -5 7 -4 11 1 8 5 -4
10 4 10 17 2 19 -1 21 -11 12 -7 -7 -11 -15 -9 -18 2 -4 -2 -12 -10 -18 -10
-8 -16 -8 -25 2 -6 8 -7 18 -3 22 4 5 1 5 -6 1 -9 -6 -10 -11 -2 -21 7 -9 6
-16 -4 -24 -10 -8 -16 -9 -21 -1 -3 5 -12 10 -18 9 -9 0 -9 -2 0 -5 7 -3 11
-11 9 -17 -1 -7 -1 -9 1 -5 2 3 15 4 28 2 18 -3 23 0 19 9 -3 8 2 14 10 14 11
0 12 -5 6 -17 -5 -10 -6 -21 -2 -25 4 -4 -2 -3 -14 3 -16 9 -26 7 -44 -5 -13
-9 -20 -11 -16 -5 4 7 -1 10 -14 9 -12 -1 -18 -7 -16 -14 3 -7 1 -15 -4 -18
-10 -6 -5 49 6 67 4 7 3 8 -4 4 -7 -4 -12 -15 -12 -24 -1 -15 -3 -14 -17 3
-13 16 -15 17 -10 3 4 -10 2 -18 -4 -18 -6 0 -7 -5 -3 -11 4 -8 9 -7 15 2 5 8
9 9 9 3 0 -22 -14 -23 -43 -2 -17 12 -27 16 -23 10 5 -9 0 -11 -18 -8 -15 3
-24 1 -21 -5 4 -5 11 -7 16 -4 5 4 9 -2 9 -11 0 -17 1 -16 13 1 10 13 16 15
21 6 5 -7 5 -15 2 -18 -3 -4 -6 0 -6 8 0 11 -2 11 -10 -1 -5 -8 -14 -16 -20
-16 -5 -1 -15 -2 -21 -3 -5 0 -7 -6 -3 -13 4 -6 3 -8 -4 -4 -6 3 -13 2 -16 -3
-4 -5 3 -13 15 -16 11 -4 18 -9 16 -12 -3 -2 -14 0 -26 6 -16 9 -23 7 -35 -11
-9 -12 -16 -17 -16 -10 0 19 4 27 13 24 4 -1 2 7 -5 18 -15 23 -23 17 -23 -18
0 -14 -6 -27 -14 -30 -9 -3 -11 1 -6 17 5 15 2 21 -10 21 -11 0 -15 -6 -11
-18 7 -20 -29 -48 -39 -32 -4 6 -1 9 6 8 7 -2 14 6 16 17 3 20 3 20 -5 0 -9
-19 -9 -19 -21 0 -10 16 -11 16 -7 3 6 -20 -4 -24 -20 -8 -7 7 -11 6 -11 -4 0
-8 3 -13 7 -11 3 2 12 -1 20 -6 13 -8 11 -12 -8 -27 -19 -14 -20 -20 -10 -32
11 -12 11 -12 -4 -1 -10 7 -15 18 -11 25 3 6 3 8 -2 4 -4 -4 -15 -2 -24 5 -8
6 -4 -4 9 -23 15 -21 18 -30 7 -21 -14 11 -18 11 -23 -3 -4 -10 -12 -15 -20
-12 -7 3 -15 -3 -18 -12 -3 -12 -4 -11 -2 3 1 11 8 19 15 17 7 -1 9 2 5 9 -4
7 -3 9 4 5 18 -11 23 11 5 25 -9 8 -14 9 -10 3 3 -6 -10 -25 -29 -42 -33 -29
-35 -37 -10 -33 5 1 3 -6 -4 -16 -22 -28 -24 -29 -17 -11 4 12 -1 21 -15 29
-15 8 -18 8 -14 0 4 -6 -4 -15 -19 -21 -14 -5 -23 -14 -20 -20 9 -15 17 -12 9
3 -4 6 -3 9 1 4 5 -4 16 0 26 9 16 14 17 14 14 -3 -1 -10 -8 -17 -14 -16 -6 2
-11 -1 -11 -7 0 -5 -13 -7 -29 -5 -18 2 -35 -2 -42 -11 -7 -9 -8 -14 -1 -14 6
0 12 5 14 10 2 6 9 0 17 -12 13 -22 13 -22 -4 -8 -17 14 -18 13 -12 -2 3 -10
3 -17 -1 -15 -4 1 -8 -2 -10 -8 -1 -5 2 -10 7 -10 5 0 12 -3 15 -6 9 -9 -37
-5 -52 4 -7 5 -10 13 -6 18 3 5 9 7 14 4 5 -3 11 -1 14 4 4 5 -7 9 -24 9 -17
-1 -26 -4 -20 -8 7 -5 6 -11 -5 -20 -13 -11 -19 -8 -17 11 1 3 -6 6 -14 6 -12
0 -12 -3 1 -17 8 -9 12 -19 9 -23 -9 -8 32 -28 41 -19 5 4 5 1 1 -6 -6 -9 -12
-9 -29 -1 -12 7 -25 17 -29 23 -6 8 -8 8 -8 -1 0 -21 12 -43 21 -37 5 3 9 0 9
-5 0 -17 -17 -13 -32 7 -7 9 -26 18 -43 19 -16 0 -24 -1 -17 -4 6 -2 9 -9 6
-14 -3 -6 -12 -5 -22 3 -15 11 -15 11 -5 -3 7 -9 10 -19 6 -23 -11 -11 -14
-48 -3 -41 15 9 12 -11 -4 -24 -8 -6 -20 -10 -27 -9 -8 2 -13 -3 -11 -10 1 -8
-2 -11 -7 -7 -12 7 -33 -29 -23 -40 4 -5 1 -5 -5 -1 -9 5 -13 1 -13 -11 0 -15
-2 -16 -10 -3 -6 10 -6 16 0 18 18 6 31 39 15 39 -7 0 -11 -7 -8 -14 4 -10 0
-13 -13 -11 -10 2 -19 -3 -20 -9 -1 -7 -2 -19 -3 -25 -1 -9 -6 -7 -15 5 -12
16 -14 16 -20 2 -4 -10 -2 -14 5 -9 7 4 10 1 7 -7 -3 -8 -14 -13 -24 -11 -15
2 -16 1 -4 -7 9 -7 19 -6 27 1 7 6 13 7 13 2 1 -5 7 2 15 16 10 18 14 20 15 8
0 -9 -5 -20 -10 -23 -6 -4 -7 -11 -4 -17 4 -6 2 -8 -4 -4 -6 3 -14 2 -17 -4
-4 -7 -12 -7 -18 -2 -16 11 -42 9 -42 -3 0 -5 -4 -17 -10 -25 -8 -13 -7 -13
10 0 17 14 17 13 10 -9 -5 -18 -4 -22 5 -16 9 5 11 4 6 -4 -4 -6 -12 -9 -17
-6 -5 4 -9 1 -9 -4 0 -6 5 -11 10 -11 6 0 10 -5 10 -11 0 -8 -4 -8 -14 0 -10
8 -16 9 -21 1 -3 -5 -1 -10 4 -10 6 0 11 -5 11 -11 0 -8 -4 -9 -13 0 -8 6 -18
7 -23 3 -5 -4 -2 2 7 13 9 11 19 25 22 31 9 15 -20 27 -29 12 -4 -7 -3 -8 4
-4 7 4 12 1 12 -8 0 -9 -6 -15 -12 -14 -8 2 -12 -6 -12 -20 1 -14 -3 -21 -11
-19 -6 3 -12 0 -12 -6 -3 -57 -32 -102 -61 -92 -6 2 -12 0 -12 -6 0 -6 -4 -8
-8 -5 -4 2 -14 1 -22 -4 -18 -11 50 -6 72 5 7 3 5 0 -4 -8 -10 -8 -14 -18 -10
-23 4 -4 -2 -2 -12 6 -18 14 -19 13 -13 -3 4 -10 3 -16 -2 -12 -5 3 -12 1 -16
-5 -3 -5 -1 -10 4 -10 6 0 11 -5 11 -11 0 -8 -4 -8 -13 -1 -16 14 -42 -1 -35
-20 3 -8 0 -22 -8 -32 -10 -14 -10 -24 -3 -39 8 -13 8 -17 0 -13 -10 7 -34
-27 -26 -36 3 -3 -2 -5 -10 -5 -10 0 -12 4 -4 13 5 6 8 18 7 25 -2 8 3 13 10
11 18 -3 15 12 -6 31 -15 14 -19 15 -19 2 0 -8 4 -12 9 -9 9 6 11 -10 2 -19
-10 -10 -34 4 -27 17 3 6 2 8 -2 3 -13 -12 -16 -47 -4 -47 5 0 7 5 4 10 -3 6
-2 10 4 10 18 0 23 -20 7 -26 -9 -3 -14 -10 -11 -14 6 -10 -24 -22 -38 -14 -7
3 -4 -1 6 -9 10 -9 20 -27 21 -41 3 -22 1 -24 -11 -14 -10 8 -11 13 -2 18 8 6
8 9 0 14 -6 4 -11 2 -11 -4 0 -6 -6 -8 -12 -4 -7 4 -10 3 -5 -1 4 -5 -1 -18
-10 -29 -18 -21 -18 -21 5 -2 27 24 30 6 2 -19 -20 -18 -20 -18 7 -37 16 -10
22 -18 16 -18 -21 0 -28 4 -25 15 2 5 0 7 -4 3 -4 -4 -13 -3 -21 3 -23 20 -14
-3 11 -26 24 -22 24 -23 5 -28 -10 -3 -22 0 -26 5 -3 7 -1 8 5 4 7 -4 12 -3
12 3 0 18 -18 21 -24 5 -5 -12 -10 -13 -19 -6 -8 7 -18 8 -27 1 -12 -8 -11 -9
5 -7 17 3 20 -2 17 -34 -2 -30 0 -36 13 -32 8 3 15 1 15 -5 0 -6 -3 -10 -7 -9
-5 2 -10 -1 -11 -7 -2 -5 -8 -16 -14 -22 -6 -7 -7 -13 -3 -13 5 0 1 -8 -8 -18
-10 -10 -14 -22 -10 -27 5 -4 2 -5 -5 -1 -7 4 -10 11 -7 16 6 10 -21 7 -32 -4
-4 -4 -1 -6 7 -4 9 2 15 -4 15 -17 0 -11 4 -26 9 -34 7 -10 6 -12 -4 -6 -10 6
-12 4 -7 -9 4 -11 3 -15 -4 -11 -6 4 -8 13 -5 21 7 18 -13 18 -36 0 -18 -13
-26 -32 -9 -22 8 5 17 -12 26 -52 3 -10 0 -10 -11 -1 -7 6 -12 15 -9 19 9 14
-16 23 -28 11 -9 -9 -8 -11 5 -6 12 5 16 2 13 -12 -2 -10 -4 -22 -4 -26 -1 -5
-5 -6 -9 -3 -5 3 -9 -1 -9 -9 0 -8 4 -12 9 -9 4 3 8 0 8 -6 0 -6 5 -8 12 -4 7
4 8 3 4 -5 -4 -6 -12 -9 -17 -6 -5 4 -9 2 -9 -4 0 -5 -7 -17 -16 -25 -8 -9
-10 -16 -4 -16 6 0 13 7 16 15 4 8 11 15 16 15 6 0 3 -11 -6 -25 -21 -31 -20
-41 1 -24 11 10 14 10 9 2 -4 -7 -2 -13 3 -13 6 0 11 -5 11 -11 0 -8 -4 -8
-13 0 -19 15 -57 -12 -41 -29 9 -9 14 -9 19 1 5 8 4 10 -3 5 -7 -4 -12 -2 -12
3 0 6 7 11 15 11 15 0 15 -18 0 -53 -4 -10 -2 -24 6 -35 13 -15 12 -16 -3 -4
-11 9 -18 10 -23 2 -3 -5 0 -10 7 -10 10 0 9 -3 -2 -11 -12 -9 -11 -10 8 -6
13 3 20 1 16 -5 -3 -5 -15 -8 -25 -5 -10 3 -22 1 -25 -4 -7 -12 -24 -12 -24 0
0 5 9 13 21 16 11 4 18 9 15 12 -3 4 -1 12 5 20 6 7 8 13 4 13 -4 0 -2 6 4 14
9 11 8 15 -6 21 -28 13 -44 14 -37 4 3 -5 9 -7 14 -4 5 3 12 0 16 -6 8 -13
-16 -30 -30 -22 -5 3 -6 1 -2 -5 4 -6 14 -8 22 -5 14 5 14 3 2 -16 -11 -18
-14 -19 -24 -6 -6 8 -15 15 -20 15 -4 0 -3 -5 4 -12 19 -19 14 -32 -5 -17 -15
11 -16 11 -5 -1 13 -15 17 -34 4 -26 -12 7 -10 -128 2 -136 8 -5 7 -8 -1 -8
-18 0 -17 -708 0 -729 9 -12 9 -13 0 -8 -9 6 -12 -2 -11 -28 1 -19 5 -35 10
-35 4 0 8 -5 8 -11 0 -5 -4 -8 -9 -5 -4 3 -8 -15 -7 -39 0 -25 5 -45 10 -45 4
0 2 -8 -5 -17 -13 -16 -12 -17 3 -4 10 7 15 17 12 22 -3 5 2 6 11 3 11 -5 13
-10 5 -19 -8 -9 -4 -17 15 -29 25 -16 37 -45 13 -29 -17 10 -42 14 -33 5 4 -4
10 -7 14 -7 3 0 14 -7 23 -15 15 -14 15 -16 0 -35 -16 -18 -16 -19 0 -6 19 14
25 2 8 -15 -8 -8 -6 -15 5 -24 10 -8 15 -9 15 -1 0 6 -5 11 -12 11 -8 0 -6 6
5 17 16 16 18 16 35 -1 13 -14 14 -17 2 -14 -17 3 -21 -42 -5 -54 6 -5 4 -8
-5 -8 -8 0 2 -16 25 -40 21 -22 36 -40 32 -40 -3 0 -15 10 -27 22 l-20 22 0
-23 c0 -12 -4 -20 -8 -17 -4 2 -8 -4 -8 -14 0 -10 4 -16 8 -14 4 3 8 1 8 -5 0
-5 10 -13 21 -16 12 -4 18 -10 13 -14 -13 -9 -17 -34 -4 -26 5 3 10 1 10 -4 0
-6 4 -11 8 -11 5 0 9 7 9 15 0 8 -5 11 -10 8 -6 -4 -8 0 -4 10 4 10 -3 21 -19
31 -25 17 -34 41 -11 33 6 -2 11 -10 10 -16 -2 -6 2 -12 7 -12 11 -2 25 -5 38
-9 4 -1 11 -2 15 -1 5 1 6 -3 2 -9 -3 -6 -11 -8 -16 -5 -5 4 -9 2 -9 -4 0 -5
6 -12 13 -14 9 -4 9 -6 -1 -6 -8 -1 -10 -6 -5 -13 18 -30 19 -78 1 -89 -7 -4
-9 -11 -6 -15 4 -4 3 -16 -3 -28 -8 -17 -7 -16 10 4 10 13 17 28 15 32 -3 4
-1 8 4 8 6 0 13 -7 16 -16 3 -8 2 -13 -3 -10 -5 3 -12 -1 -15 -10 -4 -11 -2
-15 7 -11 10 4 13 -2 11 -20 -3 -28 14 -73 28 -73 4 0 8 -7 8 -15 0 -8 4 -15
8 -15 14 0 10 29 -4 34 -21 8 -31 39 -23 66 l8 25 -1 -25 c-1 -42 2 -51 11
-45 6 3 8 15 6 27 -3 11 -1 18 2 14 4 -4 8 -17 9 -29 3 -47 15 -68 44 -80 12
-4 12 -6 -1 -6 -9 -1 -22 -7 -28 -15 -9 -11 -8 -15 4 -20 9 -3 13 -2 10 3 -3
5 -1 13 5 16 6 4 9 1 8 -7 -2 -7 3 -12 10 -11 6 2 12 -2 12 -7 0 -6 -4 -10 -9
-10 -6 0 -8 -9 -6 -20 5 -28 -4 -51 -18 -43 -6 3 -7 1 -3 -6 6 -8 12 -9 20 -2
7 6 16 8 20 4 4 -4 4 1 0 12 -6 16 -4 18 6 8 14 -13 6 -48 -9 -38 -5 3 -12 1
-15 -4 -8 -13 13 -8 51 11 22 11 35 13 39 6 4 -7 2 -8 -4 -4 -7 4 -12 3 -12
-2 0 -5 -10 -14 -22 -20 -21 -10 -21 -11 7 -7 17 2 37 0 45 -6 11 -8 9 -9 -9
-4 -16 5 -21 4 -17 -4 4 -6 0 -14 -8 -17 -9 -3 -16 -10 -16 -16 0 -5 4 -7 9
-4 5 3 11 -3 14 -14 3 -10 0 -21 -7 -24 -6 -3 -4 -5 4 -5 29 2 41 -1 36 -9 -2
-4 10 -8 27 -7 24 0 32 -5 34 -20 2 -15 1 -16 -5 -5 -9 19 -39 22 -46 5 -3 -8
2 -11 15 -8 11 3 19 0 19 -6 0 -7 -4 -10 -8 -7 -4 2 -14 1 -22 -4 -10 -6 -3
-8 22 -6 21 2 36 0 33 -4 -3 -5 1 -11 7 -14 7 -3 4 -4 -7 -1 -16 4 -21 0 -22
-17 -1 -13 1 -18 5 -12 9 14 50 25 56 15 3 -4 -1 -19 -9 -34 -8 -16 -10 -29
-4 -32 9 -6 13 2 10 19 -1 5 5 6 12 3 8 -3 21 0 28 6 7 7 6 2 -4 -9 -16 -19
-16 -22 -3 -27 10 -4 13 -13 10 -24 -5 -15 -4 -15 4 -3 8 10 8 18 0 27 -7 9
-7 13 0 13 16 0 20 -22 10 -49 -5 -13 -6 -26 -3 -29 3 -3 5 0 5 7 0 7 5 9 10
6 6 -4 7 -12 3 -18 -16 -25 -12 -37 8 -24 13 8 15 13 6 19 -7 4 -8 8 -3 8 6 0
5 5 -2 12 -7 7 -12 17 -12 23 0 5 5 2 11 -8 6 -9 13 -15 17 -13 4 2 7 -9 7
-24 1 -16 -2 -27 -6 -24 -4 2 -11 0 -14 -6 -4 -6 -1 -9 6 -8 7 2 13 -2 14 -9
0 -6 4 -15 9 -20 5 -4 6 -3 2 4 -3 6 -2 14 3 18 6 3 8 12 5 19 -3 8 4 16 18
19 19 5 20 4 8 -6 -8 -7 -16 -23 -17 -37 -2 -22 -1 -23 8 -7 11 18 29 15 29
-6 0 -7 -4 -6 -11 3 -9 13 -10 13 -6 0 2 -10 15 -14 35 -13 18 1 32 -3 32 -8
0 -6 -4 -8 -8 -5 -5 3 -16 -4 -25 -15 -9 -10 -13 -19 -7 -19 5 0 12 5 15 10 5
8 11 8 20 0 7 -6 19 -9 26 -7 8 2 11 2 7 0 -5 -3 -8 -12 -9 -21 0 -11 -2 -12
-6 -4 -2 6 -10 9 -15 6 -6 -4 -8 -2 -4 4 3 6 2 13 -4 17 -5 3 -10 -1 -10 -10
0 -9 -4 -14 -8 -11 -5 3 -9 -1 -9 -9 0 -10 4 -12 12 -5 6 5 17 5 24 0 18 -10
43 -1 34 13 -3 6 -1 7 5 3 15 -9 15 -11 -4 -31 -15 -15 -15 -17 0 -34 9 -10
13 -21 9 -25 -4 -4 1 -4 11 0 13 5 17 4 13 -3 -4 -6 0 -14 9 -17 9 -4 13 -2 8
5 -4 7 -7 21 -8 32 -1 11 -8 23 -16 25 -13 5 -13 3 -1 -11 7 -10 9 -17 3 -17
-5 0 -15 7 -22 15 -10 12 -9 16 4 21 20 8 49 -14 42 -32 -3 -7 2 -18 9 -24 8
-7 13 -16 10 -20 -7 -11 22 -6 32 5 4 4 3 5 -3 2 -11 -7 -12 29 -1 38 4 3 5 2
2 -1 -10 -14 16 -43 33 -38 14 5 14 4 2 -5 -8 -5 -11 -13 -7 -17 3 -4 13 -1
22 6 8 7 15 8 15 4 0 -5 -9 -15 -20 -22 -21 -13 -27 -32 -9 -32 5 0 8 4 5 9
-3 5 4 12 17 16 34 11 57 13 51 4 -2 -4 -12 -6 -22 -3 -14 5 -14 3 2 -10 11
-9 14 -16 7 -16 -7 0 -9 -5 -6 -10 5 -8 11 -8 19 -1 16 14 26 4 19 -17 -4 -10
-3 -14 2 -10 4 4 14 3 22 -3 10 -9 13 -8 13 4 0 9 4 18 8 21 4 2 8 -4 8 -15 0
-10 -3 -19 -6 -20 -3 0 -13 -2 -23 -4 -10 -2 -14 1 -11 7 4 7 2 8 -4 4 -6 -3
-15 2 -21 11 -6 10 -11 13 -11 7 0 -6 9 -21 20 -34 11 -13 20 -18 20 -11 0 7
4 10 10 6 5 -3 7 -13 4 -23 -5 -14 -4 -14 4 -2 6 8 8 18 6 22 -3 4 0 8 5 8 6
0 11 -5 11 -11 0 -5 4 -7 10 -4 6 3 7 -1 4 -9 -3 -9 -10 -14 -14 -11 -5 3 -5
-5 -2 -17 5 -18 7 -19 10 -6 2 11 9 15 20 12 13 -5 14 -4 3 4 -9 7 -10 12 -2
16 10 6 13 0 10 -20 -2 -14 26 -23 34 -11 6 8 7 6 3 -5 -6 -20 10 -25 17 -5 4
9 6 8 6 -2 1 -11 4 -11 19 0 9 7 14 10 10 5 -4 -4 4 -19 18 -33 17 -16 23 -31
19 -44 -4 -10 -2 -19 4 -19 5 0 18 -8 27 -18 17 -16 18 -16 11 0 -4 13 -1 18
9 18 10 0 14 -6 11 -14 -4 -10 0 -14 13 -11 11 2 23 -1 26 -7 4 -7 14 -2 26
13 l18 24 -10 -28 c-7 -21 -7 -26 2 -21 8 5 9 2 5 -10 -4 -10 -3 -15 3 -11 6
3 10 1 10 -6 0 -10 3 -10 12 -1 21 21 32 13 13 -8 -17 -18 -17 -20 -2 -14 17
6 21 16 18 42 -1 6 2 12 7 12 16 0 34 -28 27 -40 -8 -13 24 -52 36 -44 5 3 9
0 9 -7 0 -7 3 -10 6 -7 3 4 0 17 -7 30 l-12 23 24 -20 c13 -11 27 -24 30 -28
3 -5 9 -2 12 7 3 8 1 17 -6 20 -8 3 -8 5 -1 5 6 1 19 -8 29 -19 14 -15 22 -17
37 -9 12 6 18 7 14 1 -3 -5 3 -17 14 -27 12 -10 20 -13 20 -7 0 7 5 12 11 12
8 0 8 -4 1 -13 -8 -9 -6 -16 8 -25 12 -7 21 -8 25 -2 3 6 1 10 -5 10 -6 0 -8
5 -5 11 9 14 34 -21 28 -38 -3 -7 0 -13 6 -13 6 0 11 7 11 15 0 8 4 15 10 15
5 0 7 -7 4 -15 -4 -8 -2 -15 2 -16 5 0 22 -3 37 -5 18 -3 26 -1 22 5 -3 7 0 8
9 5 9 -3 14 -9 12 -13 -3 -4 3 -12 13 -18 14 -9 18 -8 18 3 0 7 -5 10 -11 7
-6 -3 -8 -3 -4 2 4 4 2 15 -5 24 -10 14 -10 14 5 3 9 -7 18 -9 20 -5 3 4 3 2
2 -4 -4 -16 12 -17 21 -3 5 8 11 7 21 -1 8 -6 14 -8 14 -3 0 5 5 2 10 -6 8
-12 10 -12 10 -1 0 8 3 12 6 9 3 -4 0 -16 -6 -28 -8 -15 -8 -20 -1 -16 6 4 11
2 11 -4 0 -6 5 -8 10 -5 6 3 10 -3 10 -14 0 -23 15 -28 26 -9 5 7 3 8 -6 3 -9
-5 -10 -2 -6 13 4 12 2 23 -5 28 -8 4 -9 3 -5 -4 5 -8 2 -10 -8 -6 -9 3 -13
10 -10 16 3 5 12 7 19 4 7 -2 19 1 26 7 11 10 11 9 0 -5 -16 -22 -8 -23 23 -3
19 13 23 13 23 1 0 -8 -6 -12 -14 -9 -25 10 -13 -7 17 -22 17 -9 30 -11 30 -6
0 5 -5 11 -10 13 -6 2 -1 9 9 15 13 8 22 9 26 3 4 -6 1 -9 -7 -8 -15 3 -12
-35 3 -40 5 -2 9 -9 9 -15 0 -8 -4 -7 -12 1 -13 13 -32 16 -24 4 2 -4 -4 -8
-14 -8 -10 0 -16 5 -13 10 4 5 0 6 -8 1 -12 -8 -12 -6 0 8 7 10 9 17 3 17 -6
0 -12 -3 -15 -7 -2 -5 -2 -2 0 5 1 8 -2 10 -9 6 -7 -5 -8 -3 -3 6 5 9 4 11 -4
6 -9 -6 -8 -14 5 -33 13 -21 14 -25 2 -20 -8 3 -21 2 -28 -3 -7 -4 236 -8 540
-8 304 0 547 4 540 8 -7 5 -20 5 -29 2 -13 -5 -14 -3 -3 10 7 9 20 15 30 13 9
-1 11 0 4 2 -7 3 -10 8 -7 13 3 5 12 7 19 4 8 -3 21 5 30 18 9 13 20 22 24 21
4 -1 9 1 12 4 3 4 0 4 -5 0 -6 -3 -17 -1 -25 5 -12 8 -12 9 3 4 10 -3 17 0 17
7 0 8 4 7 10 -3 9 -13 11 -13 20 0 5 8 10 10 10 5 0 -6 9 -11 21 -12 16 -1 18
1 10 11 -8 9 -7 13 4 13 8 0 12 -4 9 -9 -3 -4 2 -8 11 -8 10 0 13 5 9 12 -5 7
-3 8 6 3 10 -6 12 -4 7 9 -4 10 -3 15 3 11 6 -3 10 -13 10 -21 0 -8 4 -13 9
-9 5 3 12 1 16 -4 3 -6 -6 -8 -21 -5 -16 3 -23 1 -19 -6 7 -11 32 -9 53 3 6 5
12 5 12 1 0 -4 8 0 18 9 10 10 22 14 25 10 4 -3 7 -1 7 5 0 16 -15 15 -32 -1
-16 -14 -38 -20 -38 -9 0 8 49 32 67 32 12 0 17 -12 14 -32 0 -4 6 -5 14 -2 8
4 15 10 15 16 0 5 -5 6 -11 2 -8 -4 -9 1 -4 17 4 15 3 19 -3 11 -6 -9 -13 -7
-28 10 -10 13 -12 17 -3 11 18 -14 62 -6 52 10 -4 6 -1 7 7 2 8 -5 11 -3 8 6
-3 8 -11 13 -17 11 -7 -1 -10 2 -6 8 4 7 17 3 36 -10 34 -25 36 -29 12 -25
-19 3 -43 -12 -43 -26 0 -5 5 -9 11 -9 5 0 7 4 4 10 -6 9 7 13 48 13 12 0 14
3 8 11 -6 7 -4 18 5 30 8 11 14 15 14 10 0 -6 7 -11 15 -11 10 0 14 6 10 15
-4 12 -3 13 10 2 14 -12 20 -7 15 15 -1 5 2 7 6 3 4 -4 14 -2 23 4 9 7 5 0 -8
-15 -14 -15 -19 -27 -13 -27 6 0 14 5 17 10 3 6 11 10 17 10 6 0 5 -7 -3 -17
-12 -14 -12 -16 0 -8 11 6 13 4 8 -9 -4 -11 -3 -15 4 -11 6 4 8 13 5 21 -3 7
3 23 13 36 17 21 17 23 2 35 -13 11 -11 11 12 1 27 -11 27 -13 11 -25 -18 -13
-30 -48 -12 -37 5 3 7 8 4 11 -3 3 5 14 17 24 19 16 20 20 7 28 -12 8 -10 10
7 8 12 0 21 -5 20 -10 -1 -5 4 -11 11 -13 7 -1 8 0 2 3 -5 2 -7 9 -4 14 3 6
12 5 22 -3 15 -12 16 -11 3 5 -7 9 -10 17 -6 17 4 0 1 8 -6 18 -11 14 -11 15
1 4 17 -14 34 -16 25 -2 -6 9 -1 11 35 14 8 1 14 9 14 19 -2 15 1 16 14 5 13
-11 15 -10 9 5 -4 11 -3 16 3 12 6 -3 10 -2 10 2 0 11 61 48 80 48 8 1 14 6
13 12 -1 6 3 10 10 9 7 -1 12 -6 12 -11 0 -6 -4 -9 -8 -7 -5 1 -6 -2 -3 -7 4
-6 -4 -8 -18 -5 -14 2 -28 -1 -32 -8 -5 -8 -2 -9 10 -5 14 6 17 3 12 -10 -5
-15 -4 -15 9 1 8 11 15 16 15 11 0 -5 11 2 25 15 14 13 25 18 25 12 0 -6 -4
-14 -10 -17 -13 -8 -13 -25 0 -25 5 0 9 5 7 12 -1 7 3 12 10 13 6 0 15 4 20 9
4 5 3 6 -3 3 -7 -4 -15 0 -18 9 -9 25 -7 27 11 13 13 -11 15 -11 9 -1 -13 22
-14 61 -1 56 6 -3 12 -11 12 -19 0 -8 -5 -11 -11 -8 -6 3 -7 2 -3 -2 13 -15
36 -14 31 0 -8 19 36 75 52 68 10 -4 12 0 8 13 -4 14 -3 16 4 5 6 -8 12 -9 16
-3 3 6 2 13 -4 17 -6 4 -8 11 -4 16 3 5 10 6 16 3 6 -4 14 0 19 7 6 9 9 10 9
2 0 -7 -8 -17 -17 -22 -10 -6 -13 -11 -6 -11 6 0 15 -9 18 -21 4 -11 9 -18 12
-16 2 3 -1 15 -7 28 -10 19 -10 21 3 16 13 -5 14 -1 7 23 -6 22 -5 27 5 24 7
-3 12 -12 11 -21 0 -9 5 -17 12 -19 7 -1 8 0 2 3 -16 8 -11 26 6 19 8 -3 13
-2 10 3 -3 5 1 12 10 15 12 4 15 2 11 -9 -4 -8 -1 -17 5 -21 6 -4 8 -3 4 4 -3
6 2 18 11 28 16 16 16 17 1 12 -13 -6 -16 -2 -12 18 3 18 1 23 -7 18 -8 -4 -9
-3 -5 5 6 9 11 9 21 1 9 -8 15 -8 20 0 3 6 10 8 15 5 5 -3 14 5 20 17 10 21
10 21 -3 5 -14 -16 -15 -16 -21 -1 -4 9 -4 19 -1 22 3 3 5 0 5 -8 0 -10 3 -10
15 0 8 6 19 9 25 5 5 -3 10 -2 10 4 0 5 -6 12 -12 14 -10 4 -10 6 0 6 8 1 10
6 6 14 -5 8 -2 8 9 -2 9 -7 17 -10 17 -6 0 4 8 1 17 -6 10 -8 14 -9 10 -2 -4
7 0 16 10 22 10 6 13 11 8 11 -14 0 -14 43 -1 52 6 4 17 1 26 -6 10 -9 21 -11
35 -5 19 9 19 9 -1 6 -13 -3 -26 3 -33 15 -7 12 -8 17 -2 13 19 -11 52 -14 46
-4 -4 5 -1 9 6 9 7 0 9 3 6 6 -4 4 -13 1 -21 -5 -11 -9 -16 -9 -22 1 -4 7 -4
10 1 6 4 -4 14 0 22 8 10 10 19 12 27 5 8 -7 12 -4 13 10 2 19 -8 25 -21 12
-3 -4 -15 -8 -26 -10 -19 -3 -19 -2 -2 15 11 12 20 14 24 8 5 -7 8 -4 8 7 0 9
5 17 11 17 5 0 7 -6 3 -12 -5 -8 0 -7 11 2 17 14 18 13 12 -3 -4 -11 -3 -16 4
-12 6 4 8 13 5 21 -3 8 -1 14 5 14 6 0 7 5 3 12 -5 7 -2 9 9 5 11 -4 14 -2 11
8 -3 8 -12 11 -20 8 -8 -3 -14 0 -14 7 0 6 -4 9 -8 6 -5 -3 -9 1 -9 9 0 13 3
13 17 0 15 -14 19 -14 31 2 12 15 12 16 -3 10 -10 -3 -20 -1 -24 5 -4 7 -3 8
4 4 6 -4 26 7 44 23 18 17 28 31 22 31 -6 0 -17 -7 -24 -15 -7 -8 -17 -15 -23
-15 -6 0 5 12 24 26 19 14 33 30 31 35 -1 6 2 8 7 5 5 -4 12 -2 16 4 3 5 12
10 18 10 7 0 4 -6 -5 -14 -10 -7 -14 -17 -10 -21 4 -5 1 -5 -7 0 -10 6 -12 4
-6 -5 5 -8 4 -11 -3 -6 -7 4 -10 -1 -7 -14 2 -11 0 -18 -6 -15 -14 9 -11 -1 5
-14 11 -9 13 -7 12 11 -1 14 7 27 22 34 30 15 41 27 17 18 -18 -7 -19 -6 -6
10 13 15 13 19 0 27 -11 7 -10 9 7 9 11 0 25 -5 30 -10 7 -7 11 -6 11 4 0 8
-4 13 -8 10 -4 -2 -11 1 -14 7 -4 5 -13 8 -19 6 -7 -3 -13 1 -13 8 0 10 5 11
18 4 25 -13 29 -11 23 9 -5 14 -3 14 12 -3 14 -17 16 -17 11 -2 -5 12 0 20 16
27 13 5 16 9 6 9 -8 1 -20 -4 -27 -11 -7 -7 -12 -8 -12 -4 0 5 -7 3 -15 -4
-10 -9 -15 -9 -15 -1 0 6 5 11 11 11 5 0 7 5 3 12 -4 6 -3 8 4 5 13 -9 42 2
42 15 0 6 -7 7 -16 4 -8 -3 -13 -2 -9 3 3 5 -1 12 -7 15 -7 3 -2 3 12 -1 23
-5 24 -5 10 13 -11 15 -11 16 0 7 19 -17 30 -16 30 2 0 8 5 15 10 15 14 0 -5
-36 -22 -43 -10 -4 -10 -6 0 -6 7 -1 11 -5 8 -9 -3 -5 1 -9 9 -9 10 0 12 4 5
12 -10 12 -4 25 12 25 5 0 6 -5 2 -12 -4 -6 -3 -8 4 -4 6 3 9 15 7 26 -2 11 4
24 13 29 9 5 13 13 8 18 -5 4 -11 2 -13 -5 -3 -6 -10 -9 -15 -6 -7 5 -8 2 -3
-6 5 -8 4 -11 -3 -6 -22 13 2 42 31 37 4 -1 3 8 -3 18 -6 11 -16 19 -23 17 -6
-1 -9 -1 -4 1 4 3 4 10 1 15 -5 7 -2 8 6 3 10 -6 12 -4 7 8 -3 9 -1 19 5 23 7
4 8 3 4 -4 -4 -7 -2 -12 5 -12 9 0 9 -3 0 -14 -9 -10 -8 -15 2 -19 18 -7 16
51 -3 63 -10 7 -11 10 -3 10 7 0 18 -9 25 -20 7 -11 17 -20 22 -20 6 0 5 5 -2
12 -19 19 -14 32 6 17 15 -13 16 -12 4 3 -8 10 -19 16 -25 15 -6 -1 -12 8 -13
20 -1 12 2 20 7 17 4 -2 5 -12 2 -22 -7 -16 -5 -16 20 1 18 11 27 13 27 6 0
-7 3 -9 6 -6 8 8 -14 37 -28 37 -5 0 -6 -5 -2 -12 5 -7 3 -8 -6 -3 -10 6 -7
13 12 29 14 12 24 29 23 39 -2 11 -1 16 2 13 8 -8 32 25 33 44 0 13 -1 13 -10
0 -5 -8 -10 -10 -10 -4 0 11 32 44 43 44 4 0 7 -5 7 -11 0 -5 -5 -7 -12 -3 -7
5 -8 3 -3 -6 5 -9 4 -11 -3 -6 -8 5 -10 1 -5 -10 5 -15 7 -15 15 0 5 9 13 14
19 11 5 -4 6 2 2 11 -5 13 -3 15 8 9 12 -7 12 -6 1 7 -11 14 -10 18 6 27 17 9
19 14 9 35 -8 16 -14 21 -19 13 -5 -8 -8 -8 -8 -1 0 6 8 18 18 27 15 14 19 15
19 2 0 -8 -5 -12 -10 -8 -5 3 -4 -4 2 -16 13 -24 23 -29 15 -7 -3 8 0 17 5 21
6 3 8 12 4 18 -12 19 -12 37 -1 37 6 0 5 7 -2 16 -8 8 -15 27 -16 42 -2 20 -1
23 6 12 7 -11 10 -11 10 -2 0 7 6 10 13 7 6 -4 5 -1 -3 7 -8 7 -22 22 -30 33
-15 20 -14 20 8 1 17 -15 25 -17 34 -8 9 9 9 15 -1 25 -12 10 -13 9 -7 -7 5
-16 4 -17 -9 -6 -24 20 -18 29 18 25 25 -3 28 -2 15 6 -9 5 -15 16 -12 24 4 8
11 12 17 8 5 -3 7 -1 4 4 -4 6 1 17 10 24 15 12 16 12 9 -5 -7 -19 -6 -19 12
-3 19 17 19 38 20 557 0 458 -2 538 -14 533 -10 -4 -12 0 -8 11 3 9 1 16 -6
16 -6 0 -9 -4 -6 -9 8 -12 -19 -33 -29 -23 -4 4 -2 -3 4 -16 7 -12 17 -20 23
-16 7 4 8 3 4 -5 -4 -7 -2 -10 5 -9 6 2 14 -4 16 -12 4 -12 3 -12 -5 -1 -6 8
-12 10 -16 3 -4 -6 2 -15 11 -21 14 -8 15 -11 3 -12 -8 -1 -19 -1 -24 0 -4 1
-14 -3 -21 -9 -10 -8 -15 -8 -21 1 -4 7 -3 9 4 5 6 -3 16 2 21 12 8 15 6 23
-8 36 -10 9 -21 13 -26 9 -4 -5 -5 -2 -1 5 4 7 12 9 18 6 8 -5 9 -1 5 10 -4
10 -1 19 9 23 13 5 13 7 2 14 -7 5 -17 9 -23 9 -5 0 -3 -5 5 -10 8 -5 11 -10
5 -10 -5 0 -17 5 -25 10 -13 9 -13 10 0 10 11 0 12 2 2 8 -9 6 -5 12 13 22 14
7 25 18 25 23 0 5 -6 4 -14 -2 -11 -9 -15 -8 -20 4 -3 9 -10 13 -16 10 -6 -3
-7 1 -4 9 3 9 10 16 16 16 5 0 6 -5 2 -12 -5 -7 -3 -8 6 -3 9 5 11 4 6 -3 -4
-7 -5 -12 -2 -12 3 0 10 8 15 19 8 15 7 18 -6 17 -9 0 -18 5 -21 13 -3 9 0 11
7 6 9 -5 9 -2 0 13 -7 12 -16 19 -20 16 -4 -2 -10 0 -13 5 -4 5 -2 12 4 16 6
4 7 11 4 17 -4 7 -2 8 5 4 6 -4 8 -12 5 -18 -4 -7 -2 -8 4 -4 15 9 4 36 -14
36 -13 0 -16 7 -13 26 0 4 -5 10 -12 15 -10 6 -10 11 0 23 7 9 18 13 24 9 6
-4 7 -1 2 7 -6 10 -4 12 11 6 15 -5 16 -4 7 5 -9 9 -19 6 -44 -12 -18 -12 -29
-18 -26 -12 4 7 0 16 -9 21 -11 6 -14 16 -9 31 6 21 8 22 26 5 22 -20 17 -33
-6 -14 -8 7 -15 8 -15 2 0 -5 6 -15 13 -21 11 -8 19 -4 38 16 13 15 17 22 8
15 -13 -10 -19 -8 -34 8 -17 19 -19 19 -38 3 -13 -11 -17 -12 -12 -4 6 11 4
13 -9 8 -11 -4 -15 -3 -11 4 4 6 14 8 22 5 9 -4 13 -1 10 6 -2 7 -13 12 -23
11 -10 -1 -13 0 -6 3 6 3 9 11 5 17 -5 9 -3 9 8 0 10 -8 19 -9 29 -1 12 8 12
9 -2 4 -12 -3 -18 0 -18 10 0 8 -4 13 -9 10 -11 -7 -8 21 4 31 4 4 5 2 0 -6
-5 -10 -4 -12 3 -7 9 5 9 13 2 26 -12 23 -13 43 -2 36 5 -3 9 1 9 9 0 13 -4
12 -19 -2 -20 -18 -25 -4 -6 15 10 10 8 12 -7 9 -11 -1 -26 -6 -32 -10 -21
-13 -15 3 10 25 12 11 16 17 10 13 -7 -3 -13 -1 -13 4 0 6 7 11 17 11 9 0 14
3 10 6 -12 12 -49 -8 -42 -23 4 -12 3 -13 -8 -5 -8 7 -16 11 -18 9 -2 -1 1 3
8 9 16 13 17 40 3 49 -6 4 -8 11 -4 16 9 14 -15 39 -32 32 -17 -6 -19 13 -2
23 6 4 8 3 5 -2 -3 -5 3 -10 14 -10 18 0 18 1 -3 18 -13 9 -23 23 -23 30 0 7
-8 12 -18 12 -9 -1 -14 2 -11 7 3 5 0 9 -5 9 -6 0 -11 5 -11 11 0 5 4 8 9 5 5
-3 12 1 15 10 4 10 2 13 -6 8 -6 -4 -25 -8 -42 -10 -22 -3 -27 -1 -16 5 8 6
17 8 21 5 4 -2 11 1 15 7 4 8 3 9 -4 5 -16 -10 -15 7 1 23 6 7 8 12 2 11 -22
-5 -29 1 -15 10 13 8 13 10 -2 10 -10 0 -16 -7 -15 -19 0 -11 5 -17 9 -15 13
9 9 -3 -6 -15 -12 -10 -14 -9 -12 6 2 10 -2 21 -8 25 -6 4 -3 14 9 29 20 22
20 22 -1 11 -12 -6 -26 -7 -34 -2 -17 11 -33 3 -24 -12 4 -7 2 -8 -5 -4 -14 9
-7 22 21 37 16 9 19 8 13 -2 -6 -8 -4 -10 5 -4 9 6 11 4 5 -5 -5 -8 -4 -11 3
-6 14 8 5 33 -14 40 -8 3 -13 2 -10 -2 2 -4 -7 -8 -22 -9 -15 0 -19 1 -9 4 19
5 24 25 5 22 -7 -1 -21 1 -31 6 -14 6 -16 10 -6 16 8 4 10 11 6 15 -3 4 -13 1
-21 -5 -10 -8 -16 -9 -21 -1 -4 6 -1 9 6 8 6 -2 14 3 17 11 3 10 0 11 -9 5
-12 -7 -12 -5 0 9 13 17 26 24 18 9 -3 -4 6 -20 19 -37 19 -24 26 -27 36 -17
11 11 10 12 -4 7 -23 -9 -23 4 -2 20 15 10 14 12 -7 10 -34 -3 -41 3 -28 27
11 21 11 21 -27 -1 -31 -19 -35 -19 -23 -4 8 10 19 21 24 25 6 5 5 8 -2 9 -7
1 -18 2 -23 3 -6 0 -15 7 -19 15 -6 9 -11 10 -15 2 -4 -6 -12 -11 -17 -11 -6
0 -3 7 5 16 20 20 21 30 1 14 -9 -7 -18 -10 -22 -6 -3 3 -1 6 5 6 7 0 12 9 12
21 0 11 -5 17 -10 14 -6 -4 -8 -10 -5 -15 7 -11 -22 -7 -32 5 -4 4 -2 5 5 1 9
-5 15 -1 19 13 3 11 9 19 12 16 4 -2 8 1 8 8 0 7 -8 13 -18 13 -10 0 -15 -4
-13 -8 3 -4 -2 -5 -11 -2 -12 5 -13 10 -6 17 16 16 13 31 -2 18 -8 -6 -18 -7
-22 -3 -5 4 -5 -2 -2 -13 7 -19 6 -19 -7 -2 -15 20 -32 6 -20 -15 5 -10 4 -10
-6 -1 -10 9 -10 15 -2 26 7 8 8 18 4 22 -4 5 -1 5 6 1 6 -4 12 -2 12 3 0 10
-22 16 -43 12 -5 -1 -6 3 -3 8 4 5 1 11 -6 13 -8 3 -6 7 5 11 10 4 16 2 14 -5
-1 -5 5 -12 14 -13 9 -2 16 3 16 11 0 7 -4 11 -8 8 -4 -2 -16 7 -27 21 -19 24
-40 36 -27 15 3 -5 0 -10 -8 -10 -16 0 -19 30 -3 30 6 0 4 5 -5 10 -17 10 -37
9 -59 -5 -12 -7 -13 -6 -3 7 15 18 7 29 -15 21 -15 -4 -15 -3 -2 6 9 6 18 7
24 1 6 -6 13 -10 17 -10 9 0 5 27 -6 37 -4 4 -5 3 -2 -3 5 -8 -6 -11 -32 -10
-22 0 -37 3 -35 5 2 2 -2 11 -9 19 -9 12 -7 12 14 -1 23 -15 27 -15 45 -2 19
15 19 15 -1 9 -20 -6 -20 -5 -1 10 11 9 16 16 11 16 -5 0 -17 -7 -27 -17 -17
-15 -19 -14 -43 11 -14 15 -25 31 -25 36 0 5 -3 11 -7 13 -5 3 -8 -5 -8 -18 0
-13 4 -21 9 -17 5 3 6 0 2 -6 -5 -8 -2 -10 8 -6 9 3 16 1 16 -4 0 -19 -18 -23
-34 -7 -8 9 -19 16 -23 15 -4 0 -8 5 -8 11 0 6 -8 16 -17 23 -10 7 -18 17 -18
21 0 4 6 2 13 -4 8 -6 18 -7 22 -3 5 4 5 1 0 -7 -5 -10 -4 -12 4 -7 8 5 5 16
-10 37 -12 17 -24 27 -28 23 -3 -4 0 -9 7 -11 6 -3 12 -9 12 -14 0 -6 -4 -8
-9 -4 -5 3 -13 1 -16 -5 -5 -8 -11 -8 -20 0 -10 8 -14 7 -18 -2 -4 -9 -6 -9
-6 -1 -1 6 4 15 9 18 6 3 10 11 10 17 0 6 -8 4 -18 -5 -13 -12 -21 -13 -32 -6
-13 9 -12 10 2 6 9 -3 19 1 22 9 3 8 2 13 -3 10 -5 -3 -12 1 -15 9 -6 18 23
17 37 0 5 -6 7 -4 5 4 -5 18 -36 23 -61 9 -16 -8 -22 -7 -29 6 -5 10 -21 21
-34 27 -14 5 -23 13 -20 17 2 4 1 14 -4 22 -6 10 -12 11 -22 3 -8 -7 -21 -8
-38 -1 -20 7 -22 11 -10 18 8 5 20 10 25 10 6 0 4 -4 -3 -9 -11 -7 -10 -9 3
-14 9 -4 13 -3 10 3 -3 6 0 10 7 10 7 1 0 8 -17 17 -16 10 -37 16 -44 14 -13
-2 -13 0 -2 13 8 9 11 19 7 23 -3 3 -6 1 -6 -6 0 -9 -5 -9 -20 -1 -11 6 -17
16 -14 22 4 7 2 8 -5 4 -9 -6 -9 -11 0 -22 17 -21 -3 -40 -22 -22 -8 8 -27 15
-44 16 -16 1 -34 7 -39 12 -7 7 -3 10 13 8 13 -2 25 3 27 10 1 7 0 8 -3 2 -8
-16 -23 -12 -23 8 0 10 -3 13 -8 6 -9 -14 -45 -27 -37 -14 3 6 1 10 -4 10 -6
0 -11 -7 -11 -15 0 -8 -5 -15 -10 -15 -7 0 -7 6 0 19 7 13 7 22 0 26 -5 3 -10
12 -10 18 0 7 5 4 11 -5 6 -11 16 -15 26 -11 11 4 14 3 9 -5 -4 -7 -2 -12 4
-12 7 0 10 6 7 13 -2 6 -12 11 -21 11 -16 -2 -22 11 -8 19 4 2 2 2 -5 1 -7 -2
-15 1 -18 7 -9 14 -25 1 -18 -16 3 -8 0 -15 -7 -15 -6 0 -9 4 -5 9 3 5 1 12
-4 15 -5 4 -12 -2 -14 -11 -4 -17 -5 -17 -6 0 0 10 6 20 14 23 8 4 15 11 15
17 0 6 -3 7 -7 4 -3 -4 -12 1 -20 11 -13 16 -13 15 -5 -3 7 -14 6 -23 -2 -30
-15 -13 -39 -18 -32 -7 3 5 -10 16 -29 25 -31 15 -34 15 -38 -1 -4 -15 -5 -14
-6 2 0 10 7 25 17 33 12 10 13 13 2 11 -21 -4 -39 -22 -32 -32 3 -5 0 -6 -6
-2 -7 4 -12 2 -12 -5 0 -7 -3 -10 -6 -6 -3 3 4 20 17 38 13 18 18 29 11 25
-16 -10 -15 6 1 24 10 12 9 12 -4 2 -8 -6 -27 -9 -42 -6 -16 2 -27 0 -27 -6 0
-6 4 -9 9 -5 5 3 12 1 16 -5 4 -6 10 -8 15 -5 5 3 11 1 15 -5 3 -5 -1 -10 -10
-10 -9 0 -13 -4 -10 -10 3 -5 1 -10 -5 -10 -7 0 -10 7 -6 18 5 14 3 13 -10 -3
-15 -19 -15 -19 -12 -1 2 10 -3 21 -11 24 -8 3 -11 0 -7 -7 5 -7 1 -9 -9 -5
-14 6 -14 8 1 19 15 10 13 12 -14 13 -20 0 -36 -6 -43 -16 -9 -15 -10 -15 -6
-1 7 23 -39 44 -59 28 -17 -14 -18 -6 -3 24 9 20 9 21 -4 4 -12 -14 -16 -15
-21 -5 -3 7 -4 1 -1 -14 3 -15 1 -30 -5 -33 -6 -3 -7 0 -4 9 4 11 0 14 -15 11
-12 -2 -19 0 -16 6 4 5 10 7 15 4 4 -3 7 3 6 12 -2 9 -9 19 -17 21 -12 3 -12
2 0 -6 11 -8 10 -12 -5 -19 -24 -13 -74 -9 -83 5 -8 13 -51 12 -69 -1 -7 -6
-12 -6 -11 -1 6 34 -34 55 -51 26 -5 -10 -9 -12 -9 -7 0 6 6 19 14 29 8 11 15
14 15 8 0 -7 8 -12 18 -12 14 0 15 2 2 10 -10 6 -4 8 20 6 19 -1 34 -7 33 -12
-2 -13 -23 -17 -23 -4 0 6 -4 9 -10 5 -5 -3 -7 -12 -4 -20 5 -11 11 -12 25 -4
13 6 25 6 38 0 10 -6 22 -7 26 -3 5 4 4 0 0 -8 -8 -13 -7 -13 10 0 15 12 17
12 10 1 -6 -10 -4 -12 5 -6 7 4 16 2 21 -6 5 -8 9 -9 9 -3 0 16 -27 37 -39 30
-5 -4 -12 -2 -15 3 -4 5 -1 11 6 14 7 2 5 3 -4 2 -10 -2 -23 4 -30 12 -11 14
-10 15 9 9 12 -4 24 -3 27 2 2 4 -237 9 -532 9 -331 1 -531 -2 -522 -7z m114
-8 c3 -5 -1 -9 -9 -9 -8 0 -12 4 -9 9 3 4 7 8 9 8 2 0 6 -4 9 -8z m907 -18
c13 -14 17 -23 9 -19 -13 5 -46 45 -37 45 2 0 14 -11 28 -26z m-137 -4 c-6 -6
-15 -5 -24 1 -13 9 -12 10 3 5 9 -3 17 0 17 6 0 6 3 8 7 5 4 -4 2 -12 -3 -17z
m-894 0 c0 -5 -5 -10 -11 -10 -5 0 -7 5 -4 10 3 6 8 10 11 10 2 0 4 -4 4 -10z
m875 -28 c-3 -3 -11 0 -18 7 -9 10 -8 11 6 5 10 -3 15 -9 12 -12z m67 -10 c-7
-2 -10 -8 -7 -12 3 -5 2 -11 -3 -14 -4 -2 -8 6 -8 19 0 16 4 21 15 17 10 -4
11 -7 3 -10z m72 -20 c2 -4 -4 -8 -15 -8 -10 0 -19 4 -19 8 0 4 6 8 14 8 8 0
17 -4 20 -8z m-1267 -17 c0 -8 -4 -15 -9 -15 -10 0 -11 14 -1 23 9 10 10 9 10
-8z m1308 6 c3 -5 2 -12 -3 -15 -5 -3 -9 1 -9 9 0 17 3 19 12 6z m173 -4 c8
-9 4 -13 -19 -13 -27 -2 -28 0 -12 12 10 7 19 14 19 14 1 0 6 -6 12 -13z
m-1433 -7 c3 -5 1 -10 -4 -10 -6 0 -11 5 -11 10 0 6 2 10 4 10 3 0 8 -4 11
-10z m155 6 c0 -2 -7 -7 -16 -10 -8 -3 -12 -2 -9 4 6 10 25 14 25 6z m-215
-35 c3 -5 2 -12 -3 -15 -5 -3 -9 1 -9 9 0 17 3 19 12 6z m1725 -66 c5 3 11 1
14 -4 4 -5 -2 -8 -11 -7 -9 2 -18 8 -19 15 -1 6 0 7 3 1 2 -5 9 -8 13 -5z
m-2036 -63 c3 -5 -1 -9 -9 -9 -8 0 -15 4 -15 9 0 4 4 8 9 8 6 0 12 -4 15 -8z
m2211 -32 c3 -6 -1 -7 -9 -4 -18 7 -21 14 -7 14 6 0 13 -4 16 -10z m143 -22
c-2 -7 5 -13 14 -13 9 0 20 -3 23 -7 4 -3 -5 -5 -19 -4 -32 4 -40 11 -31 25 9
15 16 14 13 -1z m-24 -37 c-2 -3 -12 3 -22 13 -16 17 -16 18 5 5 12 -7 20 -15
17 -18z m-2470 10 c4 -5 -3 -7 -14 -4 -23 6 -26 13 -6 13 8 0 17 -4 20 -9z
m-48 -26 c0 -14 -4 -25 -8 -25 -6 0 -5 25 1 48 3 10 7 -2 7 -23z m2569 -15 c3
-6 -1 -7 -9 -4 -18 7 -21 14 -7 14 6 0 13 -4 16 -10z m70 0 c3 -5 1 -10 -4
-10 -6 0 -11 5 -11 10 0 6 2 10 4 10 3 0 8 -4 11 -10z m-30 -18 c-3 -3 -11 0
-18 7 -9 10 -8 11 6 5 10 -3 15 -9 12 -12z m30 -12 c3 -5 1 -10 -4 -10 -6 0
-11 5 -11 10 0 6 2 10 4 10 3 0 8 -4 11 -10z m-2870 -98 c-3 -3 -11 0 -18 7
-9 10 -8 11 6 5 10 -3 15 -9 12 -12z m3049 -52 c-6 -6 -10 -3 -10 10 0 13 4
16 10 10 7 -7 7 -13 0 -20z m-3148 1 c-4 -5 0 -11 6 -14 7 -3 3 -4 -9 -4 -17
1 -19 4 -11 14 12 15 22 18 14 4z m-76 -56 c10 -12 8 -14 -7 -11 -10 2 -24 -2
-31 -10 -7 -8 -8 -14 -2 -14 5 0 10 -5 10 -11 0 -8 -5 -7 -15 1 -14 12 -13 16
6 37 27 27 24 27 39 8z m3330 -7 c0 -4 -4 -8 -9 -8 -6 0 -12 4 -15 8 -3 5 1 9
9 9 8 0 15 -4 15 -9z m115 -69 c-6 -32 -12 -34 -12 -4 0 14 3 25 8 25 4 0 6
-10 4 -21z m-28 -11 c-3 -8 -6 -5 -6 6 -1 11 2 17 5 13 3 -3 4 -12 1 -19z m77
-16 c2 -4 -5 -9 -17 -9 -17 -2 -19 0 -7 7 18 12 18 12 24 2z m-9 -82 c3 -5 1
-10 -4 -10 -6 0 -11 5 -11 10 0 6 2 10 4 10 3 0 8 -4 11 -10z m-3715 -52 c0
-5 5 -6 10 -3 6 3 10 4 10 1 0 -15 -20 -13 -36 5 -16 18 -16 19 -1 13 9 -3 17
-10 17 -16z m3913 -91 c4 3 7 4 7 1 0 -3 -8 -12 -17 -19 -11 -10 -14 -10 -9
-1 4 6 2 12 -3 12 -6 0 -11 5 -11 11 0 8 4 9 13 0 8 -6 17 -8 20 -4z m-3973
-15 c0 -4 -10 -9 -22 -9 -18 -2 -20 0 -8 7 18 12 30 13 30 2z m-25 -43 c-3
-12 -7 -24 -10 -27 -3 -3 -3 5 -1 19 6 30 5 29 10 29 3 0 3 -10 1 -21z m4045
-73 c0 -3 -4 -8 -10 -11 -5 -3 -10 -1 -10 4 0 6 5 11 10 11 6 0 10 -2 10 -4z
m-4160 -66 c0 -5 -2 -10 -4 -10 -3 0 -8 5 -11 10 -3 6 -1 10 4 10 6 0 11 -4
11 -10z m4236 -40 c0 -12 -4 -16 -9 -11 -5 5 -6 14 -3 20 10 15 12 14 12 -9z
m46 -47 c-6 -2 -9 -10 -6 -15 4 -7 2 -8 -5 -4 -13 9 -5 26 12 25 9 0 8 -2 -1
-6z m15 -35 c-3 -8 -6 -5 -6 6 -1 11 2 17 5 13 3 -3 4 -12 1 -19z m40 5 c-4
-3 -2 -12 5 -20 8 -11 7 -12 -6 -7 -9 3 -16 9 -16 13 0 9 11 21 18 21 3 0 2
-3 -1 -7z m-4420 -29 c-3 -3 -12 -4 -19 -1 -8 3 -5 6 6 6 11 1 17 -2 13 -5z
m4459 -60 c-3 -7 -1 -16 4 -19 6 -4 10 -14 9 -23 0 -14 -2 -14 -6 -2 -4 8 -14
22 -25 31 -23 20 -24 36 -1 18 15 -12 16 -12 10 4 -4 11 -3 16 4 12 6 -4 8
-13 5 -21z m-4516 -29 c-7 -9 -15 -13 -19 -10 -3 3 1 10 9 15 21 14 24 12 10
-5z m4504 -21 c3 -8 2 -12 -4 -9 -6 3 -10 10 -10 16 0 14 7 11 14 -7z m-4542
-78 c7 4 8 2 4 -4 -5 -9 -12 -9 -26 0 -10 7 -16 16 -13 21 3 5 10 2 15 -7 5
-9 14 -13 20 -10z m4638 -47 c0 -6 -4 -7 -10 -4 -5 3 -10 11 -10 16 0 6 5 7
10 4 6 -3 10 -11 10 -16z m-20 -19 c0 -5 -2 -10 -4 -10 -3 0 -8 5 -11 10 -3 6
-1 10 4 10 6 0 11 -4 11 -10z m-4660 -60 c0 -5 -5 -10 -11 -10 -5 0 -7 5 -4
10 3 6 8 10 11 10 2 0 4 -4 4 -10z m-67 -109 c-6 -8 -31 34 -26 42 3 5 11 -2
17 -15 7 -12 11 -25 9 -27z m-33 -51 c0 -5 -5 -10 -11 -10 -5 0 -7 5 -4 10 3
6 8 10 11 10 2 0 4 -4 4 -10z m4880 -96 c0 -8 -5 -14 -12 -14 -6 0 -8 3 -5 7
4 3 2 12 -5 20 -8 11 -7 12 6 7 9 -3 16 -12 16 -20z m-4880 -98 c0 -3 -4 -8
-10 -11 -5 -3 -10 -1 -10 4 0 6 5 11 10 11 6 0 10 -2 10 -4z m4894 -44 c3 -5
-1 -9 -9 -9 -8 0 -12 4 -9 9 3 4 7 8 9 8 2 0 6 -4 9 -8z m77 -24 c11 -20 10
-21 -3 -11 -8 7 -18 10 -21 6 -4 -3 -7 -2 -7 4 0 9 10 23 16 23 2 0 9 -10 15
-22z m-5019 -27 c8 -9 8 -11 1 -7 -6 3 -14 2 -17 -3 -4 -5 2 -11 11 -14 10 -2
3 -3 -14 -2 -35 3 -39 -1 -23 -25 6 -9 10 -10 10 -3 0 6 9 11 20 10 18 -1 18
-12 0 -12 -4 0 -18 -11 -30 -25 -12 -14 -19 -19 -15 -12 3 6 1 12 -4 12 -6 0
-11 5 -11 11 0 8 5 8 15 -1 19 -15 20 3 2 22 -10 10 -15 45 -8 61 4 9 52 0 63
-12z m4938 -5 c0 -2 -8 -10 -17 -17 -16 -13 -17 -12 -4 4 13 16 21 21 21 13z
m30 -17 c0 -5 -4 -9 -8 -9 -5 0 -9 7 -9 15 0 8 4 12 9 9 4 -3 8 -9 8 -15z m49
-49 c-6 -5 -18 -6 -26 -3 -19 8 -16 11 13 11 17 0 22 -3 13 -8z m-5019 -20 c0
-5 -2 -10 -4 -10 -3 0 -8 5 -11 10 -3 6 -1 10 4 10 6 0 11 -4 11 -10z m5010
-4 c0 -2 -6 -9 -14 -15 -11 -9 -16 -9 -22 0 -4 7 -3 9 4 5 6 -3 13 -2 17 4 6
10 15 14 15 6z m-5036 -14 c3 -5 -1 -9 -9 -9 -8 0 -12 4 -9 9 3 4 7 8 9 8 2 0
6 -4 9 -8z m5052 -44 c3 -4 -1 -5 -10 -4 -8 1 -18 5 -22 8 -3 4 1 5 10 4 8 -1
18 -5 22 -8z m-5076 -12 c0 -3 -4 -8 -10 -11 -5 -3 -10 -1 -10 4 0 6 5 11 10
11 6 0 10 -2 10 -4z m45 -26 c3 -6 -1 -7 -9 -4 -18 7 -21 14 -7 14 6 0 13 -4
16 -10z m-34 -653 c-10 -9 -11 -8 -5 6 3 10 9 15 12 12 3 -3 0 -11 -7 -18z
m5065 -13 c-1 -8 -6 -17 -12 -21 -5 -4 -6 -4 -2 1 4 5 3 14 -2 21 -7 8 -5 12
4 12 8 0 13 -6 12 -13z m-23 -34 c3 -11 2 -20 -3 -20 -4 0 -10 11 -12 25 -6
29 7 25 15 -5z m-5023 5 c-7 -8 -16 -13 -20 -10 -5 3 -11 0 -13 -5 -3 -6 -4
-5 -3 2 2 7 8 13 14 13 5 0 14 3 18 8 13 13 17 7 4 -8z m4983 -26 c-8 -8 -13
-7 -18 2 -5 8 -4 10 3 5 7 -4 12 -2 12 5 0 7 3 9 7 6 4 -4 2 -12 -4 -18z
m-4962 -6 c13 -17 13 -17 -5 -3 -17 13 -18 13 -14 -5 2 -11 11 -19 19 -17 12
3 12 1 0 -10 -11 -10 -14 -10 -18 -1 -5 15 -43 -1 -43 -17 0 -17 41 -33 53
-21 6 6 15 11 21 11 5 0 1 -7 -10 -16 -16 -13 -16 -15 -1 -10 9 3 17 0 17 -5
0 -6 -9 -9 -19 -6 -13 3 -18 1 -14 -8 2 -8 12 -12 22 -10 10 2 18 -3 18 -11 0
-10 -4 -11 -13 -3 -7 5 -14 6 -17 2 -7 -11 19 -34 28 -25 4 4 2 -3 -4 -16 -10
-18 -9 -23 4 -28 16 -6 11 -24 -6 -24 -6 0 -8 4 -4 9 3 5 1 12 -4 16 -6 3 -8
12 -5 19 3 8 -6 23 -21 34 -14 11 -21 23 -16 27 11 6 4 35 -7 33 -20 -2 -29 4
-29 19 0 22 27 73 28 53 0 -9 4 -5 9 8 11 27 14 27 31 5z m4939 -7 c0 -2 -8
-10 -17 -17 -16 -13 -17 -12 -4 4 13 16 21 21 21 13z m74 -19 c-3 -11 -2 -17
3 -14 5 3 9 -10 9 -29 0 -19 -5 -33 -11 -31 -13 2 -61 -34 -62 -48 -1 -5 -6
-10 -12 -11 -7 -2 -6 0 0 3 8 4 3 11 -12 20 l-24 14 24 -7 c20 -5 22 -4 13 12
-9 15 -6 23 16 41 26 22 27 23 8 38 -17 13 -18 15 -3 15 9 0 17 -5 17 -11 0
-5 5 -7 12 -3 8 5 6 11 -6 19 -14 11 -13 13 9 13 21 0 24 -4 19 -21z m-5044
-28 c0 -5 5 -7 12 -3 7 4 8 3 4 -4 -4 -6 -13 -9 -21 -5 -17 6 -20 23 -5 23 6
0 10 -5 10 -11z m4990 0 c0 -4 -6 -9 -13 -12 -8 -3 -14 0 -14 7 0 7 6 13 14
13 7 0 13 -4 13 -8z m-34 -273 c3 -18 -33 -39 -42 -24 -4 7 -3 8 4 4 11 -7 35
26 27 38 -3 3 -2 4 2 1 4 -3 8 -11 9 -19z m-4791 -66 c-3 -5 -12 -10 -18 -10
-7 0 -6 4 3 10 19 12 23 12 15 0z m4782 -35 c4 -4 2 -5 -4 -1 -7 4 -13 3 -13
-3 0 -6 -9 -15 -19 -20 -14 -8 -20 -7 -24 3 -4 10 0 12 14 9 11 -3 19 0 19 6
0 7 -5 9 -12 5 -6 -4 -8 -3 -5 4 8 12 32 10 44 -3z m-69 -37 c-2 -6 -12 -12
-21 -14 -9 -1 -15 2 -11 7 3 5 10 7 15 4 5 -4 9 -1 9 4 0 6 3 11 6 11 3 0 4
-5 2 -12z m-4598 -212 c0 -2 -8 -10 -17 -17 -16 -13 -17 -12 -4 4 13 16 21 21
21 13z m4440 -136 c0 -5 -5 -10 -11 -10 -5 0 -7 5 -4 10 3 6 8 10 11 10 2 0 4
-4 4 -10z m-4407 -25 c-3 -9 -8 -14 -10 -11 -3 3 -2 9 2 15 9 16 15 13 8 -4z
m20 -10 c-3 -9 -8 -14 -10 -11 -3 3 -2 9 2 15 9 16 15 13 8 -4z m53 -130 c12
-12 12 -15 2 -15 -10 0 -9 -3 2 -11 13 -9 13 -10 0 -6 -8 2 -15 8 -15 13 0 5
-4 15 -8 22 -11 17 1 15 19 -3z m68 -36 c3 -3 -6 -6 -19 -7 -14 -1 -25 2 -25
6 0 9 36 9 44 1z m73 -131 c-3 -8 -6 -5 -6 6 -1 11 2 17 5 13 3 -3 4 -12 1
-19z m3967 -18 c7 -7 7 -13 -1 -21 -8 -8 -13 -7 -18 2 -5 8 -4 10 3 5 7 -4 12
-2 12 3 0 6 -4 12 -10 12 -5 1 -14 2 -19 3 -5 0 -13 4 -17 8 -3 4 4 5 16 3 13
-3 28 -9 34 -15z m-3917 -5 c0 -8 -4 -12 -9 -9 -5 3 -6 10 -3 15 9 13 12 11
12 -6z m116 -150 c-3 -9 -8 -14 -10 -11 -3 3 -2 9 2 15 9 16 15 13 8 -4z
m3662 -23 c5 -26 -6 -34 -25 -21 -11 6 -12 9 -2 9 7 0 10 5 7 10 -4 6 -11 7
-17 4 -7 -4 -8 -2 -4 5 4 6 12 9 17 6 5 -4 9 -1 9 6 0 18 10 5 15 -19z m-3550
-92 c3 -6 -1 -7 -9 -4 -18 7 -21 14 -7 14 6 0 13 -4 16 -10z m28 -60 c3 -11 1
-18 -4 -14 -5 3 -9 12 -9 20 0 20 7 17 13 -6z m3324 5 c0 -8 -4 -12 -9 -9 -5
3 -6 10 -3 15 9 13 12 11 12 -6z m43 -4 c0 -5 -7 -12 -16 -15 -14 -5 -15 -4
-4 9 14 17 20 19 20 6z m-185 -120 c-3 -6 -11 -11 -16 -11 -5 0 -4 6 3 14 14
16 24 13 13 -3z m-2940 -31 c3 -6 -1 -7 -9 -4 -18 7 -21 14 -7 14 6 0 13 -4
16 -10z m2880 -11 c-3 -12 -7 -24 -10 -27 -3 -3 -3 5 -1 19 6 30 5 29 10 29 3
0 3 -10 1 -21z m-2840 -19 c3 -5 1 -10 -4 -10 -6 0 -11 5 -11 10 0 6 2 10 4
10 3 0 8 -4 11 -10z m121 -62 c4 -7 3 -8 -4 -4 -7 4 -12 2 -12 -5 0 -7 -3 -10
-6 -6 -6 5 3 27 11 27 2 0 7 -5 11 -12z m14 -48 c-12 -23 -25 -26 -36 -8 -5 7
-2 9 9 5 9 -3 18 0 21 9 3 8 8 14 11 14 3 0 1 -9 -5 -20z m37 -23 c1 -11 1
-18 0 -16 -2 2 -8 11 -15 20 -9 12 -9 16 1 16 7 0 14 -9 14 -20z m39 11 c5 -7
3 -8 -6 -3 -10 6 -12 2 -7 -15 4 -16 3 -20 -5 -12 -6 6 -8 18 -5 26 8 19 13
20 23 4z m71 -25 c0 -8 -6 -9 -19 -2 -10 5 -18 11 -18 12 0 2 8 3 18 3 10 0
19 -6 19 -13z m-19 -23 c13 0 13 -3 4 -12 -10 -10 -15 -10 -22 2 -5 8 -9 20
-9 25 0 6 3 4 6 -2 2 -7 12 -13 21 -13z m2312 11 c0 -5 -9 -7 -20 -4 -11 3
-20 7 -20 9 0 2 9 4 20 4 11 0 20 -4 20 -9z m-2228 -53 c-9 -9 -9 -15 1 -27
11 -14 10 -14 -6 -2 -13 10 -15 17 -6 27 6 8 14 14 17 14 3 0 1 -5 -6 -12z
m39 -5 c13 -16 12 -17 -3 -4 -17 13 -22 21 -14 21 2 0 10 -8 17 -17z m84 -31
c-3 -3 -11 0 -18 7 -9 10 -8 11 6 5 10 -3 15 -9 12 -12z m60 -12 c-3 -5 -12
-10 -18 -10 -7 0 -6 4 3 10 19 12 23 12 15 0z m1735 0 c0 -5 -5 -10 -11 -10
-5 0 -7 5 -4 10 3 6 8 10 11 10 2 0 4 -4 4 -10z m-60 -40 c0 -5 -8 -10 -17
-10 -15 0 -16 2 -3 10 19 12 20 12 20 0z m-1349 -47 c13 -16 12 -17 -3 -4 -10
7 -18 15 -18 17 0 8 8 3 21 -13z m964 -13 c3 -5 1 -10 -4 -10 -6 0 -11 5 -11
10 0 6 2 10 4 10 3 0 8 -4 11 -10z m40 1 c-3 -5 -1 -12 4 -16 6 -3 8 -11 5
-18 -2 -7 4 -13 16 -14 19 -2 19 -1 3 24 -17 26 -17 26 5 14 12 -6 22 -9 22
-5 0 3 7 1 15 -6 18 -15 20 1 3 18 -8 8 -8 12 -1 12 6 0 13 -7 17 -15 3 -9 12
-12 22 -8 12 4 15 2 12 -8 -3 -8 -12 -14 -21 -14 -9 0 -30 -14 -48 -30 -20
-19 -30 -24 -26 -13 3 10 1 20 -5 24 -7 4 -8 3 -4 -4 4 -7 2 -12 -3 -12 -6 0
-11 5 -11 11 0 5 -4 8 -10 4 -5 -3 -7 -13 -4 -23 5 -13 4 -14 -4 -3 -5 7 -12
9 -14 5 -3 -5 -3 -3 -2 4 4 16 -13 16 -19 0 -4 -10 -6 -10 -6 0 -1 7 6 15 14
18 8 4 12 11 8 18 -4 6 1 5 11 -3 15 -13 17 -12 12 12 -2 14 -2 28 1 31 10 9
15 7 8 -3z m-59 -36 c-1 -8 -5 -17 -8 -21 -5 -4 -4 16 1 34 3 9 9 -1 7 -13z
m-803 -10 c-3 -9 -8 -14 -10 -11 -3 3 -2 9 2 15 9 16 15 13 8 -4z m764 8 c-4
-3 1 -16 10 -27 14 -15 14 -18 2 -8 -9 6 -18 9 -22 6 -3 -3 -4 2 -2 13 5 24 4
23 12 23 3 0 3 -3 0 -7z m-733 -25 c-3 -4 -9 -8 -15 -8 -5 0 -9 4 -9 8 0 5 7
9 15 9 8 0 12 -4 9 -9z m692 -3 c-1 -8 -5 -17 -8 -21 -5 -4 -4 16 1 34 3 9 9
-1 7 -13z"/>
<path d="M23 3044 c0 -14 20 -14 34 2 9 9 7 11 -11 10 -12 0 -23 -6 -23 -12z"/>
<path d="M5050 2060 c-25 -26 -29 -50 -9 -50 6 0 7 5 4 10 -3 6 -1 10 6 10 16
0 50 40 43 51 -8 13 -16 9 -44 -21z m40 17 c0 -2 -10 -12 -22 -23 l-23 -19 19
23 c18 21 26 27 26 19z"/>
<path d="M3069 66 c6 -7 7 -17 3 -22 -4 -4 1 -2 11 5 19 15 16 24 -9 27 -11 2
-12 -1 -5 -10z"/>
<path d="M3155 5110 c-4 -6 -11 -7 -17 -4 -7 4 -8 2 -4 -5 6 -9 11 -9 22 0 14
11 18 19 10 19 -3 0 -8 -5 -11 -10z"/>
<path d="M2100 5089 c-13 -7 -13 -9 -1 -9 22 0 4 -13 -22 -15 -24 -2 -27 -17
-3 -21 17 -2 61 42 49 49 -5 3 -15 2 -23 -4z"/>
<path d="M3155 5079 c-3 -4 2 -6 10 -5 21 3 28 13 10 13 -9 0 -18 -4 -20 -8z"/>
<path d="M3346 5038 c3 -5 10 -6 15 -3 13 9 11 12 -6 12 -8 0 -12 -4 -9 -9z"/>
<path d="M1748 5015 c-6 -13 -15 -22 -21 -18 -6 3 -7 1 -3 -5 10 -17 14 -15
31 18 9 17 13 30 10 30 -3 0 -10 -11 -17 -25z"/>
<path d="M1715 5020 c3 -5 8 -10 11 -10 2 0 4 5 4 10 0 6 -5 10 -11 10 -5 0
-7 -4 -4 -10z"/>
<path d="M3306 5018 c3 -4 11 -5 19 -1 21 7 19 12 -4 10 -11 0 -18 -5 -15 -9z"/>
<path d="M3525 4930 c34 -22 45 -25 45 -10 0 6 -3 9 -7 9 -19 -3 -34 2 -29 9
2 4 -5 9 -17 9 -18 2 -17 -1 8 -17z"/>
<path d="M1495 4920 c3 -5 8 -10 11 -10 2 0 4 5 4 10 0 6 -5 10 -11 10 -5 0
-7 -4 -4 -10z"/>
<path d="M1570 4919 c0 -5 5 -7 10 -4 6 3 10 8 10 11 0 2 -4 4 -10 4 -5 0 -10
-5 -10 -11z"/>
<path d="M1415 4880 c6 -9 -8 -15 -29 -11 -5 1 -4 -4 2 -12 7 -8 11 -16 9 -18
-1 -3 6 4 16 14 19 22 22 37 6 37 -5 0 -7 -4 -4 -10z"/>
<path d="M3706 4882 c-3 -5 1 -9 9 -9 8 0 12 4 9 9 -3 4 -7 8 -9 8 -2 0 -6 -4
-9 -8z"/>
<path d="M3746 4824 c-3 -9 -2 -12 5 -9 6 4 20 -1 31 -12 l22 -18 -20 27 c-22
32 -30 34 -38 12z"/>
<path d="M3870 4801 c0 -6 4 -13 10 -16 6 -3 7 1 4 9 -7 18 -14 21 -14 7z"/>
<path d="M1210 4765 c0 -8 29 -12 39 -5 9 5 4 8 -13 8 -14 0 -26 -2 -26 -3z"/>
<path d="M3950 4746 c0 -2 7 -7 16 -10 8 -3 12 -2 9 4 -6 10 -25 14 -25 6z"/>
<path d="M3951 4719 c0 -8 13 -24 29 -37 29 -23 29 -23 40 -2 7 13 7 20 0 20
-5 0 -10 -7 -10 -16 0 -8 -5 -12 -10 -9 -6 4 -8 10 -6 14 3 4 1 13 -5 21 -7
13 -9 13 -9 0 -1 -11 -4 -10 -15 4 -11 14 -15 15 -14 5z"/>
<path d="M1114 4705 c-4 -8 -11 -12 -17 -8 -6 3 -7 1 -3 -5 9 -15 33 -5 33 13
0 19 -6 19 -13 0z"/>
<path d="M1035 4670 c-3 -5 -1 -10 4 -10 6 0 11 5 11 10 0 6 -2 10 -4 10 -3 0
-8 -4 -11 -10z"/>
<path d="M1015 4640 c-3 -5 -1 -10 4 -10 6 0 11 5 11 10 0 6 -2 10 -4 10 -3 0
-8 -4 -11 -10z"/>
<path d="M4091 4634 c0 -11 3 -14 6 -6 3 7 2 16 -1 19 -3 4 -6 -2 -5 -13z"/>
<path d="M975 4620 c-3 -5 -1 -10 4 -10 6 0 11 5 11 10 0 6 -2 10 -4 10 -3 0
-8 -4 -11 -10z"/>
<path d="M4085 4600 c3 -5 8 -10 11 -10 2 0 4 5 4 10 0 6 -5 10 -11 10 -5 0
-7 -4 -4 -10z"/>
<path d="M4166 4602 c-3 -5 1 -9 9 -9 8 0 12 4 9 9 -3 4 -7 8 -9 8 -2 0 -6 -4
-9 -8z"/>
<path d="M958 4593 c7 -3 16 -2 19 1 4 3 -2 6 -13 5 -11 0 -14 -3 -6 -6z"/>
<path d="M4153 4545 c0 -8 4 -12 9 -9 4 3 8 9 8 15 0 5 -4 9 -8 9 -5 0 -9 -7
-9 -15z"/>
<path d="M875 4530 c3 -5 8 -10 11 -10 2 0 4 5 4 10 0 6 -5 10 -11 10 -5 0 -7
-4 -4 -10z"/>
<path d="M733 4410 c-2 -23 22 -33 37 -15 6 8 18 11 26 8 8 -3 14 1 14 8 0 7
-3 9 -7 6 -3 -4 -13 -1 -21 6 -9 6 -13 8 -10 2 3 -5 0 -16 -8 -23 -14 -12 -15
-12 -18 7 -2 19 -12 20 -13 1z"/>
<path d="M4434 4314 c-18 -14 -18 -15 4 -4 12 6 22 13 22 15 0 8 -5 6 -26 -11z"/>
<path d="M4546 4197 c3 -10 9 -15 12 -12 3 3 0 11 -7 18 -10 9 -11 8 -5 -6z"/>
<path d="M4576 4178 c3 -4 11 -5 19 -1 21 7 19 12 -4 10 -11 0 -18 -5 -15 -9z"/>
<path d="M520 4140 c0 -17 -3 -25 -22 -44 -21 -23 -12 -44 10 -22 14 14 27 76
16 76 -2 0 -4 -4 -4 -10z m0 -44 c0 -2 -8 -10 -17 -17 -16 -13 -17 -12 -4 4
13 16 21 21 21 13z"/>
<path d="M4660 4056 c0 -2 7 -7 16 -10 8 -3 12 -2 9 4 -6 10 -25 14 -25 6z"/>
<path d="M417 4011 c4 -3 10 -10 14 -14 3 -4 11 -2 17 5 8 10 5 13 -15 14 -13
1 -21 -1 -16 -5z"/>
<path d="M401 3991 c-8 -5 -9 -11 -3 -15 5 -3 12 1 16 9 6 17 6 18 -13 6z"/>
<path d="M393 3957 c13 -11 15 -16 5 -20 -7 -2 -10 -7 -7 -11 3 -4 12 0 18 8
10 12 8 17 -11 26 -21 10 -21 10 -5 -3z"/>
<path d="M4788 3873 c7 -3 16 -2 19 1 4 3 -2 6 -13 5 -11 0 -14 -3 -6 -6z"/>
<path d="M315 3840 c3 -5 8 -10 11 -10 2 0 4 5 4 10 0 6 -5 10 -11 10 -5 0 -7
-4 -4 -10z"/>
<path d="M4850 3756 c0 -8 4 -17 9 -20 5 -4 7 3 4 14 -6 23 -13 26 -13 6z"/>
<path d="M210 3686 c0 -2 7 -7 16 -10 8 -3 12 -2 9 4 -6 10 -25 14 -25 6z"/>
<path d="M186 3618 c3 -4 9 -8 15 -8 5 0 9 4 9 8 0 5 -7 9 -15 9 -8 0 -12 -4
-9 -9z"/>
<path d="M196 3591 c-4 -5 -3 -17 1 -27 4 -11 0 -22 -12 -30 -10 -8 -13 -14
-7 -14 7 0 15 0 20 0 4 0 8 5 8 10 1 6 2 11 4 13 1 1 3 10 5 20 2 10 -1 14 -8
10 -6 -4 -8 0 -4 10 7 18 2 23 -7 8z"/>
<path d="M173 3555 c0 -8 4 -12 9 -9 5 3 6 10 3 15 -9 13 -12 11 -12 -6z"/>
<path d="M4925 3540 c3 -5 11 -10 16 -10 6 0 7 5 4 10 -3 6 -11 10 -16 10 -6
0 -7 -4 -4 -10z"/>
<path d="M4948 3493 c7 -3 16 -2 19 1 4 3 -2 6 -13 5 -11 0 -14 -3 -6 -6z"/>
<path d="M145 3470 c-3 -6 1 -7 9 -4 18 7 21 14 7 14 -6 0 -13 -4 -16 -10z"/>
<path d="M4994 3375 c14 -11 16 -15 5 -15 -15 -1 30 -29 46 -29 6 0 0 5 -12
12 -21 12 -23 15 -23 37 0 6 -8 10 -17 10 -16 -1 -16 -2 1 -15z"/>
<path d="M5034 3289 c-3 -6 2 -18 12 -27 17 -16 17 -16 5 0 -7 9 -10 22 -6 28
3 5 4 10 1 10 -3 0 -8 -5 -12 -11z"/>
<path d="M5086 3158 c3 -5 10 -6 15 -3 13 9 11 12 -6 12 -8 0 -12 -4 -9 -9z"/>
<path d="M5045 3150 c-11 -5 -17 -9 -13 -9 3 -1 13 -3 21 -6 8 -4 14 0 14 10
0 8 -1 15 -1 14 -1 0 -10 -4 -21 -9z"/>
<path d="M5050 3066 c0 -2 8 -10 18 -17 15 -13 16 -12 3 4 -13 16 -21 21 -21
13z"/>
<path d="M5105 1999 c-4 -6 -5 -12 -2 -15 2 -3 7 2 10 11 7 17 1 20 -8 4z"/>
<path d="M5070 1980 c-13 -8 -12 -10 3 -10 9 0 17 5 17 10 0 12 -1 12 -20 0z"/>
<path d="M5090 1939 c0 -5 5 -7 10 -4 6 3 10 8 10 11 0 2 -4 4 -10 4 -5 0 -10
-5 -10 -11z"/>
<path d="M100 1879 c0 -5 5 -7 10 -4 6 3 10 8 10 11 0 2 -4 4 -10 4 -5 0 -10
-5 -10 -11z"/>
<path d="M5016 1854 c-3 -7 3 -10 15 -7 26 7 32 19 9 19 -11 0 -22 -6 -24 -12z"/>
<path d="M86 1834 c-11 -8 -16 -14 -10 -14 13 0 39 18 34 24 -3 2 -14 -2 -24
-10z"/>
<path d="M94 1809 c-3 -6 -1 -15 6 -19 10 -6 9 -9 -1 -13 -11 -4 -11 -6 -1 -6
7 -1 10 -5 7 -11 -3 -5 -2 -10 3 -10 17 0 21 28 7 40 -8 7 -12 16 -9 21 3 5 3
9 0 9 -3 0 -8 -5 -12 -11z"/>
<path d="M185 1621 c-3 -5 -2 -12 3 -15 5 -3 9 1 9 9 0 17 -3 19 -12 6z"/>
<path d="M175 1580 c-8 -13 5 -13 25 0 13 8 13 10 -2 10 -9 0 -20 -4 -23 -10z"/>
<path d="M4915 1570 c-10 -11 -14 -20 -10 -20 4 0 0 -9 -9 -19 -12 -13 -14
-21 -6 -26 13 -8 21 -3 24 17 1 7 5 19 9 26 5 6 5 12 0 12 -4 0 -1 4 7 10 8 5
12 11 9 15 -3 3 -14 -4 -24 -15z"/>
<path d="M4935 1541 c-3 -5 -2 -12 3 -15 5 -3 9 1 9 9 0 17 -3 19 -12 6z"/>
<path d="M208 1483 c6 -2 9 -10 6 -15 -4 -7 -2 -8 5 -4 13 9 5 26 -12 25 -9 0
-8 -2 1 -6z"/>
<path d="M4910 1475 c0 -8 2 -15 4 -15 2 0 6 7 10 15 3 8 1 15 -4 15 -6 0 -10
-7 -10 -15z"/>
<path d="M4877 1459 c7 -7 15 -10 18 -7 3 3 -2 9 -12 12 -14 6 -15 5 -6 -5z"/>
<path d="M206 1438 c3 -4 9 -8 15 -8 5 0 9 4 9 8 0 5 -7 9 -15 9 -8 0 -12 -4
-9 -9z"/>
<path d="M216 1398 c3 -5 10 -6 15 -3 13 9 11 12 -6 12 -8 0 -12 -4 -9 -9z"/>
<path d="M290 1370 c0 -6 -4 -8 -10 -5 -5 3 -10 1 -10 -4 0 -13 10 -14 29 -2
9 6 10 11 2 15 -6 4 -11 2 -11 -4z"/>
<path d="M315 1310 c-3 -5 -3 -10 1 -10 4 0 -1 -7 -12 -15 -18 -15 -18 -15 0
-8 15 5 17 3 11 -8 -5 -8 -4 -11 1 -6 4 4 9 19 10 32 1 27 -1 30 -11 15z"/>
<path d="M383 1193 c-7 -2 -13 -9 -13 -15 0 -7 5 -7 13 1 8 6 18 7 22 3 5 -4
5 -1 1 6 -4 6 -8 12 -9 11 -1 0 -8 -3 -14 -6z"/>
<path d="M420 1091 c0 -6 4 -13 10 -16 6 -3 7 1 4 9 -7 18 -14 21 -14 7z"/>
<path d="M4600 1035 c-7 -8 -9 -15 -5 -15 4 0 2 -6 -4 -14 -8 -10 -9 -16 -1
-21 6 -4 10 -3 9 2 -4 22 2 25 17 7 14 -18 15 -18 4 4 -6 13 -9 30 -6 38 7 18
2 18 -14 -1z"/>
<path d="M4627 1019 c7 -7 15 -10 18 -7 3 3 -2 9 -12 12 -14 6 -15 5 -6 -5z"/>
<path d="M535 1000 c-4 -6 -11 -8 -16 -5 -5 3 -6 -1 -3 -10 4 -9 7 -15 8 -13
1 2 8 11 15 21 7 9 11 17 8 17 -3 0 -9 -5 -12 -10z"/>
<path d="M4575 940 c-3 -6 1 -7 9 -4 18 7 21 14 7 14 -6 0 -13 -4 -16 -10z"/>
<path d="M558 923 c7 -3 16 -2 19 1 4 3 -2 6 -13 5 -11 0 -14 -3 -6 -6z"/>
<path d="M4426 821 c-3 -4 0 -16 8 -26 11 -15 13 -16 13 -1 0 9 -4 16 -9 16
-5 0 -6 5 -3 10 3 6 4 10 1 10 -3 0 -7 -4 -10 -9z"/>
<path d="M697 768 c2 -5 10 -8 18 -8 8 0 16 3 18 8 3 4 -5 7 -18 7 -13 0 -21
-3 -18 -7z"/>
<path d="M4367 739 c6 -6 9 -19 6 -28 -4 -14 -3 -14 6 -1 15 21 14 27 -6 35
-14 5 -15 3 -6 -6z"/>
<path d="M4280 660 c-13 -8 -13 -10 2 -10 9 0 20 5 23 10 8 13 -5 13 -25 0z"/>
<path d="M910 594 c0 -9 -5 -12 -12 -8 -7 4 -8 3 -4 -4 9 -16 36 -3 29 14 -7
18 -13 18 -13 -2z"/>
<path d="M965 560 c-3 -5 1 -10 10 -10 9 0 13 5 10 10 -3 6 -8 10 -10 10 -2 0
-7 -4 -10 -10z"/>
<path d="M4147 553 c-13 -12 -7 -23 11 -22 10 0 12 3 4 6 -6 2 -10 9 -6 14 6
10 0 12 -9 2z"/>
<path d="M979 531 c9 -6 11 -16 7 -27 -6 -15 -4 -16 5 -7 14 14 5 43 -13 43
-10 0 -9 -3 1 -9z"/>
<path d="M4089 516 c-20 -27 -14 -53 7 -31 9 8 12 20 8 27 -5 8 -2 9 9 5 10
-3 17 -2 17 2 0 19 -26 17 -41 -3z"/>
<path d="M1020 466 c0 -2 8 -10 18 -17 15 -13 16 -12 3 4 -13 16 -21 21 -21
13z"/>
<path d="M4070 441 c0 -6 4 -13 10 -16 6 -3 7 1 4 9 -7 18 -14 21 -14 7z"/>
<path d="M1122 417 c10 -8 16 -16 13 -19 -3 -2 2 -5 10 -5 19 0 10 14 -18 27
-20 10 -20 10 -5 -3z"/>
<path d="M1178 405 c-7 -12 59 -57 66 -46 3 5 -6 19 -21 32 -14 13 -23 18 -19
12 4 -7 3 -13 -3 -13 -5 0 -11 5 -13 12 -3 7 -7 8 -10 3z m53 -32 c13 -16 12
-17 -3 -4 -10 7 -18 15 -18 17 0 8 8 3 21 -13z"/>
<path d="M3858 360 c-21 -22 -43 -37 -50 -35 -7 3 -19 -4 -26 -16 -8 -12 -9
-18 -3 -14 6 3 11 -1 11 -9 0 -9 4 -16 8 -16 5 0 9 7 9 15 0 8 -4 15 -9 15 -5
0 -6 5 -2 12 5 7 11 5 21 -7 12 -18 19 -10 14 18 0 4 3 7 8 7 5 0 11 -3 14 -7
2 -5 2 -3 1 4 -4 17 13 26 19 11 4 -10 6 -10 6 0 1 8 6 10 14 6 10 -6 10 -4 0
7 -18 19 -16 34 2 19 13 -11 14 -10 9 5 -6 14 -4 16 6 10 9 -5 11 -4 6 3 -11
18 -18 15 -58 -28z"/>
<path d="M3960 380 c-9 -6 -10 -10 -3 -10 6 0 15 5 18 10 8 12 4 12 -15 0z"/>
<path d="M1210 343 c0 -6 8 -17 18 -24 16 -13 16 -13 2 6 -8 11 -16 22 -17 24
-2 2 -3 0 -3 -6z"/>
<path d="M3879 313 c-13 -16 -12 -17 4 -4 9 7 17 15 17 17 0 8 -8 3 -21 -13z"/>
<path d="M1464 273 c4 -7 2 -22 -4 -33 -6 -11 -7 -20 -2 -20 15 0 23 44 10 55
-8 7 -9 6 -4 -2z"/>
<path d="M1590 196 c0 -9 5 -14 10 -11 6 3 10 1 10 -5 0 -7 8 -9 22 -4 21 6
22 5 8 -12 -8 -10 -11 -16 -6 -12 5 4 15 0 23 -8 8 -8 19 -11 25 -8 12 8 -32
56 -46 50 -6 -2 -19 3 -28 12 -16 14 -18 13 -18 -2z m81 -43 c13 -16 12 -17
-3 -4 -17 13 -22 21 -14 21 2 0 10 -8 17 -17z"/>
<path d="M3530 200 c0 -3 9 -11 21 -18 16 -10 19 -10 13 -1 -5 9 -2 11 9 6 10
-4 14 -2 11 7 -4 12 -54 18 -54 6z"/>
<path d="M1695 129 c-5 -8 -4 -10 3 -5 7 4 12 2 12 -3 0 -17 27 -13 34 5 5 13
4 14 -7 6 -10 -8 -17 -8 -24 -1 -8 8 -13 7 -18 -2z"/>
<path d="M1673 107 c0 -7 9 -13 19 -13 10 0 18 1 18 3 0 1 -8 7 -18 12 -13 7
-19 6 -19 -2z"/>
<path d="M1766 102 c-3 -5 1 -9 9 -9 8 0 12 4 9 9 -3 4 -7 8 -9 8 -2 0 -6 -4
-9 -8z"/>
<path d="M1919 94 c-6 -8 -9 -17 -5 -21 3 -3 6 0 6 7 0 10 4 8 13 -4 11 -15
15 -16 25 -4 8 11 7 16 -8 25 -14 10 -21 9 -31 -3z m29 -19 c-3 -3 -9 2 -12
12 -6 14 -5 15 5 6 7 -7 10 -15 7 -18z"/>
<path d="M3198 89 c-7 -4 -9 -12 -4 -16 5 -4 11 -2 13 5 3 6 9 10 13 7 5 -3
11 -2 14 3 6 11 -19 11 -36 1z"/>
<path d="M3270 91 c0 -5 5 -13 10 -16 6 -3 10 -2 10 4 0 5 -4 13 -10 16 -5 3
-10 2 -10 -4z"/>
<path d="M1815 80 c3 -5 8 -10 11 -10 2 0 4 5 4 10 0 6 -5 10 -11 10 -5 0 -7
-4 -4 -10z"/>
<path d="M3250 81 c0 -6 4 -13 10 -16 6 -3 7 1 4 9 -7 18 -14 21 -14 7z"/>
<path d="M3159 53 c-13 -16 -12 -17 4 -4 16 13 21 21 13 21 -2 0 -10 -8 -17
-17z"/>
<path d="M3190 56 c0 -2 8 -10 18 -17 15 -13 16 -12 3 4 -13 16 -21 21 -21 13z"/>
<path d="M1950 46 c0 -2 7 -6 15 -10 8 -3 15 -1 15 4 0 6 -7 10 -15 10 -8 0
-15 -2 -15 -4z"/>
<path d="M1990 21 c0 -6 4 -13 10 -16 6 -3 7 1 4 9 -7 18 -14 21 -14 7z"/>
<path d="M3135 20 c-3 -6 1 -7 9 -4 18 7 21 14 7 14 -6 0 -13 -4 -16 -10z"/>
</g>
</svg>
