<svg width="28" height="28" viewBox="0 0 28 28" fill="none" xmlns="http://www.w3.org/2000/svg">
<path fill-rule="evenodd" clip-rule="evenodd" d="M16.7802 13.9822L9.59522 6.68824C9.28837 6.37674 9.28836 5.87661 9.59519 5.56509C9.8961 5.25958 10.3877 5.25585 10.6932 5.55677C10.696 5.55951 10.6988 5.56227 10.7015 5.56505L17.8867 12.8588L17.8897 12.8558L19 13.9824L18.9968 13.9857L19 13.9889L17.8937 15.1126L17.8902 15.109L10.6744 22.4344C10.3724 22.7409 9.87905 22.7447 9.57246 22.4427C9.56971 22.4399 9.56697 22.4372 9.56426 22.4345C9.25635 22.122 9.2563 21.6202 9.56415 21.3077L16.7802 13.9822Z" fill="white"/>
<mask id="mask0" mask-type="alpha" maskUnits="userSpaceOnUse" x="9" y="5" width="10" height="18">
<path fill-rule="evenodd" clip-rule="evenodd" d="M16.7802 13.9822L9.59522 6.68824C9.28837 6.37674 9.28836 5.87661 9.59519 5.56509C9.8961 5.25958 10.3877 5.25585 10.6932 5.55677C10.696 5.55951 10.6988 5.56227 10.7015 5.56505L17.8867 12.8588L17.8897 12.8558L19 13.9824L18.9968 13.9857L19 13.9889L17.8937 15.1126L17.8902 15.109L10.6744 22.4344C10.3724 22.7409 9.87905 22.7447 9.57246 22.4427C9.56971 22.4399 9.56697 22.4372 9.56426 22.4345C9.25635 22.122 9.2563 21.6202 9.56415 21.3077L16.7802 13.9822Z" fill="white"/>
</mask>
<g mask="url(#mask0)">
<rect x="28" y="28" width="28" height="28" transform="rotate(-180 28 28)" fill="#333333"/>
</g>
</svg>
