<svg width="10" height="18" viewBox="0 0 10 18" fill="none" xmlns="http://www.w3.org/2000/svg">
<path fill-rule="evenodd" clip-rule="evenodd" d="M2.21983 9.01785L9.40478 16.3118C9.71163 16.6233 9.71164 17.1234 9.40481 17.4349C9.1039 17.7404 8.61229 17.7441 8.30677 17.4432C8.30399 17.4405 8.30123 17.4377 8.29849 17.435L1.11328 10.1412L1.11026 10.1442L0 9.01758L0.00319775 9.01433L0 9.01108L1.10627 7.88741L1.10977 7.89096L8.32558 0.565647C8.62759 0.259057 9.12095 0.255342 9.42754 0.557349C9.43029 0.560058 9.43303 0.562788 9.43574 0.565539C9.74365 0.878006 9.7437 1.37979 9.43585 1.69232L2.21983 9.01785Z" fill="#333333"/>
</svg>
