<svg width="10" height="18" viewBox="0 0 10 18" fill="none" xmlns="http://www.w3.org/2000/svg">
<path fill-rule="evenodd" clip-rule="evenodd" d="M7.78017 8.98215L0.595219 1.68824C0.28837 1.37674 0.288356 0.876614 0.595187 0.565094C0.896104 0.259579 1.38771 0.255852 1.69323 0.556768C1.69601 0.559507 1.69877 0.562265 1.70151 0.565046L8.88672 7.85882L8.88974 7.85575L10 8.98242L9.9968 8.98567L10 8.98892L8.89373 10.1126L8.89023 10.109L1.67442 17.4344C1.37241 17.7409 0.879045 17.7447 0.572455 17.4427C0.569705 17.4399 0.566974 17.4372 0.564263 17.4345C0.256347 17.122 0.256298 16.6202 0.564154 16.3077L7.78017 8.98215Z" fill="#333333"/>
</svg>
