<svg width="82" height="77" viewBox="0 0 82 77" fill="none" xmlns="http://www.w3.org/2000/svg">
<path d="M45.1686 75.9994L42.2045 70.4849M15.8246 21.4066L23.2347 35.1926M23.2347 35.1926L26.6355 23.6124M23.2347 35.1926L11.7061 31.884M23.2347 35.1926L29.7556 47.3244M29.7556 47.3244L34.3576 29.6782M29.7556 47.3244L14.2801 42.9128M29.7556 47.3244L37.4621 61.6619M37.4621 61.6619L43.6242 38.5013M37.4621 61.6619L15.8246 55.596M37.4621 61.6619L42.2045 70.4849M42.2045 70.4849C64.5832 40.8348 68.2821 24.8785 6.04321 1.55469" stroke="#344F10"/>
<path d="M6.02918 1C-7.9954 67.9891 8.35849 71.5866 42.08 70.4858M55.9796 48.4281L58.0388 45.2043M69.3646 27.4733L62.6721 37.9507M62.6721 37.9507H71.4238M62.6721 37.9507L60.0981 29.6791M62.6721 37.9507L58.0388 45.2043M58.0388 45.2043H69.3646M58.0388 45.2043L52.3759 55.5969L65.7609 56.6998" stroke="#344F10"/>
<path d="M44.6538 67.177C75.9053 66.7411 87.7534 60.0883 77.2704 13.2222" stroke="#344F10"/>
<path d="M77.6015 13.6875C66.3008 16.306 60.4288 18.5521 52.8907 27.4736" stroke="#344F10"/>
</svg>
