<svg width="32" height="32" viewBox="0 0 32 32" fill="none" xmlns="http://www.w3.org/2000/svg">
<path fill-rule="evenodd" clip-rule="evenodd" d="M12.8227 16.0205L21.0341 24.3564C21.3848 24.7124 21.3848 25.2839 21.0341 25.64C20.6902 25.9891 20.1284 25.9934 19.7792 25.6495C19.776 25.6463 19.7729 25.6432 19.7698 25.64L11.5581 17.3043L11.5546 17.3078L10.2858 16.0202L10.2894 16.0164L10.2858 16.0127L11.5501 14.7285L11.5541 14.7326L19.8007 6.36081C20.1459 6.01042 20.7097 6.00617 21.0601 6.35133C21.0632 6.35442 21.0664 6.35754 21.0695 6.36069C21.4214 6.71779 21.4214 7.29126 21.0696 7.64843L12.8227 16.0205Z" fill="white"/>
<mask id="mask0" mask-type="alpha" maskUnits="userSpaceOnUse" x="10" y="6" width="12" height="20">
<path fill-rule="evenodd" clip-rule="evenodd" d="M12.8227 16.0205L21.0341 24.3564C21.3848 24.7124 21.3848 25.2839 21.0341 25.64C20.6902 25.9891 20.1284 25.9934 19.7792 25.6495C19.776 25.6463 19.7729 25.6432 19.7698 25.64L11.5581 17.3043L11.5546 17.3078L10.2858 16.0202L10.2894 16.0164L10.2858 16.0127L11.5501 14.7285L11.5541 14.7326L19.8007 6.36081C20.1459 6.01042 20.7097 6.00617 21.0601 6.35133C21.0632 6.35442 21.0664 6.35754 21.0695 6.36069C21.4214 6.71779 21.4214 7.29126 21.0696 7.64843L12.8227 16.0205Z" fill="white"/>
</mask>
<g mask="url(#mask0)">
<rect width="32" height="32" fill="#828282"/>
</g>
</svg>
