<?xml version="1.0" standalone="no"?>
<!DOCTYPE svg PUBLIC "-//W3C//DTD SVG 20010904//EN"
 "http://www.w3.org/TR/2001/REC-SVG-20010904/DTD/svg10.dtd">
<svg version="1.0" xmlns="http://www.w3.org/2000/svg"
 width="700.000000pt" height="700.000000pt" viewBox="0 0 700.000000 700.000000"
 preserveAspectRatio="xMidYMid meet">
<metadata>
Created by potrace 1.11, written by Peter Selinger 2001-2013
</metadata>
<g transform="translate(0.000000,700.000000) scale(0.100000,-0.100000)"
fill="#000000" stroke="none">
<path d="M3278 6995 c-1 -1 -41 -5 -88 -9 -87 -7 -105 -9 -225 -27 -116 -18
-123 -19 -192 -35 -177 -40 -243 -58 -355 -95 -680 -226 -1248 -626 -1683
-1184 -157 -201 -325 -479 -420 -695 -26 -58 -51 -114 -56 -125 -47 -103 -149
-427 -175 -560 -2 -11 -13 -65 -24 -120 -24 -124 -30 -163 -47 -345 -15 -162
-8 -594 12 -710 2 -14 6 -47 9 -75 12 -105 35 -222 72 -370 26 -104 82 -289
94 -315 5 -8 25 -60 45 -115 63 -167 249 -531 312 -610 4 -6 34 -49 65 -95
223 -334 575 -681 928 -914 230 -152 400 -243 620 -333 271 -110 595 -198 840
-228 25 -3 56 -7 69 -10 135 -26 695 -26 839 -1 19 4 89 14 142 21 19 3 46 7
60 10 14 3 41 8 60 11 79 13 343 86 468 129 201 68 524 217 624 287 14 10 29
18 32 18 4 0 12 5 19 10 7 6 64 44 127 86 254 168 481 370 715 635 91 103 250
325 338 471 181 301 348 718 413 1033 16 75 54 300 60 350 4 33 9 76 11 95 8
70 10 547 2 610 -4 36 -10 93 -14 127 -3 34 -8 72 -10 84 -3 13 -7 41 -10 64
-3 22 -13 74 -21 115 -194 970 -785 1810 -1634 2322 -163 98 -413 220 -565
274 -249 90 -501 156 -675 179 -19 3 -46 7 -60 10 -13 2 -54 7 -90 11 -36 3
-78 8 -95 11 -33 5 -531 13 -537 8z m547 -149 c17 -3 71 -10 120 -16 814 -101
1604 -538 2143 -1186 91 -111 302 -409 302 -428 0 -2 22 -41 48 -87 126 -222
234 -487 311 -769 24 -88 68 -304 76 -375 3 -27 8 -59 10 -70 25 -128 26 -772
1 -814 -2 -3 -7 -36 -10 -74 -4 -37 -9 -73 -11 -80 -2 -6 -7 -30 -10 -52 -31
-218 -142 -562 -263 -819 -400 -853 -1146 -1505 -2037 -1782 -95 -30 -333 -89
-390 -98 -22 -3 -51 -8 -64 -10 -13 -3 -49 -8 -80 -12 -31 -3 -65 -8 -76 -10
-123 -24 -752 -24 -793 0 -4 2 -35 7 -70 10 -34 4 -86 11 -115 17 -29 5 -65
12 -82 15 -16 3 -84 19 -150 35 -1067 268 -1934 1038 -2325 2064 -52 137 -118
352 -134 435 -2 14 -11 57 -20 95 -42 199 -61 395 -61 660 0 332 24 536 100
835 258 1021 980 1856 1965 2273 301 127 697 223 1005 244 50 3 92 7 94 9 6 5
481 -4 516 -10z"/>
<path d="M3473 4833 c-95 -265 -144 -404 -225 -635 -51 -147 -96 -268 -100
-268 -6 0 -407 256 -835 533 l-102 66 -133 -86 c-73 -47 -169 -109 -213 -137
-44 -29 -111 -72 -149 -97 -38 -24 -113 -72 -165 -106 -53 -34 -140 -90 -195
-125 -178 -114 -231 -148 -246 -158 -8 -6 -44 -29 -80 -52 -162 -104 -320
-208 -320 -210 0 -2 549 -3 1221 -3 805 0 1223 -3 1228 -10 5 -5 34 -73 66
-150 31 -77 63 -153 70 -170 18 -40 114 -276 163 -398 l40 -98 32 78 c17 43
37 92 45 108 7 17 43 104 81 195 37 91 93 228 125 305 l57 140 1198 2 c660 1
1215 2 1234 3 l35 0 -25 14 c-19 10 -677 432 -1045 670 -27 18 -108 70 -180
116 -71 46 -160 103 -198 127 -40 26 -72 41 -80 37 -11 -7 -129 -83 -770 -495
-161 -104 -168 -108 -177 -86 -8 20 -65 179 -240 677 -34 96 -69 197 -79 223
l-18 49 -20 -59z"/>
<path d="M3362 2451 c-73 -148 -132 -272 -132 -275 0 -3 122 -6 270 -6 149 0
270 2 270 5 0 7 -269 545 -273 545 -1 0 -62 -121 -135 -269z"/>
</g>
</svg>
