<?xml version="1.0" standalone="no"?>
<!DOCTYPE svg PUBLIC "-//W3C//DTD SVG 20010904//EN"
 "http://www.w3.org/TR/2001/REC-SVG-20010904/DTD/svg10.dtd">
<svg version="1.0" xmlns="http://www.w3.org/2000/svg"
 width="86.000000pt" height="86.000000pt" viewBox="0 0 86.000000 86.000000"
 preserveAspectRatio="xMidYMid meet">
<metadata>
Created by potrace 1.14, written by Peter Selinger 2001-2017
</metadata>
<g transform="translate(0.000000,86.000000) scale(0.100000,-0.100000)"
fill="#000000" stroke="none">
<path d="M330 840 c0 -5 -11 -10 -25 -10 -14 0 -25 -4 -25 -8 0 -5 -24 -14
-52 -21 -41 -9 -60 -20 -83 -48 -16 -19 -44 -50 -62 -68 -18 -19 -35 -49 -38
-69 -4 -20 -11 -36 -16 -36 -5 0 -9 -9 -9 -20 0 -11 -4 -20 -10 -20 -6 0 -10
-40 -10 -100 0 -60 4 -100 10 -100 6 0 10 -11 10 -25 0 -14 4 -25 10 -25 5 0
12 -16 16 -35 3 -19 10 -35 15 -35 5 0 9 -6 9 -14 0 -8 9 -17 19 -21 11 -3 23
-15 26 -26 11 -33 53 -68 90 -75 19 -3 35 -10 35 -15 0 -5 9 -9 19 -9 11 0 21
-6 24 -12 3 -10 42 -13 149 -13 137 0 148 1 165 21 10 12 33 25 51 29 32 7
142 104 142 125 0 5 5 10 10 10 6 0 10 9 10 20 0 11 4 20 9 20 15 0 31 94 31
180 0 82 -17 180 -32 180 -4 0 -8 7 -8 15 0 14 -19 39 -59 79 -57 56 -85 76
-120 86 -23 6 -41 15 -41 20 0 6 -13 10 -30 10 -16 0 -30 5 -30 10 0 6 -40 10
-100 10 -60 0 -100 -4 -100 -10z m150 -20 c0 -5 16 -10 36 -10 43 0 114 -20
114 -32 0 -4 9 -8 19 -8 11 0 23 -9 26 -20 3 -11 10 -20 14 -20 14 0 81 -65
81 -78 0 -7 5 -12 10 -12 6 0 10 -9 10 -20 0 -11 5 -20 10 -20 6 0 10 -9 10
-19 0 -11 6 -21 12 -23 17 -6 17 -240 0 -246 -7 -2 -12 -12 -12 -23 0 -10 -4
-19 -10 -19 -5 0 -10 -7 -10 -15 0 -8 -4 -15 -10 -15 -5 0 -10 -9 -10 -20 0
-10 -10 -24 -21 -31 -28 -14 -89 -75 -83 -82 3 -2 -22 -10 -56 -18 -33 -7 -60
-17 -60 -21 0 -4 -16 -8 -35 -8 -19 0 -35 -4 -35 -10 0 -5 -25 -10 -55 -10
-30 0 -55 5 -55 10 0 6 -18 10 -40 10 -22 0 -40 4 -40 9 0 5 -21 14 -46 20
-34 9 -58 25 -97 65 -29 30 -53 60 -55 68 -2 7 -8 15 -13 16 -5 2 -9 10 -9 18
0 8 -4 14 -10 14 -5 0 -12 27 -16 60 -4 33 -11 60 -15 60 -5 0 -9 23 -9 50 0
28 4 50 9 50 5 0 11 23 13 52 3 29 11 54 17 56 6 2 11 12 11 23 0 10 5 19 10
19 6 0 10 5 10 10 0 19 100 120 120 120 5 0 10 4 10 9 0 5 34 15 75 22 41 7
75 17 75 21 0 4 25 8 55 8 30 0 55 -4 55 -10z"/>
<path d="M403 565 c-7 -8 -13 -26 -13 -40 0 -16 -6 -25 -15 -25 -8 0 -15 5
-15 10 0 6 -6 10 -13 10 -7 0 -19 9 -27 20 -15 21 -80 29 -80 10 0 -5 -9 -10
-19 -10 -11 0 -23 -9 -26 -20 -3 -11 -15 -20 -25 -20 -10 0 -32 -13 -50 -30
l-32 -30 151 0 151 0 0 -24 c0 -13 5 -26 11 -28 14 -5 15 -71 1 -76 -7 -2 -12
-12 -12 -23 0 -15 7 -19 35 -19 28 0 35 4 35 19 0 11 -5 21 -12 23 -14 5 -13
71 1 76 6 2 11 15 11 28 l0 24 155 0 c133 0 154 2 149 15 -4 8 -15 15 -25 15
-10 0 -19 4 -19 9 0 5 -10 13 -22 17 -13 4 -30 15 -39 25 -9 11 -24 19 -33 19
-9 0 -16 5 -16 10 0 18 -55 11 -70 -10 -8 -11 -20 -20 -27 -20 -7 0 -13 -4
-13 -10 0 -5 -9 -10 -20 -10 -15 0 -20 7 -20 26 0 25 -20 54 -37 54 -4 -1 -14
-7 -20 -15z"/>
</g>
</svg>
