<svg width="11" height="12" viewBox="0 0 11 12" fill="none" xmlns="http://www.w3.org/2000/svg">
<path d="M4.98367 0.519714C4.25273 0.559182 3.59562 0.729385 2.91391 1.05499C2.51111 1.24822 2.14769 1.48009 1.81299 1.75883C1.67435 1.87394 1.35523 2.19708 1.23382 2.34344C0.593938 3.11882 0.164071 4.10797 0.0377364 5.09795C0.0057425 5.34544 0 5.4474 0 5.76396C0 6.14795 0.0172275 6.35515 0.0787542 6.69474C0.223137 7.49971 0.591477 8.33757 1.09189 9.0003C1.69486 9.79787 2.55705 10.4014 3.58086 10.7426C3.95658 10.8676 4.30769 10.9424 4.73346 10.9868C4.90819 11.0049 5.46029 11.0074 5.62765 10.9909C6.35038 10.9202 6.92873 10.7541 7.56369 10.4368C8.38076 10.0273 9.01982 9.46569 9.49973 8.73636C9.9739 8.01525 10.2807 7.17904 10.3726 6.35597C10.4792 5.40711 10.3316 4.47222 9.93452 3.58502C9.51532 2.64767 8.91892 1.9315 8.12153 1.40773C7.63178 1.08706 7.00421 0.810787 6.44636 0.671007C5.96563 0.55096 5.42994 0.495047 4.98367 0.519714ZM5.47588 1.39376C5.92954 1.42582 6.38155 1.53025 6.8065 1.7021C7.76796 2.09184 8.45706 2.68467 8.94025 3.53569C9.4382 4.41467 9.62853 5.35366 9.50711 6.3272C9.38898 7.27442 8.89923 8.2685 8.23638 8.90821C7.90496 9.22724 7.56697 9.4624 7.1289 9.67782C6.59321 9.94176 6.07556 10.084 5.50131 10.1268C5.32986 10.1391 4.90655 10.1325 4.75479 10.1144C4.24781 10.0544 3.81302 9.93107 3.36182 9.71976C2.69897 9.40977 2.16574 8.98139 1.75146 8.42802C1.2896 7.81052 0.981967 7.04666 0.890087 6.29102C0.790824 5.47124 0.922901 4.66134 1.28058 3.89254C1.73423 2.91819 2.42744 2.22751 3.39217 1.79008C3.9172 1.55245 4.39875 1.42993 4.96726 1.39129C5.05914 1.38471 5.36841 1.38636 5.47588 1.39376Z" fill="#E4DFD3"/>
<path d="M5.00865 2.59095C4.59437 2.62878 4.2613 2.72334 3.92168 2.90176C3.08737 3.33837 2.48605 4.18117 2.30639 5.16786C2.26537 5.39397 2.25635 5.5058 2.25635 5.79276C2.25635 5.99914 2.26045 6.08712 2.27111 6.17921C2.3671 6.95623 2.68293 7.62306 3.20386 8.14436C3.65588 8.59824 4.19321 8.87369 4.80766 8.9666C4.95615 8.98963 5.27363 8.99785 5.42457 8.98387C6.04722 8.92385 6.5944 8.67882 7.08088 8.24221C7.29909 8.04734 7.51813 7.77436 7.6781 7.50055C7.76752 7.34761 7.87908 7.10916 7.92995 6.9628L7.94389 6.92005L7.89795 6.90443C7.87252 6.89538 7.66661 6.82302 7.44101 6.74409C7.21541 6.66515 7.02427 6.59855 7.01607 6.59691C7.00458 6.59526 6.99392 6.61418 6.96192 6.69311C6.84707 6.97761 6.69285 7.21359 6.48201 7.42573C6.00621 7.9018 5.37863 8.08927 4.76993 7.93469C4.20716 7.79162 3.72069 7.36488 3.46227 6.78767C3.31789 6.46699 3.25308 6.15537 3.25308 5.78865C3.25308 5.38739 3.33266 5.04534 3.50821 4.69918C3.67557 4.36782 3.92332 4.08497 4.217 3.89092C4.74203 3.54475 5.38684 3.49789 5.94796 3.76511C6.14321 3.85803 6.30892 3.97807 6.47791 4.14746C6.60015 4.27079 6.71253 4.41139 6.78473 4.53309L6.82492 4.59969L6.85035 4.58489C6.86348 4.57666 7.05216 4.46648 7.26874 4.3415C7.48531 4.2157 7.66907 4.10881 7.67646 4.10305C7.68876 4.09483 7.68384 4.08332 7.62641 3.99123C7.1826 3.27506 6.49104 2.785 5.71252 2.63618C5.55173 2.60493 5.42621 2.59342 5.23425 2.59013C5.13088 2.58931 5.02916 2.58931 5.00865 2.59095Z" fill="#E4DFD3"/>
</svg>
