<svg width="81" height="76" viewBox="0 0 81 76" fill="none" xmlns="http://www.w3.org/2000/svg">
<g id="Group 9">
<path id="Vector" d="M44.6163 75.0017L41.6893 69.5608M15.6391 21.137L22.9565 34.7392M22.9565 34.7392L26.3149 23.3133M22.9565 34.7392L11.5721 31.4746M22.9565 34.7392L29.3959 46.7091M29.3959 46.7091L33.9405 29.2983M29.3959 46.7091L14.1139 42.3564M29.3959 46.7091L37.0061 60.8554M37.0061 60.8554L43.0912 38.0037M37.0061 60.8554L15.6391 54.8704M37.0061 60.8554L41.6893 69.5608M41.6893 69.5608C63.7882 40.306 67.4409 24.5625 5.97998 1.5498" stroke="#344F10"/>
<path id="Vector 12" d="M5.96631 1.00195C-7.88296 67.0977 8.26651 70.6472 41.5665 69.5611M55.2924 47.7976L57.3258 44.6168M68.51 27.1222L61.9012 37.4599M61.9012 37.4599H70.5435M61.9012 37.4599L59.3593 29.2986M61.9012 37.4599L57.3258 44.6168M57.3258 44.6168H68.51M57.3258 44.6168L51.7337 54.8707L64.9514 55.9589" stroke="#344F10"/>
<path id="Vector 13" d="M44.1084 66.2963C74.9692 65.8662 86.6692 59.3022 76.3173 13.061" stroke="#344F10"/>
<path id="Vector 14" d="M76.6441 13.52C65.4846 16.1036 59.686 18.3197 52.2422 27.1222" stroke="#344F10"/>
</g>
</svg>
