<svg width="99" height="85" viewBox="0 0 99 85" fill="none" xmlns="http://www.w3.org/2000/svg">
<g id="Group 11">
<g id="Group 8">
<path id="Vector 12" d="M75.1173 14.4124L69.9773 18.1198C56.1086 -0.45412 48.5972 -10.3656 24.6519 22.7541L41.4737 32.9496C43.8647 24.9778 45.877 20.9163 50.8191 14.4124L56.4264 25.5347L50.8191 29.7056C57.602 30.3542 61.2346 30.4391 67.1737 29.7056C71.1995 24.8744 73.0572 21.6668 75.1173 14.4124Z" stroke="#344F10"/>
</g>
<g id="Group 8.1">
<path id="Vector 12_2" d="M63.2896 76.329L62.5124 69.9962C85.2809 66.5233 97.4835 64.5718 80.0731 27.5196L63.1879 37.6075C68.9852 43.5295 71.5605 47.2523 74.8653 54.7416L62.5162 54.4246L61.5584 47.4558C57.7627 53.173 55.9582 56.3599 53.7671 61.9858C56.0529 67.8641 57.9588 71.0427 63.2896 76.329Z" stroke="#344F10"/>
</g>
<g id="Group 8.2">
<path id="Vector 12_3" d="M11.187 34.8017L17.0451 37.1853C9.01151 58.9909 4.78422 70.7212 45.2955 73.2996L44.7509 53.4861C36.8143 55.7382 32.3436 56.2091 24.2591 55.4985L30.5209 44.7386L37.0169 47.271C33.909 41.1445 32.0255 38.0047 28.2185 33.3404C22.0224 32.5104 18.3471 32.6537 11.187 34.8017Z" stroke="#344F10"/>
</g>
</g>
</svg>
